g Apple_01
v -0.000370933209 0.000314964011 0.000279041764
v -0.0003638044 0.000682888669 0.000718528172
v -0.000628475507 0.000567834475 0.000568269868
v -9.48536399E-05 0.000419007119 0.000416233757
v -0.000205623277 0.000197128189 8.34073398E-06
v -0.000197783927 0.000601827109 0.000986357336
v 8.05891395E-05 0.000294083788 0.000128956337
v 9.7006392E-05 0.000274523569 -0.000904852699
v 0.000388977845 0.000368916546 -0.00079664035
v 0.000109723056 0.000300730317 0.000639896549
v -0.000227665412 0.000372137147 0.0012148649
v 0.00032290924 0.000149415864 0.000290877244
v 0.000675870629 0.000222346294 -0.000751083018
v 0.000789626676 -7.93306608E-05 -0.000794865191
v 0.000122960322 2.94207584E-05 0.000819012814
v -0.00043594552 0.000128366475 0.00127019407
v 0.00037938921 -0.000152131994 0.000399254553
v 0.000663611572 -0.000359393132 -0.000902339059
v -6.28979469E-05 -0.000235991189 0.000848655356
v -0.000700616511 1.33146277E-05 0.00111993426
v 0.000216943648 -0.000433916139 0.000390598987
v 0.000371642003 -0.00045378739 -0.00101054844
v -0.000338977814 -0.000340033846 0.000711463799
v -0.000866637449 9.43742489E-05 0.000852106954
v -6.92684553E-05 -0.000530872203 0.000269982964
v -0.000543553906 -0.000221757917 0.000487800222
v -0.000836755906 0.000324064196 0.000623599335
v -0.000311588577 -0.00038620425 0.0001080621
v 8.47491974E-05 -0.000307217182 -0.0010561056
v -2.90092448E-05 -5.54082908E-06 -0.0010123247
v -0.00055678963 4.95506756E-05 0.000308687391
v -0.000628475507 0.000567834475 0.000568269868
v -0.000370933209 0.000314964011 0.000279041764
v -0.00036806913 -8.4655534E-05 -3.14433123E-07
v 9.7006392E-05 0.000274523569 -0.000904852699
v -0.000205623277 0.000197128189 8.34073398E-06
v -0.000227665412 0.000372137147 0.0012148649
v -0.00043594552 0.000128366475 0.00127019407
v -0.000700616511 1.33146277E-05 0.00111993426
v -0.000532211736 0.000348101632 0.000919230864
v -0.000197783927 0.000601827109 0.000986357336
v -0.000866637449 9.43742489E-05 0.000852106954
v -0.0003638044 0.000682888669 0.000718528172
v -0.000836755906 0.000324064196 0.000623599335
v -0.000628475507 0.000567834475 0.000568269868
v 0.00123694795 0.000198648326 -0.000284466543
v 0.000782364514 6.58282588E-05 -0.000749892555
v 0.000728003681 0.000169584499 -0.000743765908
v 0.00111873099 0.000424277823 -0.000271143188
v 0.00177385367 0.000373459305 2.2966191E-05
v 0.000648748479 0.000256031548 -0.000741926022
v 0.00158319226 0.000737347873 4.44529942E-05
v 0.00244520931 0.000601840205 0.000275100843
v 0.000946378685 0.000612268865 -0.000267143274
v 0.000550000404 0.000319278828 -0.000744498218
v 0.00216559437 0.00113550946 0.000306608534
v 0.00316026551 0.00086681277 0.000250243029
v 0.00130523008 0.0010405333 5.09074307E-05
v 0.00073164067 0.000749810482 -0.000272736273
v 0.000438492658 0.000355018303 -0.000751307234
v 0.00278951158 0.00157442491 0.00029202475
v 0.00381992338 0.00113107602 -4.03739505E-05
v 0.00175794458 0.00158015068 0.000316072896
v 0.000958906545 0.00126235851 4.18835116E-05
v 0.000489150756 0.000827530108 -0.000287544681
v 0.000321821077 0.000360813516 -0.000761891191
v 0.00336838095 0.00199287292 1.05147064E-05
v 0.00427214056 0.00134766183 -0.000718049414
v 0.00224898849 0.00216399482 0.000304569374
v 0.0012500349 0.00190547062 0.000302838889
v 0.000567823998 0.00138770172 1.80017196E-05
v 0.000235429921 0.000840129389 -0.000310558302
v 0.000207935591 0.000336266588 -0.000775525579
v 0.00377109996 0.00230393559 -0.000661583093
v 0.0044984119 0.00151073746 -0.00179596059
v 0.00271007954 0.00271091028 2.57930151E-05
v 0.00157553086 0.00259534921 0.000287025556
v 0.000676485361 0.00208929554 0.000267812429
v 0.000158632058 0.0014080226 -1.91137933E-05
v -1.22248894E-05 0.000786754012 -0.000340208353
v 0.000104601662 0.00028305524 -0.000791282859
v 0.00398168666 0.00249694427 -0.00173772569
v 0.00446812948 0.00158293359 -0.00292152422
v 0.00304063363 0.00310068624 -0.000644627959
v 0.00188987877 0.0032362577 4.42363307E-06
v 0.000815038977 0.00283909147 0.000240582551
v 7.63799617E-05 0.00211909879 0.00021338134
v -0.000240780151 0.00132193801 -6.69319052E-05
v -0.000236938999 0.0006710366 -0.000374474301
v 1.88581271E-05 0.000204802782 -0.000808088342
v -0.000423402322 0.000500865222 -0.000411020708
v -4.345052E-05 0.000106842737 -0.000824797258
v -0.000603193417 0.0011353147 -0.000122196114
v -0.000509384321 0.00199285126 0.000143252313
v 1.93350752E-05 0.00287860841 0.000168410756
v 0.00096367643 0.00353310909 -5.21375987E-05
v -0.00055890216 0.000287836825 -0.000447354454
v -7.80791379E-05 -4.14975921E-06 -0.000840269437
v -0.00090391346 0.000860865926 -0.000181135561
v -0.00104088942 0.00171915174 6.22077059E-05
v -0.000757355359 0.00271120993 7.54251523E-05
v -0.000634207216 4.64676486E-05 -0.000481004216
v -8.2667917E-05 -0.000120610785 -0.000853453879
v -0.0011224451 0.000517299981 -0.000239736357
v -0.00148191617 0.00131665647 -2.4231038E-05
v -0.000644182088 -0.000206789031 -0.000509674486
v -5.69033255E-05 -0.000234603125 -0.000863450754
v -0.000588151859 -0.000454678899 -0.000531414116
v -0.00124389364 0.000128028798 -0.000294005498
v -0.00125998491 -0.000280419074 -0.000340245606
v -0.00116962066 -0.000680211757 -0.00037530344
v -0.00180240523 0.000812793791 -0.000110173896
v -0.00146210135 0.0023483017 -3.20374966E-05
v -0.00200411701 -0.000357116427 -0.000257576263
v -0.00187159237 -0.000943436811 -0.000308991846
v -0.00198051892 0.000241901056 -0.000189766914
v -0.00204687705 0.00181461568 -0.000146651335
v -0.00273928512 -0.000404709484 -0.000456057693
v -0.0025635662 -0.0011821381 -0.000524228264
v -0.00270799594 0.000389551482 -0.000366140157
v -0.00247182697 0.00114652398 -0.000260609377
v -0.00336512947 -0.000417510048 -0.00090057432
v -0.00315112085 -0.00136433693 -0.000983601436
v -0.00332702091 0.000549820252 -0.000791066035
v -0.00303939288 0.00147173554 -0.000662540086
v -0.00252184598 0.0022854032 -0.000523751194
v -0.00180965033 0.00293537788 -0.00038416317
v -0.00370056648 -0.0003706844 -0.00167254847
v -0.00346309831 -0.00142130873 -0.00176467642
v -0.00365828141 0.000702686142 -0.00155103439
v -0.00333912135 0.00172566704 -0.00140841922
v -0.00276483968 0.00262853107 -0.00125441665
v -0.00372386607 -0.00026140004 -0.00278033735
v -0.00347896339 -0.0013449114 -0.00287534879
v -0.0036802562 0.000845573144 -0.00265502091
v -0.00335110631 0.00190057466 -0.00250793947
v -0.00347232749 -0.000128462241 -0.00387216266
v -0.00323581859 -0.00117483735 -0.00396391703
v -0.00343021238 0.000940567523 -0.00375114195
v -0.00295079988 1.8236562E-05 -0.00485416222
v -0.00273875194 -0.000919916027 -0.00493642874
v -0.00197456917 0.00334976078 -0.0010995263
v -0.00275884802 0.00283170189 -0.00234911731
v -0.00311234314 0.00195940724 -0.00360910012
v -0.00291304174 0.000976701267 -0.00474565756
v -0.0021937429 0.000169003237 -0.00566142844
v -0.00202060654 -0.000596994883 -0.00572859868
v -0.00194383902 0.00357550709 -0.00218937756
v -0.00254038558 0.00285862084 -0.00345572317
v -0.00262804865 0.00189017132 -0.00461830804
v -0.00216291263 0.000951587921 -0.00557283452
v -0.00125873717 0.000306748057 -0.0061766454
v -0.00113631005 -0.000234893698 -0.00622414332
v -0.00175331126 0.00357693247 -0.0033014582
v -0.00211524521 0.00269638142 -0.00448079221
v -0.00193021691 0.00169743062 -0.00546885421
v -0.00123693736 0.000860118715 -0.00611400092
v -0.000212031591 0.00041920034 -0.00633837469
v -0.000148659339 0.000138826188 -0.00636295881
v 0.000888818468 0.000514380401 -0.0062788981
v -0.000200746348 0.000705647806 -0.00630594837
v -0.000115573406 0.000978645054 -0.00626788707
v 3.7682501E-05 0.00121958787 -0.00622678874
v 0.000248577737 0.0014120586 -0.00618545339
v -0.00107239606 0.00138750998 -0.00604047533
v -0.000776328263 0.00185297674 -0.00596108148
v -0.00151151419 0.00235570176 -0.00535657536
v -0.000368908339 0.00222480297 -0.00588122848
v -0.000935336633 0.00288154068 -0.00524364319
v 0.00050274044 0.00154293934 -0.00614669966
v 0.000122095938 0.00247764471 -0.00580635853
v -0.0014095743 0.00334040099 -0.00434248289
v -0.000240951471 0.0032391143 -0.00513776299
v 0.000782849151 0.00160331011 -0.00611316413
v -0.000559129636 0.00377833727 -0.00421280414
v 0.000663224608 0.0025942733 -0.00574157387
v 0.00106981618 0.00158906006 -0.00608713599
v 0.000524320465 0.0034040527 -0.00504614506
v -0.000804764335 0.00406538555 -0.00315682078
v 0.00121760019 0.00256673992 -0.0056912899
v 0.000378134311 0.00398034463 -0.00410059374
v -0.000961627695 0.00408129673 -0.00203960761
v 0.00134408288 0.00150115578 -0.00607038662
v 0.00130832789 0.00336511596 -0.00497503206
v 0.000240617184 0.0042906953 -0.00303166709
v -0.00102216925 0.00384019664 -0.000954300573
v 0.0017474445 0.00239692396 -0.00565893296
v 0.00158696144 0.00134558941 -0.00606405782
v 0.0013383422 0.00393265858 -0.00401350064
v 0.000120855679 0.00431460142 -0.0019100107
v -0.00095134147 0.00337736262 -0.000253287144
v 0.00178189762 0.00113296462 -0.00606858172
v 0.00191560772 0.000877768674 -0.00608365238
v 2.74572521E-05 0.00406642165 -0.000828637974
v -5.41113286E-06 0.00358123821 -0.000140037795
v 0.0013115902 0.00423750561 -0.00293452502
v 0.00221664994 0.00209639268 -0.00564670842
v 0.00259323744 0.00168563228 -0.00565544842
v 0.00285154604 0.00119263306 -0.0056845611
v 0.00110277906 0.00401301729 -0.000731103937
v 0.00122984091 0.00425952626 -0.00180942228
v 0.00205763872 0.00312495674 -0.00492927153
v 0.00325376983 0.00211904035 -0.00492434483
v 0.00361907412 0.00142183225 -0.00496551488
v 0.00272119534 0.00269994466 -0.00491198525
v 0.00225605909 0.00363852619 -0.00395745691
v 0.00233517075 0.0039094449 -0.00287201628
v 0.0030687456 0.00311799138 -0.00393628189
v 0.00372101483 0.00240653497 -0.00395142287
v 0.00416841963 0.00155263254 -0.00400184374
v 0.00228974945 0.0039198217 -0.00174469466
v 0.00324160396 0.00332886563 -0.00284840167
v 0.00396911334 0.00253533595 -0.00286528631
v 0.00322835427 0.00331863598 -0.00172024127
v 0.0021305175 0.00368362386 -0.000668340828
v -0.000588151859 -0.000454678899 -0.000531414116
v -5.69033255E-05 -0.000234603125 -0.000863450754
v -2.54068527E-06 -0.00033835799 -0.000869575422
v -0.000469933671 -0.000680308905 -0.000544733775
v -0.00116962066 -0.000680211757 -0.00037530344
v 7.67147503E-05 -0.000424805447 -0.000871415541
v -0.000978961587 -0.00104409945 -0.00039678617
v -0.00187159237 -0.000943436811 -0.000308991846
v -0.000297582563 -0.000868299452 -0.000548737415
v 0.000175462774 -0.000488052727 -0.000868843403
v -0.00159197848 -0.0014771031 -0.000340504717
v -0.0025635662 -0.0011821381 -0.000524228264
v -8.28455741E-05 -0.001005842 -0.000543141854
v 0.000286970288 -0.000523791823 -0.000862034096
v -0.000700997422 -0.00134728593 -0.000403241167
v -0.00219281344 -0.0018897478 -0.000566011528
v -0.00315112085 -0.00136433693 -0.000983601436
v 0.000159646617 -0.0010835611 -0.000528332195
v 0.000403642684 -0.000529585464 -0.000851452351
v -0.000354672957 -0.00156911043 -0.000394216215
v -0.00118432567 -0.001921747 -0.000349967129
v -0.00269958051 -0.0022261343 -0.00103448704
v -0.00346309831 -0.00142130873 -0.00176467642
v 0.000413365429 -0.00109616132 -0.000505320204
v 0.000517525652 -0.000505041564 -0.000837817788
v -0.00165228895 -0.00247931993 -0.000578558189
v -0.000676417199 -0.00224706694 -0.000336733821
v 3.6409645E-05 -0.00169445376 -0.000370334456
v -0.00296205748 -0.00237757806 -0.00182114181
v -0.00347896339 -0.0013449114 -0.00287534879
v 0.000661019993 -0.00104278559 -0.000475669804
v 0.000620862411 -0.000451827771 -0.000822061033
v -0.00204127794 -0.00294417283 -0.00104976655
v -0.000978832366 -0.00291067502 -0.000561011722
v -0.000102867671 -0.00243089232 -0.000301707303
v 0.00044559958 -0.00171477569 -0.000333220494
v -0.00296224002 -0.00233111531 -0.00293358136
v -0.00323581859 -0.00117483735 -0.00396391703
v 0.000885735732 -0.00092706806 -0.000441407115
v 0.000706605904 -0.000373575283 -0.000805255608
v -0.00223158882 -0.0031743322 -0.00183809665
v -0.00122107682 -0.00346952071 -0.00102839747
v -0.000218339701 -0.00315441634 -0.000514571031
v 0.000845011731 -0.0016286911 -0.000285402493
v 0.000497237837 -0.00246069534 -0.000247276301
v 0.00107219862 -0.00075689581 -0.000404860068
v 0.000768914586 -0.000275615224 -0.000788546575
v 0.00120742666 -0.00144206476 -0.000230142585
v 0.00108300231 -0.00233444548 -0.000177148671
v 0.000577365863 -0.00319393422 -0.000442395714
v -0.000294873782 -0.00376637024 -0.000971838017
v 0.00120769721 -0.000543868518 -0.000368523615
v 0.000803542091 -0.000164623765 -0.000773071835
v 0.00150814618 -0.00116761797 -0.000171201493
v 0.00161450775 -0.00206074631 -9.61044061E-05
v 0.00135405629 -0.00302653504 -0.000349410286
v 0.00128300162 -0.000302501256 -0.000334872107
v 0.000808130775 -4.81626703E-05 -0.000759887393
v 0.00172667624 -0.000824052084 -0.000112597198
v 0.00205553323 -0.00165825302 -9.65997515E-06
v 0.00129297911 -4.92416111E-05 -0.000306202041
v 0.000782364514 6.58282588E-05 -0.000749892555
v 0.00123694795 0.000198648326 -0.000284466543
v 0.00184812432 -0.000434780493 -5.83276124E-05
v 0.00186421687 -2.63322509E-05 -1.20868535E-05
v 0.00177385367 0.000373459305 2.2966191E-05
v 0.00237602205 -0.00115438993 7.6283286E-05
v 0.00205880287 -0.0026636254 -0.000241949441
v 0.00257773465 1.55209746E-05 0.000223686686
v 0.00244520931 0.000601840205 0.000275100843
v 0.00255413796 -0.00058349513 0.000155871137
v 0.00264357589 -0.00212994032 -0.000127333245
v 0.00333598466 8.93847973E-05 0.000182069241
v 0.00316026551 0.00086681277 0.000250243029
v 0.00330469431 -0.000704877079 9.21542887E-05
v 0.00306852604 -0.00146184862 -1.33791564E-05
v 0.00403393107 0.000184248827 -0.000123401871
v 0.00381992338 0.00113107602 -4.03739505E-05
v 0.00399582274 -0.000783083029 -0.000232908118
v 0.00370819471 -0.00170499517 -0.000361438375
v 0.00319064735 -0.00251866505 -0.000500221911
v 0.00247845217 -0.00316863763 -0.000639811915
v 0.00450961012 0.000297040271 -0.00081017788
v 0.00427214056 0.00134766183 -0.000718049414
v 0.00446732529 -0.000776332978 -0.000931690913
v 0.00414816476 -0.00179931126 -0.00107430748
v 0.00357388309 -0.00270217774 -0.00122830854
v 0.00474331342 0.000427226856 -0.00189097226
v 0.0044984119 0.00151073746 -0.00179596059
v 0.00469970377 -0.000679747143 -0.00201628893
v 0.00437055621 -0.00173474557 -0.00216337061
v 0.00470463745 0.000536560954 -0.00301328045
v 0.00446812948 0.00158293359 -0.00292152422
v 0.00466252444 -0.000532470352 -0.00313430186
v 0.00438046455 0.000614479999 -0.00408411026
v 0.00416841963 0.00155263254 -0.00400184374
v 0.00278361375 -0.00342340465 -0.00138319947
v 0.00377829536 -0.00266587525 -0.00232219207
v 0.00434465334 -0.00155131158 -0.00327634113
v 0.00434270734 -0.000343987078 -0.004192614
v 0.00379221188 0.000655834912 -0.00503268419
v 0.00361907412 0.00142183225 -0.00496551488
v 0.00296329008 -0.00340968044 -0.00248193089
v 0.00377269555 -0.00245052576 -0.00342971925
v 0.00405771239 -0.00125745358 -0.00431996351
v 0.00376138021 -0.000126749743 -0.00512127811
v 0.00297397375 0.000650990172 -0.00573205622
v 0.00285154604 0.00119263306 -0.0056845611
v 0.00298562227 -0.00316883414 -0.00358398398
v 0.00354490965 -0.00206366717 -0.00445747888
v 0.00352868531 -0.00087259151 -0.00522525795
v 0.00295217289 9.76189694E-05 -0.0057947007
v 0.00197897991 0.000597394246 -0.00610823696
v 0.00191560772 0.000877768674 -0.00608365238
v 0.000888818468 0.000514380401 -0.0062788981
v 0.00196769601 0.000310947944 -0.00614066515
v 0.00188252295 3.79512094E-05 -0.00617872598
v 0.00172926625 -0.000202993295 -0.00621982245
v 0.0015183721 -0.000395463634 -0.00626115687
v 0.00278763194 -0.00042977152 -0.00586822629
v 0.00249156449 -0.000895238889 -0.00594762061
v 0.00310998107 -0.00153086404 -0.0053375382
v 0.00208414486 -0.00126706506 -0.00602747314
v 0.00253380532 -0.00205670227 -0.00545046851
v 0.00126420893 -0.000526345335 -0.00629991293
v 0.00159314147 -0.00151990738 -0.00610234449
v 0.00283924001 -0.00270768697 -0.0045957882
v 0.00183942041 -0.00241427659 -0.00555635011
v 0.000984100276 -0.0005867164 -0.00633344753
v 0.00198879535 -0.00314562349 -0.00472546695
v 0.00105201104 -0.00163653574 -0.00616712775
v 0.000697133539 -0.000572463789 -0.00635947706
v 0.00107414799 -0.00257921359 -0.00564797036
v 0.00203707651 -0.00365728932 -0.00372862024
v 0.00049763557 -0.00160900271 -0.00621741358
v 0.00105153176 -0.00334763061 -0.00483767688
v 0.00198107655 -0.0039154673 -0.00263170293
v 0.000422866782 -0.000484559947 -0.00637622643
v 0.000290140946 -0.00254027848 -0.00571908103
v 0.000991694862 -0.00388259883 -0.00385377673
v 0.00183121278 -0.00391384307 -0.00152842444
v -3.22085616E-05 -0.00143918674 -0.00624976959
v 0.000179988885 -0.000328995433 -0.00638255337
v 9.13242984E-05 -0.00329994247 -0.00492477277
v 0.000898592873 -0.00414877571 -0.00276129809
v 0.00162014412 -0.00361062377 -0.000770688639
v -1.49497382E-05 -0.000116369127 -0.00637802901
v -0.000148659339 0.000138826188 -0.00636295881
v 0.00078158651 -0.00414006831 -0.00165408745
v 0.00067421369 -0.00381449936 -0.00088393793
v -7.92790961E-05 -0.0038294096 -0.00395091623
v -0.000501413946 -0.00113865547 -0.00626199413
v -0.00087800232 -0.000727894134 -0.00625325367
v -0.00113631005 -0.000234893698 -0.00622414332
v -0.000293736899 -0.00408666441 -0.00175162195
v -0.000210391881 -0.00409370009 -0.00286188675
v -0.000459170929 -0.00230011926 -0.0057648411
v -0.00165530434 -0.00129420171 -0.0057697678
v -0.00202060654 -0.000596994883 -0.00572859868
v -0.00112272718 -0.00187510753 -0.00578212924
v -0.00082639273 -0.00300581031 -0.00498081557
v -0.00110285811 -0.00350134913 -0.00401342427
v -0.00163907872 -0.00248527736 -0.00500198826
v -0.00229135086 -0.00177381723 -0.00498684915
v -0.00273875194 -0.000919916027 -0.00493642874
v -0.00127029954 -0.00375399529 -0.00292661414
v -0.00200929143 -0.00292076869 -0.00403704215
v -0.00273680571 -0.00212723925 -0.00402015494
v -0.00220890529 -0.00315281004 -0.00295106811
v -0.00132147374 -0.00375726866 -0.00181438623
v 0.000782364514 6.58282588E-05 -0.000749892555
v 0.000808130775 -4.81626703E-05 -0.000759887393
v 0.000803542091 -0.000164623765 -0.000773071835
v 0.000768914586 -0.000275615224 -0.000788546575
v 0.000728003681 0.000169584499 -0.000743765908
v 0.000706605904 -0.000373575283 -0.000805255608
v 0.000648748479 0.000256031548 -0.000741926022
v 0.000620862411 -0.000451827771 -0.000822061033
v 0.000550000404 0.000319278828 -0.000744498218
v 0.000517525652 -0.000505041564 -0.000837817788
v 0.000438492658 0.000355018303 -0.000751307234
v 0.000403642684 -0.000529585464 -0.000851452351
v 0.000321821077 0.000360813516 -0.000761891191
v 0.000286970288 -0.000523791823 -0.000862034096
v 0.000207935591 0.000336266588 -0.000775525579
v 0.000175462774 -0.000488052727 -0.000868843403
v 0.000104601662 0.00028305524 -0.000791282859
v 7.67147503E-05 -0.000424805447 -0.000871415541
v 1.88581271E-05 0.000204802782 -0.000808088342
v -2.54068527E-06 -0.00033835799 -0.000869575422
v -4.345052E-05 0.000106842737 -0.000824797258
v -5.69033255E-05 -0.000234603125 -0.000863450754
v -7.80791379E-05 -4.14975921E-06 -0.000840269437
v -8.2667917E-05 -0.000120610785 -0.000853453879
vt 1.17675781 0.424804688
vt 1.16992188 0.437988281
vt 1.17871094 0.436523438
vt 1.16796875 0.42578125
vt 1.17578125 0.416015625
vt 1.16210938 0.440185547
vt 1.16796875 0.416015625
vt 1.17871094 0.390869141
vt 1.16992188 0.389892578
vt 1.16015625 0.426757812
vt 1.15429688 0.442382812
vt 1.15917969 0.416259766
vt 1.16210938 0.388671875
vt 1.15332031 0.387451172
vt 1.15234375 0.427734375
vt 1.14648438 0.443603516
vt 1.15234375 0.416503906
vt 1.14550781 0.386474609
vt 1.14550781 0.427978516
vt 1.13769531 0.443115234
vt 1.14550781 0.416748047
vt 1.13671875 0.386962891
vt 1.13867188 0.427978516
vt 1.12988281 0.441162109
vt 1.13867188 0.416748047
vt 1.13183594 0.427490234
vt 1.12207031 0.439208984
vt 1.13183594 0.416748047
vt 1.12890625 0.388183594
vt 1.12011719 0.390136719
vt 1.12402344 0.426513672
vt 1.11328125 0.437255859
vt 1.11523438 0.425537109
vt 1.12402344 0.416748047
vt 1.11230469 0.392089844
vt 1.11621094 0.416748047
vt -0.291259766 -0.261474609
vt -0.291259766 -0.269287109
vt -0.296875 -0.274902344
vt -0.30078125 -0.265380859
vt -0.296875 -0.256103516
vt -0.3046875 -0.274902344
vt -0.3046875 -0.256103516
vt -0.310058594 -0.269287109
vt -0.310058594 -0.261474609
vt 0.248291016 0.178588867
vt 0.256347656 0.156860352
vt 0.252685547 0.155151367
vt 0.240356445 0.174438477
vt 0.239990234 0.200195312
vt 0.249389648 0.152709961
vt 0.227539062 0.192504883
vt 0.227050781 0.224731445
vt 0.233764648 0.168945312
vt 0.246826172 0.149658203
vt 0.211181641 0.211303711
vt 0.209838867 0.247924805
vt 0.218139648 0.183105469
vt 0.228515625 0.162231445
vt 0.244873047 0.146118164
vt 0.192138672 0.226196289
vt 0.186767578 0.266113281
vt 0.199707031 0.196533203
vt 0.2109375 0.172607422
vt 0.224731445 0.154907227
vt 0.243652344 0.142456055
vt 0.172241211 0.237182617
vt 0.158081055 0.278320312
vt 0.181396484 0.206542969
vt 0.191894531 0.182006836
vt 0.206420898 0.161743164
vt 0.222412109 0.147216797
vt 0.243164062 0.138671875
vt 0.149780273 0.244506836
vt 0.118713379 0.282470703
vt 0.163574219 0.213378906
vt 0.174560547 0.188476562
vt 0.187255859 0.167602539
vt 0.203369141 0.150634766
vt 0.221557617 0.139282227
vt 0.243286133 0.134765625
vt 0.119628906 0.247436523
vt 0.0800170898 0.275634766
vt 0.144775391 0.218017578
vt 0.158325195 0.192749023
vt 0.170043945 0.171508789
vt 0.184326172 0.153564453
vt 0.202636719 0.139526367
vt 0.222045898 0.131347656
vt 0.244262695 0.130981445
vt 0.223876953 0.123596191
vt 0.24597168 0.127563477
vt 0.203125 0.128295898
vt 0.183349609 0.139648438
vt 0.167724609 0.155273438
vt 0.155151367 0.173950195
vt 0.227416992 0.116333008
vt 0.248291016 0.124450684
vt 0.205810547 0.117370605
vt 0.184204102 0.125854492
vt 0.167114258 0.139526367
vt 0.232055664 0.109619141
vt 0.251220703 0.121887207
vt 0.210205078 0.106750488
vt 0.186889648 0.111938477
vt 0.23815918 0.103942871
vt 0.254638672 0.119934082
vt 0.245483398 0.0995483398
vt 0.216674805 0.096496582
vt 0.225463867 0.0872802734
vt 0.236694336 0.0798339844
vt 0.19152832 0.0978393555
vt 0.16784668 0.123779297
vt 0.209716797 0.0700073242
vt 0.224487305 0.0576171875
vt 0.19921875 0.0838012695
vt 0.170410156 0.107849121
vt 0.192749023 0.0555725098
vt 0.209106445 0.0367736816
vt 0.181640625 0.0740356445
vt 0.174804688 0.0913085938
vt 0.174316406 0.0446472168
vt 0.189819336 0.0189056396
vt 0.165039062 0.0668334961
vt 0.159057617 0.0868530273
vt 0.155517578 0.105285645
vt 0.153564453 0.122558594
vt 0.153320312 0.0362548828
vt 0.164550781 0.00461959839
vt 0.146728516 0.0617980957
vt 0.142700195 0.0838012695
vt 0.140625 0.103393555
vt 0.123657227 0.0310668945
vt 0.126220703 -0.00435256958
vt 0.122253418 0.0588378906
vt 0.121582031 0.0822143555
vt 0.0924682617 0.032989502
vt 0.0853881836 -0.00135135651
vt 0.0970458984 0.0606079102
vt 0.0625 0.043182373
vt 0.046875 0.0144042969
vt 0.139160156 0.121704102
vt 0.12121582 0.102294922
vt 0.0997314453 0.082824707
vt 0.0718383789 0.0663452148
vt 0.0355834961 0.0600280762
vt 0.0174865723 0.0420227051
vt 0.120910645 0.12121582
vt 0.101318359 0.102844238
vt 0.0775756836 0.0866699219
vt 0.0472106934 0.0770874023
vt 0.013961792 0.0824584961
vt -0.00113296509 0.0737304688
vt 0.102233887 0.121459961
vt 0.0811767578 0.105163574
vt 0.0550842285 0.0936889648
vt 0.0250854492 0.092956543
vt -0.00167942047 0.109436035
vt -0.0100097656 0.106872559
vt -0.0118713379 0.140136719
vt 0.00532150269 0.113769531
vt 0.0107803345 0.119262695
vt 0.0146942139 0.125610352
vt 0.0170898438 0.132324219
vt 0.0330200195 0.104248047
vt 0.0383300781 0.115844727
vt 0.0600585938 0.109313965
vt 0.0413818359 0.127441406
vt 0.0628051758 0.124389648
vt 0.0179901123 0.139282227
vt 0.0424194336 0.139160156
vt 0.0830688477 0.122375488
vt 0.0637207031 0.139160156
vt 0.0174255371 0.146362305
vt 0.0836181641 0.139160156
vt 0.0415649414 0.150756836
vt 0.0153656006 0.153198242
vt 0.0628051758 0.153808594
vt 0.102478027 0.139282227
vt 0.0387268066 0.162353516
vt 0.0828857422 0.155883789
vt 0.120788574 0.139282227
vt 0.0118026733 0.159545898
vt 0.0600585938 0.168701172
vt 0.101989746 0.157104492
vt 0.138793945 0.139526367
vt 0.0337219238 0.173706055
vt 0.00671005249 0.165161133
vt 0.0807495117 0.172973633
vt 0.120666504 0.157470703
vt 0.152954102 0.139526367
vt 0.000121057034 0.169677734
vt -0.00779342651 0.172485352
vt 0.139038086 0.157226562
vt 0.153442383 0.15637207
vt 0.100646973 0.175537109
vt 0.0261535645 0.184814453
vt 0.0155944824 0.194946289
vt 0.00150775909 0.203491211
vt 0.139892578 0.17565918
vt 0.120483398 0.176391602
vt 0.0551452637 0.183959961
vt 0.0358276367 0.216308594
vt 0.0190124512 0.232910156
vt 0.0473022461 0.199951172
vt 0.0767822266 0.19128418
vt 0.0986328125 0.1953125
vt 0.0708007812 0.21081543
vt 0.0610351562 0.233032227
vt 0.0459289551 0.258300781
vt 0.120239258 0.196777344
vt 0.0950317383 0.217285156
vt 0.0892944336 0.243774414
vt 0.119934082 0.220092773
vt 0.141723633 0.195556641
vt 0.4453125 -0.165771484
vt 0.438476562 -0.143676758
vt 0.442138672 -0.142089844
vt 0.453369141 -0.162109375
vt 0.452392578 -0.187866211
vt 0.445556641 -0.139770508
vt 0.465087891 -0.180908203
vt 0.464111328 -0.213256836
vt 0.460449219 -0.156860352
vt 0.448242188 -0.136962891
vt 0.480957031 -0.200317383
vt 0.48046875 -0.237548828
vt 0.465820312 -0.150512695
vt 0.450439453 -0.133544922
vt 0.475097656 -0.171875
vt 0.499267578 -0.216308594
vt 0.502929688 -0.256835938
vt 0.470214844 -0.143432617
vt 0.451904297 -0.130004883
vt 0.482666016 -0.161865234
vt 0.493164062 -0.186279297
vt 0.519042969 -0.228149414
vt 0.53125 -0.270019531
vt 0.472900391 -0.135742188
vt 0.452636719 -0.126098633
vt 0.511230469 -0.197143555
vt 0.501464844 -0.17199707
vt 0.488037109 -0.151245117
vt 0.541015625 -0.236572266
vt 0.5703125 -0.275878906
vt 0.474121094 -0.127929688
vt 0.452636719 -0.122253418
vt 0.528320312 -0.204711914
vt 0.519042969 -0.179321289
vt 0.507324219 -0.157836914
vt 0.491455078 -0.140258789
vt 0.571289062 -0.240722656
vt 0.609375 -0.270996094
vt 0.474121094 -0.119934082
vt 0.451904297 -0.118469238
vt 0.547363281 -0.210205078
vt 0.534667969 -0.184204102
vt 0.523925781 -0.162475586
vt 0.493164062 -0.129150391
vt 0.510742188 -0.143920898
vt 0.472412109 -0.112182617
vt 0.450439453 -0.114929199
vt 0.493164062 -0.117980957
vt 0.512207031 -0.130126953
vt 0.526855469 -0.146362305
vt 0.5390625 -0.165649414
vt 0.469482422 -0.104675293
vt 0.448242188 -0.111755371
vt 0.490966797 -0.106872559
vt 0.512207031 -0.116210938
vt 0.528320312 -0.130737305
vt 0.465087891 -0.0977172852
vt 0.4453125 -0.109008789
vt 0.487060547 -0.0958862305
vt 0.509765625 -0.102294922
vt 0.459228516 -0.091796875
vt 0.442138672 -0.106872559
vt 0.452148438 -0.087097168
vt 0.481201172 -0.0854492188
vt 0.472900391 -0.0759277344
vt 0.462158203 -0.0678710938
vt 0.505859375 -0.0880737305
vt 0.528320312 -0.11505127
vt 0.489746094 -0.0596923828
vt 0.475585938 -0.0465087891
vt 0.499511719 -0.0738525391
vt 0.526855469 -0.0991210938
vt 0.507324219 -0.0463256836
vt 0.491699219 -0.026550293
vt 0.517089844 -0.0649414062
vt 0.522949219 -0.0823974609
vt 0.525390625 -0.0360717773
vt 0.512207031 -0.0106506348
vt 0.533691406 -0.058807373
vt 0.538574219 -0.0786743164
vt 0.541503906 -0.0970458984
vt 0.542480469 -0.114379883
vt 0.546875 -0.0291748047
vt 0.537109375 0.00184249878
vt 0.551757812 -0.0543518066
vt 0.555175781 -0.0762939453
vt 0.556152344 -0.0957641602
vt 0.575683594 -0.0251617432
vt 0.574707031 0.00895690918
vt 0.576171875 -0.0526428223
vt 0.576171875 -0.075378418
vt 0.605957031 -0.0283050537
vt 0.61328125 0.00477981567
vt 0.601074219 -0.0543212891
vt 0.635253906 -0.0380859375
vt 0.649902344 -0.0105209351
vt 0.557128906 -0.114135742
vt 0.575683594 -0.0956420898
vt 0.59765625 -0.076965332
vt 0.625976562 -0.0610961914
vt 0.662597656 -0.055480957
vt 0.681152344 -0.0366210938
vt 0.575195312 -0.114379883
vt 0.595214844 -0.096862793
vt 0.619628906 -0.0813598633
vt 0.650390625 -0.0727539062
vt 0.684082031 -0.0786132812
vt 0.699707031 -0.0700073242
vt 0.59375 -0.115356445
vt 0.615722656 -0.0997924805
vt 0.642089844 -0.0891113281
vt 0.672363281 -0.0891113281
vt 0.69921875 -0.106628418
vt 0.708007812 -0.104309082
vt 0.708496094 -0.138305664
vt 0.691894531 -0.110839844
vt 0.686035156 -0.116271973
vt 0.682128906 -0.122558594
vt 0.679199219 -0.129394531
vt 0.6640625 -0.100341797
vt 0.658203125 -0.111938477
vt 0.63671875 -0.104675293
vt 0.654785156 -0.123596191
vt 0.633300781 -0.119750977
vt 0.678222656 -0.136474609
vt 0.653320312 -0.135375977
vt 0.61328125 -0.117126465
vt 0.631835938 -0.134643555
vt 0.678710938 -0.143554688
vt 0.611816406 -0.133911133
vt 0.653808594 -0.147216797
vt 0.680175781 -0.150512695
vt 0.632324219 -0.149414062
vt 0.593261719 -0.133178711
vt 0.65625 -0.158935547
vt 0.611816406 -0.150634766
vt 0.574707031 -0.132446289
vt 0.68359375 -0.157226562
vt 0.634277344 -0.164550781
vt 0.592773438 -0.151123047
vt 0.556640625 -0.131835938
vt 0.660644531 -0.170776367
vt 0.688964844 -0.163085938
vt 0.61328125 -0.16809082
vt 0.57421875 -0.150634766
vt 0.542480469 -0.131225586
vt 0.6953125 -0.16796875
vt 0.703125 -0.171142578
vt 0.555664062 -0.149536133
vt 0.541503906 -0.148193359
vt 0.593261719 -0.169677734
vt 0.66796875 -0.182373047
vt 0.678222656 -0.193115234
vt 0.692382812 -0.202392578
vt 0.554199219 -0.16796875
vt 0.573242188 -0.169555664
vt 0.638671875 -0.180175781
vt 0.656738281 -0.213623047
vt 0.672851562 -0.231323242
vt 0.645996094 -0.196533203
vt 0.616699219 -0.186523438
vt 0.594726562 -0.189697266
vt 0.621582031 -0.206176758
vt 0.630371094 -0.229370117
vt 0.64453125 -0.255615234
vt 0.572753906 -0.190185547
vt 0.597167969 -0.212036133
vt 0.6015625 -0.23840332
vt 0.571777344 -0.213623047
vt 0.551269531 -0.187866211
vt 0.969238281 -0.260009766
vt 0.970703125 -0.257568359
vt 0.97265625 -0.255615234
vt 0.975097656 -0.254394531
vt 0.968261719 -0.262695312
vt 0.977539062 -0.253662109
vt 0.968261719 -0.265625
vt 0.98046875 -0.253662109
vt 0.969238281 -0.268310547
vt 0.983398438 -0.254150391
vt 0.970703125 -0.270751953
vt 0.985839844 -0.255615234
vt 0.97265625 -0.272705078
vt 0.987792969 -0.257568359
vt 0.975097656 -0.274169922
vt 0.988769531 -0.260009766
vt 0.977539062 -0.274902344
vt 0.989746094 -0.262695312
vt 0.98046875 -0.274902344
vt 0.989746094 -0.265625
vt 0.983398438 -0.274169922
vt 0.988769531 -0.268310547
vt 0.985839844 -0.272705078
vt 0.987792969 -0.270751953
vn -0.365255594 0.644202471 -0.672005594
vn -0.0745588392 0.997129023 0.0132148899
vn -0.554894149 0.793551743 -0.249735937
vn 0.304461658 0.891471982 -0.33553043
vn -0.550599813 0.751447737 -0.36354664
vn 0.248517424 0.839825928 0.482629776
vn 0.170904905 0.982733727 -0.0708950087
vn -0.6302526 0.762309313 -0.147194237
vn 0.0677819997 0.992498219 0.101749308
vn 0.78003484 0.592678726 0.200692862
vn 0.217906073 0.401813924 0.889416933
vn 0.766308308 0.589082956 0.256422937
vn 0.736166 0.609478652 0.294271022
vn 0.937738061 -0.149239704 0.313647538
vn 0.792162001 -0.0466336682 0.608526707
vn -0.156439602 -0.059206564 0.985911369
vn 0.891318917 -0.13147755 0.433894247
vn 0.596871376 -0.786367476 0.159281671
vn 0.359426439 -0.651252449 0.668343306
vn -0.650672555 -0.26573199 0.711345017
vn 0.522925913 -0.765008807 0.37591216
vn -0.04614456 -0.996014476 -0.0763277486
vn -0.271467477 -0.89347744 0.357775509
vn -0.968105078 -0.0944269374 0.232069299
vn -0.120884977 -0.986611843 0.109470934
vn -0.755955815 -0.635466814 -0.157203406
vn -0.923714638 0.34657225 -0.163214907
vn -0.70341301 -0.675243556 -0.221937671
vn -0.686562419 -0.67212677 -0.277267933
vn -0.947934806 0.0658915415 -0.311573297
vn -0.806853354 -0.00125126657 -0.590750396
vn -0.554894149 0.793551743 -0.249735937
vn -0.365255594 0.644202471 -0.672005594
vn -0.904686689 0.0348836817 -0.424646974
vn -0.6302526 0.762309313 -0.147194237
vn -0.550599813 0.751447737 -0.36354664
vn 0.217906073 0.401813924 0.889416933
vn -0.156439602 -0.059206564 0.985911369
vn -0.650672555 -0.26573199 0.711345017
vn -0.574352384 0.613692462 0.541757226
vn 0.248517424 0.839825928 0.482629776
vn -0.968105078 -0.0944269374 0.232069299
vn -0.0745588392 0.997129023 0.0132148899
vn -0.923714638 0.34657225 -0.163214907
vn -0.554894149 0.793551743 -0.249735937
vn -0.533016145 -0.255841643 0.806497872
vn -0.410425812 -0.216596678 0.885797143
vn -0.368856579 -0.296006918 0.881092906
vn -0.474756092 -0.367023438 0.799937725
vn -0.35637629 -0.198743045 0.912960589
vn -0.308184236 -0.362172931 0.879689276
vn -0.322032988 -0.264291644 0.909089983
vn -0.106633134 -0.112370692 0.987928212
vn -0.389853269 -0.459650874 0.797957122
vn -0.232614666 -0.410570055 0.881658971
vn -0.105139054 -0.115240946 0.987757683
vn 0.232497275 0.0135506419 0.972502708
vn -0.271958619 -0.318928093 0.907922566
vn -0.284043819 -0.52743578 0.800706267
vn -0.147286907 -0.4379237 0.88686496
vn 0.190807402 0.0931147411 0.977201223
vn 0.607721746 0.166114077 0.776582539
vn -0.102969967 -0.117618918 0.987705886
vn -0.209544107 -0.358874083 0.90956068
vn -0.164556086 -0.565722644 0.808009446
vn -0.0580165163 -0.442341626 0.894968152
vn 0.520444214 0.332689971 0.786419213
vn 0.861579537 0.285992771 0.419390917
vn 0.130010113 0.159399703 0.97861594
vn -0.100254759 -0.11935962 0.987776399
vn -0.139075547 -0.381458282 0.913864076
vn -0.039522402 -0.571930349 0.819349647
vn 0.0291151516 -0.423543036 0.905407906
vn 0.746243656 0.50612241 0.4323892
vn 0.934558332 0.335039586 0.119787797
vn 0.393207788 0.471458644 0.789375901
vn 0.0542935431 0.207896352 0.976642847
vn -0.0972031951 -0.120336637 0.987962902
vn -0.065341562 -0.385121465 0.92054987
vn 0.0824626386 -0.54562062 0.833965242
vn 0.108189799 -0.382830143 0.917461753
vn 0.81357491 0.565943897 0.133428961
vn 0.927393198 0.350881577 -0.129707485
vn 0.578084946 0.689539194 0.436295152
vn 0.234726623 0.572975874 0.785240054
vn -0.031190481 0.235301971 0.971421659
vn -0.0939974189 -0.120487608 0.988254666
vn 0.00659216847 -0.369619191 0.929159999
vn 0.193186522 -0.488612384 0.8508448
vn 0.173807055 -0.322954595 0.930317938
vn 0.285080999 -0.404747248 0.868854702
vn 0.221477672 -0.247998834 0.943103552
vn 0.0718736872 -0.335990459 0.939119101
vn -0.090854831 -0.119817294 0.988629937
vn -0.120672397 0.239757821 0.963303864
vn 0.0556981042 0.630349994 0.77431041
vn 0.351823747 -0.299788773 0.886761904
vn 0.247968554 -0.163064107 0.954945922
vn 0.126075804 -0.286547035 0.949734509
vn -0.0880170763 -0.118353076 0.989062965
vn -0.208020404 0.220930099 0.952846944
vn 0.388936698 -0.180856779 0.903337777
vn 0.251474887 -0.0739470422 0.965034842
vn 0.165445343 -0.224652857 0.960291028
vn -0.085667558 -0.11618682 0.989525914
vn 0.393848449 -0.0560635142 0.917463958
vn 0.23176387 0.0132453935 0.97268188
vn 0.366229415 0.0660433695 0.928177953
vn 0.187324151 -0.154516473 0.970069289
vn 0.19022353 -0.0809052736 0.978401363
vn 0.173926473 -0.00888096262 0.984718621
vn -0.083958514 -0.113501154 0.989984035
vn -0.2872504 0.180126637 0.940766513
vn -0.0828895569 -0.107274212 0.990768135
vn -0.0835916251 -0.104130939 0.991044521
vn -0.0830122232 -0.110448971 0.990409017
vn -0.353015184 0.120123439 0.927874267
vn -0.430871904 -0.129401952 0.893087089
vn -0.411120832 -0.216837153 0.885415852
vn -0.427362829 -0.0401024558 0.903190374
vn -0.400808424 0.0449852832 0.915056765
vn -0.780877829 -0.133127078 0.610333622
vn -0.739510894 -0.316117942 0.594300508
vn -0.773507416 0.0537747107 0.631501913
vn -0.717927396 0.231943876 0.656340122
vn -0.617891729 0.389211386 0.683172286
vn -0.480249286 0.514827549 0.710150063
vn -0.973720968 -0.109564587 0.199657813
vn -0.91906172 -0.351400554 0.178447008
vn -0.963984668 0.137520269 0.227643922
vn -0.890522778 0.37300694 0.260451764
vn -0.758319318 0.580848098 0.2959176
vn -0.990641296 -0.0798982978 -0.110661291
vn -0.93330729 -0.333574742 -0.132911056
vn -0.980432034 0.179270297 -0.0813338906
vn -0.903368473 0.42629227 -0.046908021
vn -0.934419155 -0.0503878966 -0.352593154
vn -0.878966451 -0.295735568 -0.374110073
vn -0.924542308 0.200235084 -0.324233741
vn -0.815170407 -0.0166635364 -0.578981578
vn -0.76529938 -0.237317279 -0.598328829
vn -0.576396763 0.746880233 0.331567019
vn -0.764691532 0.644323409 -0.00970513653
vn -0.850017369 0.439139038 -0.29090786
vn -0.806286871 0.208751366 -0.553465724
vn -0.622924328 0.0213938504 -0.781989515
vn -0.582947671 -0.155464917 -0.797497809
vn -0.573851228 0.818492591 0.0276503339
vn -0.715889812 0.649998724 -0.254957706
vn -0.739274144 0.423580348 -0.523501217
vn -0.615789711 0.202099398 -0.761550367
vn -0.341175318 0.062961325 -0.937888741
vn -0.316456258 -0.0462980159 -0.947476566
vn -0.531345963 0.818413138 -0.218794882
vn -0.618657231 0.613194287 -0.491178006
vn -0.562069893 0.374347001 -0.737524092
vn -0.336778551 0.174630433 -0.925248265
vn -0.0668985024 0.0937555656 -0.993345141
vn -0.0575887151 0.0526141711 -0.996953011
vn 0.0951290205 0.108252354 -0.989561498
vn -0.0652506948 0.135781273 -0.988587737
vn -0.0527377054 0.175853372 -0.983002722
vn -0.0302442089 0.211221144 -0.976970315
vn 0.000671417685 0.239482462 -0.970900416
vn -0.303573161 0.281050086 -0.910414279
vn -0.243819714 0.374961704 -0.894402385
vn -0.465387464 0.526364803 -0.711585879
vn -0.161629066 0.450003862 -0.878278196
vn -0.332325935 0.647774637 -0.685527146
vn 0.0379653648 0.258677214 -0.965217531
vn -0.0625343099 0.501006901 -0.863180995
vn -0.452684134 0.764676988 -0.4586353
vn -0.171974316 0.730349123 -0.661071062
vn 0.0791065171 0.267533839 -0.960295677
vn -0.252666026 0.867682993 -0.428119183
vn 0.0466028601 0.524533987 -0.850113094
vn 0.121222273 0.265456021 -0.956471801
vn 0.00469988026 0.768430412 -0.639916182
vn -0.308946103 0.932942152 -0.18485494
vn 0.158488423 0.518986285 -0.839961171
vn -0.0322286934 0.915191114 -0.401729405
vn -0.343864113 0.936920583 0.0627482608
vn 0.161474839 0.252542853 -0.954016745
vn 0.185738981 0.75943625 -0.623504281
vn -0.0638155267 0.985768378 -0.15552555
vn -0.35716027 0.859772623 0.365003586
vn 0.265396297 0.484738827 -0.833422482
vn 0.197123781 0.229718313 -0.953085303
vn 0.19358322 0.903978527 -0.381245762
vn -0.0903985649 0.991545975 0.0930842832
vn -0.314381391 0.600257576 0.735428512
vn 0.225718617 0.198526189 -0.953749657
vn 0.245346725 0.161051705 -0.955964088
vn -0.115514629 0.911848426 0.393940002
vn -0.131566972 0.639645636 0.757326543
vn 0.187267467 0.973296404 -0.132759705
vn 0.360060811 0.424089253 -0.830965936
vn 0.4360618 0.341207385 -0.832723022
vn 0.488182604 0.241710812 -0.838602185
vn 0.131996468 0.899559736 0.416376352
vn 0.169227451 0.978650331 0.116643324
vn 0.35878551 0.703989923 -0.612920225
vn 0.634984851 0.47170651 -0.61179018
vn 0.719331503 0.310713351 -0.621304631
vn 0.511992276 0.605839193 -0.608952224
vn 0.409447193 0.834794998 -0.368063033
vn 0.427269369 0.896380663 -0.118078947
vn 0.600580931 0.712371588 -0.363083065
vn 0.753980577 0.545045078 -0.366659462
vn 0.859220445 0.344200879 -0.378505021
vn 0.417405605 0.899114311 0.131780177
vn 0.639813185 0.760243535 -0.112556331
vn 0.810395122 0.574179947 -0.116520621
vn 0.637182653 0.758344471 0.137520149
vn 0.368575215 0.823732197 0.430833489
vn 0.366229415 0.0660433695 0.928177953
vn 0.23176387 0.0132453935 0.97268188
vn 0.190163761 0.0926556289 0.977370322
vn 0.307997435 0.177223653 0.934735
vn 0.173926473 -0.00888096262 0.984718621
vn 0.129523247 0.15879111 0.978779495
vn 0.139591902 0.0566424467 0.988587737
vn -0.0835916251 -0.104130939 0.991044521
vn 0.223067567 0.269854069 0.936706781
vn 0.0539570227 0.207191288 0.976811349
vn -0.0850856826 -0.101291031 0.991211593
vn -0.411120832 -0.216837153 0.885415852
vn 0.117255665 0.337606013 0.933955729
vn -0.0313427448 0.234567031 0.971594512
vn 0.089511238 0.111271039 0.989750683
vn -0.36940676 -0.296404392 0.880728722
vn -0.739510894 -0.316117942 0.594300508
vn -0.00219738483 0.375905424 0.926655471
vn -0.120613009 0.238998085 0.963500142
vn 0.0271011386 0.151253656 0.988123357
vn -0.0872543603 -0.0989126787 0.99126327
vn -0.652255416 -0.48269099 0.584441841
vn -0.91906172 -0.351400554 0.178447008
vn -0.127201647 0.382123739 0.915314734
vn -0.207772046 0.220193177 0.953071773
vn -0.308639824 -0.362689137 0.879316747
vn -0.089969717 -0.0971721709 0.991192758
vn -0.0433374047 0.17383793 0.9838202
vn -0.803726017 -0.57153517 0.165445179
vn -0.93330729 -0.333574742 -0.132911056
vn -0.249219149 0.355822444 0.900710881
vn -0.286853462 0.179485619 0.941010058
vn -0.525016367 -0.621456027 0.581506848
vn -0.232923448 -0.411217302 0.881275833
vn -0.093021296 -0.0961952507 0.991006315
vn -0.117071576 0.177499548 0.977132559
vn -0.812305868 -0.564518392 -0.146554425
vn -0.878966451 -0.295735568 -0.374110073
vn -0.359967351 0.298807979 0.883819759
vn -0.352466255 0.119604759 0.928149939
vn -0.635565877 -0.754957676 0.161539048
vn -0.366501302 -0.722992361 0.5856269
vn -0.14740485 -0.438613385 0.886504412
vn -0.189005375 0.16196537 0.968526781
vn -0.0962273702 -0.0960137397 0.990717709
vn -0.451832324 0.214944616 0.865821183
vn -0.400138915 0.0446497761 0.915366173
vn -0.25431326 0.128362134 0.958565474
vn -0.0993699357 -0.0966842622 0.990342259
vn -0.0579262525 -0.443053454 0.894621849
vn -0.187511727 -0.780352712 0.596564353
vn -0.518608391 0.109990261 0.847907722
vn -0.426656693 -0.0402546637 0.903517306
vn -0.308513999 0.0788909495 0.947942674
vn -0.102207616 -0.0981486067 0.989909291
vn 0.0293901563 -0.424219221 0.905082405
vn -0.555713058 -0.00891142804 0.831326425
vn -0.43016088 -0.129368708 0.893434525
vn -0.347883314 0.0169989467 0.937383652
vn -0.104557045 -0.100314952 0.98944664
vn -0.560629845 -0.133702755 0.817201197
vn -0.410425812 -0.216596678 0.885797143
vn -0.533016145 -0.255841643 0.806497872
vn -0.369771928 -0.053103596 0.927603841
vn -0.372672349 -0.126686007 0.919274747
vn -0.35637629 -0.198743045 0.912960589
vn -0.106266074 -0.103000581 0.988988578
vn 0.108618319 -0.383414418 0.917167068
vn -0.107334904 -0.109257594 0.98820132
vn -0.106633134 -0.112370692 0.987928212
vn -0.107212417 -0.106052704 0.988563776
vn 0.174388066 -0.323414505 0.93004936
vn 0.252243042 -0.0738570094 0.964841187
vn 0.232497275 0.0135506419 0.972502708
vn 0.248731405 -0.163155586 0.954731822
vn 0.222181007 -0.248275056 0.942865372
vn 0.649078906 -0.0168465097 0.760534465
vn 0.607721746 0.166114077 0.776582539
vn 0.641730666 -0.20377779 0.739362121
vn 0.586127758 -0.381982505 0.714523435
vn 0.486106932 -0.539210021 0.68771553
vn 0.348466903 -0.664827704 0.660738111
vn 0.91624403 0.0441306047 0.398182571
vn 0.861579537 0.285992771 0.419390917
vn 0.906517446 -0.202923447 0.370200217
vn 0.833048105 -0.438406229 0.337388158
vn 0.700838983 -0.64627105 0.301924765
vn 0.991902769 0.0813335255 0.0975391865
vn 0.934558332 0.335039586 0.119787797
vn 0.981696129 -0.177832648 0.0681788474
vn 0.904628575 -0.424861997 0.0337545685
vn 0.98285377 0.105503045 -0.151220009
vn 0.927393198 0.350881577 -0.129707485
vn 0.972981751 -0.145118669 -0.179574832
vn 0.909091771 0.123543948 -0.397855461
vn 0.859220445 0.344200879 -0.378505021
vn 0.518915236 -0.812294722 0.266278625
vn 0.765948057 -0.642893434 -0.00341818482
vn 0.898444951 -0.384018928 -0.21289964
vn 0.900201917 -0.101843432 -0.423396438
vn 0.759315968 0.133826375 -0.63681215
vn 0.719331503 0.310713351 -0.621304631
vn 0.575104833 -0.817061543 -0.0408042446
vn 0.764349341 -0.594846725 -0.248852253
vn 0.833179772 -0.316699833 -0.453335196
vn 0.752204835 -0.046877373 -0.657259762
vn 0.512874603 0.132422641 -0.848188579
vn 0.488182604 0.241710812 -0.838602185
vn 0.579800129 -0.763280392 -0.285017014
vn 0.71256727 -0.506317079 -0.485685915
vn 0.698463857 -0.219097778 -0.681281507
vn 0.508479536 0.0207835417 -0.860823214
vn 0.254648536 0.119908214 -0.959570885
vn 0.245346725 0.161051705 -0.955964088
vn 0.0951290205 0.108252354 -0.989561498
vn 0.252999753 0.0778531209 -0.964328885
vn 0.240487486 0.0378126912 -0.96991539
vn 0.217999279 0.00244154315 -0.97594589
vn 0.187051266 -0.0257885978 -0.982011557
vn 0.475277811 -0.0856067687 -0.875661135
vn 0.415547371 -0.17954357 -0.891675055
vn 0.601783454 -0.371117115 -0.707197845
vn 0.33333075 -0.254560709 -0.90779376
vn 0.468743742 -0.492518187 -0.733283818
vn 0.149758592 -0.0449855663 -0.987698674
vn 0.23426415 -0.305587143 -0.922895789
vn 0.546600819 -0.657782614 -0.518217802
vn 0.308395207 -0.575101316 -0.757727444
vn 0.108616345 -0.0538656488 -0.992623329
vn 0.346579134 -0.760789514 -0.548709631
vn 0.125068456 -0.329121083 -0.935968578
vn 0.0665007383 -0.0517600998 -0.996442974
vn 0.131660283 -0.61319387 -0.778883159
vn 0.357378304 -0.877820015 -0.318924308
vn 0.0132146655 -0.323560923 -0.946115077
vn 0.126135528 -0.808298945 -0.575102329
vn 0.34514305 -0.935478389 -0.0758710504
vn 0.0262466948 -0.038851209 -0.998900294
vn -0.0493500195 -0.604194343 -0.795307398
vn 0.112248696 -0.93064481 -0.348282248
vn 0.299670011 -0.925195634 0.232832521
vn -0.0936626047 -0.289288938 -0.952648461
vn -0.00936928485 -0.0160223898 -0.999827743
vn -0.0996770039 -0.797080338 -0.595589995
vn 0.0916801095 -0.99010849 -0.106207311
vn 0.18256633 -0.750255406 0.635441899
vn -0.037965741 0.0151374666 -0.999164343
vn -0.0575887151 0.0526141711 -0.996953011
vn 0.0580465905 -0.977270186 0.203895524
vn -0.000213633684 -0.789651155 0.613555968
vn -0.138832495 -0.918174446 -0.371054202
vn -0.188361391 -0.22864607 -0.955113053
vn -0.264325827 -0.145759165 -0.953355253
vn -0.316456258 -0.0462980159 -0.947476566
vn -0.189460754 -0.964974165 0.181464851
vn -0.167975619 -0.977212846 -0.129766062
vn -0.222361267 -0.548731267 -0.805884242
vn -0.498587877 -0.316450864 -0.80701232
vn -0.582947671 -0.155464917 -0.797497809
vn -0.375605196 -0.450591892 -0.809869051
vn -0.315507561 -0.727913618 -0.608766675
vn -0.378829807 -0.841250598 -0.385727048
vn -0.506657839 -0.605480671 -0.613751531
vn -0.66008234 -0.438142359 -0.610182464
vn -0.76529938 -0.237317279 -0.598328829
vn -0.416161686 -0.897665262 -0.144936338
vn -0.59137392 -0.705119669 -0.391258419
vn -0.761960983 -0.519052744 -0.387298107
vn -0.635926664 -0.756904423 -0.150642306
vn -0.426050723 -0.889151931 0.167002112
vn -0.410425812 -0.216596678 0.885797143
vn -0.43016088 -0.129368708 0.893434525
vn -0.426656693 -0.0402546637 0.903517306
vn -0.400138915 0.0446497761 0.915366173
vn -0.368856579 -0.296006918 0.881092906
vn -0.352466255 0.119604759 0.928149939
vn -0.308184236 -0.362172931 0.879689276
vn -0.286853462 0.179485619 0.941010058
vn -0.232614666 -0.410570055 0.881658971
vn -0.207772046 0.220193177 0.953071773
vn -0.147286907 -0.4379237 0.88686496
vn -0.120613009 0.238998085 0.963500142
vn -0.0580165163 -0.442341626 0.894968152
vn -0.0313427448 0.234567031 0.971594512
vn 0.0291151516 -0.423543036 0.905407906
vn 0.0539570227 0.207191288 0.976811349
vn 0.108189799 -0.382830143 0.917461753
vn 0.129523247 0.15879111 0.978779495
vn 0.173807055 -0.322954595 0.930317938
vn 0.190163761 0.0926556289 0.977370322
vn 0.221477672 -0.247998834 0.943103552
vn 0.23176387 0.0132453935 0.97268188
vn 0.247968554 -0.163064107 0.954945922
vn 0.251474887 -0.0739470422 0.965034842
g Apple_01_0
f 3/3/3 2/2/2 1/1/1
f 2/2/2 4/4/4 1/1/1
f 1/1/1 4/4/4 5/5/5
f 2/2/2 6/6/6 4/4/4
f 4/4/4 7/7/7 5/5/5
f 5/5/5 7/7/7 8/8/8
f 7/7/7 9/9/9 8/8/8
f 6/6/6 10/10/10 4/4/4
f 4/4/4 10/10/10 7/7/7
f 6/6/6 11/11/11 10/10/10
f 7/7/7 12/12/12 9/9/9
f 10/10/10 12/12/12 7/7/7
f 12/12/12 13/13/13 9/9/9
f 14/14/14 13/13/13 12/12/12
f 11/11/11 15/15/15 10/10/10
f 10/10/10 15/15/15 12/12/12
f 11/11/11 16/16/16 15/15/15
f 17/17/17 14/14/14 12/12/12
f 15/15/15 17/17/17 12/12/12
f 18/18/18 14/14/14 17/17/17
f 16/16/16 19/19/19 15/15/15
f 15/15/15 19/19/19 17/17/17
f 16/16/16 20/20/20 19/19/19
f 21/21/21 18/18/18 17/17/17
f 19/19/19 21/21/21 17/17/17
f 22/22/22 18/18/18 21/21/21
f 20/20/20 23/23/23 19/19/19
f 19/19/19 23/23/23 21/21/21
f 20/20/20 24/24/24 23/23/23
f 25/25/25 22/22/22 21/21/21
f 23/23/23 25/25/25 21/21/21
f 24/24/24 26/26/26 23/23/23
f 23/23/23 26/26/26 25/25/25
f 24/24/24 27/27/27 26/26/26
f 25/25/25 28/28/28 22/22/22
f 26/26/26 28/28/28 25/25/25
f 28/28/28 29/29/29 22/22/22
f 30/30/30 29/29/29 28/28/28
f 27/27/27 31/31/31 26/26/26
f 26/26/26 31/31/31 28/28/28
f 27/27/27 32/32/32 31/31/31
f 32/32/32 33/33/33 31/31/31
f 34/34/34 30/30/30 28/28/28
f 31/31/31 34/34/34 28/28/28
f 31/31/31 33/33/33 34/34/34
f 35/35/35 30/30/30 34/34/34
f 33/33/33 36/36/36 34/34/34
f 36/36/36 35/35/35 34/34/34
g Apple_01_1
f 39/39/39 38/38/38 37/37/37
f 40/40/40 39/39/39 37/37/37
f 40/40/40 37/37/37 41/41/41
f 42/42/42 39/39/39 40/40/40
f 43/43/43 40/40/40 41/41/41
f 44/44/44 42/42/42 40/40/40
f 44/44/44 40/40/40 43/43/43
f 45/45/45 44/44/44 43/43/43
f 48/48/48 47/47/47 46/46/46
f 49/49/49 48/48/48 46/46/46
f 49/49/49 46/46/46 50/50/50
f 51/51/51 48/48/48 49/49/49
f 52/52/52 49/49/49 50/50/50
f 52/52/52 50/50/50 53/53/53
f 54/54/54 51/51/51 49/49/49
f 54/54/54 49/49/49 52/52/52
f 55/55/55 51/51/51 54/54/54
f 56/56/56 52/52/52 53/53/53
f 56/56/56 53/53/53 57/57/57
f 58/58/58 54/54/54 52/52/52
f 58/58/58 52/52/52 56/56/56
f 59/59/59 55/55/55 54/54/54
f 59/59/59 54/54/54 58/58/58
f 60/60/60 55/55/55 59/59/59
f 61/61/61 56/56/56 57/57/57
f 61/61/61 57/57/57 62/62/62
f 63/63/63 58/58/58 56/56/56
f 63/63/63 56/56/56 61/61/61
f 64/64/64 59/59/59 58/58/58
f 64/64/64 58/58/58 63/63/63
f 65/65/65 60/60/60 59/59/59
f 65/65/65 59/59/59 64/64/64
f 66/66/66 60/60/60 65/65/65
f 67/67/67 61/61/61 62/62/62
f 67/67/67 62/62/62 68/68/68
f 69/69/69 63/63/63 61/61/61
f 69/69/69 61/61/61 67/67/67
f 70/70/70 64/64/64 63/63/63
f 70/70/70 63/63/63 69/69/69
f 71/71/71 65/65/65 64/64/64
f 71/71/71 64/64/64 70/70/70
f 72/72/72 66/66/66 65/65/65
f 72/72/72 65/65/65 71/71/71
f 73/73/73 66/66/66 72/72/72
f 74/74/74 67/67/67 68/68/68
f 74/74/74 68/68/68 75/75/75
f 76/76/76 69/69/69 67/67/67
f 76/76/76 67/67/67 74/74/74
f 77/77/77 70/70/70 69/69/69
f 77/77/77 69/69/69 76/76/76
f 78/78/78 71/71/71 70/70/70
f 78/78/78 70/70/70 77/77/77
f 79/79/79 72/72/72 71/71/71
f 79/79/79 71/71/71 78/78/78
f 80/80/80 73/73/73 72/72/72
f 80/80/80 72/72/72 79/79/79
f 81/81/81 73/73/73 80/80/80
f 82/82/82 74/74/74 75/75/75
f 82/82/82 75/75/75 83/83/83
f 84/84/84 76/76/76 74/74/74
f 84/84/84 74/74/74 82/82/82
f 85/85/85 77/77/77 76/76/76
f 85/85/85 76/76/76 84/84/84
f 86/86/86 78/78/78 77/77/77
f 86/86/86 77/77/77 85/85/85
f 87/87/87 79/79/79 78/78/78
f 87/87/87 78/78/78 86/86/86
f 88/88/88 80/80/80 79/79/79
f 88/88/88 79/79/79 87/87/87
f 89/89/89 81/81/81 80/80/80
f 89/89/89 80/80/80 88/88/88
f 90/90/90 81/81/81 89/89/89
f 91/91/91 90/90/90 89/89/89
f 92/92/92 90/90/90 91/91/91
f 93/93/93 89/89/89 88/88/88
f 91/91/91 89/89/89 93/93/93
f 94/94/94 88/88/88 87/87/87
f 93/93/93 88/88/88 94/94/94
f 95/95/95 87/87/87 86/86/86
f 94/94/94 87/87/87 95/95/95
f 96/96/96 86/86/86 85/85/85
f 95/95/95 86/86/86 96/96/96
f 97/97/97 92/92/92 91/91/91
f 98/98/98 92/92/92 97/97/97
f 99/99/99 91/91/91 93/93/93
f 97/97/97 91/91/91 99/99/99
f 100/100/100 93/93/93 94/94/94
f 99/99/99 93/93/93 100/100/100
f 101/101/101 94/94/94 95/95/95
f 100/100/100 94/94/94 101/101/101
f 102/102/102 98/98/98 97/97/97
f 103/103/103 98/98/98 102/102/102
f 104/104/104 97/97/97 99/99/99
f 102/102/102 97/97/97 104/104/104
f 105/105/105 99/99/99 100/100/100
f 104/104/104 99/99/99 105/105/105
f 106/106/106 103/103/103 102/102/102
f 107/107/107 103/103/103 106/106/106
f 108/108/108 107/107/107 106/106/106
f 109/109/109 102/102/102 104/104/104
f 106/106/106 102/102/102 109/109/109
f 108/108/108 106/106/106 110/110/110
f 110/110/110 106/106/106 109/109/109
f 111/111/111 108/108/108 110/110/110
f 109/109/109 104/104/104 112/112/112
f 112/112/112 104/104/104 105/105/105
f 105/105/105 100/100/100 113/113/113
f 113/113/113 100/100/100 101/101/101
f 111/111/111 110/110/110 114/114/114
f 115/115/115 111/111/111 114/114/114
f 110/110/110 109/109/109 116/116/116
f 116/116/116 109/109/109 112/112/112
f 114/114/114 110/110/110 116/116/116
f 112/112/112 105/105/105 117/117/117
f 117/117/117 105/105/105 113/113/113
f 115/115/115 114/114/114 118/118/118
f 119/119/119 115/115/115 118/118/118
f 114/114/114 116/116/116 120/120/120
f 118/118/118 114/114/114 120/120/120
f 116/116/116 112/112/112 121/121/121
f 121/121/121 112/112/112 117/117/117
f 120/120/120 116/116/116 121/121/121
f 119/119/119 118/118/118 122/122/122
f 123/123/123 119/119/119 122/122/122
f 118/118/118 120/120/120 124/124/124
f 122/122/122 118/118/118 124/124/124
f 120/120/120 121/121/121 125/125/125
f 124/124/124 120/120/120 125/125/125
f 121/121/121 117/117/117 126/126/126
f 125/125/125 121/121/121 126/126/126
f 117/117/117 113/113/113 127/127/127
f 126/126/126 117/117/117 127/127/127
f 123/123/123 122/122/122 128/128/128
f 129/129/129 123/123/123 128/128/128
f 122/122/122 124/124/124 130/130/130
f 128/128/128 122/122/122 130/130/130
f 124/124/124 125/125/125 131/131/131
f 130/130/130 124/124/124 131/131/131
f 125/125/125 126/126/126 132/132/132
f 131/131/131 125/125/125 132/132/132
f 129/129/129 128/128/128 133/133/133
f 134/134/134 129/129/129 133/133/133
f 128/128/128 130/130/130 135/135/135
f 133/133/133 128/128/128 135/135/135
f 130/130/130 131/131/131 136/136/136
f 135/135/135 130/130/130 136/136/136
f 134/134/134 133/133/133 137/137/137
f 138/138/138 134/134/134 137/137/137
f 133/133/133 135/135/135 139/139/139
f 137/137/137 133/133/133 139/139/139
f 138/138/138 137/137/137 140/140/140
f 141/141/141 138/138/138 140/140/140
f 132/132/132 126/126/126 142/142/142
f 126/126/126 127/127/127 142/142/142
f 131/131/131 132/132/132 143/143/143
f 136/136/136 131/131/131 143/143/143
f 135/135/135 136/136/136 144/144/144
f 139/139/139 135/135/135 144/144/144
f 137/137/137 139/139/139 145/145/145
f 140/140/140 137/137/137 145/145/145
f 141/141/141 140/140/140 146/146/146
f 147/147/147 141/141/141 146/146/146
f 132/132/132 142/142/142 148/148/148
f 143/143/143 132/132/132 148/148/148
f 136/136/136 143/143/143 149/149/149
f 144/144/144 136/136/136 149/149/149
f 139/139/139 144/144/144 150/150/150
f 145/145/145 139/139/139 150/150/150
f 140/140/140 145/145/145 151/151/151
f 146/146/146 140/140/140 151/151/151
f 147/147/147 146/146/146 152/152/152
f 153/153/153 147/147/147 152/152/152
f 143/143/143 148/148/148 154/154/154
f 149/149/149 143/143/143 154/154/154
f 144/144/144 149/149/149 155/155/155
f 150/150/150 144/144/144 155/155/155
f 145/145/145 150/150/150 156/156/156
f 151/151/151 145/145/145 156/156/156
f 146/146/146 151/151/151 157/157/157
f 152/152/152 146/146/146 157/157/157
f 153/153/153 152/152/152 158/158/158
f 159/159/159 153/153/153 158/158/158
f 158/158/158 160/160/160 159/159/159
f 158/158/158 152/152/152 161/161/161
f 161/161/161 160/160/160 158/158/158
f 152/152/152 157/157/157 161/161/161
f 162/162/162 160/160/160 161/161/161
f 161/161/161 157/157/157 162/162/162
f 163/163/163 160/160/160 162/162/162
f 164/164/164 160/160/160 163/163/163
f 157/157/157 151/151/151 165/165/165
f 157/157/157 165/165/165 162/162/162
f 162/162/162 165/165/165 163/163/163
f 151/151/151 156/156/156 165/165/165
f 165/165/165 166/166/166 163/163/163
f 165/165/165 156/156/156 166/166/166
f 163/163/163 166/166/166 164/164/164
f 156/156/156 167/167/167 166/166/166
f 156/156/156 150/150/150 167/167/167
f 150/150/150 155/155/155 167/167/167
f 166/166/166 168/168/168 164/164/164
f 166/166/166 167/167/167 168/168/168
f 167/167/167 155/155/155 169/169/169
f 167/167/167 169/169/169 168/168/168
f 164/164/164 168/168/168 170/170/170
f 170/170/170 160/160/160 164/164/164
f 168/168/168 171/171/171 170/170/170
f 168/168/168 169/169/169 171/171/171
f 155/155/155 172/172/172 169/169/169
f 155/155/155 149/149/149 172/172/172
f 149/149/149 154/154/154 172/172/172
f 169/169/169 172/172/172 173/173/173
f 169/169/169 173/173/173 171/171/171
f 170/170/170 171/171/171 174/174/174
f 174/174/174 160/160/160 170/170/170
f 172/172/172 154/154/154 175/175/175
f 172/172/172 175/175/175 173/173/173
f 171/171/171 176/176/176 174/174/174
f 171/171/171 173/173/173 176/176/176
f 177/177/177 160/160/160 174/174/174
f 174/174/174 176/176/176 177/177/177
f 173/173/173 178/178/178 176/176/176
f 173/173/173 175/175/175 178/178/178
f 154/154/154 179/179/179 175/175/175
f 154/154/154 148/148/148 179/179/179
f 176/176/176 180/180/180 177/177/177
f 176/176/176 178/178/178 180/180/180
f 175/175/175 181/181/181 178/178/178
f 175/175/175 179/179/179 181/181/181
f 148/148/148 182/182/182 179/179/179
f 148/148/148 142/142/142 182/182/182
f 183/183/183 160/160/160 177/177/177
f 177/177/177 180/180/180 183/183/183
f 178/178/178 184/184/184 180/180/180
f 178/178/178 181/181/181 184/184/184
f 179/179/179 185/185/185 181/181/181
f 179/179/179 182/182/182 185/185/185
f 142/142/142 186/186/186 182/182/182
f 142/142/142 127/127/127 186/186/186
f 180/180/180 187/187/187 183/183/183
f 180/180/180 184/184/184 187/187/187
f 188/188/188 160/160/160 183/183/183
f 183/183/183 187/187/187 188/188/188
f 181/181/181 189/189/189 184/184/184
f 181/181/181 185/185/185 189/189/189
f 182/182/182 190/190/190 185/185/185
f 182/182/182 186/186/186 190/190/190
f 127/127/127 191/191/191 186/186/186
f 127/127/127 113/113/113 191/191/191
f 113/113/113 101/101/101 191/191/191
f 192/192/192 160/160/160 188/188/188
f 193/193/193 160/160/160 192/192/192
f 186/186/186 191/191/191 194/194/194
f 186/186/186 194/194/194 190/190/190
f 191/191/191 101/101/101 195/195/195
f 191/191/191 195/195/195 194/194/194
f 101/101/101 95/95/95 195/195/195
f 195/195/195 95/95/95 96/96/96
f 185/185/185 190/190/190 196/196/196
f 185/185/185 196/196/196 189/189/189
f 188/188/188 197/197/197 192/192/192
f 187/187/187 197/197/197 188/188/188
f 192/192/192 198/198/198 193/193/193
f 197/197/197 198/198/198 192/192/192
f 198/198/198 199/199/199 193/193/193
f 195/195/195 96/96/96 200/200/200
f 194/194/194 195/195/195 200/200/200
f 190/190/190 194/194/194 201/201/201
f 190/190/190 201/201/201 196/196/196
f 194/194/194 200/200/200 201/201/201
f 187/187/187 202/202/202 197/197/197
f 184/184/184 202/202/202 187/187/187
f 184/184/184 189/189/189 202/202/202
f 198/198/198 203/203/203 199/199/199
f 203/203/203 204/204/204 199/199/199
f 197/197/197 205/205/205 198/198/198
f 202/202/202 205/205/205 197/197/197
f 205/205/205 203/203/203 198/198/198
f 189/189/189 206/206/206 202/202/202
f 189/189/189 196/196/196 206/206/206
f 202/202/202 206/206/206 205/205/205
f 196/196/196 201/201/201 207/207/207
f 196/196/196 207/207/207 206/206/206
f 206/206/206 208/208/208 205/205/205
f 205/205/205 208/208/208 203/203/203
f 206/206/206 207/207/207 208/208/208
f 203/203/203 209/209/209 204/204/204
f 208/208/208 209/209/209 203/203/203
f 209/209/209 210/210/210 204/204/204
f 201/201/201 211/211/211 207/207/207
f 201/201/201 200/200/200 211/211/211
f 207/207/207 212/212/212 208/208/208
f 208/208/208 212/212/212 209/209/209
f 207/207/207 211/211/211 212/212/212
f 209/209/209 213/213/213 210/210/210
f 212/212/212 213/213/213 209/209/209
f 213/213/213 83/83/83 210/210/210
f 213/213/213 82/82/82 83/83/83
f 212/212/212 214/214/214 213/213/213
f 214/214/214 82/82/82 213/213/213
f 211/211/211 214/214/214 212/212/212
f 214/214/214 84/84/84 82/82/82
f 200/200/200 215/215/215 211/211/211
f 211/211/211 215/215/215 214/214/214
f 215/215/215 84/84/84 214/214/214
f 200/200/200 96/96/96 215/215/215
f 215/215/215 85/85/85 84/84/84
f 96/96/96 85/85/85 215/215/215
f 218/218/218 217/217/217 216/216/216
f 219/219/219 218/218/218 216/216/216
f 219/219/219 216/216/216 220/220/220
f 221/221/221 218/218/218 219/219/219
f 222/222/222 219/219/219 220/220/220
f 222/222/222 220/220/220 223/223/223
f 224/224/224 221/221/221 219/219/219
f 224/224/224 219/219/219 222/222/222
f 225/225/225 221/221/221 224/224/224
f 226/226/226 222/222/222 223/223/223
f 226/226/226 223/223/223 227/227/227
f 228/228/228 225/225/225 224/224/224
f 229/229/229 225/225/225 228/228/228
f 230/230/230 224/224/224 222/222/222
f 230/230/230 222/222/222 226/226/226
f 228/228/228 224/224/224 230/230/230
f 231/231/231 226/226/226 227/227/227
f 231/231/231 227/227/227 232/232/232
f 233/233/233 229/229/229 228/228/228
f 234/234/234 229/229/229 233/233/233
f 235/235/235 228/228/228 230/230/230
f 233/233/233 228/228/228 235/235/235
f 236/236/236 230/230/230 226/226/226
f 236/236/236 226/226/226 231/231/231
f 235/235/235 230/230/230 236/236/236
f 237/237/237 231/231/231 232/232/232
f 237/237/237 232/232/232 238/238/238
f 239/239/239 234/234/234 233/233/233
f 240/240/240 234/234/234 239/239/239
f 241/241/241 236/236/236 231/231/231
f 241/241/241 231/231/231 237/237/237
f 242/242/242 235/235/235 236/236/236
f 242/242/242 236/236/236 241/241/241
f 243/243/243 233/233/233 235/235/235
f 239/239/239 233/233/233 243/243/243
f 243/243/243 235/235/235 242/242/242
f 244/244/244 237/237/237 238/238/238
f 244/244/244 238/238/238 245/245/245
f 246/246/246 240/240/240 239/239/239
f 247/247/247 240/240/240 246/246/246
f 248/248/248 241/241/241 237/237/237
f 248/248/248 237/237/237 244/244/244
f 249/249/249 242/242/242 241/241/241
f 249/249/249 241/241/241 248/248/248
f 250/250/250 243/243/243 242/242/242
f 250/250/250 242/242/242 249/249/249
f 251/251/251 239/239/239 243/243/243
f 246/246/246 239/239/239 251/251/251
f 251/251/251 243/243/243 250/250/250
f 252/252/252 244/244/244 245/245/245
f 252/252/252 245/245/245 253/253/253
f 254/254/254 247/247/247 246/246/246
f 255/255/255 247/247/247 254/254/254
f 256/256/256 248/248/248 244/244/244
f 256/256/256 244/244/244 252/252/252
f 257/257/257 249/249/249 248/248/248
f 257/257/257 248/248/248 256/256/256
f 258/258/258 250/250/250 249/249/249
f 258/258/258 249/249/249 257/257/257
f 259/259/259 246/246/246 251/251/251
f 254/254/254 246/246/246 259/259/259
f 260/260/260 251/251/251 250/250/250
f 260/260/260 250/250/250 258/258/258
f 259/259/259 251/251/251 260/260/260
f 261/261/261 255/255/255 254/254/254
f 262/262/262 255/255/255 261/261/261
f 263/263/263 254/254/254 259/259/259
f 261/261/261 254/254/254 263/263/263
f 264/264/264 259/259/259 260/260/260
f 263/263/263 259/259/259 264/264/264
f 265/265/265 260/260/260 258/258/258
f 264/264/264 260/260/260 265/265/265
f 266/266/266 258/258/258 257/257/257
f 265/265/265 258/258/258 266/266/266
f 267/267/267 262/262/262 261/261/261
f 268/268/268 262/262/262 267/267/267
f 269/269/269 261/261/261 263/263/263
f 267/267/267 261/261/261 269/269/269
f 270/270/270 263/263/263 264/264/264
f 269/269/269 263/263/263 270/270/270
f 271/271/271 264/264/264 265/265/265
f 270/270/270 264/264/264 271/271/271
f 272/272/272 268/268/268 267/267/267
f 273/273/273 268/268/268 272/272/272
f 274/274/274 267/267/267 269/269/269
f 272/272/272 267/267/267 274/274/274
f 275/275/275 269/269/269 270/270/270
f 274/274/274 269/269/269 275/275/275
f 276/276/276 273/273/273 272/272/272
f 277/277/277 273/273/273 276/276/276
f 278/278/278 277/277/277 276/276/276
f 279/279/279 272/272/272 274/274/274
f 276/276/276 272/272/272 279/279/279
f 278/278/278 276/276/276 280/280/280
f 280/280/280 276/276/276 279/279/279
f 281/281/281 278/278/278 280/280/280
f 279/279/279 274/274/274 282/282/282
f 282/282/282 274/274/274 275/275/275
f 275/275/275 270/270/270 283/283/283
f 283/283/283 270/270/270 271/271/271
f 281/281/281 280/280/280 284/284/284
f 285/285/285 281/281/281 284/284/284
f 280/280/280 279/279/279 286/286/286
f 286/286/286 279/279/279 282/282/282
f 284/284/284 280/280/280 286/286/286
f 282/282/282 275/275/275 287/287/287
f 287/287/287 275/275/275 283/283/283
f 285/285/285 284/284/284 288/288/288
f 289/289/289 285/285/285 288/288/288
f 284/284/284 286/286/286 290/290/290
f 288/288/288 284/284/284 290/290/290
f 286/286/286 282/282/282 291/291/291
f 291/291/291 282/282/282 287/287/287
f 290/290/290 286/286/286 291/291/291
f 289/289/289 288/288/288 292/292/292
f 293/293/293 289/289/289 292/292/292
f 288/288/288 290/290/290 294/294/294
f 292/292/292 288/288/288 294/294/294
f 290/290/290 291/291/291 295/295/295
f 294/294/294 290/290/290 295/295/295
f 291/291/291 287/287/287 296/296/296
f 295/295/295 291/291/291 296/296/296
f 287/287/287 283/283/283 297/297/297
f 296/296/296 287/287/287 297/297/297
f 293/293/293 292/292/292 298/298/298
f 299/299/299 293/293/293 298/298/298
f 292/292/292 294/294/294 300/300/300
f 298/298/298 292/292/292 300/300/300
f 294/294/294 295/295/295 301/301/301
f 300/300/300 294/294/294 301/301/301
f 295/295/295 296/296/296 302/302/302
f 301/301/301 295/295/295 302/302/302
f 299/299/299 298/298/298 303/303/303
f 304/304/304 299/299/299 303/303/303
f 298/298/298 300/300/300 305/305/305
f 303/303/303 298/298/298 305/305/305
f 300/300/300 301/301/301 306/306/306
f 305/305/305 300/300/300 306/306/306
f 304/304/304 303/303/303 307/307/307
f 308/308/308 304/304/304 307/307/307
f 303/303/303 305/305/305 309/309/309
f 307/307/307 303/303/303 309/309/309
f 308/308/308 307/307/307 310/310/310
f 311/311/311 308/308/308 310/310/310
f 302/302/302 296/296/296 312/312/312
f 296/296/296 297/297/297 312/312/312
f 301/301/301 302/302/302 313/313/313
f 306/306/306 301/301/301 313/313/313
f 305/305/305 306/306/306 314/314/314
f 309/309/309 305/305/305 314/314/314
f 307/307/307 309/309/309 315/315/315
f 310/310/310 307/307/307 315/315/315
f 311/311/311 310/310/310 316/316/316
f 317/317/317 311/311/311 316/316/316
f 302/302/302 312/312/312 318/318/318
f 313/313/313 302/302/302 318/318/318
f 306/306/306 313/313/313 319/319/319
f 314/314/314 306/306/306 319/319/319
f 309/309/309 314/314/314 320/320/320
f 315/315/315 309/309/309 320/320/320
f 310/310/310 315/315/315 321/321/321
f 316/316/316 310/310/310 321/321/321
f 317/317/317 316/316/316 322/322/322
f 323/323/323 317/317/317 322/322/322
f 313/313/313 318/318/318 324/324/324
f 319/319/319 313/313/313 324/324/324
f 314/314/314 319/319/319 325/325/325
f 320/320/320 314/314/314 325/325/325
f 315/315/315 320/320/320 326/326/326
f 321/321/321 315/315/315 326/326/326
f 316/316/316 321/321/321 327/327/327
f 322/322/322 316/316/316 327/327/327
f 323/323/323 322/322/322 328/328/328
f 329/329/329 323/323/323 328/328/328
f 328/328/328 330/330/330 329/329/329
f 328/328/328 322/322/322 331/331/331
f 331/331/331 330/330/330 328/328/328
f 322/322/322 327/327/327 331/331/331
f 332/332/332 330/330/330 331/331/331
f 331/331/331 327/327/327 332/332/332
f 333/333/333 330/330/330 332/332/332
f 334/334/334 330/330/330 333/333/333
f 327/327/327 321/321/321 335/335/335
f 327/327/327 335/335/335 332/332/332
f 332/332/332 335/335/335 333/333/333
f 321/321/321 326/326/326 335/335/335
f 335/335/335 336/336/336 333/333/333
f 335/335/335 326/326/326 336/336/336
f 333/333/333 336/336/336 334/334/334
f 326/326/326 337/337/337 336/336/336
f 326/326/326 320/320/320 337/337/337
f 320/320/320 325/325/325 337/337/337
f 336/336/336 338/338/338 334/334/334
f 336/336/336 337/337/337 338/338/338
f 337/337/337 325/325/325 339/339/339
f 337/337/337 339/339/339 338/338/338
f 334/334/334 338/338/338 340/340/340
f 340/340/340 330/330/330 334/334/334
f 338/338/338 341/341/341 340/340/340
f 338/338/338 339/339/339 341/341/341
f 325/325/325 342/342/342 339/339/339
f 325/325/325 319/319/319 342/342/342
f 319/319/319 324/324/324 342/342/342
f 339/339/339 342/342/342 343/343/343
f 339/339/339 343/343/343 341/341/341
f 340/340/340 341/341/341 344/344/344
f 344/344/344 330/330/330 340/340/340
f 342/342/342 324/324/324 345/345/345
f 342/342/342 345/345/345 343/343/343
f 341/341/341 346/346/346 344/344/344
f 341/341/341 343/343/343 346/346/346
f 347/347/347 330/330/330 344/344/344
f 344/344/344 346/346/346 347/347/347
f 343/343/343 348/348/348 346/346/346
f 343/343/343 345/345/345 348/348/348
f 324/324/324 349/349/349 345/345/345
f 324/324/324 318/318/318 349/349/349
f 346/346/346 350/350/350 347/347/347
f 346/346/346 348/348/348 350/350/350
f 345/345/345 351/351/351 348/348/348
f 345/345/345 349/349/349 351/351/351
f 318/318/318 352/352/352 349/349/349
f 318/318/318 312/312/312 352/352/352
f 353/353/353 330/330/330 347/347/347
f 347/347/347 350/350/350 353/353/353
f 348/348/348 354/354/354 350/350/350
f 348/348/348 351/351/351 354/354/354
f 349/349/349 355/355/355 351/351/351
f 349/349/349 352/352/352 355/355/355
f 312/312/312 356/356/356 352/352/352
f 312/312/312 297/297/297 356/356/356
f 350/350/350 357/357/357 353/353/353
f 350/350/350 354/354/354 357/357/357
f 358/358/358 330/330/330 353/353/353
f 353/353/353 357/357/357 358/358/358
f 351/351/351 359/359/359 354/354/354
f 351/351/351 355/355/355 359/359/359
f 352/352/352 360/360/360 355/355/355
f 352/352/352 356/356/356 360/360/360
f 297/297/297 361/361/361 356/356/356
f 297/297/297 283/283/283 361/361/361
f 283/283/283 271/271/271 361/361/361
f 362/362/362 330/330/330 358/358/358
f 363/363/363 330/330/330 362/362/362
f 356/356/356 361/361/361 364/364/364
f 356/356/356 364/364/364 360/360/360
f 361/361/361 271/271/271 365/365/365
f 361/361/361 365/365/365 364/364/364
f 271/271/271 265/265/265 365/365/365
f 365/365/365 265/265/265 266/266/266
f 355/355/355 360/360/360 366/366/366
f 355/355/355 366/366/366 359/359/359
f 358/358/358 367/367/367 362/362/362
f 357/357/357 367/367/367 358/358/358
f 362/362/362 368/368/368 363/363/363
f 367/367/367 368/368/368 362/362/362
f 368/368/368 369/369/369 363/363/363
f 365/365/365 266/266/266 370/370/370
f 364/364/364 365/365/365 370/370/370
f 360/360/360 364/364/364 371/371/371
f 360/360/360 371/371/371 366/366/366
f 364/364/364 370/370/370 371/371/371
f 357/357/357 372/372/372 367/367/367
f 354/354/354 372/372/372 357/357/357
f 354/354/354 359/359/359 372/372/372
f 368/368/368 373/373/373 369/369/369
f 373/373/373 374/374/374 369/369/369
f 367/367/367 375/375/375 368/368/368
f 372/372/372 375/375/375 367/367/367
f 375/375/375 373/373/373 368/368/368
f 359/359/359 376/376/376 372/372/372
f 359/359/359 366/366/366 376/376/376
f 372/372/372 376/376/376 375/375/375
f 366/366/366 371/371/371 377/377/377
f 366/366/366 377/377/377 376/376/376
f 376/376/376 378/378/378 375/375/375
f 375/375/375 378/378/378 373/373/373
f 376/376/376 377/377/377 378/378/378
f 373/373/373 379/379/379 374/374/374
f 378/378/378 379/379/379 373/373/373
f 379/379/379 380/380/380 374/374/374
f 371/371/371 381/381/381 377/377/377
f 371/371/371 370/370/370 381/381/381
f 377/377/377 382/382/382 378/378/378
f 378/378/378 382/382/382 379/379/379
f 377/377/377 381/381/381 382/382/382
f 379/379/379 383/383/383 380/380/380
f 382/382/382 383/383/383 379/379/379
f 383/383/383 253/253/253 380/380/380
f 383/383/383 252/252/252 253/253/253
f 382/382/382 384/384/384 383/383/383
f 384/384/384 252/252/252 383/383/383
f 381/381/381 384/384/384 382/382/382
f 384/384/384 256/256/256 252/252/252
f 370/370/370 385/385/385 381/381/381
f 381/381/381 385/385/385 384/384/384
f 385/385/385 256/256/256 384/384/384
f 370/370/370 266/266/266 385/385/385
f 385/385/385 257/257/257 256/256/256
f 266/266/266 257/257/257 385/385/385
f 388/388/388 387/387/387 386/386/386
f 386/386/386 389/389/389 388/388/388
f 386/386/386 390/390/390 389/389/389
f 390/390/390 391/391/391 389/389/389
f 390/390/390 392/392/392 391/391/391
f 392/392/392 393/393/393 391/391/391
f 392/392/392 394/394/394 393/393/393
f 394/394/394 395/395/395 393/393/393
f 394/394/394 396/396/396 395/395/395
f 396/396/396 397/397/397 395/395/395
f 396/396/396 398/398/398 397/397/397
f 398/398/398 399/399/399 397/397/397
f 398/398/398 400/400/400 399/399/399
f 400/400/400 401/401/401 399/399/399
f 400/400/400 402/402/402 401/401/401
f 402/402/402 403/403/403 401/401/401
f 402/402/402 404/404/404 403/403/403
f 404/404/404 405/405/405 403/403/403
f 404/404/404 406/406/406 405/405/405
f 406/406/406 407/407/407 405/405/405
f 406/406/406 408/408/408 407/407/407
f 408/408/408 409/409/409 407/407/407
