g Apple_02
v -0.0682126209 0.179285169 0.0981936157
v -0.0251859892 0.151607543 0.0309002232
v -0.0147797521 0.151607558 0.0370634198
v -0.0358451009 0.179281294 0.113995127
v -0.0027836361 0.151607573 0.0399587192
v -0.0827617496 0.190016925 0.201710522
v -0.139046609 0.190022647 0.167728707
v -0.205080509 0.165690392 0.230078816
v 0.000433858018 0.179279014 0.11980392
v 0.0094459923 0.151607573 0.0391268693
v -0.127048597 0.165670976 0.281117111
v -0.237532586 0.0996521935 0.276098043
v -0.0177273788 0.190012857 0.218060359
v 0.0365397781 0.179279417 0.114685446
v 0.0203758385 0.151607573 0.0347978398
v 0.0681108385 0.179280728 0.0995994359
v 0.108583465 0.19001466 0.191614151
v 0.0487798788 0.190012723 0.214321107
v -0.144092187 0.0996382907 0.334880084
v -0.24541606 0.0113638295 0.299077421
v -0.0356633291 0.165655404 0.307570368
v 0.0588286817 0.165652826 0.305493921
v 0.144653201 0.165658563 0.276094735
v -0.144599617 0.0113652404 0.359238803
v -0.235103175 -0.0853450596 0.28989464
v -0.0353377983 0.0996262878 0.36424911
v 0.0764768794 0.0996234566 0.359692931
v 0.177342683 0.0996273011 0.322916269
v -0.137500405 -0.0853423327 0.347373545
v -0.208145753 -0.175012946 0.257120103
v -0.0282312594 0.0113665089 0.387726158
v 0.0905241147 0.0113668563 0.380022079
v 0.196756482 0.011366481 0.338311195
v -0.121610582 -0.175012767 0.307977498
v -0.16982317 -0.249447435 0.208780736
v -0.0250867885 -0.0853400379 0.374205559
v 0.0894220695 -0.0853395537 0.36611703
v 0.191660956 -0.0853402093 0.325303167
v -0.0995268673 -0.249447346 0.250318587
v -0.119766757 -0.303679466 0.146411568
v -0.0219810568 -0.175012678 0.331668258
v 0.0794783682 -0.175012723 0.324423641
v 0.170050725 -0.175012723 0.288198382
v -0.0704438165 -0.303679466 0.175742641
v 0.0034802705 -0.312574357 0.0174999814
v -0.0185203459 -0.249447331 0.269783318
v 0.0640368313 -0.249447361 0.26408419
v 0.137794867 -0.249447361 0.234784663
v -0.0135465413 -0.303679496 0.189582333
v 0.0444915779 -0.303679496 0.1857384
v 0.0963928923 -0.303679466 0.165287897
v -0.00980421063 0.151607588 -0.0390620604
v 0.00118531892 0.151607588 -0.0402932875
v 0.0123084662 0.151607573 -0.0383130424
v -0.0198992882 0.151607573 -0.0349257812
v 0.0224070698 0.151607573 -0.0332304202
v -0.0283945333 0.151607558 -0.0283529796
v 0.0309733953 0.151607573 -0.0252579339
v -0.0348442495 0.151607573 -0.0198472198
v 0.0369362459 0.151607573 -0.0151719963
v -0.0388469622 0.151607603 -0.00990080927
v 0.0397924595 0.151607573 -0.00391332805
v -0.0400714874 0.151607603 0.000907661626
v 0.0393667817 0.151607588 0.00748276897
v -0.0381545387 0.151607573 0.0120970774
v 0.0357268751 0.151607588 0.0183025524
v -0.0331320427 0.151607543 0.0222720541
v 0.0292570069 0.151607573 0.0276933014
v -0.0251859892 0.151607543 0.0309002232
v 0.0203758385 0.151607573 0.0347978398
v -0.0147797521 0.151607558 0.0370634198
v 0.0094459923 0.151607573 0.0391268693
v -0.0027836361 0.151607573 0.0399587192
v 0.0681108385 0.179280728 0.0995994359
v 0.0203758385 0.151607573 0.0347978398
v 0.0292570069 0.151607573 0.0276933014
v 0.0931243375 0.179280981 0.0765886828
v 0.0357268751 0.151607588 0.0183025524
v 0.157626227 0.190015435 0.153542861
v 0.108583465 0.19001466 0.191614151
v 0.144653201 0.165658563 0.276094735
v 0.110445224 0.179280445 0.0472478606
v 0.0393667817 0.151607588 0.00748276897
v 0.215825021 0.165661395 0.224477589
v 0.177342683 0.0996273011 0.322916269
v 0.193663716 0.190015137 0.102798767
v 0.119030841 0.17927967 0.0139867151
v 0.0397924595 0.151607573 -0.00391332805
v 0.260253638 0.0996295661 0.260249764
v 0.196756482 0.011366481 0.338311195
v 0.269187957 0.165660933 0.154321864
v 0.214384675 0.190014437 0.0437235013
v 0.117803685 0.179279611 -0.0203136299
v 0.0369362459 0.151607573 -0.0151719963
v 0.283165067 0.0113662397 0.269599736
v 0.191660956 -0.0853402093 0.325303167
v 0.321699113 0.0996296331 0.176089495
v 0.30122894 0.165658534 0.0718610808
v 0.217441663 0.190014243 -0.0187422354
v 0.106707498 0.17928119 -0.0535454117
v 0.0309733953 0.151607573 -0.0252579339
v 0.0864277706 0.179284126 -0.0825574994
v 0.170030087 0.190016598 -0.136460572
v 0.202382728 0.190015391 -0.0807471648
v 0.308517009 0.16565752 -0.0162136964
v 0.290243745 0.165661111 -0.10444627
v 0.247346103 0.165665582 -0.184636399
v 0.357647836 0.0996282026 0.078063041
v 0.364311397 0.0996274203 -0.0260269754
v 0.340878725 0.0996293724 -0.129690751
v 0.288678825 0.0996310189 -0.223360091
v 0.346230417 0.011366209 0.178625688
v 0.38185975 0.0113663273 0.0737182498
v 0.386309266 0.0113664046 -0.0368722081
v 0.358902246 0.0113662537 -0.14621672
v 0.301315457 0.0113662416 -0.244266525
v 0.274632186 -0.085340485 0.258561969
v 0.170050725 -0.175012723 0.288198382
v 0.334973842 -0.0853402838 0.170478165
v 0.243544325 -0.175012648 0.229005888
v 0.137794867 -0.249447361 0.234784663
v 0.368786186 -0.0853396654 0.0691156611
v 0.372510016 -0.0853393972 -0.0375644006
v 0.345533431 -0.0853402242 -0.142874122
v 0.289526582 -0.085342221 -0.237143591
v 0.197703153 -0.249447316 0.186762303
v 0.0963928923 -0.303679466 0.165287897
v 0.296971649 -0.175012514 0.150912672
v 0.326883614 -0.17501229 0.0610522293
v 0.330122322 -0.175012216 -0.0335045494
v 0.30614838 -0.175012529 -0.126832366
v 0.256444246 -0.175013602 -0.210356265
v 0.138596803 -0.303679466 0.131647527
v 0.0034802705 -0.312574357 0.0174999814
v 0.241317883 -0.249447256 0.123322383
v 0.265818626 -0.249447152 0.0502556637
v 0.169375703 -0.303679466 0.087137334
v 0.268617779 -0.249447122 -0.0266803578
v 0.249263734 -0.249447256 -0.102666661
v 0.208946571 -0.249447748 -0.17071642
v 0.186735392 -0.303679466 0.0358180441
v 0.188842759 -0.303679496 -0.0182617251
v 0.175369948 -0.303679496 -0.0717159733
v 0.147140026 -0.303679436 -0.119626589
v -0.0687250122 0.179296404 -0.099409163
v -0.0198992882 0.151607573 -0.0349257812
v -0.0283945333 0.151607558 -0.0283529796
v -0.0923158452 0.179288864 -0.0775287151
v -0.0348442495 0.151607573 -0.0198472198
v -0.155433178 0.19001618 -0.155045375
v -0.109025493 0.190019503 -0.190821767
v -0.143687487 0.165678784 -0.27561456
v -0.109218463 0.179281995 -0.0504629388
v -0.0388469622 0.151607603 -0.00990080927
v -0.211215332 0.165665671 -0.227521569
v -0.174312159 0.0996317789 -0.32329306
v -0.190544546 0.190014198 -0.108789563
v -0.118524514 0.179279774 -0.0198212788
v -0.0400714874 0.151607603 0.000907661626
v -0.253297359 0.0996261388 -0.265206307
v -0.192082196 0.0113672633 -0.33954668
v -0.263415456 0.165656641 -0.163985953
v -0.212308034 0.190015718 -0.0547324792
v -0.119507648 0.179282591 0.0126319462
v -0.0381545387 0.151607573 0.0120970774
v -0.274707347 0.0113673992 -0.276022166
v -0.186822191 -0.0853538141 -0.326703489
v -0.313977361 0.0996237546 -0.18907921
v -0.297170728 0.165660337 -0.0886668041
v -0.219054788 0.190020606 0.00402610656
v -0.111156918 0.179285809 0.0454291888
v -0.0331320427 0.151607543 0.0222720541
v -0.266271681 -0.0853480175 -0.265002787
v -0.165855274 -0.175020814 -0.289401293
v -0.33754614 0.0113671282 -0.193688035
v -0.352648526 0.0996289924 -0.0993025228
v -0.309882641 0.16567722 -0.00586818065
v -0.208880022 0.190024689 0.0649494231
v -0.0938512757 0.1792873 0.0744723082
v -0.0251859892 0.151607543 0.0309002232
v -0.0682126209 0.179285169 0.0981936157
v -0.139046609 0.190022647 0.167728707
v -0.18189767 0.190025911 0.120468535
v -0.298682183 0.165693015 0.0809214413
v -0.26335448 0.165699616 0.160930604
v -0.205080509 0.165690392 0.230078816
v -0.366228431 0.0996418744 -0.00104567851
v -0.351329684 0.0996534899 0.101460218
v -0.307931125 0.0996583775 0.195456058
v -0.237532586 0.0996521935 0.276098043
v -0.376692981 0.0113662491 -0.0973055512
v -0.388918251 0.0113648362 0.00752814859
v -0.370673507 0.0113636572 0.116175771
v -0.322260171 0.0113631999 0.215078771
v -0.24541606 0.0113638295 0.299077421
v -0.326549977 -0.0853420421 -0.185218766
v -0.3638843 -0.0853393823 -0.0919718444
v -0.37516284 -0.0853410214 0.0093024848
v -0.356984705 -0.0853438303 0.114069089
v -0.309722394 -0.0853457972 0.209265321
v -0.235103175 -0.0853450596 0.28989464
v -0.236226708 -0.175017789 -0.234650791
v -0.134549245 -0.249450997 -0.235668033
v -0.289586157 -0.175014317 -0.163886994
v -0.191863567 -0.249449626 -0.191240102
v -0.0942173228 -0.303679168 -0.165844798
v -0.322594941 -0.175012082 -0.0812091976
v -0.332502276 -0.17501168 0.00856117066
v -0.316303074 -0.175012127 0.101396322
v -0.274338156 -0.175012767 0.185726002
v -0.208145753 -0.175012946 0.257120103
v -0.134562358 -0.303679317 -0.134717777
v 0.0034802705 -0.312574357 0.0174999814
v -0.235357136 -0.249448061 -0.133772895
v -0.262320489 -0.249447063 -0.0665931627
v -0.165211767 -0.303679436 -0.0944122598
v -0.270519555 -0.249446899 0.00638939627
v -0.184263721 -0.303679496 -0.0472597852
v -0.257504523 -0.249447092 0.0819212496
v -0.223527774 -0.249447361 0.150583342
v -0.16982317 -0.249447435 0.208780736
v -0.190148368 -0.303679496 0.0040008775
v -0.181139305 -0.303679466 0.0570987538
v -0.157393932 -0.303679466 0.105409443
v -0.119766757 -0.303679466 0.146411568
v 0.0864277706 0.179284126 -0.0825574994
v 0.0309733953 0.151607573 -0.0252579339
v 0.0224070698 0.151607573 -0.0332304202
v 0.0587190986 0.179289013 -0.104593039
v 0.0123084662 0.151607573 -0.0383130424
v 0.123133779 0.190018386 -0.180597857
v 0.170030087 0.190016598 -0.136460572
v 0.247346103 0.165665582 -0.184636399
v 0.0271016117 0.179295018 -0.117515557
v 0.00118531892 0.151607588 -0.0402932875
v 0.183433622 0.165672526 -0.249235421
v 0.288678825 0.0996310189 -0.223360091
v 0.0677447394 0.190020576 -0.208775416
v -0.00686411513 0.179299727 -0.120803848
v -0.00980421063 0.151607588 -0.0390620604
v 0.212106556 0.0996332169 -0.298266679
v 0.301315457 0.0113662416 -0.244266525
v 0.106741346 0.165681288 -0.291799724
v 0.00663433317 0.190022096 -0.219878867
v -0.039565593 0.179300636 -0.114389583
v -0.0198992882 0.151607573 -0.0349257812
v -0.0687250122 0.179296404 -0.099409163
v -0.109025493 0.190019503 -0.190821767
v -0.053702645 0.190021887 -0.213310346
v 0.218406469 0.0113663217 -0.321877986
v 0.289526582 -0.085342221 -0.237143591
v 0.120879665 0.0996359661 -0.347024292
v 0.0211175177 0.16568768 -0.310602278
v -0.0643697307 0.165687516 -0.30446592
v -0.143687487 0.165678784 -0.27561456
v 0.209213778 -0.0853458866 -0.311591178
v 0.256444246 -0.175013602 -0.210356265
v 0.120553099 0.0113664586 -0.371486127
v 0.0195764918 0.0996375605 -0.367621332
v -0.0811687037 0.099636361 -0.358817905
v -0.174312159 0.0996317789 -0.32329306
v 0.185203493 -0.175015658 -0.27629298
v 0.208946571 -0.249447748 -0.17071642
v 0.114607602 -0.0853507966 -0.358980954
v 0.0126699153 0.011366671 -0.391019881
v -0.0940047354 0.0113669615 -0.379388571
v -0.192082196 0.0113672633 -0.33954668
v 0.151068598 -0.249448687 -0.224483311
v 0.147140026 -0.303679436 -0.119626589
v 0.101309314 -0.175018445 -0.318233371
v 0.0104696732 -0.0853549987 -0.377320796
v -0.0923771858 -0.0853564814 -0.365605444
v -0.186822191 -0.0853538141 -0.326703489
v 0.106535494 -0.303679347 -0.157522291
v 0.0034802705 -0.312574357 0.0174999814
v 0.0828635022 -0.249449939 -0.258733451
v 0.00898597483 -0.175020918 -0.33441478
v -0.0821700245 -0.175021991 -0.323954403
v -0.165855274 -0.175020814 -0.289401293
v 0.0586425103 -0.303679228 -0.181708515
v 0.00776103791 -0.249451056 -0.27203393
v -0.0664212927 -0.249451533 -0.263654798
v -0.134549245 -0.249450997 -0.235668033
v 0.00586678041 -0.303679109 -0.191177458
v -0.0462909415 -0.303679079 -0.185405239
v -0.0942173228 -0.303679168 -0.165844798
vt 0.459472656 0.884277344
vt 0.523925781 0.957519531
vt 0.538574219 0.948730469
vt 0.513183594 0.861328125
vt 0.546386719 0.947265625
vt 0.508300781 0.770019531
vt 0.404541016 0.777832031
vt 0.394775391 0.717773438
vt 0.539550781 0.858886719
vt 0.5546875 0.946777344
vt 0.515136719 0.73046875
vt 0.40234375 0.652832031
vt 0.548339844 0.776367188
vt 0.563964844 0.861328125
vt 0.562988281 0.948242188
vt 0.586914062 0.8671875
vt 0.615234375 0.798339844
vt 0.583496094 0.785644531
vt 0.525878906 0.691894531
vt 0.436035156 0.576660156
vt 0.557617188 0.742675781
vt 0.594726562 0.756347656
vt 0.627929688 0.770996094
vt 0.548339844 0.645019531
vt 0.489990234 0.514160156
vt 0.569824219 0.709472656
vt 0.607421875 0.727050781
vt 0.641601562 0.744628906
vt 0.578613281 0.602050781
vt 0.557128906 0.471191406
vt 0.58984375 0.669433594
vt 0.626464844 0.69140625
vt 0.66015625 0.711425781
vt 0.616210938 0.565429688
vt 0.630371094 0.44921875
vt 0.615234375 0.631835938
vt 0.6484375 0.656738281
vt 0.680175781 0.678222656
vt 0.660644531 0.53515625
vt 0.702148438 0.448242188
vt 0.645507812 0.597167969
vt 0.673828125 0.623535156
vt 0.702148438 0.645507812
vt 0.709960938 0.512207031
vt 0.831542969 0.490234375
vt 0.681152344 0.565429688
vt 0.703613281 0.590820312
vt 0.727050781 0.611328125
vt 0.722167969 0.537597656
vt 0.737304688 0.559082031
vt 0.755371094 0.576171875
vt 0.110595703 0.769042969
vt 0.135620117 0.775878906
vt 0.161621094 0.775878906
vt 0.0880737305 0.756347656
vt 0.186645508 0.769042969
vt 0.0697631836 0.737792969
vt 0.209106445 0.756347656
vt 0.0567626953 0.715332031
vt 0.227416992 0.737792969
vt 0.0500488281 0.690429688
vt 0.247192383 0.690429688
vt 0.0500488281 0.664550781
vt 0.247192383 0.664550781
vt 0.0567626953 0.639160156
vt 0.240478516 0.639160156
vt 0.0697631836 0.616699219
vt 0.227416992 0.616699219
vt 0.0880737305 0.598632812
vt 0.209106445 0.598632812
vt 0.135620117 0.578613281
vt 0.186645508 0.585449219
vt 0.161621094 0.578613281
vt 0.586914062 0.8671875
vt 0.562988281 0.948242188
vt 0.5703125 0.951171875
vt 0.607910156 0.876464844
vt 0.577148438 0.955078125
vt 0.644042969 0.812988281
vt 0.615234375 0.798339844
vt 0.627929688 0.770996094
vt 0.627441406 0.888671875
vt 0.583007812 0.960449219
vt 0.659179688 0.787597656
vt 0.641601562 0.744628906
vt 0.671386719 0.830566406
vt 0.64453125 0.903808594
vt 0.587890625 0.966796875
vt 0.673828125 0.762695312
vt 0.66015625 0.711425781
vt 0.688476562 0.806640625
vt 0.697265625 0.851074219
vt 0.659667969 0.922363281
vt 0.593261719 0.981445312
vt 0.692382812 0.73046875
vt 0.680175781 0.678222656
vt 0.704589844 0.781738281
vt 0.717285156 0.827636719
vt 0.722167969 0.875488281
vt 0.679199219 0.967773438
vt 0.59375 0.989257812
vt 0.681640625 0.994628906
vt 0.781738281 0.988769531
vt 0.766113281 0.941894531
vt 0.745605469 0.852539062
vt 0.803222656 0.922363281
vt 0.831054688 0.974609375
vt 0.735839844 0.803222656
vt 0.767578125 0.827636719
vt 0.838867188 0.89453125
vt 0.881347656 0.946289062
vt 0.724609375 0.749511719
vt 0.757324219 0.770019531
vt 0.79296875 0.791992188
vt 0.878417969 0.849121094
vt 0.936035156 0.890136719
vt 0.711425781 0.697753906
vt 0.702148438 0.645507812
vt 0.743652344 0.716308594
vt 0.731445312 0.6640625
vt 0.727050781 0.611328125
vt 0.77734375 0.734375
vt 0.814453125 0.752929688
vt 0.908203125 0.793945312
vt 0.973632812 0.817871094
vt 0.752929688 0.628417969
vt 0.755371094 0.576171875
vt 0.762207031 0.681152344
vt 0.794921875 0.696289062
vt 0.831542969 0.709960938
vt 0.924316406 0.731445312
vt 0.98828125 0.736816406
vt 0.775390625 0.590332031
vt 0.831542969 0.490234375
vt 0.780273438 0.642578125
vt 0.810058594 0.654296875
vt 0.797851562 0.601074219
vt 0.843261719 0.662109375
vt 0.925292969 0.665039062
vt 0.977050781 0.654785156
vt 0.821777344 0.607910156
vt 0.848632812 0.611328125
vt 0.909179688 0.601074219
vt 0.942382812 0.583984375
vt 0.205932617 0.431152344
vt 0.186767578 0.513183594
vt 0.194458008 0.515625
vt 0.227416992 0.438964844
vt 0.201416016 0.519042969
vt 0.259521484 0.373779297
vt 0.229614258 0.360839844
vt 0.240722656 0.333007812
vt 0.247436523 0.449951172
vt 0.207641602 0.523925781
vt 0.272460938 0.34765625
vt 0.252441406 0.305664062
vt 0.287597656 0.389404297
vt 0.265625 0.464111328
vt 0.212768555 0.530273438
vt 0.285400391 0.321533203
vt 0.268554688 0.271240234
vt 0.302978516 0.364257812
vt 0.314697266 0.408203125
vt 0.281494141 0.481445312
vt 0.216674805 0.537109375
vt 0.302001953 0.288330078
vt 0.286621094 0.236938477
vt 0.317626953 0.338623047
vt 0.333007812 0.383789062
vt 0.340820312 0.431152344
vt 0.294677734 0.501953125
vt 0.219116211 0.544433594
vt 0.319091797 0.254394531
vt 0.306396484 0.202636719
vt 0.335205078 0.305419922
vt 0.349853516 0.357910156
vt 0.363037109 0.406982422
vt 0.365966797 0.459228516
vt 0.303955078 0.525878906
vt 0.219970703 0.552246094
vt 0.307861328 0.552246094
vt 0.407470703 0.540527344
vt 0.388916016 0.494873047
vt 0.393554688 0.435546875
vt 0.424804688 0.47265625
vt 0.455810547 0.522949219
vt 0.383544922 0.380371094
vt 0.419433594 0.407714844
vt 0.458984375 0.442871094
vt 0.504394531 0.491699219
vt 0.369628906 0.323486328
vt 0.40625 0.343261719
vt 0.447509766 0.366455078
vt 0.495605469 0.395019531
vt 0.555664062 0.432373047
vt 0.352294922 0.270751953
vt 0.387207031 0.286621094
vt 0.425292969 0.302734375
vt 0.468994141 0.319335938
vt 0.521484375 0.337646484
vt 0.588867188 0.357910156
vt 0.336914062 0.219604492
vt 0.329101562 0.166992188
vt 0.368408203 0.234375
vt 0.355712891 0.182617188
vt 0.354980469 0.130126953
vt 0.402099609 0.247314453
vt 0.439697266 0.258544922
vt 0.482421875 0.267822266
vt 0.533691406 0.274414062
vt 0.598144531 0.275878906
vt 0.375976562 0.142822266
vt 0.42578125 0.0390625
vt 0.384033203 0.194946289
vt 0.414550781 0.204345703
vt 0.398681641 0.151977539
vt 0.448486328 0.210327148
vt 0.423583984 0.157470703
vt 0.486572266 0.212158203
vt 0.530273438 0.208007812
vt 0.58203125 0.194458008
vt 0.450439453 0.158813477
vt 0.479492188 0.155151367
vt 0.510253906 0.144775391
vt 0.542480469 0.125488281
vt 0.0803833008 0.456298828
vt 0.148681641 0.524902344
vt 0.155151367 0.51953125
vt 0.105834961 0.439697266
vt 0.162597656 0.515625
vt 0.0751342773 0.341796875
vt 0.0193634033 0.354492188
vt 0.00548553467 0.296142578
vt 0.132202148 0.430175781
vt 0.170654297 0.513183594
vt 0.0724487305 0.294921875
vt 0.00771713257 0.231323242
vt 0.121276855 0.33984375
vt 0.158081055 0.426025391
vt 0.178710938 0.512695312
vt 0.0786743164 0.24609375
vt 0.0356140137 0.15234375
vt 0.125 0.300048828
vt 0.161987305 0.343017578
vt 0.182739258 0.426757812
vt 0.186767578 0.513183594
vt 0.205932617 0.431152344
vt 0.229614258 0.360839844
vt 0.197265625 0.350830078
vt 0.100952148 0.186279297
vt 0.0850830078 0.0859375
vt 0.134277344 0.260742188
vt 0.168457031 0.309326172
vt 0.206665039 0.320068359
vt 0.240722656 0.333007812
vt 0.136474609 0.133178711
vt 0.149291992 0.0382385254
vt 0.152709961 0.212646484
vt 0.178588867 0.275634766
vt 0.217407227 0.290283203
vt 0.252441406 0.305664062
vt 0.182617188 0.0899658203
vt 0.221557617 0.0113372803
vt 0.180053711 0.16796875
vt 0.195800781 0.234375
vt 0.233764648 0.253417969
vt 0.268554688 0.271240234
vt 0.237182617 0.0582580566
vt 0.29296875 0.00550842285
vt 0.215087891 0.128540039
vt 0.218383789 0.19519043
vt 0.253417969 0.217529297
vt 0.286621094 0.236938477
vt 0.295898438 0.0398864746
vt 0.42578125 0.0390625
vt 0.257324219 0.0950927734
vt 0.24621582 0.158447266
vt 0.276611328 0.182617188
vt 0.306396484 0.202636719
vt 0.305419922 0.0692749023
vt 0.279785156 0.124389648
vt 0.303955078 0.147949219
vt 0.329101562 0.166992188
vt 0.319091797 0.09375
vt 0.3359375 0.113891602
vt 0.354980469 0.130126953
vn 0.158081055 0.96875 -0.189941406
vn 0.298339844 0.890625 -0.34375
vn 0.123413086 0.890136719 -0.438720703
vn 0.0675048828 0.96875 -0.239501953
vn 0.0235290527 0.890625 -0.453857422
vn -0.052734375 0.985839844 0.159790039
vn -0.115966797 0.985839844 0.122375488
vn -0.387695312 0.836914062 0.386474609
vn 0.00743865967 0.970214844 -0.243041992
vn -0.113342285 0.891113281 -0.438964844
vn -0.189575195 0.838867188 0.510253906
vn -0.619628906 0.454589844 0.640136719
vn -0.0214233398 0.984375 0.175170898
vn -0.0651855469 0.970214844 -0.233154297
vn -0.238891602 0.891601562 -0.384277344
vn -0.131469727 0.970214844 -0.203125
vn 0.0822143555 0.984375 0.155151367
vn 0.0319519043 0.984375 0.173339844
vn -0.302490234 0.456298828 0.836914062
vn -0.6796875 0.0559997559 0.730957031
vn -0.0701293945 0.832519531 0.549804688
vn 0.0983886719 0.833496094 0.543945312
vn 0.255615234 0.834472656 0.488525391
vn -0.321777344 0.0547790527 0.9453125
vn -0.6484375 -0.283691406 0.706542969
vn -0.0983276367 0.451660156 0.88671875
vn 0.173706055 0.453369141 0.874023438
vn 0.426513672 0.454833984 0.781738281
vn -0.301757812 -0.286376953 0.909179688
vn -0.572265625 -0.533203125 0.623535156
vn -0.0877685547 0.0540161133 0.994628906
vn 0.217041016 0.0545349121 0.974609375
vn 0.498046875 0.0552368164 0.865234375
vn -0.263916016 -0.536132812 0.801757812
vn -0.459228516 -0.736328125 0.497070312
vn -0.0786132812 -0.284423828 0.955566406
vn 0.213867188 -0.285644531 0.934082031
vn 0.482910156 -0.286132812 0.827636719
vn -0.211669922 -0.736328125 0.642578125
vn -0.263916016 -0.921386719 0.28515625
vn -0.0687255859 -0.533203125 0.843261719
vn 0.188964844 -0.53515625 0.823242188
vn 0.426025391 -0.536132812 0.729003906
vn -0.126953125 -0.920898438 0.368896484
vn 0.000381946564 -1 0.00453186035
vn -0.0565795898 -0.734863281 0.67578125
vn 0.149902344 -0.736328125 0.659667969
vn 0.33984375 -0.737304688 0.583984375
vn -0.0358581543 -0.916992188 0.396728516
vn 0.0855102539 -0.917480469 0.388427734
vn 0.197509766 -0.91796875 0.343505859
vn -0 1 0
vn -0 1 0
vn -0 1 0
vn -0 1 0
vn -0 1 0
vn -0 1 0
vn -0 1 0
vn -0 1 0
vn -0 1 0
vn -0 1 0
vn -0 1 0
vn -0 1 0
vn -0 1 0
vn -0 1 0
vn -0 1 0
vn -0 1 0
vn -0 1 0
vn -0 1 0
vn -0 1 0
vn -0 1 0
vn -0 1 0
vn -0 1 0
vn -0.131469727 0.970214844 -0.203125
vn -0.238891602 0.891601562 -0.384277344
vn -0.340820312 0.891601562 -0.297851562
vn -0.185180664 0.970214844 -0.15625
vn -0.412109375 0.891113281 -0.189575195
vn 0.124023438 0.984375 0.124145508
vn 0.0822143555 0.984375 0.155151367
vn 0.255615234 0.834472656 0.488525391
vn -0.222900391 0.969726562 -0.0977783203
vn -0.449462891 0.890625 -0.0668945312
vn 0.386962891 0.834472656 0.392578125
vn 0.426513672 0.454833984 0.781738281
vn 0.153930664 0.984375 0.0834350586
vn -0.241577148 0.969726562 -0.0314025879
vn -0.442871094 0.879394531 -0.17590332
vn 0.635253906 0.455322266 0.623535156
vn 0.498046875 0.0552368164 0.865234375
vn 0.482177734 0.834472656 0.267333984
vn 0.171630859 0.984375 0.0373840332
vn -0.265625 0.955566406 -0.127075195
vn -0.409423828 0.888671875 0.20703125
vn 0.728027344 0.0557556152 0.683105469
vn 0.482910156 -0.286132812 0.827636719
vn 0.785644531 0.454833984 0.419189453
vn 0.538574219 0.833496094 0.121887207
vn 0.161376953 0.986816406 -0.00471115112
vn -0.220214844 0.969238281 0.108276367
vn -0.344726562 0.890136719 0.297363281
vn -0.181274414 0.969726562 0.163574219
vn 0.140136719 0.984375 -0.105957031
vn 0.152832031 0.985839844 -0.0712890625
vn 0.546875 0.837402344 0.000263214111
vn 0.4921875 0.841308594 -0.222900391
vn 0.443847656 0.833007812 -0.329833984
vn 0.872070312 0.454101562 0.182983398
vn 0.889160156 0.45703125 -0.0188293457
vn 0.805664062 0.458251953 -0.375
vn 0.707519531 0.453369141 -0.541992188
vn 0.891113281 0.0557861328 0.450439453
vn 0.981445312 0.0556945801 0.18347168
vn 0.997558594 0.0586242676 -0.040435791
vn 0.8984375 0.0550537109 -0.435302734
vn 0.780273438 0.0555725098 -0.623046875
vn 0.702636719 -0.285644531 0.651367188
vn 0.426025391 -0.536132812 0.729003906
vn 0.857910156 -0.284912109 0.427001953
vn 0.619628906 -0.535644531 0.573242188
vn 0.33984375 -0.737304688 0.583984375
vn 0.943359375 -0.284423828 0.170532227
vn 0.958007812 -0.283691406 -0.0427856445
vn 0.859375 -0.287353516 -0.422607422
vn 0.74609375 -0.283935547 -0.602539062
vn 0.495117188 -0.737304688 0.459716797
vn 0.197509766 -0.91796875 0.343505859
vn 0.756835938 -0.534667969 0.375732422
vn 0.83203125 -0.534179688 0.149780273
vn 0.844726562 -0.534179688 -0.0363769531
vn 0.756347656 -0.537109375 -0.373046875
vn 0.657714844 -0.533203125 -0.532226562
vn 0.288818359 -0.918457031 0.270507812
vn 0.000381946564 -1 0.00453186035
vn 0.60546875 -0.736328125 0.302001953
vn 0.666503906 -0.735839844 0.12109375
vn 0.353027344 -0.918457031 0.177368164
vn 0.672363281 -0.739746094 -0.0268707275
vn 0.606445312 -0.736816406 -0.299560547
vn 0.527832031 -0.734863281 -0.42578125
vn 0.389160156 -0.918457031 0.0720825195
vn 0.388427734 -0.921386719 -0.0118637085
vn 0.343505859 -0.922363281 -0.177490234
vn 0.308349609 -0.918945312 -0.246582031
vn 0.134521484 0.970214844 0.201782227
vn 0.241210938 0.892089844 0.381835938
vn 0.334228516 0.892089844 0.304931641
vn 0.183837891 0.970214844 0.159301758
vn 0.402832031 0.891601562 0.20715332
vn -0.121337891 0.984863281 -0.125
vn -0.0839233398 0.984863281 -0.152832031
vn -0.258544922 0.834472656 -0.486328125
vn 0.219360352 0.969726562 0.105773926
vn 0.443603516 0.891113281 0.0939941406
vn -0.377929688 0.834472656 -0.401367188
vn -0.427246094 0.454589844 -0.78125
vn -0.150024414 0.984863281 -0.0889892578
vn 0.239624023 0.969726562 0.0444946289
vn 0.452392578 0.891113281 -0.0295715332
vn -0.618652344 0.453369141 -0.641601562
vn -0.495605469 0.0552062988 -0.866699219
vn -0.470214844 0.833984375 -0.288574219
vn -0.168334961 0.984863281 -0.0462646484
vn 0.242431641 0.969726562 -0.0215911865
vn 0.426025391 0.891113281 -0.155517578
vn -0.706542969 0.0545043945 -0.705566406
vn -0.48046875 -0.285644531 -0.829101562
vn -0.765136719 0.452880859 -0.457519531
vn -0.529785156 0.833984375 -0.154174805
vn -0.175170898 0.984375 0.000737667084
vn 0.22668457 0.969726562 -0.0884399414
vn 0.364746094 0.891113281 -0.270263672
vn -0.682128906 -0.28515625 -0.673339844
vn -0.424072266 -0.53515625 -0.73046875
vn -0.866699219 0.0541992188 -0.49609375
vn -0.858886719 0.452880859 -0.238769531
vn -0.552246094 0.833496094 -0.00462341309
vn -0.168334961 0.984375 0.0496520996
vn 0.192749023 0.969726562 -0.149291992
vn 0.298339844 0.890625 -0.34375
vn 0.158081055 0.96875 -0.189941406
vn -0.115966797 0.985839844 0.122375488
vn -0.147583008 0.984375 0.0952758789
vn -0.532226562 0.833007812 0.150634766
vn -0.468505859 0.832519531 0.295166016
vn -0.387695312 0.836914062 0.386474609
vn -0.891601562 0.452880859 0.00386428833
vn -0.854492188 0.452880859 0.254394531
vn -0.748046875 0.452148438 0.485839844
vn -0.619628906 0.454589844 0.640136719
vn -0.966796875 0.0543823242 -0.248901367
vn -0.998046875 0.0547790527 0.0242004395
vn -0.950683594 0.0551757812 0.304443359
vn -0.825683594 0.0550842285 0.561523438
vn -0.6796875 0.0559997559 0.730957031
vn -0.834472656 -0.28515625 -0.471435547
vn -0.9296875 -0.284912109 -0.233642578
vn -0.958007812 -0.284667969 0.028793335
vn -0.911132812 -0.284179688 0.297851562
vn -0.789550781 -0.283447266 0.543945312
vn -0.6484375 -0.283691406 0.706542969
vn -0.602050781 -0.534667969 -0.593261719
vn -0.338623047 -0.736816406 -0.584960938
vn -0.736328125 -0.534667969 -0.415039062
vn -0.481201172 -0.736328125 -0.475585938
vn -0.19519043 -0.920410156 -0.339111328
vn -0.819824219 -0.534179688 -0.205200195
vn -0.845214844 -0.534179688 0.0263214111
vn -0.803710938 -0.533691406 0.263671875
vn -0.696289062 -0.532714844 0.480957031
vn -0.572265625 -0.533203125 0.623535156
vn -0.277832031 -0.919921875 -0.275878906
vn 0.000381946564 -1 0.00453186035
vn -0.589355469 -0.736328125 -0.333251953
vn -0.65625 -0.735839844 -0.165283203
vn -0.340820312 -0.919921875 -0.193969727
vn -0.676757812 -0.735839844 0.0200042725
vn -0.380615234 -0.919433594 -0.0970458984
vn -0.64453125 -0.735351562 0.210205078
vn -0.559082031 -0.734375 0.384765625
vn -0.459228516 -0.736328125 0.497070312
vn -0.394287109 -0.918945312 0.0101242065
vn -0.376708984 -0.918457031 0.121032715
vn -0.327636719 -0.91796875 0.223510742
vn -0.263916016 -0.921386719 0.28515625
vn -0.181274414 0.969726562 0.163574219
vn -0.344726562 0.890136719 0.297363281
vn -0.246826172 0.890625 0.381835938
vn -0.127319336 0.969726562 0.207885742
vn -0.128173828 0.891601562 0.434326172
vn 0.104064941 0.984375 -0.140869141
vn 0.140136719 0.984375 -0.105957031
vn 0.443847656 0.833007812 -0.329833984
vn -0.0629272461 0.970214844 0.23425293
vn 0.00147819519 0.892089844 0.451660156
vn 0.33203125 0.833984375 -0.440673828
vn 0.707519531 0.453369141 -0.541992188
vn 0.059967041 0.984375 -0.164550781
vn 0.00667953491 0.970214844 0.241821289
vn 0.128173828 0.892578125 0.432861328
vn 0.525878906 0.454345703 -0.719238281
vn 0.780273438 0.0555725098 -0.623046875
vn 0.193237305 0.834472656 -0.516113281
vn 0.0102767944 0.984375 -0.174560547
vn 0.0743408203 0.970214844 0.23046875
vn 0.241210938 0.892089844 0.381835938
vn 0.134521484 0.970214844 0.201782227
vn -0.0839233398 0.984863281 -0.152832031
vn -0.0392150879 0.984863281 -0.169921875
vn 0.573242188 0.0556030273 -0.817382812
vn 0.74609375 -0.283935547 -0.602539062
vn 0.30078125 0.455322266 -0.837890625
vn 0.0377197266 0.834960938 -0.548828125
vn -0.1171875 0.834960938 -0.537597656
vn -0.258544922 0.834472656 -0.486328125
vn 0.546386719 -0.284667969 -0.788085938
vn 0.657714844 -0.533203125 -0.532226562
vn 0.318603516 0.0558776855 -0.946289062
vn 0.0495605469 0.456298828 -0.888671875
vn -0.200195312 0.455810547 -0.8671875
vn -0.427246094 0.454589844 -0.78125
vn 0.481201172 -0.534179688 -0.6953125
vn 0.527832031 -0.734863281 -0.42578125
vn 0.301025391 -0.285644531 -0.909667969
vn 0.0360717773 0.0561218262 -0.997558594
vn -0.243286133 0.0558776855 -0.968261719
vn -0.495605469 0.0552062988 -0.866699219
vn 0.386474609 -0.735839844 -0.556152344
vn 0.308349609 -0.918945312 -0.246582031
vn 0.264648438 -0.535644531 -0.801757812
vn 0.0294952393 -0.285888672 -0.958007812
vn -0.238525391 -0.285888672 -0.928222656
vn -0.48046875 -0.285644531 -0.829101562
vn 0.225830078 -0.919433594 -0.322265625
vn 0.000381946564 -1 0.00453186035
vn 0.212890625 -0.736816406 -0.641601562
vn 0.0252075195 -0.536132812 -0.84375
vn -0.21105957 -0.536132812 -0.817382812
vn -0.424072266 -0.53515625 -0.73046875
vn 0.125366211 -0.919433594 -0.372314453
vn 0.0211639404 -0.737304688 -0.674804688
vn -0.16796875 -0.737304688 -0.654296875
vn -0.338623047 -0.736816406 -0.584960938
vn 0.0138778687 -0.919921875 -0.391845703
vn -0.0961303711 -0.920410156 -0.379394531
vn -0.19519043 -0.920410156 -0.339111328
g Apple_02_0
f 3/3/3 2/2/2 1/1/1
f 4/4/4 3/3/3 1/1/1
f 5/5/5 3/3/3 4/4/4
f 4/4/4 1/1/1 6/6/6
f 1/1/1 7/7/7 6/6/6
f 6/6/6 7/7/7 8/8/8
f 9/9/9 5/5/5 4/4/4
f 10/10/10 5/5/5 9/9/9
f 11/11/11 6/6/6 8/8/8
f 11/11/11 8/8/8 12/12/12
f 4/4/4 6/6/6 13/13/13
f 9/9/9 4/4/4 13/13/13
f 13/13/13 6/6/6 11/11/11
f 14/14/14 10/10/10 9/9/9
f 15/15/15 10/10/10 14/14/14
f 16/16/16 15/15/15 14/14/14
f 16/16/16 14/14/14 17/17/17
f 14/14/14 9/9/9 18/18/18
f 9/9/9 13/13/13 18/18/18
f 14/14/14 18/18/18 17/17/17
f 19/19/19 11/11/11 12/12/12
f 19/19/19 12/12/12 20/20/20
f 21/21/21 13/13/13 11/11/11
f 18/18/18 13/13/13 21/21/21
f 21/21/21 11/11/11 19/19/19
f 17/17/17 18/18/18 22/22/22
f 22/22/22 18/18/18 21/21/21
f 23/23/23 17/17/17 22/22/22
f 24/24/24 19/19/19 20/20/20
f 24/24/24 20/20/20 25/25/25
f 26/26/26 21/21/21 19/19/19
f 22/22/22 21/21/21 26/26/26
f 26/26/26 19/19/19 24/24/24
f 23/23/23 22/22/22 27/27/27
f 27/27/27 22/22/22 26/26/26
f 28/28/28 23/23/23 27/27/27
f 29/29/29 24/24/24 25/25/25
f 29/29/29 25/25/25 30/30/30
f 31/31/31 26/26/26 24/24/24
f 27/27/27 26/26/26 31/31/31
f 31/31/31 24/24/24 29/29/29
f 28/28/28 27/27/27 32/32/32
f 32/32/32 27/27/27 31/31/31
f 33/33/33 28/28/28 32/32/32
f 34/34/34 29/29/29 30/30/30
f 34/34/34 30/30/30 35/35/35
f 36/36/36 31/31/31 29/29/29
f 32/32/32 31/31/31 36/36/36
f 36/36/36 29/29/29 34/34/34
f 33/33/33 32/32/32 37/37/37
f 37/37/37 32/32/32 36/36/36
f 38/38/38 33/33/33 37/37/37
f 39/39/39 34/34/34 35/35/35
f 39/39/39 35/35/35 40/40/40
f 41/41/41 36/36/36 34/34/34
f 37/37/37 36/36/36 41/41/41
f 41/41/41 34/34/34 39/39/39
f 38/38/38 37/37/37 42/42/42
f 42/42/42 37/37/37 41/41/41
f 43/43/43 38/38/38 42/42/42
f 44/44/44 39/39/39 40/40/40
f 44/44/44 40/40/40 45/45/45
f 46/46/46 41/41/41 39/39/39
f 42/42/42 41/41/41 46/46/46
f 46/46/46 39/39/39 44/44/44
f 43/43/43 42/42/42 47/47/47
f 47/47/47 42/42/42 46/46/46
f 48/48/48 43/43/43 47/47/47
f 49/49/49 46/46/46 44/44/44
f 45/45/45 49/49/49 44/44/44
f 47/47/47 46/46/46 49/49/49
f 48/48/48 47/47/47 50/50/50
f 50/50/50 47/47/47 49/49/49
f 45/45/45 50/50/50 49/49/49
f 51/51/51 48/48/48 50/50/50
f 45/45/45 51/51/51 50/50/50
f 54/54/54 53/53/53 52/52/52
f 52/52/52 55/55/55 54/54/54
f 55/55/55 56/56/56 54/54/54
f 55/55/55 57/57/57 56/56/56
f 57/57/57 58/58/58 56/56/56
f 57/57/57 59/59/59 58/58/58
f 59/59/59 60/60/60 58/58/58
f 59/59/59 61/61/61 60/60/60
f 61/61/61 62/62/62 60/60/60
f 61/61/61 63/63/63 62/62/62
f 63/63/63 64/64/64 62/62/62
f 63/63/63 65/65/65 64/64/64
f 65/65/65 66/66/66 64/64/64
f 65/65/65 67/67/67 66/66/66
f 67/67/67 68/68/68 66/66/66
f 67/67/67 69/69/69 68/68/68
f 69/69/69 70/70/70 68/68/68
f 69/69/69 71/71/71 70/70/70
f 71/71/71 72/72/72 70/70/70
f 71/71/71 73/73/73 72/72/72
f 76/76/76 75/75/75 74/74/74
f 77/77/77 76/76/76 74/74/74
f 78/78/78 76/76/76 77/77/77
f 77/77/77 74/74/74 79/79/79
f 74/74/74 80/80/80 79/79/79
f 79/79/79 80/80/80 81/81/81
f 82/82/82 78/78/78 77/77/77
f 83/83/83 78/78/78 82/82/82
f 84/84/84 79/79/79 81/81/81
f 84/84/84 81/81/81 85/85/85
f 77/77/77 79/79/79 86/86/86
f 82/82/82 77/77/77 86/86/86
f 86/86/86 79/79/79 84/84/84
f 87/87/87 83/83/83 82/82/82
f 88/88/88 83/83/83 87/87/87
f 89/89/89 84/84/84 85/85/85
f 89/89/89 85/85/85 90/90/90
f 91/91/91 86/86/86 84/84/84
f 91/91/91 84/84/84 89/89/89
f 82/82/82 86/86/86 92/92/92
f 87/87/87 82/82/82 92/92/92
f 92/92/92 86/86/86 91/91/91
f 93/93/93 88/88/88 87/87/87
f 94/94/94 88/88/88 93/93/93
f 95/95/95 89/89/89 90/90/90
f 95/95/95 90/90/90 96/96/96
f 97/97/97 91/91/91 89/89/89
f 97/97/97 89/89/89 95/95/95
f 98/98/98 92/92/92 91/91/91
f 98/98/98 91/91/91 97/97/97
f 87/87/87 92/92/92 99/99/99
f 93/93/93 87/87/87 99/99/99
f 99/99/99 92/92/92 98/98/98
f 100/100/100 94/94/94 93/93/93
f 101/101/101 94/94/94 100/100/100
f 102/102/102 101/101/101 100/100/100
f 102/102/102 100/100/100 103/103/103
f 104/104/104 100/100/100 93/93/93
f 99/99/99 104/104/104 93/93/93
f 100/100/100 104/104/104 103/103/103
f 105/105/105 99/99/99 98/98/98
f 104/104/104 99/99/99 105/105/105
f 103/103/103 104/104/104 106/106/106
f 106/106/106 104/104/104 105/105/105
f 107/107/107 103/103/103 106/106/106
f 108/108/108 98/98/98 97/97/97
f 105/105/105 98/98/98 108/108/108
f 106/106/106 105/105/105 109/109/109
f 109/109/109 105/105/105 108/108/108
f 107/107/107 106/106/106 110/110/110
f 110/110/110 106/106/106 109/109/109
f 111/111/111 107/107/107 110/110/110
f 108/108/108 97/97/97 112/112/112
f 112/112/112 97/97/97 95/95/95
f 109/109/109 108/108/108 113/113/113
f 113/113/113 108/108/108 112/112/112
f 110/110/110 109/109/109 114/114/114
f 114/114/114 109/109/109 113/113/113
f 111/111/111 110/110/110 115/115/115
f 115/115/115 110/110/110 114/114/114
f 116/116/116 111/111/111 115/115/115
f 112/112/112 95/95/95 117/117/117
f 117/117/117 95/95/95 96/96/96
f 117/117/117 96/96/96 118/118/118
f 113/113/113 112/112/112 119/119/119
f 119/119/119 112/112/112 117/117/117
f 120/120/120 117/117/117 118/118/118
f 119/119/119 117/117/117 120/120/120
f 120/120/120 118/118/118 121/121/121
f 114/114/114 113/113/113 122/122/122
f 122/122/122 113/113/113 119/119/119
f 115/115/115 114/114/114 123/123/123
f 123/123/123 114/114/114 122/122/122
f 116/116/116 115/115/115 124/124/124
f 124/124/124 115/115/115 123/123/123
f 125/125/125 116/116/116 124/124/124
f 126/126/126 120/120/120 121/121/121
f 126/126/126 121/121/121 127/127/127
f 128/128/128 119/119/119 120/120/120
f 122/122/122 119/119/119 128/128/128
f 128/128/128 120/120/120 126/126/126
f 123/123/123 122/122/122 129/129/129
f 129/129/129 122/122/122 128/128/128
f 124/124/124 123/123/123 130/130/130
f 130/130/130 123/123/123 129/129/129
f 125/125/125 124/124/124 131/131/131
f 131/131/131 124/124/124 130/130/130
f 132/132/132 125/125/125 131/131/131
f 133/133/133 126/126/126 127/127/127
f 134/134/134 133/133/133 127/127/127
f 135/135/135 128/128/128 126/126/126
f 129/129/129 128/128/128 135/135/135
f 135/135/135 126/126/126 133/133/133
f 130/130/130 129/129/129 136/136/136
f 136/136/136 129/129/129 135/135/135
f 137/137/137 135/135/135 133/133/133
f 134/134/134 137/137/137 133/133/133
f 136/136/136 135/135/135 137/137/137
f 131/131/131 130/130/130 138/138/138
f 138/138/138 130/130/130 136/136/136
f 132/132/132 131/131/131 139/139/139
f 139/139/139 131/131/131 138/138/138
f 140/140/140 132/132/132 139/139/139
f 141/141/141 136/136/136 137/137/137
f 138/138/138 136/136/136 141/141/141
f 134/134/134 141/141/141 137/137/137
f 142/142/142 138/138/138 141/141/141
f 139/139/139 138/138/138 142/142/142
f 134/134/134 142/142/142 141/141/141
f 140/140/140 139/139/139 143/143/143
f 143/143/143 139/139/139 142/142/142
f 134/134/134 143/143/143 142/142/142
f 144/144/144 140/140/140 143/143/143
f 134/134/134 144/144/144 143/143/143
f 147/147/147 146/146/146 145/145/145
f 148/148/148 147/147/147 145/145/145
f 149/149/149 147/147/147 148/148/148
f 148/148/148 145/145/145 150/150/150
f 145/145/145 151/151/151 150/150/150
f 150/150/150 151/151/151 152/152/152
f 153/153/153 149/149/149 148/148/148
f 154/154/154 149/149/149 153/153/153
f 155/155/155 150/150/150 152/152/152
f 155/155/155 152/152/152 156/156/156
f 148/148/148 150/150/150 157/157/157
f 153/153/153 148/148/148 157/157/157
f 157/157/157 150/150/150 155/155/155
f 158/158/158 154/154/154 153/153/153
f 159/159/159 154/154/154 158/158/158
f 160/160/160 155/155/155 156/156/156
f 160/160/160 156/156/156 161/161/161
f 162/162/162 157/157/157 155/155/155
f 162/162/162 155/155/155 160/160/160
f 153/153/153 157/157/157 163/163/163
f 158/158/158 153/153/153 163/163/163
f 163/163/163 157/157/157 162/162/162
f 164/164/164 159/159/159 158/158/158
f 165/165/165 159/159/159 164/164/164
f 166/166/166 160/160/160 161/161/161
f 166/166/166 161/161/161 167/167/167
f 168/168/168 162/162/162 160/160/160
f 168/168/168 160/160/160 166/166/166
f 169/169/169 163/163/163 162/162/162
f 169/169/169 162/162/162 168/168/168
f 158/158/158 163/163/163 170/170/170
f 164/164/164 158/158/158 170/170/170
f 170/170/170 163/163/163 169/169/169
f 171/171/171 165/165/165 164/164/164
f 172/172/172 165/165/165 171/171/171
f 173/173/173 166/166/166 167/167/167
f 173/173/173 167/167/167 174/174/174
f 175/175/175 168/168/168 166/166/166
f 175/175/175 166/166/166 173/173/173
f 176/176/176 169/169/169 168/168/168
f 176/176/176 168/168/168 175/175/175
f 177/177/177 170/170/170 169/169/169
f 177/177/177 169/169/169 176/176/176
f 164/164/164 170/170/170 178/178/178
f 171/171/171 164/164/164 178/178/178
f 178/178/178 170/170/170 177/177/177
f 179/179/179 172/172/172 171/171/171
f 180/180/180 172/172/172 179/179/179
f 181/181/181 180/180/180 179/179/179
f 181/181/181 179/179/179 182/182/182
f 179/179/179 171/171/171 183/183/183
f 171/171/171 178/178/178 183/183/183
f 179/179/179 183/183/183 182/182/182
f 184/184/184 178/178/178 177/177/177
f 183/183/183 178/178/178 184/184/184
f 182/182/182 183/183/183 185/185/185
f 185/185/185 183/183/183 184/184/184
f 186/186/186 182/182/182 185/185/185
f 187/187/187 177/177/177 176/176/176
f 184/184/184 177/177/177 187/187/187
f 185/185/185 184/184/184 188/188/188
f 188/188/188 184/184/184 187/187/187
f 186/186/186 185/185/185 189/189/189
f 189/189/189 185/185/185 188/188/188
f 190/190/190 186/186/186 189/189/189
f 187/187/187 176/176/176 191/191/191
f 191/191/191 176/176/176 175/175/175
f 188/188/188 187/187/187 192/192/192
f 192/192/192 187/187/187 191/191/191
f 189/189/189 188/188/188 193/193/193
f 193/193/193 188/188/188 192/192/192
f 190/190/190 189/189/189 194/194/194
f 194/194/194 189/189/189 193/193/193
f 195/195/195 190/190/190 194/194/194
f 191/191/191 175/175/175 196/196/196
f 196/196/196 175/175/175 173/173/173
f 192/192/192 191/191/191 197/197/197
f 197/197/197 191/191/191 196/196/196
f 193/193/193 192/192/192 198/198/198
f 198/198/198 192/192/192 197/197/197
f 194/194/194 193/193/193 199/199/199
f 199/199/199 193/193/193 198/198/198
f 195/195/195 194/194/194 200/200/200
f 200/200/200 194/194/194 199/199/199
f 201/201/201 195/195/195 200/200/200
f 196/196/196 173/173/173 202/202/202
f 202/202/202 173/173/173 174/174/174
f 202/202/202 174/174/174 203/203/203
f 197/197/197 196/196/196 204/204/204
f 204/204/204 196/196/196 202/202/202
f 205/205/205 202/202/202 203/203/203
f 204/204/204 202/202/202 205/205/205
f 205/205/205 203/203/203 206/206/206
f 198/198/198 197/197/197 207/207/207
f 207/207/207 197/197/197 204/204/204
f 199/199/199 198/198/198 208/208/208
f 208/208/208 198/198/198 207/207/207
f 200/200/200 199/199/199 209/209/209
f 209/209/209 199/199/199 208/208/208
f 201/201/201 200/200/200 210/210/210
f 210/210/210 200/200/200 209/209/209
f 211/211/211 201/201/201 210/210/210
f 212/212/212 205/205/205 206/206/206
f 213/213/213 212/212/212 206/206/206
f 214/214/214 204/204/204 205/205/205
f 207/207/207 204/204/204 214/214/214
f 214/214/214 205/205/205 212/212/212
f 208/208/208 207/207/207 215/215/215
f 215/215/215 207/207/207 214/214/214
f 216/216/216 214/214/214 212/212/212
f 213/213/213 216/216/216 212/212/212
f 215/215/215 214/214/214 216/216/216
f 209/209/209 208/208/208 217/217/217
f 217/217/217 208/208/208 215/215/215
f 218/218/218 215/215/215 216/216/216
f 213/213/213 218/218/218 216/216/216
f 217/217/217 215/215/215 218/218/218
f 210/210/210 209/209/209 219/219/219
f 219/219/219 209/209/209 217/217/217
f 211/211/211 210/210/210 220/220/220
f 220/220/220 210/210/210 219/219/219
f 221/221/221 211/211/211 220/220/220
f 222/222/222 217/217/217 218/218/218
f 219/219/219 217/217/217 222/222/222
f 213/213/213 222/222/222 218/218/218
f 223/223/223 219/219/219 222/222/222
f 220/220/220 219/219/219 223/223/223
f 213/213/213 223/223/223 222/222/222
f 221/221/221 220/220/220 224/224/224
f 224/224/224 220/220/220 223/223/223
f 213/213/213 224/224/224 223/223/223
f 225/225/225 221/221/221 224/224/224
f 213/213/213 225/225/225 224/224/224
f 228/228/228 227/227/227 226/226/226
f 229/229/229 228/228/228 226/226/226
f 230/230/230 228/228/228 229/229/229
f 229/229/229 226/226/226 231/231/231
f 226/226/226 232/232/232 231/231/231
f 231/231/231 232/232/232 233/233/233
f 234/234/234 230/230/230 229/229/229
f 235/235/235 230/230/230 234/234/234
f 236/236/236 231/231/231 233/233/233
f 236/236/236 233/233/233 237/237/237
f 229/229/229 231/231/231 238/238/238
f 234/234/234 229/229/229 238/238/238
f 238/238/238 231/231/231 236/236/236
f 239/239/239 235/235/235 234/234/234
f 240/240/240 235/235/235 239/239/239
f 241/241/241 236/236/236 237/237/237
f 241/241/241 237/237/237 242/242/242
f 243/243/243 238/238/238 236/236/236
f 243/243/243 236/236/236 241/241/241
f 234/234/234 238/238/238 244/244/244
f 239/239/239 234/234/234 244/244/244
f 244/244/244 238/238/238 243/243/243
f 245/245/245 240/240/240 239/239/239
f 246/246/246 240/240/240 245/245/245
f 247/247/247 246/246/246 245/245/245
f 247/247/247 245/245/245 248/248/248
f 245/245/245 239/239/239 249/249/249
f 239/239/239 244/244/244 249/249/249
f 245/245/245 249/249/249 248/248/248
f 250/250/250 241/241/241 242/242/242
f 250/250/250 242/242/242 251/251/251
f 252/252/252 243/243/243 241/241/241
f 252/252/252 241/241/241 250/250/250
f 253/253/253 244/244/244 243/243/243
f 249/249/249 244/244/244 253/253/253
f 253/253/253 243/243/243 252/252/252
f 248/248/248 249/249/249 254/254/254
f 254/254/254 249/249/249 253/253/253
f 255/255/255 248/248/248 254/254/254
f 256/256/256 250/250/250 251/251/251
f 256/256/256 251/251/251 257/257/257
f 258/258/258 252/252/252 250/250/250
f 258/258/258 250/250/250 256/256/256
f 259/259/259 253/253/253 252/252/252
f 254/254/254 253/253/253 259/259/259
f 259/259/259 252/252/252 258/258/258
f 255/255/255 254/254/254 260/260/260
f 260/260/260 254/254/254 259/259/259
f 261/261/261 255/255/255 260/260/260
f 262/262/262 256/256/256 257/257/257
f 262/262/262 257/257/257 263/263/263
f 264/264/264 258/258/258 256/256/256
f 264/264/264 256/256/256 262/262/262
f 265/265/265 259/259/259 258/258/258
f 260/260/260 259/259/259 265/265/265
f 265/265/265 258/258/258 264/264/264
f 261/261/261 260/260/260 266/266/266
f 266/266/266 260/260/260 265/265/265
f 267/267/267 261/261/261 266/266/266
f 268/268/268 262/262/262 263/263/263
f 268/268/268 263/263/263 269/269/269
f 270/270/270 264/264/264 262/262/262
f 270/270/270 262/262/262 268/268/268
f 271/271/271 265/265/265 264/264/264
f 266/266/266 265/265/265 271/271/271
f 271/271/271 264/264/264 270/270/270
f 267/267/267 266/266/266 272/272/272
f 272/272/272 266/266/266 271/271/271
f 273/273/273 267/267/267 272/272/272
f 274/274/274 268/268/268 269/269/269
f 275/275/275 274/274/274 269/269/269
f 276/276/276 270/270/270 268/268/268
f 276/276/276 268/268/268 274/274/274
f 277/277/277 271/271/271 270/270/270
f 272/272/272 271/271/271 277/277/277
f 277/277/277 270/270/270 276/276/276
f 273/273/273 272/272/272 278/278/278
f 278/278/278 272/272/272 277/277/277
f 279/279/279 273/273/273 278/278/278
f 280/280/280 276/276/276 274/274/274
f 275/275/275 280/280/280 274/274/274
f 281/281/281 277/277/277 276/276/276
f 278/278/278 277/277/277 281/281/281
f 281/281/281 276/276/276 280/280/280
f 279/279/279 278/278/278 282/282/282
f 282/282/282 278/278/278 281/281/281
f 283/283/283 279/279/279 282/282/282
f 284/284/284 281/281/281 280/280/280
f 275/275/275 284/284/284 280/280/280
f 282/282/282 281/281/281 284/284/284
f 283/283/283 282/282/282 285/285/285
f 285/285/285 282/282/282 284/284/284
f 275/275/275 285/285/285 284/284/284
f 286/286/286 283/283/283 285/285/285
f 275/275/275 286/286/286 285/285/285
