g B_Cup_01
v -0.101902977 0.0131898969 -0.191853881
v -0.141440049 0.0113062998 -0.19872646
v -0.181345344 0.00831839442 -0.195176154
v -0.218899384 0.00442996621 -0.181445196
v -0.0654284433 0.013841033 -0.175026894
v -0.251542777 -9.40561295E-05 -0.158469066
v -0.0345021635 0.0132151693 -0.149392277
v -0.277051121 -0.00494542718 -0.127813697
v -0.0112317204 0.0113550564 -0.116696805
v -0.293685913 -0.00979332626 -0.0915680751
v 0.00279706717 0.0083874017 -0.0791688636
v -0.300313622 -0.0143076181 -0.0522024184
v 0.00662818551 0.00451439619 -0.039365802
v -0.296482563 -0.0181806087 -0.0123993624
v 4.76837158E-07 1.1920929E-07 -5.58793545E-09
v -0.282453746 -0.0211482644 0.0251285806
v -0.0166343153 -0.00484777987 0.0362454727
v -0.259183258 -0.0230083745 0.0578240417
v -0.0421426296 -0.00969915092 0.066900976
v -0.228257015 -0.02363424 0.0834587365
v -0.0747861639 -0.0142231723 0.0898771062
v -0.191782415 -0.0229831021 0.100285649
v -0.112340055 -0.0181115996 0.103608079
v -0.152245417 -0.0210995078 0.107158229
v -0.0654284433 0.013841033 -0.175026894
v -0.0934644938 0.0362312794 -0.221382976
v -0.101902977 0.0131898969 -0.191853881
v -0.0491211489 0.0370227695 -0.200925782
v -0.0345021635 0.0132151693 -0.149392277
v -0.0898487046 0.0669184476 -0.236261949
v -0.0115230083 0.0362619162 -0.169760928
v -0.0112317204 0.0113550564 -0.116696805
v -0.0410530455 0.0677894503 -0.213750765
v -0.0906581581 0.10042531 -0.237249523
v 0.0167677253 0.0340005308 -0.130011991
v 0.00279706717 0.0083874017 -0.0791688636
v -0.0407630615 0.10131599 -0.214231044
v -0.106963374 0.356582284 -0.212350249
v 0.000320151448 0.0669522211 -0.1794568
v 0.0338230133 0.0303925872 -0.0843879282
v 0.00662818551 0.00451439619 -0.039365802
v -0.0566629395 0.357480168 -0.189144805
v -0.112607986 0.371558934 -0.195848182
v -0.0659932271 0.372391045 -0.174343124
v 0.00154235959 0.100459754 -0.179164305
v 0.0314513892 0.0644637942 -0.135716915
v 0.0384806246 0.0256840438 -0.0359978005
v 4.76837158E-07 1.1920929E-07 -5.58793545E-09
v -0.014013797 0.356617093 -0.153793126
v 0.0333750248 0.0979152918 -0.134438872
v 0.0502191335 0.0604936108 -0.0855119303
v 0.0304230899 0.020195961 0.0118603408
v -0.0166343153 -0.00484777987 0.0362454727
v 0.0553443581 0.0553123131 -0.032263305
v 0.0525656007 0.0938557535 -0.083102718
v 0.0180775225 0.354051918 -0.108704358
v 0.0101995915 0.0143020293 0.0559253395
v -0.0421426296 -0.00969915092 0.066900976
v 0.0464778505 0.0492732078 0.020400187
v 0.0578063577 0.0885576978 -0.0286542308
v -0.0208117962 0.00840418041 0.0931943133
v -0.0747861639 -0.0142231723 0.0898771062
v 0.0242237579 0.0427874178 0.0688894466
v -0.0604976639 0.00290413201 0.12112724
v -0.112340055 -0.0181115996 0.103608079
v -0.0264694393 0.37159124 -0.141581982
v 0.0374239944 0.349959284 -0.0569511876
v 0.0487400554 0.0823824853 0.0251957644
v -0.00990130007 0.0362973809 0.109900355
v -0.10615325 -0.00182308257 0.137820482
v -0.152245417 -0.0210995078 0.107158229
v -0.0853464603 0.367591888 -0.143620014
v -0.0531829074 0.366940975 -0.116959758
v 0.00327035785 0.369213969 -0.0997970551
v -0.0289811939 0.365006357 -0.082955949
v 0.0211992264 0.365421295 -0.0518362001
v -0.0143910348 0.36191994 -0.04392609
v 0.0427073389 0.344618261 -0.00206034794
v 0.0260954034 0.360471606 -0.000967741013
v -0.0104065984 0.357892156 -0.0025306528
v 0.033567369 0.338392705 0.0522271916
v 0.0176251233 0.354702294 0.0493418872
v 0.0106270015 0.33170718 0.102211893
v 0.0259845983 0.0757507384 0.074777633
v -0.00890941918 0.0691144168 0.116712622
v -0.0535717756 0.0302450657 0.140637904
v -0.0245504659 0.325016856 0.144487485
v -0.0535638556 0.0629256666 0.148142695
v -0.103811421 0.0250432026 0.159007236
v -0.00363427401 0.348506659 0.0956639647
v -0.0362339281 0.342306554 0.134841695
v -0.0346001536 0.3481552 0.0761069059
v -0.0611290149 0.343109667 0.1079887
v -0.0695677474 0.318777978 0.176172972
v -0.0362339281 0.342306554 0.134841695
v -0.077952534 0.336524755 0.164205372
v -0.0950788632 0.338404566 0.131884381
v -0.10493549 0.0576065853 0.166925862
v -0.154667571 -0.00545562804 0.142136395
v -0.191782415 -0.0229831021 0.100285649
v -0.121356748 0.313415706 0.195108831
v -0.125946671 0.331555426 0.181753591
v -0.134135649 0.33436057 0.146164834
v -0.157196879 0.0210460555 0.163756669
v -0.202734143 -0.00774554908 0.133781299
v -0.228257015 -0.02363424 0.0834587365
v -0.1595238 0.0535193011 0.1717823
v -0.176388547 0.309295237 0.200004756
v -0.176945716 0.327736974 0.186290741
v -0.175637469 0.331253231 0.149857059
v -0.247077554 -0.00853726268 0.113324106
v -0.259183258 -0.0230083745 0.0578240417
v -0.210089505 0.0185260903 0.154562578
v -0.213608265 0.0509426333 0.162381127
v -0.230912372 0.306697667 0.190527052
v -0.227474362 0.325329661 0.177507624
v -0.216756925 0.329294264 0.142709538
v -0.284675658 -0.00777640939 0.0821591914
v -0.282453746 -0.0211482644 0.0251285806
v -0.258885235 0.0176550876 0.132051393
v -0.281212956 0.305799782 0.167321697
v -0.274089187 0.324497551 0.156002566
v -0.263503462 0.0500520542 0.139362738
v -0.312966377 -0.00551490486 0.0424102433
v -0.296482563 -0.0181806087 -0.0123993624
v -0.300258398 0.0184923112 0.0977573469
v -0.305808812 0.0509081818 0.104295917
v -0.323861986 0.306662887 0.131970018
v -0.330021709 -0.0019069761 -0.00321380794
v -0.300313622 -0.0143076181 -0.0522024184
v -0.331389636 0.020980848 0.0540174097
v -0.334679246 0.0028013587 -0.0516038015
v -0.293685913 -0.00979332626 -0.0915680751
v -0.337641507 0.0534527563 0.0595704839
v -0.35015741 0.0249509346 0.00381241553
v -0.313612998 0.325297475 0.123241559
v -0.254691422 0.328617096 0.125208959
v -0.326621771 0.00828954577 -0.099462077
v -0.277051121 -0.00494542718 -0.127813697
v -0.355282575 0.0301321149 -0.0494362116
v -0.356832147 0.0575121902 0.00823433697
v -0.355953366 0.309228092 0.0868811086
v -0.286854833 0.329267949 0.0985487178
v -0.343352795 0.327674717 0.0814564973
v -0.311056554 0.331202567 0.0645449013
v -0.306398213 0.0141833723 -0.143527091
v -0.251542777 -9.40561295E-05 -0.158469066
v -0.346416116 0.036171332 -0.102099568
v -0.375299901 0.313320696 0.0351279452
v -0.361281693 0.33146742 0.0334955044
v -0.325646818 0.334289014 0.0255150385
v -0.362072825 0.0628102496 -0.0462141447
v -0.27538687 0.0200813264 -0.180795968
v -0.218899384 0.00442996621 -0.181445196
v -0.380583137 0.318661749 -0.0197627582
v -0.353006512 0.0689854622 -0.100064144
v -0.324161977 0.0426570177 -0.150588959
v -0.235701129 0.0255813729 -0.20872876
v -0.181345344 0.00831839442 -0.195176154
v -0.366177827 0.336417079 -0.0173728168
v -0.325646818 0.334289014 0.0255150385
v -0.32963118 0.338317037 -0.0158802569
v -0.290036976 0.0491470508 -0.191599861
v -0.330251008 0.0756173134 -0.149646014
v -0.371443123 0.324887127 -0.0740504339
v -0.3577075 0.342186302 -0.067682445
v -0.32273829 0.343011767 -0.0568216294
v -0.190045387 0.0303086042 -0.225422069
v -0.141440049 0.0113062998 -0.19872646
v -0.246366605 0.0551993549 -0.222337201
v -0.295357049 0.0822536424 -0.191580996
v -0.348502785 0.331572741 -0.124035135
v -0.141531125 0.0339411348 -0.229738191
v -0.101902977 0.0131898969 -0.191853881
v -0.0934644938 0.0362312794 -0.221382976
v -0.196126774 0.0604013428 -0.240706742
v -0.142741486 0.0643984824 -0.24545604
v -0.0898487046 0.0669184476 -0.236261949
v -0.336448133 0.348382056 -0.114004523
v -0.32273829 0.343011767 -0.0568216294
v -0.305437624 0.348053843 -0.0945178196
v -0.313325286 0.338263035 -0.166310742
v -0.250702709 0.0884421617 -0.223010942
v -0.144742727 0.0978486314 -0.246650666
v -0.0906581581 0.10042531 -0.237249523
v -0.199330896 0.0937613547 -0.241794258
v -0.303848416 0.354582042 -0.153182238
v -0.305437624 0.348053843 -0.0945178196
v -0.27890873 0.353099287 -0.126399755
v -0.268308222 0.344501913 -0.19799608
v -0.262129992 0.360363811 -0.182545796
v -0.216519043 0.349864334 -0.216931924
v -0.214135706 0.365333289 -0.200094149
v -0.161487341 0.353984714 -0.22182788
v -0.106963374 0.356582284 -0.212350249
v -0.163136706 0.369151711 -0.204631284
v -0.112607986 0.371558934 -0.195848182
v -0.164400369 0.364955813 -0.168268099
v -0.123280786 0.36691466 -0.161120579
v -0.262129992 0.360363811 -0.182545796
v -0.27890873 0.353099287 -0.126399755
v -0.244959012 0.357804358 -0.150295302
v -0.268971801 0.335892975 -0.118633099
v -0.237776309 0.340216279 -0.140590146
v -0.221994013 0.110731035 -0.163001403
v -0.252862304 0.106453054 -0.141274691
v -0.293348372 0.331256926 -0.0893378407
v -0.27890873 0.353099287 -0.126399755
v -0.276983649 0.101865575 -0.112286307
v -0.305437624 0.348053843 -0.0945178196
v -0.163136706 0.369151711 -0.204631284
v -0.20590207 0.361848354 -0.164575875
v -0.214135706 0.365333289 -0.200094149
v -0.244959012 0.357804358 -0.150295302
v -0.262129992 0.360363811 -0.182545796
v -0.20188792 0.343932271 -0.153712168
v -0.186482042 0.11440815 -0.175985739
v -0.221994013 0.110731035 -0.163001403
v -0.148746803 0.117233485 -0.179342985
v -0.163753271 0.346787512 -0.15710482
v -0.111358859 0.119014643 -0.172844157
v -0.125969425 0.348587573 -0.150537059
v -0.123280786 0.36691466 -0.161120579
v -0.164400369 0.364955813 -0.168268099
v -0.20590207 0.361848354 -0.164575875
v -0.0444832109 0.331349969 0.0674449354
v -0.0346001536 0.3481552 0.0761069059
v -0.0611290149 0.343109667 0.1079887
v -0.0688598081 0.326713771 0.0967401937
v -0.0548480451 0.0973701924 0.0718417987
v -0.0307266992 0.101957731 0.0428534299
v -0.0857165009 0.093092002 0.0935685113
v -0.0149961254 0.106542088 0.00857825205
v -0.100055426 0.322390437 0.118697241
v -0.1212283 0.0894151703 0.106552869
v -0.0285860579 0.3359828 0.0328067057
v -0.0346001536 0.3481552 0.0761069059
v -0.0950788632 0.338404566 0.131884381
v -0.0611290149 0.343109667 0.1079887
v -0.134135649 0.33436057 0.146164834
v -0.135943696 0.318674505 0.131819263
v -0.15896365 0.0865896568 0.109910123
v -0.0222523212 0.340296954 -0.00481320545
v -0.0087287724 0.110810995 -0.0286476221
v -0.0172994733 0.353197157 0.0384105854
v -0.00363427401 0.348506659 0.0956639647
v -0.0104065984 0.357892156 -0.0025306528
v 0.0260954034 0.360471606 -0.000967741013
v -0.0259135049 0.343998075 -0.0428502783
v -0.0143910348 0.36191994 -0.04392609
v -0.0123516619 0.114473343 -0.0662862584
v -0.0393200368 0.346834093 -0.0787137002
v -0.0143910348 0.36191994 -0.04392609
v -0.0256175995 0.117279567 -0.101773545
v -0.0289811939 0.365006357 -0.082955949
v -0.0615583658 0.348611712 -0.109959006
v -0.0531829074 0.366940975 -0.116959758
v -0.0476226658 0.119038567 -0.132691056
v -0.09111242 0.349209845 -0.134456217
v -0.0531829074 0.366940975 -0.116959758
v -0.0853464603 0.367591888 -0.143620014
v -0.076867193 0.119630419 -0.156931758
v -0.125969425 0.348587573 -0.150537059
v -0.111358859 0.119014643 -0.172844157
v -0.0853464603 0.367591888 -0.143620014
v -0.123280786 0.36691466 -0.161120579
v -0.0853464603 0.367591888 -0.143620014
v -0.112607986 0.371558934 -0.195848182
v -0.134135649 0.33436057 0.146164834
v -0.175637469 0.331253231 0.149857059
v -0.17407842 0.315819204 0.135211915
v -0.196351454 0.0848084986 0.103411347
v -0.216756925 0.329294264 0.142709538
v -0.211862177 0.314019144 0.128644153
v -0.230843276 0.0841928273 0.0874988735
v -0.246719286 0.31339696 0.112563312
v -0.260087729 0.0847846791 0.0632581711
v -0.254691422 0.328617096 0.125208959
v -0.286854833 0.329267949 0.0985487178
v -0.276273251 0.313995063 0.0880661085
v -0.28209278 0.0865435749 0.0323405303
v -0.298511624 0.315772653 0.0568207912
v -0.295358747 0.089349851 -0.00314662023
v -0.311056554 0.331202567 0.0645449013
v -0.286854833 0.329267949 0.0985487178
v -0.325646818 0.334289014 0.0255150385
v -0.311918169 0.318608701 0.0209573694
v -0.298981607 0.093012251 -0.040785253
v -0.315579295 0.322309911 -0.0170795638
v -0.292714238 0.0972810537 -0.0780111328
v -0.32963118 0.338317037 -0.0158802569
v -0.325646818 0.334289014 0.0255150385
v -0.309245586 0.326623827 -0.0546996109
v -0.293348372 0.331256926 -0.0893378407
v -0.32273829 0.343011767 -0.0568216294
v -0.32273829 0.343011767 -0.0568216294
v -0.32963118 0.338317037 -0.0158802569
v -0.274089187 0.324497551 0.156002566
v -0.227474362 0.325329661 0.177507624
v -0.186482042 0.11440815 -0.175985739
v -0.148746803 0.117233485 -0.179342985
v -0.111358859 0.119014643 -0.172844157
v -0.221994013 0.110731035 -0.163001403
v -0.111358859 0.119014643 -0.172844157
v -0.076867193 0.119630419 -0.156931758
v -0.221994013 0.110731035 -0.163001403
v -0.252862304 0.106453054 -0.141274691
v -0.0476226658 0.119038567 -0.132691056
v -0.276983649 0.101865575 -0.112286307
v -0.0256175995 0.117279567 -0.101773545
v -0.292714238 0.0972810537 -0.0780111328
v -0.0123516619 0.114473343 -0.0662862584
v -0.298981607 0.093012251 -0.040785253
v -0.0087287724 0.110810995 -0.0286476221
v -0.295358747 0.089349851 -0.00314662023
v -0.0149961254 0.106542088 0.00857825205
v -0.28209278 0.0865435749 0.0323405303
v -0.0307266992 0.101957731 0.0428534299
v -0.260087729 0.0847846791 0.0632581711
v -0.0548480451 0.0973701924 0.0718417987
v -0.230843276 0.0841928273 0.0874988735
v -0.0857165009 0.093092002 0.0935685113
v -0.196351454 0.0848084986 0.103411347
v -0.1212283 0.0894151703 0.106552869
v -0.15896365 0.0865896568 0.109910123
vt 0.553222656 0.382568359
vt 0.525390625 0.398681641
vt 0.502929688 0.421386719
vt 0.486816406 0.44921875
vt 0.584472656 0.374267578
vt 0.478515625 0.480224609
vt 0.616210938 0.374267578
vt 0.478515625 0.512207031
vt 0.647460938 0.382568359
vt 0.486816406 0.54296875
vt 0.675292969 0.398681641
vt 0.502929688 0.570800781
vt 0.697753906 0.421386719
vt 0.525390625 0.59375
vt 0.713867188 0.44921875
vt 0.553222656 0.609863281
vt 0.722167969 0.480224609
vt 0.584472656 0.618164062
vt 0.722167969 0.512207031
vt 0.616210938 0.618164062
vt 0.713867188 0.54296875
vt 0.647460938 0.609863281
vt 0.697753906 0.570800781
vt 0.675292969 0.59375
vt 0.0187072754 0.052154541
vt 0.0597839355 0.00218582153
vt 0.0140380859 0.0114135742
vt 0.0626831055 0.0498657227
vt 0.0192565918 0.0928955078
vt 0.0910644531 0.0001308918
vt 0.0621643066 0.0938110352
vt 0.0177459717 0.133911133
vt 0.0903930664 0.0495910645
vt 0.117675781 0.00168704987
vt 0.0603027344 0.136474609
vt 0.0153045654 0.175170898
vt 0.114379883 0.0504150391
vt 0.26171875 0.0354309082
vt 0.0889282227 0.0947875977
vt 0.0577087402 0.178466797
vt 0.012550354 0.216430664
vt 0.255126953 0.0783081055
vt 0.26953125 0.0372619629
vt 0.262695312 0.0798339844
vt 0.111450195 0.0959472656
vt 0.0861816406 0.137939453
vt 0.0549621582 0.219848633
vt 0.00984954834 0.258056641
vt 0.250244141 0.119506836
vt 0.108032227 0.139404297
vt 0.0830688477 0.180053711
vt 0.0520324707 0.261230469
vt 0.00774002075 0.299560547
vt 0.0798950195 0.221557617
vt 0.104553223 0.181640625
vt 0.245605469 0.159667969
vt 0.0497131348 0.302246094
vt 0.0061416626 0.340576172
vt 0.0773925781 0.262695312
vt 0.101196289 0.223022461
vt 0.0474243164 0.343261719
vt 0.00175476074 0.382568359
vt 0.0747680664 0.303710938
vt 0.0458679199 0.384521484
vt 0.00189304352 0.425292969
vt 0.257568359 0.120788574
vt 0.241455078 0.198974609
vt 0.0983276367 0.263916016
vt 0.0725708008 0.344482422
vt 0.044708252 0.426025391
vt 0.00247573853 0.466796875
vt 0.262695312 0.0798339844
vt 0.257568359 0.120788574
vt 0.252929688 0.160766602
vt 0.252929688 0.160766602
vt 0.248779297 0.199951172
vt 0.248779297 0.199951172
vt 0.237670898 0.237915039
vt 0.244995117 0.238647461
vt 0.244995117 0.238647461
vt 0.23449707 0.276367188
vt 0.241821289 0.276855469
vt 0.231323242 0.314697266
vt 0.0957641602 0.3046875
vt 0.0935058594 0.345458984
vt 0.0709228516 0.385253906
vt 0.229003906 0.353271484
vt 0.0918579102 0.385986328
vt 0.0697631836 0.426513672
vt 0.238525391 0.315185547
vt 0.236206055 0.353759766
vt 0.238525391 0.315185547
vt 0.236206055 0.353759766
vt 0.227172852 0.391601562
vt 0.236206055 0.353759766
vt 0.234375 0.391845703
vt 0.234375 0.391845703
vt 0.0907592773 0.426757812
vt 0.0442810059 0.467285156
vt 0.0001308918 0.509277344
vt 0.226074219 0.429931641
vt 0.233276367 0.430175781
vt 0.233276367 0.430175781
vt 0.0692749023 0.467285156
vt 0.0445861816 0.508789062
vt 0.00267982483 0.552246094
vt 0.0903320312 0.467285156
vt 0.225463867 0.468261719
vt 0.232666016 0.468505859
vt 0.232666016 0.468505859
vt 0.0458374023 0.550292969
vt 0.00591659546 0.594238281
vt 0.0700073242 0.508300781
vt 0.0909423828 0.5078125
vt 0.225708008 0.506347656
vt 0.232910156 0.506347656
vt 0.232910156 0.506347656
vt 0.0479736328 0.591796875
vt 0.00960540771 0.634765625
vt 0.0709838867 0.549316406
vt 0.226318359 0.544433594
vt 0.233520508 0.544433594
vt 0.0919189453 0.548339844
vt 0.0504455566 0.632324219
vt 0.0105743408 0.676269531
vt 0.0728759766 0.590332031
vt 0.0936279297 0.588867188
vt 0.227539062 0.582519531
vt 0.0536499023 0.672851562
vt 0.0156402588 0.717285156
vt 0.0753173828 0.630859375
vt 0.0570373535 0.713867188
vt 0.0177612305 0.759277344
vt 0.0960083008 0.629394531
vt 0.0783081055 0.670898438
vt 0.234741211 0.58203125
vt 0.233520508 0.544433594
vt 0.0611877441 0.754882812
vt 0.0242156982 0.80078125
vt 0.0816650391 0.711425781
vt 0.0989990234 0.669433594
vt 0.229736328 0.620117188
vt 0.234741211 0.58203125
vt 0.236938477 0.619628906
vt 0.236938477 0.619628906
vt 0.0661010742 0.795410156
vt 0.0306549072 0.840820312
vt 0.0862426758 0.751953125
vt 0.232543945 0.657714844
vt 0.239746094 0.657226562
vt 0.239746094 0.657226562
vt 0.102478027 0.709472656
vt 0.0712890625 0.8359375
vt 0.0365600586 0.879882812
vt 0.235961914 0.6953125
vt 0.106811523 0.749511719
vt 0.0907592773 0.792480469
vt 0.0762329102 0.875488281
vt 0.0411376953 0.917480469
vt 0.243164062 0.694824219
vt 0.239746094 0.657226562
vt 0.243164062 0.694824219
vt 0.095703125 0.832519531
vt 0.11138916 0.790039062
vt 0.240478516 0.733398438
vt 0.247558594 0.732421875
vt 0.247558594 0.732421875
vt 0.080078125 0.915039062
vt 0.0431213379 0.954589844
vt 0.100463867 0.873046875
vt 0.116271973 0.830078125
vt 0.245605469 0.771484375
vt 0.0819091797 0.955078125
vt 0.0402526855 0.990234375
vt 0.0800170898 0.998046875
vt 0.104553223 0.913085938
vt 0.10723877 0.955078125
vt 0.108276367 1
vt 0.252929688 0.770507812
vt 0.247558594 0.732421875
vt 0.252929688 0.770507812
vt 0.250244141 0.810058594
vt 0.12109375 0.870117188
vt 0.129394531 0.953613281
vt 0.1328125 0.999023438
vt 0.125610352 0.911132812
vt 0.257568359 0.80859375
vt 0.252929688 0.770507812
vt 0.257568359 0.80859375
vt 0.255615234 0.84765625
vt 0.262939453 0.846679688
vt 0.260253906 0.886230469
vt 0.267578125 0.884765625
vt 0.265380859 0.924804688
vt 0.272216797 0.96484375
vt 0.272705078 0.922851562
vt 0.279785156 0.962890625
vt 0.272705078 0.922851562
vt 0.279785156 0.962890625
vt 0.262939453 0.846679688
vt 0.257568359 0.80859375
vt 0.262939453 0.846679688
vt 0.250244141 0.810058594
vt 0.255615234 0.84765625
vt 0.12109375 0.870117188
vt 0.116271973 0.830078125
vt 0.245483398 0.771484375
vt 0.257568359 0.80859375
vt 0.11138916 0.790039062
vt 0.252929688 0.770507812
vt 0.272705078 0.922851562
vt 0.267578125 0.884765625
vt 0.267578125 0.884765625
vt 0.262939453 0.846679688
vt 0.262939453 0.846679688
vt 0.260253906 0.886230469
vt 0.125610352 0.911132812
vt 0.12109375 0.870117188
vt 0.129394531 0.953613281
vt 0.265380859 0.924804688
vt 0.1328125 0.999023438
vt 0.272216797 0.96484375
vt 0.279785156 0.962890625
vt 0.272705078 0.922851562
vt 0.267578125 0.884765625
vt 0.231201172 0.314697266
vt 0.238525391 0.315185547
vt 0.236206055 0.353759766
vt 0.228881836 0.353271484
vt 0.0935058594 0.345458984
vt 0.0957641602 0.3046875
vt 0.0918579102 0.385986328
vt 0.0983276367 0.263916016
vt 0.227050781 0.391601562
vt 0.0907592773 0.426757812
vt 0.234375 0.276367188
vt 0.238525391 0.315185547
vt 0.234375 0.391845703
vt 0.236206055 0.353759766
vt 0.233276367 0.430175781
vt 0.225952148 0.429931641
vt 0.0903320312 0.467285156
vt 0.237548828 0.237792969
vt 0.101196289 0.223022461
vt 0.241821289 0.276855469
vt 0.238525391 0.315185547
vt 0.244995117 0.238647461
vt 0.244995117 0.238647461
vt 0.241333008 0.198974609
vt 0.248779297 0.199951172
vt 0.104553223 0.181640625
vt 0.245605469 0.159667969
vt 0.248779297 0.199951172
vt 0.108032227 0.139404297
vt 0.252929688 0.160766602
vt 0.25 0.119506836
vt 0.257568359 0.120788574
vt 0.111450195 0.0959472656
vt 0.254882812 0.0783081055
vt 0.257568359 0.120788574
vt 0.262695312 0.0798339844
vt 0.114379883 0.0504150391
vt 0.26171875 0.0354309082
vt 0.117675781 0.00168704987
vt 0.262695312 0.0798339844
vt 0.26953125 0.0372619629
vt 0.262695312 0.0798339844
vt 0.26953125 0.0372619629
vt 0.233276367 0.430175781
vt 0.232666016 0.468505859
vt 0.225341797 0.468261719
vt 0.0909423828 0.5078125
vt 0.232910156 0.506347656
vt 0.225585938 0.506347656
vt 0.0919189453 0.548339844
vt 0.226196289 0.544433594
vt 0.0936279297 0.588867188
vt 0.233520508 0.544433594
vt 0.234741211 0.58203125
vt 0.227539062 0.582519531
vt 0.0960083008 0.629394531
vt 0.229614258 0.620117188
vt 0.0989990234 0.669433594
vt 0.236938477 0.619628906
vt 0.234741211 0.58203125
vt 0.239746094 0.657226562
vt 0.232421875 0.657714844
vt 0.102478027 0.709472656
vt 0.235839844 0.6953125
vt 0.106811523 0.749511719
vt 0.243164062 0.694824219
vt 0.239746094 0.657226562
vt 0.240356445 0.733398438
vt 0.245483398 0.771484375
vt 0.247558594 0.732421875
vt 0.247558594 0.732421875
vt 0.243164062 0.694824219
vt 0.233520508 0.544433594
vt 0.232910156 0.506347656
vt 0.125610352 0.911132812
vt 0.129394531 0.953613281
vt 0.1328125 0.999023438
vt 0.12109375 0.870117188
vt 0.1328125 0.999023438
vt 0.114379883 0.0504150391
vt 0.12109375 0.870117188
vt 0.116271973 0.830078125
vt 0.111450195 0.0959472656
vt 0.11138916 0.790039062
vt 0.108032227 0.139404297
vt 0.106811523 0.749511719
vt 0.104553223 0.181640625
vt 0.102478027 0.709472656
vt 0.101196289 0.223022461
vt 0.0989990234 0.669433594
vt 0.0983276367 0.263916016
vt 0.0960083008 0.629394531
vt 0.0957641602 0.3046875
vt 0.0936279297 0.588867188
vt 0.0935058594 0.345458984
vt 0.0919189453 0.548339844
vt 0.0918579102 0.385986328
vt 0.0909423828 0.5078125
vt 0.0907592773 0.426757812
vt 0.0903320312 0.467285156
vn 0.144287109 -0.919921875 -0.364501953
vn 0.0723876953 -0.923339844 -0.376953125
vn -0.000225543976 -0.928710938 -0.370605469
vn -0.0685424805 -0.936035156 -0.345703125
vn 0.210693359 -0.918945312 -0.333984375
vn -0.127929688 -0.944335938 -0.303710938
vn 0.267089844 -0.919921875 -0.287353516
vn -0.174438477 -0.953125 -0.248046875
vn 0.309326172 -0.923339844 -0.227783203
vn -0.204711914 -0.961914062 -0.182006836
vn 0.334960938 -0.928710938 -0.159545898
vn -0.216674805 -0.970214844 -0.110412598
vn 0.341796875 -0.935546875 -0.0870361328
vn -0.209716797 -0.977050781 -0.0379943848
vn 0.329833984 -0.943847656 -0.0154190063
vn -0.184204102 -0.982421875 0.0303039551
vn 0.299560547 -0.952636719 0.0505371094
vn -0.141845703 -0.985839844 0.0897827148
vn 0.253173828 -0.961425781 0.106323242
vn -0.0855712891 -0.986816406 0.136474609
vn 0.193725586 -0.969726562 0.148071289
vn -0.0192108154 -0.985839844 0.167114258
vn 0.125366211 -0.977050781 0.173095703
vn 0.052734375 -0.982421875 0.17956543
vn 0.210693359 -0.918945312 -0.333984375
vn 0.250488281 -0.62890625 -0.735839844
vn 0.144287109 -0.919921875 -0.364501953
vn 0.415771484 -0.625976562 -0.659667969
vn 0.267089844 -0.919921875 -0.287353516
vn 0.296630859 -0.232910156 -0.926269531
vn 0.556152344 -0.62890625 -0.543457031
vn 0.309326172 -0.923339844 -0.227783203
vn 0.519042969 -0.228881836 -0.823730469
vn 0.295898438 0.045501709 -0.954101562
vn 0.661621094 -0.637207031 -0.395263672
vn 0.334960938 -0.928710938 -0.159545898
vn 0.532226562 0.0497131348 -0.845214844
vn 0.250732422 0.457519531 -0.853027344
vn 0.707519531 -0.232666016 -0.667480469
vn 0.725097656 -0.650878906 -0.225097656
vn 0.341796875 -0.935546875 -0.0870361328
vn 0.47265625 0.461425781 -0.750488281
vn 0.0653076172 0.948242188 -0.311035156
vn 0.166259766 0.950195312 -0.264404297
vn 0.732910156 0.0456542969 -0.678710938
vn 0.849609375 -0.244018555 -0.468017578
vn 0.742675781 -0.668457031 -0.0445556641
vn 0.329833984 -0.943847656 -0.0154190063
vn 0.661132812 0.457763672 -0.594726562
vn 0.883789062 0.0335998535 -0.467041016
vn 0.935058594 -0.262207031 -0.239135742
vn 0.712402344 -0.688964844 0.133911133
vn 0.299560547 -0.952636719 0.0505371094
vn 0.958496094 -0.285644531 0.00357818604
vn 0.974609375 0.0143814087 -0.223754883
vn 0.802734375 0.446289062 -0.395507812
vn 0.637207031 -0.7109375 0.298339844
vn 0.253173828 -0.961425781 0.106323242
vn 0.91796875 -0.313232422 0.243652344
vn 0.999511719 -0.0107192993 0.0341796875
vn 0.521484375 -0.732910156 0.437255859
vn 0.193725586 -0.969726562 0.148071289
vn 0.81640625 -0.342773438 0.464599609
vn 0.373291016 -0.753417969 0.541503906
vn 0.125366211 -0.977050781 0.173095703
vn 0.251708984 0.948242188 -0.193481445
vn 0.888183594 0.428222656 -0.167236328
vn 0.956542969 -0.0399780273 0.289306641
vn 0.661132812 -0.372314453 0.651367188
vn 0.203125 -0.770996094 0.603515625
vn 0.052734375 -0.982421875 0.17956543
vn -0.279541016 0.8515625 0.443115234
vn -0.36328125 0.853515625 0.373779297
vn 0.316162109 0.942871094 -0.103088379
vn -0.426269531 0.858398438 0.285400391
vn 0.354980469 0.935058594 0.000731468201
vn -0.464111328 0.866699219 0.183837891
vn 0.911132812 0.404785156 0.0750732422
vn 0.365478516 0.924316406 0.110839844
vn -0.474609375 0.876953125 0.076171875
vn 0.87109375 0.377197266 0.314697266
vn 0.347167969 0.911621094 0.219726562
vn 0.76953125 0.34765625 0.53515625
vn 0.848632812 -0.0714111328 0.524414062
vn 0.683105469 -0.102844238 0.72265625
vn 0.461914062 -0.399902344 0.791503906
vn 0.614257812 0.318359375 0.721679688
vn 0.471679688 -0.132202148 0.871582031
vn 0.232910156 -0.423828125 0.875488281
vn 0.301269531 0.8984375 0.320068359
vn 0.23059082 0.884765625 0.404785156
vn -0.411621094 0.90234375 -0.128417969
vn -0.342529297 0.915527344 -0.211425781
vn 0.415771484 0.290771484 0.861816406
vn 0.23059082 0.884765625 0.404785156
vn 0.140380859 0.872558594 0.468261719
vn -0.254150391 0.927734375 -0.2734375
vn 0.228271484 -0.157348633 0.9609375
vn 0.0221862793 -0.784667969 0.619628906
vn -0.0192108154 -0.985839844 0.167114258
vn 0.187255859 0.267089844 0.9453125
vn 0.0364685059 0.861816406 0.506347656
vn -0.152587891 0.937988281 -0.310791016
vn -0.0104141235 -0.441894531 0.896972656
vn -0.157104492 -0.79296875 0.588867188
vn -0.0855712891 -0.986816406 0.136474609
vn -0.0303039551 -0.176757812 0.983886719
vn -0.0556945801 0.248901367 0.966796875
vn -0.0739135742 0.853515625 0.516113281
vn -0.0446166992 0.946289062 -0.3203125
vn -0.322509766 -0.795898438 0.512207031
vn -0.141845703 -0.985839844 0.0897827148
vn -0.251464844 -0.453369141 0.854980469
vn -0.286621094 -0.188964844 0.939453125
vn -0.296386719 0.237426758 0.925292969
vn -0.183227539 0.848144531 0.497070312
vn 0.0623474121 0.951171875 -0.301757812
vn -0.462646484 -0.79296875 0.395996094
vn -0.184204102 -0.982421875 0.0303039551
vn -0.473876953 -0.457275391 0.752441406
vn -0.518554688 0.233398438 0.822753906
vn -0.284179688 0.846191406 0.450439453
vn -0.522949219 -0.193115234 0.830078125
vn -0.568359375 -0.784667969 0.247802734
vn -0.209716797 -0.977050781 -0.0379943848
vn -0.662597656 -0.453613281 0.596191406
vn -0.723144531 -0.189086914 0.6640625
vn -0.706542969 0.237182617 0.666503906
vn -0.631835938 -0.770996094 0.0776977539
vn -0.216674805 -0.970214844 -0.110412598
vn -0.804199219 -0.442138672 0.396728516
vn -0.649414062 -0.753417969 -0.102783203
vn -0.204711914 -0.961914062 -0.182006836
vn -0.874023438 -0.177001953 0.452148438
vn -0.889648438 -0.424072266 0.16796875
vn -0.369628906 0.848144531 0.379638672
vn 0.161010742 0.953125 -0.256103516
vn -0.619140625 -0.733398438 -0.28125
vn -0.174438477 -0.953125 -0.248046875
vn -0.913085938 -0.400634766 -0.0747070312
vn -0.965332031 -0.157836914 0.208984375
vn -0.848144531 0.248535156 0.467529297
vn 0.244750977 0.951660156 -0.186767578
vn -0.434082031 0.853027344 0.289306641
vn 0.307617188 0.946289062 -0.0983886719
vn -0.543945312 -0.711425781 -0.445556641
vn -0.127929688 -0.944335938 -0.303710938
vn -0.873046875 -0.373046875 -0.314697266
vn -0.93359375 0.266601562 0.239257812
vn -0.472900391 0.861328125 0.185424805
vn 0.345703125 0.938476562 0.00318145752
vn -0.989746094 -0.13269043 -0.049041748
vn -0.427978516 -0.688964844 -0.584472656
vn -0.0685424805 -0.936035156 -0.345703125
vn -0.95703125 0.290283203 -0.00306129456
vn -0.946777344 -0.10345459 -0.304199219
vn -0.771484375 -0.343505859 -0.535644531
vn -0.280029297 -0.668457031 -0.688964844
vn -0.000225543976 -0.928710938 -0.370605469
vn -0.483398438 0.872070312 0.0753173828
vn 0.345703125 0.938476562 0.00318145752
vn 0.355957031 0.927734375 0.110900879
vn -0.615722656 -0.313964844 -0.72265625
vn -0.839355469 -0.0720214844 -0.5390625
vn -0.916503906 0.317626953 -0.242675781
vn -0.465087891 0.884765625 -0.0335693359
vn 0.338134766 0.915527344 0.217407227
vn -0.109741211 -0.650878906 -0.750976562
vn 0.0723876953 -0.923339844 -0.376953125
vn -0.416748047 -0.286376953 -0.862792969
vn -0.673828125 -0.0405883789 -0.737792969
vn -0.815429688 0.347167969 -0.463378906
vn 0.0711669922 -0.637695312 -0.767089844
vn 0.144287109 -0.919921875 -0.364501953
vn 0.250488281 -0.62890625 -0.735839844
vn -0.187866211 -0.262451172 -0.946289062
vn 0.055480957 -0.244384766 -0.968261719
vn 0.296630859 -0.232910156 -0.926269531
vn -0.419189453 0.897949219 -0.133789062
vn 0.338134766 0.915527344 0.217407227
vn 0.29296875 0.90234375 0.315429688
vn -0.66015625 0.376708984 -0.649902344
vn -0.462402344 -0.0112686157 -0.88671875
vn 0.0397338867 0.0332946777 -0.998535156
vn 0.295898438 0.045501709 -0.954101562
vn -0.21887207 0.0139312744 -0.975585938
vn -0.348632812 0.911621094 -0.21862793
vn 0.29296875 0.90234375 0.315429688
vn 0.223999023 0.889648438 0.3984375
vn -0.461425781 0.404296875 -0.789550781
vn -0.258300781 0.923828125 -0.282226562
vn -0.232788086 0.427978516 -0.873535156
vn -0.154418945 0.934570312 -0.320068359
vn 0.0100708008 0.446044922 -0.895019531
vn 0.250732422 0.457519531 -0.853027344
vn -0.0440368652 0.942871094 -0.329833984
vn 0.0653076172 0.948242188 -0.311035156
vn -0.0738525391 0.858398438 0.507324219
vn -0.180786133 0.853515625 0.488769531
vn -0.258300781 0.923828125 -0.282226562
vn 0.223999023 0.889648438 0.3984375
vn 0.135742188 0.876953125 0.460693359
vn 0.619628906 0.301025391 0.724609375
vn 0.419921875 0.273193359 0.865722656
vn 0.298339844 0.631835938 0.715332031
vn 0.453613281 0.653320312 0.605957031
vn 0.776367188 0.330810547 0.536621094
vn 0.223999023 0.889648438 0.3984375
vn 0.574707031 0.676269531 0.460205078
vn 0.29296875 0.90234375 0.315429688
vn -0.0440368652 0.942871094 -0.329833984
vn 0.0341186523 0.866699219 0.497802734
vn -0.154418945 0.934570312 -0.320068359
vn 0.135742188 0.876953125 0.460693359
vn -0.258300781 0.923828125 -0.282226562
vn 0.189697266 0.249511719 0.949707031
vn 0.119689941 0.61328125 0.780761719
vn 0.298339844 0.631835938 0.715332031
vn -0.0700683594 0.599121094 0.797363281
vn -0.0548095703 0.231201172 0.971191406
vn -0.258056641 0.590332031 0.764648438
vn -0.297119141 0.219604492 0.929199219
vn -0.180786133 0.853515625 0.488769531
vn -0.0738525391 0.858398438 0.507324219
vn 0.0341186523 0.866699219 0.497802734
vn -0.819335938 0.330078125 -0.468261719
vn -0.411621094 0.90234375 -0.128417969
vn -0.342529297 0.915527344 -0.211425781
vn -0.663085938 0.359863281 -0.65625
vn -0.542480469 0.69921875 -0.465820312
vn -0.663574219 0.67578125 -0.320068359
vn -0.387207031 0.720703125 -0.575195312
vn -0.742675781 0.652832031 -0.147705078
vn -0.463134766 0.387695312 -0.796875
vn -0.208496094 0.739257812 -0.640625
vn -0.921386719 0.300537109 -0.246337891
vn -0.411621094 0.90234375 -0.128417969
vn -0.254150391 0.927734375 -0.2734375
vn -0.342529297 0.915527344 -0.211425781
vn -0.152587891 0.937988281 -0.310791016
vn -0.233154297 0.411376953 -0.881347656
vn -0.0187072754 0.753417969 -0.657226562
vn -0.961914062 0.272705078 -0.00508117676
vn -0.774414062 0.631347656 0.0395507812
vn -0.456542969 0.889160156 -0.0303649902
vn 0.301269531 0.8984375 0.320068359
vn -0.474609375 0.876953125 0.076171875
vn 0.365478516 0.924316406 0.110839844
vn -0.938476562 0.249023438 0.238769531
vn -0.464111328 0.866699219 0.183837891
vn -0.756347656 0.61328125 0.228881836
vn -0.852539062 0.230834961 0.46875
vn -0.464111328 0.866699219 0.183837891
vn -0.689453125 0.599121094 0.407470703
vn -0.426269531 0.858398438 0.285400391
vn -0.709960938 0.219482422 0.668945312
vn -0.36328125 0.853515625 0.373779297
vn -0.578613281 0.590332031 0.562988281
vn -0.520507812 0.215698242 0.826171875
vn -0.36328125 0.853515625 0.373779297
vn -0.279541016 0.8515625 0.443115234
vn -0.431640625 0.586914062 0.685058594
vn -0.297119141 0.219604492 0.929199219
vn -0.258056641 0.590332031 0.764648438
vn -0.279541016 0.8515625 0.443115234
vn -0.180786133 0.853515625 0.488769531
vn -0.279541016 0.8515625 0.443115234
vn 0.0653076172 0.948242188 -0.311035156
vn -0.152587891 0.937988281 -0.310791016
vn -0.0446166992 0.946289062 -0.3203125
vn 0.0114059448 0.4296875 -0.902832031
vn 0.169311523 0.762207031 -0.624511719
vn 0.0623474121 0.951171875 -0.301757812
vn 0.253662109 0.441162109 -0.860839844
vn 0.342773438 0.765136719 -0.544433594
vn 0.477050781 0.4453125 -0.7578125
vn 0.489990234 0.762207031 -0.422851562
vn 0.161010742 0.953125 -0.256103516
vn 0.244750977 0.951660156 -0.186767578
vn 0.666503906 0.44140625 -0.600585938
vn 0.600585938 0.753417969 -0.267333984
vn 0.809082031 0.429931641 -0.400146484
vn 0.667480469 0.739257812 -0.0887451172
vn 0.307617188 0.946289062 -0.0983886719
vn 0.244750977 0.951660156 -0.186767578
vn 0.345703125 0.938476562 0.00318145752
vn 0.895019531 0.411865234 -0.170288086
vn 0.685546875 0.721191406 0.100585938
vn 0.918457031 0.388183594 0.0735473633
vn 0.654296875 0.699707031 0.287841797
vn 0.355957031 0.927734375 0.110900879
vn 0.345703125 0.938476562 0.00318145752
vn 0.877929688 0.360351562 0.314697266
vn 0.776367188 0.330810547 0.536621094
vn 0.338134766 0.915527344 0.217407227
vn 0.338134766 0.915527344 0.217407227
vn 0.355957031 0.927734375 0.110900879
vn -0.284179688 0.846191406 0.450439453
vn -0.183227539 0.848144531 0.497070312
vn 0.119689941 0.61328125 0.780761719
vn -0.0700683594 0.599121094 0.797363281
vn -0.258056641 0.590332031 0.764648438
vn 0.298339844 0.631835938 0.715332031
vn -0.258056641 0.590332031 0.764648438
vn -0.431640625 0.586914062 0.685058594
vn 0.298339844 0.631835938 0.715332031
vn 0.453613281 0.653320312 0.605957031
vn -0.578613281 0.590332031 0.562988281
vn 0.574707031 0.676269531 0.460205078
vn -0.689453125 0.599121094 0.407470703
vn 0.654296875 0.699707031 0.287841797
vn -0.756347656 0.61328125 0.228881836
vn 0.685546875 0.721191406 0.100585938
vn -0.774414062 0.631347656 0.0395507812
vn 0.667480469 0.739257812 -0.0887451172
vn -0.742675781 0.652832031 -0.147705078
vn 0.600585938 0.753417969 -0.267333984
vn -0.663574219 0.67578125 -0.320068359
vn 0.489990234 0.762207031 -0.422851562
vn -0.542480469 0.69921875 -0.465820312
vn 0.342773438 0.765136719 -0.544433594
vn -0.387207031 0.720703125 -0.575195312
vn 0.169311523 0.762207031 -0.624511719
vn -0.208496094 0.739257812 -0.640625
vn -0.0187072754 0.753417969 -0.657226562
g B_Cup_01_0
f 3/3/3 2/2/2 1/1/1
f 1/1/1 4/4/4 3/3/3
f 1/1/1 5/5/5 4/4/4
f 5/5/5 6/6/6 4/4/4
f 5/5/5 7/7/7 6/6/6
f 7/7/7 8/8/8 6/6/6
f 7/7/7 9/9/9 8/8/8
f 9/9/9 10/10/10 8/8/8
f 9/9/9 11/11/11 10/10/10
f 11/11/11 12/12/12 10/10/10
f 11/11/11 13/13/13 12/12/12
f 13/13/13 14/14/14 12/12/12
f 13/13/13 15/15/15 14/14/14
f 15/15/15 16/16/16 14/14/14
f 15/15/15 17/17/17 16/16/16
f 17/17/17 18/18/18 16/16/16
f 17/17/17 19/19/19 18/18/18
f 19/19/19 20/20/20 18/18/18
f 19/19/19 21/21/21 20/20/20
f 21/21/21 22/22/22 20/20/20
f 21/21/21 23/23/23 22/22/22
f 23/23/23 24/24/24 22/22/22
f 27/27/27 26/26/26 25/25/25
f 26/26/26 28/28/28 25/25/25
f 25/25/25 28/28/28 29/29/29
f 26/26/26 30/30/30 28/28/28
f 28/28/28 31/31/31 29/29/29
f 29/29/29 31/31/31 32/32/32
f 30/30/30 33/33/33 28/28/28
f 28/28/28 33/33/33 31/31/31
f 30/30/30 34/34/34 33/33/33
f 31/31/31 35/35/35 32/32/32
f 32/32/32 35/35/35 36/36/36
f 34/34/34 37/37/37 33/33/33
f 34/34/34 38/38/38 37/37/37
f 33/33/33 39/39/39 31/31/31
f 31/31/31 39/39/39 35/35/35
f 33/33/33 37/37/37 39/39/39
f 35/35/35 40/40/40 36/36/36
f 36/36/36 40/40/40 41/41/41
f 38/38/38 42/42/42 37/37/37
f 42/42/42 38/38/38 43/43/43
f 44/44/44 42/42/42 43/43/43
f 37/37/37 45/45/45 39/39/39
f 37/37/37 42/42/42 45/45/45
f 39/39/39 46/46/46 35/35/35
f 35/35/35 46/46/46 40/40/40
f 39/39/39 45/45/45 46/46/46
f 40/40/40 47/47/47 41/41/41
f 41/41/41 47/47/47 48/48/48
f 42/42/42 49/49/49 45/45/45
f 49/49/49 42/42/42 44/44/44
f 45/45/45 50/50/50 46/46/46
f 45/45/45 49/49/49 50/50/50
f 46/46/46 51/51/51 40/40/40
f 40/40/40 51/51/51 47/47/47
f 46/46/46 50/50/50 51/51/51
f 47/47/47 52/52/52 48/48/48
f 48/48/48 52/52/52 53/53/53
f 51/51/51 54/54/54 47/47/47
f 47/47/47 54/54/54 52/52/52
f 50/50/50 55/55/55 51/51/51
f 51/51/51 55/55/55 54/54/54
f 49/49/49 56/56/56 50/50/50
f 50/50/50 56/56/56 55/55/55
f 52/52/52 57/57/57 53/53/53
f 53/53/53 57/57/57 58/58/58
f 54/54/54 59/59/59 52/52/52
f 52/52/52 59/59/59 57/57/57
f 55/55/55 60/60/60 54/54/54
f 54/54/54 60/60/60 59/59/59
f 57/57/57 61/61/61 58/58/58
f 58/58/58 61/61/61 62/62/62
f 59/59/59 63/63/63 57/57/57
f 57/57/57 63/63/63 61/61/61
f 61/61/61 64/64/64 62/62/62
f 62/62/62 64/64/64 65/65/65
f 56/56/56 49/49/49 66/66/66
f 66/66/66 49/49/49 44/44/44
f 56/56/56 67/67/67 55/55/55
f 55/55/55 67/67/67 60/60/60
f 60/60/60 68/68/68 59/59/59
f 59/59/59 68/68/68 63/63/63
f 63/63/63 69/69/69 61/61/61
f 61/61/61 69/69/69 64/64/64
f 64/64/64 70/70/70 65/65/65
f 65/65/65 70/70/70 71/71/71
f 44/44/44 72/72/72 66/66/66
f 72/72/72 73/73/73 66/66/66
f 66/66/66 73/73/73 74/74/74
f 74/74/74 56/56/56 66/66/66
f 73/73/73 75/75/75 74/74/74
f 67/67/67 56/56/56 74/74/74
f 74/74/74 75/75/75 76/76/76
f 76/76/76 67/67/67 74/74/74
f 75/75/75 77/77/77 76/76/76
f 78/78/78 67/67/67 76/76/76
f 67/67/67 78/78/78 60/60/60
f 60/60/60 78/78/78 68/68/68
f 76/76/76 77/77/77 79/79/79
f 79/79/79 78/78/78 76/76/76
f 77/77/77 80/80/80 79/79/79
f 81/81/81 78/78/78 79/79/79
f 78/78/78 81/81/81 68/68/68
f 82/82/82 81/81/81 79/79/79
f 81/81/81 83/83/83 68/68/68
f 83/83/83 81/81/81 82/82/82
f 83/83/83 84/84/84 68/68/68
f 68/68/68 84/84/84 63/63/63
f 63/63/63 84/84/84 69/69/69
f 84/84/84 85/85/85 69/69/69
f 84/84/84 83/83/83 85/85/85
f 69/69/69 85/85/85 86/86/86
f 69/69/69 86/86/86 64/64/64
f 64/64/64 86/86/86 70/70/70
f 83/83/83 87/87/87 85/85/85
f 85/85/85 88/88/88 86/86/86
f 85/85/85 87/87/87 88/88/88
f 86/86/86 89/89/89 70/70/70
f 86/86/86 88/88/88 89/89/89
f 90/90/90 83/83/83 82/82/82
f 87/87/87 83/83/83 90/90/90
f 91/91/91 87/87/87 90/90/90
f 90/90/90 92/92/92 91/91/91
f 92/92/92 93/93/93 91/91/91
f 87/87/87 94/94/94 88/88/88
f 94/94/94 87/87/87 95/95/95
f 95/95/95 93/93/93 96/96/96
f 96/96/96 94/94/94 95/95/95
f 93/93/93 97/97/97 96/96/96
f 88/88/88 94/94/94 98/98/98
f 88/88/88 98/98/98 89/89/89
f 70/70/70 89/89/89 99/99/99
f 70/70/70 99/99/99 71/71/71
f 71/71/71 99/99/99 100/100/100
f 101/101/101 94/94/94 96/96/96
f 94/94/94 101/101/101 98/98/98
f 96/96/96 97/97/97 102/102/102
f 102/102/102 101/101/101 96/96/96
f 97/97/97 103/103/103 102/102/102
f 89/89/89 98/98/98 104/104/104
f 89/89/89 104/104/104 99/99/99
f 99/99/99 105/105/105 100/100/100
f 99/99/99 104/104/104 105/105/105
f 100/100/100 105/105/105 106/106/106
f 98/98/98 101/101/101 107/107/107
f 98/98/98 107/107/107 104/104/104
f 108/108/108 101/101/101 102/102/102
f 101/101/101 108/108/108 107/107/107
f 102/102/102 103/103/103 109/109/109
f 109/109/109 108/108/108 102/102/102
f 103/103/103 110/110/110 109/109/109
f 105/105/105 111/111/111 106/106/106
f 106/106/106 111/111/111 112/112/112
f 104/104/104 113/113/113 105/105/105
f 104/104/104 107/107/107 113/113/113
f 105/105/105 113/113/113 111/111/111
f 107/107/107 108/108/108 114/114/114
f 107/107/107 114/114/114 113/113/113
f 115/115/115 108/108/108 109/109/109
f 108/108/108 115/115/115 114/114/114
f 109/109/109 110/110/110 116/116/116
f 116/116/116 115/115/115 109/109/109
f 110/110/110 117/117/117 116/116/116
f 111/111/111 118/118/118 112/112/112
f 112/112/112 118/118/118 119/119/119
f 113/113/113 120/120/120 111/111/111
f 113/113/113 114/114/114 120/120/120
f 111/111/111 120/120/120 118/118/118
f 121/121/121 115/115/115 116/116/116
f 122/122/122 121/121/121 116/116/116
f 114/114/114 115/115/115 123/123/123
f 114/114/114 123/123/123 120/120/120
f 115/115/115 121/121/121 123/123/123
f 118/118/118 124/124/124 119/119/119
f 119/119/119 124/124/124 125/125/125
f 120/120/120 126/126/126 118/118/118
f 120/120/120 123/123/123 126/126/126
f 118/118/118 126/126/126 124/124/124
f 123/123/123 121/121/121 127/127/127
f 123/123/123 127/127/127 126/126/126
f 128/128/128 121/121/121 122/122/122
f 121/121/121 128/128/128 127/127/127
f 124/124/124 129/129/129 125/125/125
f 125/125/125 129/129/129 130/130/130
f 126/126/126 131/131/131 124/124/124
f 126/126/126 127/127/127 131/131/131
f 124/124/124 131/131/131 129/129/129
f 129/129/129 132/132/132 130/130/130
f 130/130/130 132/132/132 133/133/133
f 127/127/127 134/134/134 131/131/131
f 127/127/127 128/128/128 134/134/134
f 131/131/131 135/135/135 129/129/129
f 129/129/129 135/135/135 132/132/132
f 131/131/131 134/134/134 135/135/135
f 136/136/136 128/128/128 122/122/122
f 122/122/122 137/137/137 136/136/136
f 132/132/132 138/138/138 133/133/133
f 133/133/133 138/138/138 139/139/139
f 135/135/135 140/140/140 132/132/132
f 132/132/132 140/140/140 138/138/138
f 134/134/134 141/141/141 135/135/135
f 135/135/135 141/141/141 140/140/140
f 128/128/128 142/142/142 134/134/134
f 142/142/142 128/128/128 136/136/136
f 134/134/134 142/142/142 141/141/141
f 137/137/137 143/143/143 136/136/136
f 136/136/136 143/143/143 144/144/144
f 144/144/144 142/142/142 136/136/136
f 143/143/143 145/145/145 144/144/144
f 138/138/138 146/146/146 139/139/139
f 139/139/139 146/146/146 147/147/147
f 140/140/140 148/148/148 138/138/138
f 138/138/138 148/148/148 146/146/146
f 142/142/142 149/149/149 141/141/141
f 149/149/149 142/142/142 144/144/144
f 144/144/144 145/145/145 150/150/150
f 150/150/150 149/149/149 144/144/144
f 145/145/145 151/151/151 150/150/150
f 141/141/141 152/152/152 140/140/140
f 141/141/141 149/149/149 152/152/152
f 140/140/140 152/152/152 148/148/148
f 146/146/146 153/153/153 147/147/147
f 147/147/147 153/153/153 154/154/154
f 155/155/155 149/149/149 150/150/150
f 149/149/149 155/155/155 152/152/152
f 152/152/152 156/156/156 148/148/148
f 152/152/152 155/155/155 156/156/156
f 148/148/148 157/157/157 146/146/146
f 146/146/146 157/157/157 153/153/153
f 148/148/148 156/156/156 157/157/157
f 153/153/153 158/158/158 154/154/154
f 154/154/154 158/158/158 159/159/159
f 160/160/160 155/155/155 150/150/150
f 150/150/150 161/161/161 160/160/160
f 161/161/161 162/162/162 160/160/160
f 157/157/157 163/163/163 153/153/153
f 153/153/153 163/163/163 158/158/158
f 156/156/156 164/164/164 157/157/157
f 157/157/157 164/164/164 163/163/163
f 155/155/155 165/165/165 156/156/156
f 165/165/165 155/155/155 160/160/160
f 156/156/156 165/165/165 164/164/164
f 160/160/160 162/162/162 166/166/166
f 166/166/166 165/165/165 160/160/160
f 162/162/162 167/167/167 166/166/166
f 158/158/158 168/168/168 159/159/159
f 159/159/159 168/168/168 169/169/169
f 163/163/163 170/170/170 158/158/158
f 158/158/158 170/170/170 168/168/168
f 164/164/164 171/171/171 163/163/163
f 163/163/163 171/171/171 170/170/170
f 165/165/165 172/172/172 164/164/164
f 172/172/172 165/165/165 166/166/166
f 164/164/164 172/172/172 171/171/171
f 168/168/168 173/173/173 169/169/169
f 169/169/169 173/173/173 174/174/174
f 173/173/173 175/175/175 174/174/174
f 170/170/170 176/176/176 168/168/168
f 168/168/168 176/176/176 173/173/173
f 173/173/173 177/177/177 175/175/175
f 176/176/176 177/177/177 173/173/173
f 177/177/177 178/178/178 175/175/175
f 179/179/179 172/172/172 166/166/166
f 166/166/166 180/180/180 179/179/179
f 180/180/180 181/181/181 179/179/179
f 172/172/172 182/182/182 171/171/171
f 182/182/182 172/172/172 179/179/179
f 171/171/171 183/183/183 170/170/170
f 170/170/170 183/183/183 176/176/176
f 171/171/171 182/182/182 183/183/183
f 177/177/177 184/184/184 178/178/178
f 184/184/184 185/185/185 178/178/178
f 176/176/176 186/186/186 177/177/177
f 183/183/183 186/186/186 176/176/176
f 186/186/186 184/184/184 177/177/177
f 187/187/187 182/182/182 179/179/179
f 179/179/179 188/188/188 187/187/187
f 188/188/188 189/189/189 187/187/187
f 182/182/182 190/190/190 183/183/183
f 183/183/183 190/190/190 186/186/186
f 190/190/190 182/182/182 187/187/187
f 191/191/191 190/190/190 187/187/187
f 190/190/190 192/192/192 186/186/186
f 192/192/192 190/190/190 191/191/191
f 186/186/186 192/192/192 184/184/184
f 193/193/193 192/192/192 191/191/191
f 184/184/184 194/194/194 185/185/185
f 192/192/192 194/194/194 184/184/184
f 194/194/194 192/192/192 193/193/193
f 194/194/194 195/195/195 185/185/185
f 196/196/196 194/194/194 193/193/193
f 195/195/195 194/194/194 196/196/196
f 197/197/197 195/195/195 196/196/196
f 196/196/196 198/198/198 197/197/197
f 198/198/198 199/199/199 197/197/197
f 187/187/187 201/201/201 200/200/200
f 201/201/201 202/202/202 200/200/200
f 202/202/202 201/201/201 203/203/203
f 204/204/204 202/202/202 203/203/203
f 204/204/204 203/203/203 205/205/205
f 203/203/203 206/206/206 205/205/205
f 203/203/203 207/207/207 206/206/206
f 203/203/203 208/208/208 207/207/207
f 207/207/207 209/209/209 206/206/206
f 208/208/208 210/210/210 207/207/207
f 212/212/212 198/198/198 211/211/211
f 213/213/213 212/212/212 211/211/211
f 214/214/214 212/212/212 213/213/213
f 212/212/212 214/214/214 204/204/204
f 215/215/215 214/214/214 213/213/213
f 216/216/216 212/212/212 204/204/204
f 216/216/216 204/204/204 217/217/217
f 204/204/204 218/218/218 217/217/217
f 216/216/216 217/217/217 219/219/219
f 220/220/220 216/216/216 219/219/219
f 220/220/220 219/219/219 221/221/221
f 222/222/222 220/220/220 221/221/221
f 222/222/222 223/223/223 220/220/220
f 223/223/223 224/224/224 220/220/220
f 220/220/220 224/224/224 216/216/216
f 224/224/224 225/225/225 216/216/216
f 228/228/228 227/227/227 226/226/226
f 229/229/229 228/228/228 226/226/226
f 229/229/229 226/226/226 230/230/230
f 226/226/226 231/231/231 230/230/230
f 229/229/229 230/230/230 232/232/232
f 231/231/231 226/226/226 233/233/233
f 234/234/234 229/229/229 232/232/232
f 234/234/234 232/232/232 235/235/235
f 226/226/226 236/236/236 233/233/233
f 226/226/226 237/237/237 236/236/236
f 234/234/234 238/238/238 229/229/229
f 238/238/238 239/239/239 229/229/229
f 240/240/240 238/238/238 234/234/234
f 241/241/241 240/240/240 234/234/234
f 241/241/241 234/234/234 235/235/235
f 241/241/241 235/235/235 242/242/242
f 236/236/236 243/243/243 233/233/233
f 243/243/243 244/244/244 233/233/233
f 237/237/237 245/245/245 236/236/236
f 236/236/236 245/245/245 243/243/243
f 245/245/245 237/237/237 246/246/246
f 82/82/82 245/245/245 246/246/246
f 247/247/247 245/245/245 82/82/82
f 245/245/245 247/247/247 243/243/243
f 248/248/248 247/247/247 82/82/82
f 243/243/243 249/249/249 244/244/244
f 243/243/243 247/247/247 249/249/249
f 247/247/247 250/250/250 249/249/249
f 249/249/249 251/251/251 244/244/244
f 249/249/249 252/252/252 251/251/251
f 249/249/249 253/253/253 252/252/252
f 252/252/252 254/254/254 251/251/251
f 253/253/253 255/255/255 252/252/252
f 252/252/252 256/256/256 254/254/254
f 252/252/252 255/255/255 256/256/256
f 255/255/255 257/257/257 256/256/256
f 256/256/256 258/258/258 254/254/254
f 256/256/256 259/259/259 258/258/258
f 256/256/256 260/260/260 259/259/259
f 260/260/260 261/261/261 259/259/259
f 259/259/259 262/262/262 258/258/258
f 259/259/259 263/263/263 262/262/262
f 263/263/263 264/264/264 262/262/262
f 259/259/259 265/265/265 263/263/263
f 265/265/265 266/266/266 263/263/263
f 266/266/266 267/267/267 44/44/44
f 268/268/268 266/266/266 44/44/44
f 270/270/270 269/269/269 241/241/241
f 271/271/271 270/270/270 241/241/241
f 271/271/271 241/241/241 242/242/242
f 271/271/271 242/242/242 272/272/272
f 273/273/273 270/270/270 271/271/271
f 274/274/274 271/271/271 272/272/272
f 274/274/274 273/273/273 271/271/271
f 274/274/274 272/272/272 275/275/275
f 276/276/276 274/274/274 275/275/275
f 276/276/276 275/275/275 277/277/277
f 278/278/278 273/273/273 274/274/274
f 276/276/276 278/278/278 274/274/274
f 279/279/279 278/278/278 276/276/276
f 280/280/280 279/279/279 276/276/276
f 280/280/280 276/276/276 277/277/277
f 280/280/280 277/277/277 281/281/281
f 282/282/282 280/280/280 281/281/281
f 282/282/282 281/281/281 283/283/283
f 282/282/282 284/284/284 280/280/280
f 284/284/284 285/285/285 280/280/280
f 286/286/286 284/284/284 282/282/282
f 287/287/287 286/286/286 282/282/282
f 287/287/287 282/282/282 283/283/283
f 287/287/287 283/283/283 288/288/288
f 289/289/289 287/287/287 288/288/288
f 289/289/289 288/288/288 290/290/290
f 289/289/289 291/291/291 287/287/287
f 291/291/291 292/292/292 287/287/287
f 293/293/293 289/289/289 290/290/290
f 293/293/293 290/290/290 209/209/209
f 294/294/294 293/293/293 209/209/209
f 294/294/294 210/210/210 293/293/293
f 210/210/210 295/295/295 293/293/293
f 293/293/293 296/296/296 289/289/289
f 296/296/296 297/297/297 289/289/289
f 299/299/299 273/273/273 298/298/298
f 273/273/273 137/137/137 298/298/298
f 302/302/302 301/301/301 300/300/300
f 300/300/300 303/303/303 302/302/302
f 306/306/306 305/305/305 304/304/304
f 306/306/306 307/307/307 305/305/305
f 307/307/307 308/308/308 305/305/305
f 307/307/307 309/309/309 308/308/308
f 309/309/309 310/310/310 308/308/308
f 309/309/309 311/311/311 310/310/310
f 311/311/311 312/312/312 310/310/310
f 311/311/311 313/313/313 312/312/312
f 313/313/313 314/314/314 312/312/312
f 313/313/313 315/315/315 314/314/314
f 315/315/315 316/316/316 314/314/314
f 315/315/315 317/317/317 316/316/316
f 317/317/317 318/318/318 316/316/316
f 317/317/317 319/319/319 318/318/318
f 319/319/319 320/320/320 318/318/318
f 319/319/319 321/321/321 320/320/320
f 321/321/321 322/322/322 320/320/320
f 321/321/321 323/323/323 322/322/322
f 323/323/323 324/324/324 322/322/322
f 323/323/323 325/325/325 324/324/324
