g BigLeaf_02
v -0.154266044 0.797536671 1.2139591
v -0.237661317 0.83584702 1.56258798
v -0.304391384 0.774680316 1.5847578
v -0.375326335 0.596499443 1.2918458
v -0.0996179953 0.678467035 0.722716868
v -0.356504768 0.481296808 1.32724786
v -0.255128741 0.699174941 1.60061932
v -0.0767566115 0.494757235 1.58328402
v -0.438289791 0.373072535 0.849314153
v -0.0516814217 0.532969117 0.177000418
v -0.12172401 0.240811616 1.35633421
v 0.146936968 0.217283279 1.50058544
v -0.421364099 0.197366074 0.912682772
v -0.488024354 0.136165336 0.330780298
v -0.0465721041 0.34936893 -0.351267964
v 0.125097468 -0.0464700162 1.29774547
v 0.351860195 -0.0524679795 1.34717393
v -0.476691931 -0.0939979181 0.413476616
v -0.0984385833 -0.12277703 0.983599067
v -0.522385061 -0.086813055 -0.193311781
v -0.0757185221 0.152089804 -0.818588614
v 0.374062866 -0.269409597 1.16419625
v 0.581599534 -0.421446264 1.03181648
v 0.10675966 -0.359081477 0.945444524
v 0.412330836 -0.53016293 0.843113899
v 0.692444265 -0.661379099 0.73567307
v -0.109732911 -0.447140336 0.517739534
v -0.508521855 -0.328467697 -0.106703013
v -0.508710504 -0.241693094 -0.666065216
v -0.128659517 -0.0621437207 -1.26442373
v 0.455798626 -0.724918783 0.459831983
v 0.75950253 -0.85062927 0.415773928
v 0.145822719 -0.573756993 0.49690029
v -0.0887348428 -0.663795471 0.0154749453
v -0.48543039 -0.469562531 -0.582401693
v -0.468470067 -0.371187061 -1.14472866
v -0.193799421 -0.272063375 -1.66287744
v 0.466652483 -0.891759753 0.0582970381
v 0.778633356 -0.998710454 0.0812689066
v 0.148313195 -0.757195115 0.0321661383
v -0.124806248 -0.807767451 -0.457067937
v -0.439558297 -0.554688215 -1.07459211
v -0.414859265 -0.473110676 -1.58502352
v -0.284890085 -0.45700869 -1.91634393
v -0.35271132 -0.518075764 -1.89072776
v -0.302516788 -0.587626278 -1.85521066
v -0.385856301 -0.593577147 -1.5349977
v 0.117325731 -0.895011127 -0.410341293
v -0.101366043 -0.86464268 -0.938386619
v -0.123906612 -0.823976338 -1.40446174
v -0.114708252 -0.742716253 -1.71268952
v 0.443478167 -1.01779401 -0.332053989
v 0.74993664 -1.09927273 -0.253812343
v 0.105870523 -0.991650522 -0.816874504
v 0.111811712 -1.0026114 -1.21276379
v 0.113436103 -0.910679162 -1.50281215
v 0.386732399 -1.09621096 -0.692329228
v 0.674496531 -1.14893341 -0.577308655
v 0.344004512 -1.0855633 -1.03227246
v 0.316206008 -1.02626872 -1.26596475
v 0.555513799 -1.13622367 -0.890625298
v -0.284890085 -0.45700869 -1.91634393
v -0.35271132 -0.518075764 -1.89072776
v -0.302516788 -0.587626278 -1.85521066
v -0.22023809 -0.51307106 -1.88798106
v -0.114708252 -0.742716253 -1.71268952
v -0.0642365515 -0.297169566 -1.64970267
v -0.193799421 -0.272063375 -1.66287744
v -0.027025355 -0.658417642 -1.75139189
v 0.113436103 -0.910679162 -1.50281215
v 0.190774679 -0.521030128 -1.52149439
v 0.0650775135 -0.0868466645 -1.25562727
v -0.128659517 -0.0621437207 -1.26442373
v 0.204298198 -0.822076321 -1.54428434
v 0.316206008 -1.02626872 -1.26596475
v 0.402041554 -0.373667508 -1.12794781
v 0.160618737 0.134869635 -0.81620574
v -0.0757185221 0.152089804 -0.818588614
v 0.425802141 -0.69901067 -1.33002639
v 0.401309222 -0.946158111 -1.30362153
v 0.555513799 -1.13622367 -0.890625298
v 0.571813583 -0.878181696 -1.11259508
v 0.645996213 -1.06045675 -0.916671038
v 0.674496531 -1.14893341 -0.577308655
v 0.768369794 -1.06866908 -0.606862128
v 0.74993664 -1.09927273 -0.253812343
v 0.552646995 -0.578803599 -0.976664245
v 0.710456133 -0.801799119 -0.80636555
v 0.837951779 -1.02362895 -0.282636851
v 0.778633356 -0.998710454 0.0812689066
v 0.769412756 -0.725468934 -0.44535628
v 0.865455151 -0.924475312 0.0523714237
v 0.75950253 -0.85062927 0.415773928
v 0.661700368 -0.464689463 -0.578215957
v 0.848476291 -0.775037289 0.385974377
v 0.692444265 -0.661379099 0.73567307
v 0.799906135 -0.606344581 -0.0525820665
v 0.527250469 -0.209007278 -0.688882947
v 0.789229691 -0.580750346 0.703425646
v 0.581599534 -0.421446264 1.03181648
v 0.790513277 -0.44088316 0.349440008
v 0.6999439 -0.333721071 -0.1333047
v 0.540574491 -0.0426747017 -0.22160022
v 0.673650324 -0.347496748 0.999246418
v 0.351860195 -0.0524679795 1.34717393
v 0.750847936 -0.249717847 0.733981133
v 0.689210355 -0.143289909 0.329595506
v 0.197585732 0.340729892 -0.351835191
v -0.0465721041 0.34936893 -0.351267964
v 0.438507557 0.0280746724 1.32105851
v 0.146936968 0.217283279 1.50058544
v 0.609675109 -0.0666610375 1.08545327
v 0.529997468 0.165000886 0.281826407
v 0.17318061 0.518517554 0.176617846
v -0.0516814217 0.532969117 0.177000418
v 0.637986898 0.0826351941 0.77200979
v 0.239893794 0.304679811 1.47192228
v -0.0767566115 0.494757235 1.58328402
v 0.452633768 0.24434261 1.18497205
v 0.394911945 0.351422518 0.792858541
v 0.0809804127 0.661648214 0.720636189
v -0.0996179953 0.678467035 0.722716868
v 0.20478332 0.532595694 1.2432214
v 0.0109265894 0.576296091 1.5557487
v -0.255128741 0.699174941 1.60061932
v -0.0318833217 0.774848819 1.21348393
v -0.154266044 0.797536671 1.2139591
v -0.173696116 0.77407819 1.5746913
v -0.304391384 0.774680316 1.5847578
v -0.237661317 0.83584702 1.56258798
vt 0.930664062 0.210327148
vt 0.912109375 0.185913086
vt 0.904785156 0.188354492
vt 0.905761719 0.217285156
vt 0.947753906 0.249511719
vt 0.896484375 0.219848633
vt 0.897460938 0.189941406
vt 0.875 0.197021484
vt 0.909667969 0.257080078
vt 0.962402344 0.294677734
vt 0.869628906 0.225219727
vt 0.84765625 0.212280273
vt 0.895019531 0.259765625
vt 0.9140625 0.302001953
vt 0.969726562 0.340820312
vt 0.842285156 0.239257812
vt 0.82421875 0.232788086
vt 0.895019531 0.304931641
vt 0.859375 0.265625
vt 0.916503906 0.346191406
vt 0.969726562 0.383789062
vt 0.817871094 0.255615234
vt 0.798339844 0.269042969
vt 0.836914062 0.276367188
vt 0.810546875 0.288330078
vt 0.786132812 0.300292969
vt 0.854980469 0.309570312
vt 0.896972656 0.348144531
vt 0.920410156 0.384521484
vt 0.963378906 0.425292969
vt 0.806640625 0.323486328
vt 0.780273438 0.331787109
vt 0.833496094 0.315185547
vt 0.85546875 0.351806641
vt 0.901855469 0.385498047
vt 0.924804688 0.423583984
vt 0.953613281 0.462158203
vt 0.807617188 0.359130859
vt 0.780273438 0.363037109
vt 0.835449219 0.354980469
vt 0.862792969 0.389404297
vt 0.908691406 0.423339844
vt 0.928222656 0.459472656
vt 0.940429688 0.486328125
vt 0.932617188 0.485107422
vt 0.924804688 0.485107422
vt 0.917480469 0.458984375
vt 0.842285156 0.391113281
vt 0.871582031 0.426269531
vt 0.887695312 0.459960938
vt 0.900878906 0.483154297
vt 0.813476562 0.392578125
vt 0.786132812 0.392089844
vt 0.850097656 0.423583984
vt 0.859863281 0.453613281
vt 0.871582031 0.475830078
vt 0.82421875 0.421142578
vt 0.797851562 0.418457031
vt 0.8359375 0.446533203
vt 0.845703125 0.464355469
vt 0.814941406 0.44140625
vt 0.973632812 0.965332031
vt 0.989746094 0.959960938
vt 0.987792969 0.943359375
vt 0.96875 0.950683594
vt 0.969726562 0.897460938
vt 0.909179688 0.954101562
vt 0.917480469 0.975097656
vt 0.950195312 0.907226562
vt 0.940429688 0.84375
vt 0.895019531 0.897460938
vt 0.832519531 0.955566406
vt 0.83984375 0.98828125
vt 0.922363281 0.856933594
vt 0.905273438 0.799804688
vt 0.822753906 0.881835938
vt 0.749023438 0.954589844
vt 0.752929688 0.995117188
vt 0.871582031 0.84765625
vt 0.891113281 0.813964844
vt 0.850097656 0.748046875
vt 0.850585938 0.804199219
vt 0.837402344 0.763183594
vt 0.801757812 0.718261719
vt 0.791992188 0.737304688
vt 0.747070312 0.698730469
vt 0.812011719 0.836914062
vt 0.800292969 0.7890625
vt 0.741210938 0.71875
vt 0.686035156 0.688964844
vt 0.744628906 0.773925781
vt 0.684570312 0.709960938
vt 0.622070312 0.69140625
vt 0.747070312 0.822753906
vt 0.624511719 0.711425781
vt 0.557617188 0.703613281
vt 0.6796875 0.764648438
vt 0.747558594 0.87109375
vt 0.564453125 0.724609375
vt 0.495605469 0.729003906
vt 0.610351562 0.765136719
vt 0.674316406 0.8125
vt 0.669433594 0.866699219
vt 0.505371094 0.74609375
vt 0.421630859 0.775878906
vt 0.543457031 0.772460938
vt 0.595703125 0.8125
vt 0.664550781 0.952636719
vt 0.663085938 0.995117188
vt 0.433105469 0.791503906
vt 0.374511719 0.817382812
vt 0.48046875 0.785644531
vt 0.583007812 0.866210938
vt 0.572265625 0.948730469
vt 0.565429688 0.986328125
vt 0.51953125 0.820800781
vt 0.390380859 0.832519531
vt 0.336181641 0.867675781
vt 0.447021484 0.829589844
vt 0.495361328 0.871582031
vt 0.478027344 0.941894531
vt 0.467773438 0.971191406
vt 0.413574219 0.879394531
vt 0.353759766 0.879394531
vt 0.313232422 0.909179688
vt 0.393554688 0.930175781
vt 0.383789062 0.948730469
vt 0.330566406 0.91796875
vt 0.309326172 0.924804688
vt 0.32421875 0.932128906
vn -0.219482422 0.961425781 -0.164550781
vn -0.184814453 0.913574219 0.361816406
vn -0.719726562 0.424316406 0.549316406
vn -0.953125 0.298339844 0.0492553711
vn -0.326171875 0.909179688 -0.2578125
vn -0.822265625 -0.343994141 0.453857422
vn -0.386230469 -0.101196289 0.916992188
vn -0.141845703 -0.272216797 0.951660156
vn -0.9375 0.344238281 -0.0469665527
vn -0.337402344 0.896484375 -0.287109375
vn -0.556640625 -0.556152344 0.6171875
vn 0.00637817383 -0.366210938 0.930664062
vn -0.883300781 -0.334228516 0.328613281
vn -0.932617188 0.352294922 -0.0776367188
vn -0.344238281 0.87890625 -0.330078125
vn -0.375488281 -0.629882812 0.680175781
vn 0.187988281 -0.46484375 0.865234375
vn -0.897949219 -0.361083984 0.251708984
vn -0.618164062 -0.6171875 0.487304688
vn -0.937988281 0.327880859 -0.110473633
vn -0.334228516 0.8671875 -0.369140625
vn -0.134887695 -0.702148438 0.69921875
vn 0.251220703 -0.638671875 0.727539062
vn -0.423828125 -0.747558594 0.511230469
vn -0.263427734 -0.820800781 0.506347656
vn 0.231201172 -0.779296875 0.582519531
vn -0.579101562 -0.722167969 0.378662109
vn -0.8984375 -0.408203125 0.160766602
vn -0.94140625 0.301513672 -0.150878906
vn -0.30859375 0.862304688 -0.400878906
vn -0.330566406 -0.86328125 0.381347656
vn 0.225219727 -0.859375 0.458740234
vn -0.405029297 -0.834960938 0.372070312
vn -0.52734375 -0.795410156 0.298828125
vn -0.891601562 -0.44921875 0.0578918457
vn -0.947265625 0.269775391 -0.173583984
vn -0.21105957 0.830078125 -0.515625
vn -0.354492188 -0.875976562 0.327148438
vn 0.222290039 -0.916015625 0.334472656
vn -0.3828125 -0.866210938 0.321289062
vn -0.5625 -0.806152344 0.182739258
vn -0.872558594 -0.488037109 -0.0275268555
vn -0.958984375 0.178955078 -0.219604492
vn -0.208496094 0.447753906 -0.869628906
vn -0.734375 -0.0334472656 -0.677734375
vn -0.403808594 -0.662597656 -0.630859375
vn -0.811035156 -0.571777344 -0.125976562
vn -0.410644531 -0.877441406 0.247192383
vn -0.602539062 -0.797363281 0.033203125
vn -0.552246094 -0.821777344 -0.138793945
vn -0.177368164 -0.797851562 -0.576171875
vn -0.349853516 -0.897949219 0.267333984
vn 0.221069336 -0.956542969 0.19128418
vn -0.440917969 -0.892578125 0.094909668
vn -0.377929688 -0.915527344 -0.138549805
vn -0.0299987793 -0.845214844 -0.533691406
vn -0.315185547 -0.940429688 0.127319336
vn 0.212036133 -0.977050781 0.0102539062
vn -0.212646484 -0.970703125 -0.112121582
vn 0.141235352 -0.881347656 -0.450439453
vn 0.197631836 -0.952636719 -0.230957031
vn -0.208496094 0.447753906 -0.869628906
vn -0.734375 -0.0334472656 -0.677734375
vn -0.403808594 -0.662597656 -0.630859375
vn 0.354003906 -0.0321350098 -0.934570312
vn -0.177368164 -0.797851562 -0.576171875
vn 0.486083984 0.597167969 -0.637695312
vn -0.21105957 0.830078125 -0.515625
vn 0.483642578 -0.208862305 -0.850097656
vn -0.0299987793 -0.845214844 -0.533691406
vn 0.705566406 0.304931641 -0.639648438
vn 0.432128906 0.748046875 -0.50390625
vn -0.30859375 0.862304688 -0.400878906
vn 0.543457031 -0.338623047 -0.768066406
vn 0.141235352 -0.881347656 -0.450439453
vn 0.762207031 0.457275391 -0.458496094
vn 0.427490234 0.801269531 -0.418945312
vn -0.334228516 0.8671875 -0.369140625
vn 0.796875 0.131469727 -0.58984375
vn 0.608398438 -0.466796875 -0.641601562
vn 0.197631836 -0.952636719 -0.230957031
vn 0.854003906 -0.042755127 -0.518554688
vn 0.765625 -0.478759766 -0.429199219
vn 0.212036133 -0.977050781 0.0102539062
vn 0.881347656 -0.418212891 -0.220336914
vn 0.221069336 -0.956542969 0.19128418
vn 0.866210938 0.311523438 -0.390136719
vn 0.93359375 0.144287109 -0.328613281
vn 0.930175781 -0.363525391 -0.0486450195
vn 0.222290039 -0.916015625 0.334472656
vn 0.958496094 0.211914062 -0.191772461
vn 0.944824219 -0.312988281 0.0970458984
vn 0.225219727 -0.859375 0.458740234
vn 0.905273438 0.345947266 -0.246582031
vn 0.93359375 -0.271240234 0.234619141
vn 0.231201172 -0.779296875 0.582519531
vn 0.965820312 0.235473633 -0.109558105
vn 0.811523438 0.490478516 -0.318115234
vn 0.895019531 -0.23059082 0.381591797
vn 0.251220703 -0.638671875 0.727539062
vn 0.971191406 0.236450195 -0.0331420898
vn 0.918945312 0.363525391 -0.153930664
vn 0.822753906 0.52734375 -0.211791992
vn 0.802734375 -0.181152344 0.567871094
vn 0.187988281 -0.46484375 0.865234375
vn 0.965820312 0.221923828 0.135009766
vn 0.908691406 0.404052734 -0.103210449
vn 0.432861328 0.839355469 -0.328613281
vn -0.344238281 0.87890625 -0.330078125
vn 0.686523438 -0.0148010254 0.727050781
vn 0.00637817383 -0.366210938 0.930664062
vn 0.889648438 0.181152344 0.419433594
vn 0.795898438 0.590820312 -0.132080078
vn 0.431640625 0.873046875 -0.22644043
vn -0.337402344 0.896484375 -0.287109375
vn 0.880371094 0.470458984 0.0577392578
vn 0.625488281 0.199829102 0.754394531
vn -0.141845703 -0.272216797 0.951660156
vn 0.823730469 0.472900391 0.313232422
vn 0.746582031 0.665039062 -0.00939941406
vn 0.433105469 0.891113281 -0.135498047
vn -0.326171875 0.909179688 -0.2578125
vn 0.736328125 0.641601562 0.215087891
vn 0.549804688 0.372314453 0.747558594
vn -0.386230469 -0.101196289 0.916992188
vn 0.498291016 0.865722656 0.0430908203
vn -0.219482422 0.961425781 -0.164550781
vn 0.398925781 0.585449219 0.705566406
vn -0.719726562 0.424316406 0.549316406
vn -0.184814453 0.913574219 0.361816406
g BigLeaf_02_0
f 3/3/3 2/2/2 1/1/1
f 4/4/4 3/3/3 1/1/1
f 4/4/4 1/1/1 5/5/5
f 4/4/4 6/6/6 3/3/3
f 6/6/6 7/7/7 3/3/3
f 7/7/7 6/6/6 8/8/8
f 9/9/9 4/4/4 5/5/5
f 9/9/9 5/5/5 10/10/10
f 6/6/6 11/11/11 8/8/8
f 8/8/8 11/11/11 12/12/12
f 13/13/13 6/6/6 4/4/4
f 9/9/9 13/13/13 4/4/4
f 6/6/6 13/13/13 11/11/11
f 14/14/14 9/9/9 10/10/10
f 14/14/14 10/10/10 15/15/15
f 11/11/11 16/16/16 12/12/12
f 12/12/12 16/16/16 17/17/17
f 18/18/18 13/13/13 9/9/9
f 14/14/14 18/18/18 9/9/9
f 13/13/13 19/19/19 11/11/11
f 11/11/11 19/19/19 16/16/16
f 13/13/13 18/18/18 19/19/19
f 20/20/20 14/14/14 15/15/15
f 20/20/20 15/15/15 21/21/21
f 16/16/16 22/22/22 17/17/17
f 22/22/22 23/23/23 17/17/17
f 19/19/19 24/24/24 16/16/16
f 16/16/16 24/24/24 22/22/22
f 22/22/22 25/25/25 23/23/23
f 24/24/24 25/25/25 22/22/22
f 25/25/25 26/26/26 23/23/23
f 18/18/18 27/27/27 19/19/19
f 19/19/19 27/27/27 24/24/24
f 28/28/28 18/18/18 14/14/14
f 20/20/20 28/28/28 14/14/14
f 18/18/18 28/28/28 27/27/27
f 29/29/29 20/20/20 21/21/21
f 29/29/29 21/21/21 30/30/30
f 25/25/25 31/31/31 26/26/26
f 31/31/31 32/32/32 26/26/26
f 24/24/24 33/33/33 25/25/25
f 27/27/27 33/33/33 24/24/24
f 33/33/33 31/31/31 25/25/25
f 28/28/28 34/34/34 27/27/27
f 27/27/27 34/34/34 33/33/33
f 35/35/35 28/28/28 20/20/20
f 29/29/29 35/35/35 20/20/20
f 28/28/28 35/35/35 34/34/34
f 36/36/36 29/29/29 30/30/30
f 36/36/36 30/30/30 37/37/37
f 31/31/31 38/38/38 32/32/32
f 38/38/38 39/39/39 32/32/32
f 33/33/33 40/40/40 31/31/31
f 34/34/34 40/40/40 33/33/33
f 40/40/40 38/38/38 31/31/31
f 35/35/35 41/41/41 34/34/34
f 34/34/34 41/41/41 40/40/40
f 42/42/42 35/35/35 29/29/29
f 36/36/36 42/42/42 29/29/29
f 35/35/35 42/42/42 41/41/41
f 43/43/43 36/36/36 37/37/37
f 43/43/43 37/37/37 44/44/44
f 45/45/45 43/43/43 44/44/44
f 45/45/45 46/46/46 43/43/43
f 43/43/43 47/47/47 36/36/36
f 47/47/47 42/42/42 36/36/36
f 46/46/46 47/47/47 43/43/43
f 40/40/40 48/48/48 38/38/38
f 41/41/41 48/48/48 40/40/40
f 42/42/42 49/49/49 41/41/41
f 42/42/42 47/47/47 49/49/49
f 41/41/41 49/49/49 48/48/48
f 47/47/47 46/46/46 50/50/50
f 47/47/47 50/50/50 49/49/49
f 46/46/46 51/51/51 50/50/50
f 48/48/48 52/52/52 38/38/38
f 38/38/38 52/52/52 39/39/39
f 52/52/52 53/53/53 39/39/39
f 49/49/49 54/54/54 48/48/48
f 49/49/49 50/50/50 54/54/54
f 48/48/48 54/54/54 52/52/52
f 50/50/50 51/51/51 55/55/55
f 50/50/50 55/55/55 54/54/54
f 51/51/51 56/56/56 55/55/55
f 52/52/52 57/57/57 53/53/53
f 54/54/54 57/57/57 52/52/52
f 54/54/54 55/55/55 57/57/57
f 57/57/57 58/58/58 53/53/53
f 55/55/55 56/56/56 59/59/59
f 55/55/55 59/59/59 57/57/57
f 57/57/57 59/59/59 58/58/58
f 56/56/56 60/60/60 59/59/59
f 59/59/59 61/61/61 58/58/58
f 59/59/59 60/60/60 61/61/61
f 64/64/64 63/63/63 62/62/62
f 65/65/65 64/64/64 62/62/62
f 64/64/64 65/65/65 66/66/66
f 65/65/65 62/62/62 67/67/67
f 62/62/62 68/68/68 67/67/67
f 65/65/65 69/69/69 66/66/66
f 70/70/70 66/66/66 69/69/69
f 65/65/65 67/67/67 71/71/71
f 69/69/69 65/65/65 71/71/71
f 67/67/67 68/68/68 72/72/72
f 68/68/68 73/73/73 72/72/72
f 74/74/74 70/70/70 69/69/69
f 75/75/75 70/70/70 74/74/74
f 71/71/71 67/67/67 76/76/76
f 67/67/67 72/72/72 76/76/76
f 72/72/72 73/73/73 77/77/77
f 73/73/73 78/78/78 77/77/77
f 69/69/69 71/71/71 79/79/79
f 74/74/74 69/69/69 79/79/79
f 80/80/80 75/75/75 74/74/74
f 81/81/81 75/75/75 80/80/80
f 80/80/80 74/74/74 82/82/82
f 74/74/74 79/79/79 82/82/82
f 83/83/83 81/81/81 80/80/80
f 80/80/80 82/82/82 83/83/83
f 84/84/84 81/81/81 83/83/83
f 85/85/85 84/84/84 83/83/83
f 83/83/83 82/82/82 85/85/85
f 86/86/86 84/84/84 85/85/85
f 79/79/79 71/71/71 87/87/87
f 71/71/71 76/76/76 87/87/87
f 82/82/82 79/79/79 88/88/88
f 82/82/82 88/88/88 85/85/85
f 79/79/79 87/87/87 88/88/88
f 89/89/89 86/86/86 85/85/85
f 85/85/85 88/88/88 89/89/89
f 90/90/90 86/86/86 89/89/89
f 88/88/88 87/87/87 91/91/91
f 88/88/88 91/91/91 89/89/89
f 92/92/92 90/90/90 89/89/89
f 89/89/89 91/91/91 92/92/92
f 93/93/93 90/90/90 92/92/92
f 87/87/87 76/76/76 94/94/94
f 87/87/87 94/94/94 91/91/91
f 95/95/95 93/93/93 92/92/92
f 96/96/96 93/93/93 95/95/95
f 91/91/91 97/97/97 92/92/92
f 91/91/91 94/94/94 97/97/97
f 92/92/92 97/97/97 95/95/95
f 76/76/76 98/98/98 94/94/94
f 76/76/76 72/72/72 98/98/98
f 72/72/72 77/77/77 98/98/98
f 99/99/99 96/96/96 95/95/95
f 100/100/100 96/96/96 99/99/99
f 97/97/97 101/101/101 95/95/95
f 95/95/95 101/101/101 99/99/99
f 94/94/94 102/102/102 97/97/97
f 94/94/94 98/98/98 102/102/102
f 97/97/97 102/102/102 101/101/101
f 98/98/98 77/77/77 103/103/103
f 98/98/98 103/103/103 102/102/102
f 104/104/104 100/100/100 99/99/99
f 105/105/105 100/100/100 104/104/104
f 101/101/101 106/106/106 99/99/99
f 99/99/99 106/106/106 104/104/104
f 102/102/102 107/107/107 101/101/101
f 102/102/102 103/103/103 107/107/107
f 101/101/101 107/107/107 106/106/106
f 77/77/77 108/108/108 103/103/103
f 77/77/77 78/78/78 108/108/108
f 78/78/78 109/109/109 108/108/108
f 110/110/110 105/105/105 104/104/104
f 111/111/111 105/105/105 110/110/110
f 106/106/106 112/112/112 104/104/104
f 104/104/104 112/112/112 110/110/110
f 103/103/103 113/113/113 107/107/107
f 103/103/103 108/108/108 113/113/113
f 108/108/108 109/109/109 114/114/114
f 108/108/108 114/114/114 113/113/113
f 109/109/109 115/115/115 114/114/114
f 107/107/107 116/116/116 106/106/106
f 106/106/106 116/116/116 112/112/112
f 107/107/107 113/113/113 116/116/116
f 117/117/117 111/111/111 110/110/110
f 118/118/118 111/111/111 117/117/117
f 112/112/112 119/119/119 110/110/110
f 116/116/116 119/119/119 112/112/112
f 119/119/119 117/117/117 110/110/110
f 113/113/113 120/120/120 116/116/116
f 113/113/113 114/114/114 120/120/120
f 116/116/116 120/120/120 119/119/119
f 114/114/114 115/115/115 121/121/121
f 114/114/114 121/121/121 120/120/120
f 115/115/115 122/122/122 121/121/121
f 120/120/120 123/123/123 119/119/119
f 119/119/119 123/123/123 117/117/117
f 120/120/120 121/121/121 123/123/123
f 124/124/124 118/118/118 117/117/117
f 123/123/123 124/124/124 117/117/117
f 118/118/118 124/124/124 125/125/125
f 121/121/121 122/122/122 126/126/126
f 121/121/121 126/126/126 123/123/123
f 123/123/123 126/126/126 124/124/124
f 122/122/122 127/127/127 126/126/126
f 124/124/124 128/128/128 125/125/125
f 126/126/126 128/128/128 124/124/124
f 126/126/126 127/127/127 128/128/128
f 129/129/129 125/125/125 128/128/128
f 127/127/127 130/130/130 128/128/128
f 130/130/130 129/129/129 128/128/128
