g BigLeaf_01
v 0.105310492 -0.653910041 2.24629068
v -0.0816501379 -0.896723747 2.64214802
v -0.21061331 -0.886349976 2.64087629
v -0.322265416 -0.623083532 2.24758863
v 0.248943299 -0.285350621 1.66143918
v -0.428959489 -0.715557098 2.17277145
v -0.243339106 -0.970243216 2.56800938
v -0.265069902 -1.17781639 2.29391146
v -0.406700701 -0.243920356 1.672436
v 0.384162545 0.129445612 1.00623858
v -0.452234447 -1.0263108 1.88489151
v -0.286778808 -1.38928473 1.87526333
v -0.584247172 -0.384098083 1.57247126
v -0.459815741 0.190257072 1.00885522
v 0.436357915 0.548333883 0.354211271
v -0.471984506 -1.28291821 1.46959901
v -0.288852394 -1.51645195 1.40607369
v -0.702276051 0.0157737732 0.882607579
v -0.619147897 -0.836314201 1.21442902
v -0.483186096 0.622403502 0.34500584
v 0.418363094 0.933042228 -0.237084866
v -0.397301674 -1.44667828 1.03890157
v -0.294158995 -1.55060208 0.689356208
v -0.637593091 -1.05853605 0.881174684
v -0.474521041 -1.27781677 0.498091638
v -0.295029998 -1.45630312 0.156266853
v -0.741761386 -0.516140699 0.506946683
v -0.735845089 0.437805623 0.21134837
v -0.419128001 0.993446171 -0.234582081
v 0.353292465 1.31062615 -0.812016428
v -0.458268613 -1.02988434 -0.0462312959
v -0.278340816 -1.28470194 -0.335180074
v -0.616926968 -0.753687263 0.260993212
v -0.717134833 -0.147141978 -0.156626865
v -0.648777664 0.809185445 -0.363455683
v -0.303970844 1.35803545 -0.81005919
v 0.261167109 1.65557313 -1.33351803
v -0.438029021 -0.72761184 -0.568519235
v -0.260778248 -1.04460096 -0.782745421
v -0.593645334 -0.391923577 -0.330550522
v -0.688790977 0.268479556 -0.70373708
v -0.480670542 1.1987741 -0.915947139
v -0.166404605 1.68642545 -1.3322593
v 0.107930064 1.89586937 -1.68663085
v -0.0233923197 1.90395606 -1.68410552
v -0.0578553081 1.80322599 -1.73398268
v -0.274815977 1.56997275 -1.40267968
v -0.567364275 -0.00614267588 -0.846747398
v -0.519183993 0.677028537 -1.2114805
v -0.305970609 1.14617574 -1.59995508
v -0.091140151 1.4575485 -1.82118821
v -0.415230125 -0.392403513 -1.02962732
v -0.242112383 -0.746753812 -1.16795266
v -0.499076098 0.345851004 -1.30302501
v -0.337933958 0.706470013 -1.68369472
v -0.127607524 1.01113379 -1.87533808
v -0.390918106 -0.0396692269 -1.40632355
v -0.223232806 -0.402104914 -1.47707009
v -0.277727664 0.316698968 -1.69392633
v -0.149174869 0.580273032 -1.84764695
v -0.18972005 -0.00757205486 -1.70301461
v 0.107930064 1.89586937 -1.68663085
v -0.0233923197 1.90395606 -1.68410552
v -0.0578553081 1.80322599 -1.73398268
v 0.102618508 1.79517961 -1.73821783
v -0.091140151 1.4575485 -1.82118821
v 0.351561338 1.5279206 -1.40248871
v 0.261167109 1.65557313 -1.33351803
v 0.0860545039 1.45435607 -1.82505119
v -0.127607524 1.01113379 -1.87533808
v 0.321171552 1.11445904 -1.59311259
v 0.505209863 1.13483691 -0.914253831
v 0.353292465 1.31062615 -0.812016428
v 0.0577671528 1.00957704 -1.87953913
v -0.149174869 0.580273032 -1.84764695
v 0.49107188 0.630901575 -1.19725609
v 0.619431913 0.731331646 -0.358463824
v 0.418363094 0.933042228 -0.237084866
v 0.289285779 0.675784886 -1.6761837
v 0.0212251544 0.576608062 -1.85295188
v -0.18972005 -0.00757205486 -1.70301461
v 0.163123608 0.285066426 -1.69514
v -0.0233379602 -0.0281290412 -1.70372438
v -0.223232806 -0.402104914 -1.47707009
v -0.0479824767 -0.420435756 -1.4787364
v -0.242112383 -0.746753812 -1.16795266
v 0.37227729 0.288270414 -1.30223596
v 0.235229418 -0.0848260671 -1.40819597
v -0.076961264 -0.762750387 -1.17021918
v -0.260778248 -1.04460096 -0.782745421
v 0.210673511 -0.440849662 -1.03362989
v -0.0980353877 -1.06009424 -0.785742164
v -0.278340816 -1.28470194 -0.335180074
v 0.414140463 -0.129151985 -0.883373916
v -0.111944914 -1.30059052 -0.338840097
v -0.295029998 -1.45630312 0.156266853
v 0.187070906 -0.786937773 -0.579578996
v 0.578756213 0.181696281 -0.704538465
v -0.115611792 -1.4743557 0.15106532
v -0.294158995 -1.55060208 0.689356208
v 0.16666916 -1.09138322 -0.0586973168
v 0.387062609 -0.525719285 -0.374170035
v 0.552801847 -0.201896086 -0.132617056
v -0.125314057 -1.56704247 0.680289268
v -0.288852394 -1.51645195 1.40607369
v 0.149996966 -1.34496915 0.481959105
v 0.363565356 -0.876367033 0.225477278
v 0.654027522 0.346277833 0.233869702
v 0.436357915 0.548333883 0.354211271
v -0.121456385 -1.53198779 1.41117311
v -0.286778808 -1.38928473 1.87526333
v 0.0457048975 -1.48792732 1.03157866
v 0.528802812 -0.583918512 0.519515514
v 0.57841301 -0.0592578202 0.889949501
v 0.384162545 0.129445612 1.00623858
v 0.344899774 -1.16126585 0.855226219
v -0.10598617 -1.40497077 1.88098168
v -0.265069902 -1.17781639 2.29391146
v 0.153746009 -1.33374512 1.46405149
v 0.366403371 -0.879548192 1.21775091
v 0.400757462 -0.437243789 1.56190813
v 0.248943299 -0.285350621 1.66143918
v 0.173607513 -1.07560682 1.880337
v -0.0951766372 -1.19249177 2.29807043
v -0.243339106 -0.970243216 2.56800938
v 0.197090089 -0.762031794 2.16999984
v 0.105310492 -0.653910041 2.24629068
v -0.0861875415 -0.983854115 2.57083273
v -0.21061331 -0.886349976 2.64087629
v -0.0816501379 -0.896723747 2.64214802
vt 0.668457031 0.047668457
vt 0.642089844 0.0676269531
vt 0.645019531 0.0756225586
vt 0.676269531 0.07421875
vt 0.7109375 0.0290985107
vt 0.679199219 0.0839233398
vt 0.646484375 0.0830078125
vt 0.654296875 0.104675293
vt 0.719238281 0.0700073242
vt 0.759765625 0.013130188
vt 0.684570312 0.109802246
vt 0.670410156 0.131469727
vt 0.722167969 0.0850219727
vt 0.768066406 0.0654296875
vt 0.809570312 0.00499725342
vt 0.699707031 0.13671875
vt 0.692382812 0.155029297
vt 0.770996094 0.0848999023
vt 0.728027344 0.119812012
vt 0.815917969 0.0623474121
vt 0.855957031 0.00499725342
vt 0.716796875 0.160522461
vt 0.730957031 0.180053711
vt 0.739257812 0.141479492
vt 0.751953125 0.167602539
vt 0.764160156 0.192016602
vt 0.775390625 0.123718262
vt 0.817871094 0.0826416016
vt 0.857421875 0.0581054688
vt 0.901367188 0.01121521
vt 0.789550781 0.171630859
vt 0.798339844 0.197998047
vt 0.78125 0.145141602
vt 0.821289062 0.123474121
vt 0.857910156 0.0774536133
vt 0.899414062 0.053527832
vt 0.941894531 0.021697998
vt 0.828125 0.170410156
vt 0.83203125 0.197631836
vt 0.82421875 0.143066406
vt 0.861816406 0.115478516
vt 0.899414062 0.0697021484
vt 0.938964844 0.0495300293
vt 0.96875 0.0364379883
vt 0.967285156 0.0450439453
vt 0.966796875 0.0528259277
vt 0.938476562 0.0605163574
vt 0.86328125 0.135620117
vt 0.901855469 0.106506348
vt 0.938476562 0.0901489258
vt 0.963867188 0.0767822266
vt 0.864257812 0.164306641
vt 0.863769531 0.19152832
vt 0.8984375 0.127685547
vt 0.931152344 0.117614746
vt 0.955566406 0.106018066
vt 0.895507812 0.153442383
vt 0.892089844 0.1796875
vt 0.923339844 0.141357422
vt 0.942382812 0.131713867
vt 0.917480469 0.162475586
vt 0.0497436523 0.935058594
vt 0.0580444336 0.957519531
vt 0.0795288086 0.954589844
vt 0.0684814453 0.928222656
vt 0.138916016 0.929199219
vt 0.0617370605 0.844726562
vt 0.0347595215 0.856445312
vt 0.12310791 0.902832031
vt 0.207397461 0.888183594
vt 0.133666992 0.825195312
vt 0.0580749512 0.737304688
vt 0.0152587891 0.748046875
vt 0.187133789 0.863769531
vt 0.263916016 0.838378906
vt 0.151611328 0.723632812
vt 0.0582580566 0.620605469
vt 0.00498962402 0.625976562
vt 0.196289062 0.791992188
vt 0.242553711 0.818847656
vt 0.328613281 0.759277344
vt 0.252441406 0.762207031
vt 0.306640625 0.743164062
vt 0.3671875 0.691894531
vt 0.340087891 0.679199219
vt 0.392089844 0.615234375
vt 0.209350586 0.708496094
vt 0.271240234 0.691894531
vt 0.364257812 0.607910156
vt 0.405029297 0.529785156
vt 0.290771484 0.612792969
vt 0.375976562 0.527832031
vt 0.402832031 0.439697266
vt 0.226928711 0.616699219
vt 0.374023438 0.442871094
vt 0.387451172 0.350097656
vt 0.302734375 0.521484375
vt 0.164428711 0.618164062
vt 0.357910156 0.358398438
vt 0.355224609 0.262939453
vt 0.303222656 0.423339844
vt 0.240600586 0.514648438
vt 0.170654297 0.5078125
vt 0.330078125 0.275878906
vt 0.295410156 0.16015625
vt 0.293457031 0.328857422
vt 0.240966797 0.403076172
vt 0.0612487793 0.501953125
vt 0.00498962402 0.500488281
vt 0.272705078 0.175415039
vt 0.243164062 0.0959472656
vt 0.277832031 0.241088867
vt 0.171508789 0.386230469
vt 0.0671386719 0.372558594
vt 0.0173950195 0.36328125
vt 0.23046875 0.296142578
vt 0.220947266 0.116882324
vt 0.180541992 0.0436096191
vt 0.221679688 0.195068359
vt 0.166625977 0.263427734
vt 0.0775146484 0.240966797
vt 0.0391235352 0.227172852
vt 0.159423828 0.149902344
vt 0.162719727 0.0670776367
vt 0.128051758 0.0114898682
vt 0.0951538086 0.123474121
vt 0.0712890625 0.110046387
vt 0.114074707 0.0356140137
vt 0.10748291 0.00588226318
vt 0.0965576172 0.0268096924
vn 0.54296875 0.581054688 0.606445312
vn 0.385009766 0.177246094 0.905761719
vn -0.345214844 0.227050781 0.910644531
vn -0.428222656 0.689453125 0.583984375
vn 0.457275391 0.698242188 0.55078125
vn -0.911621094 0.125366211 0.391357422
vn -0.602050781 -0.412109375 0.684082031
vn -0.56640625 -0.668457031 0.481933594
vn -0.354003906 0.759277344 0.545898438
vn 0.448974609 0.720703125 0.528320312
vn -0.936035156 -0.252197266 0.246337891
vn -0.521972656 -0.782714844 0.339111328
vn -0.904785156 0.257324219 0.33984375
vn -0.335693359 0.778808594 0.530273438
vn 0.445068359 0.747558594 0.492919922
vn -0.879394531 -0.447998047 0.16027832
vn -0.44140625 -0.883789062 0.154052734
vn -0.909179688 0.310546875 0.277099609
vn -0.979492188 -0.139282227 0.146362305
vn -0.345703125 0.795898438 0.496826172
vn 0.456054688 0.763183594 0.457519531
vn -0.761230469 -0.6484375 0.0223388672
vn -0.469726562 -0.879882812 -0.0709228516
vn -0.939941406 -0.341308594 -0.00915527344
vn -0.871582031 -0.473632812 -0.128051758
vn -0.534179688 -0.810546875 -0.240112305
vn -0.991699219 -0.129760742 -0.0124816895
vn -0.915527344 0.356689453 0.186523438
vn -0.354492188 0.815917969 0.456542969
vn 0.481445312 0.766601562 0.425048828
vn -0.909667969 -0.358154297 -0.209472656
vn -0.557128906 -0.748046875 -0.361083984
vn -0.942382812 -0.290527344 -0.166503906
vn -0.981445312 -0.137084961 -0.135620117
vn -0.907226562 0.410400391 0.0908813477
vn -0.374267578 0.824707031 0.424316406
vn 0.56640625 0.770996094 0.290771484
vn -0.919433594 -0.308837891 -0.243041992
vn -0.561035156 -0.683105469 -0.468017578
vn -0.931640625 -0.281982422 -0.229003906
vn -0.978027344 -0.0350646973 -0.204467773
vn -0.895996094 0.444091797 0.00238037109
vn -0.434570312 0.833984375 0.33984375
vn 0.423583984 0.884277344 -0.195800781
vn -0.297851562 0.934570312 -0.1953125
vn -0.530273438 0.480712891 -0.698242188
vn -0.885742188 0.441650391 -0.143066406
vn -0.9375 -0.215209961 -0.2734375
vn -0.954589844 0.102111816 -0.279052734
vn -0.885742188 0.177612305 -0.428466797
vn -0.48828125 0.2265625 -0.842773438
vn -0.913085938 -0.278564453 -0.297851562
vn -0.546386719 -0.604980469 -0.579101562
vn -0.924316406 -0.0930175781 -0.369628906
vn -0.829101562 0.0185546875 -0.559082031
vn -0.432373047 0.0747070312 -0.8984375
vn -0.875976562 -0.220825195 -0.428710938
vn -0.512207031 -0.493164062 -0.703125
vn -0.755371094 -0.137329102 -0.640625
vn -0.362792969 -0.114807129 -0.924804688
vn -0.434570312 -0.322265625 -0.841308594
vn 0.423583984 0.884277344 -0.195800781
vn -0.297851562 0.934570312 -0.1953125
vn -0.530273438 0.480712891 -0.698242188
vn 0.494384766 0.396484375 -0.7734375
vn -0.48828125 0.2265625 -0.842773438
vn 0.921875 0.329589844 -0.204345703
vn 0.56640625 0.770996094 0.290771484
vn 0.432861328 0.173706055 -0.884765625
vn -0.432373047 0.0747070312 -0.8984375
vn 0.866699219 0.065246582 -0.494140625
vn 0.944824219 0.327636719 0.00790405273
vn 0.481445312 0.766601562 0.425048828
vn 0.356201172 0.0255432129 -0.934082031
vn -0.362792969 -0.114807129 -0.924804688
vn 0.954101562 -0.0433959961 -0.295654297
vn 0.952148438 0.289306641 0.100036621
vn 0.456054688 0.763183594 0.457519531
vn 0.786621094 -0.0988769531 -0.609375
vn 0.270263672 -0.15222168 -0.950683594
vn -0.434570312 -0.322265625 -0.841308594
vn 0.675292969 -0.250244141 -0.693847656
vn 0.296142578 -0.397216797 -0.868652344
vn -0.512207031 -0.493164062 -0.703125
vn 0.349121094 -0.58203125 -0.734375
vn -0.546386719 -0.604980469 -0.579101562
vn 0.893554688 -0.219604492 -0.391601562
vn 0.795410156 -0.365478516 -0.483398438
vn 0.368164062 -0.701660156 -0.610351562
vn -0.561035156 -0.683105469 -0.468017578
vn 0.814941406 -0.451660156 -0.363769531
vn 0.368896484 -0.78515625 -0.497070312
vn -0.557128906 -0.748046875 -0.361083984
vn 0.896484375 -0.332763672 -0.291748047
vn 0.348388672 -0.853515625 -0.386962891
vn -0.534179688 -0.810546875 -0.240112305
vn 0.810058594 -0.50390625 -0.299560547
vn 0.965820312 -0.163818359 -0.201782227
vn 0.306396484 -0.915527344 -0.261230469
vn -0.469726562 -0.879882812 -0.0709228516
vn 0.790527344 -0.558105469 -0.252685547
vn 0.888671875 -0.399414062 -0.225585938
vn 0.965820312 -0.232910156 -0.113037109
vn 0.225341797 -0.970703125 -0.0841064453
vn -0.44140625 -0.883789062 0.154052734
vn 0.726074219 -0.669921875 -0.154541016
vn 0.896484375 -0.412841797 -0.161865234
vn 0.954589844 0.235229492 0.181640625
vn 0.445068359 0.747558594 0.492919922
vn 0.219360352 -0.961425781 0.167236328
vn -0.521972656 -0.782714844 0.339111328
vn 0.566894531 -0.823730469 0.0257873535
vn 0.969238281 -0.246704102 -0.00680541992
vn 0.945800781 0.177490234 0.271484375
vn 0.448974609 0.720703125 0.528320312
vn 0.877929688 -0.479003906 -0.00241088867
vn 0.319824219 -0.877441406 0.357177734
vn -0.56640625 -0.668457031 0.481933594
vn 0.766601562 -0.614746094 0.184936523
vn 0.951660156 -0.270751953 0.143554688
vn 0.931640625 0.120178223 0.342773438
vn 0.457275391 0.698242188 0.55078125
vn 0.859375 -0.430175781 0.275878906
vn 0.391601562 -0.768066406 0.506835938
vn -0.602050781 -0.412109375 0.684082031
vn 0.907226562 -0.0595703125 0.416748047
vn 0.54296875 0.581054688 0.606445312
vn 0.450195312 -0.559082031 0.696289062
vn -0.345214844 0.227050781 0.910644531
vn 0.385009766 0.177246094 0.905761719
g BigLeaf_01_0
f 3/3/3 2/2/2 1/1/1
f 4/4/4 3/3/3 1/1/1
f 4/4/4 1/1/1 5/5/5
f 4/4/4 6/6/6 3/3/3
f 6/6/6 7/7/7 3/3/3
f 7/7/7 6/6/6 8/8/8
f 9/9/9 4/4/4 5/5/5
f 9/9/9 5/5/5 10/10/10
f 6/6/6 11/11/11 8/8/8
f 8/8/8 11/11/11 12/12/12
f 13/13/13 6/6/6 4/4/4
f 9/9/9 13/13/13 4/4/4
f 6/6/6 13/13/13 11/11/11
f 14/14/14 9/9/9 10/10/10
f 14/14/14 10/10/10 15/15/15
f 11/11/11 16/16/16 12/12/12
f 12/12/12 16/16/16 17/17/17
f 18/18/18 13/13/13 9/9/9
f 14/14/14 18/18/18 9/9/9
f 13/13/13 19/19/19 11/11/11
f 11/11/11 19/19/19 16/16/16
f 13/13/13 18/18/18 19/19/19
f 20/20/20 14/14/14 15/15/15
f 20/20/20 15/15/15 21/21/21
f 16/16/16 22/22/22 17/17/17
f 22/22/22 23/23/23 17/17/17
f 19/19/19 24/24/24 16/16/16
f 16/16/16 24/24/24 22/22/22
f 22/22/22 25/25/25 23/23/23
f 24/24/24 25/25/25 22/22/22
f 25/25/25 26/26/26 23/23/23
f 18/18/18 27/27/27 19/19/19
f 19/19/19 27/27/27 24/24/24
f 28/28/28 18/18/18 14/14/14
f 20/20/20 28/28/28 14/14/14
f 18/18/18 28/28/28 27/27/27
f 29/29/29 20/20/20 21/21/21
f 29/29/29 21/21/21 30/30/30
f 25/25/25 31/31/31 26/26/26
f 31/31/31 32/32/32 26/26/26
f 24/24/24 33/33/33 25/25/25
f 27/27/27 33/33/33 24/24/24
f 33/33/33 31/31/31 25/25/25
f 28/28/28 34/34/34 27/27/27
f 27/27/27 34/34/34 33/33/33
f 35/35/35 28/28/28 20/20/20
f 29/29/29 35/35/35 20/20/20
f 28/28/28 35/35/35 34/34/34
f 36/36/36 29/29/29 30/30/30
f 36/36/36 30/30/30 37/37/37
f 31/31/31 38/38/38 32/32/32
f 38/38/38 39/39/39 32/32/32
f 33/33/33 40/40/40 31/31/31
f 34/34/34 40/40/40 33/33/33
f 40/40/40 38/38/38 31/31/31
f 35/35/35 41/41/41 34/34/34
f 34/34/34 41/41/41 40/40/40
f 42/42/42 35/35/35 29/29/29
f 36/36/36 42/42/42 29/29/29
f 35/35/35 42/42/42 41/41/41
f 43/43/43 36/36/36 37/37/37
f 43/43/43 37/37/37 44/44/44
f 45/45/45 43/43/43 44/44/44
f 45/45/45 46/46/46 43/43/43
f 43/43/43 47/47/47 36/36/36
f 47/47/47 42/42/42 36/36/36
f 46/46/46 47/47/47 43/43/43
f 40/40/40 48/48/48 38/38/38
f 41/41/41 48/48/48 40/40/40
f 42/42/42 49/49/49 41/41/41
f 42/42/42 47/47/47 49/49/49
f 41/41/41 49/49/49 48/48/48
f 47/47/47 46/46/46 50/50/50
f 47/47/47 50/50/50 49/49/49
f 46/46/46 51/51/51 50/50/50
f 48/48/48 52/52/52 38/38/38
f 38/38/38 52/52/52 39/39/39
f 52/52/52 53/53/53 39/39/39
f 49/49/49 54/54/54 48/48/48
f 49/49/49 50/50/50 54/54/54
f 48/48/48 54/54/54 52/52/52
f 50/50/50 51/51/51 55/55/55
f 50/50/50 55/55/55 54/54/54
f 51/51/51 56/56/56 55/55/55
f 52/52/52 57/57/57 53/53/53
f 54/54/54 57/57/57 52/52/52
f 54/54/54 55/55/55 57/57/57
f 57/57/57 58/58/58 53/53/53
f 55/55/55 56/56/56 59/59/59
f 55/55/55 59/59/59 57/57/57
f 57/57/57 59/59/59 58/58/58
f 56/56/56 60/60/60 59/59/59
f 59/59/59 61/61/61 58/58/58
f 59/59/59 60/60/60 61/61/61
f 64/64/64 63/63/63 62/62/62
f 65/65/65 64/64/64 62/62/62
f 64/64/64 65/65/65 66/66/66
f 65/65/65 62/62/62 67/67/67
f 62/62/62 68/68/68 67/67/67
f 65/65/65 69/69/69 66/66/66
f 70/70/70 66/66/66 69/69/69
f 65/65/65 67/67/67 71/71/71
f 69/69/69 65/65/65 71/71/71
f 67/67/67 68/68/68 72/72/72
f 68/68/68 73/73/73 72/72/72
f 74/74/74 70/70/70 69/69/69
f 75/75/75 70/70/70 74/74/74
f 71/71/71 67/67/67 76/76/76
f 67/67/67 72/72/72 76/76/76
f 72/72/72 73/73/73 77/77/77
f 73/73/73 78/78/78 77/77/77
f 69/69/69 71/71/71 79/79/79
f 74/74/74 69/69/69 79/79/79
f 80/80/80 75/75/75 74/74/74
f 81/81/81 75/75/75 80/80/80
f 80/80/80 74/74/74 82/82/82
f 74/74/74 79/79/79 82/82/82
f 83/83/83 81/81/81 80/80/80
f 80/80/80 82/82/82 83/83/83
f 84/84/84 81/81/81 83/83/83
f 85/85/85 84/84/84 83/83/83
f 83/83/83 82/82/82 85/85/85
f 86/86/86 84/84/84 85/85/85
f 79/79/79 71/71/71 87/87/87
f 71/71/71 76/76/76 87/87/87
f 82/82/82 79/79/79 88/88/88
f 82/82/82 88/88/88 85/85/85
f 79/79/79 87/87/87 88/88/88
f 89/89/89 86/86/86 85/85/85
f 85/85/85 88/88/88 89/89/89
f 90/90/90 86/86/86 89/89/89
f 88/88/88 87/87/87 91/91/91
f 88/88/88 91/91/91 89/89/89
f 92/92/92 90/90/90 89/89/89
f 89/89/89 91/91/91 92/92/92
f 93/93/93 90/90/90 92/92/92
f 87/87/87 76/76/76 94/94/94
f 87/87/87 94/94/94 91/91/91
f 95/95/95 93/93/93 92/92/92
f 96/96/96 93/93/93 95/95/95
f 91/91/91 97/97/97 92/92/92
f 91/91/91 94/94/94 97/97/97
f 92/92/92 97/97/97 95/95/95
f 76/76/76 98/98/98 94/94/94
f 76/76/76 72/72/72 98/98/98
f 72/72/72 77/77/77 98/98/98
f 99/99/99 96/96/96 95/95/95
f 100/100/100 96/96/96 99/99/99
f 97/97/97 101/101/101 95/95/95
f 95/95/95 101/101/101 99/99/99
f 94/94/94 102/102/102 97/97/97
f 94/94/94 98/98/98 102/102/102
f 97/97/97 102/102/102 101/101/101
f 98/98/98 77/77/77 103/103/103
f 98/98/98 103/103/103 102/102/102
f 104/104/104 100/100/100 99/99/99
f 105/105/105 100/100/100 104/104/104
f 101/101/101 106/106/106 99/99/99
f 99/99/99 106/106/106 104/104/104
f 102/102/102 107/107/107 101/101/101
f 102/102/102 103/103/103 107/107/107
f 101/101/101 107/107/107 106/106/106
f 77/77/77 108/108/108 103/103/103
f 77/77/77 78/78/78 108/108/108
f 78/78/78 109/109/109 108/108/108
f 110/110/110 105/105/105 104/104/104
f 111/111/111 105/105/105 110/110/110
f 106/106/106 112/112/112 104/104/104
f 104/104/104 112/112/112 110/110/110
f 103/103/103 113/113/113 107/107/107
f 103/103/103 108/108/108 113/113/113
f 108/108/108 109/109/109 114/114/114
f 108/108/108 114/114/114 113/113/113
f 109/109/109 115/115/115 114/114/114
f 107/107/107 116/116/116 106/106/106
f 106/106/106 116/116/116 112/112/112
f 107/107/107 113/113/113 116/116/116
f 117/117/117 111/111/111 110/110/110
f 118/118/118 111/111/111 117/117/117
f 112/112/112 119/119/119 110/110/110
f 116/116/116 119/119/119 112/112/112
f 119/119/119 117/117/117 110/110/110
f 113/113/113 120/120/120 116/116/116
f 113/113/113 114/114/114 120/120/120
f 116/116/116 120/120/120 119/119/119
f 114/114/114 115/115/115 121/121/121
f 114/114/114 121/121/121 120/120/120
f 115/115/115 122/122/122 121/121/121
f 120/120/120 123/123/123 119/119/119
f 119/119/119 123/123/123 117/117/117
f 120/120/120 121/121/121 123/123/123
f 124/124/124 118/118/118 117/117/117
f 123/123/123 124/124/124 117/117/117
f 118/118/118 124/124/124 125/125/125
f 121/121/121 122/122/122 126/126/126
f 121/121/121 126/126/126 123/123/123
f 123/123/123 126/126/126 124/124/124
f 122/122/122 127/127/127 126/126/126
f 124/124/124 128/128/128 125/125/125
f 126/126/126 128/128/128 124/124/124
f 126/126/126 127/127/127 128/128/128
f 129/129/129 125/125/125 128/128/128
f 127/127/127 130/130/130 128/128/128
f 130/130/130 129/129/129 128/128/128
