g Chair_Back_01
v 0.0327312201 -0.379631162 0.144301727
v -0.00679175556 -0.359892845 0.153967291
v -0.018728897 -0.264630347 0.179699451
v 0.0358833335 -0.265631795 0.183155224
v 0.0738875419 -0.361031324 0.144625545
v -0.0296599641 -0.127829403 0.194684163
v 0.0370743535 -0.126622498 0.20026283
v 0.0902222022 -0.266145349 0.167223051
v 0.0965996608 -0.384819359 0.110359132
v 0.10369388 -0.129647017 0.179641202
v 0.136326581 -0.273704737 0.130309507
v 0.131125271 -0.371185929 0.0801153705
v 0.169301778 -0.279903948 0.0797744468
v 0.122069746 -0.39597553 0.0405482128
v 0.178279281 -0.291211456 0.0207037069
v 0.162197322 -0.136605695 0.134886712
v 0.202764332 -0.146582842 0.0719489232
v 0.216348946 -0.158372506 -0.00144770555
v 0.184771329 0.0694719851 0.125963479
v 0.115337729 0.0776388049 0.178509578
v 0.0370743535 -0.126622498 0.20026283
v 0.233688727 0.0577532463 0.0520035438
v 0.250830621 0.0438925102 -0.0343198106
v 0.216348946 -0.158372506 -0.00144770555
v 0.252091795 0.224880502 -0.0635562167
v 0.23473531 0.238862991 0.0235269517
v 0.185321212 0.250683904 0.0981346592
v 0.115241714 0.258921832 0.151139036
v 0.037343014 0.0811829567 0.202672318
v 0.0365789682 0.262497008 0.175512746
v -0.040282812 0.0797915235 0.196260214
v -0.0416855291 0.261096805 0.169064865
v -0.0703833774 -0.368431121 0.102899484
v -0.0696092024 -0.39333716 0.0623319373
v -0.124065071 -0.287088096 0.0548278764
v -0.104708858 -0.27620998 0.11043378
v -0.0334845781 -0.383011997 0.125246286
v -0.161111981 -0.153227389 0.0411382839
v -0.0667312294 -0.270942599 0.153182447
v -0.00679175556 -0.359892845 0.153967291
v -0.018728897 -0.264630347 0.179699451
v -0.135039583 -0.14204967 0.109616868
v -0.194904491 0.0501141436 0.0168724991
v -0.0891816691 -0.133228034 0.162943259
v -0.0296599641 -0.127829403 0.194684163
v -0.163437873 0.0632465184 0.0973021686
v -0.197676077 0.231174842 -0.0117989071
v -0.16588898 0.244422734 0.0693373531
v -0.111557223 0.254792362 0.132008418
v -0.10957922 0.073533237 0.159473732
v -0.0891816691 -0.133228034 0.162943259
v -0.0416855291 0.261096805 0.169064865
v -0.040282812 0.0797915235 0.196260214
v -0.0703833774 -0.368431121 0.102899484
v 0.0248090625 -0.440663517 0.0564020239
v -0.0696092024 -0.39333716 0.0623319373
v -0.0334845781 -0.383011997 0.125246286
v -0.00679175556 -0.359892845 0.153967291
v 0.0327312201 -0.379631162 0.144301727
v 0.0738875419 -0.361031324 0.144625545
v 0.0965996608 -0.384819359 0.110359132
v 0.131125271 -0.371185929 0.0801153705
v 0.122069746 -0.39597553 0.0405482128
v -0.0842710212 -0.382225156 0.0178719684
v -0.0696092024 -0.39333716 0.0623319373
v 0.0248090625 -0.440663517 0.0564020239
v -0.0532833859 -0.404969275 -0.0101665556
v -0.033435896 -0.393410027 -0.0528389812
v 0.0125055909 -0.410816342 -0.0482457243
v 0.0570340529 -0.394689679 -0.063334845
v 0.0878657252 -0.406959593 -0.0265026763
v 0.127022624 -0.385168344 -0.0063585341
v 0.122069746 -0.39597553 0.0405482128
v 0.250830621 0.0438925102 -0.0343198106
v 0.198820278 -0.170226991 -0.0743625164
v 0.216348946 -0.158372506 -0.00144770555
v 0.230745614 0.0298988223 -0.120410353
v 0.252091795 0.224880502 -0.0635562167
v 0.231858552 0.210760891 -0.150422096
v 0.173060894 0.198687375 -0.223522067
v 0.17249006 0.0179374889 -0.192830831
v 0.0873442516 0.0102006048 -0.238325521
v 0.0870935917 0.190876901 -0.269449621
v -0.0106293103 0.189132884 -0.277473062
v 0.0784292892 -0.18676427 -0.173356339
v -0.00944023766 0.00847048219 -0.24628976
v 0.149728179 -0.180283844 -0.135249346
v -0.0989508778 0.0128632206 -0.216541797
v -0.100987099 0.193571121 -0.247418925
v -0.166459501 0.203521594 -0.183936417
v 0.124671258 -0.30867216 -0.0859051123
v 0.0685191378 -0.312199175 -0.117361553
v 0.164942846 -0.299015462 -0.0384556055
v 0.216348946 -0.158372506 -0.00144770555
v 0.178279281 -0.291211456 0.0207037069
v 0.127022624 -0.385168344 -0.0063585341
v 0.122069746 -0.39597553 0.0405482128
v 0.0878657252 -0.406959593 -0.0265026763
v 0.0570340529 -0.394689679 -0.063334845
v 0.0125055909 -0.410816342 -0.0482457243
v 0.00406976044 -0.314916909 -0.121151887
v -0.033435896 -0.393410027 -0.0528389812
v -0.00254276022 -0.188238651 -0.180186227
v -0.0563601069 -0.310449392 -0.102976888
v -0.0532833859 -0.404969275 -0.0101665556
v -0.0777531117 -0.184592202 -0.155466631
v -0.1000994 -0.30552882 -0.0600518398
v -0.0842710212 -0.382225156 0.0178719684
v -0.163853303 0.0227174852 -0.153671071
v -0.124972656 -0.29499653 -0.00532973511
v -0.0696092024 -0.39333716 0.0623319373
v -0.124065071 -0.287088096 0.0548278764
v -0.13297531 -0.176343471 -0.10281346
v -0.161718085 -0.165229693 -0.0331713781
v -0.161111981 -0.153227389 0.0411382839
v -0.194904491 0.0501141436 0.0168724991
v -0.19678688 0.0359275863 -0.0709272549
v -0.199636936 0.216857225 -0.10040845
v -0.197676077 0.231174842 -0.0117989071
v -0.0261742081 0.3376683 0.0994913355
v -0.0408417583 0.385689855 0.00703338487
v -0.0125493407 0.381339908 0.0428424031
v -0.0787973702 0.333688378 0.0700742081
v -0.0416855291 0.261096805 0.169064865
v -0.0804581791 0.372246325 -0.0115415519
v -0.111557223 0.254792362 0.132008418
v -0.120711036 0.324995756 0.0237000324
v -0.0795618668 0.374689311 -0.0599897318
v -0.16588898 0.244422734 0.0693373531
v -0.142567962 0.315907598 -0.0382245705
v -0.197676077 0.231174842 -0.0117989071
v -0.142567962 0.315907598 -0.0382245705
v -0.0959540829 0.357433766 -0.102831304
v -0.0795618668 0.374689311 -0.0599897318
v -0.144282043 0.304187775 -0.1044873
v -0.197676077 0.231174842 -0.0117989071
v -0.0626262054 0.362225711 -0.137654871
v -0.199636936 0.216857225 -0.10040845
v -0.117311157 0.295408785 -0.16588603
v -0.0417700484 0.345365375 -0.179108173
v -0.166459501 0.203521594 -0.183936417
v -0.0690422952 0.286952108 -0.213363603
v 0.00781826675 0.355930865 -0.178639382
v -0.100987099 0.193571121 -0.247418925
v -0.00163058192 0.284889191 -0.23432073
v 0.0560140349 0.343959063 -0.190595731
v -0.0106293103 0.189132884 -0.277473062
v 0.0705295056 0.284942031 -0.22977744
v 0.0889196545 0.36007297 -0.15529269
v 0.0870935917 0.190876901 -0.269449621
v 0.13331905 0.291841388 -0.195100367
v 0.131594345 0.354241699 -0.129063383
v 0.173060894 0.198687375 -0.223522067
v 0.178175047 0.29965201 -0.14173919
v 0.125415251 0.371841162 -0.0834503919
v 0.231858552 0.210760891 -0.150422096
v 0.192540333 0.311238796 -0.0766575113
v 0.252091795 0.224880502 -0.0635562167
v 0.192540333 0.311238796 -0.0766575113
v 0.1354523 0.369244903 -0.0362613089
v 0.125415251 0.371841162 -0.0834503919
v 0.18196395 0.320795327 -0.010909236
v 0.252091795 0.224880502 -0.0635562167
v 0.0976679772 0.383742005 -0.00896343589
v 0.23473531 0.238862991 0.0235269517
v 0.144776285 0.330566317 0.0443894751
v 0.0735353902 0.380114555 0.032809414
v 0.185321212 0.250683904 0.0981346592
v 0.0934776291 0.335976809 0.0856179893
v 0.0294480696 0.389269263 0.0272019506
v 0.115241714 0.258921832 0.151139036
v 0.0336449966 0.339469433 0.102680124
v -0.0125493407 0.381339908 0.0428424031
v 0.0365789682 0.262497008 0.175512746
v -0.0261742081 0.3376683 0.0994913355
v -0.0416855291 0.261096805 0.169064865
v -0.0804581791 0.372246325 -0.0115415519
v -0.0795618668 0.374689311 -0.0599897318
v 0.0208994076 0.398271203 -0.0788197964
v -0.0408417583 0.385689855 0.00703338487
v -0.0125493407 0.381339908 0.0428424031
v 0.0294480696 0.389269263 0.0272019506
v 0.0735353902 0.380114555 0.032809414
v 0.0976679772 0.383742005 -0.00896343589
v 0.1354523 0.369244903 -0.0362613089
v 0.125415251 0.371841162 -0.0834503919
v 0.131594345 0.354241699 -0.129063383
v 0.125415251 0.371841162 -0.0834503919
v 0.0208994076 0.398271203 -0.0788197964
v 0.0889196545 0.36007297 -0.15529269
v 0.0560140349 0.343959063 -0.190595731
v 0.00781826675 0.355930865 -0.178639382
v -0.0417700484 0.345365375 -0.179108173
v -0.0626262054 0.362225711 -0.137654871
v -0.0959540829 0.357433766 -0.102831304
v -0.0626262054 0.362225711 -0.137654871
v -0.0795618668 0.374689311 -0.0599897318
vt 0.150390625 0.701171875
vt 0.150390625 0.728515625
vt 0.186645508 0.728515625
vt 0.186645508 0.701171875
vt 0.150390625 0.674316406
vt 0.218139648 0.728515625
vt 0.218139648 0.701171875
vt 0.186645508 0.674316406
vt 0.150390625 0.646972656
vt 0.218139648 0.674316406
vt 0.186645508 0.646972656
vt 0.150390625 0.619628906
vt 0.186645508 0.619628906
vt 0.150390625 0.592285156
vt 0.186645508 0.592285156
vt 0.218139648 0.646972656
vt 0.218139648 0.619628906
vt 0.218139648 0.592285156
vt 0.260986328 0.646972656
vt 0.260986328 0.674316406
vt 0.218139648 0.701171875
vt 0.260986328 0.619628906
vt 0.260986328 0.592285156
vt 0.218139648 0.592285156
vt 0.297607422 0.592285156
vt 0.297607422 0.619628906
vt 0.297607422 0.646972656
vt 0.297607422 0.674316406
vt 0.260986328 0.701171875
vt 0.297607422 0.701171875
vt 0.260986328 0.728515625
vt 0.297607422 0.728515625
vt 0.150390625 0.347167969
vt 0.150390625 0.374511719
vt 0.186645508 0.374511719
vt 0.186645508 0.347167969
vt 0.150390625 0.319824219
vt 0.218139648 0.374511719
vt 0.186645508 0.319824219
vt 0.150390625 0.292724609
vt 0.186645508 0.292724609
vt 0.218139648 0.347167969
vt 0.260986328 0.374511719
vt 0.218139648 0.319824219
vt 0.218139648 0.292724609
vt 0.260986328 0.347167969
vt 0.297607422 0.374511719
vt 0.297607422 0.347167969
vt 0.297607422 0.319824219
vt 0.260986328 0.319824219
vt 0.218139648 0.319824219
vt 0.297607422 0.292724609
vt 0.260986328 0.292724609
vt 0.743164062 0.377685547
vt 0.668945312 0.451660156
vt 0.706054688 0.362304688
vt 0.758300781 0.414550781
vt 0.773925781 0.451660156
vt 0.758300781 0.488769531
vt 0.743164062 0.525878906
vt 0.706054688 0.541015625
vt 0.668945312 0.556152344
vt 0.632324219 0.541015625
vt 0.668945312 0.346923828
vt 0.706054688 0.362304688
vt 0.668945312 0.451660156
vt 0.632324219 0.362304688
vt 0.595214844 0.377685547
vt 0.580078125 0.414550781
vt 0.564453125 0.451660156
vt 0.580078125 0.488769531
vt 0.595214844 0.525878906
vt 0.632324219 0.541015625
vt 0.260986328 0.592285156
vt 0.218139648 0.564941406
vt 0.218139648 0.592285156
vt 0.260986328 0.564941406
vt 0.297607422 0.592285156
vt 0.297607422 0.564941406
vt 0.297607422 0.538085938
vt 0.260986328 0.538085938
vt 0.260986328 0.510742188
vt 0.297607422 0.510742188
vt 0.297607422 0.483398438
vt 0.218139648 0.510742188
vt 0.260986328 0.483398438
vt 0.218139648 0.538085938
vt 0.260986328 0.456054688
vt 0.297607422 0.456054688
vt 0.297607422 0.428955078
vt 0.186645508 0.538085938
vt 0.186645508 0.510742188
vt 0.186645508 0.564941406
vt 0.218139648 0.592285156
vt 0.186645508 0.592285156
vt 0.150390625 0.564941406
vt 0.150390625 0.592285156
vt 0.150390625 0.538085938
vt 0.150390625 0.510742188
vt 0.150390625 0.483398438
vt 0.186645508 0.483398438
vt 0.150390625 0.456054688
vt 0.218139648 0.483398438
vt 0.186645508 0.456054688
vt 0.150390625 0.428955078
vt 0.218139648 0.456054688
vt 0.186645508 0.428955078
vt 0.150390625 0.401611328
vt 0.260986328 0.428955078
vt 0.186645508 0.401611328
vt 0.150390625 0.374511719
vt 0.186645508 0.374511719
vt 0.218139648 0.428955078
vt 0.218139648 0.401611328
vt 0.218139648 0.374511719
vt 0.260986328 0.374511719
vt 0.260986328 0.401611328
vt 0.297607422 0.401611328
vt 0.297607422 0.374511719
vt 0.333007812 0.292724609
vt 0.368408203 0.319824219
vt 0.368408203 0.292724609
vt 0.333007812 0.319824219
vt 0.297607422 0.292724609
vt 0.368408203 0.347167969
vt 0.297607422 0.319824219
vt 0.333007812 0.347167969
vt 0.368408203 0.374511719
vt 0.297607422 0.347167969
vt 0.333007812 0.374511719
vt 0.297607422 0.374511719
vt 0.333007812 0.374511719
vt 0.368408203 0.401611328
vt 0.368408203 0.374511719
vt 0.333007812 0.401611328
vt 0.297607422 0.374511719
vt 0.368408203 0.428955078
vt 0.297607422 0.401611328
vt 0.333007812 0.428955078
vt 0.368408203 0.456054688
vt 0.297607422 0.428955078
vt 0.333007812 0.456054688
vt 0.368408203 0.483398438
vt 0.297607422 0.456054688
vt 0.333007812 0.483398438
vt 0.368408203 0.510742188
vt 0.297607422 0.483398438
vt 0.333007812 0.510742188
vt 0.368408203 0.538085938
vt 0.297607422 0.510742188
vt 0.333007812 0.538085938
vt 0.368408203 0.564941406
vt 0.297607422 0.538085938
vt 0.333007812 0.564941406
vt 0.368408203 0.592285156
vt 0.297607422 0.564941406
vt 0.333007812 0.592285156
vt 0.297607422 0.592285156
vt 0.333007812 0.592285156
vt 0.368408203 0.619628906
vt 0.368408203 0.592285156
vt 0.333007812 0.619628906
vt 0.297607422 0.592285156
vt 0.368408203 0.646972656
vt 0.297607422 0.619628906
vt 0.333007812 0.646972656
vt 0.368408203 0.674316406
vt 0.297607422 0.646972656
vt 0.333007812 0.674316406
vt 0.368408203 0.701171875
vt 0.297607422 0.674316406
vt 0.333007812 0.701171875
vt 0.368408203 0.728515625
vt 0.297607422 0.701171875
vt 0.333007812 0.728515625
vt 0.297607422 0.728515625
vt 0.743164062 0.595703125
vt 0.706054688 0.580566406
vt 0.668945312 0.669433594
vt 0.758300781 0.6328125
vt 0.773925781 0.669433594
vt 0.758300781 0.706542969
vt 0.743164062 0.743652344
vt 0.706054688 0.758789062
vt 0.668945312 0.774414062
vt 0.632324219 0.758789062
vt 0.595214844 0.743652344
vt 0.632324219 0.758789062
vt 0.668945312 0.669433594
vt 0.580078125 0.706542969
vt 0.564453125 0.669433594
vt 0.580078125 0.6328125
vt 0.595214844 0.595703125
vt 0.632324219 0.580566406
vt 0.668945312 0.564941406
vt 0.632324219 0.580566406
vt 0.706054688 0.580566406
vn 0.105957031 -0.296142578 0.94921875
vn -0.249023438 -0.315673828 0.915527344
vn -0.262695312 -0.216308594 0.940429688
vn 0.106140137 -0.20715332 0.97265625
vn 0.420410156 -0.312988281 0.8515625
vn -0.277099609 -0.0739135742 0.958007812
vn 0.107666016 -0.0642089844 0.9921875
vn 0.436279297 -0.215209961 0.873535156
vn 0.676757812 -0.329833984 0.658203125
vn 0.452392578 -0.0734863281 0.888671875
vn 0.69921875 -0.242431641 0.672363281
vn 0.840332031 -0.388916016 0.377929688
vn 0.875976562 -0.292724609 0.383056641
vn 0.896972656 -0.440673828 0.034362793
vn 0.934570312 -0.354980469 0.0235900879
vn 0.72265625 -0.102050781 0.684082031
vn 0.909667969 -0.15246582 0.38671875
vn 0.976074219 -0.217041016 0.00987243652
vn 0.731445312 0.0260467529 0.681152344
vn 0.458740234 0.0567016602 0.88671875
vn 0.107666016 -0.0642089844 0.9921875
vn 0.924316406 -0.0230865479 0.381347656
vn 0.99609375 -0.0872192383 -0.00436401367
vn 0.976074219 -0.217041016 0.00987243652
vn 1 -0.00931549072 -0.0147857666
vn 0.926269531 0.053314209 0.373291016
vn 0.732910156 0.101074219 0.672851562
vn 0.460205078 0.13269043 0.877929688
vn 0.108520508 0.0690917969 0.991699219
vn 0.109375 0.147705078 0.982910156
vn -0.283447266 0.0603027344 0.95703125
vn -0.284912109 0.140014648 0.948242188
vn -0.774414062 -0.369628906 0.513183594
vn -0.887207031 -0.407470703 0.216674805
vn -0.921875 -0.322753906 0.215087891
vn -0.807617188 -0.274169922 0.521484375
vn -0.565917969 -0.326416016 0.756835938
vn -0.959472656 -0.186279297 0.211303711
vn -0.587402344 -0.238525391 0.772949219
vn -0.249023438 -0.315673828 0.915527344
vn -0.262695312 -0.216308594 0.940429688
vn -0.840820312 -0.136474609 0.523925781
vn -0.977539062 -0.0596313477 0.203125
vn -0.612792969 -0.0986938477 0.784179688
vn -0.277099609 -0.0739135742 0.958007812
vn -0.85546875 -0.00900268555 0.518066406
vn -0.980957031 0.0156707764 0.193969727
vn -0.858398438 0.0668334961 0.508300781
vn -0.627441406 0.109985352 0.770996094
vn -0.624511719 0.0319519043 0.780273438
vn -0.612792969 -0.0986938477 0.784179688
vn -0.284912109 0.140014648 0.948242188
vn -0.283447266 0.0603027344 0.95703125
vn -0.432617188 -0.81640625 0.382324219
vn 0.00281333923 -0.985839844 0.166625977
vn -0.464355469 -0.860351562 0.209472656
vn -0.285888672 -0.814453125 0.504882812
vn -0.134277344 -0.784179688 0.605957031
vn 0.0515441895 -0.797851562 0.600585938
vn 0.240844727 -0.783203125 0.573242188
vn 0.362792969 -0.818359375 0.445556641
vn 0.472412109 -0.827148438 0.304443359
vn 0.464111328 -0.878417969 0.112548828
vn -0.480712891 -0.875976562 0.0323181152
vn -0.464355469 -0.860351562 0.209472656
vn 0.00281333923 -0.985839844 0.166625977
vn -0.366210938 -0.921875 -0.125854492
vn -0.241333008 -0.931152344 -0.273925781
vn -0.0519104004 -0.951660156 -0.303466797
vn 0.14074707 -0.936523438 -0.321533203
vn 0.295410156 -0.93359375 -0.203125
vn 0.438720703 -0.895507812 -0.0771484375
vn 0.464111328 -0.878417969 0.112548828
vn 0.99609375 -0.0872192383 -0.00436401367
vn 0.877929688 -0.282226562 -0.386230469
vn 0.976074219 -0.217041016 0.00987243652
vn 0.897460938 -0.153808594 -0.412841797
vn 1 -0.00931549072 -0.0147857666
vn 0.900878906 -0.0763549805 -0.426757812
vn 0.643066406 -0.130126953 -0.754882812
vn 0.641113281 -0.205688477 -0.739257812
vn 0.285644531 -0.236816406 -0.928710938
vn 0.286132812 -0.162231445 -0.944335938
vn -0.119934082 -0.169677734 -0.978027344
vn 0.280517578 -0.361083984 -0.889160156
vn -0.118896484 -0.244628906 -0.962402344
vn 0.627929688 -0.330810547 -0.704589844
vn -0.51953125 -0.225830078 -0.82421875
vn -0.522460938 -0.149291992 -0.839355469
vn -0.833984375 -0.102783203 -0.542480469
vn 0.599121094 -0.464355469 -0.651855469
vn 0.267822266 -0.494873047 -0.826660156
vn 0.838378906 -0.418212891 -0.349365234
vn 0.976074219 -0.217041016 0.00987243652
vn 0.934570312 -0.354980469 0.0235900879
vn 0.798339844 -0.51171875 -0.317382812
vn 0.896972656 -0.440673828 0.034362793
vn 0.572753906 -0.546875 -0.610351562
vn 0.254638672 -0.584472656 -0.770507812
vn -0.101196289 -0.583496094 -0.805664062
vn -0.10723877 -0.502929688 -0.857421875
vn -0.451416016 -0.578613281 -0.679199219
vn -0.114074707 -0.369873047 -0.921875
vn -0.476806641 -0.488525391 -0.730957031
vn -0.730957031 -0.525878906 -0.434814453
vn -0.50390625 -0.353759766 -0.788085938
vn -0.765136719 -0.443603516 -0.466308594
vn -0.872070312 -0.477050781 -0.110412598
vn -0.829101562 -0.17980957 -0.529296875
vn -0.9140625 -0.384521484 -0.127807617
vn -0.887207031 -0.407470703 0.216674805
vn -0.921875 -0.322753906 0.215087891
vn -0.806640625 -0.308349609 -0.50390625
vn -0.958007812 -0.247680664 -0.145751953
vn -0.959472656 -0.186279297 0.211303711
vn -0.977539062 -0.0596313477 0.203125
vn -0.979980469 -0.119628906 -0.160400391
vn -0.984375 -0.0433044434 -0.170654297
vn -0.980957031 0.0156707764 0.193969727
vn -0.219848633 0.748535156 0.625488281
vn -0.292724609 0.932128906 0.212768555
vn -0.165771484 0.894042969 0.416259766
vn -0.490966797 0.717285156 0.494384766
vn -0.235961914 0.681640625 0.692382812
vn -0.509277344 0.845703125 0.158935547
vn -0.521972656 0.6484375 0.554199219
vn -0.675292969 0.677246094 0.291748047
vn -0.467529297 0.881835938 -0.0637817383
vn -0.722167969 0.603027344 0.339111328
vn -0.7734375 0.6328125 0.0412902832
vn -0.827148438 0.557128906 0.0716552734
vn -0.7734375 0.6328125 0.0412902832
vn -0.570800781 0.784179688 -0.243896484
vn -0.467529297 0.881835938 -0.0637817383
vn -0.765136719 0.595214844 -0.244873047
vn -0.827148438 0.557128906 0.0716552734
vn -0.380126953 0.833007812 -0.401855469
vn -0.823730469 0.515136719 -0.236572266
vn -0.642089844 0.5546875 -0.529296875
vn -0.295654297 0.731445312 -0.614257812
vn -0.692871094 0.472900391 -0.543945312
vn -0.400878906 0.524414062 -0.751464844
vn -0.0588989258 0.803222656 -0.592773438
vn -0.435791016 0.437988281 -0.786132812
vn -0.0946044922 0.500976562 -0.860351562
vn 0.157836914 0.72265625 -0.672851562
vn -0.104614258 0.412841797 -0.904785156
vn 0.217285156 0.506347656 -0.834472656
vn 0.290039062 0.820800781 -0.491943359
vn 0.235717773 0.415771484 -0.878417969
vn 0.493408203 0.529785156 -0.689941406
vn 0.508300781 0.771972656 -0.381591797
vn 0.53515625 0.443847656 -0.71875
vn 0.689453125 0.578613281 -0.435791016
vn 0.456054688 0.875488281 -0.160888672
vn 0.745605469 0.496826172 -0.443847656
vn 0.770507812 0.625976562 -0.122131348
vn 0.828613281 0.549804688 -0.106079102
vn 0.770507812 0.625976562 -0.122131348
vn 0.538574219 0.839355469 0.0729370117
vn 0.456054688 0.875488281 -0.160888672
vn 0.721191406 0.669433594 0.179321289
vn 0.828613281 0.549804688 -0.106079102
vn 0.347900391 0.922851562 0.166748047
vn 0.773925781 0.594726562 0.218383789
vn 0.576660156 0.700195312 0.420410156
vn 0.270019531 0.885742188 0.377929688
vn 0.614257812 0.629394531 0.476074219
vn 0.357666016 0.731933594 0.580078125
vn 0.0474243164 0.950195312 0.307617188
vn 0.379638672 0.662109375 0.645996094
vn 0.0850830078 0.75 0.655761719
vn -0.165771484 0.894042969 0.416259766
vn 0.0858154297 0.684082031 0.724609375
vn -0.219848633 0.748535156 0.625488281
vn -0.235961914 0.681640625 0.692382812
vn -0.509277344 0.845703125 0.158935547
vn -0.467529297 0.881835938 -0.0637817383
vn -0.00561904907 0.987792969 -0.154907227
vn -0.292724609 0.932128906 0.212768555
vn -0.165771484 0.894042969 0.416259766
vn 0.0474243164 0.950195312 0.307617188
vn 0.270019531 0.885742188 0.377929688
vn 0.347900391 0.922851562 0.166748047
vn 0.538574219 0.839355469 0.0729370117
vn 0.456054688 0.875488281 -0.160888672
vn 0.508300781 0.771972656 -0.381591797
vn 0.456054688 0.875488281 -0.160888672
vn -0.00561904907 0.987792969 -0.154907227
vn 0.290039062 0.820800781 -0.491943359
vn 0.157836914 0.72265625 -0.672851562
vn -0.0588989258 0.803222656 -0.592773438
vn -0.295654297 0.731445312 -0.614257812
vn -0.380126953 0.833007812 -0.401855469
vn -0.570800781 0.784179688 -0.243896484
vn -0.380126953 0.833007812 -0.401855469
vn -0.467529297 0.881835938 -0.0637817383
g Chair_Back_01_0
f 3/3/3 2/2/2 1/1/1
f 4/4/4 3/3/3 1/1/1
f 4/4/4 1/1/1 5/5/5
f 6/6/6 3/3/3 4/4/4
f 7/7/7 6/6/6 4/4/4
f 8/8/8 4/4/4 5/5/5
f 7/7/7 4/4/4 8/8/8
f 8/8/8 5/5/5 9/9/9
f 10/10/10 7/7/7 8/8/8
f 11/11/11 8/8/8 9/9/9
f 10/10/10 8/8/8 11/11/11
f 11/11/11 9/9/9 12/12/12
f 13/13/13 11/11/11 12/12/12
f 13/13/13 12/12/12 14/14/14
f 15/15/15 13/13/13 14/14/14
f 16/16/16 11/11/11 13/13/13
f 16/16/16 10/10/10 11/11/11
f 17/17/17 13/13/13 15/15/15
f 17/17/17 16/16/16 13/13/13
f 18/18/18 17/17/17 15/15/15
f 10/10/10 16/16/16 19/19/19
f 16/16/16 17/17/17 19/19/19
f 20/20/20 10/10/10 19/19/19
f 21/21/21 10/10/10 20/20/20
f 17/17/17 22/22/22 19/19/19
f 22/22/22 17/17/17 23/23/23
f 17/17/17 24/24/24 23/23/23
f 22/22/22 23/23/23 25/25/25
f 26/26/26 22/22/22 25/25/25
f 22/22/22 26/26/26 27/27/27
f 19/19/19 22/22/22 27/27/27
f 20/20/20 19/19/19 27/27/27
f 28/28/28 20/20/20 27/27/27
f 29/29/29 20/20/20 28/28/28
f 29/29/29 21/21/21 20/20/20
f 30/30/30 29/29/29 28/28/28
f 21/21/21 29/29/29 31/31/31
f 31/31/31 29/29/29 30/30/30
f 6/6/6 21/21/21 31/31/31
f 32/32/32 31/31/31 30/30/30
f 35/35/35 34/34/34 33/33/33
f 36/36/36 35/35/35 33/33/33
f 36/36/36 33/33/33 37/37/37
f 38/38/38 35/35/35 36/36/36
f 39/39/39 36/36/36 37/37/37
f 39/39/39 37/37/37 40/40/40
f 41/41/41 39/39/39 40/40/40
f 42/42/42 38/38/38 36/36/36
f 42/42/42 36/36/36 39/39/39
f 38/38/38 42/42/42 43/43/43
f 44/44/44 39/39/39 41/41/41
f 44/44/44 42/42/42 39/39/39
f 45/45/45 44/44/44 41/41/41
f 42/42/42 46/46/46 43/43/43
f 43/43/43 46/46/46 47/47/47
f 46/46/46 48/48/48 47/47/47
f 48/48/48 46/46/46 49/49/49
f 46/46/46 42/42/42 50/50/50
f 46/46/46 50/50/50 49/49/49
f 42/42/42 51/51/51 50/50/50
f 51/51/51 45/45/45 50/50/50
f 49/49/49 50/50/50 52/52/52
f 45/45/45 53/53/53 50/50/50
f 50/50/50 53/53/53 52/52/52
f 56/56/56 55/55/55 54/54/54
f 55/55/55 57/57/57 54/54/54
f 57/57/57 55/55/55 58/58/58
f 55/55/55 59/59/59 58/58/58
f 59/59/59 55/55/55 60/60/60
f 55/55/55 61/61/61 60/60/60
f 61/61/61 55/55/55 62/62/62
f 55/55/55 63/63/63 62/62/62
f 66/66/66 65/65/65 64/64/64
f 67/67/67 66/66/66 64/64/64
f 66/66/66 67/67/67 68/68/68
f 69/69/69 66/66/66 68/68/68
f 66/66/66 69/69/69 70/70/70
f 71/71/71 66/66/66 70/70/70
f 66/66/66 71/71/71 72/72/72
f 73/73/73 66/66/66 72/72/72
f 76/76/76 75/75/75 74/74/74
f 75/75/75 77/77/77 74/74/74
f 74/74/74 77/77/77 78/78/78
f 77/77/77 79/79/79 78/78/78
f 79/79/79 77/77/77 80/80/80
f 77/77/77 81/81/81 80/80/80
f 77/77/77 75/75/75 81/81/81
f 81/81/81 82/82/82 80/80/80
f 82/82/82 83/83/83 80/80/80
f 83/83/83 82/82/82 84/84/84
f 85/85/85 82/82/82 81/81/81
f 82/82/82 86/86/86 84/84/84
f 82/82/82 85/85/85 86/86/86
f 75/75/75 87/87/87 81/81/81
f 87/87/87 85/85/85 81/81/81
f 86/86/86 88/88/88 84/84/84
f 88/88/88 89/89/89 84/84/84
f 89/89/89 88/88/88 90/90/90
f 87/87/87 75/75/75 91/91/91
f 85/85/85 87/87/87 92/92/92
f 87/87/87 91/91/91 92/92/92
f 75/75/75 93/93/93 91/91/91
f 75/75/75 94/94/94 93/93/93
f 94/94/94 95/95/95 93/93/93
f 93/93/93 95/95/95 96/96/96
f 95/95/95 97/97/97 96/96/96
f 93/93/93 96/96/96 98/98/98
f 91/91/91 93/93/93 98/98/98
f 91/91/91 98/98/98 99/99/99
f 92/92/92 91/91/91 99/99/99
f 92/92/92 99/99/99 100/100/100
f 101/101/101 92/92/92 100/100/100
f 85/85/85 92/92/92 101/101/101
f 101/101/101 100/100/100 102/102/102
f 103/103/103 85/85/85 101/101/101
f 85/85/85 103/103/103 86/86/86
f 104/104/104 101/101/101 102/102/102
f 103/103/103 101/101/101 104/104/104
f 104/104/104 102/102/102 105/105/105
f 103/103/103 106/106/106 86/86/86
f 106/106/106 103/103/103 104/104/104
f 106/106/106 88/88/88 86/86/86
f 107/107/107 104/104/104 105/105/105
f 106/106/106 104/104/104 107/107/107
f 107/107/107 105/105/105 108/108/108
f 88/88/88 106/106/106 109/109/109
f 88/88/88 109/109/109 90/90/90
f 110/110/110 107/107/107 108/108/108
f 110/110/110 108/108/108 111/111/111
f 112/112/112 110/110/110 111/111/111
f 113/113/113 106/106/106 107/107/107
f 113/113/113 107/107/107 110/110/110
f 106/106/106 113/113/113 109/109/109
f 114/114/114 110/110/110 112/112/112
f 114/114/114 113/113/113 110/110/110
f 113/113/113 114/114/114 109/109/109
f 115/115/115 114/114/114 112/112/112
f 114/114/114 115/115/115 116/116/116
f 109/109/109 117/117/117 90/90/90
f 114/114/114 117/117/117 109/109/109
f 117/117/117 114/114/114 116/116/116
f 117/117/117 118/118/118 90/90/90
f 117/117/117 116/116/116 119/119/119
f 118/118/118 117/117/117 119/119/119
f 122/122/122 121/121/121 120/120/120
f 121/121/121 123/123/123 120/120/120
f 120/120/120 123/123/123 124/124/124
f 121/121/121 125/125/125 123/123/123
f 123/123/123 126/126/126 124/124/124
f 125/125/125 127/127/127 123/123/123
f 123/123/123 127/127/127 126/126/126
f 125/125/125 128/128/128 127/127/127
f 127/127/127 129/129/129 126/126/126
f 128/128/128 130/130/130 127/127/127
f 127/127/127 130/130/130 129/129/129
f 130/130/130 131/131/131 129/129/129
f 134/134/134 133/133/133 132/132/132
f 133/133/133 135/135/135 132/132/132
f 132/132/132 135/135/135 136/136/136
f 133/133/133 137/137/137 135/135/135
f 135/135/135 138/138/138 136/136/136
f 137/137/137 139/139/139 135/135/135
f 135/135/135 139/139/139 138/138/138
f 137/137/137 140/140/140 139/139/139
f 139/139/139 141/141/141 138/138/138
f 140/140/140 142/142/142 139/139/139
f 139/139/139 142/142/142 141/141/141
f 140/140/140 143/143/143 142/142/142
f 142/142/142 144/144/144 141/141/141
f 143/143/143 145/145/145 142/142/142
f 142/142/142 145/145/145 144/144/144
f 143/143/143 146/146/146 145/145/145
f 145/145/145 147/147/147 144/144/144
f 146/146/146 148/148/148 145/145/145
f 145/145/145 148/148/148 147/147/147
f 146/146/146 149/149/149 148/148/148
f 148/148/148 150/150/150 147/147/147
f 149/149/149 151/151/151 148/148/148
f 148/148/148 151/151/151 150/150/150
f 149/149/149 152/152/152 151/151/151
f 151/151/151 153/153/153 150/150/150
f 152/152/152 154/154/154 151/151/151
f 151/151/151 154/154/154 153/153/153
f 152/152/152 155/155/155 154/154/154
f 154/154/154 156/156/156 153/153/153
f 155/155/155 157/157/157 154/154/154
f 154/154/154 157/157/157 156/156/156
f 157/157/157 158/158/158 156/156/156
f 161/161/161 160/160/160 159/159/159
f 160/160/160 162/162/162 159/159/159
f 159/159/159 162/162/162 163/163/163
f 160/160/160 164/164/164 162/162/162
f 162/162/162 165/165/165 163/163/163
f 164/164/164 166/166/166 162/162/162
f 162/162/162 166/166/166 165/165/165
f 164/164/164 167/167/167 166/166/166
f 166/166/166 168/168/168 165/165/165
f 167/167/167 169/169/169 166/166/166
f 166/166/166 169/169/169 168/168/168
f 167/167/167 170/170/170 169/169/169
f 169/169/169 171/171/171 168/168/168
f 170/170/170 172/172/172 169/169/169
f 169/169/169 172/172/172 171/171/171
f 170/170/170 173/173/173 172/172/172
f 172/172/172 174/174/174 171/171/171
f 173/173/173 175/175/175 172/172/172
f 172/172/172 175/175/175 174/174/174
f 175/175/175 176/176/176 174/174/174
f 179/179/179 178/178/178 177/177/177
f 180/180/180 179/179/179 177/177/177
f 179/179/179 180/180/180 181/181/181
f 182/182/182 179/179/179 181/181/181
f 179/179/179 182/182/182 183/183/183
f 184/184/184 179/179/179 183/183/183
f 179/179/179 184/184/184 185/185/185
f 186/186/186 179/179/179 185/185/185
f 189/189/189 188/188/188 187/187/187
f 190/190/190 189/189/189 187/187/187
f 189/189/189 190/190/190 191/191/191
f 192/192/192 189/189/189 191/191/191
f 189/189/189 192/192/192 193/193/193
f 194/194/194 189/189/189 193/193/193
f 189/189/189 196/196/196 195/195/195
f 197/197/197 189/189/189 195/195/195
