g Chair_Leg_02
v -0.131220102 -0.410426974 -0.130297646
v -0.177928537 -0.326977044 -0.183039501
v -0.191514492 -0.384712279 -0.126670986
v -0.106072947 -0.357619286 -0.187344179
v -0.0735795349 -0.286375999 -0.246068403
v -0.156150311 -0.251164347 -0.241121784
v -0.129144073 -0.171664611 -0.285053432
v -0.0401127525 -0.209631339 -0.290387034
v -0.0978148133 -0.0916236788 -0.312430382
v -0.00702051912 -0.130342185 -0.317869663
v -0.0641769022 -0.0141741559 -0.325389653
v 0.0245165359 -0.0519967824 -0.33070311
v -0.0228395723 0.0722414106 -0.324354708
v 0.0591506027 0.037277326 -0.329266548
v 0.0125078447 0.141599566 -0.314785302
v 0.0866753235 0.109966859 -0.319246292
v -0.0701831281 -0.431490839 -0.115137599
v -0.106072947 -0.357619286 -0.187344179
v -0.131220102 -0.410426974 -0.130297646
v -0.033348579 -0.382711291 -0.169252276
v -0.0146851512 -0.445525587 -0.0819520056
v 0.00998957455 -0.315209746 -0.225278601
v -0.0735795349 -0.286375999 -0.246068403
v -0.0401127525 -0.209631339 -0.290387034
v 0.032766331 -0.399423629 -0.129679278
v 0.0307220947 -0.451227546 -0.0328837708
v 0.04999502 -0.240721181 -0.267970622
v -0.00702051912 -0.130342185 -0.317869663
v 0.0868466944 -0.406203866 -0.07118579
v 0.0612996146 -0.447546989 0.0286725108
v 0.0859635994 -0.334414244 -0.179804415
v 0.0848715454 -0.16204761 -0.295009315
v 0.0245165359 -0.0519967824 -0.33070311
v 0.148108453 -0.342205644 -0.112588309
v 0.131913453 -0.261428356 -0.21893838
v 0.12325789 -0.401807368 0.00217471318
v 0.0723108053 -0.432695121 0.102128662
v 0.189949319 -0.337153494 -0.0282881986
v 0.13637954 -0.384109795 0.0897058249
v 0.0594709478 -0.408787519 0.172791809
v 0.198920697 -0.269829363 -0.146463111
v 0.168412104 -0.18316482 -0.245006159
v 0.121101618 -0.355626941 0.173912749
v 0.0223349445 -0.377095699 0.23514688
v 0.20502767 -0.316816866 0.072295621
v 0.244035318 -0.264381975 -0.0555671677
v 0.0768907592 -0.317869455 0.248237178
v -0.0342144817 -0.3427293 0.277416766
v 0.187471479 -0.284086585 0.169059545
v 0.11428234 -0.0829686075 -0.308371753
v 0.236746207 -0.191732198 -0.171095729
v 0.260293424 -0.242454097 0.0528865904
v 0.00954823196 -0.276922554 0.298639178
v -0.0924665704 -0.315429986 0.290231407
v 0.195889845 -0.103597179 -0.259525657
v 0.142132103 0.00864628609 -0.308622956
v 0.0591506027 0.037277326 -0.329266548
v 0.0866753235 0.109966859 -0.319246292
v 0.161756098 0.0840542465 -0.300597668
v 0.217571899 -0.0104232132 -0.263468504
v 0.23002325 0.0667877346 -0.259775758
v 0.279279828 -0.0181598198 -0.196724981
v 0.285877883 0.0597711913 -0.199416533
v 0.262642801 -0.11196629 -0.187325373
v 0.320826441 -0.0131432554 -0.113017611
v 0.323490798 0.0642968714 -0.123695895
v 0.282754123 -0.186176941 -0.0783998296
v 0.307586133 -0.106539577 -0.0967743844
v 0.3357988 0.00705039501 -0.0131410211
v 0.337035716 0.0825662613 -0.0333376378
v 0.299334228 -0.163814902 0.0322015509
v 0.323782563 -0.0846949592 0.0112678036
v 0.318366051 0.0395505428 0.0829425305
v 0.321242034 0.11197684 0.0535844453
v 0.2413636 -0.207162887 0.157221571
v 0.280029505 -0.127824873 0.138602585
v 0.304924607 -0.0495376959 0.115206838
v 0.26791966 0.0826334357 0.167749777
v 0.275562048 0.15096426 0.130286217
v 0.136667877 -0.240698636 0.254467309
v 0.186584979 -0.160380125 0.249311864
v 0.0592831783 -0.193645686 0.312385321
v 0.2241662 -0.0801157281 0.232516453
v 0.250353873 -0.00293249637 0.206947669
v 0.191079095 0.129355595 0.225260526
v 0.206001654 0.193241686 0.182281151
v 0.103145503 -0.109645605 0.311761498
v -0.0204653181 -0.156264395 0.329952419
v 0.139074475 -0.0283765495 0.296202779
v 0.167231053 0.0476094894 0.26916033
v 0.111891352 0.166474074 0.242704079
v 0.134346187 0.226823643 0.198043898
v 0.0171572864 -0.0693394765 0.33070311
v 0.0513835214 0.0127277141 0.315519452
v 0.0815691724 0.0877626464 0.288030088
v 0.0287418421 0.198928192 0.236294374
v 0.0591346771 0.256180465 0.192249522
v -0.050758861 0.223244727 0.204711705
v -0.0127756661 0.278178751 0.163694665
v -0.00837836321 0.122870125 0.281096339
v -0.0406945981 0.048666805 0.308421493
v -0.0731329024 -0.0340982378 0.323742986
v -0.122964144 0.237264723 0.145447969
v -0.0780906081 0.290864289 0.11009904
v -0.0943787768 0.14917472 0.246931508
v -0.128732085 0.0755944699 0.273447454
v -0.17510879 0.237926096 0.0667680502
v -0.125263035 0.291467041 0.0389382243
v -0.172487319 0.164340973 0.182822526
v -0.202453136 0.224547118 -0.0265332982
v -0.150005147 0.279371113 -0.0454469994
v -0.104203619 -0.123580456 0.323497295
v -0.159460932 -0.00769344671 0.289447993
v -0.208690792 0.0911199227 0.207819894
v -0.228895143 0.165056393 0.0977099761
v -0.199291036 0.196941063 -0.126279607
v -0.147145748 0.254405409 -0.13565357
v -0.184267268 -0.0990917385 0.291691005
v -0.132722944 -0.215949684 0.308309138
v -0.237867028 0.00753054023 0.225094825
v -0.266434729 0.0918522924 0.12069127
v -0.258475065 0.150583565 -0.00321940496
v -0.256983876 -0.0849724635 0.232007593
v -0.294489741 0.00824867189 0.139658064
v -0.296715379 0.0770366341 0.0173711963
v -0.20239675 -0.194638863 0.280630291
v -0.309497774 -0.0843064412 0.152770534
v -0.337035716 -0.0977801904 0.0588085204
v -0.324182302 -0.00627930462 0.0383442119
v -0.311376095 -0.181772232 0.159737483
v -0.320748746 -0.036256101 -0.0699680746
v -0.293213725 0.0464662164 -0.093085885
v -0.265676916 -0.182351828 0.22869195
v -0.255054474 0.120720521 -0.111120641
v -0.164872125 0.158993781 -0.216569319
v -0.115995288 0.220077574 -0.217308342
v -0.102526151 0.11500112 -0.286298752
v -0.0595835112 0.180281743 -0.280364096
v -0.217821553 0.0796707869 -0.208792135
v -0.255098879 0.00444413722 -0.193070948
v -0.0228395723 0.0722414106 -0.324354708
v 0.0125078447 0.141599566 -0.314785302
v -0.0641769022 -0.0141741559 -0.325389653
v -0.150378391 0.0320814475 -0.284222424
v -0.0978148133 -0.0916236788 -0.312430382
v -0.186058149 -0.0442724377 -0.270287931
v -0.129144073 -0.171664611 -0.285053432
v -0.215673953 -0.125232801 -0.243729293
v -0.156150311 -0.251164347 -0.241121784
v -0.283374012 -0.0774622038 -0.168011665
v -0.23640117 -0.208101854 -0.20279634
v -0.177928537 -0.326977044 -0.183039501
v -0.299188614 -0.163797706 -0.132573143
v -0.247765273 -0.28950274 -0.149687573
v -0.191514492 -0.384712279 -0.126670986
v -0.25012055 -0.353265673 -0.0986884981
v -0.302404761 -0.250947952 -0.0885772184
v -0.295979619 -0.320912957 -0.047427848
v -0.332569242 -0.217691213 -0.00944800302
v -0.321302712 -0.293005496 0.0189528055
v -0.333851188 -0.125581726 -0.0416440777
v -0.33534041 -0.193497479 0.077968888
v -0.323627263 -0.272709846 0.0922858417
v -0.303513587 -0.262876928 0.160886526
v -0.265165269 -0.263367295 0.218736485
v -0.212068111 -0.273680419 0.262306988
v -0.153609246 -0.291564375 0.285520762
v -0.0598513559 -0.244392216 0.313926578
v -0.235698521 -0.371962607 -0.0581251755
v -0.187118068 -0.397765964 -0.0803178847
v -0.191514492 -0.384712279 -0.126670986
v -0.25012055 -0.353265673 -0.0986884981
v -0.295979619 -0.320912957 -0.047427848
v -0.27456373 -0.345160931 -0.0170538817
v -0.321302712 -0.293005496 0.0189528055
v -0.296699941 -0.321885318 0.0366953835
v -0.2994712 -0.304829657 0.0970477685
v -0.323627263 -0.272709846 0.0922858417
v -0.303513587 -0.262876928 0.160886526
v -0.282978952 -0.296573937 0.154044524
v -0.250882208 -0.297027946 0.202313244
v -0.265165269 -0.263367295 0.218736485
v -0.212068111 -0.273680419 0.262306988
v -0.206379071 -0.305743515 0.238578081
v -0.153609246 -0.291564375 0.285520762
v -0.157186583 -0.320845723 0.257934093
v -0.105728641 -0.340939999 0.261870205
v -0.0924665704 -0.315429986 0.290231407
v -0.0342144817 -0.3427293 0.277416766
v -0.0563489422 -0.36398074 0.251350522
v 0.0223349445 -0.377095699 0.23514688
v -0.00873126741 -0.392773479 0.216211691
v 0.0218800679 -0.419026166 0.164241552
v 0.0594709478 -0.408787519 0.172791809
v 0.0723108053 -0.432695121 0.102128662
v 0.0315204039 -0.438446105 0.105585061
v 0.0612996146 -0.447546989 0.0286725108
v 0.0211013332 -0.450182557 0.0448814183
v 0.0307220947 -0.451227546 -0.0328837708
v -0.00524159428 -0.452635139 -0.00537476875
v -0.0146851512 -0.445525587 -0.0819520056
v -0.0429586396 -0.447614044 -0.0450005345
v -0.0883557424 -0.435962737 -0.0714527741
v -0.0701831281 -0.431490839 -0.115137599
v -0.131220102 -0.410426974 -0.130297646
v -0.138072103 -0.418705553 -0.0833835378
v -0.191514492 -0.384712279 -0.126670986
v -0.187118068 -0.397765964 -0.0803178847
v 0.0125078447 0.141599566 -0.314785302
v 0.0387165695 0.176950932 -0.272585511
v -0.0213967413 0.208878785 -0.24512431
v -0.0595835112 0.180281743 -0.280364096
v -0.069491908 0.242033958 -0.194301471
v -0.115995288 0.220077574 -0.217308342
v -0.0968867913 0.270826221 -0.127791151
v -0.147145748 0.254405409 -0.13565357
v -0.100315966 0.291930497 -0.053112492
v -0.150005147 0.279371113 -0.0454469994
v -0.0799068063 0.302149922 0.0174130928
v -0.125263035 0.291467041 0.0389382243
v -0.0401890129 0.301591992 0.0771387368
v -0.0780906081 0.290864289 0.11009904
v 0.014880552 0.290812314 0.122010604
v -0.0127756661 0.278178751 0.163694665
v 0.0757529885 0.272131234 0.145959571
v 0.0591346771 0.256180465 0.192249522
v 0.139426842 0.247268364 0.150829569
v 0.134346187 0.226823643 0.198043898
v 0.200524941 0.21874778 0.137815788
v 0.206001654 0.193241686 0.182281151
v 0.259436727 0.183093488 0.0943432003
v 0.275562048 0.15096426 0.130286217
v 0.297306478 0.150586158 0.0300424229
v 0.321242034 0.11197684 0.0535844453
v 0.309232235 0.126547664 -0.0425361246
v 0.337035716 0.0825662613 -0.0333376378
v 0.296341419 0.112029463 -0.117651202
v 0.323490798 0.0642968714 -0.123695895
v 0.263750136 0.109008938 -0.179841131
v 0.285877883 0.0597711913 -0.199416533
v 0.2170849 0.115236968 -0.228877038
v 0.23002325 0.0667877346 -0.259775758
v 0.160915986 0.129667252 -0.261611581
v 0.161756098 0.0840542465 -0.300597668
v 0.0994018987 0.151031971 -0.276376933
v 0.0866753235 0.109966859 -0.319246292
v 0.0866753235 0.109966859 -0.319246292
v 0.0994018987 0.151031971 -0.276376933
v 0.0387165695 0.176950932 -0.272585511
v 0.0125078447 0.141599566 -0.314785302
v 0.0699052364 0.120736986 -0.25170958
v 0.137097269 0.284408987 -0.291530818
v 0.0788656175 0.31095776 -0.281534672
v 0.010711953 0.147724196 -0.241548344
v 0.0287492014 0.339351833 -0.251906872
v -0.0402320698 0.176587194 -0.21143119
v -0.00782098994 0.366514266 -0.205857992
v -0.0774062499 0.204198197 -0.164621726
v -0.0268821381 0.389501572 -0.148378134
v -0.0967821851 0.227565125 -0.106192693
v -0.0263685845 0.405822784 -0.0856960267
v -0.0962601379 0.244155839 -0.0424755141
v -0.00633605942 0.413709134 -0.0246046726
v -0.0758967027 0.25217244 0.0196249709
v 0.0310447551 0.4123061 0.0282764472
v -0.0378986076 0.25074622 0.073379159
v 0.081722945 0.401765674 0.0672161579
v 0.0136163756 0.240031824 0.112962157
v 0.140206605 0.38323012 0.0879951194
v 0.0730659589 0.221190184 0.134084269
v 0.200158492 0.358708024 0.0883614495
v 0.13400802 0.196263 0.134456605
v 0.255081654 0.330856711 0.0682755038
v 0.189838156 0.167951792 0.114039026
v 0.299024284 0.30269435 0.029913906
v 0.234506428 0.139324367 0.075043872
v 0.327224493 0.27727282 -0.0225661341
v 0.263172507 0.113482952 0.0216970723
v 0.3366265 0.257346809 -0.0834778473
v 0.272729754 0.0932278633 -0.0402205884
v 0.326211512 0.245075643 -0.146220312
v 0.262142658 0.0807540715 -0.103999294
v 0.297107756 0.241789177 -0.203994632
v 0.23255834 0.0774133205 -0.162727579
v 0.252469599 0.247843429 -0.25053978
v 0.187182933 0.0835675672 -0.210041478
v 0.197133809 0.262582481 -0.280812025
v 0.130933419 0.0985499769 -0.240813702
v 0.137097269 0.284408987 -0.291530818
v 0.0699052364 0.120736986 -0.25170958
v 0.197133809 0.262582481 -0.280812025
v 0.155856684 0.330521494 -0.273637176
v 0.137097269 0.284408987 -0.291530818
v 0.206986427 0.31193313 -0.264508545
v 0.171761721 0.369915187 -0.241077527
v 0.252469599 0.247843429 -0.25053978
v 0.210170165 0.355951637 -0.234220207
v 0.254112661 0.29938072 -0.23872745
v 0.297107756 0.241789177 -0.203994632
v 0.245571375 0.346522272 -0.214853466
v 0.292128384 0.294224679 -0.19908759
v 0.326211512 0.245075643 -0.146220312
v 0.274128795 0.342649043 -0.185076192
v 0.31691426 0.297023565 -0.149884716
v 0.292747915 0.344751537 -0.148115024
v 0.3366265 0.257346809 -0.0834778473
v 0.299410999 0.352602005 -0.107975364
v 0.325784206 0.307474196 -0.0964505151
v 0.327224493 0.27727282 -0.0225661341
v 0.317777038 0.324443996 -0.0445755273
v 0.293396115 0.36534968 -0.069006972
v 0.299024284 0.30269435 0.029913906
v 0.293760508 0.346094042 0.000118628144
v 0.275354981 0.381613225 -0.0354326963
v 0.255081654 0.330856711 0.0682755038
v 0.256337225 0.370078266 0.032789018
v 0.247242674 0.399630159 -0.0108906692
v 0.200158492 0.358708024 0.0883614495
v 0.209562391 0.393797666 0.049895063
v 0.212105498 0.417447984 0.00195924193
v 0.140206605 0.38323012 0.0879951194
v 0.158504859 0.414681703 0.0495829843
v 0.17375119 0.433136135 0.00172489136
v 0.081722945 0.401765674 0.0672161579
v 0.108697698 0.430467337 0.0318868309
v 0.136336103 0.444994241 -0.0115684411
v 0.0310447551 0.4123061 0.0282764472
v 0.0655381009 0.439443946 -0.00127592683
v 0.103914574 0.451737553 -0.0364801213
v -0.00633605942 0.413709134 -0.0246046726
v 0.033703059 0.4406389 -0.046311602
v 0.080000177 0.452635139 -0.0703108162
v -0.0263685845 0.405822784 -0.0856960267
v 0.016642496 0.433922499 -0.0983395949
v 0.0671842396 0.447589904 -0.109394208
v -0.0268821381 0.389501572 -0.148378134
v 0.0162050575 0.420022756 -0.151722297
v 0.0668556914 0.437148362 -0.149495184
v -0.00782098994 0.366514266 -0.205857992
v 0.0324384235 0.400445729 -0.200674504
v 0.0790500343 0.422442228 -0.186268076
v 0.0287492014 0.339351833 -0.251906872
v 0.0635830089 0.377313137 -0.239891768
v 0.102445886 0.40506494 -0.215727985
v 0.0788656175 0.31095776 -0.281534672
v 0.106264248 0.353131473 -0.265124083
v 0.137097269 0.284408987 -0.291530818
v 0.134507924 0.386899829 -0.234682426
v 0.155856684 0.330521494 -0.273637176
v 0.171761721 0.369915187 -0.241077527
v 0.160915986 0.129667252 -0.261611581
v 0.127583101 0.264158875 -0.0775544643
v 0.0994018987 0.151031971 -0.276376933
v 0.2170849 0.115236968 -0.228877038
v 0.263750136 0.109008938 -0.179841131
v 0.296341419 0.112029463 -0.117651202
v 0.309232235 0.126547664 -0.0425361246
v 0.297306478 0.150586158 0.0300424229
v 0.259436727 0.183093488 0.0943432003
v 0.200524941 0.21874778 0.137815788
v 0.139426842 0.247268364 0.150829569
v 0.0757529885 0.272131234 0.145959571
v 0.014880552 0.290812314 0.122010604
v -0.0401890129 0.301591992 0.0771387368
v -0.0799068063 0.302149922 0.0174130928
v -0.100315966 0.291930497 -0.053112492
v -0.0968867913 0.270826221 -0.127791151
v -0.069491908 0.242033958 -0.194301471
v -0.0213967413 0.208878785 -0.24512431
v 0.0387165695 0.176950932 -0.272585511
v 0.0994018987 0.151031971 -0.276376933
v 0.0211013332 -0.450182557 0.0448814183
v -0.147369161 -0.40540117 0.0978892818
v 0.0315204039 -0.438446105 0.105585061
v -0.00524159428 -0.452635139 -0.00537476875
v 0.0218800679 -0.419026166 0.164241552
v -0.0429586396 -0.447614044 -0.0450005345
v -0.00873126741 -0.392773479 0.216211691
v -0.0883557424 -0.435962737 -0.0714527741
v -0.0563489422 -0.36398074 0.251350522
v -0.138072103 -0.418705553 -0.0833835378
v -0.105728641 -0.340939999 0.261870205
v -0.187118068 -0.397765964 -0.0803178847
v -0.157186583 -0.320845723 0.257934093
v -0.235698521 -0.371962607 -0.0581251755
v -0.206379071 -0.305743515 0.238578081
v -0.27456373 -0.345160931 -0.0170538817
v -0.250882208 -0.297027946 0.202313244
v -0.296699941 -0.321885318 0.0366953835
v -0.282978952 -0.296573937 0.154044524
v -0.2994712 -0.304829657 0.0970477685
v 0.184973314 0.40401718 -0.120425381
v 0.245571375 0.346522272 -0.214853466
v 0.274128795 0.342649043 -0.185076192
v 0.210170165 0.355951637 -0.234220207
v 0.292747915 0.344751537 -0.148115024
v 0.171761721 0.369915187 -0.241077527
v 0.299410999 0.352602005 -0.107975364
v 0.134507924 0.386899829 -0.234682426
v 0.293396115 0.36534968 -0.069006972
v 0.102445886 0.40506494 -0.215727985
v 0.275354981 0.381613225 -0.0354326963
v 0.0790500343 0.422442228 -0.186268076
v 0.247242674 0.399630159 -0.0108906692
v 0.0668556914 0.437148362 -0.149495184
v 0.212105498 0.417447984 0.00195924193
v 0.0671842396 0.447589904 -0.109394208
v 0.17375119 0.433136135 0.00172489136
v 0.080000177 0.452635139 -0.0703108162
v 0.136336103 0.444994241 -0.0115684411
v 0.103914574 0.451737553 -0.0364801213
vt 0.403564453 0.027633667
vt 0.370849609 0.0615234375
vt 0.403564453 0.0615234375
vt 0.370849609 0.027633667
vt 0.331787109 0.027633667
vt 0.331787109 0.0615234375
vt 0.293945312 0.0615234375
vt 0.293945312 0.027633667
vt 0.2578125 0.0615234375
vt 0.2578125 0.027633667
vt 0.223632812 0.0615234375
vt 0.223632812 0.027633667
vt 0.185302734 0.0615234375
vt 0.185302734 0.027633667
vt 0.153930664 0.0615234375
vt 0.153930664 0.027633667
vt 0.403564453 0.691894531
vt 0.370849609 0.726074219
vt 0.403564453 0.726074219
vt 0.370849609 0.691894531
vt 0.403564453 0.657714844
vt 0.331787109 0.691894531
vt 0.331787109 0.726074219
vt 0.293945312 0.726074219
vt 0.370849609 0.657714844
vt 0.403564453 0.623046875
vt 0.293945312 0.691894531
vt 0.2578125 0.726074219
vt 0.370849609 0.623046875
vt 0.403564453 0.587402344
vt 0.331787109 0.657714844
vt 0.2578125 0.691894531
vt 0.223632812 0.726074219
vt 0.331787109 0.623046875
vt 0.293945312 0.657714844
vt 0.370849609 0.587402344
vt 0.403564453 0.548339844
vt 0.331787109 0.587402344
vt 0.370849609 0.548339844
vt 0.403564453 0.509277344
vt 0.293945312 0.623046875
vt 0.2578125 0.657714844
vt 0.370849609 0.509277344
vt 0.403564453 0.468505859
vt 0.331787109 0.548339844
vt 0.293945312 0.587402344
vt 0.370849609 0.468505859
vt 0.403564453 0.427734375
vt 0.331787109 0.509277344
vt 0.223632812 0.691894531
vt 0.2578125 0.623046875
vt 0.293945312 0.548339844
vt 0.370849609 0.427734375
vt 0.403564453 0.393798828
vt 0.223632812 0.657714844
vt 0.185302734 0.691894531
vt 0.185302734 0.726074219
vt 0.153930664 0.726074219
vt 0.153930664 0.691894531
vt 0.185302734 0.657714844
vt 0.153930664 0.657714844
vt 0.185302734 0.623046875
vt 0.153930664 0.623046875
vt 0.223632812 0.623046875
vt 0.185302734 0.587402344
vt 0.153930664 0.587402344
vt 0.2578125 0.587402344
vt 0.223632812 0.587402344
vt 0.185302734 0.548339844
vt 0.153930664 0.548339844
vt 0.2578125 0.548339844
vt 0.223632812 0.548339844
vt 0.185302734 0.509277344
vt 0.153930664 0.509277344
vt 0.293945312 0.509277344
vt 0.2578125 0.509277344
vt 0.223632812 0.509277344
vt 0.185302734 0.468505859
vt 0.153930664 0.468505859
vt 0.331787109 0.468505859
vt 0.293945312 0.468505859
vt 0.331787109 0.427734375
vt 0.2578125 0.468505859
vt 0.223632812 0.468505859
vt 0.185302734 0.427734375
vt 0.153930664 0.427734375
vt 0.293945312 0.427734375
vt 0.331787109 0.393798828
vt 0.2578125 0.427734375
vt 0.223632812 0.427734375
vt 0.185302734 0.393798828
vt 0.153930664 0.393798828
vt 0.293945312 0.393798828
vt 0.2578125 0.393798828
vt 0.223632812 0.393798828
vt 0.185302734 0.359863281
vt 0.153930664 0.359863281
vt 0.185302734 0.325927734
vt 0.153930664 0.325927734
vt 0.223632812 0.359863281
vt 0.2578125 0.359863281
vt 0.293945312 0.359863281
vt 0.185302734 0.290039062
vt 0.153930664 0.290039062
vt 0.223632812 0.325927734
vt 0.2578125 0.325927734
vt 0.185302734 0.254150391
vt 0.153930664 0.254150391
vt 0.223632812 0.290039062
vt 0.185302734 0.216796875
vt 0.153930664 0.216796875
vt 0.331787109 0.359863281
vt 0.293945312 0.325927734
vt 0.2578125 0.290039062
vt 0.223632812 0.254150391
vt 0.185302734 0.177490234
vt 0.153930664 0.177490234
vt 0.331787109 0.325927734
vt 0.370849609 0.359863281
vt 0.293945312 0.290039062
vt 0.2578125 0.254150391
vt 0.223632812 0.216796875
vt 0.331787109 0.290039062
vt 0.293945312 0.254150391
vt 0.2578125 0.216796875
vt 0.370849609 0.325927734
vt 0.331787109 0.254150391
vt 0.331787109 0.216796875
vt 0.293945312 0.216796875
vt 0.370849609 0.254150391
vt 0.293945312 0.177490234
vt 0.2578125 0.177490234
vt 0.370849609 0.290039062
vt 0.223632812 0.177490234
vt 0.185302734 0.138061523
vt 0.153930664 0.138061523
vt 0.185302734 0.0987548828
vt 0.153930664 0.0987548828
vt 0.223632812 0.138061523
vt 0.2578125 0.138061523
vt 0.185302734 0.0615234375
vt 0.153930664 0.0615234375
vt 0.223632812 0.0615234375
vt 0.223632812 0.0987548828
vt 0.2578125 0.0615234375
vt 0.2578125 0.0987548828
vt 0.293945312 0.0615234375
vt 0.293945312 0.0987548828
vt 0.331787109 0.0615234375
vt 0.293945312 0.138061523
vt 0.331787109 0.0987548828
vt 0.370849609 0.0615234375
vt 0.331787109 0.138061523
vt 0.370849609 0.0987548828
vt 0.403564453 0.0615234375
vt 0.403564453 0.0987548828
vt 0.370849609 0.138061523
vt 0.403564453 0.138061523
vt 0.370849609 0.177490234
vt 0.403564453 0.177490234
vt 0.331787109 0.177490234
vt 0.370849609 0.216796875
vt 0.403564453 0.216796875
vt 0.403564453 0.254150391
vt 0.403564453 0.290039062
vt 0.403564453 0.325927734
vt 0.403564453 0.359863281
vt 0.370849609 0.393798828
vt 0.452636719 0.466064453
vt 0.469238281 0.452636719
vt 0.461181641 0.437255859
vt 0.440673828 0.453857422
vt 0.426513672 0.478027344
vt 0.440917969 0.485107422
vt 0.421142578 0.505859375
vt 0.436279297 0.507324219
vt 0.439453125 0.529296875
vt 0.425292969 0.533691406
vt 0.4375 0.557128906
vt 0.449462891 0.548339844
vt 0.464599609 0.5625
vt 0.456298828 0.575195312
vt 0.479980469 0.585449219
vt 0.483642578 0.571289062
vt 0.50390625 0.587890625
vt 0.503417969 0.573242188
vt 0.522949219 0.569335938
vt 0.527832031 0.583007812
vt 0.549316406 0.571777344
vt 0.540527344 0.560058594
vt 0.568359375 0.549804688
vt 0.555664062 0.541992188
vt 0.563964844 0.520019531
vt 0.578613281 0.521972656
vt 0.578613281 0.493896484
vt 0.563476562 0.497314453
vt 0.568847656 0.467529297
vt 0.555664062 0.476318359
vt 0.552734375 0.447753906
vt 0.542480469 0.460693359
vt 0.531738281 0.434326172
vt 0.525878906 0.450195312
vt 0.506835938 0.4453125
vt 0.508300781 0.427978516
vt 0.483886719 0.429199219
vt 0.487548828 0.446289062
vt 0.461181641 0.437255859
vt 0.469238281 0.452636719
vt 0.153930664 0.0615234375
vt 0.132080078 0.0615234375
vt 0.132080078 0.0987548828
vt 0.153930664 0.0987548828
vt 0.132080078 0.138061523
vt 0.153930664 0.138061523
vt 0.132080078 0.177490234
vt 0.153930664 0.177490234
vt 0.132080078 0.216796875
vt 0.153930664 0.216796875
vt 0.132080078 0.254150391
vt 0.153930664 0.254150391
vt 0.132080078 0.290039062
vt 0.153930664 0.290039062
vt 0.132080078 0.325927734
vt 0.153930664 0.325927734
vt 0.132080078 0.359863281
vt 0.153930664 0.359863281
vt 0.132080078 0.393798828
vt 0.153930664 0.393798828
vt 0.132080078 0.427734375
vt 0.153930664 0.427734375
vt 0.132080078 0.468505859
vt 0.153930664 0.468505859
vt 0.132080078 0.509277344
vt 0.153930664 0.509277344
vt 0.132080078 0.548339844
vt 0.153930664 0.548339844
vt 0.132080078 0.587402344
vt 0.153930664 0.587402344
vt 0.132080078 0.623046875
vt 0.153930664 0.623046875
vt 0.132080078 0.657714844
vt 0.153930664 0.657714844
vt 0.132080078 0.691894531
vt 0.153930664 0.691894531
vt 0.132080078 0.726074219
vt 0.153930664 0.726074219
vt 0.153930664 0.027633667
vt 0.132080078 0.027633667
vt 0.132080078 0.0615234375
vt 0.153930664 0.0615234375
vt 0.492675781 0.252441406
vt 0.5234375 0.178466797
vt 0.509765625 0.170776367
vt 0.458007812 0.229248047
vt 0.499511719 0.159301758
vt 0.43359375 0.197143555
vt 0.493652344 0.145141602
vt 0.421142578 0.159790039
vt 0.492431641 0.129882812
vt 0.421142578 0.121765137
vt 0.49609375 0.114929199
vt 0.432617188 0.0867919922
vt 0.504882812 0.102172852
vt 0.450927734 0.0550842285
vt 0.516601562 0.0928955078
vt 0.479248047 0.0299530029
vt 0.53125 0.087890625
vt 0.514648438 0.0145568848
vt 0.546386719 0.0876464844
vt 0.5546875 0.01121521
vt 0.561035156 0.0923461914
vt 0.594238281 0.0210266113
vt 0.573730469 0.10168457
vt 0.629394531 0.0436401367
vt 0.582519531 0.114685059
vt 0.655761719 0.077331543
vt 0.586425781 0.129882812
vt 0.670410156 0.119018555
vt 0.584960938 0.145629883
vt 0.669921875 0.164550781
vt 0.578613281 0.159545898
vt 0.653808594 0.209106445
vt 0.568359375 0.171142578
vt 0.619628906 0.241699219
vt 0.554199219 0.178833008
vt 0.578125 0.260009766
vt 0.538574219 0.181396484
vt 0.534179688 0.263427734
vt 0.5234375 0.178466797
vt 0.492675781 0.252441406
vt 0.538574219 0.181396484
vt 0.52734375 0.167236328
vt 0.5234375 0.178466797
vt 0.5390625 0.169311523
vt 0.530761719 0.156982422
vt 0.554199219 0.178833008
vt 0.5390625 0.158447266
vt 0.550292969 0.167236328
vt 0.568359375 0.171142578
vt 0.546875 0.157226562
vt 0.560546875 0.161865234
vt 0.578613281 0.159545898
vt 0.554199219 0.153320312
vt 0.568359375 0.153320312
vt 0.559570312 0.147338867
vt 0.584960938 0.145629883
vt 0.562988281 0.139892578
vt 0.573242188 0.142822266
vt 0.586425781 0.129882812
vt 0.57421875 0.131225586
vt 0.563476562 0.131835938
vt 0.582519531 0.114685059
vt 0.571289062 0.119812012
vt 0.561523438 0.124084473
vt 0.573730469 0.10168457
vt 0.564941406 0.110046387
vt 0.557128906 0.11730957
vt 0.561035156 0.0923461914
vt 0.555664062 0.103027344
vt 0.55078125 0.112426758
vt 0.546386719 0.0876464844
vt 0.544921875 0.0993652344
vt 0.54296875 0.109924316
vt 0.53125 0.087890625
vt 0.533203125 0.0994262695
vt 0.53515625 0.109985352
vt 0.516601562 0.0928955078
vt 0.522460938 0.103149414
vt 0.52734375 0.112670898
vt 0.504882812 0.102172852
vt 0.513183594 0.110351562
vt 0.520996094 0.117492676
vt 0.49609375 0.114929199
vt 0.506835938 0.119995117
vt 0.516601562 0.124145508
vt 0.492431641 0.129882812
vt 0.50390625 0.131103516
vt 0.514648438 0.131835938
vt 0.493652344 0.145141602
vt 0.504882812 0.142578125
vt 0.515625 0.139892578
vt 0.499511719 0.159301758
vt 0.509765625 0.153076172
vt 0.518554688 0.147216797
vt 0.509765625 0.170776367
vt 0.517578125 0.161621094
vt 0.5234375 0.178466797
vt 0.523925781 0.153198242
vt 0.52734375 0.167236328
vt 0.530761719 0.156982422
vt 0.578125 0.3125
vt 0.502441406 0.346191406
vt 0.584960938 0.335693359
vt 0.565429688 0.292236328
vt 0.546875 0.276367188
vt 0.523925781 0.266113281
vt 0.49609375 0.263671875
vt 0.469238281 0.270263672
vt 0.444824219 0.286621094
vt 0.427490234 0.310058594
vt 0.421142578 0.333984375
vt 0.421142578 0.358642578
vt 0.427978516 0.382080078
vt 0.442382812 0.403320312
vt 0.462890625 0.419189453
vt 0.488037109 0.427734375
vt 0.516113281 0.427734375
vt 0.541992188 0.418701172
vt 0.564453125 0.401855469
vt 0.578613281 0.379638672
vt 0.584960938 0.356689453
vt 0.555664062 0.476318359
vt 0.500488281 0.509277344
vt 0.563476562 0.497314453
vt 0.542480469 0.460693359
vt 0.563964844 0.520019531
vt 0.525878906 0.450195312
vt 0.555664062 0.541992188
vt 0.506835938 0.4453125
vt 0.540527344 0.560058594
vt 0.487548828 0.446289062
vt 0.522949219 0.569335938
vt 0.469238281 0.452636719
vt 0.503417969 0.573242188
vt 0.452636719 0.466064453
vt 0.483642578 0.571289062
vt 0.440917969 0.485107422
vt 0.464599609 0.5625
vt 0.436279297 0.507324219
vt 0.449462891 0.548339844
vt 0.439453125 0.529296875
vt 0.5390625 0.133911133
vt 0.546875 0.157226562
vt 0.554199219 0.153320312
vt 0.5390625 0.158447266
vt 0.559570312 0.147338867
vt 0.530761719 0.156982422
vt 0.562988281 0.139892578
vt 0.523925781 0.153198242
vt 0.563476562 0.131835938
vt 0.518554688 0.147216797
vt 0.561523438 0.124084473
vt 0.515625 0.139892578
vt 0.557128906 0.11730957
vt 0.514648438 0.131835938
vt 0.55078125 0.112426758
vt 0.516601562 0.124145508
vt 0.54296875 0.109924316
vt 0.520996094 0.117492676
vt 0.53515625 0.109985352
vt 0.52734375 0.112670898
vn -0.192993164 -0.676269531 -0.7109375
vn -0.436035156 -0.518554688 -0.735839844
vn -0.448730469 -0.567871094 -0.689941406
vn -0.17175293 -0.630859375 -0.756835938
vn -0.123413086 -0.526367188 -0.841308594
vn -0.404052734 -0.40625 -0.819335938
vn -0.356201172 -0.265869141 -0.895996094
vn -0.0640869141 -0.391113281 -0.91796875
vn -0.298339844 -0.1171875 -0.947265625
vn -0.00271224976 -0.244506836 -0.969726562
vn -0.23449707 0.0295410156 -0.971679688
vn 0.0566711426 -0.096496582 -0.993652344
vn -0.174194336 0.15612793 -0.972167969
vn 0.106811523 0.0336303711 -0.993652344
vn -0.147949219 0.208740234 -0.966796875
vn 0.127685547 0.0878295898 -0.987792969
vn 0.0435180664 -0.756835938 -0.65234375
vn -0.17175293 -0.630859375 -0.756835938
vn -0.192993164 -0.676269531 -0.7109375
vn 0.0738525391 -0.714355469 -0.695800781
vn 0.265136719 -0.811523438 -0.520507812
vn 0.137329102 -0.615234375 -0.776367188
vn -0.123413086 -0.526367188 -0.841308594
vn -0.0640869141 -0.391113281 -0.91796875
vn 0.303466797 -0.771972656 -0.55859375
vn 0.447509766 -0.833496094 -0.323974609
vn 0.207397461 -0.484130859 -0.850097656
vn -0.00271224976 -0.244506836 -0.969726562
vn 0.492675781 -0.794433594 -0.354736328
vn 0.367431641 -0.930175781 0.00525283813
vn 0.380859375 -0.676269531 -0.630371094
vn 0.271972656 -0.339111328 -0.900390625
vn 0.0566711426 -0.096496582 -0.993652344
vn 0.581054688 -0.700683594 -0.413818359
vn 0.4609375 -0.547851562 -0.698242188
vn 0.622070312 -0.77734375 -0.092590332
vn 0.415283203 -0.877929688 0.23840332
vn 0.718261719 -0.682617188 -0.135620117
vn 0.667480469 -0.716796875 0.201293945
vn 0.381591797 -0.795410156 0.470458984
vn 0.669433594 -0.573730469 -0.472167969
vn 0.528808594 -0.404052734 -0.746582031
vn 0.615234375 -0.620605469 0.486328125
vn 0.262207031 -0.692382812 0.671875
vn 0.765625 -0.618652344 0.176025391
vn 0.811523438 -0.555175781 -0.182373047
vn 0.465820312 -0.497558594 0.731933594
vn 0.0642700195 -0.577636719 0.813964844
vn 0.710449219 -0.516601562 0.478027344
vn 0.327392578 -0.190063477 -0.92578125
vn 0.739257812 -0.430175781 -0.518066406
vn 0.860839844 -0.488769531 0.142333984
vn 0.224853516 -0.356445312 0.906738281
vn -0.147338867 -0.48046875 0.864746094
vn 0.580078125 -0.254150391 -0.773925781
vn 0.368164062 -0.0573120117 -0.927734375
vn 0.106811523 0.0336303711 -0.993652344
vn 0.127685547 0.0878295898 -0.987792969
vn 0.383544922 -0.00151443481 -0.923339844
vn 0.612304688 -0.119812012 -0.78125
vn 0.622558594 -0.0631713867 -0.779785156
vn 0.813476562 -0.145751953 -0.563476562
vn 0.819335938 -0.0889282227 -0.565917969
vn 0.788085938 -0.280273438 -0.548339844
vn 0.950195312 -0.129272461 -0.283203125
vn 0.954101562 -0.0728759766 -0.291259766
vn 0.883300781 -0.411865234 -0.224243164
vn 0.9296875 -0.262695312 -0.258789062
vn 0.997070312 -0.0668945312 0.0306091309
vn 1 -0.012008667 0.0160369873
vn 0.932617188 -0.345458984 0.104614258
vn 0.978027344 -0.197875977 0.0654907227
vn 0.941894531 0.0363769531 0.333984375
vn 0.9453125 0.0894165039 0.312988281
vn 0.803222656 -0.382324219 0.456787109
vn 0.874511719 -0.237548828 0.422851562
vn 0.920898438 -0.0914306641 0.379394531
vn 0.78515625 0.17199707 0.595214844
vn 0.792480469 0.22277832 0.567871094
vn 0.552734375 -0.385253906 0.738769531
vn 0.640136719 -0.244873047 0.728515625
vn 0.298095703 -0.234375 0.925292969
vn 0.709960938 -0.0974121094 0.697753906
vn 0.758789062 0.047668457 0.649902344
vn 0.53125 0.328613281 0.780761719
vn 0.543457031 0.377197266 0.75
vn 0.375488281 -0.0864868164 0.922851562
vn 0.0241241455 -0.102111816 0.994628906
vn 0.442626953 0.0643310547 0.89453125
vn 0.495605469 0.208374023 0.843261719
vn 0.254882812 0.459228516 0.851074219
vn 0.271972656 0.504882812 0.819335938
vn 0.0895996094 0.0505371094 0.994628906
vn 0.152832031 0.202392578 0.967285156
vn 0.209960938 0.34375 0.915039062
vn 0.000476837158 0.558105469 0.829589844
vn 0.0232696533 0.6015625 0.798339844
vn -0.265136719 0.639160156 0.722167969
vn -0.237304688 0.681152344 0.692382812
vn -0.0534667969 0.446289062 0.893554688
vn -0.114379883 0.306396484 0.944824219
vn -0.174316406 0.153198242 0.97265625
vn -0.50390625 0.684082031 0.52734375
vn -0.471435547 0.725585938 0.501464844
vn -0.328369141 0.529785156 0.781738281
vn -0.393310547 0.391113281 0.83203125
vn -0.678222656 0.685058594 0.266357422
vn -0.642578125 0.726074219 0.245727539
vn -0.575195312 0.577148438 0.580078125
vn -0.767578125 0.640136719 -0.0351867676
vn -0.729980469 0.681640625 -0.0495605469
vn -0.229125977 -0.00366592407 0.973144531
vn -0.449951172 0.236816406 0.861328125
vn -0.643554688 0.439453125 0.626953125
vn -0.754394531 0.578613281 0.309814453
vn -0.758789062 0.5546875 -0.341308594
vn -0.721679688 0.598144531 -0.348632812
vn -0.493652344 0.0765380859 0.866210938
vn -0.271240234 -0.138793945 0.952636719
vn -0.696777344 0.28515625 0.658203125
vn -0.825195312 0.441650391 0.352539062
vn -0.846191406 0.532714844 -0.00229263306
vn -0.73046875 0.123596191 0.671875
vn -0.875976562 0.288330078 0.387207031
vn -0.917480469 0.395996094 0.0357055664
vn -0.520507812 -0.063293457 0.8515625
vn -0.90234375 0.127563477 0.411132812
vn -0.990234375 0.0862426758 0.110290527
vn -0.966796875 0.244262695 0.0740356445
vn -0.90625 -0.0139694214 0.423095703
vn -0.95703125 0.157104492 -0.243286133
vn -0.907714844 0.307373047 -0.285400391
vn -0.743652344 -0.0184631348 0.668457031
vn -0.836914062 0.444824219 -0.318847656
vn -0.650878906 0.439208984 -0.619140625
vn -0.616210938 0.485351562 -0.620117188
vn -0.448486328 0.301025391 -0.841796875
vn -0.417480469 0.350830078 -0.838378906
vn -0.726074219 0.324707031 -0.605957031
vn -0.795898438 0.184692383 -0.576660156
vn -0.174194336 0.15612793 -0.972167969
vn -0.147949219 0.208740234 -0.966796875
vn -0.23449707 0.0295410156 -0.971679688
vn -0.517578125 0.180297852 -0.836425781
vn -0.298339844 -0.1171875 -0.947265625
vn -0.585449219 0.0367736816 -0.810058594
vn -0.356201172 -0.265869141 -0.895996094
vn -0.639160156 -0.112731934 -0.760742188
vn -0.404052734 -0.40625 -0.819335938
vn -0.846679688 0.0350036621 -0.530761719
vn -0.675292969 -0.258544922 -0.690429688
vn -0.436035156 -0.518554688 -0.735839844
vn -0.875 -0.115234375 -0.470458984
vn -0.691894531 -0.378662109 -0.614746094
vn -0.448730469 -0.567871094 -0.689941406
vn -0.695800781 -0.432617188 -0.573242188
vn -0.879882812 -0.242431641 -0.408447266
vn -0.876953125 -0.301025391 -0.374755859
vn -0.98046875 -0.130371094 -0.148681641
vn -0.911621094 -0.409179688 -0.0421447754
vn -0.980957031 0.00288200378 -0.194702148
vn -0.988769531 -0.0520629883 0.139160156
vn -0.922363281 -0.337158203 0.188476562
vn -0.855957031 -0.302001953 0.419677734
vn -0.723632812 -0.304931641 0.619140625
vn -0.541503906 -0.342285156 0.767578125
vn -0.33984375 -0.405029297 0.848632812
vn -0.0328979492 -0.231445312 0.972167969
vn -0.544921875 -0.836914062 -0.0503845215
vn -0.447265625 -0.890136719 -0.0871582031
vn -0.462402344 -0.86328125 -0.201904297
vn -0.590820312 -0.791503906 -0.156738281
vn -0.701171875 -0.709472656 -0.0714111328
vn -0.625976562 -0.779785156 0.0179138184
vn -0.911621094 -0.409179688 -0.0421447754
vn -0.677246094 -0.7265625 0.114868164
vn -0.688476562 -0.686523438 0.232910156
vn -0.922363281 -0.337158203 0.188476562
vn -0.855957031 -0.302001953 0.419677734
vn -0.655761719 -0.666992188 0.353759766
vn -0.586425781 -0.66796875 0.458251953
vn -0.723632812 -0.304931641 0.619140625
vn -0.541503906 -0.342285156 0.767578125
vn -0.491210938 -0.687011719 0.53515625
vn -0.33984375 -0.405029297 0.848632812
vn -0.385742188 -0.720214844 0.576660156
vn -0.286376953 -0.759277344 0.583984375
vn -0.147338867 -0.48046875 0.864746094
vn 0.0642700195 -0.577636719 0.813964844
vn -0.174194336 -0.809570312 0.560546875
vn 0.262207031 -0.692382812 0.671875
vn -0.0693969727 -0.870605469 0.487060547
vn -0.0089263916 -0.924804688 0.379882812
vn 0.381591797 -0.795410156 0.470458984
vn 0.415283203 -0.877929688 0.23840332
vn 0.00180721283 -0.966308594 0.2578125
vn 0.367431641 -0.930175781 0.00525283813
vn -0.0311584473 -0.989746094 0.139770508
vn 0.0137939453 -0.999511719 -0.0353393555
vn -0.0942382812 -0.994628906 0.0428161621
vn -0.0939331055 -0.987304688 -0.128295898
vn -0.17199707 -0.984863281 -0.0283966064
vn -0.260253906 -0.962890625 -0.0743408203
vn -0.213623047 -0.958496094 -0.18762207
vn -0.335449219 -0.91796875 -0.211791992
vn -0.351318359 -0.931640625 -0.0930786133
vn -0.462402344 -0.86328125 -0.201904297
vn -0.447265625 -0.890136719 -0.0871582031
vn 0.161132812 0.702636719 -0.692871094
vn 0.211547852 0.765625 -0.607421875
vn 0.0867919922 0.824707031 -0.55859375
vn 0.00422286987 0.772460938 -0.634765625
vn -0.0185241699 0.883300781 -0.468261719
vn -0.136352539 0.83984375 -0.525390625
vn -0.0865478516 0.935546875 -0.342773438
vn -0.234375 0.900878906 -0.365234375
vn -0.102966309 0.975585938 -0.193359375
vn -0.263183594 0.949707031 -0.169433594
vn -0.0631103516 0.997070312 -0.042755127
vn -0.21484375 0.976074219 0.0287017822
vn 0.0227508545 0.99609375 0.0865478516
vn -0.10333252 0.974609375 0.197631836
vn 0.140991211 0.973144531 0.181518555
vn 0.0516357422 0.945800781 0.321044922
vn 0.271972656 0.93359375 0.232788086
vn 0.221435547 0.89453125 0.388427734
vn 0.395263672 0.886230469 0.24230957
vn 0.383300781 0.831054688 0.402832031
vn 0.531738281 0.819824219 0.213134766
vn 0.558105469 0.747558594 0.360107422
vn 0.66015625 0.741210938 0.122741699
vn 0.725097656 0.643066406 0.245605469
vn 0.736328125 0.676269531 -0.0102844238
vn 0.826171875 0.559082031 0.0697631836
vn 0.755371094 0.634277344 -0.16418457
vn 0.849121094 0.510742188 -0.134033203
vn 0.721679688 0.616699219 -0.314697266
vn 0.802246094 0.498046875 -0.329345703
vn 0.648925781 0.62109375 -0.439697266
vn 0.708984375 0.510253906 -0.486816406
vn 0.5546875 0.640136719 -0.531738281
vn 0.589355469 0.540039062 -0.601074219
vn 0.445800781 0.672363281 -0.591308594
vn 0.452392578 0.583984375 -0.674316406
vn 0.332519531 0.714355469 -0.615722656
vn 0.310791016 0.637695312 -0.704589844
vn 0.310791016 0.637695312 -0.704589844
vn 0.332519531 0.714355469 -0.615722656
vn 0.211547852 0.765625 -0.607421875
vn 0.161132812 0.702636719 -0.692871094
vn -0.0780029297 -0.205322266 -0.975585938
vn -0.0780029297 -0.205322266 -0.975585938
vn -0.374023438 -0.0704345703 -0.924804688
vn -0.374023438 -0.0704345703 -0.924804688
vn -0.628417969 0.0738525391 -0.774414062
vn -0.628417969 0.0738525391 -0.774414062
vn -0.814453125 0.211914062 -0.540039062
vn -0.814453125 0.211914062 -0.540039062
vn -0.911132812 0.328613281 -0.248168945
vn -0.911132812 0.328613281 -0.248168945
vn -0.908691406 0.411621094 0.0703125
vn -0.908691406 0.411621094 0.0703125
vn -0.806640625 0.451660156 0.380859375
vn -0.806640625 0.451660156 0.380859375
vn -0.616699219 0.444580078 0.649414062
vn -0.616699219 0.444580078 0.649414062
vn -0.359375 0.391113281 0.847167969
vn -0.359375 0.391113281 0.847167969
vn -0.0622253418 0.296875 0.953125
vn -0.0622253418 0.296875 0.953125
vn 0.242431641 0.172241211 0.954589844
vn 0.242431641 0.172241211 0.954589844
vn 0.521484375 0.0306854248 0.852539062
vn 0.521484375 0.0306854248 0.852539062
vn 0.744628906 -0.112426758 0.657714844
vn 0.744628906 -0.112426758 0.657714844
vn 0.888183594 -0.241577148 0.391113281
vn 0.888183594 -0.241577148 0.391113281
vn 0.936035156 -0.342773438 0.0816040039
vn 0.936035156 -0.342773438 0.0816040039
vn 0.8828125 -0.405273438 -0.237182617
vn 0.8828125 -0.405273438 -0.237182617
vn 0.734863281 -0.421875 -0.530761719
vn 0.734863281 -0.421875 -0.530761719
vn 0.508300781 -0.391113281 -0.767089844
vn 0.508300781 -0.391113281 -0.767089844
vn 0.227050781 -0.316162109 -0.920898438
vn 0.227050781 -0.316162109 -0.920898438
vn -0.0780029297 -0.205322266 -0.975585938
vn -0.0780029297 -0.205322266 -0.975585938
vn 0.387451172 0.218505859 -0.895507812
vn 0.182373047 0.432617188 -0.8828125
vn 0.13293457 0.311035156 -0.940917969
vn 0.41015625 0.349853516 -0.842285156
vn 0.23449707 0.561523438 -0.793457031
vn 0.622070312 0.156005859 -0.767089844
vn 0.42578125 0.491943359 -0.759765625
vn 0.620117188 0.293945312 -0.727539062
vn 0.811035156 0.130371094 -0.569824219
vn 0.602050781 0.444824219 -0.663085938
vn 0.789550781 0.270996094 -0.55078125
vn 0.934570312 0.144287109 -0.325195312
vn 0.744140625 0.425537109 -0.514648438
vn 0.899902344 0.283447266 -0.331542969
vn 0.836914062 0.436035156 -0.330810547
vn 0.978515625 0.196411133 -0.0591430664
vn 0.870117188 0.475097656 -0.130859375
vn 0.939453125 0.330078125 -0.0936279297
vn 0.938964844 0.281005859 0.198974609
vn 0.903808594 0.405761719 0.137451172
vn 0.840332031 0.538574219 0.0632324219
vn 0.819335938 0.388671875 0.421386719
vn 0.796875 0.501953125 0.336425781
vn 0.750488281 0.619628906 0.23046875
vn 0.633300781 0.508300781 0.583984375
vn 0.629882812 0.608886719 0.481933594
vn 0.610351562 0.709472656 0.352783203
vn 0.400390625 0.625976562 0.668945312
vn 0.421630859 0.71484375 0.558105469
vn 0.435302734 0.797851562 0.416748047
vn 0.146240234 0.729980469 0.667480469
vn 0.194213867 0.807617188 0.556640625
vn 0.244262695 0.875976562 0.415771484
vn -0.1015625 0.80859375 0.579589844
vn -0.027633667 0.877929688 0.478027344
vn 0.0579223633 0.935058594 0.349365234
vn -0.31640625 0.853515625 0.414306641
vn -0.219848633 0.91796875 0.330322266
vn -0.10357666 0.96875 0.225341797
vn -0.474853516 0.859375 0.190307617
vn -0.361572266 0.923339844 0.129638672
vn -0.22265625 0.973144531 0.0568237305
vn -0.559570312 0.825683594 -0.0686035156
vn -0.437744141 0.893554688 -0.102050781
vn -0.286621094 0.948242188 -0.137817383
vn -0.562011719 0.756835938 -0.334228516
vn -0.439697266 0.831542969 -0.33984375
vn -0.288085938 0.895996094 -0.337646484
vn -0.481201172 0.659179688 -0.577636719
vn -0.367431641 0.744140625 -0.558105469
vn -0.227416992 0.822753906 -0.520996094
vn -0.326171875 0.543945312 -0.772949219
vn -0.228637695 0.641113281 -0.732421875
vn -0.110778809 0.736328125 -0.667480469
vn -0.113830566 0.423583984 -0.8984375
vn -0.038482666 0.533203125 -0.844726562
vn 0.13293457 0.311035156 -0.940917969
vn 0.0488891602 0.645996094 -0.76171875
vn 0.182373047 0.432617188 -0.8828125
vn 0.23449707 0.561523438 -0.793457031
vn 0.445800781 0.672363281 -0.591308594
vn 0.369140625 0.898925781 -0.236938477
vn 0.332519531 0.714355469 -0.615722656
vn 0.5546875 0.640136719 -0.531738281
vn 0.648925781 0.62109375 -0.439697266
vn 0.721679688 0.616699219 -0.314697266
vn 0.755371094 0.634277344 -0.16418457
vn 0.736328125 0.676269531 -0.0102844238
vn 0.66015625 0.741210938 0.122741699
vn 0.531738281 0.819824219 0.213134766
vn 0.395263672 0.886230469 0.24230957
vn 0.271972656 0.93359375 0.232788086
vn 0.140991211 0.973144531 0.181518555
vn 0.0227508545 0.99609375 0.0865478516
vn -0.0631103516 0.997070312 -0.042755127
vn -0.102966309 0.975585938 -0.193359375
vn -0.0865478516 0.935546875 -0.342773438
vn -0.0185241699 0.883300781 -0.468261719
vn 0.0867919922 0.824707031 -0.55859375
vn 0.211547852 0.765625 -0.607421875
vn 0.332519531 0.714355469 -0.615722656
vn -0.0311584473 -0.989746094 0.139770508
vn -0.368896484 -0.898925781 0.237060547
vn 0.00180721283 -0.966308594 0.2578125
vn -0.0942382812 -0.994628906 0.0428161621
vn -0.0089263916 -0.924804688 0.379882812
vn -0.17199707 -0.984863281 -0.0283966064
vn -0.0693969727 -0.870605469 0.487060547
vn -0.260253906 -0.962890625 -0.0743408203
vn -0.174194336 -0.809570312 0.560546875
vn -0.351318359 -0.931640625 -0.0930786133
vn -0.286376953 -0.759277344 0.583984375
vn -0.447265625 -0.890136719 -0.0871582031
vn -0.385742188 -0.720214844 0.576660156
vn -0.544921875 -0.836914062 -0.0503845215
vn -0.491210938 -0.687011719 0.53515625
vn -0.625976562 -0.779785156 0.0179138184
vn -0.586425781 -0.66796875 0.458251953
vn -0.677246094 -0.7265625 0.114868164
vn -0.655761719 -0.666992188 0.353759766
vn -0.688476562 -0.686523438 0.232910156
vn 0.369140625 0.898925781 -0.237060547
vn 0.395996094 0.875 -0.278564453
vn 0.408447266 0.873046875 -0.265625
vn 0.380615234 0.87890625 -0.287109375
vn 0.416503906 0.874023438 -0.249511719
vn 0.363769531 0.885253906 -0.290039062
vn 0.419433594 0.877441406 -0.231933594
vn 0.34765625 0.892578125 -0.287353516
vn 0.416992188 0.883300781 -0.21496582
vn 0.333496094 0.900390625 -0.279052734
vn 0.408935547 0.890136719 -0.200317383
vn 0.323486328 0.908203125 -0.266113281
vn 0.396728516 0.897949219 -0.189575195
vn 0.318115234 0.914550781 -0.25
vn 0.381347656 0.905761719 -0.183959961
vn 0.318115234 0.918945312 -0.232543945
vn 0.364746094 0.912597656 -0.184082031
vn 0.323730469 0.921386719 -0.215454102
vn 0.348388672 0.91796875 -0.189941406
vn 0.334228516 0.920898438 -0.200805664
g Chair_Leg_02_0
f 3/3/3 2/2/2 1/1/1
f 2/2/2 4/4/4 1/1/1
f 5/5/5 4/4/4 2/2/2
f 6/6/6 5/5/5 2/2/2
f 6/6/6 7/7/7 5/5/5
f 7/7/7 8/8/8 5/5/5
f 7/7/7 9/9/9 8/8/8
f 9/9/9 10/10/10 8/8/8
f 9/9/9 11/11/11 10/10/10
f 11/11/11 12/12/12 10/10/10
f 12/12/12 11/11/11 13/13/13
f 14/14/14 12/12/12 13/13/13
f 13/13/13 15/15/15 14/14/14
f 15/15/15 16/16/16 14/14/14
f 19/19/19 18/18/18 17/17/17
f 18/18/18 20/20/20 17/17/17
f 17/17/17 20/20/20 21/21/21
f 22/22/22 20/20/20 18/18/18
f 23/23/23 22/22/22 18/18/18
f 23/23/23 24/24/24 22/22/22
f 20/20/20 25/25/25 21/21/21
f 25/25/25 20/20/20 22/22/22
f 21/21/21 25/25/25 26/26/26
f 24/24/24 27/27/27 22/22/22
f 24/24/24 28/28/28 27/27/27
f 25/25/25 29/29/29 26/26/26
f 26/26/26 29/29/29 30/30/30
f 31/31/31 25/25/25 22/22/22
f 22/22/22 27/27/27 31/31/31
f 28/28/28 32/32/32 27/27/27
f 28/28/28 33/33/33 32/32/32
f 31/31/31 34/34/34 25/25/25
f 34/34/34 29/29/29 25/25/25
f 27/27/27 35/35/35 31/31/31
f 27/27/27 32/32/32 35/35/35
f 31/31/31 35/35/35 34/34/34
f 29/29/29 36/36/36 30/30/30
f 37/37/37 30/30/30 36/36/36
f 34/34/34 38/38/38 29/29/29
f 38/38/38 36/36/36 29/29/29
f 39/39/39 37/37/37 36/36/36
f 39/39/39 36/36/36 38/38/38
f 37/37/37 39/39/39 40/40/40
f 35/35/35 41/41/41 34/34/34
f 34/34/34 41/41/41 38/38/38
f 32/32/32 42/42/42 35/35/35
f 35/35/35 42/42/42 41/41/41
f 39/39/39 43/43/43 40/40/40
f 40/40/40 43/43/43 44/44/44
f 45/45/45 39/39/39 38/38/38
f 43/43/43 39/39/39 45/45/45
f 41/41/41 46/46/46 38/38/38
f 38/38/38 46/46/46 45/45/45
f 43/43/43 47/47/47 44/44/44
f 44/44/44 47/47/47 48/48/48
f 49/49/49 43/43/43 45/45/45
f 47/47/47 43/43/43 49/49/49
f 32/32/32 50/50/50 42/42/42
f 33/33/33 50/50/50 32/32/32
f 42/42/42 51/51/51 41/41/41
f 41/41/41 51/51/51 46/46/46
f 46/46/46 52/52/52 45/45/45
f 45/45/45 52/52/52 49/49/49
f 47/47/47 53/53/53 48/48/48
f 48/48/48 53/53/53 54/54/54
f 50/50/50 55/55/55 42/42/42
f 42/42/42 55/55/55 51/51/51
f 56/56/56 50/50/50 33/33/33
f 57/57/57 56/56/56 33/33/33
f 57/57/57 58/58/58 56/56/56
f 58/58/58 59/59/59 56/56/56
f 50/50/50 56/56/56 60/60/60
f 56/56/56 59/59/59 60/60/60
f 55/55/55 50/50/50 60/60/60
f 59/59/59 61/61/61 60/60/60
f 60/60/60 61/61/61 62/62/62
f 60/60/60 62/62/62 55/55/55
f 61/61/61 63/63/63 62/62/62
f 55/55/55 64/64/64 51/51/51
f 62/62/62 64/64/64 55/55/55
f 62/62/62 63/63/63 65/65/65
f 62/62/62 65/65/65 64/64/64
f 63/63/63 66/66/66 65/65/65
f 51/51/51 64/64/64 67/67/67
f 51/51/51 67/67/67 46/46/46
f 46/46/46 67/67/67 52/52/52
f 65/65/65 68/68/68 64/64/64
f 64/64/64 68/68/68 67/67/67
f 65/65/65 66/66/66 69/69/69
f 68/68/68 65/65/65 69/69/69
f 66/66/66 70/70/70 69/69/69
f 67/67/67 71/71/71 52/52/52
f 67/67/67 68/68/68 71/71/71
f 72/72/72 68/68/68 69/69/69
f 68/68/68 72/72/72 71/71/71
f 69/69/69 70/70/70 73/73/73
f 72/72/72 69/69/69 73/73/73
f 70/70/70 74/74/74 73/73/73
f 52/52/52 71/71/71 75/75/75
f 52/52/52 75/75/75 49/49/49
f 71/71/71 72/72/72 76/76/76
f 71/71/71 76/76/76 75/75/75
f 77/77/77 72/72/72 73/73/73
f 72/72/72 77/77/77 76/76/76
f 73/73/73 74/74/74 78/78/78
f 77/77/77 73/73/73 78/78/78
f 74/74/74 79/79/79 78/78/78
f 49/49/49 75/75/75 80/80/80
f 80/80/80 47/47/47 49/49/49
f 75/75/75 76/76/76 81/81/81
f 75/75/75 81/81/81 80/80/80
f 80/80/80 82/82/82 47/47/47
f 80/80/80 81/81/81 82/82/82
f 82/82/82 53/53/53 47/47/47
f 76/76/76 77/77/77 83/83/83
f 76/76/76 83/83/83 81/81/81
f 84/84/84 77/77/77 78/78/78
f 77/77/77 84/84/84 83/83/83
f 78/78/78 79/79/79 85/85/85
f 78/78/78 85/85/85 84/84/84
f 79/79/79 86/86/86 85/85/85
f 81/81/81 87/87/87 82/82/82
f 81/81/81 83/83/83 87/87/87
f 82/82/82 88/88/88 53/53/53
f 82/82/82 87/87/87 88/88/88
f 83/83/83 84/84/84 89/89/89
f 83/83/83 89/89/89 87/87/87
f 85/85/85 90/90/90 84/84/84
f 84/84/84 90/90/90 89/89/89
f 85/85/85 86/86/86 91/91/91
f 85/85/85 91/91/91 90/90/90
f 86/86/86 92/92/92 91/91/91
f 87/87/87 89/89/89 93/93/93
f 87/87/87 93/93/93 88/88/88
f 89/89/89 90/90/90 94/94/94
f 89/89/89 94/94/94 93/93/93
f 91/91/91 95/95/95 90/90/90
f 90/90/90 95/95/95 94/94/94
f 91/91/91 92/92/92 96/96/96
f 95/95/95 91/91/91 96/96/96
f 92/92/92 97/97/97 96/96/96
f 96/96/96 97/97/97 98/98/98
f 97/97/97 99/99/99 98/98/98
f 100/100/100 95/95/95 96/96/96
f 96/96/96 98/98/98 100/100/100
f 94/94/94 95/95/95 101/101/101
f 95/95/95 100/100/100 101/101/101
f 93/93/93 94/94/94 102/102/102
f 94/94/94 101/101/101 102/102/102
f 98/98/98 99/99/99 103/103/103
f 99/99/99 104/104/104 103/103/103
f 98/98/98 105/105/105 100/100/100
f 98/98/98 103/103/103 105/105/105
f 101/101/101 100/100/100 106/106/106
f 100/100/100 105/105/105 106/106/106
f 103/103/103 104/104/104 107/107/107
f 104/104/104 108/108/108 107/107/107
f 103/103/103 109/109/109 105/105/105
f 109/109/109 103/103/103 107/107/107
f 107/107/107 108/108/108 110/110/110
f 108/108/108 111/111/111 110/110/110
f 93/93/93 102/102/102 112/112/112
f 88/88/88 93/93/93 112/112/112
f 102/102/102 101/101/101 113/113/113
f 101/101/101 106/106/106 113/113/113
f 106/106/106 105/105/105 114/114/114
f 105/105/105 109/109/109 114/114/114
f 115/115/115 109/109/109 107/107/107
f 107/107/107 110/110/110 115/115/115
f 110/110/110 111/111/111 116/116/116
f 111/111/111 117/117/117 116/116/116
f 112/112/112 102/102/102 118/118/118
f 102/102/102 113/113/113 118/118/118
f 112/112/112 119/119/119 88/88/88
f 112/112/112 118/118/118 119/119/119
f 113/113/113 106/106/106 120/120/120
f 106/106/106 114/114/114 120/120/120
f 114/114/114 109/109/109 121/121/121
f 109/109/109 115/115/115 121/121/121
f 110/110/110 122/122/122 115/115/115
f 110/110/110 116/116/116 122/122/122
f 118/118/118 113/113/113 123/123/123
f 113/113/113 120/120/120 123/123/123
f 120/120/120 114/114/114 124/124/124
f 114/114/114 121/121/121 124/124/124
f 121/121/121 115/115/115 125/125/125
f 115/115/115 122/122/122 125/125/125
f 118/118/118 126/126/126 119/119/119
f 118/118/118 123/123/123 126/126/126
f 120/120/120 124/124/124 127/127/127
f 123/123/123 120/120/120 127/127/127
f 127/127/127 124/124/124 128/128/128
f 124/124/124 121/121/121 129/129/129
f 121/121/121 125/125/125 129/129/129
f 124/124/124 129/129/129 128/128/128
f 127/127/127 130/130/130 123/123/123
f 127/127/127 128/128/128 130/130/130
f 129/129/129 125/125/125 131/131/131
f 129/129/129 131/131/131 128/128/128
f 125/125/125 122/122/122 132/132/132
f 125/125/125 132/132/132 131/131/131
f 123/123/123 133/133/133 126/126/126
f 130/130/130 133/133/133 123/123/123
f 122/122/122 134/134/134 132/132/132
f 116/116/116 134/134/134 122/122/122
f 116/116/116 135/135/135 134/134/134
f 116/116/116 117/117/117 135/135/135
f 117/117/117 136/136/136 135/135/135
f 135/135/135 136/136/136 137/137/137
f 136/136/136 138/138/138 137/137/137
f 135/135/135 139/139/139 134/134/134
f 135/135/135 137/137/137 139/139/139
f 132/132/132 134/134/134 140/140/140
f 134/134/134 139/139/139 140/140/140
f 137/137/137 138/138/138 141/141/141
f 138/138/138 142/142/142 141/141/141
f 141/141/141 143/143/143 137/137/137
f 143/143/143 144/144/144 137/137/137
f 137/137/137 144/144/144 139/139/139
f 144/144/144 143/143/143 145/145/145
f 139/139/139 144/144/144 146/146/146
f 146/146/146 144/144/144 145/145/145
f 140/140/140 139/139/139 146/146/146
f 146/146/146 145/145/145 147/147/147
f 148/148/148 146/146/146 147/147/147
f 140/140/140 146/146/146 148/148/148
f 148/148/148 147/147/147 149/149/149
f 132/132/132 140/140/140 150/150/150
f 150/150/150 140/140/140 148/148/148
f 131/131/131 132/132/132 150/150/150
f 151/151/151 148/148/148 149/149/149
f 150/150/150 148/148/148 151/151/151
f 149/149/149 152/152/152 151/151/151
f 131/131/131 150/150/150 153/153/153
f 153/153/153 150/150/150 151/151/151
f 152/152/152 154/154/154 151/151/151
f 154/154/154 152/152/152 155/155/155
f 156/156/156 154/154/154 155/155/155
f 151/151/151 154/154/154 157/157/157
f 157/157/157 154/154/154 156/156/156
f 153/153/153 151/151/151 157/157/157
f 158/158/158 157/157/157 156/156/156
f 159/159/159 157/157/157 158/158/158
f 153/153/153 157/157/157 159/159/159
f 160/160/160 159/159/159 158/158/158
f 161/161/161 131/131/131 153/153/153
f 161/161/161 153/153/153 159/159/159
f 131/131/131 161/161/161 128/128/128
f 161/161/161 159/159/159 128/128/128
f 162/162/162 159/159/159 160/160/160
f 159/159/159 162/162/162 128/128/128
f 163/163/163 162/162/162 160/160/160
f 128/128/128 162/162/162 130/130/130
f 130/130/130 162/162/162 163/163/163
f 164/164/164 130/130/130 163/163/163
f 133/133/133 130/130/130 164/164/164
f 165/165/165 133/133/133 164/164/164
f 126/126/126 133/133/133 165/165/165
f 166/166/166 126/126/126 165/165/165
f 119/119/119 126/126/126 166/166/166
f 167/167/167 119/119/119 166/166/166
f 168/168/168 119/119/119 167/167/167
f 54/54/54 168/168/168 167/167/167
f 119/119/119 168/168/168 88/88/88
f 53/53/53 168/168/168 54/54/54
f 88/88/88 168/168/168 53/53/53
f 171/171/171 170/170/170 169/169/169
f 172/172/172 171/171/171 169/169/169
f 173/173/173 172/172/172 169/169/169
f 174/174/174 173/173/173 169/169/169
f 175/175/175 173/173/173 174/174/174
f 176/176/176 175/175/175 174/174/174
f 175/175/175 176/176/176 177/177/177
f 178/178/178 175/175/175 177/177/177
f 179/179/179 178/178/178 177/177/177
f 180/180/180 179/179/179 177/177/177
f 179/179/179 180/180/180 181/181/181
f 182/182/182 179/179/179 181/181/181
f 183/183/183 182/182/182 181/181/181
f 184/184/184 183/183/183 181/181/181
f 185/185/185 183/183/183 184/184/184
f 186/186/186 185/185/185 184/184/184
f 185/185/185 186/186/186 187/187/187
f 188/188/188 185/185/185 187/187/187
f 189/189/189 188/188/188 187/187/187
f 190/190/190 189/189/189 187/187/187
f 191/191/191 189/189/189 190/190/190
f 192/192/192 191/191/191 190/190/190
f 191/191/191 192/192/192 193/193/193
f 194/194/194 191/191/191 193/193/193
f 195/195/195 194/194/194 193/193/193
f 196/196/196 195/195/195 193/193/193
f 197/197/197 195/195/195 196/196/196
f 198/198/198 197/197/197 196/196/196
f 199/199/199 197/197/197 198/198/198
f 200/200/200 199/199/199 198/198/198
f 201/201/201 199/199/199 200/200/200
f 202/202/202 201/201/201 200/200/200
f 201/201/201 202/202/202 203/203/203
f 204/204/204 201/201/201 203/203/203
f 205/205/205 204/204/204 203/203/203
f 206/206/206 205/205/205 203/203/203
f 207/207/207 205/205/205 206/206/206
f 208/208/208 207/207/207 206/206/206
f 211/211/211 210/210/210 209/209/209
f 212/212/212 211/211/211 209/209/209
f 213/213/213 211/211/211 212/212/212
f 214/214/214 213/213/213 212/212/212
f 215/215/215 213/213/213 214/214/214
f 216/216/216 215/215/215 214/214/214
f 217/217/217 215/215/215 216/216/216
f 218/218/218 217/217/217 216/216/216
f 219/219/219 217/217/217 218/218/218
f 220/220/220 219/219/219 218/218/218
f 221/221/221 219/219/219 220/220/220
f 222/222/222 221/221/221 220/220/220
f 223/223/223 221/221/221 222/222/222
f 224/224/224 223/223/223 222/222/222
f 225/225/225 223/223/223 224/224/224
f 226/226/226 225/225/225 224/224/224
f 227/227/227 225/225/225 226/226/226
f 228/228/228 227/227/227 226/226/226
f 229/229/229 227/227/227 228/228/228
f 230/230/230 229/229/229 228/228/228
f 231/231/231 229/229/229 230/230/230
f 232/232/232 231/231/231 230/230/230
f 233/233/233 231/231/231 232/232/232
f 234/234/234 233/233/233 232/232/232
f 235/235/235 233/233/233 234/234/234
f 236/236/236 235/235/235 234/234/234
f 237/237/237 235/235/235 236/236/236
f 238/238/238 237/237/237 236/236/236
f 239/239/239 237/237/237 238/238/238
f 240/240/240 239/239/239 238/238/238
f 241/241/241 239/239/239 240/240/240
f 242/242/242 241/241/241 240/240/240
f 243/243/243 241/241/241 242/242/242
f 244/244/244 243/243/243 242/242/242
f 245/245/245 243/243/243 244/244/244
f 246/246/246 245/245/245 244/244/244
f 249/249/249 248/248/248 247/247/247
f 250/250/250 249/249/249 247/247/247
f 253/253/253 252/252/252 251/251/251
f 254/254/254 253/253/253 251/251/251
f 255/255/255 253/253/253 254/254/254
f 256/256/256 255/255/255 254/254/254
f 257/257/257 255/255/255 256/256/256
f 258/258/258 257/257/257 256/256/256
f 259/259/259 257/257/257 258/258/258
f 260/260/260 259/259/259 258/258/258
f 261/261/261 259/259/259 260/260/260
f 262/262/262 261/261/261 260/260/260
f 263/263/263 261/261/261 262/262/262
f 264/264/264 263/263/263 262/262/262
f 265/265/265 263/263/263 264/264/264
f 266/266/266 265/265/265 264/264/264
f 267/267/267 265/265/265 266/266/266
f 268/268/268 267/267/267 266/266/266
f 269/269/269 267/267/267 268/268/268
f 270/270/270 269/269/269 268/268/268
f 271/271/271 269/269/269 270/270/270
f 272/272/272 271/271/271 270/270/270
f 273/273/273 271/271/271 272/272/272
f 274/274/274 273/273/273 272/272/272
f 275/275/275 273/273/273 274/274/274
f 276/276/276 275/275/275 274/274/274
f 277/277/277 275/275/275 276/276/276
f 278/278/278 277/277/277 276/276/276
f 279/279/279 277/277/277 278/278/278
f 280/280/280 279/279/279 278/278/278
f 281/281/281 279/279/279 280/280/280
f 282/282/282 281/281/281 280/280/280
f 283/283/283 281/281/281 282/282/282
f 284/284/284 283/283/283 282/282/282
f 285/285/285 283/283/283 284/284/284
f 286/286/286 285/285/285 284/284/284
f 287/287/287 285/285/285 286/286/286
f 288/288/288 287/287/287 286/286/286
f 289/289/289 287/287/287 288/288/288
f 290/290/290 289/289/289 288/288/288
f 293/293/293 292/292/292 291/291/291
f 292/292/292 294/294/294 291/291/291
f 292/292/292 295/295/295 294/294/294
f 291/291/291 294/294/294 296/296/296
f 295/295/295 297/297/297 294/294/294
f 294/294/294 298/298/298 296/296/296
f 294/294/294 297/297/297 298/298/298
f 296/296/296 298/298/298 299/299/299
f 297/297/297 300/300/300 298/298/298
f 298/298/298 301/301/301 299/299/299
f 298/298/298 300/300/300 301/301/301
f 299/299/299 301/301/301 302/302/302
f 300/300/300 303/303/303 301/301/301
f 301/301/301 304/304/304 302/302/302
f 301/301/301 303/303/303 304/304/304
f 303/303/303 305/305/305 304/304/304
f 302/302/302 304/304/304 306/306/306
f 305/305/305 307/307/307 304/304/304
f 304/304/304 308/308/308 306/306/306
f 307/307/307 308/308/308 304/304/304
f 306/306/306 308/308/308 309/309/309
f 308/308/308 307/307/307 310/310/310
f 308/308/308 310/310/310 309/309/309
f 307/307/307 311/311/311 310/310/310
f 309/309/309 310/310/310 312/312/312
f 310/310/310 311/311/311 313/313/313
f 310/310/310 313/313/313 312/312/312
f 311/311/311 314/314/314 313/313/313
f 312/312/312 313/313/313 315/315/315
f 313/313/313 314/314/314 316/316/316
f 313/313/313 316/316/316 315/315/315
f 314/314/314 317/317/317 316/316/316
f 315/315/315 316/316/316 318/318/318
f 316/316/316 317/317/317 319/319/319
f 316/316/316 319/319/319 318/318/318
f 317/317/317 320/320/320 319/319/319
f 318/318/318 319/319/319 321/321/321
f 319/319/319 320/320/320 322/322/322
f 319/319/319 322/322/322 321/321/321
f 320/320/320 323/323/323 322/322/322
f 321/321/321 322/322/322 324/324/324
f 322/322/322 323/323/323 325/325/325
f 322/322/322 325/325/325 324/324/324
f 323/323/323 326/326/326 325/325/325
f 324/324/324 325/325/325 327/327/327
f 325/325/325 326/326/326 328/328/328
f 325/325/325 328/328/328 327/327/327
f 326/326/326 329/329/329 328/328/328
f 327/327/327 328/328/328 330/330/330
f 328/328/328 329/329/329 331/331/331
f 328/328/328 331/331/331 330/330/330
f 329/329/329 332/332/332 331/331/331
f 330/330/330 331/331/331 333/333/333
f 331/331/331 332/332/332 334/334/334
f 331/331/331 334/334/334 333/333/333
f 332/332/332 335/335/335 334/334/334
f 333/333/333 334/334/334 336/336/336
f 334/334/334 335/335/335 337/337/337
f 334/334/334 337/337/337 336/336/336
f 335/335/335 338/338/338 337/337/337
f 336/336/336 337/337/337 339/339/339
f 337/337/337 338/338/338 340/340/340
f 337/337/337 340/340/340 339/339/339
f 338/338/338 341/341/341 340/340/340
f 339/339/339 340/340/340 342/342/342
f 340/340/340 341/341/341 343/343/343
f 340/340/340 343/343/343 342/342/342
f 341/341/341 344/344/344 343/343/343
f 342/342/342 343/343/343 345/345/345
f 343/343/343 344/344/344 346/346/346
f 343/343/343 346/346/346 345/345/345
f 345/345/345 346/346/346 347/347/347
f 344/344/344 348/348/348 346/346/346
f 346/346/346 349/349/349 347/347/347
f 346/346/346 348/348/348 349/349/349
f 348/348/348 350/350/350 349/349/349
f 353/353/353 352/352/352 351/351/351
f 351/351/351 352/352/352 354/354/354
f 354/354/354 352/352/352 355/355/355
f 355/355/355 352/352/352 356/356/356
f 356/356/356 352/352/352 357/357/357
f 357/357/357 352/352/352 358/358/358
f 358/358/358 352/352/352 359/359/359
f 359/359/359 352/352/352 360/360/360
f 360/360/360 352/352/352 361/361/361
f 361/361/361 352/352/352 362/362/362
f 362/362/362 352/352/352 363/363/363
f 363/363/363 352/352/352 364/364/364
f 364/364/364 352/352/352 365/365/365
f 365/365/365 352/352/352 366/366/366
f 366/366/366 352/352/352 367/367/367
f 367/367/367 352/352/352 368/368/368
f 368/368/368 352/352/352 369/369/369
f 369/369/369 352/352/352 370/370/370
f 370/370/370 352/352/352 371/371/371
f 374/374/374 373/373/373 372/372/372
f 372/372/372 373/373/373 375/375/375
f 376/376/376 373/373/373 374/374/374
f 375/375/375 373/373/373 377/377/377
f 378/378/378 373/373/373 376/376/376
f 377/377/377 373/373/373 379/379/379
f 380/380/380 373/373/373 378/378/378
f 379/379/379 373/373/373 381/381/381
f 382/382/382 373/373/373 380/380/380
f 381/381/381 373/373/373 383/383/383
f 384/384/384 373/373/373 382/382/382
f 383/383/383 373/373/373 385/385/385
f 386/386/386 373/373/373 384/384/384
f 385/385/385 373/373/373 387/387/387
f 388/388/388 373/373/373 386/386/386
f 387/387/387 373/373/373 389/389/389
f 390/390/390 373/373/373 388/388/388
f 389/389/389 373/373/373 391/391/391
f 391/391/391 373/373/373 390/390/390
f 394/394/394 393/393/393 392/392/392
f 393/393/393 395/395/395 392/392/392
f 396/396/396 394/394/394 392/392/392
f 395/395/395 397/397/397 392/392/392
f 398/398/398 396/396/396 392/392/392
f 397/397/397 399/399/399 392/392/392
f 400/400/400 398/398/398 392/392/392
f 399/399/399 401/401/401 392/392/392
f 402/402/402 400/400/400 392/392/392
f 401/401/401 403/403/403 392/392/392
f 404/404/404 402/402/402 392/392/392
f 403/403/403 405/405/405 392/392/392
f 406/406/406 404/404/404 392/392/392
f 405/405/405 407/407/407 392/392/392
f 408/408/408 406/406/406 392/392/392
f 407/407/407 409/409/409 392/392/392
f 410/410/410 408/408/408 392/392/392
f 409/409/409 411/411/411 392/392/392
f 411/411/411 410/410/410 392/392/392
