g Chair_Leg_01
v 0.0924665928 -0.315429986 -0.290231466
v -0.00954818726 -0.276922554 -0.298639178
v 0.0342146158 -0.3427293 -0.277416825
v 0.059851408 -0.244392216 -0.313926578
v 0.153609276 -0.291564375 -0.285520911
v 0.020465374 -0.156264395 -0.329952449
v -0.0592831373 -0.193645686 -0.312385321
v -0.10314548 -0.109645605 -0.311761498
v 0.132722959 -0.215949684 -0.308309197
v 0.212068185 -0.273680419 -0.262307048
v -0.017157197 -0.0693394765 -0.33070311
v -0.13907443 -0.0283765495 -0.296202779
v 0.20239687 -0.194638863 -0.28063032
v 0.265165329 -0.263367295 -0.218736529
v 0.104203701 -0.123580456 -0.323497415
v -0.0513834953 0.0127277141 -0.315519452
v -0.167230964 0.0476094894 -0.26916039
v 0.184267402 -0.0990917385 -0.291691035
v 0.0731329918 -0.0340982378 -0.323742986
v 0.265676975 -0.182351828 -0.228692055
v 0.303513646 -0.262876928 -0.160886526
v 0.256983966 -0.0849724635 -0.232007608
v 0.311376095 -0.181772232 -0.159737468
v 0.323627353 -0.272709846 -0.0922858715
v 0.159461021 -0.00769344671 -0.289448142
v 0.0406947136 0.048666805 -0.308421493
v 0.3353405 -0.193497479 -0.077968955
v 0.337035775 -0.0977801904 -0.0588085651
v 0.321302742 -0.293005496 -0.0189528465
v 0.332569331 -0.217691213 0.00944793224
v 0.295979708 -0.320912957 0.0474277735
v 0.309497833 -0.0843064412 -0.152770624
v 0.237867117 0.00753054023 -0.2250949
v -0.0815690756 0.0877626464 -0.288030148
v 0.128732204 0.0755944699 -0.273447514
v 0.294489861 0.00824867189 -0.139658079
v 0.302404881 -0.250947952 0.0885771513
v 0.25012064 -0.353265673 0.0986884832
v 0.0083783865 0.122870125 -0.281096339
v -0.11189127 0.166474074 -0.242704153
v -0.191079021 0.129355595 -0.225260615
v -0.206001639 0.193241686 -0.182281122
v -0.134346113 0.226823643 -0.198043928
v -0.0287417173 0.198928192 -0.236294374
v -0.0591346025 0.256180465 -0.192249522
v 0.0507589579 0.223244727 -0.204711795
v 0.0127757788 0.278178751 -0.163694739
v 0.094378829 0.14917472 -0.246931553
v 0.122964263 0.237264723 -0.145447969
v 0.0780906677 0.290864289 -0.110099077
v 0.208690867 0.0911199227 -0.207819939
v 0.172487363 0.164340973 -0.182822585
v 0.17510891 0.237926096 -0.0667680502
v 0.125263095 0.291467041 -0.0389382839
v 0.266434789 0.0918522924 -0.120691299
v 0.228895187 0.165056393 -0.0977100134
v 0.202453241 0.224547118 0.026533246
v 0.150005221 0.279371113 0.0454469919
v 0.324182391 -0.00627930462 -0.038344264
v 0.296715498 0.0770366341 -0.0173712969
v 0.258475184 0.150583565 0.00321936607
v 0.19929111 0.196941063 0.126279593
v 0.147145852 0.254405409 0.135653496
v 0.320748806 -0.036256101 0.0699679852
v 0.293213844 0.0464662164 0.0930858776
v 0.255054474 0.120720521 0.111120582
v 0.164872169 0.158993781 0.216569304
v 0.115995407 0.220077574 0.217308268
v 0.102526188 0.11500112 0.286298633
v 0.0595835447 0.180281743 0.280364037
v 0.217821598 0.0796707869 0.20879209
v 0.255098939 0.00444413722 0.193070889
v 0.0228396654 0.0722414106 0.324354619
v -0.0125077963 0.141599566 0.314785212
v 0.0641769171 -0.0141741559 0.325389624
v 0.150378466 0.0320814475 0.284222364
v 0.0978149176 -0.0916236788 0.312430322
v 0.186058268 -0.0442724377 0.270287871
v 0.129144192 -0.171664611 0.285053372
v 0.215674028 -0.125232801 0.243729219
v 0.156150341 -0.251164347 0.241121769
v 0.283374041 -0.0774622038 0.168011665
v 0.236401185 -0.208101854 0.20279634
v 0.177928686 -0.326977044 0.183039427
v 0.299188614 -0.163797706 0.132573128
v 0.247765303 -0.28950274 0.149687529
v 0.191514596 -0.384712279 0.126670942
v 0.333851308 -0.125581726 0.0416439772
v 0.131220222 -0.410426974 0.130297542
v 0.177928686 -0.326977044 0.183039427
v 0.191514596 -0.384712279 0.126670942
v 0.106073014 -0.357619286 0.187344179
v 0.0701831579 -0.431490839 0.115137577
v 0.073579669 -0.286375999 0.246068358
v 0.156150341 -0.251164347 0.241121769
v 0.129144192 -0.171664611 0.285053372
v 0.0333486795 -0.382711291 0.169252276
v 0.0146852732 -0.445525587 0.0819519758
v -0.00998950005 -0.315209746 0.225278482
v 0.0401128531 -0.209631339 0.290387034
v 0.0978149176 -0.0916236788 0.312430322
v -0.032766223 -0.399423629 0.129679203
v -0.0307220221 -0.451227546 0.0328837633
v 0.00702059269 -0.130342185 0.317869604
v 0.0641769171 -0.0141741559 0.325389624
v -0.0499949455 -0.240721181 0.267970562
v -0.0245164633 -0.0519967824 0.33070308
v 0.0228396654 0.0722414106 0.324354619
v -0.08684659 -0.406203866 0.071185708
v -0.0612995625 -0.447546989 -0.028672576
v -0.0859634876 -0.334414244 0.179804325
v -0.0848715305 -0.16204761 0.295009255
v -0.148108363 -0.342205644 0.112588286
v -0.131913424 -0.261428356 0.218938351
v -0.123257875 -0.401807368 -0.00217473507
v -0.0723106861 -0.432695121 -0.102128744
v -0.189949259 -0.337153494 0.028288126
v -0.13637948 -0.384109795 -0.0897058249
v -0.059470892 -0.408787519 -0.172791839
v -0.198920608 -0.269829363 0.146463022
v -0.16841197 -0.18316482 0.245006084
v -0.121101491 -0.355626941 -0.173912764
v -0.0223348141 -0.377095699 -0.23514688
v -0.20502758 -0.316816866 -0.0722956657
v -0.244035244 -0.264381975 0.0555671453
v -0.076890707 -0.317869455 -0.248237237
v 0.0342146158 -0.3427293 -0.277416825
v -0.00954818726 -0.276922554 -0.298639178
v -0.0592831373 -0.193645686 -0.312385321
v -0.18747139 -0.284086585 -0.169059634
v -0.136667833 -0.240698636 -0.254467368
v -0.260293365 -0.242454097 -0.0528866053
v -0.236746058 -0.191732198 0.171095729
v -0.186584949 -0.160380125 -0.249311924
v -0.10314548 -0.109645605 -0.311761498
v -0.241363525 -0.207162887 -0.157221675
v -0.282754064 -0.186176941 0.0783997774
v -0.22416614 -0.0801157281 -0.232516512
v -0.13907443 -0.0283765495 -0.296202779
v -0.299334168 -0.163814902 -0.0322016478
v -0.280029505 -0.127824873 -0.138602614
v -0.250353813 -0.00293249637 -0.206947684
v -0.167230964 0.0476094894 -0.26916039
v -0.191079021 0.129355595 -0.225260615
v -0.304924488 -0.0495376959 -0.11520683
v -0.323782414 -0.0846949592 -0.0112679005
v -0.307586074 -0.106539577 0.0967743397
v -0.262642741 -0.11196629 0.187325358
v -0.26791954 0.0826334357 -0.167749763
v -0.318366051 0.0395505428 -0.0829425976
v -0.275562048 0.15096426 -0.130286217
v -0.206001639 0.193241686 -0.182281122
v -0.321241975 0.11197684 -0.0535844564
v -0.337035656 0.0825662613 0.0333375931
v -0.335798711 0.00705039501 0.013141036
v -0.323490739 0.0642968714 0.12369585
v -0.320826411 -0.0131432554 0.113017559
v -0.285877824 0.0597711913 0.199416518
v -0.279279709 -0.0181598198 0.196724996
v -0.230023146 0.0667877346 0.259775758
v -0.195889831 -0.103597179 0.259525657
v -0.21757184 -0.0104232132 0.263468385
v -0.161756039 0.0840542465 0.300597548
v -0.114282243 -0.0829686075 0.308371723
v -0.142132044 0.00864628609 0.308622897
v -0.0866752788 0.109966859 0.319246233
v -0.0591505766 0.037277326 0.329266459
v -0.0125077963 0.141599566 0.314785212
v 0.235698581 -0.371962607 0.0581251383
v 0.187118158 -0.397765964 0.0803178549
v 0.191514596 -0.384712279 0.126670942
v 0.25012064 -0.353265673 0.0986884832
v 0.295979708 -0.320912957 0.0474277735
v 0.274563789 -0.345160931 0.0170538425
v 0.321302742 -0.293005496 -0.0189528465
v 0.296700001 -0.321885318 -0.0366954803
v 0.299471259 -0.304829657 -0.0970478058
v 0.323627353 -0.272709846 -0.0922858715
v 0.303513646 -0.262876928 -0.160886526
v 0.282979012 -0.296573937 -0.154044509
v 0.250882268 -0.297027946 -0.202313304
v 0.265165329 -0.263367295 -0.218736529
v 0.212068185 -0.273680419 -0.262307048
v 0.20637916 -0.305743515 -0.2385782
v 0.153609276 -0.291564375 -0.285520911
v 0.157186612 -0.320845723 -0.257934213
v 0.105728738 -0.340939999 -0.261870265
v 0.0924665928 -0.315429986 -0.290231466
v 0.0342146158 -0.3427293 -0.277416825
v 0.0563490391 -0.36398074 -0.251350522
v -0.0125077963 0.141599566 0.314785212
v -0.0387165546 0.176950932 0.272585511
v 0.0213968754 0.208878785 0.245124221
v 0.0595835447 0.180281743 0.280364037
v 0.0694919825 0.242033958 0.194301486
v 0.115995407 0.220077574 0.217308268
v 0.0968868732 0.270826221 0.127791032
v 0.147145852 0.254405409 0.135653496
v 0.100316048 0.291930497 0.0531123877
v 0.150005221 0.279371113 0.0454469919
v 0.0799069405 0.302149922 -0.0174131393
v 0.125263095 0.291467041 -0.0389382839
v 0.0401890278 0.301591992 -0.0771387815
v 0.0780906677 0.290864289 -0.110099077
v -0.0148804188 0.290812314 -0.122010589
v 0.0127757788 0.278178751 -0.163694739
v -0.0757529736 0.272131234 -0.145959616
v -0.0591346025 0.256180465 -0.192249522
v -0.139426708 0.247268364 -0.150829673
v -0.134346113 0.226823643 -0.198043928
v -0.200524807 0.21874778 -0.137815833
v -0.206001639 0.193241686 -0.182281122
v -0.0866752788 0.109966859 0.319246233
v -0.0387165546 0.176950932 0.272585511
v -0.0125077963 0.141599566 0.314785212
v -0.0994018316 0.151031971 0.276376843
v -0.161756039 0.0840542465 0.300597548
v -0.160915852 0.129667252 0.261611581
v -0.230023146 0.0667877346 0.259775758
v -0.217084885 0.115236968 0.228876948
v -0.285877824 0.0597711913 0.199416518
v -0.263750076 0.109008938 0.179841146
v -0.323490739 0.0642968714 0.12369585
v -0.296341419 0.112029463 0.117651097
v -0.337035656 0.0825662613 0.0333375931
v -0.309232116 0.126547664 0.0425361395
v -0.321241975 0.11197684 -0.0535844564
v -0.297306418 0.150586158 -0.0300425291
v -0.275562048 0.15096426 -0.130286217
v -0.259436607 0.183093488 -0.0943432972
v -0.206001639 0.193241686 -0.182281122
v -0.200524807 0.21874778 -0.137815833
v 0.138072118 -0.418705553 0.083383441
v 0.191514596 -0.384712279 0.126670942
v 0.187118158 -0.397765964 0.0803178549
v 0.131220222 -0.410426974 0.130297542
v 0.0883557796 -0.435962737 0.0714527369
v 0.0701831579 -0.431490839 0.115137577
v 0.0146852732 -0.445525587 0.0819519758
v 0.0429587364 -0.447614044 0.0450004339
v 0.00524163246 -0.452635139 0.00537467003
v -0.0307220221 -0.451227546 0.0328837633
v -0.0211012363 -0.450182557 -0.0448814631
v -0.0612995625 -0.447546989 -0.028672576
v -0.0315203667 -0.438446105 -0.105585098
v -0.0723106861 -0.432695121 -0.102128744
v -0.0218800306 -0.419026166 -0.164241672
v -0.059470892 -0.408787519 -0.172791839
v -0.0223348141 -0.377095699 -0.23514688
v 0.0087313652 -0.392773479 -0.216211677
v 0.0563490391 -0.36398074 -0.251350522
v 0.0342146158 -0.3427293 -0.277416825
v -0.189838037 0.167951792 -0.114039056
v -0.255081534 0.330856711 -0.0682755709
v -0.299024224 0.30269435 -0.0299139023
v -0.234506369 0.139324367 -0.0750439167
v -0.327224374 0.27727282 0.0225660801
v -0.263172358 0.113482952 -0.0216971636
v -0.336626381 0.257346809 0.0834778547
v -0.272729635 0.0932278633 0.040220499
v -0.326211452 0.245075643 0.146220312
v -0.262142539 0.0807540715 0.10399925
v -0.297107697 0.241789177 0.203994632
v -0.23255825 0.0774133205 0.162727579
v -0.25246954 0.247843429 0.25053966
v -0.187182903 0.0835675672 0.210041404
v -0.19713378 0.262582481 0.280811906
v -0.130933285 0.0985499769 0.240813613
v -0.137097239 0.284408987 0.291530728
v -0.0699051619 0.120736986 0.25170958
v -0.134007931 0.196263 -0.134456635
v -0.255081534 0.330856711 -0.0682755709
v -0.189838037 0.167951792 -0.114039056
v -0.200158477 0.358708024 -0.0883615017
v -0.073065877 0.221190184 -0.134084329
v -0.140206575 0.38323012 -0.0879951641
v -0.0136163235 0.240031824 -0.112962246
v -0.0817228481 0.401765674 -0.0672161579
v 0.0378986597 0.25074622 -0.073379159
v -0.0310447216 0.4123061 -0.0282764435
v 0.07589674 0.25217244 -0.0196250677
v 0.00633609295 0.413709134 0.0246046782
v 0.0962601826 0.244155839 0.042475462
v 0.026368618 0.405822784 0.085695982
v 0.0967822075 0.227565125 0.106192701
v 0.0268821716 0.389501572 0.148378134
v 0.0774062872 0.204198197 0.164621711
v 0.00782108307 0.366514266 0.205857992
v 0.0402321815 0.176587194 0.211431131
v -0.0287491083 0.339351833 0.251906753
v -0.0107119083 0.147724196 0.2415483
v -0.0788655281 0.31095776 0.281534553
v -0.0699051619 0.120736986 0.25170958
v -0.137097239 0.284408987 0.291530728
v -0.200158477 0.358708024 -0.0883615017
v -0.256337166 0.370078266 -0.0327891111
v -0.255081534 0.330856711 -0.0682755709
v -0.209562302 0.393797666 -0.0498951674
v -0.247242555 0.399630159 0.0108906031
v -0.140206575 0.38323012 -0.0879951641
v -0.212105379 0.417447984 -0.00195932388
v -0.158504725 0.414681703 -0.0495830774
v -0.0817228481 0.401765674 -0.0672161579
v -0.173751101 0.433136135 -0.00172495842
v -0.108697653 0.430467337 -0.0318869352
v -0.0310447216 0.4123061 -0.0282764435
v -0.136336088 0.444994241 0.0115684271
v -0.0655380487 0.439443946 0.00127589703
v 0.00633609295 0.413709134 0.0246046782
v -0.103914499 0.451737553 0.0364800692
v -0.0337029696 0.4406389 0.0463114977
v 0.026368618 0.405822784 0.085695982
v -0.0800001621 0.452635139 0.0703107119
v -0.0166424513 0.433922499 0.0983395576
v 0.0268821716 0.389501572 0.148378134
v -0.0671842098 0.447589904 0.109394185
v -0.0162049532 0.420022756 0.151722312
v 0.00782108307 0.366514266 0.205857992
v -0.066855669 0.437148362 0.149495125
v -0.0324383974 0.400445729 0.200674415
v -0.0287491083 0.339351833 0.251906753
v -0.0790499449 0.422442228 0.186268076
v -0.0635828972 0.377313137 0.239891768
v -0.0788655281 0.31095776 0.281534553
v -0.102445841 0.40506494 0.21572791
v -0.106264114 0.353131473 0.265123963
v -0.137097239 0.284408987 0.291530728
v -0.134507895 0.386899829 0.234682441
v -0.155856609 0.330521494 0.273637176
v -0.171761617 0.369915187 0.241077527
v -0.19713378 0.262582481 0.280811906
v -0.155856609 0.330521494 0.273637176
v -0.137097239 0.284408987 0.291530728
v -0.206986308 0.31193313 0.264508456
v -0.171761617 0.369915187 0.241077527
v -0.25246954 0.247843429 0.25053966
v -0.210170016 0.355951637 0.234220132
v -0.254112601 0.29938072 0.23872745
v -0.297107697 0.241789177 0.203994632
v -0.24557136 0.346522272 0.214853391
v -0.292128325 0.294224679 0.199087501
v -0.326211452 0.245075643 0.146220312
v -0.274128675 0.342649043 0.185076118
v -0.316914201 0.297023565 0.149884701
v -0.292747855 0.344751537 0.148115039
v -0.336626381 0.257346809 0.0834778547
v -0.299410939 0.352602005 0.107975364
v -0.325784206 0.307474196 0.0964504406
v -0.327224374 0.27727282 0.0225660801
v -0.317776889 0.324443996 0.0445754528
v -0.293395996 0.36534968 0.0690069199
v -0.299024224 0.30269435 -0.0299139023
v -0.293760508 0.346094042 -0.000118613243
v -0.255081534 0.330856711 -0.0682755709
v -0.275354862 0.381613225 0.0354326963
v -0.256337166 0.370078266 -0.0327891111
v -0.247242555 0.399630159 0.0108906031
v -0.18497324 0.40401718 0.120425336
v -0.275354862 0.381613225 0.0354326963
v -0.247242555 0.399630159 0.0108906031
v -0.293395996 0.36534968 0.0690069199
v -0.299410939 0.352602005 0.107975364
v -0.292747855 0.344751537 0.148115039
v -0.274128675 0.342649043 0.185076118
v -0.24557136 0.346522272 0.214853391
v -0.210170016 0.355951637 0.234220132
v -0.171761617 0.369915187 0.241077527
v -0.134507895 0.386899829 0.234682441
v -0.102445841 0.40506494 0.21572791
v -0.0790499449 0.422442228 0.186268076
v -0.066855669 0.437148362 0.149495125
v -0.0671842098 0.447589904 0.109394185
v -0.0800001621 0.452635139 0.0703107119
v -0.103914499 0.451737553 0.0364800692
v -0.136336088 0.444994241 0.0115684271
v -0.173751101 0.433136135 -0.00172495842
v -0.212105379 0.417447984 -0.00195932388
v -0.247242555 0.399630159 0.0108906031
v 0.0087313652 -0.392773479 -0.216211677
v 0.147369266 -0.40540117 -0.0978893042
v 0.0563490391 -0.36398074 -0.251350522
v -0.0218800306 -0.419026166 -0.164241672
v -0.0315203667 -0.438446105 -0.105585098
v -0.0211012363 -0.450182557 -0.0448814631
v 0.00524163246 -0.452635139 0.00537467003
v 0.0429587364 -0.447614044 0.0450004339
v 0.0883557796 -0.435962737 0.0714527369
v 0.138072118 -0.418705553 0.083383441
v 0.187118158 -0.397765964 0.0803178549
v 0.235698581 -0.371962607 0.0581251383
v 0.274563789 -0.345160931 0.0170538425
v 0.296700001 -0.321885318 -0.0366954803
v 0.299471259 -0.304829657 -0.0970478058
v 0.282979012 -0.296573937 -0.154044509
v 0.250882268 -0.297027946 -0.202313304
v 0.20637916 -0.305743515 -0.2385782
v 0.157186612 -0.320845723 -0.257934213
v 0.105728738 -0.340939999 -0.261870265
v 0.0563490391 -0.36398074 -0.251350522
v -0.139426708 0.247268364 -0.150829673
v -0.127583027 0.264158875 0.0775544643
v -0.200524807 0.21874778 -0.137815833
v -0.0757529736 0.272131234 -0.145959616
v -0.0148804188 0.290812314 -0.122010589
v 0.0401890278 0.301591992 -0.0771387815
v 0.0799069405 0.302149922 -0.0174131393
v 0.100316048 0.291930497 0.0531123877
v 0.0968868732 0.270826221 0.127791032
v 0.0694919825 0.242033958 0.194301486
v 0.0213968754 0.208878785 0.245124221
v -0.0387165546 0.176950932 0.272585511
v -0.0994018316 0.151031971 0.276376843
v -0.160915852 0.129667252 0.261611581
v -0.217084885 0.115236968 0.228876948
v -0.263750076 0.109008938 0.179841146
v -0.296341419 0.112029463 0.117651097
v -0.309232116 0.126547664 0.0425361395
v -0.297306418 0.150586158 -0.0300425291
v -0.259436607 0.183093488 -0.0943432972
v -0.200524807 0.21874778 -0.137815833
vt 0.771484375 0.632324219
vt 0.742675781 0.662597656
vt 0.771484375 0.662597656
vt 0.742675781 0.632324219
vt 0.771484375 0.6015625
vt 0.708496094 0.632324219
vt 0.708496094 0.662597656
vt 0.675292969 0.662597656
vt 0.742675781 0.6015625
vt 0.771484375 0.571289062
vt 0.675292969 0.632324219
vt 0.643554688 0.662597656
vt 0.742675781 0.571289062
vt 0.771484375 0.5390625
vt 0.708496094 0.6015625
vt 0.643554688 0.632324219
vt 0.61328125 0.662597656
vt 0.708496094 0.571289062
vt 0.675292969 0.6015625
vt 0.742675781 0.5390625
vt 0.771484375 0.506347656
vt 0.708496094 0.5390625
vt 0.742675781 0.506347656
vt 0.771484375 0.472900391
vt 0.675292969 0.571289062
vt 0.643554688 0.6015625
vt 0.742675781 0.472900391
vt 0.708496094 0.472900391
vt 0.771484375 0.4375
vt 0.742675781 0.4375
vt 0.771484375 0.402099609
vt 0.708496094 0.506347656
vt 0.675292969 0.5390625
vt 0.61328125 0.632324219
vt 0.643554688 0.571289062
vt 0.675292969 0.506347656
vt 0.742675781 0.402099609
vt 0.771484375 0.366699219
vt 0.61328125 0.6015625
vt 0.580078125 0.632324219
vt 0.580078125 0.662597656
vt 0.552246094 0.662597656
vt 0.552246094 0.632324219
vt 0.580078125 0.6015625
vt 0.552246094 0.6015625
vt 0.580078125 0.571289062
vt 0.552246094 0.571289062
vt 0.61328125 0.571289062
vt 0.580078125 0.5390625
vt 0.552246094 0.5390625
vt 0.643554688 0.5390625
vt 0.61328125 0.5390625
vt 0.580078125 0.506347656
vt 0.552246094 0.506347656
vt 0.643554688 0.506347656
vt 0.61328125 0.506347656
vt 0.580078125 0.472900391
vt 0.552246094 0.472900391
vt 0.675292969 0.472900391
vt 0.643554688 0.472900391
vt 0.61328125 0.472900391
vt 0.580078125 0.4375
vt 0.552246094 0.4375
vt 0.675292969 0.4375
vt 0.643554688 0.4375
vt 0.61328125 0.4375
vt 0.580078125 0.402099609
vt 0.552246094 0.402099609
vt 0.580078125 0.366699219
vt 0.552246094 0.366699219
vt 0.61328125 0.402099609
vt 0.643554688 0.402099609
vt 0.580078125 0.333251953
vt 0.552246094 0.333251953
vt 0.61328125 0.333251953
vt 0.61328125 0.366699219
vt 0.643554688 0.333251953
vt 0.643554688 0.366699219
vt 0.675292969 0.333251953
vt 0.675292969 0.366699219
vt 0.708496094 0.333251953
vt 0.675292969 0.402099609
vt 0.708496094 0.366699219
vt 0.742675781 0.333251953
vt 0.708496094 0.402099609
vt 0.742675781 0.366699219
vt 0.771484375 0.333251953
vt 0.708496094 0.4375
vt 0.771484375 0.302734375
vt 0.742675781 0.333251953
vt 0.771484375 0.333251953
vt 0.742675781 0.302734375
vt 0.771484375 0.271972656
vt 0.708496094 0.302734375
vt 0.708496094 0.333251953
vt 0.675292969 0.333251953
vt 0.742675781 0.271972656
vt 0.771484375 0.241088867
vt 0.708496094 0.271972656
vt 0.675292969 0.302734375
vt 0.643554688 0.333251953
vt 0.742675781 0.241088867
vt 0.771484375 0.209960938
vt 0.643554688 0.302734375
vt 0.61328125 0.333251953
vt 0.675292969 0.271972656
vt 0.61328125 0.302734375
vt 0.580078125 0.333251953
vt 0.742675781 0.209960938
vt 0.771484375 0.177856445
vt 0.708496094 0.241088867
vt 0.643554688 0.271972656
vt 0.708496094 0.209960938
vt 0.675292969 0.241088867
vt 0.742675781 0.177856445
vt 0.771484375 0.142700195
vt 0.708496094 0.177856445
vt 0.742675781 0.142700195
vt 0.771484375 0.10748291
vt 0.675292969 0.209960938
vt 0.643554688 0.241088867
vt 0.742675781 0.10748291
vt 0.771484375 0.0706787109
vt 0.708496094 0.142700195
vt 0.675292969 0.177856445
vt 0.742675781 0.0706787109
vt 0.771484375 0.0342102051
vt 0.742675781 0.0342102051
vt 0.708496094 0.0342102051
vt 0.708496094 0.10748291
vt 0.708496094 0.0706787109
vt 0.675292969 0.142700195
vt 0.643554688 0.209960938
vt 0.675292969 0.0706787109
vt 0.675292969 0.0342102051
vt 0.675292969 0.10748291
vt 0.643554688 0.177856445
vt 0.643554688 0.0706787109
vt 0.643554688 0.0342102051
vt 0.643554688 0.142700195
vt 0.643554688 0.10748291
vt 0.61328125 0.0706787109
vt 0.61328125 0.0342102051
vt 0.580078125 0.0342102051
vt 0.61328125 0.10748291
vt 0.61328125 0.142700195
vt 0.61328125 0.177856445
vt 0.61328125 0.209960938
vt 0.580078125 0.0706787109
vt 0.580078125 0.10748291
vt 0.552246094 0.0706787109
vt 0.552246094 0.0342102051
vt 0.552246094 0.10748291
vt 0.552246094 0.142700195
vt 0.580078125 0.142700195
vt 0.552246094 0.177856445
vt 0.580078125 0.177856445
vt 0.552246094 0.209960938
vt 0.580078125 0.209960938
vt 0.552246094 0.241088867
vt 0.61328125 0.241088867
vt 0.580078125 0.241088867
vt 0.552246094 0.271972656
vt 0.61328125 0.271972656
vt 0.580078125 0.271972656
vt 0.552246094 0.302734375
vt 0.580078125 0.302734375
vt 0.552246094 0.333251953
vt 0.895996094 0.405517578
vt 0.912597656 0.393554688
vt 0.905761719 0.378417969
vt 0.885253906 0.393310547
vt 0.870117188 0.415527344
vt 0.883300781 0.423095703
vt 0.862792969 0.44140625
vt 0.877441406 0.443847656
vt 0.878417969 0.465576172
vt 0.864257812 0.468261719
vt 0.874023438 0.491943359
vt 0.886230469 0.484863281
vt 0.899414062 0.499755859
vt 0.890136719 0.510742188
vt 0.911132812 0.5234375
vt 0.916503906 0.510253906
vt 0.934082031 0.528320312
vt 0.935058594 0.514160156
vt 0.954101562 0.512695312
vt 0.95703125 0.526855469
vt 0.979003906 0.51953125
vt 0.97265625 0.506835938
vt 1.02734375 0.0348815918
vt 1.01367188 0.0509338379
vt 1.02929688 0.0706176758
vt 1.046875 0.0594177246
vt 1.0390625 0.095703125
vt 1.05761719 0.0906982422
vt 1.0390625 0.122375488
vt 1.05761719 0.123901367
vt 1.03125 0.147949219
vt 1.04785156 0.155639648
vt 1.01660156 0.168579102
vt 1.02929688 0.181152344
vt 0.996582031 0.183105469
vt 1.00488281 0.19909668
vt 0.973144531 0.190795898
vt 0.976074219 0.208740234
vt 0.949707031 0.190917969
vt 0.947265625 0.208984375
vt 0.926757812 0.184448242
vt 0.919433594 0.201293945
vt 0.905761719 0.172485352
vt 0.89453125 0.187133789
vt 1.00390625 0.0194854736
vt 1.01367188 0.0509338379
vt 1.02734375 0.0348815918
vt 0.994140625 0.0386352539
vt 0.975585938 0.0112228394
vt 0.972167969 0.0319519043
vt 0.946777344 0.0112228394
vt 0.94921875 0.0317687988
vt 0.918945312 0.0197296143
vt 0.926757812 0.0383300781
vt 0.894042969 0.0366210938
vt 0.90625 0.0516052246
vt 0.874023438 0.0629272461
vt 0.889648438 0.0726318359
vt 0.86328125 0.0942382812
vt 0.880859375 0.0977783203
vt 0.862792969 0.12890625
vt 0.880371094 0.125976562
vt 0.873535156 0.161621094
vt 0.889648438 0.153076172
vt 0.930175781 0.388427734
vt 0.905761719 0.378417969
vt 0.912597656 0.393554688
vt 0.927734375 0.371826172
vt 0.94921875 0.388427734
vt 0.951171875 0.371826172
vt 0.973632812 0.378662109
vt 0.966796875 0.393554688
vt 0.982910156 0.404296875
vt 0.993164062 0.392089844
vt 0.995117188 0.419433594
vt 1.0078125 0.411376953
vt 1.00292969 0.439941406
vt 1.01660156 0.436767578
vt 1.00292969 0.461425781
vt 1.01660156 0.463623047
vt 1.0078125 0.489990234
vt 0.995605469 0.483154297
vt 0.980957031 0.500976562
vt 0.990234375 0.51171875
vt 0.856445312 0.0112228394
vt 0.793457031 0.0147628784
vt 0.794433594 0.037322998
vt 0.857910156 0.0341491699
vt 0.795898438 0.0598754883
vt 0.858886719 0.0570678711
vt 0.796875 0.0823974609
vt 0.859863281 0.0800170898
vt 0.797363281 0.104980469
vt 0.860839844 0.102905273
vt 0.798339844 0.127563477
vt 0.861328125 0.125854492
vt 0.798828125 0.150146484
vt 0.861816406 0.148803711
vt 0.798828125 0.172729492
vt 0.862304688 0.17175293
vt 0.799316406 0.1953125
vt 0.862304688 0.194702148
vt 0.857910156 0.424072266
vt 0.793457031 0.443603516
vt 0.856445312 0.447021484
vt 0.794433594 0.420898438
vt 0.858886719 0.401123047
vt 0.795898438 0.3984375
vt 0.859863281 0.378173828
vt 0.796875 0.375732422
vt 0.860839844 0.355224609
vt 0.797363281 0.353271484
vt 0.861328125 0.332275391
vt 0.798339844 0.330810547
vt 0.861816406 0.309326172
vt 0.798828125 0.308105469
vt 0.862304688 0.286621094
vt 0.798828125 0.285644531
vt 0.862304688 0.263671875
vt 0.799316406 0.262939453
vt 0.862792969 0.240600586
vt 0.799316406 0.240478516
vt 0.862792969 0.217651367
vt 0.799316406 0.217895508
vt 0.862304688 0.194702148
vt 0.799316406 0.1953125
vt 0.984863281 0.360107422
vt 0.956054688 0.353271484
vt 0.963378906 0.371582031
vt 0.973632812 0.344238281
vt 0.949707031 0.334228516
vt 1.00292969 0.34375
vt 0.963867188 0.328369141
vt 0.98828125 0.331542969
vt 1.015625 0.322998047
vt 0.974609375 0.319580078
vt 0.998535156 0.315429688
vt 1.02246094 0.299560547
vt 0.981933594 0.308105469
vt 1.00390625 0.297363281
vt 1.02148438 0.275390625
vt 0.985839844 0.295166016
vt 1.00292969 0.278564453
vt 1.01367188 0.252197266
vt 0.985839844 0.281738281
vt 0.997070312 0.260742188
vt 0.999511719 0.232177734
vt 0.981445312 0.269042969
vt 0.985839844 0.245483398
vt 0.979492188 0.217529297
vt 0.973632812 0.258300781
vt 0.970703125 0.23449707
vt 0.956054688 0.209594727
vt 0.962890625 0.250244141
vt 0.952636719 0.228515625
vt 0.931152344 0.209228516
vt 0.950195312 0.24609375
vt 0.93359375 0.228393555
vt 0.907226562 0.216552734
vt 0.936523438 0.24597168
vt 0.915527344 0.234130859
vt 0.923828125 0.25
vt 0.88671875 0.230834961
vt 0.915527344 0.234130859
vt 0.907226562 0.216552734
vt 0.899902344 0.245117188
vt 0.923828125 0.25
vt 0.87109375 0.250976562
vt 0.912597656 0.2578125
vt 0.888671875 0.260253906
vt 0.86328125 0.275146484
vt 0.904296875 0.268554688
vt 0.882324219 0.278320312
vt 0.862792969 0.300048828
vt 0.899902344 0.281494141
vt 0.881835938 0.297363281
vt 0.899902344 0.295166016
vt 0.870117188 0.323974609
vt 0.903808594 0.308349609
vt 0.887207031 0.315673828
vt 0.883300781 0.344482422
vt 0.897460938 0.331787109
vt 0.911621094 0.319824219
vt 0.901855469 0.360351562
vt 0.912109375 0.344482422
vt 0.922851562 0.371582031
vt 0.922363281 0.328613281
vt 0.930664062 0.353515625
vt 0.936523438 0.334228516
vt 0.942871094 0.288818359
vt 0.922363281 0.328613281
vt 0.936523438 0.334228516
vt 0.911621094 0.319824219
vt 0.903808594 0.308349609
vt 0.899902344 0.295166016
vt 0.899902344 0.281494141
vt 0.904296875 0.268554688
vt 0.912597656 0.2578125
vt 0.923828125 0.25
vt 0.936523438 0.24597168
vt 0.950195312 0.24609375
vt 0.962890625 0.250244141
vt 0.973632812 0.258300781
vt 0.981445312 0.269042969
vt 0.985839844 0.281738281
vt 0.985839844 0.295166016
vt 0.981933594 0.308105469
vt 0.974609375 0.319580078
vt 0.963867188 0.328369141
vt 0.949707031 0.334228516
vt 0.995605469 0.483154297
vt 0.940429688 0.451171875
vt 0.980957031 0.500976562
vt 1.00292969 0.461425781
vt 1.00292969 0.439941406
vt 0.995117188 0.419433594
vt 0.982910156 0.404296875
vt 0.966796875 0.393554688
vt 0.94921875 0.388427734
vt 0.930175781 0.388427734
vt 0.912597656 0.393554688
vt 0.895996094 0.405517578
vt 0.883300781 0.423095703
vt 0.877441406 0.443847656
vt 0.878417969 0.465576172
vt 0.886230469 0.484863281
vt 0.899414062 0.499755859
vt 0.916503906 0.510253906
vt 0.935058594 0.514160156
vt 0.954101562 0.512695312
vt 0.97265625 0.506835938
vt 0.926757812 0.184448242
vt 0.959960938 0.11138916
vt 0.905761719 0.172485352
vt 0.949707031 0.190917969
vt 0.973144531 0.190795898
vt 0.996582031 0.183105469
vt 1.01660156 0.168579102
vt 1.03125 0.147949219
vt 1.0390625 0.122375488
vt 1.0390625 0.095703125
vt 1.02929688 0.0706176758
vt 1.01367188 0.0509338379
vt 0.994140625 0.0386352539
vt 0.972167969 0.0319519043
vt 0.94921875 0.0317687988
vt 0.926757812 0.0383300781
vt 0.90625 0.0516052246
vt 0.889648438 0.0726318359
vt 0.880859375 0.0977783203
vt 0.880371094 0.125976562
vt 0.889648438 0.153076172
vn 0.147338867 -0.48046875 -0.864746094
vn -0.224853516 -0.356445312 -0.906738281
vn -0.0642700195 -0.577636719 -0.813964844
vn 0.0328979492 -0.231445312 -0.972167969
vn 0.33984375 -0.405029297 -0.848632812
vn -0.0241241455 -0.102111816 -0.994628906
vn -0.298095703 -0.234375 -0.925292969
vn -0.375488281 -0.0864868164 -0.922851562
vn 0.271240234 -0.138793945 -0.952636719
vn 0.541503906 -0.342285156 -0.767578125
vn -0.0895996094 0.0505371094 -0.994628906
vn -0.442626953 0.0643310547 -0.89453125
vn 0.520507812 -0.063293457 -0.8515625
vn 0.723632812 -0.304931641 -0.619140625
vn 0.229125977 -0.00366592407 -0.973144531
vn -0.152832031 0.202392578 -0.967285156
vn -0.495605469 0.208374023 -0.843261719
vn 0.493652344 0.0765380859 -0.866210938
vn 0.174316406 0.153198242 -0.97265625
vn 0.743652344 -0.0184631348 -0.668457031
vn 0.855957031 -0.302001953 -0.419677734
vn 0.73046875 0.123596191 -0.671875
vn 0.90625 -0.0139694214 -0.423095703
vn 0.922363281 -0.337158203 -0.188476562
vn 0.449951172 0.236816406 -0.861328125
vn 0.114379883 0.306396484 -0.944824219
vn 0.988769531 -0.0520629883 -0.139160156
vn 0.990234375 0.0862426758 -0.110290527
vn 0.911621094 -0.409179688 0.0421447754
vn 0.98046875 -0.130371094 0.148681641
vn 0.876953125 -0.301025391 0.374755859
vn 0.90234375 0.127563477 -0.411132812
vn 0.696777344 0.28515625 -0.658203125
vn -0.209960938 0.34375 -0.915039062
vn 0.393310547 0.391113281 -0.83203125
vn 0.875976562 0.288330078 -0.387207031
vn 0.879882812 -0.242431641 0.408447266
vn 0.695800781 -0.432617188 0.573242188
vn 0.0534667969 0.446289062 -0.893554688
vn -0.254882812 0.459228516 -0.851074219
vn -0.53125 0.328613281 -0.780761719
vn -0.543457031 0.377197266 -0.75
vn -0.271972656 0.504882812 -0.819335938
vn -0.000476837158 0.558105469 -0.829589844
vn -0.0232696533 0.6015625 -0.798339844
vn 0.265136719 0.639160156 -0.722167969
vn 0.237304688 0.681152344 -0.692382812
vn 0.328369141 0.529785156 -0.781738281
vn 0.50390625 0.684082031 -0.52734375
vn 0.471435547 0.725585938 -0.501464844
vn 0.643554688 0.439453125 -0.626953125
vn 0.575195312 0.577148438 -0.580078125
vn 0.678222656 0.685058594 -0.266357422
vn 0.642578125 0.726074219 -0.245727539
vn 0.825195312 0.441650391 -0.352539062
vn 0.754394531 0.578613281 -0.309814453
vn 0.767578125 0.640136719 0.0351867676
vn 0.729980469 0.681640625 0.0495605469
vn 0.966796875 0.244262695 -0.0740356445
vn 0.917480469 0.395996094 -0.0357055664
vn 0.846191406 0.532714844 0.00229263306
vn 0.758789062 0.5546875 0.341308594
vn 0.721679688 0.598144531 0.348632812
vn 0.95703125 0.157104492 0.243286133
vn 0.907714844 0.307373047 0.285400391
vn 0.836914062 0.444824219 0.318847656
vn 0.650878906 0.439208984 0.619140625
vn 0.616210938 0.485351562 0.620117188
vn 0.448486328 0.301025391 0.841796875
vn 0.417480469 0.350830078 0.838378906
vn 0.726074219 0.324707031 0.605957031
vn 0.795898438 0.184692383 0.576660156
vn 0.174194336 0.15612793 0.972167969
vn 0.148071289 0.208740234 0.966796875
vn 0.23449707 0.0295410156 0.971679688
vn 0.517578125 0.180297852 0.836425781
vn 0.298339844 -0.1171875 0.947265625
vn 0.585449219 0.0367736816 0.810058594
vn 0.356201172 -0.265869141 0.895996094
vn 0.639160156 -0.112731934 0.760742188
vn 0.404052734 -0.40625 0.819335938
vn 0.846679688 0.0350036621 0.530761719
vn 0.675292969 -0.258544922 0.690429688
vn 0.436035156 -0.518554688 0.735839844
vn 0.875 -0.115234375 0.470458984
vn 0.691894531 -0.378662109 0.614746094
vn 0.448730469 -0.567871094 0.689941406
vn 0.980957031 0.00288200378 0.194702148
vn 0.192993164 -0.676269531 0.7109375
vn 0.436035156 -0.518554688 0.735839844
vn 0.448730469 -0.567871094 0.689941406
vn 0.17175293 -0.630859375 0.756835938
vn -0.0435180664 -0.756835938 0.65234375
vn 0.123413086 -0.526367188 0.841308594
vn 0.404052734 -0.40625 0.819335938
vn 0.356201172 -0.265869141 0.895996094
vn -0.0738525391 -0.714355469 0.695800781
vn -0.265136719 -0.811523438 0.520507812
vn -0.137329102 -0.615234375 0.776367188
vn 0.0640869141 -0.391113281 0.91796875
vn 0.298339844 -0.1171875 0.947265625
vn -0.303466797 -0.771972656 0.55859375
vn -0.447509766 -0.833496094 0.323974609
vn 0.00271224976 -0.244506836 0.969726562
vn 0.23449707 0.0295410156 0.971679688
vn -0.207397461 -0.484130859 0.850097656
vn -0.0566711426 -0.096496582 0.993652344
vn 0.174194336 0.15612793 0.972167969
vn -0.492675781 -0.794433594 0.354736328
vn -0.367431641 -0.930175781 -0.00525283813
vn -0.380859375 -0.676269531 0.630371094
vn -0.271972656 -0.339111328 0.900390625
vn -0.581054688 -0.700683594 0.413818359
vn -0.4609375 -0.547851562 0.698242188
vn -0.622070312 -0.77734375 0.092590332
vn -0.415283203 -0.877929688 -0.23840332
vn -0.718261719 -0.682617188 0.135620117
vn -0.667480469 -0.716796875 -0.201293945
vn -0.381591797 -0.795410156 -0.470458984
vn -0.669433594 -0.573730469 0.472167969
vn -0.528808594 -0.404052734 0.746582031
vn -0.615234375 -0.620605469 -0.486328125
vn -0.262207031 -0.692382812 -0.671875
vn -0.765625 -0.618652344 -0.176025391
vn -0.811523438 -0.555175781 0.182373047
vn -0.465820312 -0.497558594 -0.731933594
vn -0.0642700195 -0.577636719 -0.813964844
vn -0.224853516 -0.356445312 -0.906738281
vn -0.298095703 -0.234375 -0.925292969
vn -0.710449219 -0.516601562 -0.478027344
vn -0.552734375 -0.385253906 -0.738769531
vn -0.860839844 -0.488769531 -0.142333984
vn -0.739257812 -0.430175781 0.518066406
vn -0.640136719 -0.244873047 -0.728515625
vn -0.375488281 -0.0864868164 -0.922851562
vn -0.803222656 -0.382324219 -0.456787109
vn -0.883300781 -0.411865234 0.224243164
vn -0.709960938 -0.0974121094 -0.697753906
vn -0.442626953 0.0643310547 -0.89453125
vn -0.932617188 -0.345458984 -0.104614258
vn -0.874511719 -0.237548828 -0.422851562
vn -0.758789062 0.047668457 -0.649902344
vn -0.495605469 0.208374023 -0.843261719
vn -0.53125 0.328613281 -0.780761719
vn -0.920898438 -0.0914306641 -0.379394531
vn -0.978027344 -0.197875977 -0.0654907227
vn -0.9296875 -0.262695312 0.258789062
vn -0.788085938 -0.280273438 0.548339844
vn -0.78515625 0.17199707 -0.595214844
vn -0.941894531 0.0363769531 -0.333984375
vn -0.792480469 0.22277832 -0.567871094
vn -0.543457031 0.377197266 -0.75
vn -0.9453125 0.0894165039 -0.312988281
vn -1 -0.012008667 -0.0160369873
vn -0.997070312 -0.0668945312 -0.0306091309
vn -0.954101562 -0.0728759766 0.291259766
vn -0.950195312 -0.129272461 0.283203125
vn -0.819335938 -0.0889282227 0.565917969
vn -0.813476562 -0.145751953 0.563476562
vn -0.622558594 -0.0631713867 0.779785156
vn -0.580078125 -0.254150391 0.773925781
vn -0.612304688 -0.119812012 0.78125
vn -0.383544922 -0.00151443481 0.923339844
vn -0.327392578 -0.190063477 0.92578125
vn -0.368164062 -0.0573120117 0.927734375
vn -0.127685547 0.0878295898 0.987792969
vn -0.106811523 0.0336303711 0.993652344
vn 0.148071289 0.208740234 0.966796875
vn 0.544921875 -0.836914062 0.0503845215
vn 0.447265625 -0.890136719 0.0871582031
vn 0.462402344 -0.86328125 0.201904297
vn 0.590820312 -0.791503906 0.156738281
vn 0.701171875 -0.709472656 0.0714111328
vn 0.625976562 -0.779785156 -0.0179138184
vn 0.911621094 -0.409179688 0.0421447754
vn 0.677246094 -0.7265625 -0.114868164
vn 0.688476562 -0.686523438 -0.232910156
vn 0.922363281 -0.337158203 -0.188476562
vn 0.855957031 -0.302001953 -0.419677734
vn 0.655761719 -0.666992188 -0.353759766
vn 0.586425781 -0.66796875 -0.458251953
vn 0.723632812 -0.304931641 -0.619140625
vn 0.541503906 -0.342285156 -0.767578125
vn 0.491210938 -0.687011719 -0.53515625
vn 0.33984375 -0.405029297 -0.848632812
vn 0.385742188 -0.720214844 -0.576660156
vn 0.286376953 -0.759277344 -0.583984375
vn 0.147338867 -0.48046875 -0.864746094
vn -0.0642700195 -0.577636719 -0.813964844
vn 0.174194336 -0.809570312 -0.560546875
vn -0.161132812 0.702636719 0.692871094
vn -0.211547852 0.765625 0.607421875
vn -0.0867919922 0.824707031 0.55859375
vn -0.00422286987 0.772460938 0.634765625
vn 0.0185241699 0.883300781 0.468261719
vn 0.136352539 0.83984375 0.525390625
vn 0.0865478516 0.935546875 0.342773438
vn 0.234375 0.900878906 0.365234375
vn 0.102966309 0.975585938 0.193359375
vn 0.263183594 0.949707031 0.169433594
vn 0.0631103516 0.997070312 0.042755127
vn 0.21484375 0.976074219 -0.0287017822
vn -0.0227508545 0.99609375 -0.0865478516
vn 0.10333252 0.974609375 -0.197631836
vn -0.140991211 0.973144531 -0.181518555
vn -0.0516357422 0.945800781 -0.321044922
vn -0.271972656 0.93359375 -0.232788086
vn -0.221435547 0.89453125 -0.388427734
vn -0.395263672 0.886230469 -0.24230957
vn -0.383300781 0.831054688 -0.402832031
vn -0.531738281 0.819824219 -0.213134766
vn -0.558105469 0.747558594 -0.360107422
vn -0.310791016 0.637695312 0.704589844
vn -0.211547852 0.765625 0.607421875
vn -0.161132812 0.702636719 0.692871094
vn -0.332519531 0.714355469 0.615722656
vn -0.452392578 0.583984375 0.674316406
vn -0.445800781 0.672363281 0.591308594
vn -0.589355469 0.540039062 0.601074219
vn -0.5546875 0.640136719 0.531738281
vn -0.708984375 0.510253906 0.486816406
vn -0.648925781 0.62109375 0.439697266
vn -0.802246094 0.498046875 0.329345703
vn -0.721679688 0.616699219 0.314697266
vn -0.849121094 0.510742188 0.134033203
vn -0.755371094 0.634277344 0.16418457
vn -0.826171875 0.559082031 -0.0697631836
vn -0.736328125 0.676269531 0.0102844238
vn -0.725097656 0.643066406 -0.245605469
vn -0.66015625 0.741210938 -0.122741699
vn -0.558105469 0.747558594 -0.360107422
vn -0.531738281 0.819824219 -0.213134766
vn 0.351318359 -0.931640625 0.0930786133
vn 0.462402344 -0.86328125 0.201904297
vn 0.447265625 -0.890136719 0.0871582031
vn 0.335449219 -0.91796875 0.211791992
vn 0.260253906 -0.962890625 0.0743408203
vn 0.213623047 -0.958496094 0.18762207
vn 0.0939331055 -0.987304688 0.128295898
vn 0.17199707 -0.984863281 0.0283966064
vn 0.0942382812 -0.994628906 -0.0428161621
vn -0.0137939453 -0.999511719 0.0353393555
vn 0.0311584473 -0.989746094 -0.139770508
vn -0.367431641 -0.930175781 -0.00525283813
vn -0.00180721283 -0.966308594 -0.2578125
vn -0.415283203 -0.877929688 -0.23840332
vn 0.0089263916 -0.924804688 -0.379882812
vn -0.381591797 -0.795410156 -0.470458984
vn -0.262207031 -0.692382812 -0.671875
vn 0.0693969727 -0.870605469 -0.487060547
vn 0.174194336 -0.809570312 -0.560546875
vn -0.0642700195 -0.577636719 -0.813964844
vn -0.521484375 0.0306854248 -0.852539062
vn -0.521484375 0.0306854248 -0.852539062
vn -0.744628906 -0.112426758 -0.657714844
vn -0.744628906 -0.112426758 -0.657714844
vn -0.888183594 -0.241577148 -0.391113281
vn -0.888183594 -0.241577148 -0.391113281
vn -0.936035156 -0.342773438 -0.0816040039
vn -0.936035156 -0.342773438 -0.0816040039
vn -0.8828125 -0.405273438 0.237182617
vn -0.8828125 -0.405273438 0.237182617
vn -0.734863281 -0.421875 0.530761719
vn -0.734863281 -0.421875 0.530761719
vn -0.508300781 -0.391113281 0.767089844
vn -0.508300781 -0.391113281 0.767089844
vn -0.227050781 -0.316162109 0.920898438
vn -0.227050781 -0.316162109 0.920898438
vn 0.0780029297 -0.205322266 0.975585938
vn 0.0780029297 -0.205322266 0.975585938
vn -0.242431641 0.172241211 -0.954589844
vn -0.521484375 0.0306854248 -0.852539062
vn -0.521484375 0.0306854248 -0.852539062
vn -0.242431641 0.172241211 -0.954589844
vn 0.0622253418 0.296875 -0.953125
vn 0.0622253418 0.296875 -0.953125
vn 0.359375 0.391113281 -0.847167969
vn 0.359375 0.391113281 -0.847167969
vn 0.616699219 0.444580078 -0.649414062
vn 0.616699219 0.444580078 -0.649414062
vn 0.806640625 0.451660156 -0.380859375
vn 0.806640625 0.451660156 -0.380859375
vn 0.908691406 0.411621094 -0.0703125
vn 0.908691406 0.411621094 -0.0703125
vn 0.911132812 0.328613281 0.248168945
vn 0.911132812 0.328613281 0.248168945
vn 0.814453125 0.211914062 0.540039062
vn 0.814453125 0.211914062 0.540039062
vn 0.628417969 0.0738525391 0.774414062
vn 0.628417969 0.0738525391 0.774414062
vn 0.374023438 -0.0704345703 0.924804688
vn 0.374023438 -0.0704345703 0.924804688
vn 0.0780029297 -0.205322266 0.975585938
vn 0.0780029297 -0.205322266 0.975585938
vn -0.400390625 0.625976562 -0.668945312
vn -0.629882812 0.608886719 -0.481933594
vn -0.633300781 0.508300781 -0.583984375
vn -0.421630859 0.71484375 -0.558105469
vn -0.610351562 0.709472656 -0.352783203
vn -0.146240234 0.729980469 -0.667480469
vn -0.435302734 0.797851562 -0.416748047
vn -0.194213867 0.807617188 -0.556640625
vn 0.1015625 0.80859375 -0.579589844
vn -0.244262695 0.875976562 -0.415771484
vn 0.027633667 0.877929688 -0.478027344
vn 0.31640625 0.853515625 -0.414306641
vn -0.0579223633 0.935058594 -0.349365234
vn 0.219848633 0.91796875 -0.330322266
vn 0.474853516 0.859375 -0.190307617
vn 0.10357666 0.96875 -0.225341797
vn 0.361572266 0.923339844 -0.129638672
vn 0.559570312 0.825683594 0.0686035156
vn 0.22265625 0.973144531 -0.0568237305
vn 0.437744141 0.893554688 0.102050781
vn 0.562011719 0.756835938 0.334228516
vn 0.286621094 0.948242188 0.137817383
vn 0.439697266 0.831542969 0.33984375
vn 0.481201172 0.659179688 0.577636719
vn 0.288085938 0.895996094 0.337646484
vn 0.367431641 0.744140625 0.558105469
vn 0.326171875 0.543945312 0.772949219
vn 0.227416992 0.822753906 0.520996094
vn 0.228637695 0.641113281 0.732421875
vn 0.113830566 0.423583984 0.8984375
vn 0.110778809 0.736328125 0.667480469
vn 0.038482666 0.533203125 0.844726562
vn -0.13293457 0.311035156 0.940917969
vn -0.0488891602 0.645996094 0.76171875
vn -0.182373047 0.432617188 0.8828125
vn -0.23449707 0.561523438 0.793457031
vn -0.387451172 0.218505859 0.895507812
vn -0.182373047 0.432617188 0.8828125
vn -0.13293457 0.311035156 0.940917969
vn -0.41015625 0.349853516 0.842285156
vn -0.23449707 0.561523438 0.793457031
vn -0.622070312 0.156005859 0.767089844
vn -0.42578125 0.491943359 0.759765625
vn -0.620117188 0.293945312 0.727539062
vn -0.811035156 0.130371094 0.569824219
vn -0.602050781 0.444824219 0.663085938
vn -0.789550781 0.270996094 0.55078125
vn -0.934570312 0.144287109 0.325195312
vn -0.744140625 0.425537109 0.514648438
vn -0.899902344 0.283447266 0.331542969
vn -0.836914062 0.436035156 0.330810547
vn -0.978515625 0.196411133 0.0591430664
vn -0.870117188 0.475097656 0.130859375
vn -0.939453125 0.330078125 0.0936279297
vn -0.938964844 0.281005859 -0.198974609
vn -0.903808594 0.405761719 -0.137451172
vn -0.840332031 0.538574219 -0.0632324219
vn -0.819335938 0.388671875 -0.421386719
vn -0.796875 0.501953125 -0.336425781
vn -0.633300781 0.508300781 -0.583984375
vn -0.750488281 0.619628906 -0.23046875
vn -0.629882812 0.608886719 -0.481933594
vn -0.610351562 0.709472656 -0.352783203
vn -0.369140625 0.898925781 0.237060547
vn -0.408935547 0.890136719 0.200317383
vn -0.396728516 0.897949219 0.189575195
vn -0.416992188 0.883300781 0.21496582
vn -0.419433594 0.877441406 0.231933594
vn -0.416503906 0.874023438 0.249511719
vn -0.408447266 0.873046875 0.265625
vn -0.395996094 0.875 0.278564453
vn -0.380615234 0.87890625 0.287109375
vn -0.363769531 0.885253906 0.290039062
vn -0.34765625 0.892578125 0.287353516
vn -0.333496094 0.900390625 0.279052734
vn -0.323486328 0.908203125 0.266113281
vn -0.318115234 0.914550781 0.25
vn -0.318115234 0.918945312 0.232543945
vn -0.323730469 0.921386719 0.215454102
vn -0.334228516 0.920898438 0.200805664
vn -0.348388672 0.91796875 0.189941406
vn -0.364746094 0.912597656 0.184082031
vn -0.381347656 0.905761719 0.183959961
vn -0.396728516 0.897949219 0.189575195
vn 0.0693969727 -0.870605469 -0.487060547
vn 0.368896484 -0.898925781 -0.237060547
vn 0.174194336 -0.809570312 -0.560546875
vn 0.0089263916 -0.924804688 -0.379882812
vn -0.00180721283 -0.966308594 -0.2578125
vn 0.0311584473 -0.989746094 -0.139770508
vn 0.0942382812 -0.994628906 -0.0428161621
vn 0.17199707 -0.984863281 0.0283966064
vn 0.260253906 -0.962890625 0.0743408203
vn 0.351318359 -0.931640625 0.0930786133
vn 0.447265625 -0.890136719 0.0871582031
vn 0.544921875 -0.836914062 0.0503845215
vn 0.625976562 -0.779785156 -0.0179138184
vn 0.677246094 -0.7265625 -0.114868164
vn 0.688476562 -0.686523438 -0.232910156
vn 0.655761719 -0.666992188 -0.353759766
vn 0.586425781 -0.66796875 -0.458251953
vn 0.491210938 -0.687011719 -0.53515625
vn 0.385742188 -0.720214844 -0.576660156
vn 0.286376953 -0.759277344 -0.583984375
vn 0.174194336 -0.809570312 -0.560546875
vn -0.395263672 0.886230469 -0.24230957
vn -0.369140625 0.898925781 0.236938477
vn -0.531738281 0.819824219 -0.213134766
vn -0.271972656 0.93359375 -0.232788086
vn -0.140991211 0.973144531 -0.181518555
vn -0.0227508545 0.99609375 -0.0865478516
vn 0.0631103516 0.997070312 0.042755127
vn 0.102966309 0.975585938 0.193359375
vn 0.0865478516 0.935546875 0.342773438
vn 0.0185241699 0.883300781 0.468261719
vn -0.0867919922 0.824707031 0.55859375
vn -0.211547852 0.765625 0.607421875
vn -0.332519531 0.714355469 0.615722656
vn -0.445800781 0.672363281 0.591308594
vn -0.5546875 0.640136719 0.531738281
vn -0.648925781 0.62109375 0.439697266
vn -0.721679688 0.616699219 0.314697266
vn -0.755371094 0.634277344 0.16418457
vn -0.736328125 0.676269531 0.0102844238
vn -0.66015625 0.741210938 -0.122741699
vn -0.531738281 0.819824219 -0.213134766
g Chair_Leg_01_0
f 3/3/3 2/2/2 1/1/1
f 2/2/2 4/4/4 1/1/1
f 1/1/1 4/4/4 5/5/5
f 6/6/6 4/4/4 2/2/2
f 7/7/7 6/6/6 2/2/2
f 7/7/7 8/8/8 6/6/6
f 4/4/4 9/9/9 5/5/5
f 9/9/9 4/4/4 6/6/6
f 5/5/5 9/9/9 10/10/10
f 8/8/8 11/11/11 6/6/6
f 8/8/8 12/12/12 11/11/11
f 9/9/9 13/13/13 10/10/10
f 10/10/10 13/13/13 14/14/14
f 15/15/15 9/9/9 6/6/6
f 6/6/6 11/11/11 15/15/15
f 12/12/12 16/16/16 11/11/11
f 12/12/12 17/17/17 16/16/16
f 15/15/15 18/18/18 9/9/9
f 18/18/18 13/13/13 9/9/9
f 11/11/11 19/19/19 15/15/15
f 11/11/11 16/16/16 19/19/19
f 15/15/15 19/19/19 18/18/18
f 13/13/13 20/20/20 14/14/14
f 14/14/14 20/20/20 21/21/21
f 18/18/18 22/22/22 13/13/13
f 22/22/22 20/20/20 13/13/13
f 20/20/20 23/23/23 21/21/21
f 23/23/23 20/20/20 22/22/22
f 21/21/21 23/23/23 24/24/24
f 19/19/19 25/25/25 18/18/18
f 18/18/18 25/25/25 22/22/22
f 16/16/16 26/26/26 19/19/19
f 19/19/19 26/26/26 25/25/25
f 23/23/23 27/27/27 24/24/24
f 28/28/28 27/27/27 23/23/23
f 24/24/24 27/27/27 29/29/29
f 27/27/27 30/30/30 29/29/29
f 30/30/30 27/27/27 28/28/28
f 29/29/29 30/30/30 31/31/31
f 32/32/32 23/23/23 22/22/22
f 32/32/32 28/28/28 23/23/23
f 25/25/25 33/33/33 22/22/22
f 22/22/22 33/33/33 32/32/32
f 16/16/16 34/34/34 26/26/26
f 17/17/17 34/34/34 16/16/16
f 26/26/26 35/35/35 25/25/25
f 25/25/25 35/35/35 33/33/33
f 33/33/33 36/36/36 32/32/32
f 32/32/32 36/36/36 28/28/28
f 30/30/30 37/37/37 31/31/31
f 31/31/31 37/37/37 38/38/38
f 34/34/34 39/39/39 26/26/26
f 26/26/26 39/39/39 35/35/35
f 40/40/40 34/34/34 17/17/17
f 41/41/41 40/40/40 17/17/17
f 41/41/41 42/42/42 40/40/40
f 42/42/42 43/43/43 40/40/40
f 34/34/34 40/40/40 44/44/44
f 40/40/40 43/43/43 44/44/44
f 39/39/39 34/34/34 44/44/44
f 43/43/43 45/45/45 44/44/44
f 44/44/44 45/45/45 46/46/46
f 44/44/44 46/46/46 39/39/39
f 45/45/45 47/47/47 46/46/46
f 39/39/39 48/48/48 35/35/35
f 46/46/46 48/48/48 39/39/39
f 46/46/46 47/47/47 49/49/49
f 46/46/46 49/49/49 48/48/48
f 47/47/47 50/50/50 49/49/49
f 35/35/35 48/48/48 51/51/51
f 35/35/35 51/51/51 33/33/33
f 33/33/33 51/51/51 36/36/36
f 49/49/49 52/52/52 48/48/48
f 48/48/48 52/52/52 51/51/51
f 49/49/49 50/50/50 53/53/53
f 52/52/52 49/49/49 53/53/53
f 50/50/50 54/54/54 53/53/53
f 51/51/51 55/55/55 36/36/36
f 51/51/51 52/52/52 55/55/55
f 56/56/56 52/52/52 53/53/53
f 52/52/52 56/56/56 55/55/55
f 53/53/53 54/54/54 57/57/57
f 53/53/53 57/57/57 56/56/56
f 54/54/54 58/58/58 57/57/57
f 36/36/36 55/55/55 59/59/59
f 36/36/36 59/59/59 28/28/28
f 55/55/55 56/56/56 60/60/60
f 55/55/55 60/60/60 59/59/59
f 57/57/57 61/61/61 56/56/56
f 56/56/56 61/61/61 60/60/60
f 57/57/57 58/58/58 62/62/62
f 57/57/57 62/62/62 61/61/61
f 58/58/58 63/63/63 62/62/62
f 59/59/59 64/64/64 28/28/28
f 59/59/59 60/60/60 64/64/64
f 60/60/60 61/61/61 65/65/65
f 60/60/60 65/65/65 64/64/64
f 62/62/62 66/66/66 61/61/61
f 61/61/61 66/66/66 65/65/65
f 62/62/62 63/63/63 67/67/67
f 62/62/62 67/67/67 66/66/66
f 63/63/63 68/68/68 67/67/67
f 67/67/67 68/68/68 69/69/69
f 68/68/68 70/70/70 69/69/69
f 67/67/67 71/71/71 66/66/66
f 67/67/67 69/69/69 71/71/71
f 65/65/65 66/66/66 72/72/72
f 66/66/66 71/71/71 72/72/72
f 69/69/69 70/70/70 73/73/73
f 70/70/70 74/74/74 73/73/73
f 73/73/73 75/75/75 69/69/69
f 75/75/75 76/76/76 69/69/69
f 69/69/69 76/76/76 71/71/71
f 76/76/76 75/75/75 77/77/77
f 71/71/71 76/76/76 78/78/78
f 78/78/78 76/76/76 77/77/77
f 72/72/72 71/71/71 78/78/78
f 78/78/78 77/77/77 79/79/79
f 80/80/80 78/78/78 79/79/79
f 72/72/72 78/78/78 80/80/80
f 80/80/80 79/79/79 81/81/81
f 65/65/65 72/72/72 82/82/82
f 82/82/82 72/72/72 80/80/80
f 64/64/64 65/65/65 82/82/82
f 83/83/83 80/80/80 81/81/81
f 82/82/82 80/80/80 83/83/83
f 81/81/81 84/84/84 83/83/83
f 64/64/64 82/82/82 85/85/85
f 85/85/85 82/82/82 83/83/83
f 84/84/84 86/86/86 83/83/83
f 86/86/86 84/84/84 87/87/87
f 38/38/38 86/86/86 87/87/87
f 37/37/37 86/86/86 38/38/38
f 83/83/83 86/86/86 37/37/37
f 85/85/85 83/83/83 37/37/37
f 85/85/85 37/37/37 30/30/30
f 88/88/88 64/64/64 85/85/85
f 88/88/88 85/85/85 30/30/30
f 64/64/64 88/88/88 28/28/28
f 88/88/88 30/30/30 28/28/28
f 91/91/91 90/90/90 89/89/89
f 90/90/90 92/92/92 89/89/89
f 89/89/89 92/92/92 93/93/93
f 94/94/94 92/92/92 90/90/90
f 95/95/95 94/94/94 90/90/90
f 95/95/95 96/96/96 94/94/94
f 92/92/92 97/97/97 93/93/93
f 93/93/93 97/97/97 98/98/98
f 94/94/94 99/99/99 92/92/92
f 99/99/99 97/97/97 92/92/92
f 96/96/96 100/100/100 94/94/94
f 94/94/94 100/100/100 99/99/99
f 96/96/96 101/101/101 100/100/100
f 97/97/97 102/102/102 98/98/98
f 102/102/102 97/97/97 99/99/99
f 98/98/98 102/102/102 103/103/103
f 101/101/101 104/104/104 100/100/100
f 101/101/101 105/105/105 104/104/104
f 100/100/100 106/106/106 99/99/99
f 100/100/100 104/104/104 106/106/106
f 105/105/105 107/107/107 104/104/104
f 107/107/107 105/105/105 108/108/108
f 102/102/102 109/109/109 103/103/103
f 103/103/103 109/109/109 110/110/110
f 111/111/111 102/102/102 99/99/99
f 99/99/99 106/106/106 111/111/111
f 104/104/104 112/112/112 106/106/106
f 104/104/104 107/107/107 112/112/112
f 111/111/111 113/113/113 102/102/102
f 113/113/113 109/109/109 102/102/102
f 106/106/106 114/114/114 111/111/111
f 106/106/106 112/112/112 114/114/114
f 111/111/111 114/114/114 113/113/113
f 109/109/109 115/115/115 110/110/110
f 116/116/116 110/110/110 115/115/115
f 113/113/113 117/117/117 109/109/109
f 117/117/117 115/115/115 109/109/109
f 118/118/118 116/116/116 115/115/115
f 118/118/118 115/115/115 117/117/117
f 116/116/116 118/118/118 119/119/119
f 114/114/114 120/120/120 113/113/113
f 113/113/113 120/120/120 117/117/117
f 112/112/112 121/121/121 114/114/114
f 114/114/114 121/121/121 120/120/120
f 118/118/118 122/122/122 119/119/119
f 119/119/119 122/122/122 123/123/123
f 124/124/124 118/118/118 117/117/117
f 122/122/122 118/118/118 124/124/124
f 120/120/120 125/125/125 117/117/117
f 117/117/117 125/125/125 124/124/124
f 122/122/122 126/126/126 123/123/123
f 123/123/123 126/126/126 127/127/127
f 126/126/126 128/128/128 127/127/127
f 129/129/129 128/128/128 126/126/126
f 130/130/130 122/122/122 124/124/124
f 126/126/126 122/122/122 130/130/130
f 131/131/131 129/129/129 126/126/126
f 131/131/131 126/126/126 130/130/130
f 124/124/124 132/132/132 130/130/130
f 125/125/125 132/132/132 124/124/124
f 120/120/120 133/133/133 125/125/125
f 121/121/121 133/133/133 120/120/120
f 131/131/131 134/134/134 129/129/129
f 134/134/134 135/135/135 129/129/129
f 130/130/130 136/136/136 131/131/131
f 132/132/132 136/136/136 130/130/130
f 136/136/136 134/134/134 131/131/131
f 125/125/125 137/137/137 132/132/132
f 133/133/133 137/137/137 125/125/125
f 134/134/134 138/138/138 135/135/135
f 138/138/138 139/139/139 135/135/135
f 132/132/132 140/140/140 136/136/136
f 137/137/137 140/140/140 132/132/132
f 136/136/136 141/141/141 134/134/134
f 141/141/141 138/138/138 134/134/134
f 140/140/140 141/141/141 136/136/136
f 138/138/138 142/142/142 139/139/139
f 142/142/142 143/143/143 139/139/139
f 144/144/144 143/143/143 142/142/142
f 141/141/141 145/145/145 138/138/138
f 145/145/145 142/142/142 138/138/138
f 140/140/140 146/146/146 141/141/141
f 146/146/146 145/145/145 141/141/141
f 137/137/137 147/147/147 140/140/140
f 147/147/147 146/146/146 140/140/140
f 133/133/133 148/148/148 137/137/137
f 148/148/148 147/147/147 137/137/137
f 149/149/149 144/144/144 142/142/142
f 142/142/142 145/145/145 149/149/149
f 145/145/145 146/146/146 150/150/150
f 145/145/145 150/150/150 149/149/149
f 149/149/149 151/151/151 144/144/144
f 151/151/151 152/152/152 144/144/144
f 153/153/153 151/151/151 149/149/149
f 150/150/150 153/153/153 149/149/149
f 154/154/154 153/153/153 150/150/150
f 146/146/146 155/155/155 150/150/150
f 155/155/155 154/154/154 150/150/150
f 146/146/146 147/147/147 155/155/155
f 156/156/156 154/154/154 155/155/155
f 147/147/147 157/157/157 155/155/155
f 157/157/157 156/156/156 155/155/155
f 157/157/157 147/147/147 148/148/148
f 158/158/158 156/156/156 157/157/157
f 159/159/159 158/158/158 157/157/157
f 159/159/159 157/157/157 148/148/148
f 160/160/160 158/158/158 159/159/159
f 159/159/159 148/148/148 161/161/161
f 161/161/161 148/148/148 133/133/133
f 121/121/121 161/161/161 133/133/133
f 162/162/162 160/160/160 159/159/159
f 162/162/162 159/159/159 161/161/161
f 163/163/163 160/160/160 162/162/162
f 164/164/164 161/161/161 121/121/121
f 161/161/161 164/164/164 162/162/162
f 112/112/112 164/164/164 121/121/121
f 107/107/107 164/164/164 112/112/112
f 165/165/165 163/163/163 162/162/162
f 164/164/164 165/165/165 162/162/162
f 165/165/165 164/164/164 107/107/107
f 166/166/166 163/163/163 165/165/165
f 167/167/167 165/165/165 107/107/107
f 167/167/167 166/166/166 165/165/165
f 167/167/167 107/107/107 108/108/108
f 168/168/168 166/166/166 167/167/167
f 108/108/108 168/168/168 167/167/167
f 171/171/171 170/170/170 169/169/169
f 172/172/172 171/171/171 169/169/169
f 173/173/173 172/172/172 169/169/169
f 174/174/174 173/173/173 169/169/169
f 175/175/175 173/173/173 174/174/174
f 176/176/176 175/175/175 174/174/174
f 175/175/175 176/176/176 177/177/177
f 178/178/178 175/175/175 177/177/177
f 179/179/179 178/178/178 177/177/177
f 180/180/180 179/179/179 177/177/177
f 179/179/179 180/180/180 181/181/181
f 182/182/182 179/179/179 181/181/181
f 183/183/183 182/182/182 181/181/181
f 184/184/184 183/183/183 181/181/181
f 185/185/185 183/183/183 184/184/184
f 186/186/186 185/185/185 184/184/184
f 185/185/185 186/186/186 187/187/187
f 188/188/188 185/185/185 187/187/187
f 189/189/189 188/188/188 187/187/187
f 190/190/190 189/189/189 187/187/187
f 193/193/193 192/192/192 191/191/191
f 194/194/194 193/193/193 191/191/191
f 195/195/195 193/193/193 194/194/194
f 196/196/196 195/195/195 194/194/194
f 197/197/197 195/195/195 196/196/196
f 198/198/198 197/197/197 196/196/196
f 199/199/199 197/197/197 198/198/198
f 200/200/200 199/199/199 198/198/198
f 201/201/201 199/199/199 200/200/200
f 202/202/202 201/201/201 200/200/200
f 203/203/203 201/201/201 202/202/202
f 204/204/204 203/203/203 202/202/202
f 205/205/205 203/203/203 204/204/204
f 206/206/206 205/205/205 204/204/204
f 207/207/207 205/205/205 206/206/206
f 208/208/208 207/207/207 206/206/206
f 209/209/209 207/207/207 208/208/208
f 210/210/210 209/209/209 208/208/208
f 211/211/211 209/209/209 210/210/210
f 212/212/212 211/211/211 210/210/210
f 215/215/215 214/214/214 213/213/213
f 214/214/214 216/216/216 213/213/213
f 213/213/213 216/216/216 217/217/217
f 216/216/216 218/218/218 217/217/217
f 217/217/217 218/218/218 219/219/219
f 218/218/218 220/220/220 219/219/219
f 219/219/219 220/220/220 221/221/221
f 220/220/220 222/222/222 221/221/221
f 221/221/221 222/222/222 223/223/223
f 222/222/222 224/224/224 223/223/223
f 223/223/223 224/224/224 225/225/225
f 224/224/224 226/226/226 225/225/225
f 225/225/225 226/226/226 227/227/227
f 226/226/226 228/228/228 227/227/227
f 227/227/227 228/228/228 229/229/229
f 228/228/228 230/230/230 229/229/229
f 229/229/229 230/230/230 231/231/231
f 230/230/230 232/232/232 231/231/231
f 235/235/235 234/234/234 233/233/233
f 234/234/234 236/236/236 233/233/233
f 233/233/233 236/236/236 237/237/237
f 236/236/236 238/238/238 237/237/237
f 238/238/238 239/239/239 237/237/237
f 239/239/239 240/240/240 237/237/237
f 240/240/240 239/239/239 241/241/241
f 239/239/239 242/242/242 241/241/241
f 241/241/241 242/242/242 243/243/243
f 242/242/242 244/244/244 243/243/243
f 243/243/243 244/244/244 245/245/245
f 244/244/244 246/246/246 245/245/245
f 245/245/245 246/246/246 247/247/247
f 246/246/246 248/248/248 247/247/247
f 248/248/248 249/249/249 247/247/247
f 249/249/249 250/250/250 247/247/247
f 250/250/250 249/249/249 251/251/251
f 249/249/249 252/252/252 251/251/251
f 255/255/255 254/254/254 253/253/253
f 256/256/256 255/255/255 253/253/253
f 257/257/257 255/255/255 256/256/256
f 258/258/258 257/257/257 256/256/256
f 259/259/259 257/257/257 258/258/258
f 260/260/260 259/259/259 258/258/258
f 261/261/261 259/259/259 260/260/260
f 262/262/262 261/261/261 260/260/260
f 263/263/263 261/261/261 262/262/262
f 264/264/264 263/263/263 262/262/262
f 265/265/265 263/263/263 264/264/264
f 266/266/266 265/265/265 264/264/264
f 267/267/267 265/265/265 266/266/266
f 268/268/268 267/267/267 266/266/266
f 269/269/269 267/267/267 268/268/268
f 270/270/270 269/269/269 268/268/268
f 273/273/273 272/272/272 271/271/271
f 272/272/272 274/274/274 271/271/271
f 271/271/271 274/274/274 275/275/275
f 274/274/274 276/276/276 275/275/275
f 275/275/275 276/276/276 277/277/277
f 276/276/276 278/278/278 277/277/277
f 277/277/277 278/278/278 279/279/279
f 278/278/278 280/280/280 279/279/279
f 279/279/279 280/280/280 281/281/281
f 280/280/280 282/282/282 281/281/281
f 281/281/281 282/282/282 283/283/283
f 282/282/282 284/284/284 283/283/283
f 283/283/283 284/284/284 285/285/285
f 284/284/284 286/286/286 285/285/285
f 285/285/285 286/286/286 287/287/287
f 286/286/286 288/288/288 287/287/287
f 287/287/287 288/288/288 289/289/289
f 288/288/288 290/290/290 289/289/289
f 289/289/289 290/290/290 291/291/291
f 290/290/290 292/292/292 291/291/291
f 291/291/291 292/292/292 293/293/293
f 292/292/292 294/294/294 293/293/293
f 297/297/297 296/296/296 295/295/295
f 296/296/296 298/298/298 295/295/295
f 296/296/296 299/299/299 298/298/298
f 295/295/295 298/298/298 300/300/300
f 299/299/299 301/301/301 298/298/298
f 298/298/298 302/302/302 300/300/300
f 298/298/298 301/301/301 302/302/302
f 300/300/300 302/302/302 303/303/303
f 301/301/301 304/304/304 302/302/302
f 302/302/302 305/305/305 303/303/303
f 302/302/302 304/304/304 305/305/305
f 303/303/303 305/305/305 306/306/306
f 304/304/304 307/307/307 305/305/305
f 305/305/305 308/308/308 306/306/306
f 305/305/305 307/307/307 308/308/308
f 306/306/306 308/308/308 309/309/309
f 307/307/307 310/310/310 308/308/308
f 308/308/308 311/311/311 309/309/309
f 308/308/308 310/310/310 311/311/311
f 309/309/309 311/311/311 312/312/312
f 310/310/310 313/313/313 311/311/311
f 311/311/311 314/314/314 312/312/312
f 311/311/311 313/313/313 314/314/314
f 312/312/312 314/314/314 315/315/315
f 313/313/313 316/316/316 314/314/314
f 314/314/314 317/317/317 315/315/315
f 314/314/314 316/316/316 317/317/317
f 315/315/315 317/317/317 318/318/318
f 316/316/316 319/319/319 317/317/317
f 317/317/317 320/320/320 318/318/318
f 317/317/317 319/319/319 320/320/320
f 318/318/318 320/320/320 321/321/321
f 319/319/319 322/322/322 320/320/320
f 320/320/320 323/323/323 321/321/321
f 320/320/320 322/322/322 323/323/323
f 321/321/321 323/323/323 324/324/324
f 322/322/322 325/325/325 323/323/323
f 323/323/323 326/326/326 324/324/324
f 323/323/323 325/325/325 326/326/326
f 324/324/324 326/326/326 327/327/327
f 325/325/325 328/328/328 326/326/326
f 326/326/326 329/329/329 327/327/327
f 326/326/326 328/328/328 329/329/329
f 328/328/328 330/330/330 329/329/329
f 333/333/333 332/332/332 331/331/331
f 332/332/332 334/334/334 331/331/331
f 332/332/332 335/335/335 334/334/334
f 331/331/331 334/334/334 336/336/336
f 335/335/335 337/337/337 334/334/334
f 334/334/334 338/338/338 336/336/336
f 334/334/334 337/337/337 338/338/338
f 336/336/336 338/338/338 339/339/339
f 337/337/337 340/340/340 338/338/338
f 338/338/338 341/341/341 339/339/339
f 338/338/338 340/340/340 341/341/341
f 339/339/339 341/341/341 342/342/342
f 340/340/340 343/343/343 341/341/341
f 341/341/341 344/344/344 342/342/342
f 341/341/341 343/343/343 344/344/344
f 343/343/343 345/345/345 344/344/344
f 342/342/342 344/344/344 346/346/346
f 345/345/345 347/347/347 344/344/344
f 344/344/344 348/348/348 346/346/346
f 347/347/347 348/348/348 344/344/344
f 346/346/346 348/348/348 349/349/349
f 348/348/348 347/347/347 350/350/350
f 348/348/348 350/350/350 349/349/349
f 347/347/347 351/351/351 350/350/350
f 349/349/349 350/350/350 352/352/352
f 350/350/350 351/351/351 353/353/353
f 350/350/350 353/353/353 352/352/352
f 352/352/352 353/353/353 354/354/354
f 351/351/351 355/355/355 353/353/353
f 353/353/353 356/356/356 354/354/354
f 353/353/353 355/355/355 356/356/356
f 355/355/355 357/357/357 356/356/356
f 360/360/360 359/359/359 358/358/358
f 359/359/359 361/361/361 358/358/358
f 361/361/361 362/362/362 358/358/358
f 362/362/362 363/363/363 358/358/358
f 363/363/363 364/364/364 358/358/358
f 364/364/364 365/365/365 358/358/358
f 365/365/365 366/366/366 358/358/358
f 366/366/366 367/367/367 358/358/358
f 367/367/367 368/368/368 358/358/358
f 368/368/368 369/369/369 358/358/358
f 369/369/369 370/370/370 358/358/358
f 370/370/370 371/371/371 358/358/358
f 371/371/371 372/372/372 358/358/358
f 372/372/372 373/373/373 358/358/358
f 373/373/373 374/374/374 358/358/358
f 374/374/374 375/375/375 358/358/358
f 375/375/375 376/376/376 358/358/358
f 376/376/376 377/377/377 358/358/358
f 377/377/377 378/378/378 358/358/358
f 381/381/381 380/380/380 379/379/379
f 379/379/379 380/380/380 382/382/382
f 382/382/382 380/380/380 383/383/383
f 383/383/383 380/380/380 384/384/384
f 384/384/384 380/380/380 385/385/385
f 385/385/385 380/380/380 386/386/386
f 386/386/386 380/380/380 387/387/387
f 387/387/387 380/380/380 388/388/388
f 388/388/388 380/380/380 389/389/389
f 389/389/389 380/380/380 390/390/390
f 390/390/390 380/380/380 391/391/391
f 391/391/391 380/380/380 392/392/392
f 392/392/392 380/380/380 393/393/393
f 393/393/393 380/380/380 394/394/394
f 394/394/394 380/380/380 395/395/395
f 395/395/395 380/380/380 396/396/396
f 396/396/396 380/380/380 397/397/397
f 397/397/397 380/380/380 398/398/398
f 398/398/398 380/380/380 399/399/399
f 402/402/402 401/401/401 400/400/400
f 400/400/400 401/401/401 403/403/403
f 403/403/403 401/401/401 404/404/404
f 404/404/404 401/401/401 405/405/405
f 405/405/405 401/401/401 406/406/406
f 406/406/406 401/401/401 407/407/407
f 407/407/407 401/401/401 408/408/408
f 408/408/408 401/401/401 409/409/409
f 409/409/409 401/401/401 410/410/410
f 410/410/410 401/401/401 411/411/411
f 411/411/411 401/401/401 412/412/412
f 412/412/412 401/401/401 413/413/413
f 413/413/413 401/401/401 414/414/414
f 414/414/414 401/401/401 415/415/415
f 415/415/415 401/401/401 416/416/416
f 416/416/416 401/401/401 417/417/417
f 417/417/417 401/401/401 418/418/418
f 418/418/418 401/401/401 419/419/419
f 419/419/419 401/401/401 420/420/420
