g Chair_Seat
v 0.423593581 -0.190778151 -0.988830924
v 0.314366281 -0.190778136 -0.997172892
v -0.420022637 -0.190778092 -0.976283252
v 0.527067065 -0.190778151 -0.958575428
v -0.528599143 -0.190778092 -0.961745918
v -0.630185485 -0.190778151 -0.925657451
v 0.623321891 -0.190778077 -0.90727216
v -0.723368227 -0.190778136 -0.868965685
v 0.708664536 -0.190778092 -0.836755574
v -0.804564714 -0.190778092 -0.793711782
v 0.779742897 -0.190778136 -0.749625206
v -0.870575309 -0.190778136 -0.702681959
v 0.833708763 -0.190778136 -0.64917928
v -0.918744028 -0.190778181 -0.599330962
v 0.868367434 -0.190778151 -0.539296985
v -0.947100639 -0.190778181 -0.487656116
v 0.882786691 -0.190778136 -0.420238554
v -0.954728901 -0.190778136 -0.367970616
v 0.973204494 -0.190778211 0.358359277
v -1.00074208 -0.190778196 0.414508164
v 0.965146601 -0.190778196 0.473718256
v -0.986139476 -0.190778255 0.529222369
v 0.93480587 -0.190778196 0.585040569
v -0.949519694 -0.190778151 0.638640165
v 0.883329511 -0.190778211 0.68830514
v -0.892257035 -0.190778255 0.738811493
v 0.812696874 -0.190778255 0.779542923
v -0.816552043 -0.190778255 0.825886667
v 0.725621462 -0.190778211 0.855247796
v -0.72531414 -0.190778255 0.896519601
v 0.625450253 -0.190778255 0.912510514
v -0.622049749 -0.190778255 0.947995603
v 0.516032517 -0.190778255 0.949130297
v -0.510727286 -0.190778196 0.978336453
v 0.399310738 -0.190778226 0.963988304
v -0.393349648 -0.190778196 0.98653549
v 0.516032517 -0.190778255 0.949130297
v 0.644423485 -0.137959868 0.954867244
v 0.625450253 -0.190778255 0.912510514
v 0.526377559 -0.137959868 0.994374812
v 0.399310738 -0.190778226 0.963988304
v 0.402892262 -0.137959883 1.01009357
v -0.393349648 -0.190778196 0.98653549
v -0.394304663 -0.137959898 1.03276968
v -0.510727286 -0.190778196 0.978336453
v -0.518483818 -0.137959898 1.02409577
v -0.622049749 -0.190778255 0.947995603
v -0.638584673 -0.137959838 0.991362333
v -0.72531414 -0.190778255 0.896519601
v -0.749991715 -0.137959838 0.935827255
v 0.625450253 -0.190778255 0.912510514
v 0.644423485 -0.137959868 0.954867244
v 0.752493739 -0.137959838 0.893089175
v 0.725621462 -0.190778211 0.855247796
v 0.84643507 -0.137959883 0.811414838
v 0.812696874 -0.190778255 0.779542923
v 0.922637522 -0.137959853 0.712982595
v 0.883329511 -0.190778211 0.68830514
v 0.883329511 -0.190778211 0.68830514
v 0.922637522 -0.137959853 0.712982595
v 0.9781726 -0.137959853 0.601575553
v 0.93480587 -0.190778196 0.585040569
v 1.01090622 -0.137959898 0.481474638
v 0.965146601 -0.190778196 0.473718256
v 1.01958001 -0.137959778 0.357295573
v 0.973204494 -0.190778211 0.358359277
v 0.928663552 -0.137959778 -0.42559731
v 0.882786691 -0.190778136 -0.420238554
v 0.913705826 -0.137959808 -0.549104273
v 0.868367434 -0.190778151 -0.539296985
v 0.876452029 -0.137959749 -0.667214334
v 0.833708763 -0.190778136 -0.64917928
v 0.818333864 -0.137959778 -0.775388539
v 0.779742897 -0.190778136 -0.749625206
v 0.779742897 -0.190778136 -0.749625206
v 0.818333864 -0.137959778 -0.775388539
v 0.741585016 -0.137959719 -0.86947006
v 0.708664536 -0.190778092 -0.836755574
v 0.649154484 -0.137959778 -0.945843101
v 0.623321891 -0.190778077 -0.90727216
v 0.623321891 -0.190778077 -0.90727216
v 0.649154484 -0.137959778 -0.945843101
v 0.544594705 -0.137959749 -1.00157285
v 0.527067065 -0.190778151 -0.958575428
v 0.431923658 -0.137959749 -1.03451777
v 0.423593581 -0.190778151 -0.988830924
v 0.315471232 -0.137959793 -1.04341173
v 0.314366281 -0.190778136 -0.997172892
v -0.423754185 -0.137959734 -1.02238429
v -0.420022637 -0.190778092 -0.976283252
v -0.539512753 -0.137959749 -1.00688541
v -0.528599143 -0.190778092 -0.961745918
v -0.65012902 -0.137959704 -0.96758908
v -0.630185485 -0.190778151 -0.925657451
v -0.630185485 -0.190778151 -0.925657451
v -0.65012902 -0.137959704 -0.96758908
v -0.751351833 -0.137959689 -0.906005919
v -0.723368227 -0.190778136 -0.868965685
v -0.839291334 -0.137959734 -0.82450211
v -0.804564714 -0.190778092 -0.793711782
v -0.910568357 -0.137959734 -0.726210058
v -0.870575309 -0.190778136 -0.702681959
v -0.870575309 -0.190778136 -0.702681959
v -0.910568357 -0.137959734 -0.726210058
v -0.962443352 -0.137959704 -0.614907086
v -0.918744028 -0.190778181 -0.599330962
v -0.9929232 -0.137959719 -0.494870275
v -0.947100639 -0.190778181 -0.487656116
v -1.00083613 -0.137959778 -0.370712847
v -0.954728901 -0.190778136 -0.367970616
v -1.04710293 -0.137959719 0.416082144
v -1.00074208 -0.190778196 0.414508164
v -1.03138411 -0.137959838 0.539567411
v -0.986139476 -0.190778255 0.529222369
v -0.991876423 -0.137959838 0.657613456
v -0.949519694 -0.190778151 0.638640165
v -0.949519694 -0.190778151 0.638640165
v -0.991876423 -0.137959838 0.657613456
v -0.930098534 -0.137959838 0.765683591
v -0.892257035 -0.190778255 0.738811493
v -0.848423898 -0.137959838 0.859624982
v -0.816552043 -0.190778255 0.825886667
v -0.749991715 -0.137959838 0.935827255
v -0.72531414 -0.190778255 0.896519601
v -0.622049749 0.234129086 0.947995484
v -0.749991953 0.181310743 0.935827374
v -0.72531414 0.234129056 0.896519542
v -0.638584733 0.181310713 0.991362453
v -0.510727286 0.234129116 0.978336632
v -0.518483818 0.181310728 1.02409589
v -0.393349797 0.23412922 0.986535609
v -0.394304663 0.181310683 1.03276992
v 0.399310708 0.234129056 0.963988185
v 0.402892232 0.181310743 1.01009381
v 0.516032457 0.234129056 0.949130297
v 0.526377559 0.181310683 0.994374931
v 0.625450253 0.234129101 0.912510574
v 0.644423485 0.181310713 0.954867363
v -0.72531414 0.234129056 0.896519542
v -0.749991953 0.181310743 0.935827374
v -0.848424077 0.181310683 0.859624863
v -0.816552043 0.234129116 0.825886667
v -0.930098474 0.181310713 0.765683591
v -0.892256975 0.234129116 0.738811314
v -0.991876483 0.181310743 0.657613456
v -0.949519694 0.234129116 0.638640106
v -0.749991715 -0.137959838 0.935827255
v -0.848423898 -0.137959838 0.859624982
v -0.848424077 0.181310683 0.859624863
v -0.749991953 0.181310743 0.935827374
v -0.638584673 -0.137959838 0.991362333
v -0.638584733 0.181310713 0.991362453
v -0.518483818 -0.137959898 1.02409577
v -0.518483818 0.181310728 1.02409589
v -0.394304663 -0.137959898 1.03276968
v -0.394304663 0.181310683 1.03276992
v 0.402892262 -0.137959883 1.01009357
v 0.402892232 0.181310743 1.01009381
v 0.526377559 -0.137959868 0.994374812
v 0.526377559 0.181310683 0.994374931
v 0.644423485 -0.137959868 0.954867244
v 0.644423485 0.181310713 0.954867363
v 0.752493739 -0.137959838 0.893089175
v 0.75249368 0.181310683 0.893089294
v 0.84643507 -0.137959883 0.811414838
v 0.84643507 0.181310669 0.811414719
v -0.848423898 -0.137959838 0.859624982
v -0.930098474 0.181310713 0.765683591
v -0.848424077 0.181310683 0.859624863
v -0.930098534 -0.137959838 0.765683591
v -0.991876483 0.181310743 0.657613456
v -0.991876423 -0.137959838 0.657613456
v -1.03138411 0.181310758 0.539567411
v -1.03138411 -0.137959838 0.539567411
v -1.04710293 0.181310803 0.416082144
v -1.04710293 -0.137959719 0.416082144
v -1.00083613 0.181310803 -0.370712876
v -1.00083613 -0.137959778 -0.370712847
v -0.9929232 0.181310818 -0.494870365
v -0.9929232 -0.137959719 -0.494870275
v -0.962443352 0.181310803 -0.614907086
v -0.962443352 -0.137959704 -0.614907086
v -0.910568357 0.181310803 -0.726209998
v -0.910568357 -0.137959734 -0.726210058
v -0.839291513 0.181310847 -0.82450211
v -0.839291334 -0.137959734 -0.82450211
v -0.949519694 0.234129116 0.638640106
v -0.991876483 0.181310743 0.657613456
v -1.03138411 0.181310758 0.539567411
v -0.986139655 0.234129116 0.52922231
v -1.04710293 0.181310803 0.416082144
v -1.00074196 0.234129161 0.414507985
v -1.00083613 0.181310803 -0.370712876
v -0.954728901 0.23412922 -0.367970586
v -0.9929232 0.181310818 -0.494870365
v -0.94710058 0.234129176 -0.487656116
v -0.962443352 0.181310803 -0.614907086
v -0.918744087 0.23412919 -0.599331021
v -0.910568357 0.181310803 -0.726209998
v -0.870575309 0.234129161 -0.702682018
v -0.870575309 0.234129161 -0.702682018
v -0.910568357 0.181310803 -0.726209998
v -0.839291513 0.181310847 -0.82450211
v -0.804564595 0.23412919 -0.793711782
v -0.751351655 0.181310803 -0.906005859
v -0.723368287 0.234129176 -0.868965745
v -0.650128901 0.181310803 -0.96758908
v -0.630185485 0.234129176 -0.925657392
v -0.751351655 0.181310803 -0.906005859
v -0.839291513 0.181310847 -0.82450211
v -0.839291334 -0.137959734 -0.82450211
v -0.751351833 -0.137959689 -0.906005919
v -0.650128901 0.181310803 -0.96758908
v -0.65012902 -0.137959704 -0.96758908
v -0.539512694 0.181310818 -1.00688529
v -0.539512753 -0.137959749 -1.00688541
v -0.423754185 0.181310847 -1.02238429
v -0.423754185 -0.137959734 -1.02238429
v 0.315471232 0.181310758 -1.04341161
v 0.315471232 -0.137959793 -1.04341173
v 0.431923658 0.181310758 -1.03451777
v 0.431923658 -0.137959749 -1.03451777
v 0.544594705 0.181310818 -1.00157285
v 0.544594705 -0.137959749 -1.00157285
v 0.649154484 0.181310758 -0.94584316
v 0.649154484 -0.137959778 -0.945843101
v 0.741585016 0.181310758 -0.869470119
v 0.741585016 -0.137959719 -0.86947006
v -0.630185485 0.234129176 -0.925657392
v -0.650128901 0.181310803 -0.96758908
v -0.539512694 0.181310818 -1.00688529
v -0.528599143 0.234129235 -0.961745799
v -0.423754185 0.181310847 -1.02238429
v -0.420022696 0.23412922 -0.976283312
v 0.315471232 0.181310758 -1.04341161
v 0.314366281 0.234129176 -0.997172892
v 0.431923658 0.181310758 -1.03451777
v 0.423593551 0.234129176 -0.988830924
v 0.544594705 0.181310818 -1.00157285
v 0.527067006 0.234129116 -0.958575368
v 0.649154484 0.181310758 -0.94584316
v 0.623321891 0.234129176 -0.90727216
v 0.623321891 0.234129176 -0.90727216
v 0.649154484 0.181310758 -0.94584316
v 0.741585016 0.181310758 -0.869470119
v 0.708664477 0.234129116 -0.836755574
v 0.818333805 0.181310758 -0.775388539
v 0.779742777 0.23412925 -0.749625206
v 0.818333805 0.181310758 -0.775388539
v 0.741585016 0.181310758 -0.869470119
v 0.741585016 -0.137959719 -0.86947006
v 0.818333864 -0.137959778 -0.775388539
v 0.87645191 0.181310758 -0.667214334
v 0.876452029 -0.137959749 -0.667214334
v 0.913705826 0.181310713 -0.549104273
v 0.913705826 -0.137959808 -0.549104273
v 0.928663433 0.181310803 -0.42559731
v 0.928663552 -0.137959778 -0.42559731
v 1.01957989 0.181310803 0.357295513
v 1.01958001 -0.137959778 0.357295573
v 1.0109061 0.181310713 0.481474638
v 1.01090622 -0.137959898 0.481474638
v 0.978172481 0.181310683 0.601575553
v 0.9781726 -0.137959853 0.601575553
v 0.922637463 0.181310683 0.712982595
v 0.922637522 -0.137959853 0.712982595
v 0.84643507 0.181310669 0.811414719
v 0.84643507 -0.137959883 0.811414838
v 0.779742777 0.23412925 -0.749625206
v 0.818333805 0.181310758 -0.775388539
v 0.87645191 0.181310758 -0.667214334
v 0.833708763 0.234129161 -0.64917928
v 0.913705826 0.181310713 -0.549104273
v 0.868367374 0.234129056 -0.539296985
v 0.928663433 0.181310803 -0.42559731
v 0.882786691 0.234129056 -0.420238554
v 1.01957989 0.181310803 0.357295513
v 0.973204553 0.234129131 0.358359247
v 1.0109061 0.181310713 0.481474638
v 0.965146601 0.234129056 0.473718137
v 0.978172481 0.181310683 0.601575553
v 0.93480587 0.234129161 0.58504051
v 0.922637463 0.181310683 0.712982595
v 0.88332963 0.234129101 0.68830502
v 0.88332963 0.234129101 0.68830502
v 0.922637463 0.181310683 0.712982595
v 0.84643507 0.181310669 0.811414719
v 0.812696874 0.234129101 0.779542923
v 0.75249368 0.181310683 0.893089294
v 0.725621521 0.234129056 0.855247855
v 0.644423485 0.181310713 0.954867363
v 0.625450253 0.234129101 0.912510574
v -0.420022696 0.23412922 -0.976283312
v 0.314366281 0.234129176 -0.997172892
v 0.423593551 0.234129176 -0.988830924
v 0.527067006 0.234129116 -0.958575368
v -0.528599143 0.234129235 -0.961745799
v -0.630185485 0.234129176 -0.925657392
v 0.623321891 0.234129176 -0.90727216
v -0.723368287 0.234129176 -0.868965745
v 0.708664477 0.234129116 -0.836755574
v -0.804564595 0.23412919 -0.793711782
v 0.779742777 0.23412925 -0.749625206
v -0.870575309 0.234129161 -0.702682018
v 0.833708763 0.234129161 -0.64917928
v -0.918744087 0.23412919 -0.599331021
v 0.868367374 0.234129056 -0.539296985
v -0.94710058 0.234129176 -0.487656116
v 0.882786691 0.234129056 -0.420238554
v -0.954728901 0.23412922 -0.367970586
v 0.973204553 0.234129131 0.358359247
v -1.00074196 0.234129161 0.414507985
v 0.965146601 0.234129056 0.473718137
v -0.986139655 0.234129116 0.52922231
v 0.93480587 0.234129161 0.58504051
v -0.949519694 0.234129116 0.638640106
v 0.88332963 0.234129101 0.68830502
v -0.892256975 0.234129116 0.738811314
v 0.812696874 0.234129101 0.779542923
v -0.816552043 0.234129116 0.825886667
v 0.725621521 0.234129056 0.855247855
v -0.72531414 0.234129056 0.896519542
v 0.625450253 0.234129101 0.912510574
v -0.622049749 0.234129086 0.947995484
v 0.516032457 0.234129056 0.949130297
v -0.510727286 0.234129116 0.978336632
v 0.399310708 0.234129056 0.963988185
v -0.393349797 0.23412922 0.986535609
vt 0.489257812 1.10546875
vt 0.493164062 1.06933594
vt 0.493164062 0.825195312
vt 0.478271484 1.13964844
vt 0.489257812 0.7890625
vt 0.478271484 0.754882812
vt 0.460205078 1.171875
vt 0.460205078 0.723144531
vt 0.436035156 1.19921875
vt 0.436035156 0.6953125
vt 0.406494141 1.22167969
vt 0.406494141 0.672851562
vt 0.372558594 1.23925781
vt 0.372558594 0.655761719
vt 0.335693359 1.25
vt 0.335693359 0.645019531
vt 0.295898438 1.25292969
vt 0.295898438 0.641601562
vt 0.0359802246 1.27636719
vt 0.0359802246 0.618652344
vt -0.00230979919 1.27246094
vt -0.00230979919 0.622558594
vt -0.0390625 1.26074219
vt -0.0390625 0.633789062
vt -0.0729370117 1.24316406
vt -0.0729370117 0.651855469
vt -0.102600098 1.21875
vt -0.102600098 0.676269531
vt -0.126953125 1.18847656
vt -0.126953125 0.706054688
vt -0.145019531 1.15527344
vt -0.145019531 0.739746094
vt -0.15625 1.11816406
vt -0.15625 0.776367188
vt -0.16003418 1.07910156
vt -0.16003418 0.815429688
vt 0.726074219 0.386474609
vt 0.678710938 0.423339844
vt 0.704589844 0.437011719
vt 0.698730469 0.376953125
vt 0.739746094 0.333984375
vt 0.713378906 0.329345703
vt 0.739746094 0.0157775879
vt 0.713867188 0.0200653076
vt 0.727539062 -0.0364685059
vt 0.700195312 -0.0271453857
vt 0.706542969 -0.0856323242
vt 0.681640625 -0.0734863281
vt 0.680664062 -0.13293457
vt 0.65625 -0.116760254
vt 0.704589844 0.437011719
vt 0.678710938 0.423339844
vt 0.651855469 0.466796875
vt 0.67578125 0.484375
vt 0.618164062 0.505371094
vt 0.639160156 0.52734375
vt 0.577636719 0.538085938
vt 0.595214844 0.564453125
vt 0.595214844 0.564453125
vt 0.577636719 0.538085938
vt 0.532714844 0.563476562
vt 0.544433594 0.590820312
vt 0.484863281 0.581054688
vt 0.492675781 0.608886719
vt 0.437255859 0.592285156
vt 0.440429688 0.618652344
vt 0.129638672 0.578613281
vt 0.123840332 0.604980469
vt 0.0819702148 0.562011719
vt 0.071472168 0.588378906
vt 0.0361633301 0.540527344
vt 0.0221710205 0.565917969
vt -0.00613021851 0.513183594
vt -0.0237731934 0.536621094
vt -0.0237731934 0.536621094
vt -0.00613021851 0.513183594
vt -0.0434875488 0.48046875
vt -0.0645751953 0.500976562
vt -0.075012207 0.442871094
vt -0.0990600586 0.460205078
vt -0.0990600586 0.460205078
vt -0.075012207 0.442871094
vt -0.100280762 0.401367188
vt -0.126708984 0.415039062
vt -0.119140625 0.356689453
vt -0.147827148 0.366699219
vt -0.13269043 0.311279297
vt -0.16003418 0.315673828
vt -0.130493164 0.0147018433
vt -0.158447266 0.00925445557
vt -0.115112305 -0.03125
vt -0.144042969 -0.042755127
vt -0.0938110352 -0.0755004883
vt -0.119812012 -0.0908813477
vt -0.119812012 -0.0908813477
vt -0.0938110352 -0.0755004883
vt -0.0660400391 -0.115844727
vt -0.0891113281 -0.134643555
vt -0.0324401855 -0.151489258
vt -0.0521240234 -0.173217773
vt 0.00631713867 -0.181884766
vt -0.00975036621 -0.205810547
vt -0.00975036621 -0.205810547
vt 0.00631713867 -0.181884766
vt 0.0491638184 -0.206542969
vt 0.0366210938 -0.232055664
vt 0.0947265625 -0.225830078
vt 0.0853271484 -0.251953125
vt 0.141479492 -0.240600586
vt 0.136352539 -0.266601562
vt 0.448242188 -0.249389648
vt 0.452148438 -0.275878906
vt 0.495605469 -0.236938477
vt 0.504394531 -0.264160156
vt 0.541992188 -0.217407227
vt 0.555175781 -0.243652344
vt 0.555175781 -0.243652344
vt 0.541992188 -0.217407227
vt 0.585449219 -0.190673828
vt 0.603027344 -0.21484375
vt 0.624023438 -0.156494141
vt 0.646484375 -0.177978516
vt 0.65625 -0.116760254
vt 0.680664062 -0.13293457
vt 0.577636719 -0.0239715576
vt 0.577636719 -0.0634765625
vt 0.562011719 -0.052947998
vt 0.595214844 -0.0318603516
vt 0.587890625 0.0085067749
vt 0.607421875 0.00356483459
vt 0.592773438 0.0449523926
vt 0.614257812 0.043182373
vt 0.591308594 0.300292969
vt 0.612792969 0.302490234
vt 0.5859375 0.336669922
vt 0.60546875 0.341796875
vt 0.575195312 0.369140625
vt 0.592773438 0.376953125
vt 0.562011719 -0.052947998
vt 0.577636719 -0.0634765625
vt 0.555175781 -0.0911865234
vt 0.541992188 -0.0782470703
vt 0.528320312 -0.114074707
vt 0.517578125 -0.0989990234
vt 0.497070312 -0.131958008
vt 0.489257812 -0.114807129
vt 0.65625 -0.116760254
vt 0.624023438 -0.156494141
vt 0.555175781 -0.0911865234
vt 0.577636719 -0.0634765625
vt 0.681640625 -0.0734863281
vt 0.595214844 -0.0318603516
vt 0.700195312 -0.0271453857
vt 0.607421875 0.00356483459
vt 0.713867188 0.0200653076
vt 0.614257812 0.043182373
vt 0.713378906 0.329345703
vt 0.612792969 0.302490234
vt 0.698730469 0.376953125
vt 0.60546875 0.341796875
vt 0.678710938 0.423339844
vt 0.592773438 0.376953125
vt 0.651855469 0.466796875
vt 0.574707031 0.408447266
vt 0.618164062 0.505371094
vt 0.551757812 0.435791016
vt 0.624023438 -0.156494141
vt 0.528320312 -0.114074707
vt 0.555175781 -0.0911865234
vt 0.585449219 -0.190673828
vt 0.497070312 -0.131958008
vt 0.541992188 -0.217407227
vt 0.462402344 -0.144287109
vt 0.495605469 -0.236938477
vt 0.424072266 -0.151245117
vt 0.448242188 -0.249389648
vt 0.167480469 -0.139892578
vt 0.141479492 -0.240600586
vt 0.127075195 -0.132446289
vt 0.0947265625 -0.225830078
vt 0.0911865234 -0.120056152
vt 0.0491638184 -0.206542969
vt 0.0592956543 -0.102905273
vt 0.00631713867 -0.181884766
vt 0.0316467285 -0.0813598633
vt -0.0324401855 -0.151489258
vt 0.489257812 -0.114807129
vt 0.497070312 -0.131958008
vt 0.462402344 -0.144287109
vt 0.457519531 -0.12512207
vt 0.424072266 -0.151245117
vt 0.422607422 -0.130126953
vt 0.167480469 -0.139892578
vt 0.169921875 -0.117919922
vt 0.127075195 -0.132446289
vt 0.132202148 -0.112670898
vt 0.0911865234 -0.120056152
vt 0.0989990234 -0.102172852
vt 0.0592956543 -0.102905273
vt 0.0696411133 -0.087097168
vt 0.0696411133 -0.087097168
vt 0.0592956543 -0.102905273
vt 0.0316467285 -0.0813598633
vt 0.0444335938 -0.0678710938
vt 0.00865936279 -0.0557861328
vt 0.0237121582 -0.0448608398
vt -0.00923156738 -0.0263977051
vt 0.00794219971 -0.0183563232
vt 0.00865936279 -0.0557861328
vt 0.0316467285 -0.0813598633
vt -0.0324401855 -0.151489258
vt -0.0660400391 -0.115844727
vt -0.00923156738 -0.0263977051
vt -0.0938110352 -0.0755004883
vt -0.0216827393 0.00643920898
vt -0.115112305 -0.03125
vt -0.028503418 0.0434265137
vt -0.130493164 0.0147018433
vt -0.0316162109 0.287353516
vt -0.13269043 0.311279297
vt -0.0256958008 0.324951172
vt -0.119140625 0.356689453
vt -0.0139312744 0.358398438
vt -0.100280762 0.401367188
vt 0.00327682495 0.388183594
vt -0.075012207 0.442871094
vt 0.0256500244 0.414306641
vt -0.0434875488 0.48046875
vt 0.00794219971 -0.0183563232
vt -0.00923156738 -0.0263977051
vt -0.0216827393 0.00643920898
vt -0.00240325928 0.0116119385
vt -0.028503418 0.0434265137
vt -0.00656890869 0.0453491211
vt -0.0316162109 0.287353516
vt -0.00951385498 0.286132812
vt -0.0256958008 0.324951172
vt -0.00616073608 0.3203125
vt -0.0139312744 0.358398438
vt 0.0034828186 0.350585938
vt 0.00327682495 0.388183594
vt 0.0186309814 0.377685547
vt 0.0186309814 0.377685547
vt 0.00327682495 0.388183594
vt 0.0256500244 0.414306641
vt 0.0387878418 0.401123047
vt 0.0527954102 0.436767578
vt 0.0635986328 0.421142578
vt 0.0527954102 0.436767578
vt 0.0256500244 0.414306641
vt -0.0434875488 0.48046875
vt -0.00613021851 0.513183594
vt 0.0844116211 0.454589844
vt 0.0361633301 0.540527344
vt 0.120056152 0.468017578
vt 0.0819702148 0.562011719
vt 0.16003418 0.476318359
vt 0.129638672 0.578613281
vt 0.418212891 0.493896484
vt 0.437255859 0.592285156
vt 0.45703125 0.487792969
vt 0.484863281 0.581054688
vt 0.492431641 0.476074219
vt 0.532714844 0.563476562
vt 0.523925781 0.458496094
vt 0.577636719 0.538085938
vt 0.551757812 0.435791016
vt 0.618164062 0.505371094
vt 0.0635986328 0.421142578
vt 0.0527954102 0.436767578
vt 0.0844116211 0.454589844
vt 0.0927124023 0.437011719
vt 0.120056152 0.468017578
vt 0.125610352 0.448242188
vt 0.16003418 0.476318359
vt 0.163085938 0.454345703
vt 0.418212891 0.493896484
vt 0.417236328 0.47265625
vt 0.45703125 0.487792969
vt 0.452392578 0.468261719
vt 0.492431641 0.476074219
vt 0.484619141 0.458496094
vt 0.523925781 0.458496094
vt 0.513671875 0.443115234
vt 0.513671875 0.443115234
vt 0.523925781 0.458496094
vt 0.551757812 0.435791016
vt 0.538574219 0.422607422
vt 0.574707031 0.408447266
vt 0.559570312 0.397705078
vt 0.592773438 0.376953125
vt 0.575195312 0.369140625
vt -0.00656890869 0.0453491211
vt -0.00951385498 0.286132812
vt -0.00616073608 0.3203125
vt 0.0034828186 0.350585938
vt -0.00240325928 0.0116119385
vt 0.00794219971 -0.0183563232
vt 0.0186309814 0.377685547
vt 0.0237121582 -0.0448608398
vt 0.0387878418 0.401123047
vt 0.0444335938 -0.0678710938
vt 0.0635986328 0.421142578
vt 0.0696411133 -0.087097168
vt 0.0927124023 0.437011719
vt 0.0989990234 -0.102172852
vt 0.125610352 0.448242188
vt 0.132202148 -0.112670898
vt 0.163085938 0.454345703
vt 0.169921875 -0.117919922
vt 0.417236328 0.47265625
vt 0.422607422 -0.130126953
vt 0.452392578 0.468261719
vt 0.457519531 -0.12512207
vt 0.484619141 0.458496094
vt 0.489257812 -0.114807129
vt 0.513671875 0.443115234
vt 0.517578125 -0.0989990234
vt 0.538574219 0.422607422
vt 0.541992188 -0.0782470703
vt 0.559570312 0.397705078
vt 0.562011719 -0.052947998
vt 0.575195312 0.369140625
vt 0.577636719 -0.0239715576
vt 0.5859375 0.336669922
vt 0.587890625 0.0085067749
vt 0.591308594 0.300292969
vt 0.592773438 0.0449523926
vn -0 -1 0
vn -0 -1 0
vn -0 -1 0
vn -0 -1 0
vn -0 -1 0
vn -0 -1 0
vn -0 -1 0
vn -0 -1 0
vn -0 -1 0
vn -0 -1 0
vn -0 -1 0
vn -0 -1 0
vn -0 -1 0
vn -0 -1 0
vn -0 -1 0
vn -0 -1 0
vn -0 -1 0
vn -0 -1 0
vn -0 -1 0
vn -0 -1 0
vn -0 -1 0
vn -0 -1 0
vn -0 -1 0
vn -0 -1 0
vn -0 -1 0
vn -0 -1 0
vn -0 -1 0
vn -0 -1 0
vn -0 -1 0
vn -0 -1 0
vn -0 -1 0
vn -0 -1 0
vn -0 -1 0
vn -0 -1 0
vn -0 -1 0
vn -0 -1 0
vn 0.167480469 -0.66015625 0.732421875
vn 0.307128906 -0.66015625 0.685546875
vn 0.307128906 -0.66015625 0.685546875
vn 0.167480469 -0.66015625 0.732421875
vn 0.0582580566 -0.658691406 0.75
vn 0.0582580566 -0.658691406 0.75
vn -0.0155334473 -0.658691406 0.752441406
vn -0.0155334473 -0.658691406 0.752441406
vn -0.125488281 -0.66015625 0.740722656
vn -0.125488281 -0.66015625 0.740722656
vn -0.267578125 -0.66015625 0.702148438
vn -0.267578125 -0.66015625 0.702148438
vn -0.399414062 -0.66015625 0.636230469
vn -0.399414062 -0.66015625 0.636230469
vn 0.307128906 -0.66015625 0.685546875
vn 0.307128906 -0.66015625 0.685546875
vn 0.434814453 -0.66015625 0.612304688
vn 0.434814453 -0.66015625 0.612304688
vn 0.545898438 -0.66015625 0.515625
vn 0.545898438 -0.66015625 0.515625
vn 0.636230469 -0.66015625 0.399414062
vn 0.636230469 -0.66015625 0.399414062
vn 0.636230469 -0.66015625 0.399414062
vn 0.636230469 -0.66015625 0.399414062
vn 0.702148438 -0.66015625 0.267578125
vn 0.702148438 -0.66015625 0.267578125
vn 0.740722656 -0.66015625 0.125488281
vn 0.740722656 -0.66015625 0.125488281
vn 0.750976562 -0.659667969 -0.0172271729
vn 0.750976562 -0.659667969 -0.0172271729
vn 0.747558594 -0.658203125 -0.088684082
vn 0.747558594 -0.658203125 -0.088684082
vn 0.734375 -0.659667969 -0.158813477
vn 0.734375 -0.659667969 -0.158813477
vn 0.692382812 -0.66015625 -0.291992188
vn 0.692382812 -0.66015625 -0.291992188
vn 0.625 -0.66015625 -0.417236328
vn 0.625 -0.66015625 -0.417236328
vn 0.625 -0.66015625 -0.417236328
vn 0.625 -0.66015625 -0.417236328
vn 0.532714844 -0.66015625 -0.529296875
vn 0.532714844 -0.66015625 -0.529296875
vn 0.41796875 -0.66015625 -0.624023438
vn 0.41796875 -0.66015625 -0.624023438
vn 0.41796875 -0.66015625 -0.624023438
vn 0.41796875 -0.66015625 -0.624023438
vn 0.283447266 -0.66015625 -0.6953125
vn 0.283447266 -0.66015625 -0.6953125
vn 0.134765625 -0.66015625 -0.738769531
vn 0.134765625 -0.66015625 -0.738769531
vn 0.0179748535 -0.658691406 -0.751953125
vn 0.0179748535 -0.658691406 -0.751953125
vn -0.0606994629 -0.658691406 -0.75
vn -0.0606994629 -0.658691406 -0.75
vn -0.176513672 -0.66015625 -0.729980469
vn -0.176513672 -0.66015625 -0.729980469
vn -0.322509766 -0.66015625 -0.678222656
vn -0.322509766 -0.66015625 -0.678222656
vn -0.322509766 -0.66015625 -0.678222656
vn -0.322509766 -0.66015625 -0.678222656
vn -0.452880859 -0.66015625 -0.599121094
vn -0.452880859 -0.66015625 -0.599121094
vn -0.562011719 -0.66015625 -0.498291016
vn -0.562011719 -0.66015625 -0.498291016
vn -0.647460938 -0.66015625 -0.380859375
vn -0.647460938 -0.66015625 -0.380859375
vn -0.647460938 -0.66015625 -0.380859375
vn -0.647460938 -0.66015625 -0.380859375
vn -0.707519531 -0.66015625 -0.252197266
vn -0.707519531 -0.66015625 -0.252197266
vn -0.7421875 -0.659667969 -0.116882324
vn -0.7421875 -0.659667969 -0.116882324
vn -0.751464844 -0.658203125 -0.0460205078
vn -0.751464844 -0.658203125 -0.0460510254
vn -0.750976562 -0.659667969 0.0254974365
vn -0.750976562 -0.659667969 0.0254974365
vn -0.732421875 -0.66015625 0.167480469
vn -0.732421875 -0.66015625 0.167480469
vn -0.685546875 -0.66015625 0.307128906
vn -0.685546875 -0.66015625 0.307128906
vn -0.685546875 -0.66015625 0.307128906
vn -0.685546875 -0.66015625 0.307128906
vn -0.612304688 -0.66015625 0.434814453
vn -0.612304688 -0.66015625 0.434814453
vn -0.515625 -0.66015625 0.545898438
vn -0.515625 -0.66015625 0.545898438
vn -0.399414062 -0.66015625 0.636230469
vn -0.399414062 -0.66015625 0.636230469
vn -0.267578125 0.66015625 0.702148438
vn -0.399414062 0.66015625 0.636230469
vn -0.399414062 0.66015625 0.636230469
vn -0.267578125 0.66015625 0.702148438
vn -0.125488281 0.66015625 0.740722656
vn -0.125488281 0.66015625 0.740722656
vn -0.0155334473 0.658691406 0.752441406
vn -0.0155334473 0.658691406 0.752441406
vn 0.0582580566 0.658691406 0.75
vn 0.0582580566 0.658691406 0.75
vn 0.167480469 0.66015625 0.732421875
vn 0.167480469 0.66015625 0.732421875
vn 0.307128906 0.66015625 0.685546875
vn 0.307128906 0.66015625 0.685546875
vn -0.399414062 0.66015625 0.636230469
vn -0.399414062 0.66015625 0.636230469
vn -0.515625 0.66015625 0.545898438
vn -0.515625 0.66015625 0.545898438
vn -0.612304688 0.66015625 0.434814453
vn -0.612304688 0.66015625 0.434814453
vn -0.685546875 0.66015625 0.307128906
vn -0.685546875 0.66015625 0.307128906
vn -0.531738281 -3.57627869E-07 0.847167969
vn -0.686523438 -1.1920929E-07 0.727050781
vn -0.686523438 -1.1920929E-07 0.727050781
vn -0.531738281 -3.57627869E-07 0.847167969
vn -0.356201172 -4.17232513E-07 0.934570312
vn -0.356201172 -4.17232513E-07 0.934570312
vn -0.167114258 -3.57627869E-07 0.985839844
vn -0.167114258 -3.57627869E-07 0.985839844
vn -0.0206451416 -5.36441803E-07 1
vn -0.0206451416 -5.36441803E-07 1
vn 0.0774536133 -5.36441803E-07 0.997070312
vn 0.0774536133 -5.36441803E-07 0.997070312
vn 0.222900391 -3.57627869E-07 0.974609375
vn 0.222900391 -3.57627869E-07 0.974609375
vn 0.408691406 -4.17232513E-07 0.912597656
vn 0.408691406 -4.17232513E-07 0.912597656
vn 0.579101562 -1.78813934E-07 0.815429688
vn 0.579101562 -1.78813934E-07 0.815429688
vn 0.727050781 1.1920929E-07 0.686523438
vn 0.727050781 1.1920929E-07 0.686523438
vn -0.686523438 -1.1920929E-07 0.727050781
vn -0.815429688 0 0.579101562
vn -0.686523438 -1.1920929E-07 0.727050781
vn -0.815429688 0 0.579101562
vn -0.912597656 -1.1920929E-07 0.408691406
vn -0.912597656 -1.1920929E-07 0.408691406
vn -0.974609375 0 0.222900391
vn -0.974609375 0 0.222900391
vn -0.999511719 0 0.0339355469
vn -0.999511719 0 0.0339355469
vn -0.998046875 0 -0.0611572266
vn -0.998046875 0 -0.0611572266
vn -0.987792969 0 -0.155517578
vn -0.987792969 0 -0.155517578
vn -0.941894531 1.1920929E-07 -0.335693359
vn -0.941894531 1.1920929E-07 -0.335693359
vn -0.861816406 0 -0.506835938
vn -0.861816406 0 -0.506835938
vn -0.748046875 -1.1920929E-07 -0.663574219
vn -0.748046875 -1.1920929E-07 -0.663574219
vn -0.685546875 0.66015625 0.307128906
vn -0.685546875 0.66015625 0.307128906
vn -0.732421875 0.66015625 0.167480469
vn -0.732421875 0.66015625 0.167480469
vn -0.750976562 0.659667969 0.0254974365
vn -0.750976562 0.659667969 0.0254974365
vn -0.751464844 0.658203125 -0.0460205078
vn -0.751464844 0.658203125 -0.0460510254
vn -0.7421875 0.659667969 -0.116882324
vn -0.7421875 0.659667969 -0.116882324
vn -0.707519531 0.66015625 -0.252197266
vn -0.707519531 0.66015625 -0.252197266
vn -0.647460938 0.66015625 -0.380859375
vn -0.647460938 0.66015625 -0.380859375
vn -0.647460938 0.66015625 -0.380859375
vn -0.647460938 0.66015625 -0.380859375
vn -0.562011719 0.66015625 -0.498291016
vn -0.562011719 0.66015625 -0.498291016
vn -0.452880859 0.66015625 -0.599121094
vn -0.452880859 0.66015625 -0.599121094
vn -0.322509766 0.66015625 -0.678222656
vn -0.322509766 0.66015625 -0.678222656
vn -0.603027344 0 -0.797851562
vn -0.748046875 -1.1920929E-07 -0.663574219
vn -0.748046875 -1.1920929E-07 -0.663574219
vn -0.603027344 0 -0.797851562
vn -0.429443359 1.78813934E-07 -0.902832031
vn -0.429443359 1.78813934E-07 -0.902832031
vn -0.234985352 1.1920929E-07 -0.972167969
vn -0.234985352 1.1920929E-07 -0.972167969
vn -0.0806884766 0 -0.996582031
vn -0.0806884766 0 -0.996582031
vn 0.0238952637 0 -0.999511719
vn 0.0238952637 0 -0.999511719
vn 0.179321289 0 -0.983886719
vn 0.179321289 0 -0.983886719
vn 0.377441406 0 -0.92578125
vn 0.377441406 0 -0.92578125
vn 0.556640625 0 -0.831054688
vn 0.556640625 0 -0.831054688
vn 0.709472656 0 -0.705078125
vn 0.709472656 0 -0.705078125
vn -0.322509766 0.66015625 -0.678222656
vn -0.322509766 0.66015625 -0.678222656
vn -0.176513672 0.66015625 -0.729980469
vn -0.176513672 0.66015625 -0.729980469
vn -0.0606994629 0.658691406 -0.75
vn -0.0606994629 0.658691406 -0.75
vn 0.0179748535 0.658691406 -0.751953125
vn 0.0179748535 0.658691406 -0.751953125
vn 0.134765625 0.66015625 -0.738769531
vn 0.134765625 0.66015625 -0.738769531
vn 0.283447266 0.66015625 -0.6953125
vn 0.283447266 0.66015625 -0.6953125
vn 0.41796875 0.66015625 -0.624023438
vn 0.41796875 0.66015625 -0.624023438
vn 0.41796875 0.66015625 -0.624023438
vn 0.41796875 0.66015625 -0.624023438
vn 0.532714844 0.66015625 -0.529296875
vn 0.532714844 0.66015625 -0.529296875
vn 0.625 0.66015625 -0.417236328
vn 0.625 0.66015625 -0.417236328
vn 0.831542969 0 -0.555175781
vn 0.709472656 0 -0.705078125
vn 0.709472656 0 -0.705078125
vn 0.831542969 0 -0.555175781
vn 0.921386719 1.1920929E-07 -0.388671875
vn 0.921386719 1.1920929E-07 -0.388671875
vn 0.977539062 1.1920929E-07 -0.211425781
vn 0.977539062 1.1920929E-07 -0.211425781
vn 0.993164062 1.78813934E-07 -0.117797852
vn 0.993164062 1.78813934E-07 -0.117797852
vn 0.999511719 3.57627869E-07 -0.02293396
vn 0.999511719 3.57627869E-07 -0.02293396
vn 0.985839844 2.98023224E-07 0.167114258
vn 0.985839844 2.98023224E-07 0.167114258
vn 0.934570312 1.78813934E-07 0.356201172
vn 0.934570312 1.78813934E-07 0.356201172
vn 0.847167969 1.78813934E-07 0.531738281
vn 0.847167969 1.78813934E-07 0.531738281
vn 0.727050781 1.1920929E-07 0.686523438
vn 0.727050781 1.1920929E-07 0.686523438
vn 0.625 0.66015625 -0.417236328
vn 0.625 0.66015625 -0.417236328
vn 0.692382812 0.66015625 -0.291992188
vn 0.692382812 0.66015625 -0.291992188
vn 0.734375 0.659667969 -0.158813477
vn 0.734375 0.659667969 -0.158813477
vn 0.747558594 0.658203125 -0.088684082
vn 0.747558594 0.658203125 -0.088684082
vn 0.750976562 0.659667969 -0.0172271729
vn 0.750976562 0.659667969 -0.0172271729
vn 0.740722656 0.66015625 0.125488281
vn 0.740722656 0.66015625 0.125488281
vn 0.702148438 0.66015625 0.267578125
vn 0.702148438 0.66015625 0.267578125
vn 0.636230469 0.66015625 0.399414062
vn 0.636230469 0.66015625 0.399414062
vn 0.636230469 0.66015625 0.399414062
vn 0.636230469 0.66015625 0.399414062
vn 0.545898438 0.66015625 0.515625
vn 0.545898438 0.66015625 0.515625
vn 0.434814453 0.66015625 0.612304688
vn 0.434814453 0.66015625 0.612304688
vn 0.307128906 0.66015625 0.685546875
vn 0.307128906 0.66015625 0.685546875
vn -0 1 0
vn -0 1 0
vn -0 1 0
vn -0 1 0
vn -0 1 0
vn -0 1 0
vn -0 1 0
vn -0 1 0
vn -0 1 0
vn -0 1 0
vn -0 1 0
vn -0 1 0
vn -0 1 0
vn -0 1 0
vn -0 1 0
vn -0 1 0
vn -0 1 0
vn -0 1 0
vn -0 1 0
vn -0 1 0
vn -0 1 0
vn -0 1 0
vn -0 1 0
vn -0 1 0
vn -0 1 0
vn -0 1 0
vn -0 1 0
vn -0 1 0
vn -0 1 0
vn -0 1 0
vn -0 1 0
vn -0 1 0
vn -0 1 0
vn -0 1 0
vn -0 1 0
vn -0 1 0
g Chair_Seat_0
f 3/3/3 2/2/2 1/1/1
f 1/1/1 4/4/4 3/3/3
f 4/4/4 5/5/5 3/3/3
f 4/4/4 6/6/6 5/5/5
f 4/4/4 7/7/7 6/6/6
f 7/7/7 8/8/8 6/6/6
f 7/7/7 9/9/9 8/8/8
f 9/9/9 10/10/10 8/8/8
f 9/9/9 11/11/11 10/10/10
f 11/11/11 12/12/12 10/10/10
f 11/11/11 13/13/13 12/12/12
f 13/13/13 14/14/14 12/12/12
f 13/13/13 15/15/15 14/14/14
f 15/15/15 16/16/16 14/14/14
f 15/15/15 17/17/17 16/16/16
f 17/17/17 18/18/18 16/16/16
f 17/17/17 19/19/19 18/18/18
f 19/19/19 20/20/20 18/18/18
f 19/19/19 21/21/21 20/20/20
f 21/21/21 22/22/22 20/20/20
f 21/21/21 23/23/23 22/22/22
f 23/23/23 24/24/24 22/22/22
f 23/23/23 25/25/25 24/24/24
f 25/25/25 26/26/26 24/24/24
f 25/25/25 27/27/27 26/26/26
f 27/27/27 28/28/28 26/26/26
f 27/27/27 29/29/29 28/28/28
f 29/29/29 30/30/30 28/28/28
f 29/29/29 31/31/31 30/30/30
f 31/31/31 32/32/32 30/30/30
f 31/31/31 33/33/33 32/32/32
f 33/33/33 34/34/34 32/32/32
f 33/33/33 35/35/35 34/34/34
f 35/35/35 36/36/36 34/34/34
f 39/39/39 38/38/38 37/37/37
f 38/38/38 40/40/40 37/37/37
f 37/37/37 40/40/40 41/41/41
f 40/40/40 42/42/42 41/41/41
f 43/43/43 41/41/41 42/42/42
f 44/44/44 43/43/43 42/42/42
f 43/43/43 44/44/44 45/45/45
f 44/44/44 46/46/46 45/45/45
f 45/45/45 46/46/46 47/47/47
f 46/46/46 48/48/48 47/47/47
f 47/47/47 48/48/48 49/49/49
f 48/48/48 50/50/50 49/49/49
f 53/53/53 52/52/52 51/51/51
f 54/54/54 53/53/53 51/51/51
f 55/55/55 53/53/53 54/54/54
f 56/56/56 55/55/55 54/54/54
f 57/57/57 55/55/55 56/56/56
f 58/58/58 57/57/57 56/56/56
f 61/61/61 60/60/60 59/59/59
f 62/62/62 61/61/61 59/59/59
f 63/63/63 61/61/61 62/62/62
f 64/64/64 63/63/63 62/62/62
f 65/65/65 63/63/63 64/64/64
f 66/66/66 65/65/65 64/64/64
f 65/65/65 66/66/66 67/67/67
f 66/66/66 68/68/68 67/67/67
f 69/69/69 67/67/67 68/68/68
f 70/70/70 69/69/69 68/68/68
f 71/71/71 69/69/69 70/70/70
f 72/72/72 71/71/71 70/70/70
f 73/73/73 71/71/71 72/72/72
f 74/74/74 73/73/73 72/72/72
f 77/77/77 76/76/76 75/75/75
f 78/78/78 77/77/77 75/75/75
f 79/79/79 77/77/77 78/78/78
f 80/80/80 79/79/79 78/78/78
f 83/83/83 82/82/82 81/81/81
f 84/84/84 83/83/83 81/81/81
f 85/85/85 83/83/83 84/84/84
f 86/86/86 85/85/85 84/84/84
f 87/87/87 85/85/85 86/86/86
f 88/88/88 87/87/87 86/86/86
f 87/87/87 88/88/88 89/89/89
f 88/88/88 90/90/90 89/89/89
f 91/91/91 89/89/89 90/90/90
f 92/92/92 91/91/91 90/90/90
f 93/93/93 91/91/91 92/92/92
f 94/94/94 93/93/93 92/92/92
f 97/97/97 96/96/96 95/95/95
f 98/98/98 97/97/97 95/95/95
f 99/99/99 97/97/97 98/98/98
f 100/100/100 99/99/99 98/98/98
f 101/101/101 99/99/99 100/100/100
f 102/102/102 101/101/101 100/100/100
f 105/105/105 104/104/104 103/103/103
f 106/106/106 105/105/105 103/103/103
f 107/107/107 105/105/105 106/106/106
f 108/108/108 107/107/107 106/106/106
f 109/109/109 107/107/107 108/108/108
f 110/110/110 109/109/109 108/108/108
f 109/109/109 110/110/110 111/111/111
f 110/110/110 112/112/112 111/111/111
f 113/113/113 111/111/111 112/112/112
f 114/114/114 113/113/113 112/112/112
f 115/115/115 113/113/113 114/114/114
f 116/116/116 115/115/115 114/114/114
f 119/119/119 118/118/118 117/117/117
f 120/120/120 119/119/119 117/117/117
f 121/121/121 119/119/119 120/120/120
f 122/122/122 121/121/121 120/120/120
f 123/123/123 121/121/121 122/122/122
f 124/124/124 123/123/123 122/122/122
f 127/127/127 126/126/126 125/125/125
f 126/126/126 128/128/128 125/125/125
f 125/125/125 128/128/128 129/129/129
f 128/128/128 130/130/130 129/129/129
f 129/129/129 130/130/130 131/131/131
f 130/130/130 132/132/132 131/131/131
f 131/131/131 132/132/132 133/133/133
f 132/132/132 134/134/134 133/133/133
f 133/133/133 134/134/134 135/135/135
f 134/134/134 136/136/136 135/135/135
f 135/135/135 136/136/136 137/137/137
f 136/136/136 138/138/138 137/137/137
f 141/141/141 140/140/140 139/139/139
f 142/142/142 141/141/141 139/139/139
f 143/143/143 141/141/141 142/142/142
f 144/144/144 143/143/143 142/142/142
f 145/145/145 143/143/143 144/144/144
f 146/146/146 145/145/145 144/144/144
f 149/149/149 148/148/148 147/147/147
f 150/150/150 149/149/149 147/147/147
f 150/150/150 147/147/147 151/151/151
f 152/152/152 150/150/150 151/151/151
f 152/152/152 151/151/151 153/153/153
f 154/154/154 152/152/152 153/153/153
f 154/154/154 153/153/153 155/155/155
f 156/156/156 154/154/154 155/155/155
f 156/156/156 155/155/155 157/157/157
f 158/158/158 156/156/156 157/157/157
f 157/157/157 159/159/159 158/158/158
f 159/159/159 160/160/160 158/158/158
f 159/159/159 161/161/161 160/160/160
f 161/161/161 162/162/162 160/160/160
f 161/161/161 163/163/163 162/162/162
f 163/163/163 164/164/164 162/162/162
f 163/163/163 165/165/165 164/164/164
f 165/165/165 166/166/166 164/164/164
f 169/169/169 168/168/168 167/167/167
f 168/168/168 170/170/170 167/167/167
f 168/168/168 171/171/171 170/170/170
f 171/171/171 172/172/172 170/170/170
f 171/171/171 173/173/173 172/172/172
f 173/173/173 174/174/174 172/172/172
f 173/173/173 175/175/175 174/174/174
f 175/175/175 176/176/176 174/174/174
f 175/175/175 177/177/177 176/176/176
f 177/177/177 178/178/178 176/176/176
f 178/178/178 177/177/177 179/179/179
f 180/180/180 178/178/178 179/179/179
f 180/180/180 179/179/179 181/181/181
f 182/182/182 180/180/180 181/181/181
f 182/182/182 181/181/181 183/183/183
f 184/184/184 182/182/182 183/183/183
f 184/184/184 183/183/183 185/185/185
f 186/186/186 184/184/184 185/185/185
f 189/189/189 188/188/188 187/187/187
f 190/190/190 189/189/189 187/187/187
f 191/191/191 189/189/189 190/190/190
f 192/192/192 191/191/191 190/190/190
f 193/193/193 191/191/191 192/192/192
f 194/194/194 193/193/193 192/192/192
f 195/195/195 193/193/193 194/194/194
f 196/196/196 195/195/195 194/194/194
f 197/197/197 195/195/195 196/196/196
f 198/198/198 197/197/197 196/196/196
f 199/199/199 197/197/197 198/198/198
f 200/200/200 199/199/199 198/198/198
f 203/203/203 202/202/202 201/201/201
f 204/204/204 203/203/203 201/201/201
f 205/205/205 203/203/203 204/204/204
f 206/206/206 205/205/205 204/204/204
f 207/207/207 205/205/205 206/206/206
f 208/208/208 207/207/207 206/206/206
f 211/211/211 210/210/210 209/209/209
f 212/212/212 211/211/211 209/209/209
f 212/212/212 209/209/209 213/213/213
f 214/214/214 212/212/212 213/213/213
f 214/214/214 213/213/213 215/215/215
f 216/216/216 214/214/214 215/215/215
f 216/216/216 215/215/215 217/217/217
f 218/218/218 216/216/216 217/217/217
f 217/217/217 219/219/219 218/218/218
f 219/219/219 220/220/220 218/218/218
f 220/220/220 219/219/219 221/221/221
f 222/222/222 220/220/220 221/221/221
f 222/222/222 221/221/221 223/223/223
f 224/224/224 222/222/222 223/223/223
f 224/224/224 223/223/223 225/225/225
f 226/226/226 224/224/224 225/225/225
f 226/226/226 225/225/225 227/227/227
f 228/228/228 226/226/226 227/227/227
f 231/231/231 230/230/230 229/229/229
f 232/232/232 231/231/231 229/229/229
f 233/233/233 231/231/231 232/232/232
f 234/234/234 233/233/233 232/232/232
f 233/233/233 234/234/234 235/235/235
f 234/234/234 236/236/236 235/235/235
f 237/237/237 235/235/235 236/236/236
f 238/238/238 237/237/237 236/236/236
f 239/239/239 237/237/237 238/238/238
f 240/240/240 239/239/239 238/238/238
f 241/241/241 239/239/239 240/240/240
f 242/242/242 241/241/241 240/240/240
f 245/245/245 244/244/244 243/243/243
f 246/246/246 245/245/245 243/243/243
f 247/247/247 245/245/245 246/246/246
f 248/248/248 247/247/247 246/246/246
f 251/251/251 250/250/250 249/249/249
f 252/252/252 251/251/251 249/249/249
f 252/252/252 249/249/249 253/253/253
f 254/254/254 252/252/252 253/253/253
f 254/254/254 253/253/253 255/255/255
f 256/256/256 254/254/254 255/255/255
f 256/256/256 255/255/255 257/257/257
f 258/258/258 256/256/256 257/257/257
f 257/257/257 259/259/259 258/258/258
f 259/259/259 260/260/260 258/258/258
f 260/260/260 259/259/259 261/261/261
f 262/262/262 260/260/260 261/261/261
f 262/262/262 261/261/261 263/263/263
f 264/264/264 262/262/262 263/263/263
f 264/264/264 263/263/263 265/265/265
f 266/266/266 264/264/264 265/265/265
f 266/266/266 265/265/265 267/267/267
f 268/268/268 266/266/266 267/267/267
f 271/271/271 270/270/270 269/269/269
f 272/272/272 271/271/271 269/269/269
f 273/273/273 271/271/271 272/272/272
f 274/274/274 273/273/273 272/272/272
f 275/275/275 273/273/273 274/274/274
f 276/276/276 275/275/275 274/274/274
f 275/275/275 276/276/276 277/277/277
f 276/276/276 278/278/278 277/277/277
f 279/279/279 277/277/277 278/278/278
f 280/280/280 279/279/279 278/278/278
f 281/281/281 279/279/279 280/280/280
f 282/282/282 281/281/281 280/280/280
f 283/283/283 281/281/281 282/282/282
f 284/284/284 283/283/283 282/282/282
f 287/287/287 286/286/286 285/285/285
f 288/288/288 287/287/287 285/285/285
f 289/289/289 287/287/287 288/288/288
f 290/290/290 289/289/289 288/288/288
f 291/291/291 289/289/289 290/290/290
f 292/292/292 291/291/291 290/290/290
f 295/295/295 294/294/294 293/293/293
f 293/293/293 296/296/296 295/295/295
f 293/293/293 297/297/297 296/296/296
f 297/297/297 298/298/298 296/296/296
f 298/298/298 299/299/299 296/296/296
f 298/298/298 300/300/300 299/299/299
f 300/300/300 301/301/301 299/299/299
f 300/300/300 302/302/302 301/301/301
f 302/302/302 303/303/303 301/301/301
f 302/302/302 304/304/304 303/303/303
f 304/304/304 305/305/305 303/303/303
f 304/304/304 306/306/306 305/305/305
f 306/306/306 307/307/307 305/305/305
f 306/306/306 308/308/308 307/307/307
f 308/308/308 309/309/309 307/307/307
f 308/308/308 310/310/310 309/309/309
f 310/310/310 311/311/311 309/309/309
f 310/310/310 312/312/312 311/311/311
f 312/312/312 313/313/313 311/311/311
f 312/312/312 314/314/314 313/313/313
f 314/314/314 315/315/315 313/313/313
f 314/314/314 316/316/316 315/315/315
f 316/316/316 317/317/317 315/315/315
f 316/316/316 318/318/318 317/317/317
f 318/318/318 319/319/319 317/317/317
f 318/318/318 320/320/320 319/319/319
f 320/320/320 321/321/321 319/319/319
f 320/320/320 322/322/322 321/321/321
f 322/322/322 323/323/323 321/321/321
f 322/322/322 324/324/324 323/323/323
f 324/324/324 325/325/325 323/323/323
f 324/324/324 326/326/326 325/325/325
f 326/326/326 327/327/327 325/325/325
f 326/326/326 328/328/328 327/327/327
