g Cup_01
v 0.0008403018 -0.000247405434 -0.000776868721
v 0.000581234461 -0.000663609942 -0.000776868605
v 0.00064642122 0.00116854871 -0.000776868721
v 0.00133055949 -0.000856436265 0.00176208431
v 0.00146840455 -0.000706732506 0.00155867636
v 0.00185364357 -0.00105163059 0.00158138154
v 0.00173534558 -0.00121887436 0.00178402802
v 0.00114552968 -0.00106381974 0.0018365368
v 0.00217889785 -0.00134880387 0.00151267857
v 0.00155596074 -0.00143116794 0.00185811659
v 0.00210334151 -0.00155546214 0.00169742317
v 0.00246029301 -0.00161165232 0.00131274015
v 0.00193879043 -0.00178135897 0.00176461367
v 0.00242183264 -0.00185348117 0.00146068039
v 0.00226989621 -0.00209135702 0.0015140333
v 0.00266868179 -0.0018097877 0.000995587092
v 0.00265666679 -0.00207733735 0.00109237456
v 0.00251341565 -0.00232375623 0.00112697692
v 0.00277521298 -0.0021911161 0.000588711759
v 0.0027720416 -0.00190862559 0.000555070059
v 0.00263691694 -0.00244252943 0.000600576983
v 0.00275100465 -0.00188828819 8.65942202E-05
v 0.00275479467 -0.00217151432 5.37943815E-05
v 0.00261663948 -0.00242319633 4.19013195E-05
v 0.00260557444 -0.00174719095 -0.000373688788
v 0.00259630266 -0.00201761234 -0.000468096434
v 0.00245417003 -0.00226540049 -0.00050163269
v 0.00235590711 -0.00151034829 -0.000745756901
v 0.00231976155 -0.00175507122 -0.000892286305
v 0.00216898159 -0.00199456187 -0.00094446732
v 0.00203033909 -0.00120885798 -0.000996592804
v 0.00195700582 -0.00141886354 -0.00117863016
v 0.00179420097 -0.0016470789 -0.00124352658
v 0.00165749504 -0.000874121615 -0.00112492952
v 0.00154148892 -0.00104555592 -0.00132477935
v 0.00142008392 -0.000668877037 -0.00114753679
v 0.00136503798 -0.00126139517 -0.00139595324
v 0.00128983229 -0.000827994838 -0.00134879106
v 0.00110979693 -0.00104073458 -0.0014203185
v 0.00165749504 -0.000874121615 -0.00112492952
v 0.00146565109 -0.000606016605 -0.000870481832
v 0.00142008392 -0.000668877037 -0.00114753679
v 0.00168197299 -0.000793027284 -0.000849953445
v 0.00203033909 -0.00120885798 -0.000996592804
v 0.00141432369 -0.0006562575 -0.000591863063
v 0.00199448713 -0.00107327453 -0.000746072503
v 0.00235590711 -0.00151034829 -0.000745756901
v 0.0016083637 -0.000824002957 -0.000573531375
v 0.00127985538 -0.00080613693 -0.000386335538
v 0.00226761331 -0.00132585224 -0.000543941685
v 0.00260557444 -0.00174719095 -0.000373688788
v 0.00145639083 -0.000958747754 -0.000369729678
v 0.0010982767 -0.00101549551 -0.00030897095
v 0.00126677542 -0.00116115797 -0.000293156801
v 0.00185897632 -0.00104837306 -0.000494050386
v 0.00166009902 -0.00114081206 -0.000308059738
v 0.00145129638 -0.00132594549 -0.000238365828
v 0.00247941515 -0.00152650289 -0.000243540693
v 0.00275100465 -0.00188828819 8.65942202E-05
v 0.00207837136 -0.00125086214 -0.000340646511
v 0.00183878525 -0.00130537595 -0.000190288425
v 0.00161322497 -0.00147495954 -0.000133922396
v 0.00260627409 -0.00164937996 0.000131594235
v 0.0027720416 -0.00190862559 0.000555070059
v 0.00225150469 -0.0014145457 -0.000112291273
v 0.00198277528 -0.0014411771 -1.50497253E-05
v 0.00174504588 -0.00159918785 2.13679668E-05
v 0.00262811803 -0.00167061808 0.000508602243
v 0.00266868179 -0.0018097877 0.000995587092
v 0.00235935533 -0.00151874928 0.00017685577
v 0.00207627285 -0.00153124984 0.000210252852
v 0.00183231616 -0.00168316951 0.000222172428
v 0.00254605012 -0.00159263425 0.000862257439
v 0.00246029301 -0.00161165232 0.00131274015
v 0.00238181651 -0.00154067902 0.000461689808
v 0.00209898758 -0.00155349041 0.000426824379
v 0.00185543881 -0.00170574628 0.000413060479
v 0.00237470772 -0.001430462 0.00110935001
v 0.00217889785 -0.00134880387 0.00151267857
v 0.00232137623 -0.00148385705 0.000727706531
v 0.00205475464 -0.00151254353 0.00062771677
v 0.00181810313 -0.0016714161 0.000589661009
v 0.00214503123 -0.00121662731 0.00125932693
v 0.00185364357 -0.00105163059 0.00158138154
v 0.00218765042 -0.00135819486 0.000904271554
v 0.00194913486 -0.00141419494 0.000751926564
v 0.00172415131 -0.00158428191 0.000694827118
v 0.0018790625 -0.000974173425 0.00130413228
v 0.00146840455 -0.000706732506 0.00155867636
v 0.00152212975 -0.000654821226 0.00128081674
v 0.00201055408 -0.00119417405 0.00100436236
v 0.00181144604 -0.00128750235 0.000815312844
v 0.00160219753 -0.00147243496 0.00074529706
v 0.00180461549 -0.00100712292 0.00102580129
v 0.00147733861 -0.000714612193 0.00100295746
v 0.00165019126 -0.00114166131 0.000819922658
v 0.00145817152 -0.00134251534 0.000743985176
v 0.00134603377 -0.000870084506 0.000799550384
v 0.00116339757 -0.00107957947 0.000725097954
v 0.00126677542 -0.00116115797 -0.000293156801
v 0.000918241567 -0.00122823543 -0.000380498474
v 0.0010982767 -0.00101549551 -0.00030897095
v 0.00109032448 -0.00137699686 -0.000364330714
v 0.00145129638 -0.00132594549 -0.000238365828
v 0.000787989935 -0.00138735352 -0.000581752043
v 0.00128881342 -0.00155444618 -0.000303621142
v 0.00161322497 -0.00147495954 -0.000133922396
v 0.000974318653 -0.00154843123 -0.000564180431
v 0.000742422941 -0.00145021349 -0.000858806947
v 0.00146320439 -0.00171516975 -0.000186750593
v 0.00174504588 -0.00159918785 2.13679668E-05
v 0.000949840818 -0.00162952533 -0.000839156506
v 0.000793750107 -0.00139997271 -0.00113742577
v 0.00121579983 -0.00176474266 -0.000486196106
v 0.00160378532 -0.00184787624 -1.26016139E-05
v 0.00183231616 -0.00168316951 0.000222172428
v 0.00102344982 -0.00159854977 -0.00111557869
v 0.00092821836 -0.00125009299 -0.00134295307
v 0.00142777385 -0.00196056115 -0.000334284152
v 0.0012517221 -0.00190039037 -0.000736854679
v 0.00169486529 -0.00193563849 0.000210352679
v 0.00185543881 -0.00170574628 0.000413060479
v 0.00117542269 -0.00146380509 -0.00131938094
v 0.00110979693 -0.00104073458 -0.0014203185
v 0.00136503798 -0.00126139517 -0.00139595324
v 0.00159514777 -0.00211892696 -0.000107860862
v 0.00151625695 -0.00214522984 -0.000536385924
v 0.00138703745 -0.00192511675 -0.000988528947
v 0.00158558006 -0.00183238229 -0.00117395015
v 0.00179420097 -0.0016470789 -0.00124352658
v 0.0017180373 -0.00195807312 0.000425487437
v 0.00181810313 -0.0016714161 0.000589661009
v 0.00169896381 -0.00221919618 0.000177175243
v 0.00170514709 -0.00221988256 -0.00073909905
v 0.0019440233 -0.0021647003 -0.00088840723
v 0.00216898159 -0.00199456187 -0.00094446732
v 0.00172147818 -0.00233977218 -0.000238266875
v 0.00167548156 -0.00191838469 0.00062554446
v 0.00172415131 -0.00158428191 0.000694827118
v 0.00221729861 -0.0024242017 -0.000465382327
v 0.00245417003 -0.00226540049 -0.00050163269
v 0.00194914429 -0.00245145219 -0.000369034853
v 0.00184378156 -0.00245817844 0.000132054542
v 0.00172206818 -0.00224134978 0.000459507108
v 0.0015726845 -0.00182245404 0.000749960542
v 0.00160219753 -0.00147243496 0.00074529706
v 0.00237355917 -0.00257590669 5.4067521E-05
v 0.00261663948 -0.00242319633 4.19013195E-05
v 0.00209068111 -0.00258872076 8.70408112E-05
v 0.00166448497 -0.00218674983 0.000724014651
v 0.00186627253 -0.00247958349 0.000506145647
v 0.00143760978 -0.00169813714 0.000814390776
v 0.00145817152 -0.00134251534 0.000743985176
v 0.00239426154 -0.00259555457 0.000587509538
v 0.00263691694 -0.00244252943 0.000600576983
v 0.00211223145 -0.00260915956 0.000552971964
v 0.00178752164 -0.0024041927 0.000857991283
v 0.00153553905 -0.00206527859 0.000900902436
v 0.00127848762 -0.00155443128 0.000819731038
v 0.00116339757 -0.00107957947 0.000725097954
v 0.000978367636 -0.00128696265 0.000799550384
v 0.00227738428 -0.00248308247 0.00109023333
v 0.00251341565 -0.00232375623 0.00112697692
v 0.00201175525 -0.00251257885 0.000991882989
v 0.00162167498 -0.00224684598 0.00110542832
v 0.00136291946 -0.00190539355 0.00100277807
v 0.00116071536 -0.00172207982 0.00102557533
v 0.00084052264 -0.00143666647 0.00100295804
v 0.00204529241 -0.00226162793 0.00145869458
v 0.00226989621 -0.00209135702 0.0015140333
v 0.00180811877 -0.0023186116 0.00130931579
v 0.0013971756 -0.00203781133 0.0012574509
v 0.00113554718 -0.00179973268 0.00130388944
v 0.000786797609 -0.00148857734 0.00128081767
v 0.00153121725 -0.0020599342 0.00151101523
v 0.00172939955 -0.00196602102 0.00169645099
v 0.00193879043 -0.00178135897 0.00176461367
v 0.00120973494 -0.00176658505 0.00158116303
v 0.000831588812 -0.00142878643 0.00155867659
v 0.00136358349 -0.0016316527 0.00178389938
v 0.00155596074 -0.00143116794 0.00185811659
v 0.000962893653 -0.00127331435 0.00176208408
v 0.00114552968 -0.00106381974 0.0018365368
v 0.00103959441 -0.000300380867 -0.00223483471
v 0.00115861441 0.000252670696 -0.00223483448
v 0.00108243001 0.000820111774 -0.00223483425
v 0.000816094107 0.0013318999 -0.00223483401
v 0.000740947202 -0.000780172006 -0.00223483471
v 0.000388646644 0.00172065257 -0.00223483378
v 0.000300010288 -0.00112438784 -0.00223483448
v -0.000149596235 0.00193328969 -0.00223483355
v -0.000221904105 -0.00129533675 -0.00223483448
v -0.000729991239 0.00194191001 -0.00223483378
v -0.000772701111 -0.00128101907 -0.00223483425
v -0.00127670495 0.00174714054 -0.00223483401
v -0.00128809619 -0.00108483143 -0.00223483401
v -0.00172125129 0.00137369987 -0.00223483401
v -0.00171101489 -0.000727864855 -0.00223483401
v -0.00199431158 -0.000248719793 -0.00223483401
v -0.00200761575 0.000871368917 -0.00223483401
v -0.00209970167 0.000310359785 -0.00223483401
v 0.000300010288 -0.00112438784 -0.00223483448
v 0.00101284799 -0.00102990807 -0.00205458864
v 0.000740947202 -0.000780172006 -0.00223483471
v 0.000472812942 -0.00145148486 -0.0020545884
v -0.000221904105 -0.00129533675 -0.00223483448
v 0.00118377188 -0.00118689868 -0.00178926298
v -0.000166398953 -0.00166085362 -0.0020545884
v -0.000772701111 -0.00128101907 -0.00223483425
v 0.00058144104 -0.00165710656 -0.00178926298
v 0.00124207092 -0.00124044553 -0.00145688921
v -0.000840984809 -0.00164331822 -0.0020545884
v -0.00128809619 -0.00108483143 -0.00223483401
v -0.000131507142 -0.00189062685 -0.00178926287
v 0.000618492195 -0.00172724039 -0.00145688921
v -0.00147221202 -0.00140303851 -0.0020545884
v -0.00171101489 -0.000727864855 -0.00223483401
v 0.000584782916 -0.00169299147 0.00180446764
v 0.00118867762 -0.00122156308 0.00180446764
v 0.00109063624 -0.00113151409 0.0020553288
v -0.000883909874 -0.00187106908 -0.00178926287
v -0.000119606142 -0.00196899823 -0.00145688921
v -0.00199017953 -0.000965845422 -0.0020545884
v -0.00199431158 -0.000248719793 -0.00223483401
v 0.000522474234 -0.0015750482 0.0020553288
v 0.00102129427 -0.00106782489 0.00215138705
v -0.0015879526 -0.00160307193 -0.00178926287
v -0.00233714539 -0.000379014906 -0.0020545884
v -0.00209970167 0.000310359785 -0.00223483401
v -0.000130016429 -0.00192711828 0.00180446764
v 0.000478404982 -0.0014916294 0.00215138728
v 0.000843167887 -0.000904221612 0.00223483378
v -0.00089855073 -0.00194875023 -0.00145688944
v -0.00216567027 -0.00111544656 -0.00178926275
v -0.00246622181 0.000305714901 -0.0020545884
v -0.00200761575 0.000871368917 -0.00223483401
v -0.000150030304 -0.00179532194 0.0020553288
v -0.000884372566 -0.00190750952 0.00180446799
v -0.00162742939 -0.00167129899 -0.00145688967
v -0.00255266065 -0.000460922107 -0.00178926252
v -0.00159024296 -0.00163881655 0.00180446834
v -0.000859751308 -0.00177687348 0.00205532904
v -0.000164185287 -0.00170210446 0.00215138728
v -0.00222552661 -0.00116647233 -0.00145688979
v -0.00216946052 -0.00114992529 0.00180446834
v -0.00152385561 -0.00152407913 0.00205532904
v 0.000365201005 -0.00127734453 0.00223483355
v 0.000665037078 -0.000740592892 0.00215423363
v -0.000842336391 -0.00168447616 0.00215138705
v 0.000251992489 -0.00106303464 0.0021542341
v 0.000581233064 -0.000663629035 0.00204059272
v -0.000200543553 -0.00146264851 0.00223483285
v -0.00023690681 -0.0012231695 0.00215423363
v 0.00019873328 -0.000962225895 0.00204059319
v 0.000581234461 -0.000663609942 -0.000776868605
v 0.000198734851 -0.000962206919 -0.00077686843
v -0.000254010229 -0.00111049938 -0.000776868605
v -0.000797596236 -0.00144712778 0.00223483238
v -0.00147689984 -0.00144292624 0.00215138705
v -0.000254011946 -0.00111051882 0.00204059365
v -0.000752861728 -0.00120975752 0.00215423317
v -0.000731811859 -0.0010980987 0.00204059319
v -0.000731810112 -0.00109807879 -0.000776868896
v -0.00135627389 -0.00123446411 0.00223483192
v -0.00206880108 -0.00106411567 0.0020553288
v -0.001235654 -0.00102598022 0.0021542327
v -0.00117890164 -0.000927911897 0.00204059272
v -0.00117889978 -0.000927891699 -0.00077686907
v -0.00154576905 -0.000618233811 -0.00077686907
v -0.00163181976 -0.000691594323 0.00215423317
v -0.00199760473 -0.00100342266 0.00215138705
v -0.00255745533 -0.000493701489 0.00180446834
v -0.00154577068 -0.000618254067 0.00204059249
v -0.00179152167 -0.000202609925 0.00204059249
v -0.00179152051 -0.000202589741 -0.000776868721
v -0.00181470916 -0.00084751955 0.00223483262
v -0.00243383832 -0.000446720718 0.0020553288
v -0.00262616877 -0.000488858786 -0.00145688979
v -0.00189719559 -0.000242758615 0.0021542334
v -0.00188294426 0.000282375142 0.00204059272
v -0.00188294379 0.000282395311 -0.00077686843
v -0.00212179706 -0.000328135968 0.00223483378
v -0.0023464046 -0.00041349075 0.00215138728
v -0.0027017945 0.000271998346 0.00180446834
v -0.00199591927 0.000280955486 0.00215423363
v -0.00180306192 0.000769033912 0.00204059272
v -0.00180306204 0.000769054284 -0.000776868314
v -0.00223603891 0.000277895218 0.00223483471
v -0.00190965855 0.000806477037 0.00215423363
v -0.00256963726 0.000273672602 0.0020553288
v -0.00247616321 0.000274857855 0.00215138751
v -0.00155464909 0.0012047909 0.00204059272
v -0.00155464944 0.00120481104 -0.00077686843
v -0.00236278563 0.000965582265 0.00215138728
v -0.00164140889 0.00127703219 0.0021542334
v -0.00116901833 0.00152873935 0.00204059249
v -0.00116901891 0.00152875914 -0.000776868605
v -0.000694761402 0.00169771491 -0.000776868721
v -0.00213622022 0.000886018097 0.00223483471
v -0.00182580715 0.00143053499 0.00223483355
v -0.00122498325 0.00162685034 0.00215423317
v -0.0013439277 0.00183533726 0.00223483262
v -0.00201020879 0.00158406072 0.00215138705
v -0.000712853158 0.00180929899 0.00215423317
v -0.00069476082 0.00169769546 0.00204059179
v -0.000191285741 0.00169021694 0.00204059156
v -0.000191286468 0.00169023627 -0.000776868896
v -0.00146287552 0.00204384769 0.00215138705
v -0.000169172097 0.00180122338 0.00215423317
v 0.000275623723 0.00150576048 0.00204059179
v 0.000275623053 0.00150577957 -0.000776868896
v 0.00064642122 0.00116854871 -0.000776868721
v 0.000335023244 0.00160203665 0.00215423317
v -0.000751300831 0.00204646308 0.00223483238
v -0.000122163896 0.00203711842 0.00223483192
v 0.000461281074 0.0018066233 0.00223483169
v 0.000735431735 0.0012378752 0.00215423317
v 0.000646421686 0.00116852927 0.00204059202
v -0.000789752114 0.00228365115 0.00215138705
v -7.5159558E-05 0.0022730378 0.00215138705
v 0.000877460057 0.00072456873 0.00204059202
v 0.000877460057 0.000724588346 -0.000776868721
v 0.000587534741 0.0020112351 0.00215138705
v 0.00098491984 0.000758461247 0.00215423317
v 0.000943547639 0.000232330858 0.00204059202
v 0.000943548046 0.000232350299 -0.000776868721
v 0.0008403018 -0.000247405434 -0.000776868721
v 0.00105628453 0.000226914912 0.00215423317
v -5.68588803E-05 0.00236487482 0.0020553288
v 0.00063668564 0.00209088437 0.0020553288
v -0.000804717827 0.002375982 0.00205532904
v -0.00150917703 0.00212501455 0.00205532904
v -0.00208199024 0.00164382299 0.0020553288
v -0.00245098118 0.000996552291 0.0020553288
v -0.00257567619 0.00104034075 0.00180446799
v -0.00218347926 0.00172831886 0.00180446799
v -0.00157464144 0.00223977258 0.00180446834
v -0.000825878116 0.00250652316 0.00180446834
v -3.09858078E-05 0.00249471678 0.00180446834
v -0.00277521298 0.000301799038 -0.00145688944
v -0.00264498405 0.00109518575 -0.00145688932
v -0.00269662682 0.000302794913 -0.0017892624
v -0.00257083471 0.00106914784 -0.00178926229
v -0.00224000332 0.00180558884 -0.00145688921
v -0.000838150037 0.00260915956 -0.00145688886
v -0.00235344027 0.000992807909 -0.00205458817
v -0.00172125129 0.00137369987 -0.00223483401
v -0.00200271653 0.00160803495 -0.0020545884
v -0.00127670495 0.00174714054 -0.00223483401
v -0.00217965338 0.00175534457 -0.0017892624
v -0.0014582607 0.00206540455 -0.0020545884
v -0.000729991239 0.00194191001 -0.00223483378
v -0.00161131972 0.00233371393 -0.00145688886
v -0.00157239183 0.00226547406 -0.00178926252
v -0.000825567287 0.00253153406 -0.00178926287
v -0.000788676261 0.00230394746 -0.0020545884
v -0.000149596235 0.00193328969 -0.00223483355
v -7.7840501E-05 0.00229338976 -0.0020545884
v 0.000388646644 0.00172065257 -0.00223483378
v -3.27330454E-05 0.00251975819 -0.00178926287
v 0.000581369677 0.00203296356 -0.0020545884
v 0.000816094107 0.0013318999 -0.00223483401
v -1.7347671E-05 0.00259696832 -0.00145688886
v 0.00110488385 0.00155684084 -0.00205458864
v 0.00108243001 0.000820111774 -0.00223483425
v 0.000702520425 0.00222929055 -0.00178926298
v 0.00070617639 0.00220349478 0.00180446834
v 0.00143107737 0.000930031121 -0.00205458887
v 0.00115861441 0.000252670696 -0.00223483448
v 0.00128642446 0.00169824483 -0.0017892631
v 0.000743842684 0.00229625427 -0.00145688897
v 0.00152438378 0.00023506071 -0.0020545891
v 0.00103959441 -0.000300380867 -0.00223483471
v 0.00134834484 0.00174647511 -0.00145688921
v 0.00165024621 0.000999129261 -0.0017892631
v 0.00129159656 0.00167107047 0.00180446799
v 0.0011874662 0.0015899631 0.00205532904
v 0.00165636279 0.000970140216 0.00180446764
v 0.00172500056 0.00102269743 -0.00145688932
v 0.00111381605 0.00153259607 0.00215138705
v 0.00153064879 0.000930506561 0.00205532927
v 0.000924625958 0.00138522289 0.00223483192
v 0.0014417338 0.000902473461 0.00215138705
v 0.0012133288 0.000830454519 0.00223483262
v 0.00176070305 0.00019298913 0.00180446741
v 0.00175431604 0.000223990617 -0.0017892631
v 0.00162881473 0.000199339323 0.00205532927
v 0.00129591115 0.000215359454 0.00223483308
v 0.00153553358 0.000203829826 0.00215138705
v 0.00183274166 0.000220214642 -0.00145688932
v 0.00159173144 -0.000531491823 -0.0017892631
v 0.00166442164 -0.000561918365 -0.00145688921
v 0.00159769633 -0.000564454705 0.00180446741
v 0.00147545314 -0.000513286679 0.00205532904
v 0.000944792933 -0.000291152101 0.0021542334
v 0.00138899393 -0.000477097317 0.00215138705
v 0.00118867762 -0.00122156308 0.00180446764
v 0.00109063624 -0.00113151409 0.0020553288
v 0.00124207092 -0.00124044553 -0.00145688921
v 0.00118377188 -0.00118689868 -0.00178926298
v 0.00102129427 -0.00106782489 0.00215138705
v 0.00101284799 -0.00102990807 -0.00205458864
v 0.00116689561 -0.000384137558 0.00223483378
v 0.000843167887 -0.000904221612 0.00223483378
v 0.000665037078 -0.000740592892 0.00215423363
v 0.00137861446 -0.000442286342 -0.00205458887
v 0.000740947202 -0.000780172006 -0.00223483471
v 0.000840300752 -0.00024742473 0.00204059249
v 0.000581233064 -0.000663629035 0.00204059272
v 0.000581234461 -0.000663609942 -0.000776868605
v 0.000877460057 0.000724588346 -0.000776868721
v 0.000943548046 0.000232350299 -0.000776868721
v 0.0008403018 -0.000247405434 -0.000776868721
v 0.00064642122 0.00116854871 -0.000776868721
v 0.000581234461 -0.000663609942 -0.000776868605
v 0.000275623053 0.00150577957 -0.000776868896
v 0.000198734851 -0.000962206919 -0.00077686843
v -0.000191286468 0.00169023627 -0.000776868896
v -0.000254010229 -0.00111049938 -0.000776868605
v -0.000694761402 0.00169771491 -0.000776868721
v -0.000731810112 -0.00109807879 -0.000776868896
v -0.00116901891 0.00152875914 -0.000776868605
v -0.00117889978 -0.000927891699 -0.00077686907
v -0.00155464944 0.00120481104 -0.00077686843
v -0.00154576905 -0.000618233811 -0.00077686907
v -0.00179152051 -0.000202589741 -0.000776868721
v -0.00180306204 0.000769054284 -0.000776868314
v -0.00188294379 0.000282395311 -0.00077686843
vt 0.0160369873 0.487792969
vt 9.14335251E-05 0.467773438
vt 0.0975341797 0.472900391
vt 0 0.0833129883
vt 0 0
vt 0.166625977 0
vt 0.166625977 0.0833129883
vt 0 0.166625977
vt 0.25 0
vt 0.166625977 0.166625977
vt 0.25 0.0833129883
vt 0.291748047 0
vt 0.25 0.166625977
vt 0.291748047 0.0833129883
vt 0.291748047 0.166625977
vt 0.375 0
vt 0.375 0.0833129883
vt 0.375 0.166625977
vt 0.541503906 0.0833129883
vt 0.541503906 0
vt 0.541503906 0.166625977
vt 0.625 0
vt 0.625 0.0833129883
vt 0.625 0.166625977
vt 0.708496094 0
vt 0.708496094 0.0833129883
vt 0.708496094 0.166625977
vt 0.791503906 0
vt 0.791503906 0.0833129883
vt 0.791503906 0.166625977
vt 0.875 0
vt 0.875 0.0833129883
vt 0.875 0.166625977
vt 0.958496094 0
vt 0.958496094 0.0833129883
vt 1 0
vt 0.958496094 0.166625977
vt 1 0.0833129883
vt 1 0.166625977
vt 0.958496094 1
vt 1 0.916503906
vt 1 1
vt 0.958496094 0.916503906
vt 0.875 1
vt 1 0.833496094
vt 0.875 0.916503906
vt 0.791503906 1
vt 0.958496094 0.833496094
vt 1 0.75
vt 0.791503906 0.916503906
vt 0.708496094 1
vt 0.958496094 0.75
vt 1 0.666503906
vt 0.958496094 0.666503906
vt 0.875 0.833496094
vt 0.875 0.75
vt 0.875 0.666503906
vt 0.708496094 0.916503906
vt 0.625 1
vt 0.791503906 0.833496094
vt 0.791503906 0.75
vt 0.791503906 0.666503906
vt 0.625 0.916503906
vt 0.541503906 1
vt 0.708496094 0.833496094
vt 0.708496094 0.75
vt 0.708496094 0.666503906
vt 0.541503906 0.916503906
vt 0.375 1
vt 0.625 0.833496094
vt 0.625 0.75
vt 0.625 0.666503906
vt 0.375 0.916503906
vt 0.291748047 1
vt 0.541503906 0.833496094
vt 0.541503906 0.75
vt 0.541503906 0.666503906
vt 0.291748047 0.916503906
vt 0.25 1
vt 0.375 0.833496094
vt 0.375 0.75
vt 0.375 0.666503906
vt 0.25 0.916503906
vt 0.166625977 1
vt 0.291748047 0.833496094
vt 0.291748047 0.75
vt 0.291748047 0.666503906
vt 0.166625977 0.916503906
vt 0 1
vt 0 0.916503906
vt 0.25 0.833496094
vt 0.25 0.75
vt 0.25 0.666503906
vt 0.166625977 0.833496094
vt 0 0.833496094
vt 0.166625977 0.75
vt 0.166625977 0.666503906
vt 0 0.75
vt 0 0.666503906
vt 0.958496094 0.666503906
vt 1 0.583496094
vt 1 0.666503906
vt 0.958496094 0.583496094
vt 0.875 0.666503906
vt 1 0.5
vt 0.875 0.583496094
vt 0.791503906 0.666503906
vt 0.958496094 0.5
vt 1 0.416748047
vt 0.791503906 0.583496094
vt 0.708496094 0.666503906
vt 0.958496094 0.416748047
vt 1 0.333251953
vt 0.875 0.5
vt 0.708496094 0.583496094
vt 0.625 0.666503906
vt 0.958496094 0.333251953
vt 1 0.25
vt 0.791503906 0.5
vt 0.875 0.416748047
vt 0.625 0.583496094
vt 0.541503906 0.666503906
vt 0.958496094 0.25
vt 1 0.166625977
vt 0.958496094 0.166625977
vt 0.708496094 0.5
vt 0.791503906 0.416748047
vt 0.875 0.333251953
vt 0.875 0.25
vt 0.875 0.166625977
vt 0.541503906 0.583496094
vt 0.375 0.666503906
vt 0.625 0.5
vt 0.791503906 0.333251953
vt 0.791503906 0.25
vt 0.791503906 0.166625977
vt 0.708496094 0.416748047
vt 0.375 0.583496094
vt 0.291748047 0.666503906
vt 0.708496094 0.25
vt 0.708496094 0.166625977
vt 0.708496094 0.333251953
vt 0.625 0.416748047
vt 0.541503906 0.5
vt 0.291748047 0.583496094
vt 0.25 0.666503906
vt 0.625 0.25
vt 0.625 0.166625977
vt 0.625 0.333251953
vt 0.375 0.5
vt 0.541503906 0.416748047
vt 0.25 0.583496094
vt 0.166625977 0.666503906
vt 0.541503906 0.25
vt 0.541503906 0.166625977
vt 0.541503906 0.333251953
vt 0.375 0.416748047
vt 0.291748047 0.5
vt 0.166625977 0.583496094
vt 0 0.666503906
vt 0 0.583496094
vt 0.375 0.25
vt 0.375 0.166625977
vt 0.375 0.333251953
vt 0.291748047 0.416748047
vt 0.25 0.5
vt 0.166625977 0.5
vt 0 0.5
vt 0.291748047 0.25
vt 0.291748047 0.166625977
vt 0.291748047 0.333251953
vt 0.25 0.416748047
vt 0.166625977 0.416748047
vt 0 0.416748047
vt 0.25 0.333251953
vt 0.25 0.25
vt 0.25 0.166625977
vt 0.166625977 0.333251953
vt 0 0.333251953
vt 0.166625977 0.25
vt 0.166625977 0.166625977
vt 0 0.25
vt 0 0.166625977
vt 0.756347656 0.224609375
vt 0.66015625 0.285888672
vt 0.630859375 0.315673828
vt 0.608886719 0.343994141
vt 0.8359375 0.811035156
vt 0.579589844 0.395751953
vt 0.758789062 0.788085938
vt 0.5703125 0.419921875
vt 0.662597656 0.729492188
vt 0.563476562 0.443359375
vt 0.6328125 0.701171875
vt 0.556640625 0.48828125
vt 0.610839844 0.674316406
vt 0.555664062 0.510253906
vt 0.580566406 0.623535156
vt 0.571289062 0.599609375
vt 0.556640625 0.532226562
vt 0.563964844 0.576660156
vt 0.758789062 0.788085938
vt 0.801757812 0.905761719
vt 0.8359375 0.811035156
vt 0.720214844 0.846191406
vt 0.662597656 0.729492188
vt 0.737304688 0.966796875
vt 0.632324219 0.759765625
vt 0.6328125 0.701171875
vt 0.677246094 0.887695312
vt 0.663085938 1
vt 0.604980469 0.723632812
vt 0.610839844 0.674316406
vt 0.602050781 0.78125
vt 0.627441406 0.918457031
vt 0.584472656 0.690917969
vt 0.580566406 0.623535156
vt 0.212890625 0.890136719
vt 0.170776367 0.95703125
vt 0.130126953 0.920898438
vt 0.578613281 0.739746094
vt 0.569335938 0.799316406
vt 0.557617188 0.6328125
vt 0.571289062 0.599609375
vt 0.180297852 0.8671875
vt 0.11517334 0.90234375
vt 0.560546875 0.703125
vt 0.548828125 0.606933594
vt 0.563964844 0.576660156
vt 0.262695312 0.789550781
vt 0.167114258 0.854980469
vt 0.0994262695 0.868164062
vt 0.550292969 0.753417969
vt 0.537109375 0.640136719
vt 0.542480469 0.581542969
vt 0.556640625 0.532226562
vt 0.238037109 0.778808594
vt 0.278564453 0.749511719
vt 0.535644531 0.713378906
vt 0.529785156 0.611816406
vt 0.291015625 0.712890625
vt 0.256591797 0.740722656
vt 0.226928711 0.772460938
vt 0.516601562 0.645507812
vt 0.30859375 0.6484375
vt 0.270751953 0.706054688
vt 0.147949219 0.83203125
vt 0.0837402344 0.833496094
vt 0.246582031 0.736328125
vt 0.12878418 0.80859375
vt 0.0781860352 0.8125
vt 0.208129883 0.760742188
vt 0.189331055 0.748535156
vt 0.118286133 0.792480469
vt 9.14335251E-05 0.467773438
vt 0.021270752 0.508300781
vt 0.0679931641 0.539550781
vt 0.228759766 0.7265625
vt 0.261474609 0.702636719
vt 0.177734375 0.738769531
vt 0.2109375 0.717285156
vt 0.19934082 0.709472656
vt 0.0823974609 0.541503906
vt 0.245239258 0.6953125
vt 0.291015625 0.64453125
vt 0.229003906 0.687988281
vt 0.217773438 0.681640625
vt 0.0944824219 0.538574219
vt 0.111938477 0.530273438
vt 0.253417969 0.633300781
vt 0.282958984 0.642089844
vt 0.314208984 0.619140625
vt 0.243652344 0.629394531
vt 0.252197266 0.604980469
vt 0.118041992 0.527832031
vt 0.268310547 0.637695312
vt 0.297851562 0.616210938
vt 0.510253906 0.616210938
vt 0.262207031 0.607910156
vt 0.259277344 0.581054688
vt 0.122436523 0.523925781
vt 0.276123047 0.611328125
vt 0.290039062 0.614257812
vt 0.318603516 0.591308594
vt 0.268554688 0.583007812
vt 0.267089844 0.53515625
vt 0.126220703 0.514160156
vt 0.281982422 0.585449219
vt 0.276123047 0.535644531
vt 0.302734375 0.588867188
vt 0.295410156 0.587890625
vt 0.268066406 0.512695312
vt 0.127807617 0.509277344
vt 0.301513672 0.537109375
vt 0.277099609 0.512695312
vt 0.267578125 0.489990234
vt 0.127807617 0.504394531
vt 0.122680664 0.494873047
vt 0.288818359 0.536621094
vt 0.289794922 0.512695312
vt 0.276611328 0.489501953
vt 0.289306641 0.488525391
vt 0.302490234 0.512207031
vt 0.270507812 0.442626953
vt 0.260986328 0.444580078
vt 0.255126953 0.421386719
vt 0.120300293 0.487792969
vt 0.302001953 0.487792969
vt 0.264648438 0.418701172
vt 0.247192383 0.397460938
vt 0.115600586 0.481933594
vt 0.0975341797 0.472900391
vt 0.257080078 0.393798828
vt 0.283447266 0.440185547
vt 0.278076172 0.415283203
vt 0.270751953 0.389648438
vt 0.232543945 0.342529297
vt 0.221801758 0.348388672
vt 0.296386719 0.437744141
vt 0.291259766 0.411865234
vt 0.204345703 0.322753906
vt 0.0834960938 0.466308594
vt 0.284423828 0.385253906
vt 0.215454102 0.315185547
vt 0.182373047 0.297119141
vt 0.0651245117 0.465087891
vt 0.0160369873 0.487792969
vt 0.193969727 0.287109375
vt 0.298828125 0.410400391
vt 0.292236328 0.383056641
vt 0.303710938 0.436523438
vt 0.308837891 0.487304688
vt 0.309570312 0.512207031
vt 0.30859375 0.537597656
vt 0.323730469 0.538085938
vt 0.324462891 0.512695312
vt 0.323974609 0.486816406
vt 0.319335938 0.434326172
vt 0.315185547 0.407226562
vt 0.505859375 0.588378906
vt 0.500976562 0.535644531
vt 0.524414062 0.584960938
vt 0.518554688 0.534667969
vt 0.500488281 0.510253906
vt 0.505371094 0.432861328
vt 0.536132812 0.533691406
vt 0.555664062 0.510253906
vt 0.53515625 0.510253906
vt 0.556640625 0.48828125
vt 0.518066406 0.510253906
vt 0.535644531 0.486816406
vt 0.563476562 0.443359375
vt 0.500976562 0.485107422
vt 0.518554688 0.485839844
vt 0.523925781 0.435302734
vt 0.541992188 0.438476562
vt 0.5703125 0.419921875
vt 0.547851562 0.413085938
vt 0.579589844 0.395751953
vt 0.528808594 0.408691406
vt 0.556152344 0.386474609
vt 0.608886719 0.343994141
vt 0.509277344 0.405029297
vt 0.58203125 0.327636719
vt 0.630859375 0.315673828
vt 0.535644531 0.380371094
vt 0.309326172 0.379150391
vt 0.602050781 0.293945312
vt 0.66015625 0.285888672
vt 0.557617188 0.316162109
vt 0.514648438 0.375488281
vt 0.628417969 0.256347656
vt 0.756347656 0.224609375
vt 0.532226562 0.307373047
vt 0.574707031 0.278808594
vt 0.292236328 0.317382812
vt 0.272949219 0.32421875
vt 0.280029297 0.282470703
vt 0.545410156 0.266845703
vt 0.263916016 0.327880859
vt 0.258544922 0.291503906
vt 0.248291016 0.335205078
vt 0.248901367 0.296142578
vt 0.232177734 0.305664062
vt 0.263427734 0.243530273
vt 0.597167969 0.235717773
vt 0.239868164 0.255371094
vt 0.211669922 0.274414062
vt 0.229492188 0.26171875
vt 0.562988281 0.219482422
vt 0.672851562 0.123413086
vt 0.619628906 0.0907592773
vt 0.210327148 0.148681641
vt 0.181030273 0.172119141
vt 0.132568359 0.228271484
vt 0.169311523 0.183959961
vt 0.166259766 0.0872192383
vt 0.131103516 0.12487793
vt 0.658203125 9.14335251E-05
vt 0.739746094 0.0369262695
vt 0.119934082 0.143554688
vt 0.800292969 0.106140137
vt 0.150878906 0.206176758
vt 0.106506348 0.175415039
vt 0.0930786133 0.207275391
vt 0.71875 0.165283203
vt 0.8359375 0.200927734
vt 0.122192383 0.243164062
vt 0.0908203125 0.224609375
vt 9.14335251E-05 0.467773438
vt 0.0834960938 0.466308594
vt 0.0651245117 0.465087891
vt 0.0160369873 0.487792969
vt 0.0975341797 0.472900391
vt 9.14335251E-05 0.467773438
vt 0.115600586 0.481933594
vt 0.021270752 0.508300781
vt 0.120300293 0.487792969
vt 0.0679931641 0.539550781
vt 0.122680664 0.494873047
vt 0.0823974609 0.541503906
vt 0.127807617 0.504394531
vt 0.0944824219 0.538574219
vt 0.127807617 0.509277344
vt 0.111938477 0.530273438
vt 0.118041992 0.527832031
vt 0.126220703 0.514160156
vt 0.122436523 0.523925781
vn -0.687988281 0.278320312 0.670410156
vn -0.552246094 0.496582031 0.669921875
vn -0.588378906 -0.453125 0.669433594
vn 0.307617188 0.396484375 0.865234375
vn 0.562011719 0.66015625 0.498046875
vn 0.597167969 0.616699219 0.513183594
vn 0.371826172 0.325927734 0.869140625
vn -0.0289764404 0.0272369385 0.999023438
vn 0.698730469 0.517089844 0.494628906
vn 0.0511779785 -0.0461425781 0.997558594
vn 0.541992188 0.163574219 0.82421875
vn 0.816894531 0.403320312 0.412353516
vn 0.246582031 -0.22644043 0.942382812
vn 0.730957031 -0.0176544189 0.682128906
vn 0.460205078 -0.427978516 0.777832031
vn 0.915527344 0.305175781 0.261474609
vn 0.885742188 -0.169189453 0.432373047
vn 0.634277344 -0.595214844 0.493164062
vn 0.962890625 -0.245361328 0.114257812
vn 0.963867188 0.258300781 0.0655517578
vn 0.721679688 -0.6796875 0.132080078
vn 0.956054688 0.266845703 -0.121337891
vn 0.952148438 -0.234375 -0.19519043
vn 0.709960938 -0.668945312 -0.220581055
vn 0.904296875 0.319580078 -0.283203125
vn 0.87109375 -0.15222168 -0.466796875
vn 0.618164062 -0.579101562 -0.531738281
vn 0.819335938 0.402587891 -0.408203125
vn 0.734863281 -0.0199890137 -0.677734375
vn 0.464111328 -0.432373047 -0.772949219
vn 0.71875 0.498535156 -0.484863281
vn 0.572265625 0.133666992 -0.809082031
vn 0.280761719 -0.26171875 -0.923339844
vn 0.627929688 0.585449219 -0.512695312
vn 0.427734375 0.270019531 -0.862792969
vn 0.588378906 0.624023438 -0.513671875
vn 0.117492676 -0.114013672 -0.986328125
vn 0.366455078 0.327880859 -0.870605469
vn 0.0484008789 -0.054107666 -0.997558594
vn 0.627929688 0.585449219 -0.512695312
vn 0.654785156 0.755371094 -0.0184326172
vn 0.588378906 0.624023438 -0.513671875
vn 0.6640625 0.747070312 -0.0231628418
vn 0.71875 0.498535156 -0.484863281
vn 0.545898438 0.684082031 0.483886719
vn 0.680175781 0.732421875 -0.0250701904
vn 0.819335938 0.402587891 -0.408203125
vn 0.524414062 0.705566406 0.476806641
vn 0.2890625 0.427490234 0.856445312
vn 0.693847656 0.719726562 -0.0194091797
vn 0.904296875 0.319580078 -0.283203125
vn 0.244262695 0.46875 0.848632812
vn -0.0464172363 0.0546875 0.997558594
vn -0.101989746 0.104370117 0.989257812
vn 0.466308594 0.760253906 0.451904297
vn 0.1328125 0.5703125 0.810546875
vn -0.236938477 0.225219727 0.944824219
vn 0.702636719 0.711425781 -0.0104446411
vn 0.956054688 0.266845703 -0.121337891
vn 0.391357422 0.831054688 0.395263672
vn -0.00527191162 0.698242188 0.715820312
vn -0.399902344 0.375 0.836425781
vn 0.707519531 0.70703125 -0.0034866333
vn 0.963867188 0.258300781 0.0655517578
vn 0.317626953 0.901367188 0.294921875
vn -0.141235352 0.826171875 0.544921875
vn -0.559082031 0.524902344 0.641601562
vn 0.709472656 0.705078125 0.00365829468
vn 0.915527344 0.305175781 0.261474609
vn 0.264648438 0.953613281 0.14440918
vn -0.244873047 0.927246094 0.283203125
vn -0.684570312 0.643554688 0.342285156
vn 0.708984375 0.705078125 0.0162506104
vn 0.816894531 0.403320312 0.412353516
vn 0.256103516 0.965820312 -0.0446166992
vn -0.271484375 0.960449219 -0.0612487793
vn -0.727050781 0.684082031 -0.0590515137
vn 0.696289062 0.717285156 0.0211639404
vn 0.698730469 0.517089844 0.494628906
vn 0.31640625 0.916015625 -0.246582031
vn -0.161987305 0.872558594 -0.460693359
vn -0.610351562 0.573242188 -0.546386719
vn 0.68359375 0.729492188 0.0246276855
vn 0.597167969 0.616699219 0.513183594
vn 0.408203125 0.819335938 -0.40234375
vn 0.0342407227 0.66796875 -0.743652344
vn -0.351318359 0.328613281 -0.876464844
vn 0.671875 0.740722656 0.0145797729
vn 0.562011719 0.66015625 0.498046875
vn 0.667480469 0.744628906 -0.00379562378
vn 0.511230469 0.720214844 -0.469238281
vn 0.231201172 0.479003906 -0.846679688
vn -0.112731934 0.106262207 -0.987792969
vn 0.579101562 0.648925781 -0.493164062
vn 0.595214844 0.627441406 -0.501953125
vn 0.343261719 0.365966797 -0.865234375
vn 0.01612854 -0.0129852295 -1
vn 0.365234375 0.344238281 -0.864746094
vn 0.0372924805 -0.0317382812 -0.999023438
vn -0.101989746 0.104370117 0.989257812
vn -0.369384766 -0.333007812 0.867675781
vn -0.0464172363 0.0546875 0.997558594
vn -0.423095703 -0.286621094 0.859375
vn -0.236938477 0.225219727 0.944824219
vn -0.591796875 -0.629882812 0.502441406
vn -0.550292969 -0.174316406 0.81640625
vn -0.399902344 0.375 0.836425781
vn -0.629394531 -0.600097656 0.494140625
vn -0.654296875 -0.756347656 0.00234603882
vn -0.69921875 -0.0382385254 0.713867188
vn -0.559082031 0.524902344 0.641601562
vn -0.659667969 -0.751953125 -0.00475692749
vn -0.540039062 -0.679199219 -0.496582031
vn -0.713378906 -0.52734375 0.461669922
vn -0.838378906 0.0927734375 0.537109375
vn -0.684570312 0.643554688 0.342285156
vn -0.508789062 -0.702636719 -0.498046875
vn -0.282714844 -0.422119141 -0.861328125
vn -0.805175781 -0.444091797 0.393066406
vn -0.668457031 -0.743652344 -0.0143280029
vn -0.941894531 0.189819336 0.277587891
vn -0.727050781 0.684082031 -0.0590515137
vn -0.223632812 -0.468505859 -0.854492188
vn 0.0484008789 -0.054107666 -0.997558594
vn 0.117492676 -0.114013672 -0.986328125
vn -0.884765625 -0.369140625 0.283935547
vn -0.671386719 -0.741210938 -0.0196685791
vn -0.433837891 -0.765136719 -0.475830078
vn -0.0850830078 -0.588378906 -0.804199219
vn 0.280761719 -0.26171875 -0.923339844
vn -0.975097656 0.213500977 -0.0586853027
vn -0.610351562 0.573242188 -0.546386719
vn -0.937988281 -0.318847656 0.136962891
vn -0.34375 -0.846191406 -0.406982422
vn 0.0725708008 -0.732910156 -0.676757812
vn 0.464111328 -0.432373047 -0.772949219
vn -0.669433594 -0.742675781 -0.0186920166
vn -0.884277344 0.109008789 -0.454101562
vn -0.351318359 0.328613281 -0.876464844
vn 0.207519531 -0.858886719 -0.468505859
vn 0.618164062 -0.579101562 -0.531738281
vn -0.263183594 -0.920898438 -0.287597656
vn -0.665527344 -0.74609375 -0.00950622559
vn -0.94921875 -0.312255859 -0.0422058105
vn -0.668457031 -0.0770263672 -0.739746094
vn -0.112731934 0.106262207 -0.987792969
vn 0.290283203 -0.936523438 -0.196899414
vn 0.709960938 -0.668945312 -0.220581055
vn -0.21081543 -0.969238281 -0.12512207
vn -0.897460938 -0.370849609 -0.238891602
vn -0.662109375 -0.749511719 0.00455474854
vn -0.458251953 -0.267822266 -0.84765625
vn 0.01612854 -0.0129852295 -1
vn 0.302490234 -0.946289062 0.113952637
vn 0.721679688 -0.6796875 0.132080078
vn -0.200805664 -0.977539062 0.0654296875
vn -0.660644531 -0.75 0.0211181641
vn -0.793945312 -0.461425781 -0.395751953
vn -0.326904297 -0.378173828 -0.866210938
vn 0.0372924805 -0.0317382812 -0.999023438
vn -0.299072266 -0.400878906 -0.865722656
vn 0.224975586 -0.873046875 0.432861328
vn 0.634277344 -0.595214844 0.493164062
vn -0.247192383 -0.932617188 0.263427734
vn -0.668457031 -0.743164062 0.0261993408
vn -0.676269531 -0.568359375 -0.468261719
vn -0.585449219 -0.642578125 -0.494384766
vn -0.555175781 -0.661621094 -0.50390625
vn 0.0703735352 -0.727050781 0.682617188
vn 0.460205078 -0.427978516 0.777832031
vn -0.344238281 -0.842285156 0.414550781
vn -0.669921875 -0.7421875 0.0258789062
vn -0.66796875 -0.744140625 0.0138931274
vn -0.665039062 -0.746582031 -0.00492858887
vn -0.455566406 -0.739746094 0.494873047
vn -0.116638184 -0.553710938 0.82421875
vn 0.246582031 -0.22644043 0.942382812
vn -0.552246094 -0.657226562 0.512695312
vn -0.59375 -0.631835938 0.498291016
vn -0.286132812 -0.403076172 0.869140625
vn 0.0511779785 -0.0461425781 0.997558594
vn -0.359130859 -0.348632812 0.865722656
vn -0.0289764404 0.0272369385 0.999023438
vn 0.231201172 -0.0931396484 -0.968261719
vn 0.24987793 -0.00955963135 -0.968261719
vn 0.238769531 0.0756225586 -0.968261719
vn 0.198730469 0.152832031 -0.968261719
vn 0.185180664 -0.166137695 -0.96875
vn 0.13269043 0.212768555 -0.968261719
vn 0.116760254 -0.21875 -0.96875
vn 0.0486450195 0.245849609 -0.968261719
vn 0.035736084 -0.245239258 -0.96875
vn -0.0409240723 0.247192383 -0.968261719
vn -0.0482788086 -0.243408203 -0.96875
vn -0.124694824 0.217407227 -0.968261719
vn -0.126464844 -0.214233398 -0.96875
vn -0.192504883 0.160522461 -0.968261719
vn -0.190307617 -0.160766602 -0.968261719
vn -0.233886719 -0.0880126953 -0.968261719
vn -0.236206055 0.0837402344 -0.968261719
vn -0.25 -0.0029296875 -0.968261719
vn 0.116760254 -0.21875 -0.96875
vn 0.462158203 -0.415283203 -0.783691406
vn 0.185180664 -0.166137695 -0.96875
vn 0.291748047 -0.547363281 -0.784179688
vn 0.035736084 -0.245239258 -0.96875
vn 0.664550781 -0.598144531 -0.447753906
vn 0.0897216797 -0.613769531 -0.784179688
vn -0.0482788086 -0.243408203 -0.96875
vn 0.420410156 -0.788574219 -0.448730469
vn 0.739257812 -0.664550781 -0.107177734
vn -0.120422363 -0.609375 -0.783691406
vn -0.126464844 -0.214233398 -0.96875
vn 0.129394531 -0.884277344 -0.448486328
vn 0.467773438 -0.876953125 -0.108398438
vn -0.315917969 -0.536132812 -0.782714844
vn -0.190307617 -0.160766602 -0.968261719
vn 0.456054688 -0.856445312 0.242797852
vn 0.720703125 -0.648925781 0.243286133
vn 0.604003906 -0.543457031 0.583007812
vn -0.173095703 -0.877441406 -0.447753906
vn 0.144042969 -0.983398438 -0.108825684
vn -0.475585938 -0.402099609 -0.782226562
vn -0.233886719 -0.0880126953 -0.968261719
vn 0.381835938 -0.716308594 0.583984375
vn 0.410888672 -0.369140625 0.833496094
vn -0.454101562 -0.770996094 -0.447021484
vn -0.583496094 -0.219604492 -0.781738281
vn -0.25 -0.0029296875 -0.968261719
vn 0.14050293 -0.959960938 0.24230957
vn 0.259277344 -0.486572266 0.834472656
vn 0.0308532715 -0.0272064209 0.999023438
vn -0.192504883 -0.975097656 -0.108459473
vn -0.683105469 -0.577636719 -0.446289062
vn -0.623535156 -0.00735473633 -0.781738281
vn -0.236206055 0.0837402344 -0.968261719
vn 0.117553711 -0.803222656 0.583496094
vn -0.18762207 -0.952148438 0.241821289
vn -0.504882812 -0.856445312 -0.10760498
vn -0.837402344 -0.315429688 -0.446044922
vn -0.4921875 -0.836425781 0.241821289
vn -0.157348633 -0.797363281 0.582519531
vn 0.0797119141 -0.545410156 0.834472656
vn -0.759765625 -0.641601562 -0.106384277
vn -0.740722656 -0.626953125 0.242431641
vn -0.412841797 -0.700683594 0.581542969
vn 0.0191955566 -0.035736084 0.999023438
vn -0.376464844 0.338623047 0.862304688
vn -0.107055664 -0.541503906 0.833984375
vn -0.237915039 0.446533203 0.862792969
vn -0.682128906 0.612792969 0.398925781
vn 0.00562286377 -0.0397949219 0.999023438
vn -0.0733032227 0.500976562 0.862304688
vn -0.431396484 0.809082031 0.399169922
vn -0.552246094 0.496582031 0.669921875
vn -0.349121094 0.654785156 0.670410156
vn -0.10736084 0.733886719 0.670898438
vn -0.00801086426 -0.0390014648 0.999023438
vn -0.280761719 -0.476318359 0.833007812
vn -0.132568359 0.907226562 0.398925781
vn 0.0982666016 0.498046875 0.861816406
vn 0.177856445 0.899902344 0.397949219
vn 0.143554688 0.727050781 0.671386719
vn -0.0204772949 -0.0342102051 0.999023438
vn -0.621582031 -0.525390625 0.581054688
vn 0.258056641 0.438232422 0.860839844
vn 0.466064453 0.790527344 0.397216797
vn 0.376220703 0.638671875 0.671386719
vn 0.565917969 0.478515625 0.671386719
vn 0.388916016 0.328857422 0.860351562
vn -0.422851562 -0.357421875 0.832519531
vn -0.907226562 -0.342285156 0.243530273
vn 0.701171875 0.592773438 0.396728516
vn 0.858886719 0.323242188 0.397216797
vn 0.694824219 0.261474609 0.670410156
vn -0.0304718018 -0.0255737305 0.999023438
vn -0.76171875 -0.286865234 0.580566406
vn -0.930664062 -0.350097656 -0.104919434
vn 0.476074219 0.179321289 0.860839844
vn 0.91796875 0.0108184814 0.396972656
vn 0.7421875 0.00876617432 0.669921875
vn -0.0383911133 -0.0143432617 0.999023438
vn -0.518554688 -0.1953125 0.832519531
vn -0.969238281 -0.0120239258 0.244995117
vn 0.508789062 0.00600814819 0.860839844
vn 0.864746094 -0.306396484 0.397460938
vn 0.700195312 -0.248046875 0.669433594
vn -0.0411376953 -0.000454187393 0.999023438
vn 0.479492188 -0.169799805 0.860839844
vn -0.814453125 -0.0096206665 0.580566406
vn -0.5546875 -0.00653457642 0.83203125
vn 0.704589844 -0.587890625 0.397216797
vn 0.5703125 -0.475830078 0.669433594
vn -0.522949219 0.185302734 0.83203125
vn 0.390869141 -0.325927734 0.860839844
vn 0.456298828 -0.795898438 0.397216797
vn 0.369384766 -0.64453125 0.669433594
vn 0.12109375 -0.732910156 0.669433594
vn -0.0393676758 0.0140533447 0.999023438
vn -0.0319824219 0.0267181396 0.999023438
vn 0.252929688 -0.44140625 0.860839844
vn -0.020904541 0.036315918 0.999023438
vn -0.426269531 0.35546875 0.83203125
vn 0.082824707 -0.501464844 0.861328125
vn 0.149658203 -0.905273438 0.397705078
vn -0.178222656 -0.899902344 0.398193359
vn -0.14440918 -0.729492188 0.668945312
vn -0.276123047 0.481445312 0.83203125
vn -0.0986328125 -0.498046875 0.861328125
vn -0.485107422 -0.778808594 0.397949219
vn -0.393066406 -0.630859375 0.668945312
vn -0.588378906 -0.453125 0.669433594
vn -0.268554688 -0.430908203 0.861328125
vn -0.00694656372 0.0413513184 0.999023438
vn 0.00818634033 0.0415344238 0.999023438
vn 0.022567749 0.0359191895 0.999023438
vn -0.403320312 -0.310791016 0.860839844
vn -0.727539062 -0.560058594 0.396972656
vn -0.0904541016 0.547363281 0.83203125
vn 0.107727051 0.543945312 0.83203125
vn -0.875488281 -0.277099609 0.396240234
vn -0.707519531 -0.223999023 0.670410156
vn 0.293457031 0.470947266 0.83203125
vn -0.486328125 -0.153930664 0.860351562
vn -0.917480469 0.035736084 0.396728516
vn -0.741210938 0.0291137695 0.670410156
vn -0.687988281 0.278320312 0.670410156
vn -0.509277344 0.0200042725 0.860351562
vn 0.158203125 0.798339844 0.580566406
vn 0.430419922 0.690917969 0.580566406
vn -0.13269043 0.803222656 0.580566406
vn -0.405029297 0.706542969 0.580078125
vn -0.625488281 0.521972656 0.580078125
vn -0.767578125 0.271972656 0.580078125
vn -0.913574219 0.322998047 0.246459961
vn -0.744140625 0.620117188 0.247680664
vn -0.481933594 0.840332031 0.248779297
vn -0.157836914 0.955566406 0.249511719
vn 0.188354492 0.949707031 0.249511719
vn -0.994628906 -0.0112304688 -0.103271484
vn -0.9375 0.332519531 -0.101623535
vn -0.895019531 -0.0105819702 -0.445800781
vn -0.84375 0.298828125 -0.445556641
vn -0.763671875 0.637695312 -0.100158691
vn -0.162109375 0.981933594 -0.0986938477
vn -0.587890625 0.208374023 -0.781738281
vn -0.192504883 0.160522461 -0.968261719
vn -0.479248047 0.399658203 -0.78125
vn -0.124694824 0.217407227 -0.968261719
vn -0.6875 0.573242188 -0.4453125
vn -0.310302734 0.541503906 -0.78125
vn -0.0409240723 0.247192383 -0.968261719
vn -0.494628906 0.86328125 -0.0991210938
vn -0.4453125 0.776855469 -0.4453125
vn -0.145874023 0.883300781 -0.445800781
vn -0.10168457 0.615234375 -0.781738281
vn 0.0486450195 0.245849609 -0.968261719
vn 0.121154785 0.611816406 -0.781738281
vn 0.13269043 0.212768555 -0.968261719
vn 0.173950195 0.877929688 -0.445800781
vn 0.329833984 0.529296875 -0.781738281
vn 0.198730469 0.152832031 -0.968261719
vn 0.193237305 0.976074219 -0.0988769531
vn 0.494628906 0.380859375 -0.78125
vn 0.238769531 0.0756225586 -0.968261719
vn 0.473388672 0.759765625 -0.445800781
vn 0.512207031 0.821777344 0.248779297
vn 0.595214844 0.188476562 -0.78125
vn 0.24987793 -0.00955963135 -0.968261719
vn 0.709472656 0.546386719 -0.4453125
vn 0.525878906 0.844726562 -0.0994873047
vn 0.623535156 -0.0243377686 -0.781738281
vn 0.231201172 -0.0931396484 -0.968261719
vn 0.788085938 0.607421875 -0.100402832
vn 0.854003906 0.270263672 -0.445068359
vn 0.768066406 0.590820312 0.247314453
vn 0.645507812 0.497070312 0.579589844
vn 0.924316406 0.291992188 0.245727539
vn 0.948242188 0.30078125 -0.101745605
vn 0.439941406 0.338623047 0.831542969
vn 0.776855469 0.24597168 0.579589844
vn 0.0330810547 0.0252227783 0.999023438
vn 0.529296875 0.167602539 0.831542969
vn 0.0390625 0.0124130249 0.999023438
vn 0.96875 -0.0387573242 0.244506836
vn 0.89453125 -0.0352172852 -0.445556641
vn 0.813964844 -0.0319519043 0.580078125
vn 0.040802002 -0.00127506256 0.999023438
vn 0.554199219 -0.0215911865 0.83203125
vn 0.993652344 -0.0386352539 -0.103515625
vn 0.829589844 -0.335693359 -0.446533203
vn 0.921875 -0.372558594 -0.105407715
vn 0.898925781 -0.364257812 0.243774414
vn 0.754394531 -0.304931641 0.581542969
vn -0.471191406 0.190551758 0.861328125
vn 0.513183594 -0.207275391 0.833007812
vn 0.720703125 -0.648925781 0.243286133
vn 0.604003906 -0.543457031 0.583007812
vn 0.739257812 -0.664550781 -0.107177734
vn 0.664550781 -0.598144531 -0.447753906
vn 0.410888672 -0.369140625 0.833496094
vn 0.462158203 -0.415283203 -0.783691406
vn 0.0378417969 -0.014831543 0.999023438
vn 0.0308532715 -0.0272064209 0.999023438
vn -0.376464844 0.338623047 0.862304688
vn 0.577148438 -0.233276367 -0.782714844
vn 0.185180664 -0.166137695 -0.96875
vn -0.850585938 0.34375 0.397460938
vn -0.682128906 0.612792969 0.398925781
vn -0.552246094 0.496582031 0.669921875
vn -0.707519531 -0.223999023 0.670410156
vn -0.741210938 0.0291137695 0.670410156
vn -0.687988281 0.278320312 0.670410156
vn -0.588378906 -0.453125 0.669433594
vn -0.552246094 0.496582031 0.669921875
vn -0.393066406 -0.630859375 0.668945312
vn -0.349121094 0.654785156 0.670410156
vn -0.14440918 -0.729492188 0.668945312
vn -0.10736084 0.733886719 0.670898438
vn 0.12109375 -0.732910156 0.669433594
vn 0.143554688 0.727050781 0.671386719
vn 0.369384766 -0.64453125 0.669433594
vn 0.376220703 0.638671875 0.671386719
vn 0.5703125 -0.475830078 0.669433594
vn 0.565917969 0.478515625 0.671386719
vn 0.694824219 0.261474609 0.670410156
vn 0.700195312 -0.248046875 0.669433594
vn 0.7421875 0.00876617432 0.669921875
g Cup_01_0
f 3/3/3 2/2/2 1/1/1
f 6/6/6 5/5/5 4/4/4
f 7/7/7 6/6/6 4/4/4
f 7/7/7 4/4/4 8/8/8
f 9/9/9 6/6/6 7/7/7
f 10/10/10 7/7/7 8/8/8
f 11/11/11 9/9/9 7/7/7
f 11/11/11 7/7/7 10/10/10
f 12/12/12 9/9/9 11/11/11
f 13/13/13 11/11/11 10/10/10
f 14/14/14 12/12/12 11/11/11
f 14/14/14 11/11/11 13/13/13
f 15/15/15 14/14/14 13/13/13
f 16/16/16 12/12/12 14/14/14
f 17/17/17 14/14/14 15/15/15
f 17/17/17 16/16/16 14/14/14
f 18/18/18 17/17/17 15/15/15
f 16/16/16 17/17/17 19/19/19
f 19/19/19 17/17/17 18/18/18
f 20/20/20 16/16/16 19/19/19
f 21/21/21 19/19/19 18/18/18
f 22/22/22 20/20/20 19/19/19
f 23/23/23 19/19/19 21/21/21
f 23/23/23 22/22/22 19/19/19
f 24/24/24 23/23/23 21/21/21
f 25/25/25 22/22/22 23/23/23
f 26/26/26 23/23/23 24/24/24
f 26/26/26 25/25/25 23/23/23
f 27/27/27 26/26/26 24/24/24
f 28/28/28 25/25/25 26/26/26
f 29/29/29 26/26/26 27/27/27
f 29/29/29 28/28/28 26/26/26
f 30/30/30 29/29/29 27/27/27
f 31/31/31 28/28/28 29/29/29
f 32/32/32 29/29/29 30/30/30
f 32/32/32 31/31/31 29/29/29
f 33/33/33 32/32/32 30/30/30
f 34/34/34 31/31/31 32/32/32
f 35/35/35 32/32/32 33/33/33
f 35/35/35 34/34/34 32/32/32
f 36/36/36 34/34/34 35/35/35
f 37/37/37 35/35/35 33/33/33
f 38/38/38 36/36/36 35/35/35
f 38/38/38 35/35/35 37/37/37
f 39/39/39 38/38/38 37/37/37
f 42/42/42 41/41/41 40/40/40
f 41/41/41 43/43/43 40/40/40
f 40/40/40 43/43/43 44/44/44
f 41/41/41 45/45/45 43/43/43
f 43/43/43 46/46/46 44/44/44
f 44/44/44 46/46/46 47/47/47
f 45/45/45 48/48/48 43/43/43
f 43/43/43 48/48/48 46/46/46
f 45/45/45 49/49/49 48/48/48
f 46/46/46 50/50/50 47/47/47
f 47/47/47 50/50/50 51/51/51
f 49/49/49 52/52/52 48/48/48
f 49/49/49 53/53/53 52/52/52
f 53/53/53 54/54/54 52/52/52
f 48/48/48 55/55/55 46/46/46
f 48/48/48 52/52/52 55/55/55
f 46/46/46 55/55/55 50/50/50
f 52/52/52 54/54/54 56/56/56
f 52/52/52 56/56/56 55/55/55
f 54/54/54 57/57/57 56/56/56
f 50/50/50 58/58/58 51/51/51
f 51/51/51 58/58/58 59/59/59
f 55/55/55 60/60/60 50/50/50
f 55/55/55 56/56/56 60/60/60
f 50/50/50 60/60/60 58/58/58
f 56/56/56 57/57/57 61/61/61
f 56/56/56 61/61/61 60/60/60
f 57/57/57 62/62/62 61/61/61
f 58/58/58 63/63/63 59/59/59
f 59/59/59 63/63/63 64/64/64
f 60/60/60 65/65/65 58/58/58
f 60/60/60 61/61/61 65/65/65
f 58/58/58 65/65/65 63/63/63
f 61/61/61 62/62/62 66/66/66
f 61/61/61 66/66/66 65/65/65
f 62/62/62 67/67/67 66/66/66
f 63/63/63 68/68/68 64/64/64
f 64/64/64 68/68/68 69/69/69
f 65/65/65 70/70/70 63/63/63
f 65/65/65 66/66/66 70/70/70
f 63/63/63 70/70/70 68/68/68
f 66/66/66 67/67/67 71/71/71
f 66/66/66 71/71/71 70/70/70
f 67/67/67 72/72/72 71/71/71
f 68/68/68 73/73/73 69/69/69
f 69/69/69 73/73/73 74/74/74
f 70/70/70 75/75/75 68/68/68
f 70/70/70 71/71/71 75/75/75
f 68/68/68 75/75/75 73/73/73
f 71/71/71 72/72/72 76/76/76
f 71/71/71 76/76/76 75/75/75
f 72/72/72 77/77/77 76/76/76
f 73/73/73 78/78/78 74/74/74
f 74/74/74 78/78/78 79/79/79
f 75/75/75 80/80/80 73/73/73
f 75/75/75 76/76/76 80/80/80
f 73/73/73 80/80/80 78/78/78
f 76/76/76 77/77/77 81/81/81
f 76/76/76 81/81/81 80/80/80
f 77/77/77 82/82/82 81/81/81
f 78/78/78 83/83/83 79/79/79
f 79/79/79 83/83/83 84/84/84
f 80/80/80 85/85/85 78/78/78
f 80/80/80 81/81/81 85/85/85
f 78/78/78 85/85/85 83/83/83
f 81/81/81 82/82/82 86/86/86
f 81/81/81 86/86/86 85/85/85
f 82/82/82 87/87/87 86/86/86
f 83/83/83 88/88/88 84/84/84
f 84/84/84 88/88/88 89/89/89
f 88/88/88 90/90/90 89/89/89
f 85/85/85 91/91/91 83/83/83
f 85/85/85 86/86/86 91/91/91
f 83/83/83 91/91/91 88/88/88
f 86/86/86 87/87/87 92/92/92
f 86/86/86 92/92/92 91/91/91
f 87/87/87 93/93/93 92/92/92
f 88/88/88 94/94/94 90/90/90
f 91/91/91 94/94/94 88/88/88
f 91/91/91 92/92/92 94/94/94
f 94/94/94 95/95/95 90/90/90
f 92/92/92 93/93/93 96/96/96
f 92/92/92 96/96/96 94/94/94
f 94/94/94 96/96/96 95/95/95
f 93/93/93 97/97/97 96/96/96
f 96/96/96 98/98/98 95/95/95
f 96/96/96 97/97/97 98/98/98
f 97/97/97 99/99/99 98/98/98
f 102/102/102 101/101/101 100/100/100
f 101/101/101 103/103/103 100/100/100
f 100/100/100 103/103/103 104/104/104
f 101/101/101 105/105/105 103/103/103
f 103/103/103 106/106/106 104/104/104
f 104/104/104 106/106/106 107/107/107
f 105/105/105 108/108/108 103/103/103
f 103/103/103 108/108/108 106/106/106
f 105/105/105 109/109/109 108/108/108
f 106/106/106 110/110/110 107/107/107
f 107/107/107 110/110/110 111/111/111
f 109/109/109 112/112/112 108/108/108
f 109/109/109 113/113/113 112/112/112
f 108/108/108 114/114/114 106/106/106
f 106/106/106 114/114/114 110/110/110
f 108/108/108 112/112/112 114/114/114
f 110/110/110 115/115/115 111/111/111
f 111/111/111 115/115/115 116/116/116
f 113/113/113 117/117/117 112/112/112
f 113/113/113 118/118/118 117/117/117
f 114/114/114 119/119/119 110/110/110
f 110/110/110 119/119/119 115/115/115
f 112/112/112 120/120/120 114/114/114
f 112/112/112 117/117/117 120/120/120
f 114/114/114 120/120/120 119/119/119
f 115/115/115 121/121/121 116/116/116
f 116/116/116 121/121/121 122/122/122
f 118/118/118 123/123/123 117/117/117
f 118/118/118 124/124/124 123/123/123
f 124/124/124 125/125/125 123/123/123
f 119/119/119 126/126/126 115/115/115
f 115/115/115 126/126/126 121/121/121
f 120/120/120 127/127/127 119/119/119
f 119/119/119 127/127/127 126/126/126
f 117/117/117 128/128/128 120/120/120
f 117/117/117 123/123/123 128/128/128
f 120/120/120 128/128/128 127/127/127
f 123/123/123 125/125/125 129/129/129
f 123/123/123 129/129/129 128/128/128
f 125/125/125 130/130/130 129/129/129
f 121/121/121 131/131/131 122/122/122
f 122/122/122 131/131/131 132/132/132
f 126/126/126 133/133/133 121/121/121
f 121/121/121 133/133/133 131/131/131
f 128/128/128 134/134/134 127/127/127
f 128/128/128 129/129/129 134/134/134
f 129/129/129 130/130/130 135/135/135
f 129/129/129 135/135/135 134/134/134
f 130/130/130 136/136/136 135/135/135
f 127/127/127 137/137/137 126/126/126
f 127/127/127 134/134/134 137/137/137
f 126/126/126 137/137/137 133/133/133
f 131/131/131 138/138/138 132/132/132
f 132/132/132 138/138/138 139/139/139
f 135/135/135 136/136/136 140/140/140
f 136/136/136 141/141/141 140/140/140
f 134/134/134 135/135/135 142/142/142
f 134/134/134 142/142/142 137/137/137
f 135/135/135 140/140/140 142/142/142
f 137/137/137 143/143/143 133/133/133
f 137/137/137 142/142/142 143/143/143
f 133/133/133 144/144/144 131/131/131
f 131/131/131 144/144/144 138/138/138
f 133/133/133 143/143/143 144/144/144
f 138/138/138 145/145/145 139/139/139
f 139/139/139 145/145/145 146/146/146
f 140/140/140 141/141/141 147/147/147
f 141/141/141 148/148/148 147/147/147
f 142/142/142 140/140/140 149/149/149
f 142/142/142 149/149/149 143/143/143
f 140/140/140 147/147/147 149/149/149
f 144/144/144 150/150/150 138/138/138
f 138/138/138 150/150/150 145/145/145
f 143/143/143 151/151/151 144/144/144
f 143/143/143 149/149/149 151/151/151
f 144/144/144 151/151/151 150/150/150
f 145/145/145 152/152/152 146/146/146
f 146/146/146 152/152/152 153/153/153
f 147/147/147 148/148/148 154/154/154
f 148/148/148 155/155/155 154/154/154
f 149/149/149 147/147/147 156/156/156
f 149/149/149 156/156/156 151/151/151
f 147/147/147 154/154/154 156/156/156
f 151/151/151 157/157/157 150/150/150
f 151/151/151 156/156/156 157/157/157
f 150/150/150 158/158/158 145/145/145
f 145/145/145 158/158/158 152/152/152
f 150/150/150 157/157/157 158/158/158
f 152/152/152 159/159/159 153/153/153
f 153/153/153 159/159/159 160/160/160
f 159/159/159 161/161/161 160/160/160
f 154/154/154 155/155/155 162/162/162
f 155/155/155 163/163/163 162/162/162
f 156/156/156 154/154/154 164/164/164
f 156/156/156 164/164/164 157/157/157
f 154/154/154 162/162/162 164/164/164
f 157/157/157 165/165/165 158/158/158
f 157/157/157 164/164/164 165/165/165
f 158/158/158 166/166/166 152/152/152
f 152/152/152 166/166/166 159/159/159
f 158/158/158 165/165/165 166/166/166
f 159/159/159 167/167/167 161/161/161
f 166/166/166 167/167/167 159/159/159
f 167/167/167 168/168/168 161/161/161
f 162/162/162 163/163/163 169/169/169
f 163/163/163 170/170/170 169/169/169
f 164/164/164 162/162/162 171/171/171
f 164/164/164 171/171/171 165/165/165
f 162/162/162 169/169/169 171/171/171
f 165/165/165 172/172/172 166/166/166
f 166/166/166 172/172/172 167/167/167
f 165/165/165 171/171/171 172/172/172
f 167/167/167 173/173/173 168/168/168
f 172/172/172 173/173/173 167/167/167
f 173/173/173 174/174/174 168/168/168
f 171/171/171 175/175/175 172/172/172
f 171/171/171 169/169/169 175/175/175
f 172/172/172 175/175/175 173/173/173
f 169/169/169 170/170/170 176/176/176
f 169/169/169 176/176/176 175/175/175
f 170/170/170 177/177/177 176/176/176
f 173/173/173 178/178/178 174/174/174
f 175/175/175 178/178/178 173/173/173
f 175/175/175 176/176/176 178/178/178
f 178/178/178 179/179/179 174/174/174
f 176/176/176 177/177/177 180/180/180
f 176/176/176 180/180/180 178/178/178
f 178/178/178 180/180/180 179/179/179
f 177/177/177 181/181/181 180/180/180
f 180/180/180 182/182/182 179/179/179
f 180/180/180 181/181/181 182/182/182
f 181/181/181 183/183/183 182/182/182
f 186/186/186 185/185/185 184/184/184
f 184/184/184 187/187/187 186/186/186
f 184/184/184 188/188/188 187/187/187
f 188/188/188 189/189/189 187/187/187
f 188/188/188 190/190/190 189/189/189
f 190/190/190 191/191/191 189/189/189
f 190/190/190 192/192/192 191/191/191
f 192/192/192 193/193/193 191/191/191
f 192/192/192 194/194/194 193/193/193
f 194/194/194 195/195/195 193/193/193
f 194/194/194 196/196/196 195/195/195
f 196/196/196 197/197/197 195/195/195
f 196/196/196 198/198/198 197/197/197
f 198/198/198 199/199/199 197/197/197
f 199/199/199 200/200/200 197/197/197
f 199/199/199 201/201/201 200/200/200
f 204/204/204 203/203/203 202/202/202
f 203/203/203 205/205/205 202/202/202
f 202/202/202 205/205/205 206/206/206
f 203/203/203 207/207/207 205/205/205
f 205/205/205 208/208/208 206/206/206
f 206/206/206 208/208/208 209/209/209
f 207/207/207 210/210/210 205/205/205
f 207/207/207 211/211/211 210/210/210
f 208/208/208 212/212/212 209/209/209
f 209/209/209 212/212/212 213/213/213
f 214/214/214 208/208/208 205/205/205
f 210/210/210 214/214/214 205/205/205
f 208/208/208 214/214/214 212/212/212
f 211/211/211 215/215/215 210/210/210
f 210/210/210 215/215/215 214/214/214
f 212/212/212 216/216/216 213/213/213
f 213/213/213 216/216/216 217/217/217
f 218/218/218 215/215/215 211/211/211
f 219/219/219 218/218/218 211/211/211
f 219/219/219 220/220/220 218/218/218
f 214/214/214 221/221/221 212/212/212
f 212/212/212 221/221/221 216/216/216
f 215/215/215 222/222/222 214/214/214
f 222/222/222 215/215/215 218/218/218
f 214/214/214 222/222/222 221/221/221
f 216/216/216 223/223/223 217/217/217
f 217/217/217 223/223/223 224/224/224
f 220/220/220 225/225/225 218/218/218
f 220/220/220 226/226/226 225/225/225
f 221/221/221 227/227/227 216/216/216
f 216/216/216 227/227/227 223/223/223
f 223/223/223 228/228/228 224/224/224
f 224/224/224 228/228/228 229/229/229
f 230/230/230 222/222/222 218/218/218
f 218/218/218 225/225/225 230/230/230
f 226/226/226 231/231/231 225/225/225
f 226/226/226 232/232/232 231/231/231
f 222/222/222 233/233/233 221/221/221
f 221/221/221 233/233/233 227/227/227
f 227/227/227 234/234/234 223/223/223
f 223/223/223 234/234/234 228/228/228
f 228/228/228 235/235/235 229/229/229
f 229/229/229 235/235/235 236/236/236
f 225/225/225 237/237/237 230/230/230
f 225/225/225 231/231/231 237/237/237
f 230/230/230 238/238/238 222/222/222
f 238/238/238 233/233/233 222/222/222
f 230/230/230 237/237/237 238/238/238
f 233/233/233 239/239/239 227/227/227
f 227/227/227 239/239/239 234/234/234
f 234/234/234 240/240/240 228/228/228
f 228/228/228 240/240/240 235/235/235
f 238/238/238 241/241/241 233/233/233
f 241/241/241 239/239/239 233/233/233
f 237/237/237 242/242/242 238/238/238
f 238/238/238 242/242/242 241/241/241
f 231/231/231 243/243/243 237/237/237
f 237/237/237 243/243/243 242/242/242
f 239/239/239 244/244/244 234/234/234
f 234/234/234 244/244/244 240/240/240
f 241/241/241 245/245/245 239/239/239
f 245/245/245 244/244/244 239/239/239
f 242/242/242 246/246/246 241/241/241
f 241/241/241 246/246/246 245/245/245
f 231/231/231 247/247/247 243/243/243
f 232/232/232 247/247/247 231/231/231
f 232/232/232 248/248/248 247/247/247
f 243/243/243 249/249/249 242/242/242
f 242/242/242 249/249/249 246/246/246
f 248/248/248 250/250/250 247/247/247
f 248/248/248 251/251/251 250/250/250
f 247/247/247 252/252/252 243/243/243
f 243/243/243 252/252/252 249/249/249
f 250/250/250 253/253/253 247/247/247
f 253/253/253 252/252/252 247/247/247
f 251/251/251 254/254/254 250/250/250
f 250/250/250 254/254/254 253/253/253
f 251/251/251 255/255/255 254/254/254
f 255/255/255 256/256/256 254/254/254
f 256/256/256 257/257/257 254/254/254
f 252/252/252 258/258/258 249/249/249
f 252/252/252 253/253/253 258/258/258
f 249/249/249 259/259/259 246/246/246
f 249/249/249 258/258/258 259/259/259
f 254/254/254 260/260/260 253/253/253
f 257/257/257 260/260/260 254/254/254
f 253/253/253 261/261/261 258/258/258
f 253/253/253 260/260/260 261/261/261
f 260/260/260 257/257/257 262/262/262
f 260/260/260 262/262/262 261/261/261
f 257/257/257 263/263/263 262/262/262
f 258/258/258 261/261/261 264/264/264
f 258/258/258 264/264/264 259/259/259
f 246/246/246 259/259/259 265/265/265
f 246/246/246 265/265/265 245/245/245
f 261/261/261 262/262/262 266/266/266
f 261/261/261 266/266/266 264/264/264
f 262/262/262 263/263/263 267/267/267
f 262/262/262 267/267/267 266/266/266
f 263/263/263 268/268/268 267/267/267
f 268/268/268 269/269/269 267/267/267
f 266/266/266 267/267/267 270/270/270
f 266/266/266 270/270/270 264/264/264
f 259/259/259 264/264/264 271/271/271
f 259/259/259 271/271/271 265/265/265
f 245/245/245 265/265/265 272/272/272
f 245/245/245 272/272/272 244/244/244
f 269/269/269 273/273/273 267/267/267
f 267/267/267 273/273/273 270/270/270
f 273/273/273 269/269/269 274/274/274
f 269/269/269 275/275/275 274/274/274
f 264/264/264 276/276/276 271/271/271
f 270/270/270 276/276/276 264/264/264
f 265/265/265 271/271/271 277/277/277
f 265/265/265 277/277/277 272/272/272
f 272/272/272 278/278/278 244/244/244
f 244/244/244 278/278/278 240/240/240
f 270/270/270 273/273/273 279/279/279
f 273/273/273 274/274/274 279/279/279
f 274/274/274 275/275/275 280/280/280
f 275/275/275 281/281/281 280/280/280
f 276/276/276 270/270/270 282/282/282
f 270/270/270 279/279/279 282/282/282
f 271/271/271 276/276/276 283/283/283
f 276/276/276 282/282/282 283/283/283
f 271/271/271 283/283/283 277/277/277
f 272/272/272 277/277/277 284/284/284
f 272/272/272 284/284/284 278/278/278
f 279/279/279 274/274/274 285/285/285
f 274/274/274 280/280/280 285/285/285
f 280/280/280 281/281/281 286/286/286
f 281/281/281 287/287/287 286/286/286
f 282/282/282 279/279/279 288/288/288
f 279/279/279 285/285/285 288/288/288
f 285/285/285 280/280/280 289/289/289
f 280/280/280 286/286/286 289/289/289
f 285/285/285 289/289/289 288/288/288
f 277/277/277 283/283/283 290/290/290
f 277/277/277 290/290/290 284/284/284
f 283/283/283 282/282/282 291/291/291
f 282/282/282 288/288/288 291/291/291
f 283/283/283 291/291/291 290/290/290
f 286/286/286 287/287/287 292/292/292
f 287/287/287 293/293/293 292/292/292
f 291/291/291 288/288/288 294/294/294
f 291/291/291 294/294/294 290/290/290
f 289/289/289 286/286/286 295/295/295
f 286/286/286 292/292/292 295/295/295
f 292/292/292 293/293/293 296/296/296
f 293/293/293 297/297/297 296/296/296
f 297/297/297 298/298/298 296/296/296
f 289/289/289 299/299/299 288/288/288
f 288/288/288 299/299/299 294/294/294
f 299/299/299 289/289/289 300/300/300
f 289/289/289 295/295/295 300/300/300
f 295/295/295 292/292/292 301/301/301
f 292/292/292 296/296/296 301/301/301
f 295/295/295 301/301/301 302/302/302
f 300/300/300 295/295/295 302/302/302
f 299/299/299 300/300/300 303/303/303
f 294/294/294 299/299/299 303/303/303
f 301/301/301 296/296/296 304/304/304
f 301/301/301 304/304/304 302/302/302
f 298/298/298 305/305/305 296/296/296
f 296/296/296 305/305/305 304/304/304
f 305/305/305 298/298/298 306/306/306
f 298/298/298 307/307/307 306/306/306
f 300/300/300 302/302/302 308/308/308
f 303/303/303 300/300/300 308/308/308
f 304/304/304 305/305/305 309/309/309
f 305/305/305 306/306/306 309/309/309
f 306/306/306 307/307/307 310/310/310
f 307/307/307 311/311/311 310/310/310
f 311/311/311 312/312/312 310/310/310
f 309/309/309 306/306/306 313/313/313
f 306/306/306 310/310/310 313/313/313
f 304/304/304 314/314/314 302/302/302
f 304/304/304 309/309/309 315/315/315
f 314/314/314 304/304/304 315/315/315
f 309/309/309 313/313/313 316/316/316
f 315/315/315 309/309/309 316/316/316
f 313/313/313 310/310/310 317/317/317
f 313/313/313 317/317/317 316/316/316
f 312/312/312 318/318/318 310/310/310
f 310/310/310 318/318/318 317/317/317
f 302/302/302 314/314/314 319/319/319
f 308/308/308 302/302/302 319/319/319
f 314/314/314 315/315/315 320/320/320
f 319/319/319 314/314/314 320/320/320
f 318/318/318 312/312/312 321/321/321
f 312/312/312 322/322/322 321/321/321
f 315/315/315 316/316/316 323/323/323
f 320/320/320 315/315/315 323/323/323
f 317/317/317 318/318/318 324/324/324
f 318/318/318 321/321/321 324/324/324
f 321/321/321 322/322/322 325/325/325
f 322/322/322 326/326/326 325/325/325
f 326/326/326 327/327/327 325/325/325
f 324/324/324 321/321/321 328/328/328
f 321/321/321 325/325/325 328/328/328
f 319/319/319 320/320/320 329/329/329
f 320/320/320 323/323/323 330/330/330
f 329/329/329 320/320/320 330/330/330
f 331/331/331 319/319/319 329/329/329
f 308/308/308 319/319/319 331/331/331
f 332/332/332 308/308/308 331/331/331
f 303/303/303 308/308/308 332/332/332
f 333/333/333 303/303/303 332/332/332
f 294/294/294 303/303/303 333/333/333
f 334/334/334 294/294/294 333/333/333
f 294/294/294 334/334/334 290/290/290
f 290/290/290 334/334/334 335/335/335
f 284/284/284 290/290/290 335/335/335
f 334/334/334 333/333/333 336/336/336
f 335/335/335 334/334/334 336/336/336
f 333/333/333 332/332/332 337/337/337
f 336/336/336 333/333/333 337/337/337
f 332/332/332 331/331/331 338/338/338
f 337/337/337 332/332/332 338/338/338
f 331/331/331 329/329/329 339/339/339
f 338/338/338 331/331/331 339/339/339
f 284/284/284 335/335/335 340/340/340
f 284/284/284 340/340/340 278/278/278
f 335/335/335 336/336/336 341/341/341
f 335/335/335 341/341/341 340/340/340
f 278/278/278 340/340/340 342/342/342
f 240/240/240 278/278/278 342/342/342
f 240/240/240 342/342/342 235/235/235
f 342/342/342 340/340/340 343/343/343
f 342/342/342 343/343/343 235/235/235
f 340/340/340 341/341/341 343/343/343
f 336/336/336 344/344/344 341/341/341
f 336/336/336 337/337/337 344/344/344
f 338/338/338 345/345/345 337/337/337
f 338/338/338 339/339/339 345/345/345
f 343/343/343 346/346/346 235/235/235
f 235/235/235 346/346/346 236/236/236
f 236/236/236 346/346/346 347/347/347
f 346/346/346 348/348/348 347/347/347
f 346/346/346 343/343/343 348/348/348
f 347/347/347 348/348/348 349/349/349
f 343/343/343 341/341/341 350/350/350
f 343/343/343 350/350/350 348/348/348
f 341/341/341 344/344/344 350/350/350
f 348/348/348 351/351/351 349/349/349
f 348/348/348 350/350/350 351/351/351
f 349/349/349 351/351/351 352/352/352
f 337/337/337 353/353/353 344/344/344
f 345/345/345 353/353/353 337/337/337
f 350/350/350 344/344/344 354/354/354
f 344/344/344 353/353/353 354/354/354
f 350/350/350 354/354/354 351/351/351
f 354/354/354 353/353/353 355/355/355
f 354/354/354 355/355/355 351/351/351
f 353/353/353 345/345/345 355/355/355
f 351/351/351 356/356/356 352/352/352
f 355/355/355 356/356/356 351/351/351
f 352/352/352 356/356/356 357/357/357
f 356/356/356 358/358/358 357/357/357
f 356/356/356 355/355/355 358/358/358
f 357/357/357 358/358/358 359/359/359
f 355/355/355 345/345/345 360/360/360
f 355/355/355 360/360/360 358/358/358
f 358/358/358 361/361/361 359/359/359
f 358/358/358 360/360/360 361/361/361
f 359/359/359 361/361/361 362/362/362
f 345/345/345 363/363/363 360/360/360
f 339/339/339 363/363/363 345/345/345
f 361/361/361 364/364/364 362/362/362
f 362/362/362 364/364/364 365/365/365
f 360/360/360 366/366/366 361/361/361
f 360/360/360 363/363/363 366/366/366
f 339/339/339 367/367/367 363/363/363
f 339/339/339 329/329/329 367/367/367
f 329/329/329 330/330/330 367/367/367
f 364/364/364 368/368/368 365/365/365
f 365/365/365 368/368/368 369/369/369
f 370/370/370 364/364/364 361/361/361
f 366/366/366 370/370/370 361/361/361
f 364/364/364 370/370/370 368/368/368
f 363/363/363 371/371/371 366/366/366
f 367/367/367 371/371/371 363/363/363
f 366/366/366 371/371/371 370/370/370
f 368/368/368 372/372/372 369/369/369
f 369/369/369 372/372/372 373/373/373
f 374/374/374 371/371/371 367/367/367
f 371/371/371 374/374/374 370/370/370
f 370/370/370 375/375/375 368/368/368
f 368/368/368 375/375/375 372/372/372
f 370/370/370 374/374/374 375/375/375
f 367/367/367 330/330/330 376/376/376
f 376/376/376 374/374/374 367/367/367
f 330/330/330 377/377/377 376/376/376
f 330/330/330 323/323/323 377/377/377
f 376/376/376 378/378/378 374/374/374
f 376/376/376 377/377/377 378/378/378
f 374/374/374 379/379/379 375/375/375
f 378/378/378 379/379/379 374/374/374
f 323/323/323 380/380/380 377/377/377
f 323/323/323 316/316/316 380/380/380
f 377/377/377 381/381/381 378/378/378
f 377/377/377 380/380/380 381/381/381
f 316/316/316 382/382/382 380/380/380
f 317/317/317 382/382/382 316/316/316
f 380/380/380 382/382/382 383/383/383
f 380/380/380 383/383/383 381/381/381
f 382/382/382 317/317/317 384/384/384
f 382/382/382 384/384/384 383/383/383
f 317/317/317 324/324/324 384/384/384
f 378/378/378 381/381/381 385/385/385
f 378/378/378 385/385/385 379/379/379
f 375/375/375 379/379/379 386/386/386
f 375/375/375 386/386/386 372/372/372
f 381/381/381 383/383/383 387/387/387
f 381/381/381 387/387/387 385/385/385
f 384/384/384 324/324/324 388/388/388
f 324/324/324 328/328/328 388/388/388
f 383/383/383 384/384/384 389/389/389
f 383/383/383 389/389/389 387/387/387
f 384/384/384 388/388/388 389/389/389
f 379/379/379 390/390/390 386/386/386
f 385/385/385 390/390/390 379/379/379
f 386/386/386 391/391/391 372/372/372
f 386/386/386 390/390/390 391/391/391
f 392/392/392 390/390/390 385/385/385
f 390/390/390 392/392/392 391/391/391
f 385/385/385 387/387/387 393/393/393
f 393/393/393 392/392/392 385/385/385
f 387/387/387 389/389/389 394/394/394
f 387/387/387 394/394/394 393/393/393
f 328/328/328 395/395/395 388/388/388
f 328/328/328 325/325/325 395/395/395
f 389/389/389 388/388/388 396/396/396
f 389/389/389 396/396/396 394/394/394
f 393/393/393 394/394/394 397/397/397
f 393/393/393 397/397/397 392/392/392
f 394/394/394 398/398/398 397/397/397
f 394/394/394 396/396/396 398/398/398
f 397/397/397 399/399/399 392/392/392
f 392/392/392 399/399/399 400/400/400
f 391/391/391 392/392/392 400/400/400
f 396/396/396 401/401/401 398/398/398
f 391/391/391 400/400/400 402/402/402
f 388/388/388 403/403/403 396/396/396
f 396/396/396 403/403/403 401/401/401
f 403/403/403 404/404/404 401/401/401
f 395/395/395 403/403/403 388/388/388
f 403/403/403 395/395/395 404/404/404
f 395/395/395 405/405/405 404/404/404
f 406/406/406 391/391/391 402/402/402
f 406/406/406 402/402/402 407/407/407
f 391/391/391 406/406/406 372/372/372
f 373/373/373 406/406/406 407/407/407
f 372/372/372 406/406/406 373/373/373
f 395/395/395 408/408/408 405/405/405
f 325/325/325 408/408/408 395/395/395
f 408/408/408 409/409/409 405/405/405
f 327/327/327 408/408/408 325/325/325
f 408/408/408 327/327/327 409/409/409
f 327/327/327 410/410/410 409/409/409
f 413/413/413 412/412/412 411/411/411
f 411/411/411 414/414/414 413/413/413
f 414/414/414 416/416/416 415/415/415
f 416/416/416 417/417/417 415/415/415
f 416/416/416 418/418/418 417/417/417
f 418/418/418 419/419/419 417/417/417
f 418/418/418 420/420/420 419/419/419
f 420/420/420 421/421/421 419/419/419
f 420/420/420 422/422/422 421/421/421
f 422/422/422 423/423/423 421/421/421
f 422/422/422 424/424/424 423/423/423
f 424/424/424 425/425/425 423/423/423
f 424/424/424 426/426/426 425/425/425
f 424/424/424 427/427/427 426/426/426
f 427/427/427 428/428/428 426/426/426
