g CuttingBoard_Table
v 0.375099063 0.660053849 0.0420376584
v 0.378158927 0.671473384 0.0349591523
v 0.407115906 0.659478843 0.0349592343
v 0.401204944 0.649240375 0.0420377031
v 0.431982011 0.640398562 0.0349590741
v 0.345997781 0.663885236 0.0420376807
v 0.346765876 0.67560637 0.0349591561
v -0.00226280163 0.663885117 0.0420377217
v 0.375098944 -0.665025294 0.0420377366
v 0.214799494 0.598026633 0.0420376547
v -0.00226281164 0.67560637 0.0349592604
v 0.423622221 0.63203907 0.0420376733
v 0.451062232 0.615532815 0.0349592343
v 0.401205063 -0.65421176 0.0420376435
v 0.440823525 0.609621525 0.0420377441
v 0.463056505 0.586575866 0.0349592716
v -0.354375124 0.663885117 0.0420377031
v -0.355143219 0.67560643 0.0349591449
v -0.383476347 0.66005373 0.0420376882
v -0.386536002 0.671473384 0.0349592082
v 0.423622251 -0.637010336 0.04203761
v 0.451637149 0.583516002 0.0420376472
v 0.467189491 0.555182695 0.0349592343
v 0.455468357 0.55441469 0.0420377068
v 0.46718961 -0.5601542 0.0349592343
v 0.451637059 -0.588487387 0.0420376435
v 0.455468386 -0.559386015 0.0420376472
v 0.463056743 -0.591547072 0.0349591635
v 0.451062202 -0.6205042 0.0349592716
v 0.440823823 -0.614592791 0.0420376621
v 0.431981891 -0.645370185 0.0349591412
v 0.407115877 -0.664450467 0.0349592976
v 0.378159016 -0.676444888 0.0349592194
v 0.346765876 -0.680577874 0.034959279
v 0.345997721 -0.668856561 0.0420377478
v -0.00226258091 -0.680577934 0.0349591039
v -0.00226264843 -0.668856561 0.0420376956
v -0.355143279 -0.680577934 0.0349591821
v -0.354374915 -0.668856502 0.0420376845
v -0.386535943 -0.676444829 0.0349591523
v -0.183408976 0.435799152 0.0420377515
v 0.273201048 0.496871948 0.0420376509
v -0.383476168 -0.665025294 0.0420376733
v -0.41549322 -0.664450407 0.0349592194
v -0.26491487 0.518248618 0.0420376658
v -0.409581989 -0.654211819 0.0420376956
v -0.440359026 -0.645370126 0.0349591896
v -0.409582198 0.649240375 0.0420376882
v -0.41549316 0.659478784 0.0349591598
v -0.431999356 -0.637010396 0.0420376919
v -0.459439576 -0.62050426 0.0349591635
v -0.431999385 0.632038951 0.0420377143
v -0.440359294 0.640398622 0.034959238
v -0.449200988 -0.614592969 0.042037718
v -0.471433818 -0.591547191 0.0349591784
v -0.449200958 0.609621406 0.042037677
v -0.459439576 0.615532756 0.0349591598
v -0.460014224 0.583516002 0.042037636
v -0.471433848 0.586575627 0.0349591672
v -0.460014284 -0.588487387 0.0420376882
v -0.475566745 -0.560154319 0.0349591486
v -0.463845551 0.55441457 0.0420377366
v -0.475566894 0.555182576 0.0349591523
v -0.463845551 -0.559386075 0.0420377329
v 0.27601549 0.518248558 0.0420376584
v 0.273201138 0.539625168 0.042037718
v 0.267465264 0.518248439 0.0383508131
v 0.265023082 0.536796927 0.0383509323
v 0.264950037 0.559544563 0.0420377068
v 0.2578637 0.554081142 0.0383508913
v 0.251824558 0.576650083 0.0420377739
v 0.246474847 0.568923354 0.0383508876
v 0.234719232 0.589775681 0.0420377254
v 0.231632426 0.58031249 0.0383509062
v 0.214348257 0.587471843 0.0383508056
v 0.250470579 0.551185012 0.0284234378
v 0.240002304 0.56482774 0.0284234732
v 0.226359546 0.575296044 0.0284233987
v 0.257051408 0.535297632 0.0284234229
v 0.210472226 0.581876874 0.0284234229
v 0.19612202 0.589871347 0.038350869
v 0.193423018 0.584121466 0.0284234099
v 0.194509432 0.600697875 0.0420376807
v 0.236542806 0.561368465 -0.00499954773
v 0.223913968 0.571060538 -0.00499953562
v 0.209206656 0.57715416 -0.00499954307
v 0.246233106 0.548738599 -0.00499955053
v 0.193423033 0.579234242 -0.0049996092
v -0.00080933352 0.584121466 0.0284234174
v -0.000889802002 0.589871287 0.0383508466
v -0.000809386373 0.600697815 0.0420377143
v -0.183408722 0.600697756 0.0420376621
v -0.18502146 0.589871407 0.0383508578
v 0.000643989537 0.579235435 -0.00500004273
v -0.182322472 0.584121346 0.0284234434
v -0.182322457 0.579234123 -0.0049995468
v 0.193423063 0.567435026 -0.0120769776
v 0.000643915962 0.567439198 -0.0120785618
v -0.182322398 0.567434967 -0.0120769227
v 0.20615156 0.565751731 -0.0120769646
v 0.000643991283 0.518248439 -0.0120785721
v 0.193423092 0.518248677 -0.0120722055
v 0.218009949 0.560833991 -0.0120769758
v 0.228191406 0.553016782 -0.0120769441
v 0.236003116 0.542832196 -0.0120769748
v 0.000643750653 0.469057918 -0.0120785199
v 0.240913436 0.530973315 -0.0120769311
v 0.193423018 0.469062001 -0.0120769264
v 0.252324641 0.534031212 -0.00499951467
v 0.259296 0.518248498 0.0284234844
v 0.254402399 0.518248558 -0.00499957707
v 0.265023202 0.49970004 0.0383508839
v -0.182322398 0.518248618 -0.0120721497
v 0.242588267 0.518248439 -0.0120768975
v 0.257051468 0.501199305 0.0284234658
v 0.264950037 0.476952314 0.0420377403
v 0.25232476 0.502465844 -0.00499953702
v 0.25786382 0.482415825 0.0383508541
v -0.195051059 0.565751553 -0.0120769236
v -0.198106036 0.57715404 -0.00499956636
v 0.251824766 0.459846944 0.0420376882
v 0.250470519 0.485311955 0.0284234695
v 0.240913406 0.505523562 -0.0120768845
v 0.246474996 0.467573464 0.0383507758
v 0.246233314 0.487758666 -0.00499367854
v -0.20690918 0.560833931 -0.0120769609
v 0.234719142 0.446721405 0.0420377329
v 0.240002111 0.471669316 0.0284235273
v 0.236002877 0.49366498 -0.0120721478
v 0.231632501 0.456184536 0.0383508466
v 0.236542955 0.475128621 -0.00499959756
v 0.214799374 0.438470364 0.0420377403
v 0.226359367 0.461200804 0.0284235273
v 0.228191108 0.483480185 -0.0120768696
v 0.214348271 0.449025214 0.0383508392
v 0.194509462 0.435799181 0.0420376696
v 0.223914012 0.465436816 -0.0049995766
v 0.2180098 0.475662947 -0.0120769143
v -0.000809344579 0.435799152 0.0420376919
v 0.210472345 0.454620004 0.0284233391
v 0.196122169 0.446625769 0.0383508839
v 0.206151411 0.470745355 -0.012076891
v 0.209206611 0.459343076 -0.0049995766
v -0.000889915507 0.446625531 0.0383508652
v 0.193423063 0.452375621 0.0284234155
v 0.193423048 0.457262993 -0.00499957008
v -0.000809269957 0.452375412 0.0284234025
v 0.00064389722 0.457261741 -0.00500004087
v -0.185021549 0.44662565 0.0383508913
v -0.182322443 0.452375472 0.0284233913
v -0.182322428 0.457262814 -0.0049995929
v -0.203698739 0.438470304 0.0420376658
v -0.203247517 0.449025154 0.0383508615
v -0.182322487 0.469061971 -0.0120769423
v -0.199371621 0.454620034 0.0284234416
v -0.223618805 0.446721435 0.0420377329
v -0.195050925 0.470745265 -0.0120769441
v -0.206909344 0.475663006 -0.0120768733
v -0.217090786 0.483480245 -0.012076905
v -0.19810608 0.459343135 -0.00499956636
v -0.220531955 0.456184506 0.0383508466
v -0.212813377 0.465436637 -0.00499958871
v -0.215258911 0.461200684 0.0284234248
v -0.240724102 0.459846944 0.0420377217
v -0.225442216 0.47512868 -0.00499959895
v -0.235374331 0.467573375 0.0383509062
v -0.228901654 0.471669257 0.0284234844
v -0.253849626 0.476952255 0.0420376956
v -0.246763259 0.482416004 0.0383509062
v -0.262100697 0.496871829 0.0420376994
v -0.239370063 0.485311985 0.0284233857
v -0.253922552 0.49970001 0.0383508913
v -0.235132501 0.487758666 -0.00499960734
v -0.245950818 0.501199365 0.0284234677
v -0.256364554 0.518248558 0.0383508615
v -0.224902526 0.493664861 -0.0120769124
v -0.241224319 0.502465844 -0.00499950862
v -0.262100548 0.53962481 0.0420377254
v -0.248195365 0.518248498 0.0284234677
v -0.229812816 0.505523443 -0.0120769553
v -0.253922671 0.536796808 0.0383509137
v -0.243301809 0.518248558 -0.00499953656
v -0.253849596 0.559544683 0.0420376919
v -0.245950848 0.535297573 0.0284234099
v -0.231487617 0.518248439 -0.0120769497
v -0.246763349 0.554081142 0.0383509174
v -0.24122414 0.534031212 -0.00499373721
v -0.240724042 0.576650023 0.0420376472
v -0.239370197 0.551184952 0.0284235086
v -0.229812846 0.530973554 -0.0120721571
v -0.235374257 0.568923354 0.0383508652
v -0.223618656 0.589775562 0.0420377068
v -0.235132679 0.54873848 -0.00499949837
v -0.224902645 0.542832196 -0.0120768808
v -0.203698918 0.598026633 0.0420377068
v -0.228901774 0.564827681 0.0284234378
v -0.220532015 0.580312371 0.0383509025
v -0.203247547 0.587471843 0.0383508205
v -0.2170908 0.553016722 -0.0120769385
v -0.22544235 0.561368465 -0.00499954866
v -0.215259001 0.575296104 0.0284235142
v -0.199371725 0.581876755 0.028423449
v -0.212813437 0.571060359 -0.00499954401
v 0.375098914 -0.665025294 -0.0701752901
v 0.378158927 -0.676444888 -0.0630968064
v 0.407116026 -0.664450347 -0.0630968288
v 0.401205003 -0.654211819 -0.0701753944
v 0.43198204 -0.645370066 -0.0630969405
v 0.345997661 -0.668856561 -0.0701753199
v 0.346766025 -0.680577815 -0.0630968437
v 0.423622251 -0.637010455 -0.070175305
v 0.451062411 -0.6205042 -0.0630968735
v -0.00226269523 -0.668856561 -0.0701753721
v -0.00226266542 -0.680577874 -0.0630968511
v -0.354375005 -0.668856621 -0.070175387
v -0.35514307 -0.680577993 -0.0630969107
v -0.00226286356 0.663885236 -0.0701753274
v 0.345997751 0.663885176 -0.0701753572
v 0.440823764 -0.614592969 -0.070175387
v 0.463056654 -0.591547191 -0.0630968958
v -0.383476168 -0.665025294 -0.0701753795
v -0.386536092 -0.676444888 -0.0630968586
v -0.409582108 -0.654211938 -0.0701753497
v -0.415493071 -0.664450347 -0.0630969107
v -0.383476347 0.66005373 -0.0701753125
v -0.431999385 -0.637010574 -0.0701753423
v -0.440359175 -0.645370185 -0.063096799
v -0.354374915 0.663885176 -0.0701754168
v 0.45163703 -0.588487387 -0.0701752603
v 0.467189729 -0.5601542 -0.0630968735
v -0.409582227 0.649240494 -0.0701753348
v -0.449201018 -0.614593029 -0.0701753348
v -0.459439397 -0.620504141 -0.0630969331
v 0.455468327 -0.559386015 -0.0701754093
v 0.46718967 0.555182695 -0.0630969033
v 0.455468088 0.55441463 -0.0701752603
v 0.463056713 0.586575866 -0.0630968809
v 0.451636851 0.583515882 -0.0701753125
v 0.451062113 0.615532756 -0.0630967841
v 0.440823734 0.609621644 -0.070175387
v 0.431981921 0.640398502 -0.0630968884
v 0.423622131 0.63203907 -0.0701753646
v 0.407116055 0.659478843 -0.0630968884
v 0.401204854 0.649240494 -0.0701753125
v 0.378158808 0.671473324 -0.0630968288
v 0.375099003 0.66005379 -0.0701753274
v 0.346765816 0.675606251 -0.0630968139
v -0.00226264726 0.67560643 -0.0630968586
v -0.355143309 0.67560637 -0.0630968213
v -0.386536121 0.671473265 -0.0630968362
v -0.41549325 0.659478784 -0.0630968064
v -0.440359056 0.640398622 -0.0630968809
v -0.431999415 0.632038832 -0.0701753199
v -0.459439665 0.615532756 -0.0630968064
v -0.449200988 0.609621465 -0.0701753423
v -0.471433908 0.586575627 -0.0630968586
v -0.460014254 0.583516061 -0.0701753795
v -0.475566775 0.555182636 -0.0630968884
v -0.460014313 -0.588487446 -0.0701753423
v -0.471434057 -0.59154731 -0.0630968735
v -0.463845581 0.55441463 -0.0701753274
v -0.475566924 -0.560154259 -0.0630967766
v -0.463845551 -0.559386075 -0.0701753199
v 0.347084165 0.680461705 0.0178701337
v 0.346765876 0.67560637 0.0349591561
v -0.00226281164 0.67560637 0.0349592604
v -0.00226268009 0.680461645 0.0178701114
v -0.355143219 0.67560643 0.0349591449
v 0.379426271 0.676203728 0.0178702101
v 0.378158927 0.671473384 0.0349591523
v -0.355461448 0.680461586 0.0178701524
v -0.386536002 0.671473384 0.0349592082
v 0.409564495 0.663720071 0.0178700946
v 0.407115906 0.659478843 0.0349592343
v -0.387803555 0.676203728 0.0178701412
v -0.41549316 0.659478784 0.0349591598
v 0.435444713 0.643861532 0.0178701486
v 0.431982011 0.640398562 0.0349590741
v -0.4179416 0.663719893 0.0178701337
v -0.440359294 0.640398622 0.034959238
v 0.455303192 0.617981315 0.0178701337
v 0.451062232 0.615532815 0.0349592343
v -0.443821758 0.643861592 0.0178701561
v -0.459439576 0.615532756 0.0349591598
v 0.46778667 0.587843239 0.0178701375
v 0.463056505 0.586575866 0.0349592716
v -0.463680416 0.617981315 0.0178701747
v -0.471433848 0.586575627 0.0349591672
v 0.472044498 0.555501044 0.0178702269
v 0.467189491 0.555182695 0.0349592343
v -0.476163983 0.58784318 0.0178700928
v -0.475566894 0.555182576 0.0349591523
v 0.472044796 -0.560472429 0.0178700425
v 0.46718961 -0.5601542 0.0349592343
v -0.480421901 0.555500984 0.0178701077
v -0.475566745 -0.560154319 0.0349591486
v 0.467786878 -0.592814505 0.0178701393
v 0.463056743 -0.591547072 0.0349591635
v -0.480421871 -0.560472429 0.0178700928
v -0.471433818 -0.591547191 0.0349591784
v 0.455303311 -0.62295258 0.017870076
v 0.451062202 -0.6205042 0.0349592716
v -0.476163983 -0.592814624 0.0178701598
v -0.459439576 -0.62050426 0.0349591635
v 0.435444683 -0.648832917 0.0178700928
v 0.431981891 -0.645370185 0.0349591412
v -0.463680327 -0.6229527 0.0178700723
v -0.440359026 -0.645370126 0.0349591896
v 0.409564555 -0.668691397 0.0178701635
v 0.407115877 -0.664450467 0.0349592976
v -0.443821788 -0.648833036 0.0178701337
v -0.41549322 -0.664450407 0.0349592194
v 0.37942645 -0.681174934 0.0178701784
v 0.378159016 -0.676444888 0.0349592194
v -0.41794166 -0.668691516 0.0178701263
v -0.386535943 -0.676444829 0.0349591523
v 0.347084314 -0.685432971 0.0178700518
v 0.346765876 -0.680577874 0.034959279
v -0.387803644 -0.681175053 0.0178701822
v -0.355143279 -0.680577934 0.0349591821
v -0.00226273271 -0.685432971 0.0178701673
v -0.00226258091 -0.680577934 0.0349591039
v -0.355461329 -0.68543303 0.0178701095
v 0.409564435 -0.668691337 -0.0460078232
v 0.37942636 -0.681174994 -0.0460078083
v 0.347084254 -0.68543303 -0.0460079238
v -0.00226258417 -0.685432971 -0.0460078344
v -0.355461389 -0.685432971 -0.0460078232
v -0.387803495 -0.681174994 -0.0460078046
v 0.435444593 -0.648832977 -0.0460077822
v -0.417941749 -0.668691516 -0.0460077636
v 0.455303282 -0.622952759 -0.0460077897
v -0.443821907 -0.648832977 -0.0460078605
v 0.467786789 -0.592814505 -0.046007853
v -0.463680416 -0.622952759 -0.0460078157
v 0.472044736 -0.560472488 -0.0460077859
v -0.476164132 -0.592814684 -0.0460077599
v 0.472044736 0.555501163 -0.0460078046
v -0.48042199 -0.560472488 -0.0460078269
v 0.467786759 0.587843299 -0.0460078344
v -0.48042196 0.555500865 -0.0460077822
v 0.455303162 0.617981315 -0.0460077971
v -0.476164132 0.58784318 -0.0460078157
v 0.435444564 0.643861532 -0.046007771
v -0.463680506 0.617981195 -0.0460077524
v 0.409564435 0.663720131 -0.0460078157
v -0.443821818 0.643861532 -0.0460077748
v 0.379426181 0.676203787 -0.0460077599
v -0.417941749 0.663720012 -0.0460077859
v 0.347084075 0.680461705 -0.0460077561
v -0.387803644 0.676203668 -0.0460078008
v -0.00226277229 0.680461705 -0.0460078083
v -0.355461478 0.680461526 -0.0460077636
v 0.407116055 0.659478843 -0.0630968884
v 0.378158808 0.671473324 -0.0630968288
v 0.431981921 0.640398502 -0.0630968884
v 0.346765816 0.675606251 -0.0630968139
v -0.00226264726 0.67560643 -0.0630968586
v 0.451062113 0.615532756 -0.0630967841
v -0.355143309 0.67560637 -0.0630968213
v -0.386536121 0.671473265 -0.0630968362
v 0.463056713 0.586575866 -0.0630968809
v -0.41549325 0.659478784 -0.0630968064
v 0.46718967 0.555182695 -0.0630969033
v -0.440359056 0.640398622 -0.0630968809
v 0.467189729 -0.5601542 -0.0630968735
v -0.459439665 0.615532756 -0.0630968064
v 0.463056654 -0.591547191 -0.0630968958
v -0.471433908 0.586575627 -0.0630968586
v 0.451062411 -0.6205042 -0.0630968735
v -0.475566775 0.555182636 -0.0630968884
v 0.43198204 -0.645370066 -0.0630969405
v -0.475566924 -0.560154259 -0.0630967766
v 0.407116026 -0.664450347 -0.0630968288
v -0.471434057 -0.59154731 -0.0630968735
v 0.378158927 -0.676444888 -0.0630968064
v -0.459439397 -0.620504141 -0.0630969331
v 0.346766025 -0.680577815 -0.0630968437
v -0.440359175 -0.645370185 -0.063096799
v -0.00226266542 -0.680577874 -0.0630968511
v -0.415493071 -0.664450347 -0.0630969107
v -0.35514307 -0.680577993 -0.0630969107
v -0.386536092 -0.676444888 -0.0630968586
vt 0.393066406 0.143310547
vt 0.397949219 0.141845703
vt 0.393066406 0.130493164
vt 0.388671875 0.133178711
vt 0.385253906 0.120727539
vt 0.395019531 0.154541016
vt 0.399902344 0.154052734
vt 0.398925781 0.283447266
vt -0.0992431641 0.145874023
vt 0.371826172 0.208374023
vt 0.403564453 0.283447266
vt 0.381591797 0.124389648
vt 0.375244141 0.11315918
vt -0.0950317383 0.135375977
vt 0.372558594 0.117675781
vt 0.36328125 0.108215332
vt 0.397949219 0.414550781
vt 0.402832031 0.414794922
vt 0.396240234 0.42578125
vt 0.401123047 0.427001953
vt -0.0882568359 0.126220703
vt 0.362060547 0.11340332
vt 0.349609375 0.106018066
vt 0.349609375 0.112121582
vt -0.0557556152 0.106018066
vt -0.0681762695 0.114196777
vt -0.0553588867 0.112243652
vt -0.0698242188 0.108825684
vt -0.0819091797 0.114318848
vt -0.0791015625 0.118896484
vt -0.0920410156 0.122497559
vt -0.099609375 0.1328125
vt -0.104187012 0.14465332
vt -0.10559082 0.157226562
vt -0.100585938 0.157592773
vt -0.105773926 0.290771484
vt -0.100891113 0.290771484
vt -0.100952148 0.42578125
vt -0.0960083008 0.425292969
vt -0.0991210938 0.438232422
vt 0.304931641 0.346435547
vt 0.328125 0.186645508
vt -0.0941772461 0.437011719
vt -0.0941162109 0.449951172
vt 0.339355469 0.377685547
vt -0.0896606445 0.447265625
vt -0.0861206055 0.460205078
vt 0.392089844 0.436035156
vt 0.396484375 0.438476562
vt -0.0824584961 0.456298828
vt -0.0757446289 0.467773438
vt 0.385253906 0.444824219
vt 0.388916016 0.448486328
vt -0.0731201172 0.463134766
vt -0.0635375977 0.472900391
vt 0.376464844 0.451904297
vt 0.379150391 0.456298828
vt 0.365966797 0.456298828
vt 0.367431641 0.461669922
vt -0.0620727539 0.467529297
vt -0.0494384766 0.475097656
vt 0.353515625 0.458007812
vt 0.354003906 0.464111328
vt -0.0492553711 0.468994141
vt 0.336914062 0.185180664
vt 0.345947266 0.186035156
vt 0.337158203 0.190551758
vt 0.344726562 0.191162109
vt 0.354492188 0.188964844
vt 0.352050781 0.193725586
vt 0.362060547 0.193969727
vt 0.358398438 0.197998047
vt 0.367919922 0.200683594
vt 0.363525391 0.203613281
vt 0.3671875 0.210083008
vt 0.350830078 0.196166992
vt 0.356689453 0.199951172
vt 0.361328125 0.205078125
vt 0.344238281 0.193847656
vt 0.364746094 0.21105957
vt 0.368896484 0.216674805
vt 0.366455078 0.217163086
vt 0.373291016 0.215942383
vt 0.349609375 0.208618164
vt 0.352539062 0.211669922
vt 0.354980469 0.215576172
vt 0.345947266 0.206176758
vt 0.356445312 0.220214844
vt 0.370605469 0.283203125
vt 0.372802734 0.283203125
vt 0.376953125 0.283203125
vt 0.374755859 0.345947266
vt 0.370361328 0.345458984
vt 0.359619141 0.282958984
vt 0.367919922 0.344970703
vt 0.357910156 0.342285156
vt 0.352294922 0.220703125
vt 0.35546875 0.282958984
vt 0.354003906 0.342041016
vt 0.3515625 0.217041016
vt 0.338867188 0.283203125
vt 0.337890625 0.221435547
vt 0.349853516 0.213745117
vt 0.347412109 0.211181641
vt 0.344482422 0.209228516
vt 0.322509766 0.283203125
vt 0.341064453 0.208007812
vt 0.323730469 0.221191406
vt 0.342041016 0.204589844
vt 0.337158203 0.193237305
vt 0.337646484 0.204223633
vt 0.329589844 0.191772461
vt 0.339599609 0.341552734
vt 0.337646484 0.207641602
vt 0.330322266 0.194335938
vt 0.319824219 0.190307617
vt 0.333251953 0.204833984
vt 0.322509766 0.194824219
vt 0.353271484 0.345703125
vt 0.356689453 0.346923828
vt 0.312988281 0.195800781
vt 0.323974609 0.197143555
vt 0.334228516 0.208129883
vt 0.316650391 0.199462891
vt 0.329345703 0.206420898
vt 0.3515625 0.348876953
vt 0.307861328 0.202636719
vt 0.318359375 0.201293945
vt 0.331054688 0.209472656
vt 0.312011719 0.205200195
vt 0.325927734 0.209106445
vt 0.304443359 0.209960938
vt 0.314208984 0.206542969
vt 0.328369141 0.211547852
vt 0.309082031 0.211547852
vt 0.302978516 0.217407227
vt 0.322998047 0.212402344
vt 0.325927734 0.214355469
vt 0.301025391 0.284179688
vt 0.311279297 0.212402344
vt 0.307373047 0.218017578
vt 0.324462891 0.217529297
vt 0.321044922 0.216308594
vt 0.305419922 0.283935547
vt 0.309814453 0.218383789
vt 0.319824219 0.220947266
vt 0.307617188 0.283935547
vt 0.318359375 0.283447266
vt 0.309326172 0.345703125
vt 0.311523438 0.345214844
vt 0.321289062 0.342529297
vt 0.306396484 0.353759766
vt 0.310791016 0.352050781
vt 0.325195312 0.342041016
vt 0.313232422 0.351074219
vt 0.310058594 0.360839844
vt 0.326171875 0.345703125
vt 0.327880859 0.348876953
vt 0.330078125 0.3515625
vt 0.322753906 0.346923828
vt 0.314208984 0.358398438
vt 0.324951172 0.350830078
vt 0.316162109 0.356933594
vt 0.315185547 0.367675781
vt 0.327880859 0.354003906
vt 0.318847656 0.364013672
vt 0.320556641 0.362060547
vt 0.322265625 0.373046875
vt 0.324707031 0.368408203
vt 0.330566406 0.376464844
vt 0.326171875 0.366210938
vt 0.331787109 0.371337891
vt 0.331298828 0.356445312
vt 0.332519531 0.368652344
vt 0.339599609 0.372314453
vt 0.333007812 0.353515625
vt 0.335205078 0.358154297
vt 0.348388672 0.376464844
vt 0.339599609 0.369628906
vt 0.336181641 0.354736328
vt 0.347167969 0.371337891
vt 0.339599609 0.358642578
vt 0.356689453 0.373291016
vt 0.346435547 0.368652344
vt 0.339599609 0.355224609
vt 0.354248047 0.368652344
vt 0.343994141 0.358154297
vt 0.364013672 0.368164062
vt 0.353027344 0.366210938
vt 0.343017578 0.354736328
vt 0.360595703 0.364257812
vt 0.369628906 0.361328125
vt 0.347900391 0.356445312
vt 0.346191406 0.353515625
vt 0.373291016 0.353759766
vt 0.358642578 0.362304688
vt 0.365478516 0.358642578
vt 0.368652344 0.352050781
vt 0.349121094 0.3515625
vt 0.3515625 0.354248047
vt 0.36328125 0.357177734
vt 0.366455078 0.351074219
vt 0.354492188 0.350830078
vt 0.412597656 0.436767578
vt 0.407714844 0.437988281
vt 0.412597656 0.449707031
vt 0.416992188 0.447021484
vt 0.420166016 0.459716797
vt 0.411132812 0.425048828
vt 0.406005859 0.425537109
vt 0.423828125 0.456054688
vt 0.430419922 0.467529297
vt 0.408691406 0.291992188
vt 0.403808594 0.291992188
vt 0.413085938 0.156616211
vt 0.407958984 0.15612793
vt 0.889160156 0.291259766
vt 0.884765625 0.425292969
vt 0.433105469 0.463134766
vt 0.442382812 0.47265625
vt 0.414794922 0.144897461
vt 0.409912109 0.143554688
vt 0.419189453 0.134521484
vt 0.414794922 0.131835938
vt 0.885253906 0.145141602
vt 0.426269531 0.125488281
vt 0.422607422 0.121765137
vt 0.88671875 0.156616211
vt 0.443847656 0.467529297
vt 0.456054688 0.475097656
vt 0.880859375 0.134643555
vt 0.435546875 0.118591309
vt 0.433105469 0.113952637
vt 0.456542969 0.469238281
vt 0.838867188 0.475097656
vt 0.838378906 0.469238281
vt 0.852539062 0.472900391
vt 0.851074219 0.467529297
vt 0.864746094 0.467773438
vt 0.862304688 0.463134766
vt 0.875 0.459960938
vt 0.871582031 0.456298828
vt 0.883300781 0.449951172
vt 0.87890625 0.447265625
vt 0.888183594 0.438232422
vt 0.883300781 0.436767578
vt 0.889648438 0.42578125
vt 0.894042969 0.291259766
vt 0.891601562 0.15625
vt 0.890136719 0.143798828
vt 0.885253906 0.132080078
vt 0.877929688 0.121948242
vt 0.874023438 0.125610352
vt 0.867675781 0.114135742
vt 0.864746094 0.118713379
vt 0.85546875 0.109008789
vt 0.854003906 0.114257812
vt 0.841796875 0.106567383
vt 0.446533203 0.114196777
vt 0.4453125 0.108825684
vt 0.841308594 0.112609863
vt 0.458984375 0.106567383
vt 0.459472656 0.112609863
vt 0.420166016 0.831054688
vt 0.425537109 0.832519531
vt 0.442138672 0.687988281
vt 0.437011719 0.687988281
vt 0.430908203 0.540527344
vt 0.414550781 0.844726562
vt 0.420410156 0.847167969
vt 0.425537109 0.541503906
vt 0.427001953 0.525878906
vt 0.406738281 0.857421875
vt 0.411865234 0.861328125
vt 0.421142578 0.527832031
vt 0.419921875 0.511230469
vt 0.396484375 0.868652344
vt 0.400634766 0.873535156
vt 0.414550781 0.514648438
vt 0.409912109 0.498291016
vt 0.384277344 0.877441406
vt 0.387451172 0.8828125
vt 0.405517578 0.502929688
vt 0.397216797 0.487548828
vt 0.370361328 0.883789062
vt 0.372558594 0.890136719
vt 0.393798828 0.492919922
vt 0.382324219 0.479980469
vt 0.355224609 0.887207031
vt 0.356201172 0.894042969
vt 0.379882812 0.486083984
vt 0.365722656 0.475585938
vt -0.0385437012 0.883300781
vt -0.0395507812 0.889648438
vt 0.364746094 0.482177734
vt -0.0360717773 0.475585938
vt -0.0530395508 0.879394531
vt -0.0552978516 0.885253906
vt -0.0350646973 0.482177734
vt -0.0531005859 0.479980469
vt -0.0661010742 0.872558594
vt -0.069519043 0.877929688
vt -0.0506591797 0.486328125
vt -0.0686645508 0.487792969
vt -0.0772705078 0.86328125
vt -0.0816040039 0.867675781
vt -0.0651245117 0.493408203
vt -0.0824584961 0.498291016
vt -0.0858764648 0.852050781
vt -0.0909423828 0.854980469
vt -0.0778198242 0.503417969
vt -0.0938110352 0.51171875
vt -0.0919189453 0.839355469
vt -0.0974121094 0.841308594
vt -0.0881347656 0.515625
vt -0.101867676 0.527832031
vt -0.0957641602 0.826171875
vt -0.100891113 0.827148438
vt -0.0955200195 0.530273438
vt -0.105773926 0.544433594
vt -0.100463867 0.690429688
vt -0.105529785 0.690429688
vt -0.100036621 0.545410156
vt -0.0718994141 0.843261719
vt -0.0764160156 0.833496094
vt -0.0790405273 0.822265625
vt -0.0826416016 0.689941406
vt -0.0811157227 0.550292969
vt -0.0779418945 0.537109375
vt -0.0653076172 0.852050781
vt -0.0726318359 0.526367188
vt -0.0568237305 0.858398438
vt -0.0648803711 0.516601562
vt -0.0466003418 0.862792969
vt -0.0551147461 0.509277344
vt -0.034362793 0.865722656
vt -0.0437011719 0.50390625
vt 0.351318359 0.870117188
vt -0.0305023193 0.499755859
vt 0.364257812 0.8671875
vt 0.360351562 0.5
vt 0.375244141 0.862304688
vt 0.373291016 0.502929688
vt 0.384765625 0.85546875
vt 0.384033203 0.5078125
vt 0.392578125 0.846679688
vt 0.393066406 0.514648438
vt 0.3984375 0.836425781
vt 0.399902344 0.523925781
vt 0.40234375 0.824707031
vt 0.404785156 0.534179688
vt 0.418701172 0.6875
vt 0.407714844 0.546386719
vt 0.388916016 0.84375
vt 0.39453125 0.834472656
vt 0.381591797 0.852050781
vt 0.397460938 0.823730469
vt 0.413574219 0.6875
vt 0.373046875 0.858398438
vt 0.402587891 0.546875
vt 0.400390625 0.535644531
vt 0.362792969 0.862304688
vt 0.396240234 0.525878906
vt 0.350830078 0.864257812
vt 0.389892578 0.518066406
vt -0.0338439941 0.860351562
vt 0.381835938 0.51171875
vt -0.0452575684 0.858398438
vt 0.371826172 0.5078125
vt -0.0546875 0.854980469
vt 0.359863281 0.505859375
vt -0.0624389648 0.849121094
vt -0.0297393799 0.505859375
vt -0.068359375 0.841308594
vt -0.0419311523 0.508300781
vt -0.0723266602 0.832519531
vt -0.0525512695 0.513183594
vt -0.0743408203 0.821777344
vt -0.0615844727 0.520019531
vt -0.0776367188 0.689941406
vt -0.0686645508 0.528808594
vt -0.0759277344 0.551269531
vt -0.0733642578 0.538574219
vn -0.000987052917 0.0270843506 0.999511719
vn 0.215332031 0.788574219 0.575683594
vn 0.416992188 0.7109375 0.566894531
vn 0.00457382202 0.0179138184 1
vn 0.589355469 0.582519531 0.560058594
vn -0.00211906433 0.0344238281 0.999511719
vn 0.00235366821 0.811035156 0.585449219
vn -0.012298584 0.0351867676 0.999511719
vn 0.0171966553 -0.0422973633 0.999023438
vn -0.0106887817 -0.0251312256 0.999511719
vn -0 0.8125 0.582519531
vn 0.00635528564 0.0076713562 1
vn 0.721679688 0.413330078 0.555664062
vn 0.0207672119 -0.0333251953 0.999023438
vn 0.00540542603 -0.000473499298 1
vn 0.803222656 0.215209961 0.555664062
vn -0.00592041016 0.0354003906 0.999511719
vn 7.21812248E-05 0.810546875 0.5859375
vn -0.0139160156 0.0286102295 0.999511719
vn -0.212158203 0.785644531 0.581054688
vn 0.0186920166 -0.0230102539 0.999511719
vn 0.00401687622 -0.00533676147 1
vn 0.825683594 0.0148696899 0.563964844
vn 0.0156402588 -0.003282547 1
vn 0.825195312 -0.00817108154 0.564941406
vn 0.00770568848 -0.010345459 1
vn 0.0171813965 -0.00419616699 1
vn 0.799804688 -0.214233398 0.560546875
vn 0.716796875 -0.407714844 0.565429688
vn 0.0132217407 -0.0149841309 1
vn 0.582519531 -0.576660156 0.573242188
vn 0.409179688 -0.704101562 0.580566406
vn 0.209716797 -0.782226562 0.586425781
vn 0.00314331055 -0.807617188 0.58984375
vn 0.00675582886 -0.0491638184 0.998535156
vn -0.000736236572 -0.809082031 0.587402344
vn -1.06692314E-05 -0.0478820801 0.999023438
vn -0.0043182373 -0.807617188 0.589355469
vn 0.0012216568 -0.0479125977 0.999023438
vn -0.212280273 -0.78515625 0.581542969
vn 0.00370407104 0.0246124268 0.999511719
vn -0.00416946411 -0.00392532349 1
vn -0.00207519531 -0.0397949219 0.999023438
vn -0.413574219 -0.707519531 0.572753906
vn 0.00115299225 0.00554275513 1
vn -0.00946044922 -0.0280609131 0.999511719
vn -0.586914062 -0.579589844 0.564941406
vn -0.0147094727 0.0217132568 0.999511719
vn -0.413085938 0.706542969 0.57421875
vn -0.0115127563 -0.014541626 1
vn -0.720214844 -0.410400391 0.559082031
vn -0.0111846924 0.0145111084 1
vn -0.586425781 0.578613281 0.566894531
vn -0.00917816162 -0.0034236908 1
vn -0.803222656 -0.211914062 0.556640625
vn -0.00616836548 0.00984954834 1
vn -0.719726562 0.409667969 0.560058594
vn -0.00273132324 0.00782775879 1
vn -0.802734375 0.211547852 0.557128906
vn -0.00528335571 0.00344276428 1
vn -0.825683594 -0.0101547241 0.564453125
vn -0.0141601562 0.00337409973 1
vn -0.826660156 0.0126419067 0.5625
vn -0.0143661499 0.00267410278 1
vn 9.93609428E-05 -0.0048789978 1
vn -7.2479248E-05 -0.00382232666 1
vn -0.618652344 0.00120830536 0.785644531
vn -0.598144531 -0.155517578 0.786132812
vn -0.00445175171 -0.00450134277 1
vn -0.536621094 -0.302490234 0.787597656
vn -0.0100250244 -0.00923919678 1
vn -0.438964844 -0.428466797 0.790039062
vn -0.0128860474 -0.0171661377 1
vn -0.310791016 -0.525390625 0.791992188
vn -0.162597656 -0.587402344 0.792480469
vn -0.828613281 -0.477294922 0.29296875
vn -0.678222656 -0.678222656 0.283203125
vn -0.489746094 -0.829101562 0.270507812
vn -0.924316406 -0.237304688 0.298828125
vn -0.257324219 -0.932128906 0.254150391
vn -0.00562667847 -0.621582031 0.783203125
vn -0.000315189362 -0.971191406 0.237915039
vn -0.00391387939 -0.0297393799 0.999511719
vn -0.658691406 -0.655273438 0.369140625
vn -0.497070312 -0.779785156 0.380615234
vn -0.266845703 -0.8828125 0.38671875
vn -0.808105469 -0.463867188 0.363037109
vn 0.000284671783 -0.911132812 0.412109375
vn -0 -0.971679688 0.235961914
vn 0.000733375549 -0.620605469 0.784179688
vn -0 -0.0295715332 0.999511719
vn 0.0103988647 -0.030456543 0.999511719
vn 0.0050201416 -0.622070312 0.782714844
vn -0 -0.912109375 0.409667969
vn 0.000545024872 -0.972167969 0.23425293
vn -0.00521850586 -0.911132812 0.412597656
vn -0.00040435791 -0.145507812 0.989257812
vn -0 -0.143432617 0.989746094
vn 0.00925445557 -0.146484375 0.989257812
vn -0.0512695312 -0.208374023 0.9765625
vn -0 0 1
vn 1.34110451E-05 0 1
vn -0.102905273 -0.186767578 0.977050781
vn -0.147583008 -0.152099609 0.977050781
vn -0.181762695 -0.106689453 0.977539062
vn -0.00787353516 0.130981445 0.991210938
vn -0.202392578 -0.0539855957 0.978027344
vn -0.000248908997 0.133789062 0.991210938
vn -0.905761719 -0.225463867 0.358642578
vn -0.954101562 0.00872039795 0.298828125
vn -0.935058594 -0.00537490845 0.354003906
vn -0.597167969 0.158325195 0.786621094
vn -1.24573708E-05 0 1
vn -0.208129883 0.00189971924 0.978027344
vn -0.922851562 0.249511719 0.293945312
vn -0.00984954834 0.00163650513 1
vn -0.905273438 0.239501953 0.351074219
vn -0.534667969 0.3046875 0.788085938
vn 0.0511474609 -0.209472656 0.9765625
vn 0.243652344 -0.887695312 0.390136719
vn -0.0125808716 0.0110931396 1
vn -0.829589844 0.480712891 0.284667969
vn -0.198852539 0.056640625 0.978515625
vn -0.435302734 0.429931641 0.791015625
vn -0.813964844 0.463623047 0.349609375
vn 0.0960083008 -0.193603516 0.9765625
vn 0.00106620789 0.02734375 0.999511719
vn -0.678710938 0.682128906 0.271484375
vn -0.176269531 0.105712891 0.978515625
vn -0.304931641 0.525390625 0.794433594
vn -0.690917969 0.630859375 0.353515625
vn -0.00492095947 0.0248413086 0.999511719
vn -0.483154297 0.837402344 0.255859375
vn -0.142944336 0.146484375 0.979003906
vn -0.157714844 0.584472656 0.795898438
vn -0.00331687927 0.025604248 0.999511719
vn -0.471191406 0.80859375 0.352050781
vn -0.101379395 0.177490234 0.979003906
vn -0 0.0246887207 0.999511719
vn -0.251464844 0.9375 0.240234375
vn -0.00178337097 0.6171875 0.787109375
vn -0.0497741699 0.198486328 0.979003906
vn -0.253417969 0.899902344 0.354492188
vn -0.000627040863 0.614257812 0.7890625
vn -0.000407934189 0.975097656 0.221923828
vn 0.00980377197 0.925292969 0.379394531
vn -0 0.974609375 0.223510742
vn 0.0102767944 0.92578125 0.378417969
vn 0.00266456604 0.616210938 0.787597656
vn 0.000341653824 0.974609375 0.222900391
vn 0.00112247467 0.925292969 0.379638672
vn 0.00944519043 0.0200653076 0.999511719
vn 0.159057617 0.584960938 0.795410156
vn -0.000661373138 0.132446289 0.991210938
vn 0.251464844 0.937011719 0.243041992
vn 0.0102310181 0.0126647949 1
vn 0.0386657715 0.202636719 0.978515625
vn 0.0861206055 0.189208984 0.978027344
vn 0.133056641 0.160400391 0.978027344
vn 0.250244141 0.901855469 0.352050781
vn 0.306884766 0.526367188 0.79296875
vn 0.474365234 0.807617188 0.349853516
vn 0.482666016 0.8359375 0.260742188
vn 0.00649642944 0.00613021851 1
vn 0.688964844 0.633300781 0.352783203
vn 0.435546875 0.431884766 0.789550781
vn 0.67578125 0.683105469 0.276367188
vn 0.00130748749 0.00332641602 1
vn 0.533691406 0.308349609 0.787597656
vn -0.001288414 0.00415420532 1
vn 0.825683594 0.484619141 0.2890625
vn 0.596679688 0.161743164 0.786132812
vn 0.822753906 0.445800781 0.352539062
vn 0.922363281 0.246704102 0.297119141
vn 0.618164062 0.00472640991 0.786132812
vn 0.173095703 0.115661621 0.978027344
vn 0.904785156 0.236572266 0.354248047
vn 0.00769042969 0.00345420837 1
vn 0.953613281 -0.000582695007 0.300292969
vn 0.200073242 0.0579833984 0.978027344
vn 0.59765625 -0.152832031 0.787109375
vn 0.93359375 -0.0034122467 0.358154297
vn 0.0143585205 -0.00400161743 1
vn 0.924316406 -0.236328125 0.299316406
vn 0.209716797 -0.00636672974 0.977539062
vn 0.536621094 -0.300048828 0.788574219
vn 0.907226562 -0.207275391 0.365966797
vn 0.0167694092 -0.0151290894 0.999511719
vn 0.833496094 -0.468505859 0.29296875
vn 0.201171875 -0.0690917969 0.977050781
vn 0.438232422 -0.427490234 0.790527344
vn 0.0128250122 -0.0255737305 0.999511719
vn 0.823730469 -0.426269531 0.373779297
vn 0.176025391 -0.123596191 0.9765625
vn 0.00420379639 -0.0306854248 0.999511719
vn 0.6796875 -0.677246094 0.281494141
vn 0.309570312 -0.525878906 0.792480469
vn 0.160766602 -0.588378906 0.792480469
vn 0.139038086 -0.165649414 0.9765625
vn 0.658203125 -0.651367188 0.377441406
vn 0.484619141 -0.832519531 0.268066406
vn 0.253417969 -0.93359375 0.252685547
vn 0.466552734 -0.796386719 0.385009766
vn 3.80277634E-05 -0.0323791504 -0.999511719
vn 0.211181641 -0.786132812 -0.581054688
vn 0.412353516 -0.70703125 -0.57421875
vn 0.0061340332 -0.0267333984 -0.999511719
vn 0.586425781 -0.578613281 -0.566894531
vn 0.00836181641 -0.0350341797 -0.999511719
vn 0.000353336334 -0.811035156 -0.584960938
vn 0.00916290283 -0.0165100098 -1
vn 0.719726562 -0.409667969 -0.560058594
vn 1.13248825E-05 -0.0346069336 -0.999511719
vn -0 -0.8125 -0.582519531
vn -0.00437164307 -0.0336914062 -0.999511719
vn -0.00223350525 -0.811035156 -0.585449219
vn -0.0126037598 0.0479736328 -0.998535156
vn 0.00505447388 0.0472412109 -0.999023438
vn 0.00826263428 -0.00602722168 -1
vn 0.803222656 -0.209960938 -0.557617188
vn -0.00823974609 -0.0244445801 -0.999511719
vn -0.215209961 -0.788574219 -0.575683594
vn -0.00663757324 -0.0166168213 -1
vn -0.416503906 -0.7109375 -0.56640625
vn -0.0171966553 0.0422363281 -0.999023438
vn -0.00308036804 -0.0109405518 -1
vn -0.589355469 -0.582519531 -0.560058594
vn 8.39233398E-05 0.0493164062 -0.999023438
vn 0.00514221191 0.00162410736 -1
vn 0.825683594 -0.0101165771 -0.564453125
vn -0.0207366943 0.0332946777 -0.999023438
vn -0.000386476517 -0.00814056396 -1
vn -0.721679688 -0.412597656 -0.555664062
vn 0.0137710571 0.00231361389 -1
vn 0.825683594 0.0101547241 -0.564453125
vn 0.0131835938 0.00336837769 -1
vn 0.802246094 0.216430664 -0.556640625
vn 0.00203704834 0.00872039795 -1
vn 0.717773438 0.415039062 -0.559082031
vn 0.00438308716 0.0118484497 -1
vn 0.583984375 0.583007812 -0.564941406
vn 0.00846099854 0.0176239014 -1
vn 0.411376953 0.709472656 -0.572265625
vn 0.0116500854 0.0266876221 -0.999511719
vn 0.211425781 0.785644531 -0.581542969
vn 0.0111312866 0.0372009277 -0.999023438
vn 0.00402450562 0.806640625 -0.590820312
vn -0 0.809082031 -0.587402344
vn -0.00303268433 0.807617188 -0.58984375
vn -0.209594727 0.782226562 -0.586425781
vn -0.407714844 0.705078125 -0.580566406
vn -0.580566406 0.579101562 -0.572753906
vn 0.0130844116 0.0621948242 -0.998046875
vn -0.71484375 0.411621094 -0.564941406
vn 0.0071105957 0.0616455078 -0.998046875
vn -0.800292969 0.213500977 -0.560546875
vn -0.0100021362 0.00116634369 -1
vn -0.827148438 0.0122299194 -0.562011719
vn -0.000692844391 -0.00688171387 -1
vn -0.803710938 -0.212890625 -0.555664062
vn -0.0164642334 -0.00144958496 -1
vn -0.82421875 -0.0116424561 -0.56640625
vn -0.0141448975 -0.00271224976 -1
vn 0.000201940536 0.999023438 0.0440979004
vn 0.00235366821 0.811035156 0.585449219
vn -0 0.8125 0.582519531
vn -0 0.999023438 0.0429382324
vn 7.21812248E-05 0.810546875 0.5859375
vn 0.260742188 0.964355469 0.0455932617
vn 0.215332031 0.788574219 0.575683594
vn 0.000393390656 0.999023438 0.0432128906
vn -0.212158203 0.785644531 0.581054688
vn 0.504394531 0.861816406 0.0494995117
vn 0.416992188 0.7109375 0.566894531
vn -0.260986328 0.964355469 0.0431518555
vn -0.413085938 0.706542969 0.57421875
vn 0.709472656 0.702636719 0.0535583496
vn 0.589355469 0.582519531 0.560058594
vn -0.504394531 0.862304688 0.0454711914
vn -0.586425781 0.578613281 0.566894531
vn 0.863769531 0.500976562 0.0567016602
vn 0.721679688 0.413330078 0.555664062
vn -0.707519531 0.705078125 0.0491638184
vn -0.719726562 0.409667969 0.560058594
vn 0.963378906 0.262451172 0.058807373
vn 0.803222656 0.215209961 0.555664062
vn -0.864746094 0.499267578 0.0532531738
vn -0.802734375 0.211547852 0.557128906
vn 0.998046875 0.0148468018 0.0634155273
vn 0.825683594 0.0148696899 0.563964844
vn -0.965332031 0.254638672 0.0567932129
vn -0.826660156 0.0126419067 0.5625
vn 0.998535156 -0.0138244629 0.0560302734
vn 0.825195312 -0.00817108154 0.564941406
vn -0.998046875 0.013420105 0.0623474121
vn -0.825683594 -0.0101547241 0.564453125
vn 0.966308594 -0.250488281 0.0585632324
vn 0.799804688 -0.214233398 0.560546875
vn -0.998046875 -0.00930786133 0.0598754883
vn -0.803222656 -0.211914062 0.556640625
vn 0.869140625 -0.490966797 0.0566101074
vn 0.716796875 -0.407714844 0.565429688
vn -0.965820312 -0.252197266 0.059387207
vn -0.720214844 -0.410400391 0.559082031
vn 0.709472656 -0.702636719 0.0539550781
vn 0.582519531 -0.576660156 0.573242188
vn -0.865722656 -0.496826172 0.0581359863
vn -0.586914062 -0.579589844 0.564941406
vn 0.501953125 -0.86328125 0.0521240234
vn 0.409179688 -0.704101562 0.580566406
vn -0.709472656 -0.702636719 0.0563049316
vn -0.413574219 -0.707519531 0.572753906
vn 0.260986328 -0.963867188 0.0514221191
vn 0.209716797 -0.782226562 0.586425781
vn -0.507324219 -0.859863281 0.054473877
vn -0.212280273 -0.78515625 0.581542969
vn -0.000366449356 -0.998535156 0.0502624512
vn 0.00314331055 -0.807617188 0.58984375
vn -0.265625 -0.962890625 0.0525817871
vn -0.0043182373 -0.807617188 0.589355469
vn -0 -0.999023438 0.0492553711
vn -0.000736236572 -0.809082031 0.587402344
vn -0.00271987915 -0.998535156 0.0516662598
vn 0.504394531 -0.862304688 -0.0454711914
vn 0.260986328 -0.964355469 -0.0431518555
vn -0.000700473785 -0.999023438 -0.043548584
vn -0 -0.999023438 -0.0429382324
vn -0.00158882141 -0.999023438 -0.0430908203
vn -0.264892578 -0.963378906 -0.0458068848
vn 0.7109375 -0.701660156 -0.0493774414
vn -0.505859375 -0.861328125 -0.049621582
vn 0.8671875 -0.494628906 -0.0534057617
vn -0.709472656 -0.702636719 -0.0535583496
vn 0.96484375 -0.256835938 -0.0567016602
vn -0.866210938 -0.496582031 -0.0567321777
vn 0.998046875 -0.013420105 -0.0623474121
vn -0.963378906 -0.261230469 -0.0587768555
vn 0.998535156 0.0151138306 -0.056060791
vn -0.998046875 -0.0205383301 -0.0599060059
vn 0.965820312 0.251464844 -0.0594482422
vn -0.998535156 0.0138244629 -0.0560302734
vn 0.870117188 0.489501953 -0.0588378906
vn -0.96484375 0.255615234 -0.0581970215
vn 0.709472656 0.702636719 -0.0563049316
vn -0.871582031 0.487304688 -0.0571899414
vn 0.504394531 0.861816406 -0.0541687012
vn -0.715820312 0.696289062 -0.0549926758
vn 0.269042969 0.961914062 -0.0529785156
vn -0.501953125 0.86328125 -0.0521240234
vn 0.00574111938 0.998535156 -0.0497131348
vn -0.260986328 0.963867188 -0.0514221191
vn -0 0.999023438 -0.0492553711
vn 0.000785827637 0.998535156 -0.0504760742
vn 0.411376953 0.709472656 -0.572265625
vn 0.211425781 0.785644531 -0.581542969
vn 0.583984375 0.583007812 -0.564941406
vn 0.00402450562 0.806640625 -0.590820312
vn -0 0.809082031 -0.587402344
vn 0.717773438 0.415039062 -0.559082031
vn -0.00303268433 0.807617188 -0.58984375
vn -0.209594727 0.782226562 -0.586425781
vn 0.802246094 0.216430664 -0.556640625
vn -0.407714844 0.705078125 -0.580566406
vn 0.825683594 0.0101547241 -0.564453125
vn -0.580566406 0.579101562 -0.572753906
vn 0.825683594 -0.0101165771 -0.564453125
vn -0.71484375 0.411621094 -0.564941406
vn 0.803222656 -0.209960938 -0.557617188
vn -0.800292969 0.213500977 -0.560546875
vn 0.719726562 -0.409667969 -0.560058594
vn -0.827148438 0.0122299194 -0.562011719
vn 0.586425781 -0.578613281 -0.566894531
vn -0.82421875 -0.0116424561 -0.56640625
vn 0.412353516 -0.70703125 -0.57421875
vn -0.803710938 -0.212890625 -0.555664062
vn 0.211181641 -0.786132812 -0.581054688
vn -0.721679688 -0.412597656 -0.555664062
vn 0.000353336334 -0.811035156 -0.584960938
vn -0.589355469 -0.582519531 -0.560058594
vn -0 -0.8125 -0.582519531
vn -0.416503906 -0.7109375 -0.56640625
vn -0.00223350525 -0.811035156 -0.585449219
vn -0.215209961 -0.788574219 -0.575683594
g CuttingBoard_Table_0
f 3/3/3 2/2/2 1/1/1
f 4/4/4 3/3/3 1/1/1
f 5/5/5 3/3/3 4/4/4
f 1/1/1 2/2/2 6/6/6
f 2/2/2 7/7/7 6/6/6
f 8/8/8 6/6/6 7/7/7
f 1/1/1 6/6/6 9/9/9
f 4/4/4 1/1/1 9/9/9
f 6/6/6 8/8/8 10/10/10
f 11/11/11 8/8/8 7/7/7
f 12/12/12 5/5/5 4/4/4
f 13/13/13 5/5/5 12/12/12
f 4/4/4 9/9/9 14/14/14
f 12/12/12 4/4/4 14/14/14
f 15/15/15 13/13/13 12/12/12
f 16/16/16 13/13/13 15/15/15
f 17/17/17 8/8/8 11/11/11
f 18/18/18 17/17/17 11/11/11
f 17/17/17 18/18/18 19/19/19
f 18/18/18 20/20/20 19/19/19
f 12/12/12 14/14/14 21/21/21
f 15/15/15 12/12/12 21/21/21
f 22/22/22 16/16/16 15/15/15
f 23/23/23 16/16/16 22/22/22
f 24/24/24 23/23/23 22/22/22
f 25/25/25 23/23/23 24/24/24
f 22/22/22 15/15/15 26/26/26
f 24/24/24 22/22/22 26/26/26
f 27/27/27 25/25/25 24/24/24
f 26/26/26 27/27/27 24/24/24
f 28/28/28 25/25/25 27/27/27
f 26/26/26 28/28/28 27/27/27
f 29/29/29 28/28/28 26/26/26
f 15/15/15 30/30/30 26/26/26
f 30/30/30 29/29/29 26/26/26
f 15/15/15 21/21/21 30/30/30
f 31/31/31 29/29/29 30/30/30
f 21/21/21 31/31/31 30/30/30
f 32/32/32 31/31/31 21/21/21
f 14/14/14 32/32/32 21/21/21
f 33/33/33 32/32/32 14/14/14
f 9/9/9 33/33/33 14/14/14
f 34/34/34 33/33/33 9/9/9
f 35/35/35 34/34/34 9/9/9
f 36/36/36 34/34/34 35/35/35
f 6/6/6 35/35/35 9/9/9
f 37/37/37 36/36/36 35/35/35
f 38/38/38 36/36/36 37/37/37
f 39/39/39 38/38/38 37/37/37
f 40/40/40 38/38/38 39/39/39
f 41/41/41 39/39/39 37/37/37
f 42/42/42 37/37/37 35/35/35
f 43/43/43 40/40/40 39/39/39
f 17/17/17 43/43/43 39/39/39
f 44/44/44 40/40/40 43/43/43
f 17/17/17 19/19/19 43/43/43
f 17/17/17 39/39/39 45/45/45
f 46/46/46 44/44/44 43/43/43
f 19/19/19 46/46/46 43/43/43
f 47/47/47 44/44/44 46/46/46
f 19/19/19 48/48/48 46/46/46
f 19/19/19 20/20/20 48/48/48
f 20/20/20 49/49/49 48/48/48
f 50/50/50 47/47/47 46/46/46
f 48/48/48 50/50/50 46/46/46
f 51/51/51 47/47/47 50/50/50
f 48/48/48 49/49/49 52/52/52
f 48/48/48 52/52/52 50/50/50
f 49/49/49 53/53/53 52/52/52
f 54/54/54 51/51/51 50/50/50
f 52/52/52 54/54/54 50/50/50
f 55/55/55 51/51/51 54/54/54
f 52/52/52 53/53/53 56/56/56
f 52/52/52 56/56/56 54/54/54
f 53/53/53 57/57/57 56/56/56
f 56/56/56 57/57/57 58/58/58
f 56/56/56 58/58/58 54/54/54
f 57/57/57 59/59/59 58/58/58
f 60/60/60 55/55/55 54/54/54
f 58/58/58 60/60/60 54/54/54
f 61/61/61 55/55/55 60/60/60
f 58/58/58 59/59/59 62/62/62
f 58/58/58 62/62/62 60/60/60
f 59/59/59 63/63/63 62/62/62
f 63/63/63 61/61/61 64/64/64
f 64/64/64 61/61/61 60/60/60
f 62/62/62 64/64/64 60/60/60
f 62/62/62 63/63/63 64/64/64
f 6/6/6 65/65/65 35/35/35
f 35/35/35 65/65/65 42/42/42
f 6/6/6 66/66/66 65/65/65
f 65/65/65 67/67/67 42/42/42
f 66/66/66 68/68/68 65/65/65
f 68/68/68 67/67/67 65/65/65
f 6/6/6 69/69/69 66/66/66
f 70/70/70 68/68/68 66/66/66
f 69/69/69 70/70/70 66/66/66
f 6/6/6 71/71/71 69/69/69
f 72/72/72 70/70/70 69/69/69
f 71/71/71 72/72/72 69/69/69
f 6/6/6 73/73/73 71/71/71
f 6/6/6 10/10/10 73/73/73
f 73/73/73 74/74/74 71/71/71
f 74/74/74 72/72/72 71/71/71
f 10/10/10 75/75/75 73/73/73
f 75/75/75 74/74/74 73/73/73
f 70/70/70 76/76/76 68/68/68
f 72/72/72 77/77/77 70/70/70
f 77/77/77 76/76/76 70/70/70
f 74/74/74 78/78/78 72/72/72
f 78/78/78 77/77/77 72/72/72
f 68/68/68 79/79/79 67/67/67
f 76/76/76 79/79/79 68/68/68
f 75/75/75 80/80/80 74/74/74
f 80/80/80 78/78/78 74/74/74
f 81/81/81 75/75/75 10/10/10
f 82/82/82 80/80/80 75/75/75
f 81/81/81 82/82/82 75/75/75
f 83/83/83 81/81/81 10/10/10
f 8/8/8 83/83/83 10/10/10
f 76/76/76 77/77/77 84/84/84
f 77/77/77 78/78/78 85/85/85
f 84/84/84 77/77/77 85/85/85
f 78/78/78 80/80/80 86/86/86
f 85/85/85 78/78/78 86/86/86
f 79/79/79 76/76/76 87/87/87
f 87/87/87 76/76/76 84/84/84
f 80/80/80 82/82/82 88/88/88
f 86/86/86 80/80/80 88/88/88
f 89/89/89 82/82/82 81/81/81
f 90/90/90 81/81/81 83/83/83
f 90/90/90 89/89/89 81/81/81
f 8/8/8 91/91/91 83/83/83
f 91/91/91 90/90/90 83/83/83
f 92/92/92 91/91/91 8/8/8
f 8/8/8 17/17/17 92/92/92
f 93/93/93 90/90/90 91/91/91
f 92/92/92 93/93/93 91/91/91
f 88/88/88 82/82/82 94/94/94
f 82/82/82 89/89/89 94/94/94
f 95/95/95 89/89/89 90/90/90
f 93/93/93 95/95/95 90/90/90
f 94/94/94 89/89/89 96/96/96
f 89/89/89 95/95/95 96/96/96
f 86/86/86 88/88/88 97/97/97
f 88/88/88 94/94/94 98/98/98
f 97/97/97 88/88/88 98/98/98
f 99/99/99 98/98/98 94/94/94
f 96/96/96 99/99/99 94/94/94
f 100/100/100 86/86/86 97/97/97
f 85/85/85 86/86/86 100/100/100
f 98/98/98 101/101/101 97/97/97
f 101/101/101 98/98/98 99/99/99
f 102/102/102 100/100/100 97/97/97
f 101/101/101 102/102/102 97/97/97
f 103/103/103 85/85/85 100/100/100
f 102/102/102 103/103/103 100/100/100
f 84/84/84 85/85/85 103/103/103
f 104/104/104 84/84/84 103/103/103
f 102/102/102 104/104/104 103/103/103
f 87/87/87 84/84/84 104/104/104
f 102/102/102 105/105/105 104/104/104
f 105/105/105 87/87/87 104/104/104
f 101/101/101 106/106/106 102/102/102
f 102/102/102 107/107/107 105/105/105
f 106/106/106 108/108/108 102/102/102
f 109/109/109 87/87/87 105/105/105
f 107/107/107 109/109/109 105/105/105
f 109/109/109 79/79/79 87/87/87
f 110/110/110 79/79/79 109/109/109
f 79/79/79 110/110/110 67/67/67
f 111/111/111 109/109/109 107/107/107
f 111/111/111 110/110/110 109/109/109
f 67/67/67 110/110/110 112/112/112
f 67/67/67 112/112/112 42/42/42
f 106/106/106 101/101/101 113/113/113
f 113/113/113 101/101/101 99/99/99
f 102/102/102 114/114/114 107/107/107
f 114/114/114 111/111/111 107/107/107
f 115/115/115 110/110/110 111/111/111
f 110/110/110 115/115/115 112/112/112
f 42/42/42 112/112/112 116/116/116
f 42/42/42 116/116/116 37/37/37
f 117/117/117 111/111/111 114/114/114
f 117/117/117 115/115/115 111/111/111
f 112/112/112 115/115/115 118/118/118
f 112/112/112 118/118/118 116/116/116
f 119/119/119 113/113/113 99/99/99
f 119/119/119 99/99/99 96/96/96
f 120/120/120 119/119/119 96/96/96
f 96/96/96 95/95/95 120/120/120
f 116/116/116 121/121/121 37/37/37
f 116/116/116 118/118/118 121/121/121
f 115/115/115 122/122/122 118/118/118
f 122/122/122 115/115/115 117/117/117
f 123/123/123 117/117/117 114/114/114
f 102/102/102 123/123/123 114/114/114
f 118/118/118 124/124/124 121/121/121
f 118/118/118 122/122/122 124/124/124
f 125/125/125 122/122/122 117/117/117
f 125/125/125 117/117/117 123/123/123
f 126/126/126 119/119/119 120/120/120
f 126/126/126 113/113/113 119/119/119
f 121/121/121 127/127/127 37/37/37
f 121/121/121 124/124/124 127/127/127
f 122/122/122 128/128/128 124/124/124
f 128/128/128 122/122/122 125/125/125
f 129/129/129 125/125/125 123/123/123
f 102/102/102 129/129/129 123/123/123
f 124/124/124 130/130/130 127/127/127
f 124/124/124 128/128/128 130/130/130
f 131/131/131 128/128/128 125/125/125
f 131/131/131 125/125/125 129/129/129
f 127/127/127 132/132/132 37/37/37
f 127/127/127 130/130/130 132/132/132
f 128/128/128 133/133/133 130/130/130
f 133/133/133 128/128/128 131/131/131
f 134/134/134 131/131/131 129/129/129
f 102/102/102 134/134/134 129/129/129
f 130/130/130 135/135/135 132/132/132
f 130/130/130 133/133/133 135/135/135
f 132/132/132 136/136/136 37/37/37
f 132/132/132 135/135/135 136/136/136
f 137/137/137 131/131/131 134/134/134
f 137/137/137 133/133/133 131/131/131
f 102/102/102 138/138/138 134/134/134
f 138/138/138 137/137/137 134/134/134
f 136/136/136 139/139/139 37/37/37
f 37/37/37 139/139/139 41/41/41
f 133/133/133 140/140/140 135/135/135
f 140/140/140 133/133/133 137/137/137
f 135/135/135 141/141/141 136/136/136
f 136/136/136 141/141/141 139/139/139
f 135/135/135 140/140/140 141/141/141
f 102/102/102 142/142/142 138/138/138
f 102/102/102 108/108/108 142/142/142
f 143/143/143 137/137/137 138/138/138
f 143/143/143 140/140/140 137/137/137
f 142/142/142 143/143/143 138/138/138
f 141/141/141 144/144/144 139/139/139
f 139/139/139 144/144/144 41/41/41
f 140/140/140 145/145/145 141/141/141
f 145/145/145 140/140/140 143/143/143
f 141/141/141 145/145/145 144/144/144
f 146/146/146 143/143/143 142/142/142
f 108/108/108 146/146/146 142/142/142
f 146/146/146 145/145/145 143/143/143
f 145/145/145 147/147/147 144/144/144
f 147/147/147 145/145/145 146/146/146
f 148/148/148 146/146/146 108/108/108
f 148/148/148 147/147/147 146/146/146
f 106/106/106 148/148/148 108/108/108
f 144/144/144 149/149/149 41/41/41
f 144/144/144 147/147/147 149/149/149
f 150/150/150 147/147/147 148/148/148
f 147/147/147 150/150/150 149/149/149
f 148/148/148 106/106/106 151/151/151
f 151/151/151 150/150/150 148/148/148
f 41/41/41 149/149/149 152/152/152
f 41/41/41 152/152/152 39/39/39
f 149/149/149 150/150/150 153/153/153
f 149/149/149 153/153/153 152/152/152
f 106/106/106 154/154/154 151/151/151
f 154/154/154 106/106/106 113/113/113
f 155/155/155 150/150/150 151/151/151
f 150/150/150 155/155/155 153/153/153
f 152/152/152 153/153/153 156/156/156
f 152/152/152 156/156/156 39/39/39
f 154/154/154 113/113/113 157/157/157
f 157/157/157 113/113/113 158/158/158
f 158/158/158 113/113/113 159/159/159
f 151/151/151 154/154/154 160/160/160
f 154/154/154 157/157/157 160/160/160
f 160/160/160 155/155/155 151/151/151
f 153/153/153 155/155/155 161/161/161
f 153/153/153 161/161/161 156/156/156
f 157/157/157 158/158/158 162/162/162
f 160/160/160 157/157/157 162/162/162
f 163/163/163 155/155/155 160/160/160
f 155/155/155 163/163/163 161/161/161
f 162/162/162 163/163/163 160/160/160
f 156/156/156 161/161/161 164/164/164
f 156/156/156 164/164/164 39/39/39
f 162/162/162 158/158/158 165/165/165
f 158/158/158 159/159/159 165/165/165
f 161/161/161 163/163/163 166/166/166
f 161/161/161 166/166/166 164/164/164
f 167/167/167 163/163/163 162/162/162
f 165/165/165 167/167/167 162/162/162
f 163/163/163 167/167/167 166/166/166
f 164/164/164 168/168/168 39/39/39
f 164/164/164 166/166/166 168/168/168
f 166/166/166 167/167/167 169/169/169
f 166/166/166 169/169/169 168/168/168
f 168/168/168 170/170/170 39/39/39
f 168/168/168 169/169/169 170/170/170
f 170/170/170 45/45/45 39/39/39
f 171/171/171 167/167/167 165/165/165
f 167/167/167 171/171/171 169/169/169
f 169/169/169 172/172/172 170/170/170
f 170/170/170 172/172/172 45/45/45
f 169/169/169 171/171/171 172/172/172
f 165/165/165 159/159/159 173/173/173
f 173/173/173 171/171/171 165/165/165
f 171/171/171 174/174/174 172/172/172
f 174/174/174 171/171/171 173/173/173
f 172/172/172 175/175/175 45/45/45
f 172/172/172 174/174/174 175/175/175
f 159/159/159 176/176/176 173/173/173
f 159/159/159 113/113/113 176/176/176
f 177/177/177 174/174/174 173/173/173
f 173/173/173 176/176/176 177/177/177
f 45/45/45 175/175/175 178/178/178
f 17/17/17 45/45/45 178/178/178
f 174/174/174 179/179/179 175/175/175
f 179/179/179 174/174/174 177/177/177
f 176/176/176 180/180/180 177/177/177
f 176/176/176 113/113/113 180/180/180
f 175/175/175 181/181/181 178/178/178
f 175/175/175 179/179/179 181/181/181
f 182/182/182 179/179/179 177/177/177
f 177/177/177 180/180/180 182/182/182
f 17/17/17 178/178/178 183/183/183
f 178/178/178 181/181/181 183/183/183
f 179/179/179 184/184/184 181/181/181
f 184/184/184 179/179/179 182/182/182
f 180/180/180 185/185/185 182/182/182
f 180/180/180 113/113/113 185/185/185
f 181/181/181 186/186/186 183/183/183
f 181/181/181 184/184/184 186/186/186
f 187/187/187 184/184/184 182/182/182
f 182/182/182 185/185/185 187/187/187
f 17/17/17 183/183/183 188/188/188
f 183/183/183 186/186/186 188/188/188
f 184/184/184 189/189/189 186/186/186
f 189/189/189 184/184/184 187/187/187
f 185/185/185 190/190/190 187/187/187
f 185/185/185 113/113/113 190/190/190
f 186/186/186 191/191/191 188/188/188
f 186/186/186 189/189/189 191/191/191
f 17/17/17 188/188/188 192/192/192
f 188/188/188 191/191/191 192/192/192
f 187/187/187 190/190/190 193/193/193
f 193/193/193 189/189/189 187/187/187
f 190/190/190 113/113/113 194/194/194
f 190/190/190 194/194/194 193/193/193
f 17/17/17 192/192/192 195/195/195
f 17/17/17 195/195/195 92/92/92
f 189/189/189 196/196/196 191/191/191
f 196/196/196 189/189/189 193/193/193
f 191/191/191 197/197/197 192/192/192
f 192/192/192 197/197/197 195/195/195
f 191/191/191 196/196/196 197/197/197
f 195/195/195 198/198/198 92/92/92
f 197/197/197 198/198/198 195/195/195
f 198/198/198 93/93/93 92/92/92
f 194/194/194 113/113/113 199/199/199
f 199/199/199 113/113/113 126/126/126
f 193/193/193 194/194/194 200/200/200
f 200/200/200 196/196/196 193/193/193
f 194/194/194 199/199/199 200/200/200
f 196/196/196 201/201/201 197/197/197
f 197/197/197 201/201/201 198/198/198
f 201/201/201 196/196/196 200/200/200
f 198/198/198 202/202/202 93/93/93
f 201/201/201 202/202/202 198/198/198
f 202/202/202 95/95/95 93/93/93
f 95/95/95 202/202/202 120/120/120
f 203/203/203 126/126/126 120/120/120
f 199/199/199 126/126/126 203/203/203
f 200/200/200 199/199/199 203/203/203
f 203/203/203 201/201/201 200/200/200
f 202/202/202 201/201/201 203/203/203
f 120/120/120 202/202/202 203/203/203
f 206/206/206 205/205/205 204/204/204
f 207/207/207 206/206/206 204/204/204
f 208/208/208 206/206/206 207/207/207
f 204/204/204 205/205/205 209/209/209
f 205/205/205 210/210/210 209/209/209
f 211/211/211 208/208/208 207/207/207
f 212/212/212 208/208/208 211/211/211
f 209/209/209 210/210/210 213/213/213
f 210/210/210 214/214/214 213/213/213
f 215/215/215 213/213/213 214/214/214
f 216/216/216 215/215/215 214/214/214
f 209/209/209 213/213/213 217/217/217
f 217/217/217 213/213/213 215/215/215
f 204/204/204 209/209/209 218/218/218
f 209/209/209 217/217/217 218/218/218
f 219/219/219 212/212/212 211/211/211
f 220/220/220 212/212/212 219/219/219
f 215/215/215 216/216/216 221/221/221
f 216/216/216 222/222/222 221/221/221
f 221/221/221 222/222/222 223/223/223
f 222/222/222 224/224/224 223/223/223
f 215/215/215 221/221/221 225/225/225
f 221/221/221 223/223/223 225/225/225
f 223/223/223 224/224/224 226/226/226
f 224/224/224 227/227/227 226/226/226
f 215/215/215 228/228/228 217/217/217
f 215/215/215 225/225/225 228/228/228
f 229/229/229 220/220/220 219/219/219
f 230/230/230 220/220/220 229/229/229
f 223/223/223 231/231/231 225/225/225
f 223/223/223 226/226/226 231/231/231
f 226/226/226 227/227/227 232/232/232
f 227/227/227 233/233/233 232/232/232
f 234/234/234 230/230/230 229/229/229
f 235/235/235 230/230/230 234/234/234
f 236/236/236 235/235/235 234/234/234
f 236/236/236 234/234/234 229/229/229
f 237/237/237 235/235/235 236/236/236
f 229/229/229 238/238/238 236/236/236
f 238/238/238 237/237/237 236/236/236
f 229/229/229 219/219/219 238/238/238
f 239/239/239 237/237/237 238/238/238
f 219/219/219 240/240/240 238/238/238
f 240/240/240 239/239/239 238/238/238
f 219/219/219 211/211/211 240/240/240
f 241/241/241 239/239/239 240/240/240
f 211/211/211 242/242/242 240/240/240
f 242/242/242 241/241/241 240/240/240
f 211/211/211 207/207/207 242/242/242
f 243/243/243 241/241/241 242/242/242
f 207/207/207 244/244/244 242/242/242
f 244/244/244 243/243/243 242/242/242
f 207/207/207 204/204/204 244/244/244
f 245/245/245 243/243/243 244/244/244
f 204/204/204 246/246/246 244/244/244
f 246/246/246 245/245/245 244/244/244
f 247/247/247 245/245/245 246/246/246
f 204/204/204 218/218/218 246/246/246
f 218/218/218 247/247/247 246/246/246
f 247/247/247 218/218/218 248/248/248
f 218/218/218 217/217/217 248/248/248
f 248/248/248 217/217/217 249/249/249
f 217/217/217 228/228/228 249/249/249
f 250/250/250 249/249/249 228/228/228
f 225/225/225 250/250/250 228/228/228
f 251/251/251 250/250/250 225/225/225
f 231/231/231 251/251/251 225/225/225
f 252/252/252 251/251/251 231/231/231
f 253/253/253 252/252/252 231/231/231
f 226/226/226 253/253/253 231/231/231
f 254/254/254 252/252/252 253/253/253
f 226/226/226 232/232/232 253/253/253
f 255/255/255 254/254/254 253/253/253
f 232/232/232 255/255/255 253/253/253
f 256/256/256 254/254/254 255/255/255
f 257/257/257 256/256/256 255/255/255
f 232/232/232 257/257/257 255/255/255
f 258/258/258 256/256/256 257/257/257
f 232/232/232 259/259/259 257/257/257
f 232/232/232 233/233/233 259/259/259
f 233/233/233 260/260/260 259/259/259
f 261/261/261 258/258/258 257/257/257
f 259/259/259 261/261/261 257/257/257
f 262/262/262 258/258/258 261/261/261
f 260/260/260 262/262/262 263/263/263
f 259/259/259 260/260/260 263/263/263
f 259/259/259 263/263/263 261/261/261
f 263/263/263 262/262/262 261/261/261
f 266/266/266 265/265/265 264/264/264
f 267/267/267 266/266/266 264/264/264
f 268/268/268 266/266/266 267/267/267
f 269/269/269 264/264/264 265/265/265
f 270/270/270 269/269/269 265/265/265
f 271/271/271 268/268/268 267/267/267
f 268/268/268 271/271/271 272/272/272
f 273/273/273 269/269/269 270/270/270
f 274/274/274 273/273/273 270/270/270
f 271/271/271 275/275/275 272/272/272
f 272/272/272 275/275/275 276/276/276
f 277/277/277 273/273/273 274/274/274
f 278/278/278 277/277/277 274/274/274
f 275/275/275 279/279/279 276/276/276
f 276/276/276 279/279/279 280/280/280
f 281/281/281 277/277/277 278/278/278
f 282/282/282 281/281/281 278/278/278
f 279/279/279 283/283/283 280/280/280
f 280/280/280 283/283/283 284/284/284
f 285/285/285 281/281/281 282/282/282
f 286/286/286 285/285/285 282/282/282
f 283/283/283 287/287/287 284/284/284
f 284/284/284 287/287/287 288/288/288
f 289/289/289 285/285/285 286/286/286
f 290/290/290 289/289/289 286/286/286
f 287/287/287 291/291/291 288/288/288
f 288/288/288 291/291/291 292/292/292
f 293/293/293 289/289/289 290/290/290
f 294/294/294 293/293/293 290/290/290
f 291/291/291 295/295/295 292/292/292
f 292/292/292 295/295/295 296/296/296
f 297/297/297 293/293/293 294/294/294
f 298/298/298 297/297/297 294/294/294
f 295/295/295 299/299/299 296/296/296
f 296/296/296 299/299/299 300/300/300
f 301/301/301 297/297/297 298/298/298
f 302/302/302 301/301/301 298/298/298
f 299/299/299 303/303/303 300/300/300
f 300/300/300 303/303/303 304/304/304
f 305/305/305 301/301/301 302/302/302
f 306/306/306 305/305/305 302/302/302
f 303/303/303 307/307/307 304/304/304
f 304/304/304 307/307/307 308/308/308
f 309/309/309 305/305/305 306/306/306
f 310/310/310 309/309/309 306/306/306
f 307/307/307 311/311/311 308/308/308
f 308/308/308 311/311/311 312/312/312
f 313/313/313 309/309/309 310/310/310
f 314/314/314 313/313/313 310/310/310
f 311/311/311 315/315/315 312/312/312
f 312/312/312 315/315/315 316/316/316
f 317/317/317 313/313/313 314/314/314
f 318/318/318 317/317/317 314/314/314
f 315/315/315 319/319/319 316/316/316
f 316/316/316 319/319/319 320/320/320
f 321/321/321 317/317/317 318/318/318
f 322/322/322 321/321/321 318/318/318
f 320/320/320 323/323/323 322/322/322
f 319/319/319 323/323/323 320/320/320
f 323/323/323 321/321/321 322/322/322
f 309/309/309 313/313/313 324/324/324
f 313/313/313 317/317/317 325/325/325
f 313/313/313 325/325/325 324/324/324
f 317/317/317 321/321/321 326/326/326
f 317/317/317 326/326/326 325/325/325
f 321/321/321 323/323/323 327/327/327
f 321/321/321 327/327/327 326/326/326
f 328/328/328 323/323/323 319/319/319
f 323/323/323 328/328/328 327/327/327
f 329/329/329 319/319/319 315/315/315
f 329/329/329 328/328/328 319/319/319
f 309/309/309 324/324/324 330/330/330
f 305/305/305 309/309/309 330/330/330
f 331/331/331 329/329/329 315/315/315
f 331/331/331 315/315/315 311/311/311
f 305/305/305 330/330/330 332/332/332
f 301/301/301 305/305/305 332/332/332
f 333/333/333 331/331/331 311/311/311
f 333/333/333 311/311/311 307/307/307
f 301/301/301 332/332/332 334/334/334
f 297/297/297 301/301/301 334/334/334
f 335/335/335 333/333/333 307/307/307
f 335/335/335 307/307/307 303/303/303
f 297/297/297 334/334/334 336/336/336
f 293/293/293 297/297/297 336/336/336
f 337/337/337 335/335/335 303/303/303
f 337/337/337 303/303/303 299/299/299
f 293/293/293 336/336/336 338/338/338
f 289/289/289 293/293/293 338/338/338
f 339/339/339 337/337/337 299/299/299
f 299/299/299 295/295/295 339/339/339
f 338/338/338 340/340/340 289/289/289
f 340/340/340 285/285/285 289/289/289
f 295/295/295 341/341/341 339/339/339
f 341/341/341 295/295/295 291/291/291
f 340/340/340 342/342/342 285/285/285
f 342/342/342 281/281/281 285/285/285
f 343/343/343 341/341/341 291/291/291
f 343/343/343 291/291/291 287/287/287
f 342/342/342 344/344/344 281/281/281
f 344/344/344 277/277/277 281/281/281
f 345/345/345 343/343/343 287/287/287
f 345/345/345 287/287/287 283/283/283
f 344/344/344 346/346/346 277/277/277
f 346/346/346 273/273/273 277/277/277
f 347/347/347 345/345/345 283/283/283
f 347/347/347 283/283/283 279/279/279
f 346/346/346 348/348/348 273/273/273
f 348/348/348 269/269/269 273/273/273
f 349/349/349 347/347/347 279/279/279
f 349/349/349 279/279/279 275/275/275
f 348/348/348 350/350/350 269/269/269
f 350/350/350 264/264/264 269/269/269
f 351/351/351 349/349/349 275/275/275
f 351/351/351 275/275/275 271/271/271
f 264/264/264 350/350/350 352/352/352
f 267/267/267 264/264/264 352/352/352
f 271/271/271 267/267/267 353/353/353
f 353/353/353 351/351/351 271/271/271
f 267/267/267 352/352/352 353/353/353
f 348/348/348 346/346/346 354/354/354
f 355/355/355 348/348/348 354/354/354
f 350/350/350 348/348/348 355/355/355
f 354/354/354 346/346/346 356/356/356
f 357/357/357 350/350/350 355/355/355
f 350/350/350 357/357/357 352/352/352
f 346/346/346 344/344/344 356/356/356
f 357/357/357 358/358/358 352/352/352
f 352/352/352 358/358/358 353/353/353
f 356/356/356 344/344/344 359/359/359
f 358/358/358 360/360/360 353/353/353
f 351/351/351 353/353/353 360/360/360
f 344/344/344 342/342/342 359/359/359
f 361/361/361 351/351/351 360/360/360
f 359/359/359 342/342/342 362/362/362
f 349/349/349 351/351/351 361/361/361
f 342/342/342 340/340/340 362/362/362
f 363/363/363 349/349/349 361/361/361
f 362/362/362 340/340/340 364/364/364
f 347/347/347 349/349/349 363/363/363
f 340/340/340 338/338/338 364/364/364
f 365/365/365 347/347/347 363/363/363
f 364/364/364 338/338/338 366/366/366
f 345/345/345 347/347/347 365/365/365
f 338/338/338 336/336/336 366/366/366
f 367/367/367 345/345/345 365/365/365
f 366/366/366 336/336/336 368/368/368
f 343/343/343 345/345/345 367/367/367
f 336/336/336 334/334/334 368/368/368
f 369/369/369 343/343/343 367/367/367
f 368/368/368 334/334/334 370/370/370
f 341/341/341 343/343/343 369/369/369
f 334/334/334 332/332/332 370/370/370
f 371/371/371 341/341/341 369/369/369
f 370/370/370 332/332/332 372/372/372
f 339/339/339 341/341/341 371/371/371
f 332/332/332 330/330/330 372/372/372
f 373/373/373 339/339/339 371/371/371
f 372/372/372 330/330/330 374/374/374
f 337/337/337 339/339/339 373/373/373
f 330/330/330 324/324/324 374/374/374
f 375/375/375 337/337/337 373/373/373
f 374/374/374 324/324/324 376/376/376
f 335/335/335 337/337/337 375/375/375
f 324/324/324 325/325/325 376/376/376
f 377/377/377 335/335/335 375/375/375
f 376/376/376 325/325/325 378/378/378
f 333/333/333 335/335/335 377/377/377
f 325/325/325 326/326/326 378/378/378
f 379/379/379 333/333/333 377/377/377
f 378/378/378 326/326/326 380/380/380
f 331/331/331 333/333/333 379/379/379
f 326/326/326 327/327/327 380/380/380
f 381/381/381 331/331/331 379/379/379
f 382/382/382 380/380/380 327/327/327
f 329/329/329 331/331/331 381/381/381
f 328/328/328 382/382/382 327/327/327
f 383/383/383 329/329/329 381/381/381
f 382/382/382 328/328/328 383/383/383
f 328/328/328 329/329/329 383/383/383
