g Egg
v -0 0.122849911 -0.0149567695
v -0.0136053748 0.113978297 -0.0292806067
v -0 0.116318464 -0.0290221013
v -0 0.107687049 -0.0422678813
v -0.0142615372 0.120480418 -0.0150848124
v -0 0.1257779 3.24998146E-05
v -0.0128295887 0.105345301 -0.0426899418
v -0 0.0963864848 -0.0532401353
v -0.0265594404 0.107919805 -0.0289804805
v -0.0145907719 0.123410106 3.24997854E-05
v -0.0278312173 0.114020824 -0.0149067529
v -0.0144055374 0.121543825 0.0143300518
v -0 0.123757891 0.0147598702
v -0.0138292676 0.115454309 0.0280273929
v -0 0.117309354 0.0288334526
v -0.0131306956 0.1072402 0.0410905033
v -0 0.108643822 0.0422289744
v -0.0123800524 0.0962384939 0.051894825
v -0 0.0970990062 0.0532230735
v -0 0.0703330562 0.0714733526
v -0.0250640288 0.0997510478 -0.0423099063
v -0.0390880555 0.100122534 -0.0284936968
v -0.012071589 0.0940065905 -0.0538087115
v -0.0218149275 0.0635949671 -0.0717692748
v -0 0.0703330562 -0.0714083463
v -0.0236149896 0.0888957977 -0.0534406602
v -0.0369692519 0.0926546454 -0.0416154265
v -0.0498561151 0.0901083946 -0.0272278544
v -0.0409448184 0.105613947 -0.0146312891
v -0.022843603 0.0342552662 -0.0867135227
v -0 0.0391631126 -0.0876915306
v -0.0284843035 0.116774082 3.249972E-05
v -0.0238383077 0.000642240047 -0.0962147862
v -0 0.00433850288 -0.0984211415
v -0.0281763673 0.115174055 0.0136946756
v -0.0239660777 -0.0337927602 -0.09718398
v -0 -0.0314541459 -0.100403868
v -0.0271509718 0.109751731 0.0268386193
v -0.0225032531 -0.0690311193 -0.0881699622
v -0 -0.0676279068 -0.09197063
v -0.0258958805 0.102382332 0.0393980928
v -0.0215114355 -0.0995270163 -0.0672833323
v -0 -0.0991105214 -0.0714083463
v -0.0245499481 0.0923714936 0.0499230027
v -0.0225452576 -0.112392582 -0.0474587865
v -0.0444354191 -0.106788889 -0.0430795476
v -0 -0.113535643 -0.0504796244
v -0 -0.122534089 -0.0262501277
v -0.0423721895 -0.0963700563 -0.0611002482
v -0.0244552158 -0.120138645 -0.0246351231
v -0.0225274395 0.0688795447 0.0676654354
v -0.0441697985 -0.0683232248 -0.0803267434
v -0.0470249541 -0.0355027616 -0.0884279907
v -0.064969115 -0.061796546 -0.0697720572
v -0.0257243626 -0.122759283 3.24993016E-05
v -0 -0.125777915 3.24992252E-05
v -0 -0.122866258 0.026098894
v -0.0244953372 -0.119607054 0.026371194
v -0 -0.113773763 0.0504168831
v -0.0502560697 -0.113707148 3.24995017E-05
v -0.0224634614 -0.110280566 0.0508648157
v -0 -0.0991105214 0.0714733526
v -0.0468930751 -0.00390484929 -0.0882611796
v -0.0479848273 -0.112290673 -0.022284532
v -0.047842484 -0.111190528 0.0252465978
v -0.0673690364 -0.0993320048 -0.0218890477
v -0.044947803 0.027033329 -0.0806483999
v -0.0714407489 -0.0991105214 3.24995199E-05
v -0.0426548012 0.0531775951 -0.0681581497
v -0.0349442512 0.0825461745 -0.0526694804
v -0.0474509411 0.0837275982 -0.0398668274
v -0.0451783165 0.0747750998 -0.0506564081
v -0.0682999566 0.0276866555 -0.0620378181
v -0.058857765 0.0488366783 -0.0588253625
v -0.0684524775 0.0549226999 -0.0421644337
v -0.0716983899 0.0645682812 -0.0219412725
v -0.0714407489 0.0703330338 3.24994216E-05
v -0.0819725767 0.0292946994 -0.0432483181
v -0.0715135261 -0.00144320726 -0.0691860467
v -0.0872638896 0.0353898406 -0.0222204328
v -0.0894234329 -0.00217610598 -0.0459331684
v -0.0690501407 -0.0313020647 -0.0735815763
v -0.0887949914 -0.0344749689 -0.0474058464
v -0.0967088416 0.00152632594 -0.0235913135
v -0.0804285854 -0.0676001012 -0.0450223088
v -0.0877278224 0.0391651094 3.24994253E-05
v -0.0973180681 -0.0332552791 -0.0244402327
v -0.0612002015 -0.0962098166 -0.042525582
v -0.0882143676 -0.0686248243 -0.0231866594
v -0.058857765 -0.0874584019 -0.0588253736
v -0.0920048207 -0.0676288307 3.24995235E-05
v -0.100438766 -0.0314543247 3.2499498E-05
v -0.0719510764 -0.0960512906 0.0214017071
v -0.0984576568 0.00433972478 3.2499458E-05
v -0.091128327 -0.0658069551 0.0216700044
v -0.0982128978 -0.0305103958 0.0236944091
v -0.0952281579 0.00460499525 0.0242852233
v -0.0872055218 0.00168550014 0.0471196361
v -0.0838772506 0.0386435054 0.0237750262
v -0.0901034996 -0.0310811996 0.0461791642
v -0.0439658873 -0.103235722 0.0487538129
v -0.0846312866 -0.0641381145 0.0425360389
v -0.0215060245 -0.0952845961 0.0719176605
v -0.0677191541 -0.0915198773 0.0418824106
v -0.0423635095 -0.0895553082 0.0685057789
v -0.0225694366 -0.0648561716 0.090639092
v -0 -0.0675981343 0.0919851959
v -0.0588577725 -0.0874584019 0.0588903651
v -0.0685907081 -0.0645287335 0.0630911365
v -0.0444947854 -0.0615182184 0.0842905864
v -0.0239881221 -0.0299913883 0.0977898091
v -0 -0.0314440131 0.100403868
v -0.0471225567 -0.0292775035 0.0894722044
v -0.0723976791 -0.0335484147 0.0687802285
v -0.0239331219 0.00479361415 0.0951903611
v -0 0.00431382656 0.0983879715
v -0 0.0391184092 0.0876675323
v -0.0694618374 -0.00395280123 0.0716861486
v -0.046836786 0.00298893452 0.08685866
v -0.023163544 0.0384941697 0.0842125192
v -0.0450712442 0.0341747999 0.0769394413
v -0.0634431243 0.0250324011 0.0687718913
v -0.043494653 0.0619056784 0.0617339499
v -0.0769830421 0.0334394574 0.0459179357
v -0.0364036597 0.0874319598 0.0473920852
v -0.0466102026 0.0800006911 0.0451539308
v -0.0588577725 0.0488366783 0.0588903651
v -0.0382961817 0.0961543247 0.0372475982
v -0.0673292577 0.0693610907 0.022640517
v -0.0508237481 0.0923503637 0.0239624754
v -0.0620810501 0.061546471 0.0434674062
v -0.040055979 0.102391124 0.025331758
v -0.0487840734 0.0873384997 0.0353026614
v -0.041497577 0.106895864 0.0128879435
v -0.0530392192 0.0966953933 3.24994689E-05
v -0.0419185646 0.108106315 3.2499589E-05
v -0.0525153093 0.0958641395 0.0121489018
v -0.0519633703 0.0946560726 -0.01392111
v -0 0.0703330562 0.0714733526
v -0 0.0970990062 0.0532230735
v 0.0123800524 0.0962384939 0.051894825
v -0 0.108643822 0.0422289744
v 0.0131306956 0.1072402 0.0410905033
v -0 0.117309354 0.0288334526
v 0.0138292676 0.115454309 0.0280273929
v -0 0.123757891 0.0147598702
v 0.0144055374 0.121543825 0.0143300518
v -0 0.1257779 3.24998146E-05
v 0.0225274395 0.0688795447 0.0676654354
v 0.0245499481 0.0923714936 0.0499230027
v 0.0258958805 0.102382332 0.0393980928
v 0.0271509718 0.109751731 0.0268386193
v 0.0364036597 0.0874319598 0.0473920852
v 0.023163544 0.0384941697 0.0842125192
v -0 0.0391184092 0.0876675323
v 0.0382961817 0.0961543247 0.0372475982
v 0.0466102026 0.0800006911 0.0451539308
v 0.043494653 0.0619056784 0.0617339499
v 0.0450712442 0.0341747999 0.0769394413
v 0.0239331219 0.00479361415 0.0951903611
v -0 0.00431382656 0.0983879715
v -0 -0.0314440131 0.100403868
v 0.046836786 0.00298893452 0.08685866
v 0.0239881221 -0.0299913883 0.0977898091
v -0 -0.0675981343 0.0919851959
v 0.0225694366 -0.0648561716 0.090639092
v -0 -0.0991105214 0.0714733526
v 0.0471225567 -0.0292775035 0.0894722044
v 0.0694618374 -0.00395280123 0.0716861486
v 0.0634431243 0.0250324011 0.0687718913
v 0.0872055218 0.00168550014 0.0471196361
v 0.0588577725 0.0488366783 0.0588903651
v 0.0769830421 0.0334394574 0.0459179357
v 0.0723976791 -0.0335484147 0.0687802285
v 0.0620810501 0.061546471 0.0434674062
v 0.0673292577 0.0693610907 0.022640517
v 0.0508237481 0.0923503637 0.0239624754
v 0.0714407489 0.0703330338 3.24994216E-05
v 0.0838772506 0.0386435054 0.0237750262
v 0.0487840734 0.0873384997 0.0353026614
v 0.040055979 0.102391124 0.025331758
v 0.0281763673 0.115174055 0.0136946756
v 0.041497577 0.106895864 0.0128879435
v 0.0145907719 0.123410106 3.24997854E-05
v 0.0284843035 0.116774082 3.249972E-05
v 0.0142615372 0.120480418 -0.0150848124
v -0 0.122849911 -0.0149567695
v 0.0278312173 0.114020824 -0.0149067529
v 0.0136053748 0.113978297 -0.0292806067
v -0 0.116318464 -0.0290221013
v -0 0.107687049 -0.0422678813
v 0.0265594404 0.107919805 -0.0289804805
v 0.0128295887 0.105345301 -0.0426899418
v -0 0.0963864848 -0.0532401353
v 0.012071589 0.0940065905 -0.0538087115
v -0 0.0703330562 -0.0714083463
v 0.0250640288 0.0997510478 -0.0423099063
v 0.0390880555 0.100122534 -0.0284936968
v 0.0409448184 0.105613947 -0.0146312891
v 0.0498561151 0.0901083946 -0.0272278544
v 0.0369692519 0.0926546454 -0.0416154265
v 0.0236149896 0.0888957977 -0.0534406602
v 0.0218149275 0.0635949671 -0.0717692748
v 0.0419185646 0.108106315 3.2499589E-05
v 0.0349442512 0.0825461745 -0.0526694804
v 0.0474509411 0.0837275982 -0.0398668274
v 0.0451783165 0.0747750998 -0.0506564081
v 0.022843603 0.0342552662 -0.0867135227
v -0 0.0391631126 -0.0876915306
v 0.0426548012 0.0531775951 -0.0681581497
v 0.0519633703 0.0946560726 -0.01392111
v 0.0525153093 0.0958641395 0.0121489018
v 0.0530392192 0.0966953933 3.24994689E-05
v 0.0716983899 0.0645682812 -0.0219412725
v 0.0238383077 0.000642240047 -0.0962147862
v -0 0.00433850288 -0.0984211415
v 0.0684524775 0.0549226999 -0.0421644337
v 0.0239660777 -0.0337927602 -0.09718398
v -0 -0.0314541459 -0.100403868
v 0.0225032531 -0.0690311193 -0.0881699622
v -0 -0.0676279068 -0.09197063
v 0.0215114355 -0.0995270163 -0.0672833323
v -0 -0.0991105214 -0.0714083463
v 0.0225452576 -0.112392582 -0.0474587865
v 0.0444354191 -0.106788889 -0.0430795476
v -0 -0.113535643 -0.0504796244
v -0 -0.122534089 -0.0262501277
v 0.0423721895 -0.0963700563 -0.0611002482
v 0.0441697985 -0.0683232248 -0.0803267434
v 0.0470249541 -0.0355027616 -0.0884279907
v 0.0244552158 -0.120138645 -0.0246351231
v 0.064969115 -0.061796546 -0.0697720572
v 0.0468930751 -0.00390484929 -0.0882611796
v 0.0257243626 -0.122759283 3.24993016E-05
v -0 -0.125777915 3.24992252E-05
v -0 -0.122866258 0.026098894
v 0.0244953372 -0.119607054 0.026371194
v -0 -0.113773763 0.0504168831
v 0.0502560697 -0.113707148 3.24995017E-05
v 0.0224634614 -0.110280566 0.0508648157
v 0.044947803 0.027033329 -0.0806483999
v 0.058857765 0.0488366783 -0.0588253625
v 0.0682999566 0.0276866555 -0.0620378181
v 0.0819725767 0.0292946994 -0.0432483181
v 0.0715135261 -0.00144320726 -0.0691860467
v 0.0872638896 0.0353898406 -0.0222204328
v 0.0894234329 -0.00217610598 -0.0459331684
v 0.0690501407 -0.0313020647 -0.0735815763
v 0.0877278224 0.0391651094 3.24994253E-05
v 0.0887949914 -0.0344749689 -0.0474058464
v 0.0967088416 0.00152632594 -0.0235913135
v 0.0952281579 0.00460499525 0.0242852233
v 0.0804285854 -0.0676001012 -0.0450223088
v 0.0984576568 0.00433972478 3.2499458E-05
v 0.0982128978 -0.0305103958 0.0236944091
v 0.0973180681 -0.0332552791 -0.0244402327
v 0.100438766 -0.0314543247 3.2499498E-05
v 0.0901034996 -0.0310811996 0.0461791642
v 0.091128327 -0.0658069551 0.0216700044
v 0.0920048207 -0.0676288307 3.24995235E-05
v 0.0882143676 -0.0686248243 -0.0231866594
v 0.0612002015 -0.0962098166 -0.042525582
v 0.0685907081 -0.0645287335 0.0630911365
v 0.0846312866 -0.0641381145 0.0425360389
v 0.0719510764 -0.0960512906 0.0214017071
v 0.0714407489 -0.0991105214 3.24995199E-05
v 0.058857765 -0.0874584019 -0.0588253736
v 0.0673690364 -0.0993320048 -0.0218890477
v 0.0479848273 -0.112290673 -0.022284532
v 0.047842484 -0.111190528 0.0252465978
v 0.0439658873 -0.103235722 0.0487538129
v 0.0677191541 -0.0915198773 0.0418824106
v 0.0215060245 -0.0952845961 0.0719176605
v 0.0588577725 -0.0874584019 0.0588903651
v 0.0423635095 -0.0895553082 0.0685057789
v 0.0444947854 -0.0615182184 0.0842905864
vt 0.0529785156 0.881835938
vt 0.0553283691 0.842285156
vt 0.0352172852 0.857421875
vt 0.0212249756 0.829589844
vt 0.0712890625 0.863769531
vt 0.0739135742 0.901367188
vt 0.0421142578 0.817382812
vt 0.0121383667 0.798828125
vt 0.0731201172 0.826660156
vt 0.0896606445 0.881347656
vt 0.0878295898 0.845703125
vt 0.109680176 0.894042969
vt 0.0972900391 0.916992188
vt 0.133300781 0.903320312
vt 0.125488281 0.928222656
vt 0.159423828 0.91015625
vt 0.156738281 0.934082031
vt 0.187255859 0.911621094
vt 0.188598633 0.934570312
vt 0.252197266 0.924804688
vt 0.0606689453 0.804199219
vt 0.0900878906 0.811035156
vt 0.0332641602 0.790039062
vt 0.0462646484 0.726074219
vt 0.00603103638 0.735839844
vt 0.0522155762 0.779296875
vt 0.0783691406 0.791015625
vt 0.106201172 0.795898438
vt 0.10369873 0.828125
vt 0.0578308105 0.668945312
vt 0.0161590576 0.665527344
vt 0.104675293 0.861816406
vt 0.0842285156 0.614257812
vt 0.0449523926 0.59765625
vt 0.122253418 0.873046875
vt 0.122497559 0.568847656
vt 0.0904541016 0.541015625
vt 0.142700195 0.881347656
vt 0.172851562 0.532714844
vt 0.151855469 0.499023438
vt 0.165283203 0.887695312
vt 0.231933594 0.516113281
vt 0.22277832 0.478759766
vt 0.189331055 0.889648438
vt 0.270507812 0.520019531
vt 0.265869141 0.554199219
vt 0.273193359 0.479736328
vt 0.322021484 0.493164062
vt 0.237304688 0.548339844
vt 0.306396484 0.534179688
vt 0.239624023 0.885253906
vt 0.190185547 0.5625
vt 0.150146484 0.593261719
vt 0.200317383 0.592773438
vt 0.338867188 0.555664062
vt 0.3671875 0.519042969
vt 0.402099609 0.555664062
vt 0.369873047 0.583496094
vt 0.427978516 0.59765625
vt 0.315673828 0.5859375
vt 0.393310547 0.617675781
vt 0.443359375 0.645996094
vt 0.118835449 0.62890625
vt 0.291992188 0.567871094
vt 0.342041016 0.606933594
vt 0.276611328 0.59375
vt 0.0952758789 0.671875
vt 0.295654297 0.611816406
vt 0.0830688477 0.715820312
vt 0.0704956055 0.769042969
vt 0.0950927734 0.778320312
vt 0.0878295898 0.758789062
vt 0.130737305 0.692871094
vt 0.110229492 0.719238281
vt 0.128540039 0.739257812
vt 0.143188477 0.765136719
vt 0.160888672 0.788574219
vt 0.154418945 0.709960938
vt 0.150146484 0.656738281
vt 0.171020508 0.731445312
vt 0.178955078 0.676757812
vt 0.171020508 0.622070312
vt 0.202514648 0.64453125
vt 0.197631836 0.696777344
vt 0.229614258 0.612792969
vt 0.189208984 0.751953125
vt 0.22253418 0.663574219
vt 0.255371094 0.578125
vt 0.249633789 0.629882812
vt 0.232299805 0.573242188
vt 0.268798828 0.647460938
vt 0.242431641 0.682128906
vt 0.313232422 0.629882812
vt 0.216674805 0.715820312
vt 0.286376953 0.663574219
vt 0.262451172 0.698242188
vt 0.23828125 0.732910156
vt 0.262695312 0.747558594
vt 0.212036133 0.770019531
vt 0.284667969 0.712890625
vt 0.363769531 0.633789062
vt 0.305908203 0.678222656
vt 0.406738281 0.657714844
vt 0.331298828 0.647949219
vt 0.374755859 0.666015625
vt 0.403564453 0.717773438
vt 0.443359375 0.720214844
vt 0.349609375 0.662597656
vt 0.333251953 0.69140625
vt 0.369140625 0.712890625
vt 0.380615234 0.773925781
vt 0.419189453 0.791992188
vt 0.34765625 0.755859375
vt 0.314697266 0.729003906
vt 0.343994141 0.822265625
vt 0.375976562 0.851074219
vt 0.317626953 0.896484375
vt 0.296142578 0.764160156
vt 0.318359375 0.795410156
vt 0.295410156 0.860839844
vt 0.279296875 0.827636719
vt 0.271484375 0.797363281
vt 0.234741211 0.849121094
vt 0.23828125 0.783203125
vt 0.191772461 0.869140625
vt 0.196777344 0.850585938
vt 0.240966797 0.819335938
vt 0.171142578 0.866699219
vt 0.184082031 0.807617188
vt 0.162231445 0.841796875
vt 0.212646484 0.818847656
vt 0.151977539 0.860839844
vt 0.178833008 0.84765625
vt 0.134399414 0.853027344
vt 0.133178711 0.824707031
vt 0.11920166 0.842773438
vt 0.146728516 0.833984375
vt 0.118835449 0.811523438
vt 0.450683594 0.735839844
vt 0.440917969 0.799316406
vt 0.463623047 0.80078125
vt 0.44140625 0.831054688
vt 0.465332031 0.828613281
vt 0.447265625 0.862304688
vt 0.471923828 0.854492188
vt 0.458496094 0.890625
vt 0.481445312 0.878417969
vt 0.473876953 0.9140625
vt 0.490234375 0.748535156
vt 0.485595703 0.798828125
vt 0.487548828 0.822753906
vt 0.493896484 0.845214844
vt 0.505859375 0.796386719
vt 0.514648438 0.692382812
vt 0.479003906 0.670410156
vt 0.508789062 0.816894531
vt 0.524902344 0.791015625
vt 0.526367188 0.753417969
vt 0.547851562 0.708496094
vt 0.553222656 0.644042969
vt 0.524414062 0.611816406
vt 0.583496094 0.568847656
vt 0.580078125 0.669921875
vt 0.601074219 0.607421875
vt 0.654785156 0.544433594
vt 0.657714844 0.584472656
vt 0.729492188 0.544433594
vt 0.619140625 0.640136719
vt 0.611328125 0.691894531
vt 0.578125 0.716796875
vt 0.627929688 0.725585938
vt 0.556152344 0.747070312
vt 0.592285156 0.749511719
vt 0.646484375 0.673339844
vt 0.556152344 0.775390625
vt 0.567871094 0.803710938
vt 0.533691406 0.825683594
vt 0.586914062 0.827148438
vt 0.60546875 0.775878906
vt 0.527832031 0.809082031
vt 0.514648438 0.8359375
vt 0.502441406 0.865722656
vt 0.522460938 0.853515625
vt 0.494140625 0.8984375
vt 0.513671875 0.883300781
vt 0.51171875 0.916503906
vt 0.493652344 0.935058594
vt 0.529785156 0.900390625
vt 0.533203125 0.932617188
vt 0.518066406 0.952636719
vt 0.545898438 0.966796875
vt 0.548828125 0.915039062
vt 0.558105469 0.945800781
vt 0.576660156 0.975585938
vt 0.585449219 0.954589844
vt 0.639160156 0.981933594
vt 0.571289062 0.927246094
vt 0.564453125 0.897949219
vt 0.547363281 0.884277344
vt 0.579589844 0.881835938
vt 0.583984375 0.909667969
vt 0.596191406 0.935546875
vt 0.649414062 0.941894531
vt 0.532714844 0.868652344
vt 0.606445312 0.917480469
vt 0.596679688 0.893066406
vt 0.616699219 0.899902344
vt 0.706542969 0.930175781
vt 0.709960938 0.971679688
vt 0.659667969 0.904785156
vt 0.563964844 0.869140625
vt 0.541503906 0.841308594
vt 0.55078125 0.854980469
vt 0.610351562 0.844726562
vt 0.761230469 0.903808594
vt 0.777832031 0.942871094
vt 0.636230469 0.859375
vt 0.806640625 0.865722656
vt 0.834472656 0.897460938
vt 0.842285156 0.814941406
vt 0.876464844 0.8359375
vt 0.859375 0.755859375
vt 0.896484375 0.765136719
vt 0.85546875 0.717285156
vt 0.821289062 0.722167969
vt 0.895507812 0.71484375
vt 0.882324219 0.666015625
vt 0.826660156 0.750488281
vt 0.812988281 0.797851562
vt 0.782226562 0.837890625
vt 0.841308594 0.681640625
vt 0.782226562 0.787597656
vt 0.74609375 0.869140625
vt 0.819824219 0.648925781
vt 0.856445312 0.620605469
vt 0.819824219 0.5859375
vt 0.791992188 0.618164062
vt 0.77734375 0.560058594
vt 0.789550781 0.672363281
vt 0.7578125 0.594726562
vt 0.703125 0.892578125
vt 0.65625 0.877929688
vt 0.682617188 0.857421875
vt 0.665527344 0.833496094
vt 0.71875 0.837890625
vt 0.643554688 0.816894531
vt 0.698242188 0.809082031
vt 0.753417969 0.816894531
vt 0.623535156 0.798828125
vt 0.73046875 0.785644531
vt 0.678710938 0.790527344
vt 0.642089844 0.749511719
vt 0.762695312 0.758300781
vt 0.659667969 0.771484375
vt 0.676757812 0.725585938
vt 0.711914062 0.765625
vt 0.693359375 0.745605469
vt 0.662109375 0.703125
vt 0.711914062 0.701660156
vt 0.728027344 0.719238281
vt 0.745605469 0.73828125
vt 0.797363281 0.732910156
vt 0.68359375 0.654785156
vt 0.697265625 0.682128906
vt 0.745117188 0.674804688
vt 0.763671875 0.692382812
vt 0.801757812 0.755859375
vt 0.781738281 0.711425781
vt 0.807617188 0.695800781
vt 0.768066406 0.645996094
vt 0.741699219 0.624023438
vt 0.727539062 0.656738281
vt 0.717285156 0.581054688
vt 0.712402344 0.638183594
vt 0.709472656 0.61328125
vt 0.662597656 0.618652344
vn -0 0.952148438 -0.305175781
vn -0.263916016 0.841796875 -0.471191406
vn -0 0.876464844 -0.481445312
vn -0 0.777832031 -0.628417969
vn -0.284423828 0.911132812 -0.299072266
vn -0 0.999511719 -0.0293884277
vn -0.233276367 0.749511719 -0.619628906
vn -0 0.638671875 -0.76953125
vn -0.436279297 0.780273438 -0.447998047
vn -0.294677734 0.955078125 -0.0305023193
vn -0.467285156 0.836914062 -0.284667969
vn -0.284912109 0.921875 0.262939453
vn -0 0.961425781 0.275634766
vn -0.265869141 0.847167969 0.460205078
vn -0 0.878417969 0.478027344
vn -0.244384766 0.751953125 0.612304688
vn -0 0.772460938 0.635253906
vn -0.214233398 0.618652344 0.755859375
vn -0 0.62890625 0.77734375
vn -0 0.515625 0.856933594
vn -0.393066406 0.703125 -0.592773438
vn -0.569335938 0.706542969 -0.419921875
vn -0.195068359 0.619628906 -0.760253906
vn -0.265625 0.493896484 -0.828125
vn -0 0.519042969 -0.854980469
vn -0.319091797 0.595703125 -0.737304688
vn -0.51953125 0.646972656 -0.558105469
vn -0.706054688 0.609863281 -0.360351562
vn -0.606445312 0.749023438 -0.266601562
vn -0.240844727 0.360839844 -0.900878906
vn -0 0.384277344 -0.923339844
vn -0.483886719 0.874511719 -0.0339660645
vn -0.233276367 0.151367188 -0.960449219
vn -0 0.175415039 -0.984375
vn -0.468261719 0.850097656 0.241699219
vn -0.232910156 -0.108947754 -0.966308594
vn -0 -0.0899658203 -0.99609375
vn -0.436035156 0.791015625 0.429199219
vn -0.224365234 -0.405517578 -0.886230469
vn -0 -0.392089844 -0.919921875
vn -0.398925781 0.711425781 0.578613281
vn -0.20690918 -0.700683594 -0.683105469
vn -0 -0.693847656 -0.720214844
vn -0.340576172 0.600097656 0.724121094
vn -0.202392578 -0.877441406 -0.434814453
vn -0.40234375 -0.825683594 -0.395507812
vn -0 -0.888671875 -0.458740234
vn -0 -0.97265625 -0.232421875
vn -0.383056641 -0.67578125 -0.629882812
vn -0.216796875 -0.951171875 -0.219482422
vn -0.28515625 0.507324219 0.813476562
vn -0.408203125 -0.389648438 -0.825683594
vn -0.454101562 -0.111694336 -0.883789062
vn -0.6484375 -0.326416016 -0.687988281
vn -0.232055664 -0.97265625 0.00545501709
vn -0 -1 0.000331878662
vn -0 -0.971679688 0.236328125
vn -0.232177734 -0.942382812 0.241699219
vn -0 -0.885253906 0.465087891
vn -0.45703125 -0.889160156 0.00994873047
vn -0.220703125 -0.855957031 0.467529297
vn -0 -0.701660156 0.712402344
vn -0.470703125 0.12902832 -0.873046875
vn -0.438232422 -0.875976562 -0.200683594
vn -0.438232422 -0.867675781 0.234619141
vn -0.686523438 -0.696777344 -0.207885742
vn -0.466796875 0.319824219 -0.82421875
vn -0.711914062 -0.702148438 -0.00988769531
vn -0.474609375 0.458984375 -0.750976562
vn -0.456054688 0.55859375 -0.692871094
vn -0.652832031 0.575683594 -0.492431641
vn -0.570800781 0.540527344 -0.618164062
vn -0.677246094 0.315673828 -0.664550781
vn -0.621582031 0.440673828 -0.647949219
vn -0.734863281 0.480224609 -0.479003906
vn -0.814453125 0.515625 -0.266601562
vn -0.852050781 0.523925781 0.00671386719
vn -0.827636719 0.331054688 -0.453369141
vn -0.699707031 0.135620117 -0.701171875
vn -0.904785156 0.368164062 -0.213745117
vn -0.875976562 0.122924805 -0.466552734
vn -0.686035156 -0.0823364258 -0.72265625
vn -0.875 -0.114440918 -0.469970703
vn -0.965820312 0.149169922 -0.212768555
vn -0.8203125 -0.378662109 -0.428955078
vn -0.921875 0.38671875 0.0280456543
vn -0.967773438 -0.11151123 -0.226196289
vn -0.631835938 -0.669433594 -0.390625
vn -0.886230469 -0.404541016 -0.225585938
vn -0.5859375 -0.556640625 -0.588867188
vn -0.919433594 -0.392089844 -0.0267791748
vn -0.99609375 -0.0854492188 -0.00965118408
vn -0.704101562 -0.682128906 0.196411133
vn -0.983886719 0.178100586 0.0154266357
vn -0.91015625 -0.368652344 0.188232422
vn -0.974609375 -0.0646362305 0.215087891
vn -0.952148438 0.192138672 0.237548828
vn -0.864257812 0.167724609 0.474365234
vn -0.885253906 0.387939453 0.257324219
vn -0.87890625 -0.0693359375 0.471679688
vn -0.398925781 -0.805175781 0.438964844
vn -0.836425781 -0.336914062 0.432861328
vn -0.204101562 -0.666503906 0.716796875
vn -0.659179688 -0.634277344 0.404052734
vn -0.404052734 -0.607421875 0.684082031
vn -0.203613281 -0.363769531 0.909179688
vn -0 -0.391113281 0.920410156
vn -0.574707031 -0.567871094 0.589355469
vn -0.683105469 -0.318115234 0.657226562
vn -0.44921875 -0.317382812 0.834960938
vn -0.22265625 -0.0653076172 0.97265625
vn -0 -0.0808105469 0.996582031
vn -0.478271484 -0.0649414062 0.875976562
vn -0.712402344 -0.0901489258 0.695800781
vn -0.237670898 0.189331055 0.952636719
vn -0 0.182250977 0.983398438
vn -0 0.38671875 0.922363281
vn -0.693359375 0.124206543 0.709960938
vn -0.463867188 0.168212891 0.869628906
vn -0.254394531 0.386230469 0.88671875
vn -0.447509766 0.364746094 0.81640625
vn -0.65234375 0.309814453 0.691894531
vn -0.482421875 0.490234375 0.726074219
vn -0.811523438 0.355957031 0.463134766
vn -0.464355469 0.575195312 0.673339844
vn -0.596191406 0.543945312 0.590332031
vn -0.633300781 0.438720703 0.637695312
vn -0.528320312 0.662109375 0.531738281
vn -0.816894531 0.504394531 0.279785156
vn -0.7265625 0.604003906 0.327392578
vn -0.728027344 0.483642578 0.485839844
vn -0.574707031 0.719238281 0.389892578
vn -0.675292969 0.572265625 0.465087891
vn -0.611816406 0.761230469 0.214233398
vn -0.768066406 0.639648438 -0.0241394043
vn -0.627441406 0.777832031 -0.0372924805
vn -0.758300781 0.624511719 0.186889648
vn -0.742675781 0.630371094 -0.225341797
vn -0 0.515625 0.856933594
vn -0 0.62890625 0.77734375
vn 0.214233398 0.618652344 0.755859375
vn -0 0.772460938 0.635253906
vn 0.244384766 0.751953125 0.612304688
vn -0 0.878417969 0.478027344
vn 0.265869141 0.847167969 0.460205078
vn -0 0.961425781 0.275634766
vn 0.284912109 0.921875 0.262939453
vn -0 0.999511719 -0.0293884277
vn 0.28515625 0.507324219 0.813476562
vn 0.340576172 0.600097656 0.724121094
vn 0.398925781 0.711425781 0.578613281
vn 0.436035156 0.791015625 0.429199219
vn 0.464355469 0.575195312 0.673339844
vn 0.254394531 0.386230469 0.88671875
vn -0 0.38671875 0.922363281
vn 0.528320312 0.662109375 0.531738281
vn 0.596191406 0.543945312 0.590332031
vn 0.482421875 0.490234375 0.726074219
vn 0.447509766 0.364746094 0.81640625
vn 0.237670898 0.189331055 0.952636719
vn -0 0.182250977 0.983398438
vn -0 -0.0808105469 0.996582031
vn 0.463867188 0.168212891 0.869628906
vn 0.22265625 -0.0653076172 0.97265625
vn -0 -0.391113281 0.920410156
vn 0.203613281 -0.363769531 0.909179688
vn -0 -0.701660156 0.712402344
vn 0.478271484 -0.0649414062 0.875976562
vn 0.693359375 0.124206543 0.709960938
vn 0.65234375 0.309814453 0.691894531
vn 0.864257812 0.167724609 0.474365234
vn 0.633300781 0.438720703 0.637695312
vn 0.811523438 0.355957031 0.463134766
vn 0.712402344 -0.0901489258 0.695800781
vn 0.728027344 0.483642578 0.485839844
vn 0.816894531 0.504394531 0.279785156
vn 0.7265625 0.604003906 0.327392578
vn 0.852050781 0.523925781 0.00671386719
vn 0.885253906 0.387939453 0.257324219
vn 0.675292969 0.572265625 0.465087891
vn 0.574707031 0.719238281 0.389892578
vn 0.468261719 0.850097656 0.241699219
vn 0.611816406 0.761230469 0.214233398
vn 0.294677734 0.955078125 -0.0305023193
vn 0.483886719 0.874511719 -0.0339660645
vn 0.284423828 0.911132812 -0.299072266
vn -0 0.952148438 -0.305175781
vn 0.467285156 0.836914062 -0.284667969
vn 0.263916016 0.841796875 -0.471191406
vn -0 0.876464844 -0.481445312
vn -0 0.777832031 -0.628417969
vn 0.436279297 0.780273438 -0.447998047
vn 0.233276367 0.749511719 -0.619628906
vn -0 0.638671875 -0.76953125
vn 0.195068359 0.619628906 -0.760253906
vn -0 0.519042969 -0.854980469
vn 0.393066406 0.703125 -0.592773438
vn 0.569335938 0.706542969 -0.419921875
vn 0.606445312 0.749023438 -0.266601562
vn 0.706054688 0.609863281 -0.360351562
vn 0.51953125 0.646972656 -0.558105469
vn 0.319091797 0.595703125 -0.737304688
vn 0.265625 0.493896484 -0.828125
vn 0.627441406 0.777832031 -0.0372924805
vn 0.456054688 0.55859375 -0.692871094
vn 0.652832031 0.575683594 -0.492431641
vn 0.570800781 0.540527344 -0.618164062
vn 0.240844727 0.360839844 -0.900878906
vn -0 0.384277344 -0.923339844
vn 0.474609375 0.458984375 -0.750976562
vn 0.742675781 0.630371094 -0.225341797
vn 0.758300781 0.624511719 0.186889648
vn 0.768066406 0.639648438 -0.0241394043
vn 0.814453125 0.515625 -0.266601562
vn 0.233276367 0.151367188 -0.960449219
vn -0 0.175415039 -0.984375
vn 0.734863281 0.480224609 -0.479003906
vn 0.232910156 -0.108947754 -0.966308594
vn -0 -0.0899658203 -0.99609375
vn 0.224365234 -0.405517578 -0.886230469
vn -0 -0.392089844 -0.919921875
vn 0.20690918 -0.700683594 -0.683105469
vn -0 -0.693847656 -0.720214844
vn 0.202392578 -0.877441406 -0.434814453
vn 0.40234375 -0.825683594 -0.395507812
vn -0 -0.888671875 -0.458740234
vn -0 -0.97265625 -0.232421875
vn 0.383056641 -0.67578125 -0.629882812
vn 0.408203125 -0.389648438 -0.825683594
vn 0.454101562 -0.111694336 -0.883789062
vn 0.216796875 -0.951171875 -0.219482422
vn 0.6484375 -0.326416016 -0.687988281
vn 0.470703125 0.12902832 -0.873046875
vn 0.232055664 -0.97265625 0.00545501709
vn -0 -1 0.000331878662
vn -0 -0.971679688 0.236328125
vn 0.232177734 -0.942382812 0.241699219
vn -0 -0.885253906 0.465087891
vn 0.45703125 -0.889160156 0.00994873047
vn 0.220703125 -0.855957031 0.467529297
vn 0.466796875 0.319824219 -0.82421875
vn 0.621582031 0.440673828 -0.647949219
vn 0.677246094 0.315673828 -0.664550781
vn 0.827636719 0.331054688 -0.453369141
vn 0.699707031 0.135620117 -0.701171875
vn 0.904785156 0.368164062 -0.213745117
vn 0.875976562 0.122924805 -0.466552734
vn 0.686035156 -0.0823364258 -0.72265625
vn 0.921875 0.38671875 0.0280456543
vn 0.875 -0.114440918 -0.469970703
vn 0.965820312 0.149169922 -0.212768555
vn 0.952148438 0.192138672 0.237548828
vn 0.8203125 -0.378662109 -0.428955078
vn 0.983886719 0.178100586 0.0154266357
vn 0.974609375 -0.0646362305 0.215087891
vn 0.967773438 -0.11151123 -0.226196289
vn 0.99609375 -0.0854492188 -0.00965118408
vn 0.87890625 -0.0693359375 0.471679688
vn 0.91015625 -0.368652344 0.188232422
vn 0.919433594 -0.392089844 -0.0267791748
vn 0.886230469 -0.404541016 -0.225585938
vn 0.631835938 -0.669433594 -0.390625
vn 0.683105469 -0.318115234 0.657226562
vn 0.836425781 -0.336914062 0.432861328
vn 0.704101562 -0.682128906 0.196411133
vn 0.711914062 -0.702148438 -0.00988769531
vn 0.5859375 -0.556640625 -0.588867188
vn 0.686523438 -0.696777344 -0.207885742
vn 0.438232422 -0.875976562 -0.200683594
vn 0.438232422 -0.867675781 0.234619141
vn 0.398925781 -0.805175781 0.438964844
vn 0.659179688 -0.634277344 0.404052734
vn 0.204101562 -0.666503906 0.716796875
vn 0.574707031 -0.567871094 0.589355469
vn 0.404052734 -0.607421875 0.684082031
vn 0.44921875 -0.317382812 0.834960938
g Egg_0
f 3/3/3 2/2/2 1/1/1
f 2/2/2 3/3/3 4/4/4
f 2/2/2 5/5/5 1/1/1
f 1/1/1 5/5/5 6/6/6
f 7/7/7 2/2/2 4/4/4
f 7/7/7 4/4/4 8/8/8
f 2/2/2 9/9/9 5/5/5
f 9/9/9 2/2/2 7/7/7
f 5/5/5 10/10/10 6/6/6
f 9/9/9 11/11/11 5/5/5
f 5/5/5 11/11/11 10/10/10
f 10/10/10 12/12/12 6/6/6
f 12/12/12 13/13/13 6/6/6
f 12/12/12 14/14/14 13/13/13
f 14/14/14 15/15/15 13/13/13
f 14/14/14 16/16/16 15/15/15
f 16/16/16 17/17/17 15/15/15
f 16/16/16 18/18/18 17/17/17
f 18/18/18 19/19/19 17/17/17
f 20/20/20 19/19/19 18/18/18
f 21/21/21 9/9/9 7/7/7
f 9/9/9 22/22/22 11/11/11
f 22/22/22 9/9/9 21/21/21
f 21/21/21 7/7/7 23/23/23
f 23/23/23 7/7/7 8/8/8
f 24/24/24 23/23/23 8/8/8
f 8/8/8 25/25/25 24/24/24
f 26/26/26 21/21/21 23/23/23
f 24/24/24 26/26/26 23/23/23
f 27/27/27 22/22/22 21/21/21
f 27/27/27 21/21/21 26/26/26
f 28/28/28 22/22/22 27/27/27
f 22/22/22 28/28/28 29/29/29
f 22/22/22 29/29/29 11/11/11
f 30/30/30 24/24/24 25/25/25
f 31/31/31 30/30/30 25/25/25
f 11/11/11 29/29/29 32/32/32
f 11/11/11 32/32/32 10/10/10
f 33/33/33 30/30/30 31/31/31
f 34/34/34 33/33/33 31/31/31
f 32/32/32 35/35/35 10/10/10
f 35/35/35 12/12/12 10/10/10
f 33/33/33 34/34/34 36/36/36
f 34/34/34 37/37/37 36/36/36
f 35/35/35 38/38/38 12/12/12
f 38/38/38 14/14/14 12/12/12
f 39/39/39 36/36/36 37/37/37
f 40/40/40 39/39/39 37/37/37
f 38/38/38 41/41/41 14/14/14
f 41/41/41 16/16/16 14/14/14
f 39/39/39 40/40/40 42/42/42
f 40/40/40 43/43/43 42/42/42
f 41/41/41 44/44/44 16/16/16
f 44/44/44 18/18/18 16/16/16
f 45/45/45 42/42/42 43/43/43
f 45/45/45 46/46/46 42/42/42
f 47/47/47 45/45/45 43/43/43
f 45/45/45 47/47/47 48/48/48
f 39/39/39 42/42/42 49/49/49
f 46/46/46 49/49/49 42/42/42
f 50/50/50 45/45/45 48/48/48
f 46/46/46 45/45/45 50/50/50
f 18/18/18 44/44/44 51/51/51
f 18/18/18 51/51/51 20/20/20
f 52/52/52 39/39/39 49/49/49
f 39/39/39 52/52/52 36/36/36
f 52/52/52 53/53/53 36/36/36
f 33/33/33 36/36/36 53/53/53
f 54/54/54 52/52/52 49/49/49
f 52/52/52 54/54/54 53/53/53
f 50/50/50 48/48/48 55/55/55
f 48/48/48 56/56/56 55/55/55
f 55/55/55 56/56/56 57/57/57
f 58/58/58 55/55/55 57/57/57
f 58/58/58 57/57/57 59/59/59
f 50/50/50 55/55/55 60/60/60
f 60/60/60 55/55/55 58/58/58
f 61/61/61 58/58/58 59/59/59
f 61/61/61 59/59/59 62/62/62
f 63/63/63 33/33/33 53/53/53
f 33/33/33 63/63/63 30/30/30
f 64/64/64 50/50/50 60/60/60
f 64/64/64 46/46/46 50/50/50
f 65/65/65 60/60/60 58/58/58
f 65/65/65 58/58/58 61/61/61
f 64/64/64 60/60/60 66/66/66
f 64/64/64 66/66/66 46/46/46
f 63/63/63 67/67/67 30/30/30
f 30/30/30 67/67/67 24/24/24
f 60/60/60 65/65/65 68/68/68
f 60/60/60 68/68/68 66/66/66
f 67/67/67 69/69/69 24/24/24
f 26/26/26 24/24/24 69/69/69
f 69/69/69 70/70/70 26/26/26
f 70/70/70 27/27/27 26/26/26
f 71/71/71 27/27/27 70/70/70
f 71/71/71 28/28/28 27/27/27
f 72/72/72 71/71/71 70/70/70
f 69/69/69 72/72/72 70/70/70
f 28/28/28 71/71/71 72/72/72
f 67/67/67 63/63/63 73/73/73
f 69/69/69 67/67/67 74/74/74
f 67/67/67 73/73/73 74/74/74
f 72/72/72 69/69/69 75/75/75
f 69/69/69 74/74/74 75/75/75
f 72/72/72 75/75/75 76/76/76
f 76/76/76 28/28/28 72/72/72
f 28/28/28 76/76/76 77/77/77
f 78/78/78 75/75/75 74/74/74
f 75/75/75 78/78/78 76/76/76
f 73/73/73 78/78/78 74/74/74
f 63/63/63 79/79/79 73/73/73
f 79/79/79 63/63/63 53/53/53
f 78/78/78 80/80/80 76/76/76
f 76/76/76 80/80/80 77/77/77
f 81/81/81 78/78/78 73/73/73
f 79/79/79 81/81/81 73/73/73
f 78/78/78 81/81/81 80/80/80
f 82/82/82 79/79/79 53/53/53
f 54/54/54 82/82/82 53/53/53
f 81/81/81 79/79/79 83/83/83
f 79/79/79 82/82/82 83/83/83
f 81/81/81 84/84/84 80/80/80
f 81/81/81 83/83/83 84/84/84
f 85/85/85 83/83/83 82/82/82
f 54/54/54 85/85/85 82/82/82
f 80/80/80 86/86/86 77/77/77
f 80/80/80 84/84/84 86/86/86
f 87/87/87 83/83/83 85/85/85
f 83/83/83 87/87/87 84/84/84
f 85/85/85 54/54/54 88/88/88
f 89/89/89 87/87/87 85/85/85
f 85/85/85 88/88/88 89/89/89
f 54/54/54 90/90/90 88/88/88
f 90/90/90 54/54/54 49/49/49
f 49/49/49 46/46/46 90/90/90
f 46/46/46 88/88/88 90/90/90
f 66/66/66 88/88/88 46/46/46
f 88/88/88 66/66/66 89/89/89
f 89/89/89 66/66/66 68/68/68
f 89/89/89 91/91/91 87/87/87
f 91/91/91 89/89/89 68/68/68
f 84/84/84 87/87/87 92/92/92
f 91/91/91 92/92/92 87/87/87
f 91/91/91 68/68/68 93/93/93
f 65/65/65 93/93/93 68/68/68
f 94/94/94 84/84/84 92/92/92
f 84/84/84 94/94/94 86/86/86
f 91/91/91 95/95/95 92/92/92
f 95/95/95 91/91/91 93/93/93
f 94/94/94 92/92/92 96/96/96
f 95/95/95 96/96/96 92/92/92
f 94/94/94 97/97/97 86/86/86
f 97/97/97 94/94/94 96/96/96
f 97/97/97 96/96/96 98/98/98
f 97/97/97 99/99/99 86/86/86
f 97/97/97 98/98/98 99/99/99
f 86/86/86 99/99/99 77/77/77
f 100/100/100 96/96/96 95/95/95
f 96/96/96 100/100/100 98/98/98
f 65/65/65 101/101/101 93/93/93
f 101/101/101 65/65/65 61/61/61
f 95/95/95 93/93/93 102/102/102
f 102/102/102 100/100/100 95/95/95
f 101/101/101 61/61/61 103/103/103
f 103/103/103 61/61/61 62/62/62
f 101/101/101 104/104/104 93/93/93
f 93/93/93 104/104/104 102/102/102
f 101/101/101 105/105/105 104/104/104
f 105/105/105 101/101/101 103/103/103
f 106/106/106 103/103/103 62/62/62
f 107/107/107 106/106/106 62/62/62
f 102/102/102 104/104/104 108/108/108
f 105/105/105 108/108/108 104/104/104
f 109/109/109 102/102/102 108/108/108
f 102/102/102 109/109/109 100/100/100
f 109/109/109 108/108/108 105/105/105
f 110/110/110 105/105/105 103/103/103
f 106/106/106 110/110/110 103/103/103
f 110/110/110 109/109/109 105/105/105
f 106/106/106 107/107/107 111/111/111
f 107/107/107 112/112/112 111/111/111
f 110/110/110 106/106/106 113/113/113
f 109/109/109 110/110/110 113/113/113
f 106/106/106 111/111/111 113/113/113
f 109/109/109 114/114/114 100/100/100
f 114/114/114 109/109/109 113/113/113
f 98/98/98 100/100/100 114/114/114
f 115/115/115 111/111/111 112/112/112
f 116/116/116 115/115/115 112/112/112
f 115/115/115 116/116/116 117/117/117
f 118/118/118 114/114/114 113/113/113
f 118/118/118 98/98/98 114/114/114
f 119/119/119 113/113/113 111/111/111
f 115/115/115 119/119/119 111/111/111
f 119/119/119 118/118/118 113/113/113
f 120/120/120 115/115/115 117/117/117
f 119/119/119 115/115/115 120/120/120
f 120/120/120 117/117/117 20/20/20
f 51/51/51 120/120/120 20/20/20
f 121/121/121 119/119/119 120/120/120
f 119/119/119 121/121/121 118/118/118
f 121/121/121 120/120/120 51/51/51
f 98/98/98 118/118/118 122/122/122
f 121/121/121 122/122/122 118/118/118
f 123/123/123 121/121/121 51/51/51
f 121/121/121 123/123/123 122/122/122
f 123/123/123 51/51/51 44/44/44
f 124/124/124 98/98/98 122/122/122
f 98/98/98 124/124/124 99/99/99
f 44/44/44 125/125/125 123/123/123
f 125/125/125 126/126/126 123/123/123
f 125/125/125 44/44/44 41/41/41
f 123/123/123 127/127/127 122/122/122
f 124/124/124 122/122/122 127/127/127
f 123/123/123 126/126/126 127/127/127
f 128/128/128 125/125/125 41/41/41
f 126/126/126 125/125/125 128/128/128
f 128/128/128 41/41/41 38/38/38
f 99/99/99 124/124/124 129/129/129
f 126/126/126 130/130/130 129/129/129
f 99/99/99 129/129/129 77/77/77
f 77/77/77 129/129/129 130/130/130
f 131/131/131 124/124/124 127/127/127
f 124/124/124 131/131/131 129/129/129
f 126/126/126 131/131/131 127/127/127
f 129/129/129 131/131/131 126/126/126
f 132/132/132 128/128/128 38/38/38
f 132/132/132 38/38/38 35/35/35
f 133/133/133 126/126/126 128/128/128
f 126/126/126 133/133/133 130/130/130
f 133/133/133 128/128/128 132/132/132
f 130/130/130 133/133/133 132/132/132
f 134/134/134 132/132/132 35/35/35
f 130/130/130 132/132/132 134/134/134
f 134/134/134 35/35/35 32/32/32
f 130/130/130 135/135/135 77/77/77
f 77/77/77 135/135/135 28/28/28
f 136/136/136 134/134/134 32/32/32
f 29/29/29 136/136/136 32/32/32
f 137/137/137 130/130/130 134/134/134
f 130/130/130 137/137/137 135/135/135
f 137/137/137 134/134/134 136/136/136
f 135/135/135 137/137/137 136/136/136
f 135/135/135 138/138/138 28/28/28
f 28/28/28 138/138/138 29/29/29
f 138/138/138 135/135/135 136/136/136
f 29/29/29 138/138/138 136/136/136
f 141/141/141 140/140/140 139/139/139
f 140/140/140 141/141/141 142/142/142
f 141/141/141 143/143/143 142/142/142
f 142/142/142 143/143/143 144/144/144
f 143/143/143 145/145/145 144/144/144
f 144/144/144 145/145/145 146/146/146
f 145/145/145 147/147/147 146/146/146
f 146/146/146 147/147/147 148/148/148
f 141/141/141 139/139/139 149/149/149
f 141/141/141 150/150/150 143/143/143
f 149/149/149 150/150/150 141/141/141
f 143/143/143 151/151/151 145/145/145
f 150/150/150 151/151/151 143/143/143
f 145/145/145 152/152/152 147/147/147
f 151/151/151 152/152/152 145/145/145
f 150/150/150 153/153/153 151/151/151
f 153/153/153 150/150/150 149/149/149
f 154/154/154 149/149/149 139/139/139
f 155/155/155 154/154/154 139/139/139
f 151/151/151 156/156/156 152/152/152
f 153/153/153 156/156/156 151/151/151
f 153/153/153 157/157/157 156/156/156
f 153/153/153 149/149/149 158/158/158
f 158/158/158 157/157/157 153/153/153
f 154/154/154 159/159/159 149/149/149
f 159/159/159 158/158/158 149/149/149
f 160/160/160 154/154/154 155/155/155
f 161/161/161 160/160/160 155/155/155
f 160/160/160 161/161/161 162/162/162
f 160/160/160 163/163/163 154/154/154
f 163/163/163 159/159/159 154/154/154
f 164/164/164 160/160/160 162/162/162
f 163/163/163 160/160/160 164/164/164
f 162/162/162 165/165/165 164/164/164
f 165/165/165 166/166/166 164/164/164
f 166/166/166 165/165/165 167/167/167
f 168/168/168 163/163/163 164/164/164
f 164/164/164 166/166/166 168/168/168
f 159/159/159 163/163/163 169/169/169
f 169/169/169 163/163/163 168/168/168
f 158/158/158 159/159/159 170/170/170
f 170/170/170 159/159/159 169/169/169
f 169/169/169 171/171/171 170/170/170
f 172/172/172 158/158/158 170/170/170
f 157/157/157 158/158/158 172/172/172
f 170/170/170 173/173/173 172/172/172
f 171/171/171 173/173/173 170/170/170
f 174/174/174 169/169/169 168/168/168
f 171/171/171 169/169/169 174/174/174
f 175/175/175 157/157/157 172/172/172
f 173/173/173 175/175/175 172/172/172
f 175/175/175 173/173/173 176/176/176
f 157/157/157 175/175/175 176/176/176
f 176/176/176 177/177/177 157/157/157
f 177/177/177 176/176/176 178/178/178
f 173/173/173 179/179/179 176/176/176
f 173/173/173 171/171/171 179/179/179
f 176/176/176 179/179/179 178/178/178
f 177/177/177 180/180/180 157/157/157
f 157/157/157 180/180/180 156/156/156
f 156/156/156 180/180/180 181/181/181
f 180/180/180 177/177/177 181/181/181
f 156/156/156 181/181/181 152/152/152
f 152/152/152 181/181/181 182/182/182
f 152/152/152 182/182/182 147/147/147
f 181/181/181 177/177/177 183/183/183
f 181/181/181 183/183/183 182/182/182
f 147/147/147 182/182/182 184/184/184
f 147/147/147 184/184/184 148/148/148
f 182/182/182 183/183/183 185/185/185
f 182/182/182 185/185/185 184/184/184
f 184/184/184 186/186/186 148/148/148
f 186/186/186 187/187/187 148/148/148
f 185/185/185 188/188/188 184/184/184
f 188/188/188 186/186/186 184/184/184
f 186/186/186 189/189/189 187/187/187
f 189/189/189 190/190/190 187/187/187
f 190/190/190 189/189/189 191/191/191
f 192/192/192 189/189/189 186/186/186
f 188/188/188 192/192/192 186/186/186
f 189/189/189 193/193/193 191/191/191
f 189/189/189 192/192/192 193/193/193
f 191/191/191 193/193/193 194/194/194
f 193/193/193 195/195/195 194/194/194
f 196/196/196 194/194/194 195/195/195
f 192/192/192 197/197/197 193/193/193
f 193/193/193 197/197/197 195/195/195
f 198/198/198 192/192/192 188/188/188
f 192/192/192 198/198/198 197/197/197
f 199/199/199 188/188/188 185/185/185
f 199/199/199 198/198/198 188/188/188
f 200/200/200 198/198/198 199/199/199
f 198/198/198 200/200/200 201/201/201
f 198/198/198 201/201/201 197/197/197
f 197/197/197 202/202/202 195/195/195
f 197/197/197 201/201/201 202/202/202
f 203/203/203 196/196/196 195/195/195
f 195/195/195 202/202/202 203/203/203
f 204/204/204 199/199/199 185/185/185
f 183/183/183 204/204/204 185/185/185
f 201/201/201 205/205/205 202/202/202
f 203/203/203 202/202/202 205/205/205
f 200/200/200 206/206/206 201/201/201
f 201/201/201 206/206/206 205/205/205
f 206/206/206 207/207/207 205/205/205
f 207/207/207 206/206/206 200/200/200
f 203/203/203 208/208/208 196/196/196
f 208/208/208 209/209/209 196/196/196
f 210/210/210 203/203/203 205/205/205
f 205/205/205 207/207/207 210/210/210
f 211/211/211 199/199/199 204/204/204
f 211/211/211 200/200/200 199/199/199
f 183/183/183 212/212/212 204/204/204
f 177/177/177 212/212/212 183/183/183
f 213/213/213 211/211/211 204/204/204
f 212/212/212 213/213/213 204/204/204
f 213/213/213 212/212/212 177/177/177
f 200/200/200 211/211/211 213/213/213
f 178/178/178 213/213/213 177/177/177
f 200/200/200 213/213/213 178/178/178
f 207/207/207 200/200/200 214/214/214
f 178/178/178 214/214/214 200/200/200
f 208/208/208 215/215/215 209/209/209
f 215/215/215 216/216/216 209/209/209
f 214/214/214 217/217/217 207/207/207
f 210/210/210 207/207/207 217/217/217
f 216/216/216 215/215/215 218/218/218
f 219/219/219 216/216/216 218/218/218
f 218/218/218 220/220/220 219/219/219
f 220/220/220 221/221/221 219/219/219
f 221/221/221 220/220/220 222/222/222
f 223/223/223 221/221/221 222/222/222
f 222/222/222 224/224/224 223/223/223
f 225/225/225 224/224/224 222/222/222
f 224/224/224 226/226/226 223/223/223
f 226/226/226 224/224/224 227/227/227
f 222/222/222 220/220/220 228/228/228
f 228/228/228 225/225/225 222/222/222
f 229/229/229 220/220/220 218/218/218
f 220/220/220 229/229/229 228/228/228
f 218/218/218 215/215/215 230/230/230
f 230/230/230 229/229/229 218/218/218
f 224/224/224 231/231/231 227/227/227
f 224/224/224 225/225/225 231/231/231
f 229/229/229 232/232/232 228/228/228
f 232/232/232 229/229/229 230/230/230
f 215/215/215 233/233/233 230/230/230
f 233/233/233 215/215/215 208/208/208
f 227/227/227 231/231/231 234/234/234
f 235/235/235 227/227/227 234/234/234
f 235/235/235 234/234/234 236/236/236
f 234/234/234 237/237/237 236/236/236
f 236/236/236 237/237/237 238/238/238
f 234/234/234 231/231/231 239/239/239
f 234/234/234 239/239/239 237/237/237
f 237/237/237 240/240/240 238/238/238
f 238/238/238 240/240/240 167/167/167
f 241/241/241 233/233/233 208/208/208
f 241/241/241 208/208/208 203/203/203
f 210/210/210 241/241/241 203/203/203
f 241/241/241 210/210/210 242/242/242
f 242/242/242 210/210/210 217/217/217
f 233/233/233 241/241/241 243/243/243
f 243/243/243 241/241/241 242/242/242
f 217/217/217 244/244/244 242/242/242
f 244/244/244 243/243/243 242/242/242
f 244/244/244 217/217/217 214/214/214
f 245/245/245 233/233/233 243/243/243
f 233/233/233 245/245/245 230/230/230
f 246/246/246 244/244/244 214/214/214
f 246/246/246 214/214/214 178/178/178
f 244/244/244 247/247/247 243/243/243
f 247/247/247 245/245/245 243/243/243
f 247/247/247 244/244/244 246/246/246
f 245/245/245 248/248/248 230/230/230
f 248/248/248 232/232/232 230/230/230
f 249/249/249 246/246/246 178/178/178
f 179/179/179 249/249/249 178/178/178
f 245/245/245 247/247/247 250/250/250
f 248/248/248 245/245/245 250/250/250
f 251/251/251 247/247/247 246/246/246
f 251/251/251 246/246/246 249/249/249
f 250/250/250 247/247/247 251/251/251
f 179/179/179 252/252/252 249/249/249
f 171/171/171 252/252/252 179/179/179
f 250/250/250 253/253/253 248/248/248
f 253/253/253 232/232/232 248/248/248
f 252/252/252 254/254/254 249/249/249
f 254/254/254 251/251/251 249/249/249
f 255/255/255 252/252/252 171/171/171
f 254/254/254 252/252/252 255/255/255
f 256/256/256 250/250/250 251/251/251
f 250/250/250 256/256/256 253/253/253
f 251/251/251 254/254/254 257/257/257
f 257/257/257 254/254/254 255/255/255
f 256/256/256 251/251/251 257/257/257
f 258/258/258 255/255/255 171/171/171
f 258/258/258 171/171/171 174/174/174
f 255/255/255 259/259/259 257/257/257
f 255/255/255 258/258/258 259/259/259
f 257/257/257 260/260/260 256/256/256
f 259/259/259 260/260/260 257/257/257
f 256/256/256 261/261/261 253/253/253
f 260/260/260 261/261/261 256/256/256
f 232/232/232 253/253/253 262/262/262
f 262/262/262 253/253/253 261/261/261
f 174/174/174 263/263/263 258/258/258
f 263/263/263 174/174/174 168/168/168
f 258/258/258 264/264/264 259/259/259
f 263/263/263 264/264/264 258/258/258
f 260/260/260 259/259/259 265/265/265
f 265/265/265 259/259/259 264/264/264
f 261/261/261 260/260/260 266/266/266
f 266/266/266 260/260/260 265/265/265
f 267/267/267 232/232/232 262/262/262
f 232/232/232 267/267/267 228/228/228
f 225/225/225 228/228/228 267/267/267
f 262/262/262 225/225/225 267/267/267
f 268/268/268 262/262/262 261/261/261
f 262/262/262 268/268/268 225/225/225
f 268/268/268 261/261/261 266/266/266
f 268/268/268 269/269/269 225/225/225
f 225/225/225 269/269/269 231/231/231
f 231/231/231 269/269/269 239/239/239
f 239/239/239 269/269/269 268/268/268
f 266/266/266 239/239/239 268/268/268
f 270/270/270 239/239/239 266/266/266
f 265/265/265 270/270/270 266/266/266
f 239/239/239 270/270/270 237/237/237
f 237/237/237 270/270/270 240/240/240
f 271/271/271 270/270/270 265/265/265
f 270/270/270 271/271/271 240/240/240
f 272/272/272 271/271/271 265/265/265
f 272/272/272 265/265/265 264/264/264
f 240/240/240 271/271/271 273/273/273
f 240/240/240 273/273/273 167/167/167
f 273/273/273 166/166/166 167/167/167
f 272/272/272 264/264/264 274/274/274
f 264/264/264 263/263/263 274/274/274
f 275/275/275 271/271/271 272/272/272
f 274/274/274 275/275/275 272/272/272
f 271/271/271 275/275/275 273/273/273
f 274/274/274 263/263/263 275/275/275
f 276/276/276 166/166/166 273/273/273
f 275/275/275 276/276/276 273/273/273
f 263/263/263 276/276/276 275/275/275
f 166/166/166 276/276/276 168/168/168
f 276/276/276 263/263/263 168/168/168
