g LampS_1
v -0.00338944746 -1.20698905E-05 3.39775079E-06
v -0.00289717573 0.00123682898 0.00115131098
v -0.00313144131 -6.87895954E-06 0.00120517262
v -0.00313144131 0.00128500501 -1.41178521E-06
v -0.00239670137 -2.47829985E-06 0.00222398806
v -0.00239670137 0.0023846121 -5.48911248E-06
v -0.00228410563 0.00102374516 0.00211585895
v -0.00124393054 0.00124344521 0.00268307491
v -0.00129708543 4.62126877E-07 0.00290473877
v -0 1.494667E-06 0.00314378645
v -0 0.00129753724 0.00289992918
v -0 0.0023942038 0.00221510115
v -0.00195689849 0.00195264455 0.00180924591
v -0.00228410563 0.0022761263 0.000946169253
v -0.00124393054 0.00289006089 0.0011451809
v -0.00129708543 0.00311934645 -8.21349568E-06
v -0 0.00337735051 -9.17017223E-06
v -0 0.00312453741 0.00119356124
v -0.00102668221 0.00228115846 0.00211119652
v -0.00338944746 -1.20698905E-05 3.39775079E-06
v -0.00289717573 -0.0012510122 0.00116053596
v -0.00313144131 -0.00130914489 8.20728656E-06
v -0.00313144131 -6.87895954E-06 0.00120517262
v -0.00239670137 -0.00239670137 0
v -0.00239670137 -2.47829985E-06 0.00222398806
v -0.00228410563 -0.00229204865 0.00096310809
v -0.00124393054 -0.00290424423 0.00116666616
v -0.00129708543 -0.00313144131 0
v -0 -0.00338944746 0
v -0 -0.00313829537 0.00121678377
v -0 -0.00239916029 0.00223287498
v -0.00195689849 -0.0019611211 0.00182375812
v -0.00228410563 -0.00102960295 0.00212347298
v -0.00124393054 -0.00124439597 0.00269229943
v -0.00129708543 4.62126877E-07 0.00290473877
v -0 1.494667E-06 0.00314378645
v -0 -0.0012966129 0.00290954811
v -0.00102668221 -0.00228701648 0.00212813518
v -0 -0.00338944746 0
v 0.00124393054 -0.00290424423 0.00116666616
v 0.00129708543 -0.00313144131 0
v -0 -0.00313829537 0.00121678377
v 0.00239670137 -0.00239670137 0
v -0 -0.00239916029 0.00223287498
v 0.00228410563 -0.00229204865 0.00096310809
v 0.00289717573 -0.0012510122 0.00116053596
v 0.00313144131 -0.00129708543 0
v 0.00338944746 0 0
v 0.00313144131 -6.87895954E-06 0.00120517262
v 0.00239670137 -2.47829985E-06 0.00222398806
v 0.00195689849 -0.0019611211 0.00182375812
v 0.00102668221 -0.00228701648 0.00212813518
v 0.00124393054 -0.00124439597 0.00269229943
v -0 -0.0012966129 0.00290954811
v -0 1.494667E-06 0.00314378645
v 0.00129708543 4.62126877E-07 0.00290473877
v 0.00228410563 -0.00102960295 0.00212347298
v 0.00338944746 0 0
v 0.00289717573 0.00123682898 0.00115131098
v 0.00313144131 0.00128500501 -1.41178521E-06
v 0.00313144131 -6.87895954E-06 0.00120517262
v 0.00239670137 0.0023846121 -5.48911248E-06
v 0.00239670137 -2.47829985E-06 0.00222398806
v 0.00228410563 0.0022761263 0.000946169253
v 0.00124393054 0.00289006089 0.0011451809
v 0.00129708543 0.00311934645 -8.21349568E-06
v -0 0.00337735051 -9.17017223E-06
v -0 0.00312453741 0.00119356124
v -0 0.0023942038 0.00221510115
v 0.00195689849 0.00195264455 0.00180924591
v 0.00228410563 0.00102374516 0.00211585895
v 0.00124393054 0.00124344521 0.00268307491
v 0.00129708543 4.62126877E-07 0.00290473877
v -0 1.494667E-06 0.00314378645
v -0 0.00129753724 0.00289992918
v 0.00102668221 0.00228115846 0.00211119652
v -0.00338944746 -1.20698905E-05 3.39775079E-06
v -0.00289717573 -0.00124393054 -0.00115253497
v -0.00313144131 0 -0.00120178447
v -0.00313144131 -0.00130914489 8.20728656E-06
v -0.00239670137 0 -0.00222060806
v -0.00239670137 -0.00239670137 0
v -0.00228410563 -0.00102668221 -0.00211628526
v -0.00124393054 -0.00124393054 -0.00268431124
v -0.00129708543 0 -0.00290136458
v -0 0 -0.0031404139
v -0 -0.00129708543 -0.00290136458
v -0 -0.00239670137 -0.00222060806
v -0.00195689849 -0.00195689849 -0.00181311881
v -0.00228410563 -0.00228410563 -0.000951248629
v -0.00124393054 -0.00289717573 -0.00115253497
v -0.00129708543 -0.00313144131 0
v -0 -0.00338944746 0
v -0 -0.00313144131 -0.00120178447
v -0.00102668221 -0.00228410563 -0.00211628526
v -0 0.00337735051 -9.17017223E-06
v -0.00124393054 0.00289717573 -0.00115253497
v -0 0.00313144131 -0.00120178447
v -0.00129708543 0.00311934645 -8.21349568E-06
v -0 0.00239670137 -0.00222060806
v -0.00239670137 0.0023846121 -5.48911248E-06
v -0.00102668221 0.00228410563 -0.00211628526
v -0.00124393054 0.00124393054 -0.00268431124
v -0 0.00129708543 -0.00290136458
v -0 0 -0.0031404139
v -0.00129708543 0 -0.00290136458
v -0.00239670137 0 -0.00222060806
v -0.00195689849 0.00195689849 -0.00181311881
v -0.00228410563 0.00228410563 -0.000951248629
v -0.00289717573 0.00124393054 -0.00115253497
v -0.00313144131 0.00128500501 -1.41178521E-06
v -0.00338944746 -1.20698905E-05 3.39775079E-06
v -0.00313144131 0 -0.00120178447
v -0.00228410563 0.00102668221 -0.00211628526
v 0.00338944746 0 0
v 0.00289717573 0.00124393054 -0.00115253497
v 0.00313144131 0 -0.00120178447
v 0.00313144131 0.00128500501 -1.41178521E-06
v 0.00239670137 0 -0.00222060806
v 0.00239670137 0.0023846121 -5.48911248E-06
v 0.00228410563 0.00102668221 -0.00211628526
v 0.00124393054 0.00124393054 -0.00268431124
v 0.00129708543 0 -0.00290136458
v -0 0 -0.0031404139
v -0 0.00129708543 -0.00290136458
v -0 0.00239670137 -0.00222060806
v 0.00195689849 0.00195689849 -0.00181311881
v 0.00228410563 0.00228410563 -0.000951248629
v 0.00124393054 0.00289717573 -0.00115253497
v 0.00129708543 0.00311934645 -8.21349568E-06
v -0 0.00337735051 -9.17017223E-06
v -0 0.00313144131 -0.00120178447
v 0.00102668221 0.00228410563 -0.00211628526
v -0 -0.00338944746 0
v 0.00124393054 -0.00289717573 -0.00115253497
v -0 -0.00313144131 -0.00120178447
v 0.00129708543 -0.00313144131 0
v -0 -0.00239670137 -0.00222060806
v 0.00239670137 -0.00239670137 0
v 0.00102668221 -0.00228410563 -0.00211628526
v 0.00124393054 -0.00124393054 -0.00268431124
v -0 -0.00129708543 -0.00290136458
v -0 0 -0.0031404139
v 0.00129708543 0 -0.00290136458
v 0.00239670137 0 -0.00222060806
v 0.00195689849 -0.00195689849 -0.00181311881
v 0.00228410563 -0.00228410563 -0.000951248629
v 0.00289717573 -0.00124393054 -0.00115253497
v 0.00313144131 -0.00129708543 0
v 0.00338944746 0 0
v 0.00313144131 0 -0.00120178447
v 0.00228410563 -0.00102668221 -0.00211628526
vt 0.467773438 0.21484375
vt 0.541992188 0.171264648
vt 0.487060547 0.150024414
vt 0.530273438 0.223876953
vt 0.520019531 0.0927734375
vt 0.583496094 0.231567383
vt 0.559570312 0.120910645
vt 0.604003906 0.0885009766
vt 0.563476562 0.0424499512
vt 0.616699219 0
vt 0.655761719 0.0558166504
vt 0.68359375 0.116333008
vt 0.595703125 0.147949219
vt 0.589355469 0.190307617
vt 0.640136719 0.185424805
vt 0.636230469 0.239135742
vt 0.698730469 0.248168945
vt 0.698730469 0.180664062
vt 0.637695312 0.132202148
vt 0.698730469 0.711425781
vt 0.640136719 0.6484375
vt 0.636230469 0.702148438
vt 0.698730469 0.643554688
vt 0.583496094 0.694824219
vt 0.68359375 0.579589844
vt 0.589355469 0.653320312
vt 0.541992188 0.634277344
vt 0.530273438 0.687011719
vt 0.467773438 0.677734375
vt 0.487060547 0.61328125
vt 0.520019531 0.555664062
vt 0.595703125 0.610839844
vt 0.637695312 0.595214844
vt 0.604003906 0.551757812
vt 0.655761719 0.519042969
vt 0.616699219 0.463134766
vt 0.563476562 0.505371094
vt 0.559570312 0.583984375
vt 0.930175781 0.711425781
vt 0.87109375 0.6484375
vt 0.8671875 0.702148438
vt 0.930175781 0.643554688
vt 0.814453125 0.694824219
vt 0.914550781 0.579589844
vt 0.8203125 0.653320312
vt 0.7734375 0.634277344
vt 0.76171875 0.687011719
vt 0.698730469 0.677734375
vt 0.718261719 0.61328125
vt 0.750976562 0.555664062
vt 0.826660156 0.610839844
vt 0.868652344 0.595214844
vt 0.834960938 0.551757812
vt 0.887207031 0.519042969
vt 0.84765625 0.463134766
vt 0.794433594 0.505371094
vt 0.790527344 0.583984375
vt 0.930175781 0.248168945
vt 0.87109375 0.185424805
vt 0.8671875 0.239135742
vt 0.930175781 0.180664062
vt 0.814453125 0.231567383
vt 0.914550781 0.116333008
vt 0.8203125 0.190307617
vt 0.7734375 0.171264648
vt 0.76171875 0.223876953
vt 0.698730469 0.21484375
vt 0.718261719 0.150024414
vt 0.750976562 0.0927734375
vt 0.826660156 0.147949219
vt 0.868652344 0.132202148
vt 0.834960938 0.0885009766
vt 0.887207031 0.0558166504
vt 0.84765625 0
vt 0.794433594 0.0424499512
vt 0.790527344 0.120910645
vt 0.467773438 0.21484375
vt 0.541992188 0.171264648
vt 0.487060547 0.150024414
vt 0.530273438 0.223876953
vt 0.520019531 0.0927734375
vt 0.583496094 0.231567383
vt 0.559570312 0.120910645
vt 0.604003906 0.0885009766
vt 0.563476562 0.0424499512
vt 0.616699219 0
vt 0.655761719 0.0558166504
vt 0.68359375 0.116333008
vt 0.595703125 0.147949219
vt 0.589355469 0.190307617
vt 0.640136719 0.185424805
vt 0.636230469 0.239135742
vt 0.698730469 0.248168945
vt 0.698730469 0.180664062
vt 0.637695312 0.132202148
vt 0.467773438 0.677734375
vt 0.541992188 0.634277344
vt 0.487060547 0.61328125
vt 0.530273438 0.687011719
vt 0.520019531 0.555664062
vt 0.583496094 0.694824219
vt 0.559570312 0.583984375
vt 0.604003906 0.551757812
vt 0.563476562 0.505371094
vt 0.616699219 0.463134766
vt 0.655761719 0.519042969
vt 0.68359375 0.579589844
vt 0.595703125 0.610839844
vt 0.589355469 0.653320312
vt 0.640136719 0.6484375
vt 0.636230469 0.702148438
vt 0.698730469 0.711425781
vt 0.698730469 0.643554688
vt 0.637695312 0.595214844
vt 0.698730469 0.677734375
vt 0.7734375 0.634277344
vt 0.718261719 0.61328125
vt 0.76171875 0.687011719
vt 0.750976562 0.555664062
vt 0.814453125 0.694824219
vt 0.790527344 0.583984375
vt 0.834960938 0.551757812
vt 0.794433594 0.505371094
vt 0.84765625 0.463134766
vt 0.887207031 0.519042969
vt 0.914550781 0.579589844
vt 0.826660156 0.610839844
vt 0.8203125 0.653320312
vt 0.87109375 0.6484375
vt 0.8671875 0.702148438
vt 0.930175781 0.711425781
vt 0.930175781 0.643554688
vt 0.868652344 0.595214844
vt 0.698730469 0.21484375
vt 0.7734375 0.171264648
vt 0.718261719 0.150024414
vt 0.76171875 0.223876953
vt 0.750976562 0.0927734375
vt 0.814453125 0.231567383
vt 0.790527344 0.120910645
vt 0.834960938 0.0885009766
vt 0.794433594 0.0424499512
vt 0.84765625 0
vt 0.887207031 0.0558166504
vt 0.914550781 0.116333008
vt 0.826660156 0.147949219
vt 0.8203125 0.190307617
vt 0.87109375 0.185424805
vt 0.8671875 0.239135742
vt 0.930175781 0.248168945
vt 0.930175781 0.180664062
vt 0.868652344 0.132202148
vn -1 -0.00066947937 0.000279903412
vn -0.856933594 0.353271484 0.375
vn -0.918457031 0.00148391724 0.395507812
vn -0.928222656 0.372314453 0.00098323822
vn -0.683105469 0.00272941589 0.73046875
vn -0.707519531 0.706542969 0.00187110901
vn -0.651367188 0.301025391 0.696289062
vn -0.336669922 0.340087891 0.877929688
vn -0.351806641 0.00349617004 0.936035156
vn -0 0.00374031067 1
vn -0 0.355224609 0.934570312
vn -0 0.686035156 0.727539062
vn -0.5625 0.564453125 0.604003906
vn -0.667480469 0.668457031 0.327636719
vn -0.351806641 0.858398438 0.372802734
vn -0.373046875 0.927734375 0.00209617615
vn -0 1 0.00191116333
vn -0 0.919921875 0.391601562
vn -0.298583984 0.654296875 0.694824219
vn -1 -0.00066947937 0.000279903412
vn -0.856933594 -0.351318359 0.376953125
vn -0.927246094 -0.374755859 -0.000381469727
vn -0.918457031 0.00148391724 0.395507812
vn -0.706542969 -0.708007812 -0.00332450867
vn -0.683105469 0.00272941589 0.73046875
vn -0.666992188 -0.668457031 0.329101562
vn -0.352050781 -0.857910156 0.374511719
vn -0.372802734 -0.927734375 -0.00394439697
vn -0 -1 -0.00394821167
vn -0 -0.919433594 0.393554688
vn -0 -0.680175781 0.732910156
vn -0.562011719 -0.560058594 0.608398438
vn -0.651367188 -0.295898438 0.698730469
vn -0.336669922 -0.333251953 0.880859375
vn -0.351806641 0.00349617004 0.936035156
vn -0 0.00374031067 1
vn -0 -0.348144531 0.9375
vn -0.298339844 -0.648925781 0.700195312
vn -0 -1 -0.00394821167
vn 0.352050781 -0.857910156 0.374511719
vn 0.372802734 -0.927734375 -0.00394439697
vn -0 -0.919433594 0.393554688
vn 0.707519531 -0.70703125 -0.00328636169
vn -0 -0.680175781 0.732910156
vn 0.66796875 -0.66796875 0.328125
vn 0.857421875 -0.351318359 0.375488281
vn 0.928222656 -0.372314453 -0.00179958344
vn 1 0.000975131989 -0.000269412994
vn 0.918945312 0.000906944275 0.395019531
vn 0.683105469 0.00272941589 0.73046875
vn 0.562011719 -0.560058594 0.608398438
vn 0.298339844 -0.648925781 0.700195312
vn 0.336669922 -0.333251953 0.880859375
vn -0 -0.348144531 0.9375
vn -0 0.00374031067 1
vn 0.351806641 0.00349617004 0.936035156
vn 0.651367188 -0.295898438 0.698730469
vn 1 0.000975131989 -0.000269412994
vn 0.856933594 0.353515625 0.375244141
vn 0.927734375 0.372802734 0.0010099411
vn 0.918945312 0.000906944275 0.395019531
vn 0.707519531 0.706542969 0.00187110901
vn 0.683105469 0.00272941589 0.73046875
vn 0.667480469 0.668457031 0.327636719
vn 0.351806641 0.858398438 0.372802734
vn 0.373046875 0.927734375 0.00209617615
vn -0 1 0.00191116333
vn -0 0.919921875 0.391601562
vn -0 0.686035156 0.727539062
vn 0.5625 0.564453125 0.604003906
vn 0.651367188 0.301025391 0.696289062
vn 0.336669922 0.340087891 0.877929688
vn 0.351806641 0.00349617004 0.936035156
vn -0 0.00374031067 1
vn -0 0.355224609 0.934570312
vn 0.298583984 0.654296875 0.694824219
vn -1 -0.00066947937 0.000279903412
vn -0.856933594 -0.351806641 -0.377197266
vn -0.918457031 0.000436067581 -0.395263672
vn -0.927246094 -0.374755859 -0.000381469727
vn -0.683105469 0 -0.73046875
vn -0.706542969 -0.708007812 -0.00332450867
vn -0.651367188 -0.298339844 -0.697265625
vn -0.336669922 -0.336669922 -0.879394531
vn -0.351806641 0 -0.936035156
vn -0 0 -1
vn -0 -0.351806641 -0.936035156
vn -0 -0.683105469 -0.73046875
vn -0.5625 -0.5625 -0.606445312
vn -0.666992188 -0.667480469 -0.331054688
vn -0.351806641 -0.856933594 -0.376464844
vn -0.372802734 -0.927734375 -0.00394439697
vn -0 -1 -0.00394821167
vn -0 -0.918457031 -0.395507812
vn -0.298339844 -0.651367188 -0.697265625
vn -0 1 0.00191116333
vn -0.352050781 0.858398438 -0.372558594
vn -0 0.919921875 -0.391601562
vn -0.373046875 0.927734375 0.00209617615
vn -0 0.683105469 -0.73046875
vn -0.707519531 0.706542969 0.00187110901
vn -0.298339844 0.651367188 -0.697265625
vn -0.336669922 0.336669922 -0.879394531
vn -0 0.351806641 -0.936035156
vn -0 0 -1
vn -0.351806641 0 -0.936035156
vn -0.683105469 0 -0.73046875
vn -0.5625 0.5625 -0.606445312
vn -0.66796875 0.668457031 -0.326904297
vn -0.857421875 0.352539062 -0.374755859
vn -0.928222656 0.372314453 0.00098323822
vn -1 -0.00066947937 0.000279903412
vn -0.918457031 0.000436067581 -0.395263672
vn -0.651367188 0.298339844 -0.697265625
vn 1 0.000975131989 -0.000269412994
vn 0.857421875 0.352783203 -0.375
vn 0.918457031 0.000207781792 -0.395263672
vn 0.927734375 0.372802734 0.0010099411
vn 0.683105469 0 -0.73046875
vn 0.707519531 0.706542969 0.00187110901
vn 0.651367188 0.298339844 -0.697265625
vn 0.336669922 0.336669922 -0.879394531
vn 0.351806641 0 -0.936035156
vn -0 0 -1
vn -0 0.351806641 -0.936035156
vn -0 0.683105469 -0.73046875
vn 0.5625 0.5625 -0.606445312
vn 0.66796875 0.668457031 -0.326904297
vn 0.352050781 0.858398438 -0.372558594
vn 0.373046875 0.927734375 0.00209617615
vn -0 1 0.00191116333
vn -0 0.919921875 -0.391601562
vn 0.298339844 0.651367188 -0.697265625
vn -0 -1 -0.00394821167
vn 0.351806641 -0.856933594 -0.376464844
vn -0 -0.918457031 -0.395507812
vn 0.372802734 -0.927734375 -0.00394439697
vn -0 -0.683105469 -0.73046875
vn 0.707519531 -0.70703125 -0.00328636169
vn 0.298339844 -0.651367188 -0.697265625
vn 0.336669922 -0.336669922 -0.879394531
vn -0 -0.351806641 -0.936035156
vn -0 0 -1
vn 0.351806641 0 -0.936035156
vn 0.683105469 0 -0.73046875
vn 0.5625 -0.5625 -0.606445312
vn 0.667480469 -0.667480469 -0.330566406
vn 0.856933594 -0.351806641 -0.376464844
vn 0.928222656 -0.372314453 -0.00179958344
vn 1 0.000975131989 -0.000269412994
vn 0.918457031 0.000207781792 -0.395263672
vn 0.651367188 -0.298339844 -0.697265625
g LampS_1_0
f 3/3/3 2/2/2 1/1/1
f 2/2/2 4/4/4 1/1/1
f 2/2/2 3/3/3 5/5/5
f 4/4/4 2/2/2 6/6/6
f 7/7/7 2/2/2 5/5/5
f 8/8/8 7/7/7 5/5/5
f 9/9/9 8/8/8 5/5/5
f 8/8/8 9/9/9 10/10/10
f 11/11/11 8/8/8 10/10/10
f 8/8/8 11/11/11 12/12/12
f 2/2/2 7/7/7 13/13/13
f 7/7/7 8/8/8 13/13/13
f 2/2/2 14/14/14 6/6/6
f 14/14/14 2/2/2 13/13/13
f 14/14/14 15/15/15 6/6/6
f 15/15/15 14/14/14 13/13/13
f 15/15/15 16/16/16 6/6/6
f 16/16/16 15/15/15 17/17/17
f 15/15/15 18/18/18 17/17/17
f 18/18/18 15/15/15 12/12/12
f 8/8/8 19/19/19 13/13/13
f 19/19/19 8/8/8 12/12/12
f 19/19/19 15/15/15 13/13/13
f 15/15/15 19/19/19 12/12/12
f 22/22/22 21/21/21 20/20/20
f 21/21/21 23/23/23 20/20/20
f 21/21/21 22/22/22 24/24/24
f 23/23/23 21/21/21 25/25/25
f 26/26/26 21/21/21 24/24/24
f 27/27/27 26/26/26 24/24/24
f 28/28/28 27/27/27 24/24/24
f 27/27/27 28/28/28 29/29/29
f 30/30/30 27/27/27 29/29/29
f 27/27/27 30/30/30 31/31/31
f 21/21/21 26/26/26 32/32/32
f 26/26/26 27/27/27 32/32/32
f 21/21/21 33/33/33 25/25/25
f 33/33/33 21/21/21 32/32/32
f 33/33/33 34/34/34 25/25/25
f 34/34/34 33/33/33 32/32/32
f 34/34/34 35/35/35 25/25/25
f 35/35/35 34/34/34 36/36/36
f 34/34/34 37/37/37 36/36/36
f 37/37/37 34/34/34 31/31/31
f 27/27/27 38/38/38 32/32/32
f 38/38/38 27/27/27 31/31/31
f 38/38/38 34/34/34 32/32/32
f 34/34/34 38/38/38 31/31/31
f 41/41/41 40/40/40 39/39/39
f 40/40/40 42/42/42 39/39/39
f 40/40/40 41/41/41 43/43/43
f 42/42/42 40/40/40 44/44/44
f 45/45/45 40/40/40 43/43/43
f 46/46/46 45/45/45 43/43/43
f 47/47/47 46/46/46 43/43/43
f 46/46/46 47/47/47 48/48/48
f 49/49/49 46/46/46 48/48/48
f 46/46/46 49/49/49 50/50/50
f 40/40/40 45/45/45 51/51/51
f 45/45/45 46/46/46 51/51/51
f 40/40/40 52/52/52 44/44/44
f 52/52/52 40/40/40 51/51/51
f 52/52/52 53/53/53 44/44/44
f 53/53/53 52/52/52 51/51/51
f 53/53/53 54/54/54 44/44/44
f 54/54/54 53/53/53 55/55/55
f 53/53/53 56/56/56 55/55/55
f 56/56/56 53/53/53 50/50/50
f 46/46/46 57/57/57 51/51/51
f 57/57/57 46/46/46 50/50/50
f 57/57/57 53/53/53 51/51/51
f 53/53/53 57/57/57 50/50/50
f 60/60/60 59/59/59 58/58/58
f 59/59/59 61/61/61 58/58/58
f 59/59/59 60/60/60 62/62/62
f 61/61/61 59/59/59 63/63/63
f 64/64/64 59/59/59 62/62/62
f 65/65/65 64/64/64 62/62/62
f 66/66/66 65/65/65 62/62/62
f 65/65/65 66/66/66 67/67/67
f 68/68/68 65/65/65 67/67/67
f 65/65/65 68/68/68 69/69/69
f 59/59/59 64/64/64 70/70/70
f 64/64/64 65/65/65 70/70/70
f 59/59/59 71/71/71 63/63/63
f 71/71/71 59/59/59 70/70/70
f 71/71/71 72/72/72 63/63/63
f 72/72/72 71/71/71 70/70/70
f 72/72/72 73/73/73 63/63/63
f 73/73/73 72/72/72 74/74/74
f 72/72/72 75/75/75 74/74/74
f 75/75/75 72/72/72 69/69/69
f 65/65/65 76/76/76 70/70/70
f 76/76/76 65/65/65 69/69/69
f 76/76/76 72/72/72 70/70/70
f 72/72/72 76/76/76 69/69/69
f 79/79/79 78/78/78 77/77/77
f 78/78/78 80/80/80 77/77/77
f 78/78/78 79/79/79 81/81/81
f 80/80/80 78/78/78 82/82/82
f 83/83/83 78/78/78 81/81/81
f 84/84/84 83/83/83 81/81/81
f 85/85/85 84/84/84 81/81/81
f 84/84/84 85/85/85 86/86/86
f 87/87/87 84/84/84 86/86/86
f 84/84/84 87/87/87 88/88/88
f 78/78/78 83/83/83 89/89/89
f 83/83/83 84/84/84 89/89/89
f 78/78/78 90/90/90 82/82/82
f 90/90/90 78/78/78 89/89/89
f 90/90/90 91/91/91 82/82/82
f 91/91/91 90/90/90 89/89/89
f 91/91/91 92/92/92 82/82/82
f 92/92/92 91/91/91 93/93/93
f 91/91/91 94/94/94 93/93/93
f 94/94/94 91/91/91 88/88/88
f 84/84/84 95/95/95 89/89/89
f 95/95/95 84/84/84 88/88/88
f 95/95/95 91/91/91 89/89/89
f 91/91/91 95/95/95 88/88/88
f 98/98/98 97/97/97 96/96/96
f 97/97/97 99/99/99 96/96/96
f 97/97/97 98/98/98 100/100/100
f 99/99/99 97/97/97 101/101/101
f 102/102/102 97/97/97 100/100/100
f 103/103/103 102/102/102 100/100/100
f 104/104/104 103/103/103 100/100/100
f 103/103/103 104/104/104 105/105/105
f 106/106/106 103/103/103 105/105/105
f 103/103/103 106/106/106 107/107/107
f 97/97/97 102/102/102 108/108/108
f 102/102/102 103/103/103 108/108/108
f 97/97/97 109/109/109 101/101/101
f 109/109/109 97/97/97 108/108/108
f 109/109/109 110/110/110 101/101/101
f 110/110/110 109/109/109 108/108/108
f 110/110/110 111/111/111 101/101/101
f 111/111/111 110/110/110 112/112/112
f 110/110/110 113/113/113 112/112/112
f 113/113/113 110/110/110 107/107/107
f 103/103/103 114/114/114 108/108/108
f 114/114/114 103/103/103 107/107/107
f 114/114/114 110/110/110 108/108/108
f 110/110/110 114/114/114 107/107/107
f 117/117/117 116/116/116 115/115/115
f 116/116/116 118/118/118 115/115/115
f 116/116/116 117/117/117 119/119/119
f 118/118/118 116/116/116 120/120/120
f 121/121/121 116/116/116 119/119/119
f 122/122/122 121/121/121 119/119/119
f 123/123/123 122/122/122 119/119/119
f 122/122/122 123/123/123 124/124/124
f 125/125/125 122/122/122 124/124/124
f 122/122/122 125/125/125 126/126/126
f 116/116/116 121/121/121 127/127/127
f 121/121/121 122/122/122 127/127/127
f 116/116/116 128/128/128 120/120/120
f 128/128/128 116/116/116 127/127/127
f 128/128/128 129/129/129 120/120/120
f 129/129/129 128/128/128 127/127/127
f 129/129/129 130/130/130 120/120/120
f 130/130/130 129/129/129 131/131/131
f 129/129/129 132/132/132 131/131/131
f 132/132/132 129/129/129 126/126/126
f 122/122/122 133/133/133 127/127/127
f 133/133/133 122/122/122 126/126/126
f 133/133/133 129/129/129 127/127/127
f 129/129/129 133/133/133 126/126/126
f 136/136/136 135/135/135 134/134/134
f 135/135/135 137/137/137 134/134/134
f 135/135/135 136/136/136 138/138/138
f 137/137/137 135/135/135 139/139/139
f 140/140/140 135/135/135 138/138/138
f 141/141/141 140/140/140 138/138/138
f 142/142/142 141/141/141 138/138/138
f 141/141/141 142/142/142 143/143/143
f 144/144/144 141/141/141 143/143/143
f 141/141/141 144/144/144 145/145/145
f 135/135/135 140/140/140 146/146/146
f 140/140/140 141/141/141 146/146/146
f 135/135/135 147/147/147 139/139/139
f 147/147/147 135/135/135 146/146/146
f 147/147/147 148/148/148 139/139/139
f 148/148/148 147/147/147 146/146/146
f 148/148/148 149/149/149 139/139/139
f 149/149/149 148/148/148 150/150/150
f 148/148/148 151/151/151 150/150/150
f 151/151/151 148/148/148 145/145/145
f 141/141/141 152/152/152 146/146/146
f 152/152/152 141/141/141 145/145/145
f 152/152/152 148/148/148 146/146/146
f 148/148/148 152/152/152 145/145/145
