g Muffin_01
v 0.134918317 0.0751938373 0.00514004333
v 0.154617563 -0.0024664572 0.00514125079
v 0.13286081 -0.0795755088 0.00513373315
v 0.0790366977 0.132609755 0.00513098342
v 0.0754519477 -0.135475859 0.0051343292
v 0.00192183116 0.154385775 0.00513109565
v -0.00222288608 -0.155196145 0.00512417406
v -0.0757497177 0.134687021 0.00513119204
v -0.0793482661 -0.133423567 0.00512253493
v -0.133165747 0.078791745 0.00513128936
v -0.135243282 -0.0759945065 0.00513140066
v -0.154941872 0.00167695933 0.00513136387
v 0.0790366977 0.132609755 0.00513098342
v 0.144619361 0.0800375566 -0.0105322301
v 0.134918317 0.0751938373 0.00514004333
v 0.0850288868 0.141669497 -0.0105760023
v 0.148815483 0.0822110549 -0.0202953592
v 0.0875636488 0.145628974 -0.0203039777
v 0.196808651 0.108945385 -0.203368068
v 0.16115886 0.155594438 -0.220013991
v 0.115801916 0.192819074 -0.203389734
v 0.195853382 0.108383261 -0.210306376
v 0.160795927 0.15514718 -0.22661531
v 0.190421805 0.105244488 -0.213443518
v 0.1152381 0.191788703 -0.210350752
v 0.156336918 0.15064761 -0.229475856
v 0.172554418 0.0947069228 -0.211870566
v 0.141956881 0.135968879 -0.227123469
v 0.167048424 0.0915138572 -0.209048957
v 0.112053402 0.186246127 -0.213446721
v 0.101980895 0.168380663 -0.211875468
v 0.137411833 0.13143751 -0.224122897
v 0.163292915 0.0893382356 -0.203342721
v 0.0987887532 0.162818223 -0.209076941
v 0.134182528 0.128309399 -0.218629241
v 0.0965838879 0.159034297 -0.203405321
v 0.112053402 0.186246127 -0.213446721
v 0.0614894368 0.214788616 -0.226638854
v 0.0598525554 0.208605841 -0.229467973
v 0.101980895 0.168380663 -0.211875468
v 0.0616096258 0.215398267 -0.220039159
v 0.115801916 0.192819074 -0.203389734
v 0.0036905068 0.224959373 -0.203399882
v 0.00279664714 0.169926807 -0.0203034207
v 0.0875636488 0.145628974 -0.0203039777
v 0.00258178287 0.165249884 -0.0106059909
v 0.0850288868 0.141669497 -0.0105760023
v 0.00192183116 0.154385775 0.00513109565
v 0.00371653656 0.223753199 -0.210365906
v 0.0547715165 0.188866571 -0.227136984
v 0.0987887532 0.162818223 -0.209076941
v 0.0037272661 0.217313454 -0.213443592
v 0.00391915347 0.196926624 -0.211882547
v 0.0531024821 0.18260406 -0.22414434
v 0.0965838879 0.159034297 -0.203405321
v 0.00393411005 0.190460235 -0.209089011
v 0.0519038774 0.178238079 -0.218661308
v 0.00391834509 0.186043009 -0.203420803
v 0.0037272661 0.217313454 -0.213443592
v -0.054324057 0.216803923 -0.226650536
v -0.0526456907 0.210594654 -0.229463264
v 0.00391915347 0.196926624 -0.211882547
v -0.0545302182 0.217417881 -0.220049396
v 0.0036905068 0.224959373 -0.203399882
v -0.109471299 0.196737155 -0.20340617
v -0.0827626139 0.148586094 -0.0203030705
v 0.00279664714 0.169926807 -0.0203034207
v -0.0806193799 0.144443601 -0.0106328651
v 0.00258178287 0.165249884 -0.0106059909
v -0.0757497177 0.134687021 0.00513119204
v -0.108836867 0.195687726 -0.2103751
v -0.0472236201 0.191044807 -0.227144882
v 0.00393411005 0.190460235 -0.209089011
v -0.105597608 0.190088227 -0.213441536
v -0.0953014642 0.172582954 -0.211887032
v -0.0455317236 0.184747934 -0.224153876
v 0.00391834509 0.186043009 -0.203420803
v -0.0920443013 0.166957542 -0.209097609
v -0.0443829112 0.180347115 -0.218671829
v -0.0898401514 0.163098872 -0.203434691
v -0.109471299 0.196737155 -0.20340617
v -0.156120881 0.161096156 -0.220056117
v -0.155624792 0.160654172 -0.226658002
v -0.105597608 0.190088227 -0.213441536
v -0.193361372 0.115715101 -0.203410521
v -0.146188945 0.087324962 -0.0203030035
v -0.0827626139 0.148586094 -0.0203030705
v -0.14227733 0.0848174468 -0.0106588528
v -0.0806193799 0.144443601 -0.0106328651
v -0.133165747 0.078791745 0.00513128936
v -0.192275763 0.115115143 -0.210381329
v -0.151054934 0.156094849 -0.229459971
v -0.136656642 0.141904816 -0.227150232
v -0.0953014642 0.172582954 -0.211887032
v -0.0920443013 0.166957542 -0.209097609
v -0.186656579 0.11187017 -0.213439897
v -0.169064656 0.101867281 -0.21189037
v -0.13203086 0.137274534 -0.224160492
v -0.0898401514 0.163098872 -0.203434691
v -0.163415805 0.0986037999 -0.209103793
v -0.128830448 0.134024411 -0.218679935
v -0.159566313 0.0963461176 -0.203445122
v -0.193361372 0.115715101 -0.203410521
v -0.215939462 0.06152457 -0.220061406
v -0.146188945 0.087324962 -0.0203030035
v -0.215277061 0.0613845475 -0.226663649
v -0.186656579 0.11187017 -0.213439897
v -0.225500941 0.00360235246 -0.203414381
v -0.170487165 0.00255815033 -0.0203032624
v -0.165865228 0.00234193588 -0.0106860539
v -0.14227733 0.0848174468 -0.0106588528
v -0.154941872 0.00167695933 0.00513136387
v -0.224248022 0.00362433447 -0.210386574
v -0.209024459 0.059710253 -0.229457006
v -0.217741847 0.00361847295 -0.213438123
v -0.189542726 0.0546121821 -0.227154687
v -0.169064656 0.101867281 -0.21189037
v -0.197592795 0.00372591452 -0.211893633
v -0.163415805 0.0986037999 -0.209103793
v -0.183205664 0.0529015958 -0.224165305
v -0.159566313 0.0963461176 -0.203445122
v -0.191049367 0.00371404435 -0.209108293
v -0.178801626 0.0516764 -0.218685374
v -0.186573103 0.00367108965 -0.20345071
v 0.13286081 -0.0795755088 0.00513373315
v 0.0819711983 -0.14438878 -0.0106797516
v 0.0754519477 -0.135475859 0.0051343292
v 0.142908469 -0.0840307325 -0.0106192157
v 0.0845747963 -0.148239627 -0.0203019753
v 0.147124335 -0.0860836804 -0.0203024521
v 0.194571853 -0.113616072 -0.203395307
v 0.111850068 -0.195833951 -0.203436613
v 0.157975376 -0.159527332 -0.220071882
v 0.111316405 -0.194608241 -0.210417822
v 0.157699004 -0.158834606 -0.226665601
v 0.193688899 -0.1127773 -0.210350245
v 0.108358659 -0.188681543 -0.213420346
v 0.15363732 -0.153741241 -0.229465485
v 0.188514397 -0.108955845 -0.213448822
v 0.100132413 -0.171280265 -0.211903527
v 0.172041208 -0.0956315771 -0.211876065
v 0.141161799 -0.136956498 -0.227151915
v 0.0967878699 -0.164885879 -0.209656596
v 0.136939868 -0.131863639 -0.224144012
v 0.0947091281 -0.16089493 -0.205272153
v 0.166802555 -0.0917943642 -0.209075391
v 0.133867323 -0.128574148 -0.218614876
v 0.16312401 -0.0893759727 -0.203382105
v 0.0754519477 -0.135475859 0.0051343292
v -0.00101254554 -0.166206285 -0.0107507249
v -0.00222288608 -0.155196145 0.00512417406
v 0.0819711983 -0.14438878 -0.0106797516
v -0.000684685539 -0.170798331 -0.0203121435
v 0.0845747963 -0.148239627 -0.0203019753
v 0.111850068 -0.195833951 -0.203436613
v -0.000912156829 -0.22567299 -0.203452528
v 0.0572005846 -0.217294171 -0.220116347
v -0.000894403085 -0.224248707 -0.210474446
v 0.0572245866 -0.216462404 -0.226707354
v 0.111316405 -0.194608241 -0.210417822
v -0.000846397132 -0.217464685 -0.213446036
v 0.0560851768 -0.209905684 -0.229415894
v 0.108358659 -0.188681543 -0.213420346
v -0.000690011308 -0.196959525 -0.211900741
v 0.0533010475 -0.191016644 -0.227220759
v 0.100132413 -0.171280265 -0.211903527
v -0.000633343589 -0.190247938 -0.209157214
v 0.0520803928 -0.184243739 -0.224290431
v -0.00058366498 -0.185656264 -0.203499466
v 0.0967878699 -0.164885879 -0.209656596
v 0.0510014519 -0.179414719 -0.218898118
v 0.0947091281 -0.16089493 -0.205272153
v -0.00222288608 -0.155196145 0.00512417406
v -0.0854071304 -0.142584085 -0.0107605457
v -0.0793482661 -0.133423567 0.00512253493
v -0.00101254554 -0.166206285 -0.0107507249
v -0.0878782645 -0.146437317 -0.0203132629
v -0.000684685539 -0.170798331 -0.0203121435
v -0.116241641 -0.193461031 -0.203426391
v -0.000912156829 -0.22567299 -0.203452528
v -0.0589445718 -0.216803923 -0.220142245
v -0.115605205 -0.192345098 -0.210393012
v -0.0589522235 -0.216097921 -0.226710364
v -0.000894403085 -0.224248707 -0.210474446
v -0.112329803 -0.186674595 -0.213428661
v -0.0577282906 -0.209604636 -0.229432255
v -0.000846397132 -0.217464685 -0.213446036
v -0.102496251 -0.169423938 -0.211910561
v -0.0546219759 -0.190224051 -0.227198884
v -0.000690011308 -0.196959525 -0.211900741
v -0.0991953909 -0.163715854 -0.209145099
v -0.0533260517 -0.183517948 -0.224284455
v -0.0968956053 -0.15981406 -0.203474894
v -0.000633343589 -0.190247938 -0.209157214
v -0.0521877408 -0.178722546 -0.218914121
v -0.00058366498 -0.185656264 -0.203499466
v -0.0793482661 -0.133423567 0.00512253493
v -0.145055354 -0.0808885172 -0.0107165426
v -0.135243282 -0.0759945065 0.00513140066
v -0.0854071304 -0.142584085 -0.0107605457
v -0.149146765 -0.0830013528 -0.0203037541
v -0.0878782645 -0.146437317 -0.0203132629
v -0.197278395 -0.109560087 -0.203419045
v -0.161624774 -0.156219587 -0.22008048
v -0.116241641 -0.193461031 -0.203426391
v -0.196190327 -0.108907327 -0.210392848
v -0.161154568 -0.155684844 -0.226679936
v -0.115605205 -0.192345098 -0.210393012
v -0.190533131 -0.10565123 -0.213435724
v -0.156547129 -0.151076362 -0.229448631
v -0.112329803 -0.186674595 -0.213428661
v -0.173232272 -0.0955548063 -0.211897746
v -0.14254275 -0.136944085 -0.227166653
v -0.102496251 -0.169423938 -0.211910561
v -0.167536139 -0.0922883749 -0.209112108
v -0.137849197 -0.13228412 -0.224174455
v -0.163621873 -0.0900915638 -0.203451186
v -0.0991953909 -0.163715854 -0.209145099
v -0.1345561 -0.129074827 -0.21868971
v -0.0968956053 -0.15981406 -0.203474894
v -0.135243282 -0.0759945065 0.00513140066
v -0.165865228 0.00234193588 -0.0106860539
v -0.154941872 0.00167695933 0.00513136387
v -0.145055354 -0.0808885172 -0.0107165426
v -0.170487165 0.00255815033 -0.0203032624
v -0.149146765 -0.0830013528 -0.0203037541
v -0.217957512 -0.054616373 -0.220067084
v -0.225500941 0.00360235246 -0.203414381
v -0.197278395 -0.109560087 -0.203419045
v -0.224248022 0.00362433447 -0.210386574
v -0.217300713 -0.0544044338 -0.226669356
v -0.196190327 -0.108907327 -0.210392848
v -0.217741847 0.00361847295 -0.213438123
v -0.21103023 -0.0527276881 -0.229453519
v -0.190533131 -0.10565123 -0.213435724
v -0.197592795 0.00372591452 -0.211893633
v -0.173232272 -0.0955548063 -0.211897746
v -0.191702038 -0.0474479422 -0.227159679
v -0.191049367 0.00371404435 -0.209108293
v -0.185337201 -0.0457628518 -0.224169463
v -0.186573103 0.00367108965 -0.20345071
v -0.167536139 -0.0922883749 -0.209112108
v -0.180897921 -0.0446276404 -0.218688324
v -0.163621873 -0.0900915638 -0.203451186
v -0.0898401514 0.163098872 -0.203434691
v -0.128830448 0.134024411 -0.218679935
v -0.159566313 0.0963461176 -0.203445122
v -0.115860485 0.0703027099 -0.058551304
v -0.0649383888 0.119055174 -0.0585495047
v 0.00391834509 0.186043009 -0.203420803
v -0.0443829112 0.180347115 -0.218671829
v -0.0898401514 0.163098872 -0.203434691
v -0.0649383888 0.119055174 -0.0585495047
v 0.00353633985 0.135813773 -0.0585471652
v 0.119814783 -0.0653408691 -0.0585422963
v 0.135344759 -0.000895779056 -0.0585340969
v 0.119958855 0.0651828349 -0.0585438423
v 0.0712147504 0.11609035 -0.0585449152
v 0.0690104589 -0.116131589 -0.0587373525
v 0.00353633985 0.135813773 -0.0585471652
v 0.000248973956 -0.135623664 -0.0585469417
v -0.0649383888 0.119055174 -0.0585495047
v -0.0700870901 -0.116767801 -0.0585534088
v -0.115860485 0.0703027099 -0.058551304
v -0.0944536403 -0.0913122147 -0.0585525297
v -0.118820168 -0.0658566505 -0.0585516579
v -0.135583118 0.00261966093 -0.0585520938
v 0.0965838879 0.159034297 -0.203405321
v 0.0519038774 0.178238079 -0.218661308
v 0.00391834509 0.186043009 -0.203420803
v 0.00353633985 0.135813773 -0.0585471652
v 0.0712147504 0.11609035 -0.0585449152
v 0.0712147504 0.11609035 -0.0585449152
v 0.119958855 0.0651828349 -0.0585438423
v 0.163292915 0.0893382356 -0.203342721
v 0.134182528 0.128309399 -0.218629241
v 0.0965838879 0.159034297 -0.203405321
v 0.177930221 0.051049158 -0.218512207
v 0.167048424 0.0915138572 -0.209048957
v 0.163292915 0.0893382356 -0.203342721
v 0.182156354 0.052056063 -0.224063292
v 0.184383482 -0.00113727106 -0.203352869
v 0.188700631 -0.00112229586 -0.209038079
v 0.172554418 0.0947069228 -0.211870566
v 0.188395798 0.0532729179 -0.227093741
v 0.195049599 -0.00110732601 -0.211837441
v 0.217595518 -0.0010563829 -0.213475674
v 0.20969291 0.0568049625 -0.229495615
v 0.190421805 0.105244488 -0.213443518
v 0.195853382 0.108383261 -0.210306376
v 0.215937302 0.0579541288 -0.226610601
v 0.196808651 0.108945385 -0.203368068
v 0.223945096 -0.00106804795 -0.21035549
v 0.216633394 0.0578881018 -0.219983786
v 0.148815483 0.0822110549 -0.0202953592
v 0.225105375 -0.00107052736 -0.203397378
v 0.170211405 -0.00099166506 -0.0202946514
v 0.144619361 0.0800375566 -0.0105322301
v 0.165491611 -0.00132265058 -0.0105474954
v 0.134918317 0.0751938373 0.00514004333
v 0.154617563 -0.0024664572 0.00514125079
v 0.142908469 -0.0840307325 -0.0106192157
v 0.165491611 -0.00132265058 -0.0105474954
v 0.147124335 -0.0860836804 -0.0203024521
v 0.170211405 -0.00099166506 -0.0202946514
v 0.216367483 -0.0591058619 -0.2200225
v 0.194571853 -0.113616072 -0.203395307
v 0.225105375 -0.00107052736 -0.203397378
v 0.193688899 -0.1127773 -0.210350245
v 0.21583806 -0.0588177778 -0.226637304
v 0.188514397 -0.108955845 -0.213448822
v 0.209782079 -0.0568215586 -0.229486555
v 0.217595518 -0.0010563829 -0.213475674
v 0.172041208 -0.0956315771 -0.211876065
v 0.190099061 -0.049922578 -0.227105573
v 0.195049599 -0.00110732601 -0.211837441
v 0.166802555 -0.0917943642 -0.209075391
v 0.183980629 -0.0479768887 -0.224117965
v 0.16312401 -0.0893759727 -0.203382105
v 0.188700631 -0.00112229586 -0.209038079
v 0.179627448 -0.046722047 -0.218655884
v 0.184383482 -0.00113727106 -0.203352869
v 0.135344759 -0.000895779056 -0.0585340969
v 0.184383482 -0.00113727106 -0.203352869
v 0.177930221 0.051049158 -0.218512207
v 0.119958855 0.0651828349 -0.0585438423
v 0.163292915 0.0893382356 -0.203342721
v 0.119814783 -0.0653408691 -0.0585422963
v 0.16312401 -0.0893759727 -0.203382105
v 0.179627448 -0.046722047 -0.218655884
v 0.135344759 -0.000895779056 -0.0585340969
v 0.184383482 -0.00113727106 -0.203352869
v 0.0947091281 -0.16089493 -0.205272153
v 0.133867323 -0.128574148 -0.218614876
v 0.16312401 -0.0893759727 -0.203382105
v 0.0690104589 -0.116131589 -0.0587373525
v 0.119814783 -0.0653408691 -0.0585422963
v -0.00058366498 -0.185656264 -0.203499466
v 0.0510014519 -0.179414719 -0.218898118
v 0.0947091281 -0.16089493 -0.205272153
v 0.0690104589 -0.116131589 -0.0587373525
v 0.000248973956 -0.135623664 -0.0585469417
v -0.0968956053 -0.15981406 -0.203474894
v -0.0521877408 -0.178722546 -0.218914121
v -0.00058366498 -0.185656264 -0.203499466
v 0.000248973956 -0.135623664 -0.0585469417
v -0.0700870901 -0.116767801 -0.0585534088
v -0.1345561 -0.129074827 -0.21868971
v -0.0968956053 -0.15981406 -0.203474894
v -0.0700870901 -0.116767801 -0.0585534088
v -0.163621873 -0.0900915638 -0.203451186
v -0.0944536403 -0.0913122147 -0.0585525297
v -0.118820168 -0.0658566505 -0.0585516579
v -0.180897921 -0.0446276404 -0.218688324
v -0.163621873 -0.0900915638 -0.203451186
v -0.118820168 -0.0658566505 -0.0585516579
v -0.135583118 0.00261966093 -0.0585520938
v -0.186573103 0.00367108965 -0.20345071
v -0.186573103 0.00367108965 -0.20345071
v -0.135583118 0.00261966093 -0.0585520938
v -0.115860485 0.0703027099 -0.058551304
v -0.178801626 0.0516764 -0.218685374
v -0.159566313 0.0963461176 -0.203445122
vt 0.922363281 0.832519531
vt 0.8828125 0.832519531
vt 0.848632812 0.852539062
vt 0.95703125 0.852050781
vt 0.829101562 0.88671875
vt 0.9765625 0.88671875
vt 0.829101562 0.926269531
vt 0.9765625 0.926269531
vt 0.848632812 0.960449219
vt 0.95703125 0.960449219
vt 0.8828125 0.98046875
vt 0.922363281 0.98046875
vt 0.138183594 0.336914062
vt 0.130981445 0.381103516
vt 0.140991211 0.379882812
vt 0.128173828 0.337158203
vt 0.125488281 0.381835938
vt 0.122680664 0.337402344
vt 0.0348205566 0.392578125
vt 0.025894165 0.366210938
vt 0.0304260254 0.339111328
vt 0.0314025879 0.393066406
vt 0.0231933594 0.366455078
vt 0.0276794434 0.393554688
vt 0.0269470215 0.339111328
vt 0.0203857422 0.366943359
vt 0.0152740479 0.395751953
vt 0.0125427246 0.367919922
vt 0.0112915039 0.396240234
vt 0.0231323242 0.339355469
vt 0.0105895996 0.339599609
vt 0.00914001465 0.368164062
vt 0.00729370117 0.396728516
vt 0.00656509399 0.33984375
vt 0.0055770874 0.368408203
vt 0.00252151489 0.340087891
vt 0.0231323242 0.339355469
vt 0.0215759277 0.311523438
vt 0.0187072754 0.311523438
vt 0.0105895996 0.339599609
vt 0.0243225098 0.311523438
vt 0.0304260254 0.339111328
vt 0.0317993164 0.284667969
vt 0.124389648 0.292724609
vt 0.122680664 0.337402344
vt 0.129882812 0.293212891
vt 0.128173828 0.337158203
vt 0.139892578 0.293945312
vt 0.0282745361 0.284423828
vt 0.0107650757 0.311767578
vt 0.00656509399 0.33984375
vt 0.0243988037 0.284179688
vt 0.0118865967 0.283203125
vt 0.00728988647 0.311767578
vt 0.00252151489 0.340087891
vt 0.00779342651 0.282958984
vt 0.00367927551 0.311767578
vt 0.00370597839 0.282714844
vt 0.0243988037 0.284179688
vt 0.0259094238 0.256103516
vt 0.0230102539 0.255859375
vt 0.0118865967 0.283203125
vt 0.0286407471 0.256591797
vt 0.0317993164 0.284667969
vt 0.0390319824 0.23046875
vt 0.130859375 0.248413086
vt 0.124389648 0.292724609
vt 0.136352539 0.249389648
vt 0.129882812 0.293212891
vt 0.146240234 0.251220703
vt 0.0355529785 0.229858398
vt 0.0150680542 0.255126953
vt 0.00779342651 0.282958984
vt 0.0317077637 0.229125977
vt 0.0193481445 0.226806641
vt 0.0115737915 0.254882812
vt 0.00370597839 0.282714844
vt 0.0152587891 0.226074219
vt 0.0079574585 0.254394531
vt 0.0111923218 0.225341797
vt 0.0390319824 0.23046875
vt 0.0390930176 0.202026367
vt 0.0363769531 0.201293945
vt 0.0317077637 0.229125977
vt 0.052520752 0.177001953
vt 0.142089844 0.204711914
vt 0.130859375 0.248413086
vt 0.147460938 0.206298828
vt 0.136352539 0.249389648
vt 0.157104492 0.209228516
vt 0.0490722656 0.17590332
vt 0.0335083008 0.200683594
vt 0.0256652832 0.19909668
vt 0.0193481445 0.226806641
vt 0.0152587891 0.226074219
vt 0.0452575684 0.174804688
vt 0.0331420898 0.171020508
vt 0.0221862793 0.198242188
vt 0.0111923218 0.225341797
vt 0.0290985107 0.169921875
vt 0.0186157227 0.197509766
vt 0.0250854492 0.168823242
vt 0.052520752 0.177001953
vt 0.0556640625 0.14831543
vt 0.142089844 0.204711914
vt 0.0530090332 0.147338867
vt 0.0452575684 0.174804688
vt 0.0719604492 0.124328613
vt 0.158447266 0.162475586
vt 0.163574219 0.164672852
vt 0.147460938 0.206298828
vt 0.172851562 0.168823242
vt 0.0686035156 0.12286377
vt 0.0501708984 0.146362305
vt 0.0648193359 0.121398926
vt 0.0424499512 0.143920898
vt 0.0331420898 0.171020508
vt 0.052947998 0.116333008
vt 0.0290985107 0.169921875
vt 0.0390319824 0.142700195
vt 0.0250854492 0.168823242
vt 0.0489501953 0.114807129
vt 0.0355224609 0.141479492
vt 0.0449829102 0.113220215
vt 0.158813477 0.462158203
vt 0.165283203 0.504394531
vt 0.174438477 0.500976562
vt 0.149291992 0.46484375
vt 0.160400391 0.506835938
vt 0.144165039 0.466308594
vt 0.0592651367 0.495361328
vt 0.0789794922 0.544921875
vt 0.0629272461 0.522949219
vt 0.0758056641 0.546386719
vt 0.0603942871 0.5234375
vt 0.0559387207 0.496337891
vt 0.0721435547 0.547851562
vt 0.0576171875 0.524414062
vt 0.0522155762 0.497314453
vt 0.0614929199 0.551757812
vt 0.0395202637 0.5
vt 0.0497741699 0.525878906
vt 0.0575256348 0.553222656
vt 0.0464172363 0.526855469
vt 0.0542907715 0.5546875
vt 0.0355224609 0.500976562
vt 0.0430603027 0.528320312
vt 0.0316467285 0.501953125
vt 0.174438477 0.500976562
vt 0.186279297 0.541992188
vt 0.194824219 0.537109375
vt 0.165283203 0.504394531
vt 0.181762695 0.544921875
vt 0.160400391 0.506835938
vt 0.0789794922 0.544921875
vt 0.102783203 0.59375
vt 0.084777832 0.572265625
vt 0.0995483398 0.595214844
vt 0.0823364258 0.573242188
vt 0.0758056641 0.546386719
vt 0.0959472656 0.597167969
vt 0.0795898438 0.57421875
vt 0.0721435547 0.547851562
vt 0.0847167969 0.603027344
vt 0.0725097656 0.576660156
vt 0.0614929199 0.551757812
vt 0.0809936523 0.604980469
vt 0.069152832 0.577636719
vt 0.0773925781 0.606445312
vt 0.0575256348 0.553222656
vt 0.0657958984 0.579101562
vt 0.0542907715 0.5546875
vt 0.194824219 0.537109375
vt 0.21472168 0.577636719
vt 0.221435547 0.569824219
vt 0.186279297 0.541992188
vt 0.21081543 0.581542969
vt 0.181762695 0.544921875
vt 0.130371094 0.64453125
vt 0.102783203 0.59375
vt 0.110046387 0.62109375
vt 0.126953125 0.645996094
vt 0.107666016 0.622558594
vt 0.0995483398 0.595214844
vt 0.123291016 0.647460938
vt 0.105163574 0.624023438
vt 0.0959472656 0.597167969
vt 0.112548828 0.653320312
vt 0.098815918 0.62890625
vt 0.0847167969 0.603027344
vt 0.109069824 0.655273438
vt 0.0958251953 0.630859375
vt 0.105834961 0.657714844
vt 0.0809936523 0.604980469
vt 0.092590332 0.6328125
vt 0.0773925781 0.606445312
vt 0.221313477 0.0974121094
vt 0.185302734 0.125488281
vt 0.193847656 0.130981445
vt 0.214111328 0.08984375
vt 0.180541992 0.122375488
vt 0.209960938 0.0858154297
vt 0.0974731445 0.0720214844
vt 0.105957031 0.0419311523
vt 0.127563477 0.0182037354
vt 0.0939941406 0.0702514648
vt 0.103271484 0.0404663086
vt 0.123779297 0.0165100098
vt 0.0901489258 0.0682983398
vt 0.100402832 0.0389404297
vt 0.119750977 0.0146179199
vt 0.0782470703 0.0621032715
vt 0.0927124023 0.0350952148
vt 0.107849121 0.00838470459
vt 0.07421875 0.0601806641
vt 0.0892333984 0.0332641602
vt 0.0702514648 0.0582275391
vt 0.103881836 0.00635910034
vt 0.0856933594 0.0313415527
vt 0.100280762 0.00374031067
vt 0.193847656 0.130981445
vt 0.163574219 0.164672852
vt 0.172851562 0.168823242
vt 0.185302734 0.125488281
vt 0.158447266 0.162475586
vt 0.180541992 0.122375488
vt 0.0780639648 0.0953369141
vt 0.0719604492 0.124328613
vt 0.0974731445 0.0720214844
vt 0.0686035156 0.12286377
vt 0.0754394531 0.0941162109
vt 0.0939941406 0.0702514648
vt 0.0648193359 0.121398926
vt 0.0726318359 0.0928344727
vt 0.0901489258 0.0682983398
vt 0.052947998 0.116333008
vt 0.0782470703 0.0621032715
vt 0.0650024414 0.0895996094
vt 0.0489501953 0.114807129
vt 0.0615844727 0.0880737305
vt 0.0449829102 0.113220215
vt 0.07421875 0.0601806641
vt 0.0581054688 0.0864868164
vt 0.0702514648 0.0582275391
vt 0.485839844 0.335693359
vt 0.48828125 0.360839844
vt 0.505371094 0.379150391
vt 0.571777344 0.342285156
vt 0.557617188 0.310546875
vt 0.474121094 0.289550781
vt 0.472167969 0.314453125
vt 0.485839844 0.335693359
vt 0.557617188 0.310546875
vt 0.548828125 0.276611328
vt 0.504882812 0.868652344
vt 0.477294922 0.886230469
vt 0.460205078 0.915039062
vt 0.460205078 0.949707031
vt 0.540527344 0.867675781
vt 0.477783203 0.979980469
vt 0.571777344 0.884277344
vt 0.5078125 0.997558594
vt 0.590332031 0.915039062
vt 0.54296875 0.997558594
vt 0.590332031 0.932617188
vt 0.590332031 0.949707031
vt 0.572753906 0.979980469
vt 0.470458984 0.241943359
vt 0.464111328 0.266357422
vt 0.474121094 0.289550781
vt 0.548828125 0.276611328
vt 0.545898438 0.241943359
vt 0.545898438 0.241943359
vt 0.549316406 0.207275391
vt 0.474609375 0.194458008
vt 0.464355469 0.217407227
vt 0.470458984 0.241943359
vt 0.0124053955 0.420654297
vt 0.0112915039 0.396240234
vt 0.00729370117 0.396728516
vt 0.0158996582 0.420166016
vt 0.0164337158 0.450439453
vt 0.0203094482 0.449707031
vt 0.0152740479 0.395751953
vt 0.019241333 0.419677734
vt 0.0241546631 0.448730469
vt 0.037322998 0.4453125
vt 0.0274047852 0.419433594
vt 0.0276794434 0.393554688
vt 0.0314025879 0.393066406
vt 0.0301971436 0.418945312
vt 0.0348205566 0.392578125
vt 0.0409851074 0.444580078
vt 0.0328674316 0.418701172
vt 0.125488281 0.381835938
vt 0.0442810059 0.443603516
vt 0.132568359 0.424316406
vt 0.130981445 0.381103516
vt 0.137939453 0.423339844
vt 0.140991211 0.379882812
vt 0.147705078 0.421630859
vt 0.149291992 0.46484375
vt 0.137939453 0.423339844
vt 0.144165039 0.466308594
vt 0.132568359 0.424316406
vt 0.0452880859 0.471435547
vt 0.0592651367 0.495361328
vt 0.0442810059 0.443603516
vt 0.0559387207 0.496337891
vt 0.0426330566 0.471923828
vt 0.0522155762 0.497314453
vt 0.039855957 0.47265625
vt 0.037322998 0.4453125
vt 0.0395202637 0.5
vt 0.0320129395 0.474121094
vt 0.0241546631 0.448730469
vt 0.0355224609 0.500976562
vt 0.0287017822 0.474853516
vt 0.0316467285 0.501953125
vt 0.0203094482 0.449707031
vt 0.0252685547 0.475830078
vt 0.0164337158 0.450439453
vt 0.557617188 0.174804688
vt 0.486328125 0.150024414
vt 0.472167969 0.172973633
vt 0.549316406 0.207275391
vt 0.474609375 0.194458008
vt 0.570800781 0.144775391
vt 0.504394531 0.108825684
vt 0.487792969 0.126220703
vt 0.557617188 0.174804688
vt 0.486328125 0.150024414
vt 0.530273438 0.0673828125
vt 0.510742188 0.0843505859
vt 0.504394531 0.108825684
vt 0.590332031 0.115112305
vt 0.570800781 0.144775391
vt 0.564453125 0.032623291
vt 0.540527344 0.0453491211
vt 0.530273438 0.0673828125
vt 0.590332031 0.115112305
vt 0.614746094 0.0893554688
vt 0.603515625 0.00299263
vt 0.579589844 0.0106430054
vt 0.564453125 0.032623291
vt 0.614746094 0.0893554688
vt 0.643066406 0.0677490234
vt 0.579589844 0.473876953
vt 0.603515625 0.481689453
vt 0.643066406 0.416992188
vt 0.564941406 0.453369141
vt 0.629394531 0.406738281
vt 0.615234375 0.396484375
vt 0.542480469 0.441650391
vt 0.564941406 0.453369141
vt 0.615234375 0.396484375
vt 0.591308594 0.37109375
vt 0.532226562 0.418945312
vt 0.532226562 0.418945312
vt 0.591308594 0.37109375
vt 0.571777344 0.342285156
vt 0.512207031 0.403564453
vt 0.505371094 0.379150391
vn 0.451171875 0.255371094 0.854980469
vn 0.518066406 -0.0112228394 0.85546875
vn 0.4453125 -0.268798828 0.854003906
vn 0.265380859 0.448242188 0.853515625
vn 0.251220703 -0.455322266 0.854003906
vn 0.00568771362 0.520996094 0.853515625
vn -0.011756897 -0.522949219 0.852539062
vn -0.255371094 0.453857422 0.853515625
vn -0.265625 -0.450927734 0.852050781
vn -0.448242188 0.265380859 0.853515625
vn -0.453857422 -0.255371094 0.853515625
vn -0.520507812 0.00568771362 0.853515625
vn 0.265380859 0.448242188 0.853515625
vn 0.628417969 0.608398438 0.484130859
vn 0.451171875 0.255371094 0.854980469
vn 0.627929688 0.607910156 0.485839844
vn 0.673828125 0.650878906 0.349853516
vn 0.673339844 0.650878906 0.350341797
vn 0.7578125 0.641601562 0.117675781
vn 0.717773438 0.694824219 0.0437927246
vn 0.667480469 0.735839844 0.116271973
vn 0.767089844 0.404541016 -0.497558594
vn 0.555664062 0.539550781 -0.6328125
vn 0.320068359 -0.0952758789 -0.942382812
vn 0.462646484 0.728027344 -0.506347656
vn 0.108703613 0.104797363 -0.988769531
vn -0.0311126709 -0.364257812 -0.930664062
vn -0.194580078 -0.190551758 -0.962402344
vn -0.355224609 -0.550292969 -0.755859375
vn -0.0897827148 0.316650391 -0.944335938
vn -0.369140625 -0.0222625732 -0.929199219
vn -0.434814453 -0.419189453 -0.796875
vn -0.616699219 -0.645996094 -0.449707031
vn -0.564453125 -0.330566406 -0.756347656
vn -0.625488281 -0.599609375 -0.499023438
vn -0.671875 -0.587402344 -0.451171875
vn 0.322753906 0.0718383789 -0.943847656
vn 0.210449219 0.740722656 -0.638183594
vn 0.0404663086 0.141113281 -0.989257812
vn 0.156005859 -0.328613281 -0.931640625
vn 0.274658203 0.960449219 0.039855957
vn 0.336914062 0.934570312 0.114257812
vn 0.209594727 0.971191406 0.114196777
vn 0.258056641 0.900390625 0.350341797
vn 0.258056641 0.900390625 0.349853516
vn 0.239868164 0.840820312 0.485595703
vn 0.240112305 0.841308594 0.483886719
vn 0.00568771362 0.520996094 0.853515625
vn 0.0380249023 0.859375 -0.509765625
vn -0.0729980469 -0.260253906 -0.962890625
vn -0.0300292969 -0.649902344 -0.759277344
vn -0.236694336 0.226074219 -0.944824219
vn -0.308349609 -0.202026367 -0.9296875
vn -0.165893555 -0.577148438 -0.799804688
vn -0.210205078 -0.866210938 -0.452880859
vn -0.323486328 -0.565429688 -0.758789062
vn -0.241455078 -0.830566406 -0.501953125
vn -0.288085938 -0.843261719 -0.453613281
vn 0.244018555 0.220825195 -0.944335938
vn -0.187255859 0.744140625 -0.641113281
vn -0.0350036621 0.14050293 -0.989257812
vn 0.299316406 -0.205200195 -0.931640625
vn -0.24230957 0.969238281 0.0377197266
vn -0.175170898 0.978027344 0.112731934
vn -0.304443359 0.945800781 0.112976074
vn -0.226806641 0.908691406 0.350341797
vn -0.226928711 0.909179688 0.349609375
vn -0.212646484 0.848144531 0.485351562
vn -0.212890625 0.849121094 0.483642578
vn -0.255371094 0.453857422 0.853515625
vn -0.436767578 0.742675781 -0.507324219
vn 0.0665893555 -0.260742188 -0.962890625
vn 0.299316406 -0.575195312 -0.761230469
vn -0.317382812 0.0755615234 -0.9453125
vn -0.166625977 -0.327880859 -0.9296875
vn 0.144287109 -0.580566406 -0.801269531
vn 0.251220703 -0.854003906 -0.455322266
vn 0.0013256073 -0.649414062 -0.760253906
vn 0.205810547 -0.838378906 -0.504394531
vn 0.171508789 -0.873535156 -0.456054688
vn -0.640625 0.759765625 0.111694336
vn -0.694824219 0.718261719 0.036315918
vn -0.533203125 0.549804688 -0.643066406
vn 0.102050781 0.312011719 -0.944824219
vn -0.736816406 0.666503906 0.112121582
vn -0.650878906 0.673828125 0.350097656
vn -0.650878906 0.673828125 0.349609375
vn -0.608398438 0.628417969 0.485107422
vn -0.608886719 0.62890625 0.483642578
vn -0.448242188 0.265380859 0.853515625
vn -0.72265625 0.462646484 -0.513671875
vn -0.099609375 0.103210449 -0.989746094
vn 0.18737793 -0.192016602 -0.963378906
vn 0.361572266 -0.0274047852 -0.932128906
vn 0.545898438 -0.346923828 -0.762695312
vn -0.311767578 -0.0941162109 -0.9453125
vn 0.0189056396 -0.366699219 -0.930175781
vn 0.4140625 -0.429443359 -0.802734375
vn 0.644042969 -0.61328125 -0.457275391
vn 0.324462891 -0.561035156 -0.76171875
vn 0.596679688 -0.622558594 -0.506347656
vn 0.584472656 -0.669921875 -0.457763672
vn -0.934570312 0.337890625 0.110839844
vn -0.9609375 0.274902344 0.0351867676
vn -0.900878906 0.258056641 0.349121094
vn -0.735351562 0.209350586 -0.64453125
vn -0.06640625 0.320800781 -0.944824219
vn -0.971679688 0.208862305 0.111328125
vn -0.900390625 0.258056641 0.349853516
vn -0.840820312 0.239990234 0.485107422
vn -0.841796875 0.240234375 0.483398438
vn -0.520507812 0.00568771362 0.853515625
vn -0.859375 -0.00833129883 -0.511230469
vn -0.13684082 0.039276123 -0.989746094
vn -0.221923828 -0.237548828 -0.945800781
vn 0.2578125 -0.0725708008 -0.963378906
vn 0.326416016 0.157226562 -0.932128906
vn 0.198974609 -0.308105469 -0.930175781
vn 0.645019531 -0.02684021 -0.763671875
vn 0.572265625 -0.164672852 -0.803222656
vn 0.863769531 -0.208496094 -0.458740234
vn 0.560058594 -0.323486328 -0.762695312
vn 0.827148438 -0.240600586 -0.507324219
vn 0.840332031 -0.288085938 -0.458740234
vn 0.4453125 -0.268798828 0.854003906
vn 0.61328125 -0.621582031 0.487304688
vn 0.251220703 -0.455322266 0.854003906
vn 0.615234375 -0.623046875 0.483154297
vn 0.66015625 -0.664550781 0.350097656
vn 0.66015625 -0.665039062 0.348632812
vn 0.747070312 -0.655761719 0.10925293
vn 0.651367188 -0.750976562 0.108642578
vn 0.702148438 -0.711425781 0.0333862305
vn 0.405273438 -0.755371094 -0.515136719
vn 0.532226562 -0.548339844 -0.645019531
vn 0.751953125 -0.406005859 -0.51953125
vn -0.109191895 -0.296142578 -0.948730469
vn 0.103820801 -0.102783203 -0.989257812
vn 0.32421875 0.0869750977 -0.941894531
vn -0.342529297 0.0262451172 -0.938964844
vn -0.0102081299 0.351318359 -0.936035156
vn -0.176391602 0.190673828 -0.965820312
vn -0.448730469 0.421875 -0.787597656
vn -0.421875 0.418945312 -0.804199219
vn -0.5859375 0.727050781 -0.358154297
vn -0.34765625 0.546875 -0.76171875
vn -0.625976562 0.598144531 -0.500488281
vn -0.618164062 0.643554688 -0.450927734
vn 0.251220703 -0.455322266 0.854003906
vn 0.220703125 -0.845214844 0.486816406
vn -0.011756897 -0.522949219 0.852539062
vn 0.221435547 -0.84765625 0.482421875
vn 0.239257812 -0.905761719 0.349609375
vn 0.239379883 -0.90625 0.348144531
vn 0.320800781 -0.94140625 0.10369873
vn 0.186401367 -0.977050781 0.101196289
vn 0.253173828 -0.967285156 0.0238800049
vn -0.0341186523 -0.84375 -0.536132812
vn 0.186523438 -0.729980469 -0.657226562
vn 0.448486328 -0.720214844 -0.529296875
vn -0.240966797 -0.193237305 -0.951171875
vn 0.0380249023 -0.130615234 -0.990722656
vn 0.320800781 -0.0715332031 -0.944335938
vn -0.288818359 0.208862305 -0.934570312
vn -0.049407959 0.246704102 -0.967773438
vn 0.166259766 0.280029297 -0.9453125
vn -0.289306641 0.556152344 -0.779296875
vn -0.129394531 0.556152344 -0.820800781
vn -0.254150391 0.845214844 -0.470214844
vn -0.0845336914 0.486328125 -0.869628906
vn -0.206787109 0.827636719 -0.521972656
vn -0.267089844 0.722167969 -0.638183594
vn -0.011756897 -0.522949219 0.852539062
vn -0.237426758 -0.847167969 0.475585938
vn -0.265625 -0.450927734 0.852050781
vn -0.237548828 -0.84765625 0.474121094
vn -0.252685547 -0.903808594 0.345703125
vn -0.252685547 -0.903808594 0.345214844
vn -0.331298828 -0.9375 0.108276367
vn -0.197998047 -0.974609375 0.104736328
vn -0.263427734 -0.964355469 0.0307312012
vn -0.451660156 -0.727050781 -0.517578125
vn -0.191040039 -0.733886719 -0.651855469
vn 0.0268554688 -0.846191406 -0.532226562
vn -0.313232422 -0.0767211914 -0.946777344
vn -0.0336914062 -0.132324219 -0.990722656
vn 0.239746094 -0.196533203 -0.950683594
vn -0.160888672 0.310058594 -0.937011719
vn 0.059173584 0.250488281 -0.966308594
vn 0.291259766 0.204711914 -0.934570312
vn 0.0127105713 0.627929688 -0.777832031
vn 0.141357422 0.55859375 -0.817382812
vn 0.189941406 0.86328125 -0.468017578
vn 0.296386719 0.552246094 -0.779296875
vn 0.218994141 0.824707031 -0.521484375
vn 0.265625 0.841308594 -0.470458984
vn -0.265625 -0.450927734 0.852050781
vn -0.629394531 -0.609375 0.482666016
vn -0.453857422 -0.255371094 0.853515625
vn -0.628417969 -0.608398438 0.484375
vn -0.674316406 -0.651367188 0.348388672
vn -0.673828125 -0.651367188 0.348876953
vn -0.760253906 -0.640136719 0.108825684
vn -0.718261719 -0.694824219 0.0321960449
vn -0.666503906 -0.737792969 0.108886719
vn -0.760742188 -0.392089844 -0.517578125
vn -0.546875 -0.530273438 -0.647949219
vn -0.419677734 -0.747070312 -0.515625
vn -0.308837891 0.104675293 -0.9453125
vn -0.100524902 -0.096862793 -0.990234375
vn 0.0966186523 -0.308837891 -0.946289062
vn 0.0264587402 0.360839844 -0.932128906
vn 0.191162109 0.186279297 -0.963867188
vn 0.364990234 0.0166778564 -0.930664062
vn 0.343994141 0.544433594 -0.765136719
vn 0.427490234 0.411621094 -0.805175781
vn 0.611816406 0.644042969 -0.459472656
vn 0.559082031 0.3203125 -0.764648438
vn 0.621582031 0.595703125 -0.508789062
vn 0.669921875 0.583007812 -0.459716797
vn -0.453857422 -0.255371094 0.853515625
vn -0.849121094 -0.212890625 0.483154297
vn -0.520507812 0.00568771362 0.853515625
vn -0.848632812 -0.212768555 0.484863281
vn -0.909179688 -0.226928711 0.348876953
vn -0.909179688 -0.226928711 0.349365234
vn -0.969726562 -0.24230957 0.0339355469
vn -0.978515625 -0.174560547 0.109985352
vn -0.945800781 -0.305175781 0.110412598
vn -0.855957031 0.0399780273 -0.515625
vn -0.740234375 -0.186035156 -0.645996094
vn -0.738769531 -0.437011719 -0.512695312
vn -0.216674805 0.244750977 -0.944824219
vn -0.136962891 -0.0341186523 -0.989746094
vn -0.0722045898 -0.31640625 -0.945800781
vn 0.203735352 0.299316406 -0.932128906
vn 0.325683594 -0.167602539 -0.930664062
vn 0.259277344 0.0659179688 -0.963378906
vn 0.571289062 0.299560547 -0.764160156
vn 0.577148438 0.143188477 -0.804199219
vn 0.852050781 0.251464844 -0.459472656
vn 0.645996094 -0.000603199005 -0.763183594
vn 0.836425781 0.205200195 -0.508300781
vn 0.871582031 0.170654297 -0.459228516
vn 0.644042969 -0.61328125 -0.457275391
vn 0.596679688 -0.622558594 -0.506347656
vn 0.584472656 -0.669921875 -0.457763672
vn 0.762695312 -0.521484375 -0.3828125
vn 0.558105469 -0.661132812 -0.501464844
vn 0.251220703 -0.854003906 -0.455322266
vn 0.205810547 -0.838378906 -0.504394531
vn 0.171508789 -0.873535156 -0.456054688
vn 0.399658203 -0.833496094 -0.380859375
vn 0.152709961 -0.852539062 -0.499755859
vn -0.0610961914 0.192504883 -0.979492188
vn -0.125976562 0.126831055 -0.983886719
vn -0.202758789 0.0505065918 -0.978027344
vn -0.195800781 -0.0548400879 -0.979003906
vn -0.0202178955 0.170532227 -0.985351562
vn -0.141967773 -0.145019531 -0.979003906
vn 0.141479492 0.152954102 -0.978027344
vn -0.0502624512 -0.196289062 -0.979492188
vn 0.203735352 0.0612792969 -0.977050781
vn 0.0547790527 -0.194946289 -0.979492188
vn 0.0159301758 -8.36849213E-05 -1
vn 0.196533203 -0.0495910645 -0.979003906
vn 0.145141602 -0.141235352 -0.979492188
vn -0.210205078 -0.866210938 -0.452880859
vn -0.241455078 -0.830566406 -0.501953125
vn -0.288085938 -0.843261719 -0.453613281
vn -0.0706176758 -0.922851562 -0.379150391
vn -0.294433594 -0.815429688 -0.498046875
vn -0.522460938 -0.764648438 -0.377441406
vn -0.663085938 -0.556152344 -0.500976562
vn -0.616699219 -0.645996094 -0.449707031
vn -0.625488281 -0.599609375 -0.499023438
vn -0.671875 -0.587402344 -0.451171875
vn -0.849609375 -0.190429688 -0.491943359
vn -0.670410156 0.0254364014 -0.741699219
vn -0.884765625 -0.158813477 -0.438476562
vn -0.599609375 -0.117797852 -0.791503906
vn -0.861816406 -0.240478516 -0.446289062
vn -0.592285156 -0.286621094 -0.753417969
vn -0.333740234 0.202636719 -0.920410156
vn -0.272705078 -0.0383605957 -0.961425781
vn -0.220336914 -0.288085938 -0.931640625
vn 0.219360352 -0.232666016 -0.947265625
vn 0.143188477 0.0544128418 -0.98828125
vn 0.0865478516 0.349365234 -0.933105469
vn 0.74609375 0.453369141 -0.487304688
vn 0.746582031 0.198364258 -0.635253906
vn 0.942871094 0.311279297 0.11895752
vn 0.860839844 -0.0210571289 -0.508300781
vn 0.967285156 0.250732422 0.0395812988
vn 0.90625 0.232910156 0.353027344
vn 0.976074219 0.185546875 0.111877441
vn 0.905761719 0.232788086 0.353515625
vn 0.842773438 0.215820312 0.493164062
vn 0.842285156 0.215576172 0.494384766
vn 0.451171875 0.255371094 0.854980469
vn 0.518066406 -0.0112228394 0.85546875
vn 0.841796875 -0.231323242 0.487548828
vn 0.844238281 -0.231811523 0.483398438
vn 0.903808594 -0.245605469 0.350585938
vn 0.904296875 -0.245727539 0.349121094
vn 0.963867188 -0.262695312 0.0423583984
vn 0.939453125 -0.321777344 0.118347168
vn 0.973632812 -0.196289062 0.116271973
vn 0.748046875 -0.451660156 -0.486083984
vn 0.742675781 -0.205932617 -0.637207031
vn 0.0722045898 -0.323730469 -0.943359375
vn 0.135375977 -0.0370788574 -0.990234375
vn 0.238037109 0.240356445 -0.940917969
vn -0.346435547 -0.164916992 -0.923339844
vn -0.270263672 0.0755004883 -0.959960938
vn -0.201782227 0.306884766 -0.930175781
vn -0.659179688 -0.000385522842 -0.751953125
vn -0.586914062 0.149414062 -0.795410156
vn -0.877441406 0.169677734 -0.448730469
vn -0.580078125 0.302978516 -0.755859375
vn -0.841308594 0.204711914 -0.500488281
vn -0.858398438 0.249145508 -0.448242188
vn -0.867675781 -0.153930664 -0.473144531
vn -0.861816406 -0.240478516 -0.446289062
vn -0.849609375 -0.190429688 -0.491943359
vn -0.837402344 -0.395751953 -0.377441406
vn -0.884765625 -0.158813477 -0.438476562
vn -0.831054688 0.25390625 -0.494628906
vn -0.877441406 0.169677734 -0.448730469
vn -0.841308594 0.204711914 -0.500488281
vn -0.928710938 0.0508117676 -0.367675781
vn -0.858398438 0.249145508 -0.448242188
vn -0.5859375 0.727050781 -0.358154297
vn -0.625976562 0.598144531 -0.500488281
vn -0.618164062 0.643554688 -0.450927734
vn -0.575195312 0.676269531 -0.460449219
vn -0.778808594 0.5 -0.379150391
vn -0.254150391 0.845214844 -0.470214844
vn -0.206787109 0.827636719 -0.521972656
vn -0.267089844 0.722167969 -0.638183594
vn -0.377441406 0.831542969 -0.407714844
vn -0.176025391 0.843261719 -0.507324219
vn 0.189941406 0.86328125 -0.468017578
vn 0.218994141 0.824707031 -0.521484375
vn 0.265625 0.841308594 -0.470458984
vn 0.0448913574 0.922851562 -0.382324219
vn 0.274902344 0.815429688 -0.509277344
vn 0.621582031 0.595703125 -0.508789062
vn 0.669921875 0.583007812 -0.459716797
vn 0.512695312 0.767089844 -0.385498047
vn 0.611816406 0.644042969 -0.459472656
vn 0.672851562 0.659667969 -0.334228516
vn 0.660644531 0.55859375 -0.501953125
vn 0.836425781 0.205200195 -0.508300781
vn 0.871582031 0.170654297 -0.459228516
vn 0.832519531 0.399414062 -0.384033203
vn 0.851074219 0.153198242 -0.502441406
vn 0.852050781 0.251464844 -0.459472656
vn 0.840332031 -0.288085938 -0.458740234
vn 0.920898438 -0.0703735352 -0.383789062
vn 0.813476562 -0.293212891 -0.502441406
vn 0.827148438 -0.240600586 -0.507324219
vn 0.863769531 -0.208496094 -0.458740234
g Muffin_01_0
f 3/3/3 2/2/2 1/1/1
f 1/1/1 4/4/4 3/3/3
f 4/4/4 5/5/5 3/3/3
f 4/4/4 6/6/6 5/5/5
f 6/6/6 7/7/7 5/5/5
f 6/6/6 8/8/8 7/7/7
f 8/8/8 9/9/9 7/7/7
f 8/8/8 10/10/10 9/9/9
f 10/10/10 11/11/11 9/9/9
f 10/10/10 12/12/12 11/11/11
f 15/15/15 14/14/14 13/13/13
f 14/14/14 16/16/16 13/13/13
f 16/16/16 14/14/14 17/17/17
f 18/18/18 16/16/16 17/17/17
f 18/18/18 17/17/17 19/19/19
f 19/19/19 20/20/20 18/18/18
f 20/20/20 21/21/21 18/18/18
f 20/20/20 19/19/19 22/22/22
f 21/21/21 20/20/20 23/23/23
f 23/23/23 20/20/20 22/22/22
f 23/23/23 22/22/22 24/24/24
f 25/25/25 21/21/21 23/23/23
f 26/26/26 23/23/23 24/24/24
f 25/25/25 23/23/23 26/26/26
f 26/26/26 24/24/24 27/27/27
f 28/28/28 26/26/26 27/27/27
f 28/28/28 27/27/27 29/29/29
f 30/30/30 25/25/25 26/26/26
f 30/30/30 26/26/26 28/28/28
f 31/31/31 30/30/30 28/28/28
f 32/32/32 28/28/28 29/29/29
f 31/31/31 28/28/28 32/32/32
f 32/32/32 29/29/29 33/33/33
f 34/34/34 31/31/31 32/32/32
f 35/35/35 32/32/32 33/33/33
f 34/34/34 32/32/32 35/35/35
f 36/36/36 34/34/34 35/35/35
f 38/38/38 25/25/25 37/37/37
f 39/39/39 38/38/38 37/37/37
f 39/39/39 37/37/37 40/40/40
f 38/38/38 41/41/41 25/25/25
f 41/41/41 42/42/42 25/25/25
f 43/43/43 41/41/41 38/38/38
f 42/42/42 41/41/41 43/43/43
f 43/43/43 44/44/44 42/42/42
f 44/44/44 45/45/45 42/42/42
f 44/44/44 46/46/46 45/45/45
f 46/46/46 47/47/47 45/45/45
f 47/47/47 46/46/46 48/48/48
f 13/13/13 47/47/47 48/48/48
f 49/49/49 43/43/43 38/38/38
f 49/49/49 38/38/38 39/39/39
f 50/50/50 39/39/39 40/40/40
f 50/50/50 40/40/40 51/51/51
f 52/52/52 49/49/49 39/39/39
f 52/52/52 39/39/39 50/50/50
f 53/53/53 52/52/52 50/50/50
f 54/54/54 50/50/50 51/51/51
f 53/53/53 50/50/50 54/54/54
f 54/54/54 51/51/51 55/55/55
f 56/56/56 53/53/53 54/54/54
f 57/57/57 54/54/54 55/55/55
f 56/56/56 54/54/54 57/57/57
f 58/58/58 56/56/56 57/57/57
f 60/60/60 49/49/49 59/59/59
f 61/61/61 60/60/60 59/59/59
f 61/61/61 59/59/59 62/62/62
f 60/60/60 63/63/63 49/49/49
f 63/63/63 64/64/64 49/49/49
f 65/65/65 63/63/63 60/60/60
f 64/64/64 63/63/63 65/65/65
f 65/65/65 66/66/66 64/64/64
f 66/66/66 67/67/67 64/64/64
f 66/66/66 68/68/68 67/67/67
f 68/68/68 69/69/69 67/67/67
f 69/69/69 68/68/68 70/70/70
f 48/48/48 69/69/69 70/70/70
f 71/71/71 65/65/65 60/60/60
f 71/71/71 60/60/60 61/61/61
f 72/72/72 61/61/61 62/62/62
f 72/72/72 62/62/62 73/73/73
f 74/74/74 71/71/71 61/61/61
f 74/74/74 61/61/61 72/72/72
f 75/75/75 74/74/74 72/72/72
f 76/76/76 72/72/72 73/73/73
f 75/75/75 72/72/72 76/76/76
f 76/76/76 73/73/73 77/77/77
f 78/78/78 75/75/75 76/76/76
f 79/79/79 76/76/76 77/77/77
f 78/78/78 76/76/76 79/79/79
f 80/80/80 78/78/78 79/79/79
f 82/82/82 81/81/81 71/71/71
f 83/83/83 82/82/82 71/71/71
f 83/83/83 71/71/71 84/84/84
f 81/81/81 82/82/82 85/85/85
f 85/85/85 82/82/82 83/83/83
f 85/85/85 86/86/86 81/81/81
f 86/86/86 87/87/87 81/81/81
f 86/86/86 88/88/88 87/87/87
f 88/88/88 89/89/89 87/87/87
f 89/89/89 88/88/88 90/90/90
f 70/70/70 89/89/89 90/90/90
f 91/91/91 85/85/85 83/83/83
f 92/92/92 83/83/83 84/84/84
f 91/91/91 83/83/83 92/92/92
f 93/93/93 92/92/92 84/84/84
f 94/94/94 93/93/93 84/84/84
f 93/93/93 94/94/94 95/95/95
f 96/96/96 91/91/91 92/92/92
f 96/96/96 92/92/92 93/93/93
f 97/97/97 96/96/96 93/93/93
f 98/98/98 93/93/93 95/95/95
f 97/97/97 93/93/93 98/98/98
f 98/98/98 95/95/95 99/99/99
f 100/100/100 97/97/97 98/98/98
f 101/101/101 98/98/98 99/99/99
f 100/100/100 98/98/98 101/101/101
f 102/102/102 100/100/100 101/101/101
f 104/104/104 103/103/103 91/91/91
f 105/105/105 103/103/103 104/104/104
f 106/106/106 104/104/104 91/91/91
f 106/106/106 91/91/91 107/107/107
f 105/105/105 104/104/104 108/108/108
f 108/108/108 104/104/104 106/106/106
f 108/108/108 109/109/109 105/105/105
f 109/109/109 110/110/110 105/105/105
f 110/110/110 111/111/111 105/105/105
f 111/111/111 110/110/110 112/112/112
f 90/90/90 111/111/111 112/112/112
f 113/113/113 108/108/108 106/106/106
f 113/113/113 106/106/106 114/114/114
f 114/114/114 106/106/106 107/107/107
f 115/115/115 113/113/113 114/114/114
f 116/116/116 114/114/114 107/107/107
f 115/115/115 114/114/114 116/116/116
f 117/117/117 116/116/116 107/107/107
f 118/118/118 115/115/115 116/116/116
f 116/116/116 117/117/117 119/119/119
f 118/118/118 116/116/116 120/120/120
f 120/120/120 116/116/116 119/119/119
f 120/120/120 119/119/119 121/121/121
f 122/122/122 118/118/118 120/120/120
f 123/123/123 120/120/120 121/121/121
f 122/122/122 120/120/120 123/123/123
f 124/124/124 122/122/122 123/123/123
f 127/127/127 126/126/126 125/125/125
f 126/126/126 128/128/128 125/125/125
f 128/128/128 126/126/126 129/129/129
f 130/130/130 128/128/128 129/129/129
f 131/131/131 130/130/130 129/129/129
f 131/131/131 129/129/129 132/132/132
f 132/132/132 133/133/133 131/131/131
f 133/133/133 132/132/132 134/134/134
f 131/131/131 133/133/133 135/135/135
f 135/135/135 133/133/133 134/134/134
f 136/136/136 131/131/131 135/135/135
f 135/135/135 134/134/134 137/137/137
f 136/136/136 135/135/135 138/138/138
f 138/138/138 135/135/135 137/137/137
f 139/139/139 136/136/136 138/138/138
f 138/138/138 137/137/137 140/140/140
f 141/141/141 139/139/139 138/138/138
f 142/142/142 138/138/138 140/140/140
f 142/142/142 141/141/141 138/138/138
f 142/142/142 140/140/140 143/143/143
f 141/141/141 142/142/142 144/144/144
f 144/144/144 142/142/142 143/143/143
f 144/144/144 143/143/143 145/145/145
f 146/146/146 141/141/141 144/144/144
f 147/147/147 144/144/144 145/145/145
f 146/146/146 144/144/144 147/147/147
f 148/148/148 146/146/146 147/147/147
f 151/151/151 150/150/150 149/149/149
f 150/150/150 152/152/152 149/149/149
f 150/150/150 153/153/153 152/152/152
f 153/153/153 154/154/154 152/152/152
f 155/155/155 154/154/154 153/153/153
f 155/155/155 153/153/153 156/156/156
f 156/156/156 157/157/157 155/155/155
f 156/156/156 158/158/158 157/157/157
f 157/157/157 159/159/159 155/155/155
f 158/158/158 159/159/159 157/157/157
f 159/159/159 160/160/160 155/155/155
f 158/158/158 161/161/161 159/159/159
f 159/159/159 162/162/162 160/160/160
f 161/161/161 162/162/162 159/159/159
f 162/162/162 163/163/163 160/160/160
f 162/162/162 161/161/161 164/164/164
f 163/163/163 162/162/162 165/165/165
f 165/165/165 162/162/162 164/164/164
f 166/166/166 163/163/163 165/165/165
f 165/165/165 164/164/164 167/167/167
f 166/166/166 165/165/165 168/168/168
f 168/168/168 165/165/165 167/167/167
f 168/168/168 167/167/167 169/169/169
f 170/170/170 166/166/166 168/168/168
f 171/171/171 168/168/168 169/169/169
f 170/170/170 168/168/168 171/171/171
f 172/172/172 170/170/170 171/171/171
f 175/175/175 174/174/174 173/173/173
f 174/174/174 176/176/176 173/173/173
f 176/176/176 174/174/174 177/177/177
f 178/178/178 176/176/176 177/177/177
f 178/178/178 177/177/177 179/179/179
f 180/180/180 178/178/178 179/179/179
f 179/179/179 181/181/181 180/180/180
f 181/181/181 179/179/179 182/182/182
f 180/180/180 181/181/181 183/183/183
f 183/183/183 181/181/181 182/182/182
f 184/184/184 180/180/180 183/183/183
f 183/183/183 182/182/182 185/185/185
f 184/184/184 183/183/183 186/186/186
f 186/186/186 183/183/183 185/185/185
f 187/187/187 184/184/184 186/186/186
f 186/186/186 185/185/185 188/188/188
f 187/187/187 186/186/186 189/189/189
f 189/189/189 186/186/186 188/188/188
f 190/190/190 187/187/187 189/189/189
f 189/189/189 188/188/188 191/191/191
f 190/190/190 189/189/189 192/192/192
f 192/192/192 189/189/189 191/191/191
f 192/192/192 191/191/191 193/193/193
f 194/194/194 190/190/190 192/192/192
f 195/195/195 192/192/192 193/193/193
f 194/194/194 192/192/192 195/195/195
f 196/196/196 194/194/194 195/195/195
f 199/199/199 198/198/198 197/197/197
f 198/198/198 200/200/200 197/197/197
f 200/200/200 198/198/198 201/201/201
f 202/202/202 200/200/200 201/201/201
f 202/202/202 201/201/201 203/203/203
f 202/202/202 203/203/203 204/204/204
f 204/204/204 205/205/205 202/202/202
f 204/204/204 203/203/203 206/206/206
f 205/205/205 204/204/204 207/207/207
f 207/207/207 204/204/204 206/206/206
f 208/208/208 205/205/205 207/207/207
f 207/207/207 206/206/206 209/209/209
f 208/208/208 207/207/207 210/210/210
f 210/210/210 207/207/207 209/209/209
f 211/211/211 208/208/208 210/210/210
f 210/210/210 209/209/209 212/212/212
f 211/211/211 210/210/210 213/213/213
f 213/213/213 210/210/210 212/212/212
f 214/214/214 211/211/211 213/213/213
f 213/213/213 212/212/212 215/215/215
f 214/214/214 213/213/213 216/216/216
f 216/216/216 213/213/213 215/215/215
f 216/216/216 215/215/215 217/217/217
f 218/218/218 214/214/214 216/216/216
f 219/219/219 216/216/216 217/217/217
f 218/218/218 216/216/216 219/219/219
f 220/220/220 218/218/218 219/219/219
f 223/223/223 222/222/222 221/221/221
f 222/222/222 224/224/224 221/221/221
f 224/224/224 222/222/222 225/225/225
f 226/226/226 224/224/224 225/225/225
f 226/226/226 225/225/225 227/227/227
f 225/225/225 228/228/228 227/227/227
f 227/227/227 229/229/229 226/226/226
f 227/227/227 228/228/228 230/230/230
f 229/229/229 227/227/227 231/231/231
f 231/231/231 227/227/227 230/230/230
f 232/232/232 229/229/229 231/231/231
f 231/231/231 230/230/230 233/233/233
f 232/232/232 231/231/231 234/234/234
f 234/234/234 231/231/231 233/233/233
f 235/235/235 232/232/232 234/234/234
f 234/234/234 233/233/233 236/236/236
f 237/237/237 235/235/235 234/234/234
f 238/238/238 234/234/234 236/236/236
f 238/238/238 237/237/237 234/234/234
f 238/238/238 236/236/236 239/239/239
f 237/237/237 238/238/238 240/240/240
f 240/240/240 238/238/238 239/239/239
f 240/240/240 239/239/239 241/241/241
f 242/242/242 237/237/237 240/240/240
f 243/243/243 240/240/240 241/241/241
f 242/242/242 240/240/240 243/243/243
f 244/244/244 242/242/242 243/243/243
f 247/247/247 246/246/246 245/245/245
f 245/245/245 248/248/248 247/247/247
f 245/245/245 249/249/249 248/248/248
f 252/252/252 251/251/251 250/250/250
f 250/250/250 253/253/253 252/252/252
f 250/250/250 254/254/254 253/253/253
f 257/257/257 256/256/256 255/255/255
f 255/255/255 258/258/258 257/257/257
f 255/255/255 259/259/259 258/258/258
f 259/259/259 260/260/260 258/258/258
f 259/259/259 261/261/261 260/260/260
f 261/261/261 262/262/262 260/260/260
f 261/261/261 263/263/263 262/262/262
f 263/263/263 264/264/264 262/262/262
f 263/263/263 265/265/265 264/264/264
f 265/265/265 266/266/266 264/264/264
f 266/266/266 267/267/267 264/264/264
f 270/270/270 269/269/269 268/268/268
f 268/268/268 271/271/271 270/270/270
f 268/268/268 272/272/272 271/271/271
f 275/275/275 274/274/274 273/273/273
f 273/273/273 276/276/276 275/275/275
f 273/273/273 277/277/277 276/276/276
f 280/280/280 279/279/279 278/278/278
f 279/279/279 281/281/281 278/278/278
f 278/278/278 281/281/281 282/282/282
f 281/281/281 283/283/283 282/282/282
f 279/279/279 284/284/284 281/281/281
f 281/281/281 285/285/285 283/283/283
f 284/284/284 285/285/285 281/281/281
f 285/285/285 286/286/286 283/283/283
f 286/286/286 285/285/285 287/287/287
f 285/285/285 284/284/284 288/288/288
f 285/285/285 288/288/288 287/287/287
f 284/284/284 289/289/289 288/288/288
f 289/289/289 290/290/290 288/288/288
f 288/288/288 291/291/291 287/287/287
f 290/290/290 291/291/291 288/288/288
f 290/290/290 292/292/292 291/291/291
f 291/291/291 293/293/293 287/287/287
f 292/292/292 294/294/294 291/291/291
f 291/291/291 294/294/294 293/293/293
f 294/294/294 292/292/292 295/295/295
f 294/294/294 296/296/296 293/293/293
f 297/297/297 296/296/296 294/294/294
f 294/294/294 295/295/295 297/297/297
f 295/295/295 298/298/298 297/297/297
f 298/298/298 299/299/299 297/297/297
f 299/299/299 298/298/298 300/300/300
f 301/301/301 299/299/299 300/300/300
f 125/125/125 302/302/302 301/301/301
f 302/302/302 303/303/303 301/301/301
f 303/303/303 302/302/302 304/304/304
f 305/305/305 303/303/303 304/304/304
f 306/306/306 305/305/305 304/304/304
f 304/304/304 307/307/307 306/306/306
f 306/306/306 308/308/308 305/305/305
f 306/306/306 307/307/307 309/309/309
f 308/308/308 306/306/306 310/310/310
f 310/310/310 306/306/306 309/309/309
f 293/293/293 308/308/308 310/310/310
f 310/310/310 309/309/309 311/311/311
f 293/293/293 310/310/310 312/312/312
f 312/312/312 310/310/310 311/311/311
f 313/313/313 293/293/293 312/312/312
f 312/312/312 311/311/311 314/314/314
f 313/313/313 312/312/312 315/315/315
f 315/315/315 312/312/312 314/314/314
f 316/316/316 313/313/313 315/315/315
f 315/315/315 314/314/314 317/317/317
f 316/316/316 315/315/315 318/318/318
f 318/318/318 315/315/315 317/317/317
f 318/318/318 317/317/317 319/319/319
f 320/320/320 316/316/316 318/318/318
f 321/321/321 318/318/318 319/319/319
f 320/320/320 318/318/318 321/321/321
f 322/322/322 320/320/320 321/321/321
f 325/325/325 324/324/324 323/323/323
f 323/323/323 326/326/326 325/325/325
f 326/326/326 327/327/327 325/325/325
f 330/330/330 329/329/329 328/328/328
f 328/328/328 331/331/331 330/330/330
f 331/331/331 332/332/332 330/330/330
f 335/335/335 334/334/334 333/333/333
f 333/333/333 336/336/336 335/335/335
f 336/336/336 337/337/337 335/335/335
f 340/340/340 339/339/339 338/338/338
f 338/338/338 341/341/341 340/340/340
f 338/338/338 342/342/342 341/341/341
f 345/345/345 344/344/344 343/343/343
f 343/343/343 346/346/346 345/345/345
f 343/343/343 347/347/347 346/346/346
f 350/350/350 349/349/349 348/348/348
f 348/348/348 351/351/351 350/350/350
f 351/351/351 352/352/352 350/350/350
f 351/351/351 353/353/353 352/352/352
f 356/356/356 355/355/355 354/354/354
f 354/354/354 357/357/357 356/356/356
f 354/354/354 358/358/358 357/357/357
f 361/361/361 360/360/360 359/359/359
f 359/359/359 362/362/362 361/361/361
f 362/362/362 363/363/363 361/361/361
