g Muffin_02
v 0.0925253779 -0.0455026366 -0.365738124
v 0.0782896653 -6.84023107E-05 -0.379277825
v 0.0638027415 -0.0313772559 -0.382305741
v 0.0325399898 -0.0160026941 -0.392541409
v 0.105708852 -0.0159144029 -0.363331527
v 0.0905719474 0.0308556464 -0.370518059
v 0.117502727 -0.0577861257 -0.343252838
v 0.0479908884 0.0163493231 -0.389149547
v -1.26642918E-08 4.24423119E-09 -0.396042168
v 0.129710302 -0.0290217362 -0.341513425
v 0.116122223 0.0138263041 -0.356338292
v 0.149760514 -0.0375802517 -0.31496194
v 0.13763544 -0.0676871017 -0.316198468
v 0.164692566 -0.0425751731 -0.288758874
v 0.171488792 -0.00898575969 -0.285887718
v 0.152190089 -0.0748448595 -0.289650232
v 0.160972476 -0.079163909 -0.268032014
v 0.17375505 -0.0455076359 -0.267388374
v 0.165579692 -0.0814296678 -0.24943538
v 0.157293081 -0.00642688153 -0.311150938
v 0.178491935 -0.0471471101 -0.248999551
v 0.16758199 -0.0824143663 -0.230249137
v 0.138432845 0.000405572937 -0.336354196
v 0.143318564 0.0287427437 -0.328233063
v 0.180133775 -0.0103291366 -0.265263021
v 0.180533975 -0.0479221195 -0.230034918
v 0.166650772 -0.081956394 -0.20638299
v 0.123702139 0.0421422869 -0.344925463
v 0.159746915 0.024402095 -0.305409044
v 0.184656695 -0.0111941593 -0.247557387
v 0.144414991 0.0491986349 -0.320189625
v 0.179564089 -0.0476291403 -0.20644632
v 0.186603263 -0.0116670085 -0.229328454
v 0.174737871 -0.0459494926 -0.175726831
v 0.161954299 -0.0796467438 -0.175306693
v 0.16504997 -0.0427358337 -0.142025694
v 0.17182754 -0.00910465699 -0.144651085
v 0.152547136 -0.0750204176 -0.141208798
v 0.137680098 -0.0677090511 -0.109200753
v 0.149805173 -0.0376003161 -0.110427938
v 0.117502734 -0.0577860996 -0.0813663825
v 0.181065366 -0.0106561277 -0.177115023
v 0.185672924 -0.0115508819 -0.206659853
v 0.184716761 0.0248441044 -0.206997097
v 0.185537204 0.0249021295 -0.228229955
v 0.176610708 0.0601669438 -0.207184136
v 0.180673271 0.0247806422 -0.179276407
v 0.183836535 0.0249433108 -0.245309711
v 0.17732808 0.0604113229 -0.227623746
v 0.179866403 0.0248715747 -0.26195538
v 0.175880045 0.059918005 -0.244068354
v 0.172244489 0.0245041158 -0.281499773
v 0.172455877 0.0587514862 -0.260129452
v 0.155151993 0.0528564788 -0.302015364
v 0.165810406 0.0564875342 -0.279091567
v 0.151380509 0.0857469812 -0.281499773
v 0.157641575 0.0901091173 -0.26195538
v 0.130336553 0.111810252 -0.285887718
v 0.141419962 0.0781980827 -0.305409044
v 0.160829768 0.0924760401 -0.245309711
v 0.13105832 0.0647307336 -0.328233063
v 0.136363447 0.11815197 -0.265263021
v 0.162151605 0.0935469046 -0.22822997
v 0.120655477 0.101117134 -0.311150938
v 0.100411877 0.0599415526 -0.356338292
v 0.139417574 0.121598311 -0.247557387
v 0.109889016 0.084191598 -0.336354256
v 0.0850153267 0.102173485 -0.341513485
v 0.0740077049 0.0771394297 -0.363331467
v 0.0577861145 0.117502734 -0.343252838
v 0.0956705138 0.121192575 -0.31496194
v 0.0619651191 0.0478497669 -0.379277825
v 0.0455026217 0.0925253928 -0.365738124
v 0.0160026848 0.0325400047 -0.392541409
v 0.0313772485 0.0638027489 -0.382305741
v -0.0163493287 0.047990907 -0.389149547
v -0.0325400159 0.0160027035 -0.392541379
v 6.83944672E-05 0.0782896802 -0.379277825
v -0.0308556482 0.0905719623 -0.370518059
v -0.0478497781 0.0619651303 -0.379277825
v -0.0638027638 0.0313772634 -0.382305741
v -0.0925253928 0.0455026366 -0.365738094
v 0.0159143936 0.105708852 -0.363331527
v -0.0771394446 0.0740077123 -0.363331467
v -0.117502734 0.0577861294 -0.343252778
v -0.102173485 0.0850153342 -0.341513425
v -0.0599415563 0.100411899 -0.356338292
v -0.121192567 0.0956705362 -0.31496191
v -0.137635455 0.0676871166 -0.316198438
v -0.134264603 0.104447618 -0.288758844
v -0.111810252 0.130336568 -0.285887718
v -0.152190089 0.0748448744 -0.289650172
v -0.160972476 0.0791639239 -0.268032014
v -0.14211981 0.109835014 -0.267388374
v -0.165579692 0.0814296976 -0.24943538
v -0.101117119 0.120655484 -0.311150908
v -0.146310151 0.11258582 -0.248999536
v -0.16758199 0.0824144036 -0.230249137
v -0.084191598 0.10988903 -0.336354196
v -0.0647307336 0.13105832 -0.328233033
v -0.118151955 0.136363447 -0.265262991
v -0.14817065 0.113730036 -0.230034918
v -0.166650772 0.0819564238 -0.20638299
v -0.0421422943 0.123702161 -0.344925463
v -0.0781980827 0.141419977 -0.305409014
v -0.121598288 0.139417589 -0.247557372
v -0.0491986349 0.144414991 -0.320189595
v -0.0138263125 0.116122223 -0.356338292
v -0.0287427418 0.143318564 -0.328233063
v 0.0290217325 0.129710332 -0.341513425
v -0.000405577041 0.13843286 -0.336354196
v 0.00642688014 0.157293096 -0.311150908
v -0.0244020931 0.159746945 -0.305409044
v 0.00898576435 0.171488792 -0.285887718
v 0.0375802517 0.149760544 -0.31496191
v -0.0528564788 0.155152008 -0.302015364
v 0.0676871091 0.137635455 -0.316198468
v 0.0425751694 0.164692566 -0.288758874
v 0.104447603 0.134264633 -0.288758874
v -0.0857469812 0.151380554 -0.281499743
v -0.0245041102 0.172244504 -0.281499743
v 0.074844867 0.152190104 -0.289650261
v 0.109835021 0.142119825 -0.267388403
v 0.0791639164 0.160972476 -0.268032044
v 0.112585798 0.146310166 -0.248999551
v 0.0455076434 0.173755065 -0.267388403
v 0.0814296678 0.165579692 -0.24943538
v -0.0564875156 0.165810436 -0.279091567
v -0.0587514751 0.172455892 -0.260129452
v -0.0248715654 0.179866403 -0.26195538
v 0.0103291413 0.180133775 -0.265263021
v 0.047147125 0.178491965 -0.248999551
v 0.0824143961 0.16758199 -0.230249152
v -0.0901091099 0.15764159 -0.261955351
v -0.059918005 0.175880045 -0.244068354
v -0.0924760327 0.160829768 -0.245309711
v -0.0249433015 0.18383655 -0.245309711
v 0.0111941677 0.184656709 -0.247557387
v -0.0604113229 0.17732811 -0.227623746
v -0.0935468823 0.16215162 -0.228229955
v -0.0601669252 0.176610708 -0.207184136
v -0.0249021146 0.185537219 -0.228229955
v 0.0479221232 0.18053402 -0.230034932
v 0.0819564015 0.166650772 -0.20638302
v -0.123161189 0.140670657 -0.229328454
v 0.0116670225 0.186603308 -0.229328454
v -0.0248440877 0.184716776 -0.206997082
v 0.0476291664 0.179564133 -0.206446335
v 0.113730021 0.148170665 -0.230034932
v 0.140670642 0.123161197 -0.229328454
v 0.0115508968 0.185672954 -0.206659853
v 0.0106561491 0.181065366 -0.177115023
v -0.0247806218 0.180673286 -0.179276407
v 0.00910468493 0.17182754 -0.1446511
v 0.045949515 0.174737886 -0.175726831
v 0.113140725 0.147346497 -0.206446335
v 0.16146636 0.0930919796 -0.206997097
v 0.140004709 0.122501269 -0.206659853
v 0.136901617 0.118979678 -0.177115023
v 0.11034368 0.143069804 -0.175726831
v 0.13053228 0.112111241 -0.144651085
v 0.158225134 0.0906737521 -0.179276407
v 0.0796467662 0.161954284 -0.175306723
v 0.173125669 0.0589796826 -0.180469736
v 0.151592746 0.0859523192 -0.148656979
v 0.172537878 0.0244710557 -0.148656949
v 0.0427358672 0.16504997 -0.142025694
v 0.104632579 0.134610072 -0.142025709
v 0.166053936 0.0565705188 -0.150854319
v 0.155182451 0.0528668575 -0.1232697
v 0.159783617 0.0243979767 -0.119902372
v 0.141446501 0.0782237574 -0.11990238
v 0.0750204548 0.152547121 -0.141208827
v 0.0677090734 0.137680113 -0.109200761
v 0.0956936628 0.12123578 -0.110427961
v 0.0577861406 0.117502756 -0.0813663751
v 0.0376003534 0.149805218 -0.110427968
v 0.12067996 0.101154774 -0.114208236
v 0.144414991 0.049198661 -0.104429603
v 0.0850153416 0.102173507 -0.0831057504
v 0.13105832 0.0647307485 -0.0963861644
v 0.109889038 0.0841916054 -0.0882649869
v 0.100411899 0.0599415675 -0.0682808757
v 0.123702161 0.0421423055 -0.0796937644
v 0.0905719623 0.030855665 -0.0541011244
v 0.0740077272 0.0771394521 -0.0612876974
v 0.143318564 0.0287427604 -0.0963861719
v 0.116122231 0.0138263283 -0.0682808757
v 0.157335445 -0.00644172728 -0.114208244
v 0.13843286 0.000405592786 -0.0882649943
v 0.129710332 -0.0290217139 -0.083105728
v 0.105708875 -0.0159143787 -0.0612876825
v 0.0925254002 -0.0455026105 -0.0588810556
v 0.0782896951 -6.83769467E-05 -0.0453413576
v 0.0638027489 -0.0313772336 -0.0423134565
v 0.0325400159 -0.0160026681 -0.0320778042
v 0.047990907 0.0163493454 -0.0354696512
v 1.31033193E-08 2.8218885E-08 -0.0285770148
v 0.0619651414 0.0478497967 -0.0453413576
v 0.0160027128 0.0325400271 -0.0320778042
v 0.0455026515 0.0925254226 -0.0588810556
v -0.0163493045 0.0479909256 -0.0354696512
v -0.0325399898 0.0160027277 -0.0320778154
v 0.0313772708 0.0638027713 -0.0423134565
v 6.84179031E-05 0.0782897025 -0.0453413576
v -0.0308556259 0.0905719921 -0.0541011244
v -0.0478497557 0.0619651601 -0.0453413427
v -0.0638027266 0.0313772857 -0.0423134267
v -0.0925253779 0.0455026664 -0.0588810556
v 0.0159144215 0.105708882 -0.061287716
v -0.0771394074 0.0740077347 -0.0612876825
v -0.117502712 0.0577861518 -0.0813663751
v 0.0290217511 0.129710346 -0.0831057504
v -0.0138262911 0.116122261 -0.0682808906
v 0.00644176034 0.15733546 -0.114208244
v -0.000405556959 0.13843289 -0.0882649943
v -0.028742725 0.143318594 -0.0963861644
v -0.0421422794 0.123702183 -0.0796937644
v -0.0599415377 0.100411929 -0.0682808757
v -0.102173477 0.0850153491 -0.083105728
v -0.0243979432 0.159783646 -0.119902357
v -0.0491986275 0.144415006 -0.104429595
v -0.0647307187 0.131058365 -0.0963861644
v -0.0244710296 0.172537893 -0.148656979
v -0.0528668351 0.155182466 -0.1232697
v -0.0589796528 0.173125684 -0.180469722
v -0.121235751 0.0956936702 -0.110427938
v -0.137680084 0.0677090958 -0.109200753
v -0.0841915756 0.109889045 -0.0882649869
v -0.101154745 0.120679975 -0.114208221
v -0.112111226 0.130532295 -0.144651085
v -0.0782237351 0.141446531 -0.119902357
v -0.134610072 0.104632594 -0.142025679
v -0.152547136 0.0750204697 -0.141208798
v -0.161954299 0.0796467736 -0.175306693
v -0.143069774 0.110343672 -0.175726816
v -0.0859522894 0.151592761 -0.148656949
v -0.147346467 0.113140725 -0.20644632
v -0.11897967 0.136901632 -0.177114993
v -0.122501254 0.140004724 -0.206659824
v -0.0930919722 0.16146639 -0.206997082
v -0.0906737298 0.158225149 -0.179276407
v -0.0565705001 0.166053981 -0.150854304
v 0.160972476 -0.079163909 -0.268032014
v 0.152190089 -0.0748448595 -0.289650232
v 0.134264603 -0.104447603 -0.288758874
v 0.13763544 -0.0676871017 -0.316198468
v 0.14211981 -0.109834991 -0.267388374
v 0.111810252 -0.130336538 -0.285887718
v 0.165579692 -0.0814296678 -0.24943538
v 0.121192567 -0.0956705138 -0.31496191
v 0.117502727 -0.0577861257 -0.343252838
v 0.146310151 -0.11258579 -0.248999536
v 0.16758199 -0.0824143663 -0.230249137
v 0.118151955 -0.136363417 -0.265263021
v 0.14817065 -0.113729998 -0.230034918
v 0.166650772 -0.081956394 -0.20638299
v 0.121598288 -0.139417559 -0.247557372
v 0.102173477 -0.0850153342 -0.341513425
v 0.101117112 -0.120655477 -0.311150938
v 0.0771394148 -0.0740077123 -0.363331467
v 0.0925253779 -0.0455026366 -0.365738124
v 0.0478497557 -0.0619651303 -0.379277825
v 0.0308556259 -0.0905719623 -0.370518059
v 0.0638027415 -0.0313772559 -0.382305741
v 0.0325399898 -0.0160026941 -0.392541409
v 0.0163493063 -0.0479908921 -0.389149547
v -1.26642918E-08 4.24423119E-09 -0.396042168
v 0.0599415377 -0.100411899 -0.356338292
v 0.0841915756 -0.109889008 -0.336354196
v 0.0647307187 -0.13105832 -0.328233033
v 0.0781980604 -0.141419977 -0.305409014
v 0.0421422794 -0.123702161 -0.344925404
v 0.0491986349 -0.144414991 -0.320189595
v -0.0160027128 -0.0325399972 -0.392541409
v -6.84190527E-05 -0.0782896802 -0.379277825
v -0.047990907 -0.0163493119 -0.389149547
v -0.0325400159 0.0160027035 -0.392541379
v -0.0782896951 6.84104016E-05 -0.379277825
v -0.0905719623 -0.0308556333 -0.370518059
v -0.0638027638 0.0313772634 -0.382305741
v -0.0925253928 0.0455026366 -0.365738094
v -0.105708875 0.0159144141 -0.363331467
v -0.117502734 0.0577861294 -0.343252778
v -0.0619651452 -0.0478497632 -0.379277825
v -0.0313772745 -0.0638027489 -0.382305741
v -0.0455026515 -0.0925253853 -0.365738124
v -0.0159144178 -0.105708852 -0.363331467
v -0.0577861406 -0.117502727 -0.343252838
v -0.0740077347 -0.0771394297 -0.363331467
v 0.0138262911 -0.116122223 -0.356338292
v -0.0290217567 -0.129710332 -0.341513425
v 0.028742725 -0.143318564 -0.328233033
v 0.000405556726 -0.13843286 -0.336354166
v -0.0064268969 -0.157293096 -0.311150908
v 0.0244020764 -0.159746945 -0.305409014
v -0.00898577645 -0.171488777 -0.285887718
v -0.0375802666 -0.149760544 -0.31496191
v 0.0528564677 -0.155151993 -0.302015334
v 0.024504099 -0.172244474 -0.281499743
v 0.0857469738 -0.151380509 -0.281499743
v 0.0564875156 -0.165810391 -0.279091537
v 0.090109095 -0.15764156 -0.261955351
v 0.0587514713 -0.172455877 -0.260129452
v 0.0924760327 -0.160829753 -0.245309696
v 0.024871558 -0.179866388 -0.261955351
v 0.0599179976 -0.17588003 -0.244068325
v 0.0935468823 -0.162151575 -0.228229955
v 0.060411308 -0.177328065 -0.227623731
v 0.0601669289 -0.176610708 -0.207184121
v 0.0249432959 -0.18383652 -0.245309666
v 0.123161189 -0.140670627 -0.229328454
v -0.0103291525 -0.18013376 -0.265262991
v 0.0249021091 -0.185537174 -0.228229955
v 0.0930919722 -0.16146636 -0.206997082
v 0.147346467 -0.113140695 -0.20644632
v -0.0111941751 -0.18465668 -0.247557342
v 0.122501254 -0.140004694 -0.206659824
v 0.143069774 -0.110343643 -0.175726816
v 0.161954299 -0.0796467438 -0.175306693
v 0.11897967 -0.136901602 -0.177114993
v 0.112111226 -0.130532265 -0.144651085
v 0.134610072 -0.104632549 -0.142025679
v 0.152547136 -0.0750204176 -0.141208798
v 0.137680098 -0.0677090511 -0.109200753
v 0.0906737298 -0.158225119 -0.179276392
v 0.121235751 -0.095693633 -0.110427938
v 0.117502734 -0.0577860996 -0.0813663825
v 0.102173485 -0.0850152969 -0.0831057429
v 0.101154752 -0.120679937 -0.114208229
v 0.0771394297 -0.0740076825 -0.0612876825
v 0.0925254002 -0.0455026105 -0.0588810556
v 0.0478497781 -0.0619650967 -0.0453413427
v 0.0308556482 -0.090571925 -0.0541011095
v 0.0638027489 -0.0313772336 -0.0423134565
v 0.0325400159 -0.0160026681 -0.0320778042
v 0.0163493287 -0.0479908735 -0.0354696512
v 1.31033193E-08 2.8218885E-08 -0.0285770148
v 0.0599415563 -0.10041187 -0.0682808608
v 0.084191598 -0.109889001 -0.0882649794
v 0.0647307262 -0.131058306 -0.0963861421
v 0.0782237425 -0.141446471 -0.11990235
v 0.0421422906 -0.123702124 -0.0796937346
v 0.0859522969 -0.151592731 -0.148656949
v 0.0491986349 -0.144414961 -0.104429565
v 0.058979664 -0.17312564 -0.180469722
v 0.0528668426 -0.155182421 -0.12326967
v 0.0565705039 -0.166053936 -0.150854304
v 0.024471039 -0.172537863 -0.148656949
v 0.0247806218 -0.180673257 -0.179276362
v -0.00910467282 -0.171827525 -0.14465107
v 0.0243979637 -0.159783572 -0.11990235
v 0.0287427437 -0.143318534 -0.0963861421
v 0.0248440877 -0.184716731 -0.206997082
v -0.0106561435 -0.181065321 -0.177114993
v -0.0116670253 -0.186603293 -0.229328439
v 0.0138263125 -0.116122209 -0.0682808608
v -0.00644174498 -0.157335386 -0.114208221
v -0.0115508968 -0.185672924 -0.206659824
v -0.0476291589 -0.179564089 -0.206446305
v -0.0479221344 -0.180533975 -0.230034918
v -0.0819564015 -0.166650727 -0.206382975
v -0.0459495112 -0.174737856 -0.175726786
v -0.0471471287 -0.178491935 -0.248999521
v 0.000405575993 -0.138432831 -0.088264972
v -0.0290217325 -0.129710287 -0.083105728
v -0.037600331 -0.149805158 -0.110427931
v -0.0577861145 -0.117502697 -0.0813663453
v -0.0159143992 -0.105708815 -0.0612876825
v -0.0427358523 -0.165049925 -0.142025664
v -6.83945618E-05 -0.0782896429 -0.0453413576
v -0.0677090585 -0.137680054 -0.109200716
v -0.0796467587 -0.161954254 -0.175306678
v -0.0455026329 -0.092525363 -0.0588810295
v -0.0160026867 -0.0325399749 -0.0320778042
v -0.0750204399 -0.152547091 -0.141208783
v -0.104632564 -0.134610042 -0.142025664
v -0.11034368 -0.143069774 -0.175726786
v -0.13053228 -0.112111203 -0.144651085
v -0.0956936404 -0.121235728 -0.110427938
v -0.0313772485 -0.0638027191 -0.0423134565
v -0.0479908884 -0.0163492877 -0.0354696512
v -0.0325399898 0.0160027277 -0.0320778154
v -0.0619651191 -0.0478497446 -0.0453413576
v -0.0905719474 -0.0308556091 -0.0541011095
v -0.0782896578 6.84348634E-05 -0.0453413576
v -0.0638027266 0.0313772857 -0.0423134267
v -0.0925253779 0.0455026664 -0.0588810556
v -0.0740077049 -0.0771393999 -0.0612876676
v -0.105708852 0.0159144383 -0.0612876825
v -0.117502712 0.0577861518 -0.0813663751
v -0.0850153267 -0.10217344 -0.0831056982
v -0.100411899 -0.0599415191 -0.0682808608
v -0.12067996 -0.101154722 -0.114208207
v -0.109889016 -0.0841915682 -0.0882649571
v -0.13105832 -0.0647306964 -0.0963861421
v -0.123702139 -0.0421422534 -0.0796937346
v -0.116122223 -0.0138262734 -0.0682808608
v -0.129710302 0.0290217679 -0.083105728
v -0.141446486 -0.0782237202 -0.11990235
v -0.144414991 -0.0491986088 -0.104429565
v -0.143318549 -0.0287427083 -0.0963861421
v -0.149805173 0.0376003608 -0.110427931
v -0.137680084 0.0677090958 -0.109200753
v -0.138432845 -0.000405539788 -0.0882649869
v -0.157335415 0.00644177524 -0.114208207
v -0.17182754 0.00910469983 -0.14465107
v -0.165049955 0.0427358747 -0.142025679
v -0.152547136 0.0750204697 -0.141208798
v -0.161954299 0.0796467736 -0.175306693
v -0.159783602 -0.0243979283 -0.11990235
v -0.174737871 0.0459495299 -0.175726786
v -0.166650772 0.0819564238 -0.20638299
v -0.155182436 -0.0528668091 -0.123269662
v -0.172537878 -0.0244710129 -0.148656934
v -0.151592731 -0.0859522671 -0.148656949
v -0.166053936 -0.0565704815 -0.15085429
v -0.173125669 -0.0589796416 -0.180469707
v -0.180673271 -0.0247806013 -0.179276362
v -0.176610708 -0.060166914 -0.207184106
v -0.158225134 -0.0906737223 -0.179276362
v -0.181065351 0.010656165 -0.177114993
v -0.136901617 -0.118979655 -0.177114978
v -0.184716761 -0.0248440709 -0.206997067
v -0.179564089 0.0476291738 -0.206446305
v -0.16146636 -0.0930919498 -0.206997067
v -0.113140725 -0.147346467 -0.206446305
v -0.185672924 0.0115509154 -0.206659824
v -0.180533975 0.0479221493 -0.230034918
v -0.16758199 0.0824144036 -0.230249137
v -0.186603263 0.0116670365 -0.229328439
v -0.178491935 0.0471471362 -0.248999536
v -0.165579692 0.0814296976 -0.24943538
v -0.185537204 -0.0249020997 -0.22822994
v -0.184656695 0.0111941863 -0.247557342
v -0.17375505 0.0455076583 -0.267388374
v -0.160972476 0.0791639239 -0.268032014
v -0.180133775 0.010329159 -0.265262991
v -0.171488792 0.00898577832 -0.285887718
v -0.164692566 0.042575188 -0.288758844
v -0.152190089 0.0748448744 -0.289650172
v -0.137635455 0.0676871166 -0.316198438
v -0.149760529 0.0375802666 -0.31496191
v -0.183836535 -0.0249432847 -0.245309666
v -0.129710332 0.0290217511 -0.341513425
v -0.179866403 -0.0248715486 -0.261955351
v -0.17732808 -0.0604112931 -0.227623701
v -0.157293111 0.00642689504 -0.311150908
v -0.116122231 -0.0138262957 -0.356338292
v -0.175880045 -0.0599179827 -0.24406831
v -0.162151605 -0.0935468748 -0.22822994
v -0.13843286 -0.000405560771 -0.336354166
v -0.143318579 -0.028742725 -0.328233033
v -0.159746945 -0.0244020764 -0.305409014
v -0.123702168 -0.0421422794 -0.344925404
v -0.172244489 -0.0245040935 -0.281499743
v -0.144414991 -0.0491986312 -0.320189595
v -0.100411899 -0.0599415414 -0.356338292
v -0.172455877 -0.0587514639 -0.260129422
v -0.155151993 -0.0528564639 -0.302015334
v -0.13105832 -0.0647307187 -0.328232974
v -0.0850153416 -0.102173485 -0.341513425
v -0.165810406 -0.0564875156 -0.279091537
v -0.141419977 -0.0781980604 -0.305409014
v -0.151380539 -0.0857469663 -0.281499743
v -0.130336568 -0.111810245 -0.285887718
v -0.157641575 -0.090109095 -0.261955321
v -0.109889038 -0.0841915756 -0.336354166
v -0.120655484 -0.101117112 -0.311150908
v -0.0956705362 -0.121192567 -0.31496191
v -0.160829768 -0.0924760103 -0.245309666
v -0.067687124 -0.137635455 -0.316198409
v -0.136363447 -0.118151948 -0.265262991
v -0.139417574 -0.121598281 -0.247557327
v -0.104447611 -0.134264603 -0.288758814
v -0.042575188 -0.164692536 -0.288758814
v -0.109835021 -0.142119795 -0.267388344
v -0.0748448819 -0.152190074 -0.289650172
v -0.0791639164 -0.160972446 -0.268032014
v -0.0455076545 -0.173755035 -0.267388374
v -0.0814296827 -0.165579677 -0.249435365
v -0.112585798 -0.146310136 -0.248999521
v -0.0824143961 -0.167581961 -0.230249107
v -0.113730021 -0.148170635 -0.230034903
v -0.140670642 -0.123161167 -0.229328439
v -0.140004709 -0.122501239 -0.206659824
vt 0.115112305 0.922851562
vt 0.0972290039 0.896972656
vt 0.0903930664 0.918457031
vt 0.0663452148 0.908691406
vt 0.117431641 0.90234375
vt 0.103393555 0.87890625
vt 0.139282227 0.922851562
vt 0.0779418945 0.887695312
vt 0.0440368652 0.894042969
vt 0.137939453 0.903808594
vt 0.119812012 0.884765625
vt 0.157592773 0.899902344
vt 0.162719727 0.919433594
vt 0.174072266 0.893066406
vt 0.166137695 0.875976562
vt 0.182983398 0.913085938
vt 0.197631836 0.905761719
vt 0.185913086 0.886230469
vt 0.208862305 0.8984375
vt 0.152832031 0.8828125
vt 0.194824219 0.879882812
vt 0.219360352 0.890136719
vt 0.13671875 0.88671875
vt 0.135620117 0.871582031
vt 0.175537109 0.869628906
vt 0.20324707 0.872558594
vt 0.231445312 0.877929688
vt 0.122314453 0.869628906
vt 0.14831543 0.868164062
vt 0.182861328 0.864257812
vt 0.135009766 0.861816406
vt 0.212768555 0.862304688
vt 0.189697266 0.857910156
vt 0.223266602 0.847167969
vt 0.243896484 0.858886719
vt 0.232421875 0.828613281
vt 0.214477539 0.822265625
vt 0.253662109 0.8359375
vt 0.258789062 0.811035156
vt 0.23815918 0.80859375
vt 0.259033203 0.787109375
vt 0.206176758 0.837402344
vt 0.197265625 0.849609375
vt 0.183959961 0.838378906
vt 0.177734375 0.845703125
vt 0.172241211 0.828613281
vt 0.191650391 0.828613281
vt 0.172241211 0.851074219
vt 0.166748047 0.834960938
vt 0.166381836 0.855957031
vt 0.162109375 0.83984375
vt 0.158935547 0.861328125
vt 0.157226562 0.844238281
vt 0.142578125 0.856445312
vt 0.151000977 0.849609375
vt 0.141601562 0.840820312
vt 0.147338867 0.834960938
vt 0.131469727 0.832519531
vt 0.133911133 0.848144531
vt 0.151733398 0.830078125
vt 0.126586914 0.857421875
vt 0.137084961 0.826660156
vt 0.15612793 0.825195312
vt 0.123779297 0.840820312
vt 0.109191895 0.863769531
vt 0.141601562 0.821289062
vt 0.115783691 0.851074219
vt 0.105224609 0.843261719
vt 0.0967407227 0.855957031
vt 0.0953979492 0.835449219
vt 0.113952637 0.833007812
vt 0.0879516602 0.870605469
vt 0.0852050781 0.846679688
vt 0.0604553223 0.875
vt 0.0737915039 0.859863281
vt 0.0455932617 0.859375
vt 0.0263214111 0.873535156
vt 0.0613708496 0.847167969
vt 0.050994873 0.833007812
vt 0.0339660645 0.841308594
vt 0.0135574341 0.851074219
vt 0.00569915771 0.827148438
vt 0.0747070312 0.836425781
vt 0.0258026123 0.822265625
vt 0.00251579285 0.803222656
vt 0.021987915 0.802246094
vt 0.0430297852 0.817382812
vt 0.0232391357 0.782226562
vt 0.00287628174 0.779785156
vt 0.0277862549 0.764648438
vt 0.0455932617 0.770507812
vt 0.00672531128 0.758789062
vt 0.0119247437 0.743164062
vt 0.0328979492 0.752441406
vt 0.0175628662 0.730957031
vt 0.040802002 0.784667969
vt 0.0380249023 0.742675781
vt 0.0244750977 0.719726562
vt 0.0390930176 0.801269531
vt 0.0537719727 0.800292969
vt 0.0504760742 0.760253906
vt 0.0440673828 0.733398438
vt 0.0349731445 0.706054688
vt 0.0577392578 0.812988281
vt 0.0559387207 0.787109375
vt 0.0550537109 0.752441406
vt 0.0637207031 0.799316406
vt 0.0654296875 0.825195312
vt 0.0692749023 0.807128906
vt 0.0859375 0.826660156
vt 0.0772094727 0.816894531
vt 0.0862426758 0.807617188
vt 0.0775146484 0.798828125
vt 0.0933227539 0.799316406
vt 0.0952148438 0.81640625
vt 0.0680541992 0.791015625
vt 0.104431152 0.824707031
vt 0.102600098 0.807617188
vt 0.121582031 0.82421875
vt 0.0608825684 0.775878906
vt 0.083984375 0.790039062
vt 0.112060547 0.81640625
vt 0.127319336 0.818359375
vt 0.117614746 0.809570312
vt 0.131713867 0.812988281
vt 0.108093262 0.801269531
vt 0.122070312 0.8046875
vt 0.0736083984 0.782226562
vt 0.0782470703 0.774902344
vt 0.0888671875 0.783691406
vt 0.0985717773 0.792480469
vt 0.112487793 0.796386719
vt 0.126464844 0.799804688
vt 0.0654907227 0.767578125
vt 0.0822143555 0.76953125
vt 0.0696411133 0.761230469
vt 0.092956543 0.778808594
vt 0.102844238 0.787597656
vt 0.0863647461 0.764648438
vt 0.0741577148 0.754882812
vt 0.0917358398 0.758300781
vt 0.0971069336 0.7734375
vt 0.116882324 0.791015625
vt 0.131958008 0.793457031
vt 0.0602416992 0.744628906
vt 0.107177734 0.782714844
vt 0.102355957 0.767578125
vt 0.122314453 0.78515625
vt 0.136230469 0.808105469
vt 0.145996094 0.81640625
vt 0.112487793 0.776367188
vt 0.119689941 0.768066406
vt 0.10949707 0.759765625
vt 0.128295898 0.758789062
vt 0.129638672 0.776367188
vt 0.141723633 0.801757812
vt 0.161621094 0.819335938
vt 0.151489258 0.810546875
vt 0.158691406 0.802246094
vt 0.148925781 0.793457031
vt 0.166625977 0.792480469
vt 0.168457031 0.811035156
vt 0.139282227 0.78515625
vt 0.179199219 0.8203125
vt 0.176147461 0.801757812
vt 0.19921875 0.81640625
vt 0.138183594 0.767089844
vt 0.157226562 0.783691406
vt 0.186523438 0.810058594
vt 0.193115234 0.798828125
vt 0.205322266 0.803222656
vt 0.18359375 0.791503906
vt 0.147827148 0.775390625
vt 0.156616211 0.765136719
vt 0.165893555 0.7734375
vt 0.165893555 0.754882812
vt 0.147094727 0.757324219
vt 0.174804688 0.782226562
vt 0.197631836 0.790527344
vt 0.175292969 0.763183594
vt 0.192016602 0.782714844
vt 0.184082031 0.772949219
vt 0.195922852 0.764648438
vt 0.203613281 0.776855469
vt 0.210449219 0.756835938
vt 0.186645508 0.753417969
vt 0.207519531 0.790039062
vt 0.218383789 0.772460938
vt 0.220458984 0.806152344
vt 0.222290039 0.7890625
vt 0.239501953 0.788085938
vt 0.235717773 0.767578125
vt 0.255859375 0.762695312
vt 0.227539062 0.748535156
vt 0.248046875 0.738769531
vt 0.235229492 0.716308594
vt 0.215820312 0.73046875
vt 0.217407227 0.695800781
vt 0.199951172 0.742675781
vt 0.200927734 0.71484375
vt 0.176025391 0.743164062
vt 0.183349609 0.702148438
vt 0.195068359 0.680664062
vt 0.1875 0.729980469
vt 0.173339844 0.719238281
vt 0.157836914 0.7109375
vt 0.1640625 0.692871094
vt 0.170898438 0.671386719
vt 0.146118164 0.666503906
vt 0.164550781 0.733886719
vt 0.143676758 0.687011719
vt 0.121704102 0.666503906
vt 0.156005859 0.746582031
vt 0.151977539 0.726074219
vt 0.137207031 0.749511719
vt 0.145385742 0.739257812
vt 0.134643555 0.732421875
vt 0.138793945 0.720214844
vt 0.141357422 0.705078125
vt 0.123168945 0.686035156
vt 0.127075195 0.7421875
vt 0.126098633 0.728027344
vt 0.125488281 0.718261719
vt 0.118103027 0.750976562
vt 0.118347168 0.733398438
vt 0.0993041992 0.75
vt 0.102966309 0.689941406
vt 0.09765625 0.669921875
vt 0.124389648 0.703125
vt 0.107849121 0.707519531
vt 0.0924682617 0.715332031
vt 0.112487793 0.722167969
vt 0.0838012695 0.698730469
vt 0.0739746094 0.678222656
vt 0.052154541 0.690917969
vt 0.06640625 0.709960938
vt 0.100280762 0.729980469
vt 0.0528869629 0.72265625
vt 0.0785522461 0.725585938
vt 0.0676269531 0.736328125
vt 0.0803222656 0.747558594
vt 0.0891723633 0.738769531
vt 0.108520508 0.741699219
vt 0.566894531 0.537109375
vt 0.561523438 0.552246094
vt 0.582519531 0.55859375
vt 0.557617188 0.573242188
vt 0.587890625 0.545898438
vt 0.600585938 0.563964844
vt 0.572265625 0.524902344
vt 0.578125 0.575683594
vt 0.557617188 0.597167969
vt 0.592773438 0.536132812
vt 0.579589844 0.513183594
vt 0.60546875 0.554199219
vt 0.599121094 0.526855469
vt 0.58984375 0.499755859
vt 0.609863281 0.545898438
vt 0.576660156 0.595703125
vt 0.595703125 0.578125
vt 0.580566406 0.616210938
vt 0.560546875 0.62109375
vt 0.588867188 0.635253906
vt 0.605957031 0.626953125
vt 0.568359375 0.645019531
vt 0.581054688 0.667480469
vt 0.600585938 0.653320312
vt 0.599121094 0.6875
vt 0.598144531 0.611328125
vt 0.594238281 0.594726562
vt 0.608886719 0.59375
vt 0.610839844 0.580566406
vt 0.612792969 0.606933594
vt 0.618652344 0.593261719
vt 0.615234375 0.668945312
vt 0.616210938 0.641113281
vt 0.6328125 0.681640625
vt 0.62109375 0.702636719
vt 0.651855469 0.690917969
vt 0.658203125 0.672851562
vt 0.645507812 0.712402344
vt 0.669921875 0.716796875
vt 0.672363281 0.696289062
vt 0.694335938 0.716796875
vt 0.642578125 0.6640625
vt 0.62890625 0.653808594
vt 0.640136719 0.640625
vt 0.629394531 0.630371094
vt 0.650390625 0.62890625
vt 0.651367188 0.649414062
vt 0.620117188 0.619140625
vt 0.640625 0.620117188
vt 0.624023438 0.601074219
vt 0.631835938 0.610839844
vt 0.641113281 0.6015625
vt 0.632324219 0.592285156
vt 0.6484375 0.592773438
vt 0.649902344 0.610351562
vt 0.623046875 0.584960938
vt 0.638671875 0.583984375
vt 0.615722656 0.569335938
vt 0.628417969 0.575683594
vt 0.620605469 0.561035156
vt 0.633300781 0.568847656
vt 0.624511719 0.5546875
vt 0.643554688 0.577636719
vt 0.637207031 0.563476562
vt 0.62890625 0.548828125
vt 0.641113281 0.558105469
vt 0.646484375 0.551757812
vt 0.647949219 0.572265625
vt 0.615234375 0.538574219
vt 0.653320312 0.586425781
vt 0.651855469 0.567382812
vt 0.635253906 0.541503906
vt 0.607910156 0.516113281
vt 0.657714844 0.581542969
vt 0.622558594 0.529785156
vt 0.621582031 0.50390625
vt 0.606933594 0.484863281
vt 0.633300781 0.51953125
vt 0.647460938 0.509277344
vt 0.638671875 0.492431641
vt 0.62890625 0.472167969
vt 0.65234375 0.463867188
vt 0.644042969 0.532714844
vt 0.657714844 0.483886719
vt 0.676757812 0.460205078
vt 0.678222656 0.479736328
vt 0.662597656 0.500976562
vt 0.698730469 0.480957031
vt 0.701171875 0.460205078
vt 0.71875 0.486572266
vt 0.712890625 0.504394531
vt 0.725585938 0.46484375
vt 0.75 0.474609375
vt 0.73828125 0.495849609
vt 0.772460938 0.489746094
vt 0.696289062 0.498779297
vt 0.679199219 0.497070312
vt 0.680175781 0.51171875
vt 0.667480469 0.515625
vt 0.693847656 0.514160156
vt 0.655273438 0.5234375
vt 0.681152344 0.521972656
vt 0.654296875 0.543945312
vt 0.673339844 0.52734375
vt 0.663574219 0.53515625
vt 0.672851562 0.544433594
vt 0.664550781 0.553222656
vt 0.683105469 0.552734375
vt 0.682128906 0.535644531
vt 0.689453125 0.526367188
vt 0.657226562 0.561523438
vt 0.674804688 0.562011719
vt 0.662109375 0.576171875
vt 0.70703125 0.520019531
vt 0.691894531 0.543457031
vt 0.667480469 0.5703125
vt 0.677246094 0.578613281
vt 0.671875 0.584960938
vt 0.687011719 0.586914062
vt 0.684570312 0.5703125
vt 0.667480469 0.58984375
vt 0.700195312 0.532714844
vt 0.7109375 0.540039062
vt 0.702148438 0.55078125
vt 0.720703125 0.548339844
vt 0.719238281 0.527832031
vt 0.692871094 0.561035156
vt 0.728515625 0.513183594
vt 0.711425781 0.559082031
vt 0.694335938 0.578613281
vt 0.730957031 0.536621094
vt 0.755859375 0.508300781
vt 0.702636719 0.569335938
vt 0.712402344 0.577636719
vt 0.704101562 0.587402344
vt 0.721679688 0.586425781
vt 0.720703125 0.567382812
vt 0.742675781 0.523925781
vt 0.770996094 0.524414062
vt 0.790039062 0.509765625
vt 0.754882812 0.536621094
vt 0.765136719 0.55078125
vt 0.782226562 0.541992188
vt 0.802734375 0.532714844
vt 0.811035156 0.556640625
vt 0.741699219 0.546875
vt 0.790527344 0.561523438
vt 0.813964844 0.580566406
vt 0.73046875 0.557128906
vt 0.750976562 0.55859375
vt 0.729980469 0.576171875
vt 0.739257812 0.566894531
vt 0.747070312 0.576660156
vt 0.758300781 0.570800781
vt 0.7734375 0.56640625
vt 0.794433594 0.58203125
vt 0.73828125 0.585449219
vt 0.752441406 0.584472656
vt 0.762695312 0.583984375
vt 0.79296875 0.602539062
vt 0.813476562 0.604980469
vt 0.77734375 0.583007812
vt 0.775390625 0.599609375
vt 0.76953125 0.616210938
vt 0.787109375 0.622558594
vt 0.80859375 0.629394531
vt 0.798828125 0.652832031
vt 0.760253906 0.597167969
vt 0.778320312 0.641113281
vt 0.786132812 0.671875
vt 0.748046875 0.592773438
vt 0.75390625 0.610351562
vt 0.730957031 0.595214844
vt 0.741210938 0.603515625
vt 0.733886719 0.613769531
vt 0.746582031 0.622558594
vt 0.727050781 0.622558594
vt 0.723632812 0.604980469
vt 0.761230469 0.631347656
vt 0.713378906 0.596191406
vt 0.738769531 0.632324219
vt 0.767578125 0.65625
vt 0.716308594 0.61328125
vt 0.696777344 0.595703125
vt 0.751953125 0.643554688
vt 0.758300781 0.666503906
vt 0.774414062 0.684082031
vt 0.744628906 0.651855469
vt 0.75 0.673828125
vt 0.763671875 0.692382812
vt 0.732421875 0.639648438
vt 0.737792969 0.658203125
vt 0.740722656 0.680175781
vt 0.752441406 0.699707031
vt 0.73046875 0.663574219
vt 0.721191406 0.669921875
vt 0.729003906 0.686523438
vt 0.737792969 0.706542969
vt 0.717773438 0.713378906
vt 0.712402344 0.693359375
vt 0.727050781 0.64453125
vt 0.692871094 0.697265625
vt 0.721191406 0.649902344
vt 0.721679688 0.628417969
vt 0.707519531 0.676269531
vt 0.674804688 0.678710938
vt 0.716796875 0.633300781
vt 0.7109375 0.619140625
vt 0.69140625 0.680175781
vt 0.690429688 0.665527344
vt 0.703125 0.661621094
vt 0.677246094 0.663574219
vt 0.713867188 0.655273438
vt 0.689941406 0.655761719
vt 0.6640625 0.657226562
vt 0.711914062 0.638183594
vt 0.697265625 0.650390625
vt 0.681640625 0.651367188
vt 0.66015625 0.637207031
vt 0.706054688 0.643554688
vt 0.688964844 0.642089844
vt 0.696289062 0.634277344
vt 0.686523438 0.626464844
vt 0.702148438 0.628417969
vt 0.670410156 0.64453125
vt 0.678710938 0.634277344
vt 0.668945312 0.626464844
vt 0.706542969 0.624023438
vt 0.659179688 0.618652344
vt 0.691894531 0.620117188
vt 0.696289062 0.615234375
vt 0.676269531 0.618164062
vt 0.657714844 0.6015625
vt 0.682128906 0.611816406
vt 0.666992188 0.609863281
vt 0.672363281 0.603515625
vt 0.663085938 0.595214844
vt 0.676757812 0.598632812
vt 0.686523438 0.606933594
vt 0.681640625 0.593261719
vt 0.690917969 0.602050781
vt 0.700683594 0.610351562
vt 0.706542969 0.604492188
vn 0.488769531 -0.240356445 -0.838867188
vn 0.405273438 -0.00228691101 -0.9140625
vn 0.33203125 -0.163330078 -0.929199219
vn 0.169189453 -0.083190918 -0.981933594
vn 0.5546875 -0.0897827148 -0.827148438
vn 0.466308594 0.158813477 -0.870117188
vn 0.630371094 -0.310058594 -0.711425781
vn 0.248535156 0.0846557617 -0.96484375
vn -1.78813934E-07 0 -1
vn 0.691894531 -0.164672852 -0.702636719
vn 0.60546875 0.0637817383 -0.793457031
vn 0.793457031 -0.207885742 -0.571777344
vn 0.731445312 -0.359619141 -0.579101562
vn 0.859375 -0.2265625 -0.458740234
vn 0.896484375 -0.054901123 -0.439453125
vn 0.794433594 -0.390625 -0.465087891
vn 0.844726562 -0.415283203 -0.338134766
vn 0.911621094 -0.240966797 -0.333251953
vn 0.880859375 -0.433349609 -0.190429688
vn 0.834472656 -0.049987793 -0.548828125
vn 0.94921875 -0.253173828 -0.18737793
vn 0.896972656 -0.440917969 -0.0362243652
vn 0.736328125 -0.0149078369 -0.676269531
vn 0.76171875 0.132446289 -0.634277344
vn 0.946289062 -0.0585021973 -0.318115234
vn 0.96484375 -0.259765625 -0.0355224609
vn 0.892578125 -0.438964844 0.104187012
vn 0.640625 0.218261719 -0.735839844
vn 0.851074219 0.109985352 -0.513183594
vn 0.981933594 -0.064453125 -0.177856445
vn 0.768066406 0.26171875 -0.584472656
vn 0.959960938 -0.259765625 0.102600098
vn 0.997070312 -0.0689697266 -0.0331115723
vn 0.939941406 -0.255371094 0.225463867
vn 0.873535156 -0.4296875 0.229003906
vn 0.896484375 -0.243774414 0.370361328
vn 0.932617188 -0.0705566406 0.353759766
vn 0.831542969 -0.408935547 0.375732422
vn 0.752441406 -0.370117188 0.544921875
vn 0.814941406 -0.217651367 0.537597656
vn 0.634765625 -0.312011719 0.70703125
vn 0.974121094 -0.072265625 0.21484375
vn 0.992675781 -0.0712280273 0.0979003906
vn 0.987792969 0.124206543 0.0914306641
vn 0.991699219 0.127075195 -0.0295257568
vn 0.942871094 0.321289062 0.0881958008
vn 0.972167969 0.119567871 0.200317383
vn 0.978027344 0.128173828 -0.164428711
vn 0.946289062 0.322265625 -0.0276641846
vn 0.946289062 0.126831055 -0.297119141
vn 0.934570312 0.318359375 -0.157592773
vn 0.902832031 0.120605469 -0.412353516
vn 0.907226562 0.309082031 -0.286132812
vn 0.824707031 0.281005859 -0.490966797
vn 0.868164062 0.295898438 -0.398193359
vn 0.7890625 0.455810547 -0.412353516
vn 0.827148438 0.477294922 -0.297119141
vn 0.676757812 0.590820312 -0.439453125
vn 0.741210938 0.432617188 -0.513183594
vn 0.853027344 0.495605469 -0.164428711
vn 0.684082031 0.360107422 -0.634277344
vn 0.713867188 0.624023438 -0.318115234
vn 0.862792969 0.504882812 -0.0295257568
vn 0.630371094 0.548828125 -0.548828125
vn 0.518554688 0.319091797 -0.793457031
vn 0.73828125 0.650390625 -0.177856445
vn 0.57421875 0.461425781 -0.676269531
vn 0.447509766 0.552734375 -0.702636719
vn 0.384521484 0.409912109 -0.827148438
vn 0.310058594 0.630371094 -0.711425781
vn 0.501464844 0.648925781 -0.571777344
vn 0.319580078 0.249267578 -0.9140625
vn 0.240356445 0.488769531 -0.838867188
vn 0.083190918 0.169189453 -0.981933594
vn 0.163330078 0.33203125 -0.929199219
vn -0.0846557617 0.248535156 -0.96484375
vn -0.169189453 0.083190918 -0.981933594
vn 0.00228691101 0.405273438 -0.9140625
vn -0.158813477 0.466308594 -0.870117188
vn -0.249267578 0.319580078 -0.9140625
vn -0.33203125 0.163330078 -0.929199219
vn -0.488769531 0.240356445 -0.838867188
vn 0.0897827148 0.5546875 -0.827148438
vn -0.409912109 0.384521484 -0.827148438
vn -0.630371094 0.310058594 -0.711425781
vn -0.552734375 0.447509766 -0.702636719
vn -0.319091797 0.518554688 -0.793457031
vn -0.648925781 0.501464844 -0.571777344
vn -0.731445312 0.359619141 -0.579101562
vn -0.704101562 0.542480469 -0.458740234
vn -0.590820312 0.676757812 -0.439453125
vn -0.794433594 0.390625 -0.465087891
vn -0.844726562 0.415283203 -0.338134766
vn -0.747558594 0.574707031 -0.333251953
vn -0.880859375 0.433349609 -0.190429688
vn -0.548828125 0.630371094 -0.548828125
vn -0.779785156 0.597167969 -0.18737793
vn -0.896972656 0.440917969 -0.0362243652
vn -0.461425781 0.57421875 -0.676269531
vn -0.360107422 0.684082031 -0.634277344
vn -0.624023438 0.713867188 -0.318115234
vn -0.794921875 0.605957031 -0.0355224609
vn -0.892578125 0.438964844 0.104187012
vn -0.218261719 0.640625 -0.735839844
vn -0.432617188 0.741210938 -0.513183594
vn -0.650390625 0.73828125 -0.177856445
vn -0.26171875 0.768066406 -0.584472656
vn -0.0637817383 0.60546875 -0.793457031
vn -0.132446289 0.76171875 -0.634277344
vn 0.164672852 0.691894531 -0.702636719
vn 0.0149078369 0.736328125 -0.676269531
vn 0.049987793 0.834472656 -0.548828125
vn -0.109985352 0.851074219 -0.513183594
vn 0.054901123 0.896484375 -0.439453125
vn 0.207885742 0.793457031 -0.571777344
vn -0.281005859 0.824707031 -0.490966797
vn 0.359619141 0.731445312 -0.579101562
vn 0.2265625 0.859375 -0.458740234
vn 0.542480469 0.704101562 -0.458740234
vn -0.455810547 0.7890625 -0.412353516
vn -0.120605469 0.902832031 -0.412353516
vn 0.390625 0.794433594 -0.465087891
vn 0.574707031 0.747558594 -0.333251953
vn 0.415283203 0.844726562 -0.338134766
vn 0.597167969 0.779785156 -0.18737793
vn 0.240966797 0.911621094 -0.333251953
vn 0.433349609 0.880859375 -0.190429688
vn -0.295898438 0.868164062 -0.398193359
vn -0.309082031 0.907226562 -0.286132812
vn -0.126831055 0.946289062 -0.297119141
vn 0.0585021973 0.946289062 -0.318115234
vn 0.253173828 0.94921875 -0.18737793
vn 0.440917969 0.896972656 -0.0362243652
vn -0.477294922 0.827148438 -0.297119141
vn -0.318359375 0.934570312 -0.157592773
vn -0.495605469 0.853027344 -0.164428711
vn -0.128173828 0.978027344 -0.164428711
vn 0.064453125 0.981933594 -0.177856445
vn -0.322265625 0.946289062 -0.0276641846
vn -0.504882812 0.862792969 -0.0295257568
vn -0.321289062 0.942871094 0.0881958008
vn -0.127075195 0.991699219 -0.0295257568
vn 0.259765625 0.96484375 -0.0355224609
vn 0.438964844 0.892578125 0.104187012
vn -0.663085938 0.747558594 -0.0331115723
vn 0.0689697266 0.997070312 -0.0331115723
vn -0.124206543 0.987792969 0.0914916992
vn 0.259765625 0.959960938 0.102600098
vn 0.605957031 0.794921875 -0.0355224609
vn 0.747558594 0.663085938 -0.0331115723
vn 0.0712280273 0.992675781 0.0979003906
vn 0.072265625 0.974121094 0.21484375
vn -0.119567871 0.972167969 0.200317383
vn 0.0705566406 0.932617188 0.353759766
vn 0.255371094 0.939941406 0.225463867
vn 0.602050781 0.791992188 0.102600098
vn 0.858398438 0.504882812 0.0914306641
vn 0.742675781 0.662597656 0.0979003906
vn 0.727050781 0.651855469 0.21484375
vn 0.588867188 0.776367188 0.225463867
vn 0.695800781 0.625488281 0.353759766
vn 0.843261719 0.499023438 0.200317383
vn 0.4296875 0.873535156 0.229003906
vn 0.928710938 0.31640625 0.192871094
vn 0.811035156 0.482910156 0.329833984
vn 0.9375 0.112731934 0.329833984
vn 0.243774414 0.896484375 0.370361328
vn 0.561035156 0.740234375 0.370361328
vn 0.897949219 0.305908203 0.317138672
vn 0.842773438 0.287109375 0.455566406
vn 0.871582031 0.104736328 0.478759766
vn 0.754394531 0.44921875 0.478759766
vn 0.408935547 0.831542969 0.375732422
vn 0.370117188 0.752441406 0.544921875
vn 0.512207031 0.669921875 0.537597656
vn 0.312011719 0.634765625 0.70703125
vn 0.217651367 0.814941406 0.537597656
vn 0.641113281 0.568847656 0.515136719
vn 0.772949219 0.263183594 0.577148438
vn 0.449707031 0.557128906 0.698242188
vn 0.686523438 0.363769531 0.629394531
vn 0.576171875 0.465332031 0.671875
vn 0.518554688 0.319091797 0.793457031
vn 0.640625 0.218261719 0.735839844
vn 0.466308594 0.158813477 0.870117188
vn 0.384521484 0.409912109 0.827148438
vn 0.766113281 0.130981445 0.629394531
vn 0.60546875 0.0637817383 0.793457031
vn 0.854980469 -0.0588989258 0.515136719
vn 0.740234375 -0.0168151855 0.671875
vn 0.696289062 -0.166625977 0.698242188
vn 0.5546875 -0.0897827148 0.827148438
vn 0.488769531 -0.240356445 0.838867188
vn 0.405273438 -0.00228691101 0.9140625
vn 0.33203125 -0.163330078 0.929199219
vn 0.169189453 -0.083190918 0.981933594
vn 0.248535156 0.0846557617 0.96484375
vn -0 0 1
vn 0.319580078 0.249267578 0.9140625
vn 0.083190918 0.169189453 0.981933594
vn 0.240356445 0.488769531 0.838867188
vn -0.0846557617 0.248535156 0.96484375
vn -0.169189453 0.083190918 0.981933594
vn 0.163330078 0.33203125 0.929199219
vn 0.00228691101 0.405273438 0.9140625
vn -0.158813477 0.466308594 0.870117188
vn -0.249267578 0.319580078 0.9140625
vn -0.33203125 0.163330078 0.929199219
vn -0.488769531 0.240356445 0.838867188
vn 0.0897827148 0.5546875 0.827148438
vn -0.409912109 0.384521484 0.827148438
vn -0.634765625 0.312011719 0.70703125
vn 0.166625977 0.696289062 0.698242188
vn -0.0637817383 0.60546875 0.793457031
vn 0.0588989258 0.854980469 0.515136719
vn 0.0168151855 0.740234375 0.671875
vn -0.130981445 0.766113281 0.629394531
vn -0.218261719 0.640625 0.735839844
vn -0.319091797 0.518554688 0.793457031
vn -0.557128906 0.449707031 0.698242188
vn -0.104736328 0.871582031 0.478759766
vn -0.263183594 0.772949219 0.577148438
vn -0.363769531 0.686523438 0.629394531
vn -0.112731934 0.9375 0.329833984
vn -0.287109375 0.842773438 0.455566406
vn -0.31640625 0.928710938 0.192871094
vn -0.669921875 0.512207031 0.537597656
vn -0.752441406 0.370117188 0.544921875
vn -0.465332031 0.576171875 0.671875
vn -0.568847656 0.641113281 0.515136719
vn -0.625488281 0.695800781 0.353759766
vn -0.44921875 0.754394531 0.478759766
vn -0.740234375 0.561035156 0.370361328
vn -0.831542969 0.408935547 0.375732422
vn -0.873535156 0.4296875 0.229003906
vn -0.776367188 0.588867188 0.225463867
vn -0.482910156 0.811035156 0.329833984
vn -0.791992188 0.602050781 0.102600098
vn -0.651855469 0.727050781 0.21484375
vn -0.662597656 0.742675781 0.0979003906
vn -0.504882812 0.858398438 0.0914306641
vn -0.499023438 0.843261719 0.200317383
vn -0.305908203 0.897949219 0.317138672
vn 0.844726562 -0.415283203 -0.338134766
vn 0.794433594 -0.390625 -0.465087891
vn 0.704101562 -0.542480469 -0.458740234
vn 0.731445312 -0.359619141 -0.579101562
vn 0.747558594 -0.574707031 -0.333251953
vn 0.590820312 -0.676757812 -0.439453125
vn 0.880859375 -0.433349609 -0.190429688
vn 0.648925781 -0.501464844 -0.571777344
vn 0.630371094 -0.310058594 -0.711425781
vn 0.779785156 -0.597167969 -0.18737793
vn 0.896972656 -0.440917969 -0.0362243652
vn 0.624023438 -0.713867188 -0.318115234
vn 0.794921875 -0.605957031 -0.0355224609
vn 0.892578125 -0.438964844 0.104187012
vn 0.650390625 -0.73828125 -0.177856445
vn 0.552734375 -0.447509766 -0.702636719
vn 0.548828125 -0.630371094 -0.548828125
vn 0.409912109 -0.384521484 -0.827148438
vn 0.488769531 -0.240356445 -0.838867188
vn 0.249267578 -0.319580078 -0.9140625
vn 0.158813477 -0.466308594 -0.870117188
vn 0.33203125 -0.163330078 -0.929199219
vn 0.169189453 -0.083190918 -0.981933594
vn 0.0846557617 -0.248535156 -0.96484375
vn -1.78813934E-07 0 -1
vn 0.319091797 -0.518554688 -0.793457031
vn 0.461425781 -0.57421875 -0.676269531
vn 0.360107422 -0.684082031 -0.634277344
vn 0.432617188 -0.741210938 -0.513183594
vn 0.218261719 -0.640625 -0.735839844
vn 0.26171875 -0.768066406 -0.584472656
vn -0.083190918 -0.169189453 -0.981933594
vn -0.00228691101 -0.405273438 -0.9140625
vn -0.248535156 -0.0846557617 -0.96484375
vn -0.169189453 0.083190918 -0.981933594
vn -0.405273438 0.00228691101 -0.9140625
vn -0.466308594 -0.158813477 -0.870117188
vn -0.33203125 0.163330078 -0.929199219
vn -0.488769531 0.240356445 -0.838867188
vn -0.5546875 0.0897827148 -0.827148438
vn -0.630371094 0.310058594 -0.711425781
vn -0.319580078 -0.249267578 -0.9140625
vn -0.163330078 -0.33203125 -0.929199219
vn -0.240356445 -0.488769531 -0.838867188
vn -0.0897827148 -0.5546875 -0.827148438
vn -0.310058594 -0.630371094 -0.711425781
vn -0.384521484 -0.409912109 -0.827148438
vn 0.0637817383 -0.60546875 -0.793457031
vn -0.164672852 -0.691894531 -0.702636719
vn 0.132446289 -0.76171875 -0.634277344
vn -0.0149078369 -0.736328125 -0.676269531
vn -0.049987793 -0.834472656 -0.548828125
vn 0.109985352 -0.851074219 -0.513183594
vn -0.054901123 -0.896484375 -0.439453125
vn -0.207885742 -0.793457031 -0.571777344
vn 0.281005859 -0.824707031 -0.490966797
vn 0.120605469 -0.902832031 -0.412353516
vn 0.455810547 -0.7890625 -0.412353516
vn 0.295898438 -0.868164062 -0.398193359
vn 0.477294922 -0.827148438 -0.297119141
vn 0.309082031 -0.907226562 -0.286132812
vn 0.495605469 -0.853027344 -0.164428711
vn 0.126831055 -0.946289062 -0.297119141
vn 0.318359375 -0.934570312 -0.157592773
vn 0.504882812 -0.862792969 -0.0295257568
vn 0.322265625 -0.946289062 -0.0276641846
vn 0.321289062 -0.942871094 0.0881958008
vn 0.128173828 -0.978027344 -0.164428711
vn 0.663085938 -0.747558594 -0.0331115723
vn -0.0585021973 -0.946289062 -0.318115234
vn 0.127075195 -0.991699219 -0.0295257568
vn 0.504882812 -0.858398438 0.0914306641
vn 0.791992188 -0.602050781 0.102600098
vn -0.064453125 -0.981933594 -0.177856445
vn 0.662597656 -0.742675781 0.0979003906
vn 0.776367188 -0.588867188 0.225463867
vn 0.873535156 -0.4296875 0.229003906
vn 0.651855469 -0.727050781 0.21484375
vn 0.625488281 -0.695800781 0.353759766
vn 0.740234375 -0.561035156 0.370361328
vn 0.831542969 -0.408935547 0.375732422
vn 0.752441406 -0.370117188 0.544921875
vn 0.499023438 -0.843261719 0.200317383
vn 0.669921875 -0.512207031 0.537597656
vn 0.634765625 -0.312011719 0.70703125
vn 0.557128906 -0.449707031 0.698242188
vn 0.568847656 -0.641113281 0.515136719
vn 0.409912109 -0.384521484 0.827148438
vn 0.488769531 -0.240356445 0.838867188
vn 0.249267578 -0.319580078 0.9140625
vn 0.158813477 -0.466308594 0.870117188
vn 0.33203125 -0.163330078 0.929199219
vn 0.169189453 -0.083190918 0.981933594
vn 0.0846557617 -0.248535156 0.96484375
vn -0 0 1
vn 0.319091797 -0.518554688 0.793457031
vn 0.465332031 -0.576171875 0.671875
vn 0.363769531 -0.686523438 0.629394531
vn 0.44921875 -0.754394531 0.478759766
vn 0.218261719 -0.640625 0.735839844
vn 0.482910156 -0.811035156 0.329833984
vn 0.263183594 -0.772949219 0.577148438
vn 0.31640625 -0.928710938 0.192871094
vn 0.287109375 -0.842773438 0.455566406
vn 0.305908203 -0.897949219 0.317138672
vn 0.112731934 -0.9375 0.329833984
vn 0.119567871 -0.972167969 0.200317383
vn -0.0705566406 -0.932617188 0.353759766
vn 0.104736328 -0.871582031 0.478759766
vn 0.130981445 -0.766113281 0.629394531
vn 0.124206543 -0.987792969 0.0914916992
vn -0.072265625 -0.974121094 0.21484375
vn -0.0689697266 -0.997070312 -0.0331115723
vn 0.0637817383 -0.60546875 0.793457031
vn -0.0588989258 -0.854980469 0.515136719
vn -0.0712280273 -0.992675781 0.0979003906
vn -0.259765625 -0.959960938 0.102600098
vn -0.259765625 -0.96484375 -0.0355224609
vn -0.438964844 -0.892578125 0.104187012
vn -0.255371094 -0.939941406 0.225463867
vn -0.253173828 -0.94921875 -0.18737793
vn -0.0168151855 -0.740234375 0.671875
vn -0.166625977 -0.696289062 0.698242188
vn -0.217651367 -0.814941406 0.537597656
vn -0.312011719 -0.634765625 0.70703125
vn -0.0897827148 -0.5546875 0.827148438
vn -0.243774414 -0.896484375 0.370361328
vn -0.00228691101 -0.405273438 0.9140625
vn -0.370117188 -0.752441406 0.544921875
vn -0.4296875 -0.873535156 0.229003906
vn -0.240356445 -0.488769531 0.838867188
vn -0.083190918 -0.169189453 0.981933594
vn -0.408935547 -0.831542969 0.375732422
vn -0.561035156 -0.740234375 0.370361328
vn -0.588867188 -0.776367188 0.225463867
vn -0.695800781 -0.625488281 0.353759766
vn -0.512207031 -0.669921875 0.537597656
vn -0.163330078 -0.33203125 0.929199219
vn -0.248535156 -0.0846557617 0.96484375
vn -0.169189453 0.083190918 0.981933594
vn -0.319580078 -0.249267578 0.9140625
vn -0.466308594 -0.158813477 0.870117188
vn -0.405273438 0.00228691101 0.9140625
vn -0.33203125 0.163330078 0.929199219
vn -0.488769531 0.240356445 0.838867188
vn -0.384521484 -0.409912109 0.827148438
vn -0.5546875 0.0897827148 0.827148438
vn -0.634765625 0.312011719 0.70703125
vn -0.449707031 -0.557128906 0.698242188
vn -0.518554688 -0.319091797 0.793457031
vn -0.641113281 -0.568847656 0.515136719
vn -0.576171875 -0.465332031 0.671875
vn -0.686523438 -0.363769531 0.629394531
vn -0.640625 -0.218261719 0.735839844
vn -0.60546875 -0.0637817383 0.793457031
vn -0.696289062 0.166625977 0.698242188
vn -0.754394531 -0.44921875 0.478759766
vn -0.772949219 -0.263183594 0.577148438
vn -0.766113281 -0.130981445 0.629394531
vn -0.814941406 0.217651367 0.537597656
vn -0.752441406 0.370117188 0.544921875
vn -0.740234375 0.0168151855 0.671875
vn -0.854980469 0.0588989258 0.515136719
vn -0.932617188 0.0705566406 0.353759766
vn -0.896484375 0.243774414 0.370361328
vn -0.831542969 0.408935547 0.375732422
vn -0.873535156 0.4296875 0.229003906
vn -0.871582031 -0.104736328 0.478759766
vn -0.939941406 0.255371094 0.225463867
vn -0.892578125 0.438964844 0.104187012
vn -0.842773438 -0.287109375 0.455566406
vn -0.9375 -0.112731934 0.329833984
vn -0.811035156 -0.482910156 0.329833984
vn -0.897949219 -0.305908203 0.317138672
vn -0.928710938 -0.31640625 0.192871094
vn -0.972167969 -0.119567871 0.200317383
vn -0.942871094 -0.321289062 0.0881958008
vn -0.843261719 -0.499023438 0.200317383
vn -0.974121094 0.072265625 0.21484375
vn -0.727050781 -0.651855469 0.21484375
vn -0.987792969 -0.124206543 0.0914916992
vn -0.959960938 0.259765625 0.102600098
vn -0.858398438 -0.504882812 0.0914306641
vn -0.602050781 -0.791992188 0.102600098
vn -0.992675781 0.0712280273 0.0979003906
vn -0.96484375 0.259765625 -0.0355224609
vn -0.896972656 0.440917969 -0.0362243652
vn -0.997070312 0.0689697266 -0.0331115723
vn -0.94921875 0.253173828 -0.18737793
vn -0.880859375 0.433349609 -0.190429688
vn -0.991699219 -0.127075195 -0.0295257568
vn -0.981933594 0.064453125 -0.177856445
vn -0.911621094 0.240966797 -0.333251953
vn -0.844726562 0.415283203 -0.338134766
vn -0.946289062 0.0585021973 -0.318115234
vn -0.896484375 0.054901123 -0.439453125
vn -0.859375 0.2265625 -0.458740234
vn -0.794433594 0.390625 -0.465087891
vn -0.731445312 0.359619141 -0.579101562
vn -0.793457031 0.207885742 -0.571777344
vn -0.978027344 -0.128173828 -0.164428711
vn -0.691894531 0.164672852 -0.702636719
vn -0.946289062 -0.126831055 -0.297119141
vn -0.946289062 -0.322265625 -0.0276641846
vn -0.834472656 0.049987793 -0.548828125
vn -0.60546875 -0.0637817383 -0.793457031
vn -0.934570312 -0.318359375 -0.157592773
vn -0.862792969 -0.504882812 -0.0295257568
vn -0.736328125 0.0149078369 -0.676269531
vn -0.76171875 -0.132446289 -0.634277344
vn -0.851074219 -0.109985352 -0.513183594
vn -0.640625 -0.218261719 -0.735839844
vn -0.902832031 -0.120605469 -0.412353516
vn -0.768066406 -0.26171875 -0.584472656
vn -0.518554688 -0.319091797 -0.793457031
vn -0.907226562 -0.309082031 -0.286132812
vn -0.824707031 -0.281005859 -0.490966797
vn -0.684082031 -0.360107422 -0.634277344
vn -0.447509766 -0.552734375 -0.702636719
vn -0.868164062 -0.295898438 -0.398193359
vn -0.741210938 -0.432617188 -0.513183594
vn -0.7890625 -0.455810547 -0.412353516
vn -0.676757812 -0.590820312 -0.439453125
vn -0.827148438 -0.477294922 -0.297119141
vn -0.57421875 -0.461425781 -0.676269531
vn -0.630371094 -0.548828125 -0.548828125
vn -0.501464844 -0.648925781 -0.571777344
vn -0.853027344 -0.495605469 -0.164428711
vn -0.359619141 -0.731445312 -0.579101562
vn -0.713867188 -0.624023438 -0.318115234
vn -0.73828125 -0.650390625 -0.177856445
vn -0.542480469 -0.704101562 -0.458740234
vn -0.2265625 -0.859375 -0.458740234
vn -0.574707031 -0.747558594 -0.333251953
vn -0.390625 -0.794433594 -0.465087891
vn -0.415283203 -0.844726562 -0.338134766
vn -0.240966797 -0.911621094 -0.333251953
vn -0.433349609 -0.880859375 -0.190429688
vn -0.597167969 -0.779785156 -0.18737793
vn -0.440917969 -0.896972656 -0.0362243652
vn -0.605957031 -0.794921875 -0.0355224609
vn -0.747558594 -0.663085938 -0.0331115723
vn -0.742675781 -0.662597656 0.0979003906
g Muffin_02_0
f 3/3/3 2/2/2 1/1/1
f 2/2/2 3/3/3 4/4/4
f 2/2/2 5/5/5 1/1/1
f 2/2/2 6/6/6 5/5/5
f 1/1/1 5/5/5 7/7/7
f 8/8/8 2/2/2 4/4/4
f 6/6/6 2/2/2 8/8/8
f 8/8/8 4/4/4 9/9/9
f 5/5/5 10/10/10 7/7/7
f 6/6/6 11/11/11 5/5/5
f 5/5/5 11/11/11 10/10/10
f 10/10/10 12/12/12 7/7/7
f 12/12/12 13/13/13 7/7/7
f 12/12/12 14/14/14 13/13/13
f 15/15/15 14/14/14 12/12/12
f 14/14/14 16/16/16 13/13/13
f 16/16/16 14/14/14 17/17/17
f 14/14/14 18/18/18 17/17/17
f 14/14/14 15/15/15 18/18/18
f 17/17/17 18/18/18 19/19/19
f 20/20/20 12/12/12 10/10/10
f 20/20/20 15/15/15 12/12/12
f 18/18/18 21/21/21 19/19/19
f 19/19/19 21/21/21 22/22/22
f 11/11/11 23/23/23 10/10/10
f 23/23/23 20/20/20 10/10/10
f 23/23/23 11/11/11 24/24/24
f 20/20/20 23/23/23 24/24/24
f 15/15/15 25/25/25 18/18/18
f 18/18/18 25/25/25 21/21/21
f 21/21/21 26/26/26 22/22/22
f 22/22/22 26/26/26 27/27/27
f 11/11/11 28/28/28 24/24/24
f 11/11/11 6/6/6 28/28/28
f 29/29/29 20/20/20 24/24/24
f 15/15/15 20/20/20 29/29/29
f 25/25/25 30/30/30 21/21/21
f 21/21/21 30/30/30 26/26/26
f 24/24/24 28/28/28 31/31/31
f 29/29/29 24/24/24 31/31/31
f 26/26/26 32/32/32 27/27/27
f 30/30/30 33/33/33 26/26/26
f 26/26/26 33/33/33 32/32/32
f 32/32/32 34/34/34 27/27/27
f 34/34/34 35/35/35 27/27/27
f 34/34/34 36/36/36 35/35/35
f 37/37/37 36/36/36 34/34/34
f 36/36/36 38/38/38 35/35/35
f 38/38/38 36/36/36 39/39/39
f 36/36/36 40/40/40 39/39/39
f 36/36/36 37/37/37 40/40/40
f 39/39/39 40/40/40 41/41/41
f 42/42/42 34/34/34 32/32/32
f 42/42/42 37/37/37 34/34/34
f 33/33/33 43/43/43 32/32/32
f 43/43/43 42/42/42 32/32/32
f 43/43/43 33/33/33 44/44/44
f 42/42/42 43/43/43 44/44/44
f 33/33/33 30/30/30 45/45/45
f 33/33/33 45/45/45 44/44/44
f 44/44/44 45/45/45 46/46/46
f 47/47/47 42/42/42 44/44/44
f 37/37/37 42/42/42 47/47/47
f 47/47/47 44/44/44 46/46/46
f 30/30/30 48/48/48 45/45/45
f 30/30/30 25/25/25 48/48/48
f 45/45/45 49/49/49 46/46/46
f 45/45/45 48/48/48 49/49/49
f 25/25/25 50/50/50 48/48/48
f 25/25/25 15/15/15 50/50/50
f 48/48/48 51/51/51 49/49/49
f 48/48/48 50/50/50 51/51/51
f 15/15/15 52/52/52 50/50/50
f 52/52/52 15/15/15 29/29/29
f 50/50/50 53/53/53 51/51/51
f 50/50/50 52/52/52 53/53/53
f 52/52/52 29/29/29 54/54/54
f 54/54/54 29/29/29 31/31/31
f 52/52/52 55/55/55 53/53/53
f 55/55/55 52/52/52 54/54/54
f 55/55/55 56/56/56 53/53/53
f 56/56/56 55/55/55 54/54/54
f 53/53/53 57/57/57 51/51/51
f 56/56/56 57/57/57 53/53/53
f 56/56/56 58/58/58 57/57/57
f 59/59/59 56/56/56 54/54/54
f 59/59/59 54/54/54 31/31/31
f 58/58/58 56/56/56 59/59/59
f 51/51/51 60/60/60 49/49/49
f 57/57/57 60/60/60 51/51/51
f 61/61/61 59/59/59 31/31/31
f 28/28/28 61/61/61 31/31/31
f 58/58/58 62/62/62 57/57/57
f 57/57/57 62/62/62 60/60/60
f 60/60/60 63/63/63 49/49/49
f 49/49/49 63/63/63 46/46/46
f 64/64/64 59/59/59 61/61/61
f 64/64/64 58/58/58 59/59/59
f 28/28/28 65/65/65 61/61/61
f 6/6/6 65/65/65 28/28/28
f 62/62/62 66/66/66 60/60/60
f 60/60/60 66/66/66 63/63/63
f 67/67/67 64/64/64 61/61/61
f 65/65/65 67/67/67 61/61/61
f 64/64/64 67/67/67 68/68/68
f 67/67/67 65/65/65 68/68/68
f 65/65/65 6/6/6 69/69/69
f 65/65/65 69/69/69 68/68/68
f 68/68/68 69/69/69 70/70/70
f 71/71/71 64/64/64 68/68/68
f 58/58/58 64/64/64 71/71/71
f 71/71/71 68/68/68 70/70/70
f 6/6/6 72/72/72 69/69/69
f 72/72/72 6/6/6 8/8/8
f 69/69/69 73/73/73 70/70/70
f 69/69/69 72/72/72 73/73/73
f 72/72/72 8/8/8 74/74/74
f 74/74/74 8/8/8 9/9/9
f 72/72/72 75/75/75 73/73/73
f 75/75/75 72/72/72 74/74/74
f 76/76/76 74/74/74 9/9/9
f 77/77/77 76/76/76 9/9/9
f 78/78/78 75/75/75 74/74/74
f 75/75/75 78/78/78 73/73/73
f 76/76/76 78/78/78 74/74/74
f 79/79/79 78/78/78 76/76/76
f 80/80/80 76/76/76 77/77/77
f 80/80/80 79/79/79 76/76/76
f 81/81/81 80/80/80 77/77/77
f 80/80/80 81/81/81 82/82/82
f 78/78/78 83/83/83 73/73/73
f 73/73/73 83/83/83 70/70/70
f 78/78/78 79/79/79 83/83/83
f 84/84/84 80/80/80 82/82/82
f 79/79/79 80/80/80 84/84/84
f 84/84/84 82/82/82 85/85/85
f 86/86/86 84/84/84 85/85/85
f 87/87/87 79/79/79 84/84/84
f 87/87/87 84/84/84 86/86/86
f 88/88/88 86/86/86 85/85/85
f 89/89/89 88/88/88 85/85/85
f 90/90/90 88/88/88 89/89/89
f 90/90/90 91/91/91 88/88/88
f 92/92/92 90/90/90 89/89/89
f 90/90/90 92/92/92 93/93/93
f 94/94/94 90/90/90 93/93/93
f 91/91/91 90/90/90 94/94/94
f 94/94/94 93/93/93 95/95/95
f 88/88/88 96/96/96 86/86/86
f 91/91/91 96/96/96 88/88/88
f 97/97/97 94/94/94 95/95/95
f 97/97/97 95/95/95 98/98/98
f 99/99/99 87/87/87 86/86/86
f 96/96/96 99/99/99 86/86/86
f 87/87/87 99/99/99 100/100/100
f 99/99/99 96/96/96 100/100/100
f 101/101/101 91/91/91 94/94/94
f 101/101/101 94/94/94 97/97/97
f 102/102/102 97/97/97 98/98/98
f 102/102/102 98/98/98 103/103/103
f 104/104/104 87/87/87 100/100/100
f 79/79/79 87/87/87 104/104/104
f 96/96/96 105/105/105 100/100/100
f 96/96/96 91/91/91 105/105/105
f 106/106/106 101/101/101 97/97/97
f 106/106/106 97/97/97 102/102/102
f 104/104/104 100/100/100 107/107/107
f 100/100/100 105/105/105 107/107/107
f 108/108/108 79/79/79 104/104/104
f 79/79/79 108/108/108 83/83/83
f 109/109/109 104/104/104 107/107/107
f 108/108/108 104/104/104 109/109/109
f 83/83/83 108/108/108 110/110/110
f 83/83/83 110/110/110 70/70/70
f 111/111/111 108/108/108 109/109/109
f 108/108/108 111/111/111 110/110/110
f 112/112/112 111/111/111 109/109/109
f 111/111/111 112/112/112 110/110/110
f 113/113/113 109/109/109 107/107/107
f 113/113/113 112/112/112 109/109/109
f 114/114/114 112/112/112 113/113/113
f 112/112/112 115/115/115 110/110/110
f 110/110/110 115/115/115 70/70/70
f 112/112/112 114/114/114 115/115/115
f 105/105/105 116/116/116 107/107/107
f 116/116/116 113/113/113 107/107/107
f 115/115/115 117/117/117 70/70/70
f 117/117/117 71/71/71 70/70/70
f 114/114/114 118/118/118 115/115/115
f 115/115/115 118/118/118 117/117/117
f 119/119/119 71/71/71 117/117/117
f 119/119/119 58/58/58 71/71/71
f 105/105/105 120/120/120 116/116/116
f 91/91/91 120/120/120 105/105/105
f 121/121/121 113/113/113 116/116/116
f 121/121/121 114/114/114 113/113/113
f 118/118/118 122/122/122 117/117/117
f 122/122/122 119/119/119 117/117/117
f 58/58/58 119/119/119 123/123/123
f 62/62/62 58/58/58 123/123/123
f 119/119/119 122/122/122 124/124/124
f 122/122/122 118/118/118 124/124/124
f 123/123/123 119/119/119 124/124/124
f 62/62/62 123/123/123 125/125/125
f 66/66/66 62/62/62 125/125/125
f 118/118/118 126/126/126 124/124/124
f 118/118/118 114/114/114 126/126/126
f 123/123/123 124/124/124 127/127/127
f 125/125/125 123/123/123 127/127/127
f 124/124/124 126/126/126 127/127/127
f 128/128/128 121/121/121 116/116/116
f 120/120/120 128/128/128 116/116/116
f 121/121/121 128/128/128 129/129/129
f 128/128/128 120/120/120 129/129/129
f 114/114/114 121/121/121 130/130/130
f 130/130/130 121/121/121 129/129/129
f 114/114/114 131/131/131 126/126/126
f 131/131/131 114/114/114 130/130/130
f 126/126/126 132/132/132 127/127/127
f 126/126/126 131/131/131 132/132/132
f 125/125/125 127/127/127 133/133/133
f 127/127/127 132/132/132 133/133/133
f 120/120/120 134/134/134 129/129/129
f 120/120/120 91/91/91 134/134/134
f 91/91/91 101/101/101 134/134/134
f 130/130/130 129/129/129 135/135/135
f 129/129/129 134/134/134 135/135/135
f 134/134/134 101/101/101 136/136/136
f 134/134/134 136/136/136 135/135/135
f 101/101/101 106/106/106 136/136/136
f 131/131/131 130/130/130 137/137/137
f 137/137/137 130/130/130 135/135/135
f 131/131/131 138/138/138 132/132/132
f 138/138/138 131/131/131 137/137/137
f 135/135/135 136/136/136 139/139/139
f 137/137/137 135/135/135 139/139/139
f 136/136/136 106/106/106 140/140/140
f 136/136/136 140/140/140 139/139/139
f 139/139/139 140/140/140 141/141/141
f 142/142/142 137/137/137 139/139/139
f 138/138/138 137/137/137 142/142/142
f 142/142/142 139/139/139 141/141/141
f 132/132/132 138/138/138 143/143/143
f 132/132/132 143/143/143 133/133/133
f 133/133/133 143/143/143 144/144/144
f 106/106/106 145/145/145 140/140/140
f 145/145/145 106/106/106 102/102/102
f 146/146/146 138/138/138 142/142/142
f 138/138/138 146/146/146 143/143/143
f 147/147/147 142/142/142 141/141/141
f 146/146/146 142/142/142 147/147/147
f 143/143/143 146/146/146 148/148/148
f 143/143/143 148/148/148 144/144/144
f 149/149/149 133/133/133 144/144/144
f 149/149/149 125/125/125 133/133/133
f 66/66/66 125/125/125 149/149/149
f 150/150/150 66/66/66 149/149/149
f 66/66/66 150/150/150 63/63/63
f 151/151/151 146/146/146 147/147/147
f 146/146/146 151/151/151 148/148/148
f 152/152/152 151/151/151 147/147/147
f 151/151/151 152/152/152 148/148/148
f 153/153/153 147/147/147 141/141/141
f 153/153/153 152/152/152 147/147/147
f 154/154/154 152/152/152 153/153/153
f 152/152/152 155/155/155 148/148/148
f 148/148/148 155/155/155 144/144/144
f 152/152/152 154/154/154 155/155/155
f 150/150/150 149/149/149 156/156/156
f 156/156/156 149/149/149 144/144/144
f 63/63/63 150/150/150 157/157/157
f 63/63/63 157/157/157 46/46/46
f 158/158/158 150/150/150 156/156/156
f 150/150/150 158/158/158 157/157/157
f 159/159/159 158/158/158 156/156/156
f 158/158/158 159/159/159 157/157/157
f 160/160/160 156/156/156 144/144/144
f 160/160/160 159/159/159 156/156/156
f 161/161/161 159/159/159 160/160/160
f 159/159/159 162/162/162 157/157/157
f 157/157/157 162/162/162 46/46/46
f 159/159/159 161/161/161 162/162/162
f 155/155/155 163/163/163 144/144/144
f 163/163/163 160/160/160 144/144/144
f 162/162/162 164/164/164 46/46/46
f 164/164/164 47/47/47 46/46/46
f 161/161/161 165/165/165 162/162/162
f 162/162/162 165/165/165 164/164/164
f 166/166/166 47/47/47 164/164/164
f 166/166/166 37/37/37 47/47/47
f 155/155/155 167/167/167 163/163/163
f 154/154/154 167/167/167 155/155/155
f 168/168/168 160/160/160 163/163/163
f 168/168/168 161/161/161 160/160/160
f 165/165/165 169/169/169 164/164/164
f 169/169/169 166/166/166 164/164/164
f 169/169/169 165/165/165 170/170/170
f 166/166/166 169/169/169 170/170/170
f 37/37/37 166/166/166 171/171/171
f 171/171/171 166/166/166 170/170/170
f 165/165/165 172/172/172 170/170/170
f 165/165/165 161/161/161 172/172/172
f 167/167/167 173/173/173 163/163/163
f 173/173/173 168/168/168 163/163/163
f 173/173/173 167/167/167 174/174/174
f 168/168/168 173/173/173 174/174/174
f 161/161/161 168/168/168 175/175/175
f 175/175/175 168/168/168 174/174/174
f 175/175/175 174/174/174 176/176/176
f 167/167/167 177/177/177 174/174/174
f 174/174/174 177/177/177 176/176/176
f 167/167/167 154/154/154 177/177/177
f 178/178/178 161/161/161 175/175/175
f 161/161/161 178/178/178 172/172/172
f 170/170/170 172/172/172 179/179/179
f 171/171/171 170/170/170 179/179/179
f 180/180/180 175/175/175 176/176/176
f 178/178/178 175/175/175 180/180/180
f 172/172/172 178/178/178 181/181/181
f 172/172/172 181/181/181 179/179/179
f 182/182/182 178/178/178 180/180/180
f 178/178/178 182/182/182 181/181/181
f 183/183/183 182/182/182 180/180/180
f 182/182/182 183/183/183 181/181/181
f 181/181/181 184/184/184 179/179/179
f 183/183/183 184/184/184 181/181/181
f 183/183/183 185/185/185 184/184/184
f 186/186/186 183/183/183 180/180/180
f 186/186/186 180/180/180 176/176/176
f 185/185/185 183/183/183 186/186/186
f 187/187/187 171/171/171 179/179/179
f 184/184/184 187/187/187 179/179/179
f 185/185/185 188/188/188 184/184/184
f 184/184/184 188/188/188 187/187/187
f 189/189/189 171/171/171 187/187/187
f 189/189/189 37/37/37 171/171/171
f 37/37/37 189/189/189 40/40/40
f 190/190/190 189/189/189 187/187/187
f 188/188/188 190/190/190 187/187/187
f 40/40/40 189/189/189 191/191/191
f 189/189/189 190/190/190 191/191/191
f 190/190/190 188/188/188 191/191/191
f 40/40/40 191/191/191 41/41/41
f 188/188/188 192/192/192 191/191/191
f 191/191/191 192/192/192 41/41/41
f 188/188/188 185/185/185 192/192/192
f 192/192/192 193/193/193 41/41/41
f 192/192/192 194/194/194 193/193/193
f 185/185/185 194/194/194 192/192/192
f 194/194/194 195/195/195 193/193/193
f 195/195/195 194/194/194 196/196/196
f 194/194/194 197/197/197 196/196/196
f 194/194/194 185/185/185 197/197/197
f 196/196/196 197/197/197 198/198/198
f 185/185/185 199/199/199 197/197/197
f 199/199/199 185/185/185 186/186/186
f 197/197/197 200/200/200 198/198/198
f 197/197/197 199/199/199 200/200/200
f 199/199/199 186/186/186 201/201/201
f 201/201/201 186/186/186 176/176/176
f 200/200/200 202/202/202 198/198/198
f 202/202/202 203/203/203 198/198/198
f 199/199/199 204/204/204 200/200/200
f 204/204/204 199/199/199 201/201/201
f 204/204/204 205/205/205 200/200/200
f 205/205/205 204/204/204 201/201/201
f 205/205/205 202/202/202 200/200/200
f 205/205/205 206/206/206 202/202/202
f 202/202/202 207/207/207 203/203/203
f 206/206/206 207/207/207 202/202/202
f 207/207/207 208/208/208 203/203/203
f 208/208/208 207/207/207 209/209/209
f 210/210/210 205/205/205 201/201/201
f 210/210/210 201/201/201 176/176/176
f 206/206/206 205/205/205 210/210/210
f 207/207/207 211/211/211 209/209/209
f 207/207/207 206/206/206 211/211/211
f 209/209/209 211/211/211 212/212/212
f 213/213/213 210/210/210 176/176/176
f 177/177/177 213/213/213 176/176/176
f 214/214/214 206/206/206 210/210/210
f 214/214/214 210/210/210 213/213/213
f 177/177/177 215/215/215 213/213/213
f 154/154/154 215/215/215 177/177/177
f 216/216/216 214/214/214 213/213/213
f 215/215/215 216/216/216 213/213/213
f 214/214/214 216/216/216 217/217/217
f 216/216/216 215/215/215 217/217/217
f 206/206/206 214/214/214 218/218/218
f 218/218/218 214/214/214 217/217/217
f 206/206/206 219/219/219 211/211/211
f 219/219/219 206/206/206 218/218/218
f 211/211/211 220/220/220 212/212/212
f 211/211/211 219/219/219 220/220/220
f 215/215/215 154/154/154 221/221/221
f 215/215/215 221/221/221 217/217/217
f 218/218/218 217/217/217 222/222/222
f 217/217/217 221/221/221 222/222/222
f 219/219/219 218/218/218 223/223/223
f 223/223/223 218/218/218 222/222/222
f 154/154/154 224/224/224 221/221/221
f 224/224/224 154/154/154 153/153/153
f 221/221/221 225/225/225 222/222/222
f 221/221/221 224/224/224 225/225/225
f 224/224/224 153/153/153 226/226/226
f 226/226/226 153/153/153 141/141/141
f 220/220/220 227/227/227 212/212/212
f 227/227/227 228/228/228 212/212/212
f 219/219/219 229/229/229 220/220/220
f 229/229/229 219/219/219 223/223/223
f 229/229/229 230/230/230 220/220/220
f 230/230/230 229/229/229 223/223/223
f 230/230/230 227/227/227 220/220/220
f 230/230/230 231/231/231 227/227/227
f 232/232/232 223/223/223 222/222/222
f 232/232/232 230/230/230 223/223/223
f 231/231/231 230/230/230 232/232/232
f 225/225/225 232/232/232 222/222/222
f 227/227/227 233/233/233 228/228/228
f 231/231/231 233/233/233 227/227/227
f 233/233/233 234/234/234 228/228/228
f 234/234/234 233/233/233 235/235/235
f 233/233/233 236/236/236 235/235/235
f 233/233/233 231/231/231 236/236/236
f 235/235/235 236/236/236 103/103/103
f 237/237/237 232/232/232 225/225/225
f 237/237/237 231/231/231 232/232/232
f 236/236/236 238/238/238 103/103/103
f 238/238/238 102/102/102 103/103/103
f 145/145/145 102/102/102 238/238/238
f 231/231/231 239/239/239 236/236/236
f 236/236/236 239/239/239 238/238/238
f 240/240/240 145/145/145 238/238/238
f 239/239/239 240/240/240 238/238/238
f 145/145/145 240/240/240 241/241/241
f 240/240/240 239/239/239 241/241/241
f 140/140/140 145/145/145 241/241/241
f 140/140/140 241/241/241 141/141/141
f 239/239/239 231/231/231 242/242/242
f 239/239/239 242/242/242 241/241/241
f 241/241/241 242/242/242 141/141/141
f 231/231/231 237/237/237 242/242/242
f 242/242/242 226/226/226 141/141/141
f 242/242/242 237/237/237 226/226/226
f 243/243/243 237/237/237 225/225/225
f 237/237/237 243/243/243 226/226/226
f 224/224/224 243/243/243 225/225/225
f 243/243/243 224/224/224 226/226/226
f 246/246/246 245/245/245 244/244/244
f 245/245/245 246/246/246 247/247/247
f 248/248/248 246/246/246 244/244/244
f 249/249/249 246/246/246 248/248/248
f 248/248/248 244/244/244 250/250/250
f 246/246/246 251/251/251 247/247/247
f 246/246/246 249/249/249 251/251/251
f 247/247/247 251/251/251 252/252/252
f 253/253/253 248/248/248 250/250/250
f 253/253/253 250/250/250 254/254/254
f 255/255/255 249/249/249 248/248/248
f 255/255/255 248/248/248 253/253/253
f 256/256/256 253/253/253 254/254/254
f 256/256/256 254/254/254 257/257/257
f 258/258/258 255/255/255 253/253/253
f 258/258/258 253/253/253 256/256/256
f 251/251/251 259/259/259 252/252/252
f 249/249/249 260/260/260 251/251/251
f 251/251/251 260/260/260 259/259/259
f 259/259/259 261/261/261 252/252/252
f 261/261/261 262/262/262 252/252/252
f 261/261/261 263/263/263 262/262/262
f 264/264/264 263/263/263 261/261/261
f 263/263/263 265/265/265 262/262/262
f 265/265/265 263/263/263 266/266/266
f 263/263/263 267/267/267 266/266/266
f 263/263/263 264/264/264 267/267/267
f 266/266/266 267/267/267 268/268/268
f 269/269/269 261/261/261 259/259/259
f 269/269/269 264/264/264 261/261/261
f 260/260/260 270/270/270 259/259/259
f 270/270/270 269/269/269 259/259/259
f 270/270/270 260/260/260 271/271/271
f 269/269/269 270/270/270 271/271/271
f 260/260/260 249/249/249 272/272/272
f 260/260/260 272/272/272 271/271/271
f 273/273/273 269/269/269 271/271/271
f 264/264/264 269/269/269 273/273/273
f 271/271/271 272/272/272 274/274/274
f 273/273/273 271/271/271 274/274/274
f 267/267/267 275/275/275 268/268/268
f 264/264/264 276/276/276 267/267/267
f 267/267/267 276/276/276 275/275/275
f 275/275/275 277/277/277 268/268/268
f 277/277/277 278/278/278 268/268/268
f 277/277/277 279/279/279 278/278/278
f 280/280/280 279/279/279 277/277/277
f 279/279/279 281/281/281 278/278/278
f 281/281/281 279/279/279 282/282/282
f 279/279/279 283/283/283 282/282/282
f 279/279/279 280/280/280 283/283/283
f 282/282/282 283/283/283 284/284/284
f 285/285/285 277/277/277 275/275/275
f 285/285/285 280/280/280 277/277/277
f 276/276/276 286/286/286 275/275/275
f 286/286/286 285/285/285 275/275/275
f 286/286/286 276/276/276 287/287/287
f 285/285/285 286/286/286 287/287/287
f 276/276/276 264/264/264 288/288/288
f 276/276/276 288/288/288 287/287/287
f 287/287/287 288/288/288 289/289/289
f 290/290/290 285/285/285 287/287/287
f 280/280/280 285/285/285 290/290/290
f 290/290/290 287/287/287 289/289/289
f 264/264/264 291/291/291 288/288/288
f 291/291/291 264/264/264 273/273/273
f 288/288/288 292/292/292 289/289/289
f 288/288/288 291/291/291 292/292/292
f 291/291/291 273/273/273 293/293/293
f 293/293/293 273/273/273 274/274/274
f 291/291/291 294/294/294 292/292/292
f 294/294/294 291/291/291 293/293/293
f 294/294/294 295/295/295 292/292/292
f 295/295/295 294/294/294 293/293/293
f 296/296/296 293/293/293 274/274/274
f 296/296/296 295/295/295 293/293/293
f 297/297/297 295/295/295 296/296/296
f 295/295/295 298/298/298 292/292/292
f 292/292/292 298/298/298 289/289/289
f 295/295/295 297/297/297 298/298/298
f 299/299/299 296/296/296 274/274/274
f 272/272/272 299/299/299 274/274/274
f 300/300/300 297/297/297 296/296/296
f 300/300/300 296/296/296 299/299/299
f 272/272/272 301/301/301 299/299/299
f 249/249/249 301/301/301 272/272/272
f 302/302/302 300/300/300 299/299/299
f 301/301/301 302/302/302 299/299/299
f 301/301/301 249/249/249 303/303/303
f 249/249/249 255/255/255 303/303/303
f 302/302/302 301/301/301 304/304/304
f 300/300/300 302/302/302 304/304/304
f 301/301/301 303/303/303 304/304/304
f 303/303/303 255/255/255 305/305/305
f 255/255/255 258/258/258 305/305/305
f 306/306/306 300/300/300 304/304/304
f 297/297/297 300/300/300 306/306/306
f 304/304/304 303/303/303 307/307/307
f 303/303/303 305/305/305 307/307/307
f 306/306/306 304/304/304 307/307/307
f 305/305/305 258/258/258 308/308/308
f 307/307/307 305/305/305 309/309/309
f 305/305/305 308/308/308 309/309/309
f 309/309/309 308/308/308 310/310/310
f 311/311/311 306/306/306 307/307/307
f 311/311/311 307/307/307 309/309/309
f 258/258/258 312/312/312 308/308/308
f 312/312/312 258/258/258 256/256/256
f 313/313/313 297/297/297 306/306/306
f 313/313/313 306/306/306 311/311/311
f 314/314/314 311/311/311 309/309/309
f 314/314/314 309/309/309 310/310/310
f 308/308/308 315/315/315 310/310/310
f 308/308/308 312/312/312 315/315/315
f 312/312/312 256/256/256 316/316/316
f 316/316/316 256/256/256 257/257/257
f 317/317/317 313/313/313 311/311/311
f 317/317/317 311/311/311 314/314/314
f 312/312/312 318/318/318 315/315/315
f 318/318/318 312/312/312 316/316/316
f 319/319/319 316/316/316 257/257/257
f 320/320/320 319/319/319 257/257/257
f 321/321/321 318/318/318 316/316/316
f 318/318/318 321/321/321 315/315/315
f 319/319/319 321/321/321 316/316/316
f 322/322/322 321/321/321 319/319/319
f 323/323/323 319/319/319 320/320/320
f 323/323/323 322/322/322 319/319/319
f 324/324/324 323/323/323 320/320/320
f 323/323/323 324/324/324 325/325/325
f 321/321/321 326/326/326 315/315/315
f 321/321/321 322/322/322 326/326/326
f 315/315/315 326/326/326 310/310/310
f 327/327/327 323/323/323 325/325/325
f 322/322/322 323/323/323 327/327/327
f 327/327/327 325/325/325 328/328/328
f 329/329/329 327/327/327 328/328/328
f 330/330/330 322/322/322 327/327/327
f 330/330/330 327/327/327 329/329/329
f 331/331/331 329/329/329 328/328/328
f 332/332/332 331/331/331 328/328/328
f 333/333/333 331/331/331 332/332/332
f 333/333/333 334/334/334 331/331/331
f 335/335/335 333/333/333 332/332/332
f 333/333/333 335/335/335 336/336/336
f 337/337/337 333/333/333 336/336/336
f 334/334/334 333/333/333 337/337/337
f 337/337/337 336/336/336 338/338/338
f 331/331/331 339/339/339 329/329/329
f 334/334/334 339/339/339 331/331/331
f 340/340/340 330/330/330 329/329/329
f 339/339/339 340/340/340 329/329/329
f 330/330/330 340/340/340 341/341/341
f 340/340/340 339/339/339 341/341/341
f 322/322/322 330/330/330 342/342/342
f 342/342/342 330/330/330 341/341/341
f 339/339/339 343/343/343 341/341/341
f 339/339/339 334/334/334 343/343/343
f 344/344/344 322/322/322 342/342/342
f 322/322/322 344/344/344 326/326/326
f 342/342/342 341/341/341 345/345/345
f 341/341/341 343/343/343 345/345/345
f 326/326/326 344/344/344 346/346/346
f 326/326/326 346/346/346 310/310/310
f 344/344/344 342/342/342 347/347/347
f 347/347/347 342/342/342 345/345/345
f 344/344/344 348/348/348 346/346/346
f 348/348/348 344/344/344 347/347/347
f 348/348/348 349/349/349 346/346/346
f 349/349/349 348/348/348 347/347/347
f 346/346/346 350/350/350 310/310/310
f 349/349/349 350/350/350 346/346/346
f 349/349/349 351/351/351 350/350/350
f 352/352/352 349/349/349 347/347/347
f 352/352/352 347/347/347 345/345/345
f 351/351/351 349/349/349 352/352/352
f 343/343/343 353/353/353 345/345/345
f 353/353/353 352/352/352 345/345/345
f 350/350/350 354/354/354 310/310/310
f 354/354/354 314/314/314 310/310/310
f 351/351/351 355/355/355 350/350/350
f 350/350/350 355/355/355 354/354/354
f 356/356/356 314/314/314 354/354/354
f 356/356/356 317/317/317 314/314/314
f 343/343/343 357/357/357 353/353/353
f 334/334/334 357/357/357 343/343/343
f 358/358/358 352/352/352 353/353/353
f 358/358/358 351/351/351 352/352/352
f 355/355/355 359/359/359 354/354/354
f 359/359/359 356/356/356 354/354/354
f 359/359/359 355/355/355 360/360/360
f 356/356/356 359/359/359 360/360/360
f 317/317/317 356/356/356 361/361/361
f 361/361/361 356/356/356 360/360/360
f 361/361/361 360/360/360 362/362/362
f 355/355/355 363/363/363 360/360/360
f 355/355/355 351/351/351 363/363/363
f 360/360/360 363/363/363 362/362/362
f 364/364/364 317/317/317 361/361/361
f 313/313/313 317/317/317 364/364/364
f 365/365/365 358/358/358 353/353/353
f 357/357/357 365/365/365 353/353/353
f 358/358/358 365/365/365 366/366/366
f 365/365/365 357/357/357 366/366/366
f 351/351/351 358/358/358 367/367/367
f 367/367/367 358/358/358 366/366/366
f 367/367/367 366/366/366 368/368/368
f 357/357/357 369/369/369 366/366/366
f 366/366/366 369/369/369 368/368/368
f 357/357/357 334/334/334 369/369/369
f 351/351/351 370/370/370 363/363/363
f 370/370/370 351/351/351 367/367/367
f 334/334/334 371/371/371 369/369/369
f 371/371/371 334/334/334 337/337/337
f 372/372/372 367/367/367 368/368/368
f 370/370/370 367/367/367 372/372/372
f 363/363/363 370/370/370 373/373/373
f 363/363/363 373/373/373 362/362/362
f 369/369/369 374/374/374 368/368/368
f 369/369/369 371/371/371 374/374/374
f 371/371/371 337/337/337 375/375/375
f 375/375/375 337/337/337 338/338/338
f 376/376/376 370/370/370 372/372/372
f 370/370/370 376/376/376 373/373/373
f 377/377/377 376/376/376 372/372/372
f 376/376/376 377/377/377 373/373/373
f 373/373/373 378/378/378 362/362/362
f 377/377/377 378/378/378 373/373/373
f 377/377/377 379/379/379 378/378/378
f 380/380/380 377/377/377 372/372/372
f 380/380/380 372/372/372 368/368/368
f 379/379/379 377/377/377 380/380/380
f 371/371/371 381/381/381 374/374/374
f 381/381/381 371/371/371 375/375/375
f 382/382/382 375/375/375 338/338/338
f 383/383/383 382/382/382 338/338/338
f 384/384/384 381/381/381 375/375/375
f 381/381/381 384/384/384 374/374/374
f 382/382/382 384/384/384 375/375/375
f 385/385/385 384/384/384 382/382/382
f 386/386/386 382/382/382 383/383/383
f 386/386/386 385/385/385 382/382/382
f 387/387/387 386/386/386 383/383/383
f 386/386/386 387/387/387 388/388/388
f 384/384/384 389/389/389 374/374/374
f 384/384/384 385/385/385 389/389/389
f 374/374/374 389/389/389 368/368/368
f 390/390/390 386/386/386 388/388/388
f 385/385/385 386/386/386 390/390/390
f 390/390/390 388/388/388 391/391/391
f 389/389/389 392/392/392 368/368/368
f 392/392/392 380/380/380 368/368/368
f 385/385/385 393/393/393 389/389/389
f 389/389/389 393/393/393 392/392/392
f 394/394/394 380/380/380 392/392/392
f 394/394/394 379/379/379 380/380/380
f 393/393/393 395/395/395 392/392/392
f 395/395/395 394/394/394 392/392/392
f 395/395/395 393/393/393 396/396/396
f 394/394/394 395/395/395 396/396/396
f 393/393/393 385/385/385 397/397/397
f 393/393/393 397/397/397 396/396/396
f 398/398/398 385/385/385 390/390/390
f 385/385/385 398/398/398 397/397/397
f 399/399/399 390/390/390 391/391/391
f 398/398/398 390/390/390 399/399/399
f 400/400/400 394/394/394 396/396/396
f 379/379/379 394/394/394 400/400/400
f 396/396/396 397/397/397 401/401/401
f 400/400/400 396/396/396 401/401/401
f 397/397/397 398/398/398 402/402/402
f 397/397/397 402/402/402 401/401/401
f 403/403/403 399/399/399 391/391/391
f 404/404/404 403/403/403 391/391/391
f 405/405/405 398/398/398 399/399/399
f 398/398/398 405/405/405 402/402/402
f 406/406/406 405/405/405 399/399/399
f 405/405/405 406/406/406 402/402/402
f 403/403/403 406/406/406 399/399/399
f 407/407/407 406/406/406 403/403/403
f 408/408/408 403/403/403 404/404/404
f 408/408/408 407/407/407 403/403/403
f 409/409/409 408/408/408 404/404/404
f 408/408/408 409/409/409 410/410/410
f 406/406/406 411/411/411 402/402/402
f 402/402/402 411/411/411 401/401/401
f 406/406/406 407/407/407 411/411/411
f 412/412/412 408/408/408 410/410/410
f 407/407/407 408/408/408 412/412/412
f 412/412/412 410/410/410 413/413/413
f 411/411/411 414/414/414 401/401/401
f 414/414/414 400/400/400 401/401/401
f 407/407/407 415/415/415 411/411/411
f 411/411/411 415/415/415 414/414/414
f 416/416/416 400/400/400 414/414/414
f 416/416/416 379/379/379 400/400/400
f 415/415/415 417/417/417 414/414/414
f 417/417/417 416/416/416 414/414/414
f 417/417/417 415/415/415 418/418/418
f 416/416/416 417/417/417 418/418/418
f 415/415/415 407/407/407 419/419/419
f 415/415/415 419/419/419 418/418/418
f 418/418/418 419/419/419 420/420/420
f 421/421/421 416/416/416 418/418/418
f 379/379/379 416/416/416 421/421/421
f 421/421/421 418/418/418 420/420/420
f 422/422/422 407/407/407 412/412/412
f 407/407/407 422/422/422 419/419/419
f 423/423/423 379/379/379 421/421/421
f 379/379/379 423/423/423 378/378/378
f 419/419/419 424/424/424 420/420/420
f 419/419/419 422/422/422 424/424/424
f 422/422/422 412/412/412 425/425/425
f 425/425/425 412/412/412 413/413/413
f 426/426/426 421/421/421 420/420/420
f 423/423/423 421/421/421 426/426/426
f 378/378/378 423/423/423 427/427/427
f 378/378/378 427/427/427 362/362/362
f 422/422/422 428/428/428 424/424/424
f 428/428/428 422/422/422 425/425/425
f 429/429/429 425/425/425 413/413/413
f 430/430/430 429/429/429 413/413/413
f 431/431/431 428/428/428 425/425/425
f 428/428/428 431/431/431 424/424/424
f 429/429/429 431/431/431 425/425/425
f 432/432/432 429/429/429 430/430/430
f 433/433/433 432/432/432 430/430/430
f 431/431/431 434/434/434 424/424/424
f 424/424/424 434/434/434 420/420/420
f 435/435/435 431/431/431 429/429/429
f 432/432/432 435/435/435 429/429/429
f 431/431/431 435/435/435 434/434/434
f 436/436/436 432/432/432 433/433/433
f 437/437/437 436/436/436 433/433/433
f 438/438/438 435/435/435 432/432/432
f 436/436/436 438/438/438 432/432/432
f 439/439/439 438/438/438 436/436/436
f 440/440/440 436/436/436 437/437/437
f 440/440/440 439/439/439 436/436/436
f 441/441/441 440/440/440 437/437/437
f 440/440/440 441/441/441 442/442/442
f 443/443/443 440/440/440 442/442/442
f 439/439/439 440/440/440 443/443/443
f 443/443/443 442/442/442 284/284/284
f 435/435/435 444/444/444 434/434/434
f 435/435/435 438/438/438 444/444/444
f 445/445/445 443/443/443 284/284/284
f 283/283/283 445/445/445 284/284/284
f 438/438/438 439/439/439 446/446/446
f 438/438/438 446/446/446 444/444/444
f 434/434/434 444/444/444 447/447/447
f 434/434/434 447/447/447 420/420/420
f 448/448/448 443/443/443 445/445/445
f 448/448/448 439/439/439 443/443/443
f 283/283/283 449/449/449 445/445/445
f 280/280/280 449/449/449 283/283/283
f 444/444/444 446/446/446 450/450/450
f 444/444/444 450/450/450 447/447/447
f 447/447/447 451/451/451 420/420/420
f 451/451/451 426/426/426 420/420/420
f 452/452/452 448/448/448 445/445/445
f 449/449/449 452/452/452 445/445/445
f 448/448/448 452/452/452 453/453/453
f 452/452/452 449/449/449 453/453/453
f 439/439/439 448/448/448 454/454/454
f 454/454/454 448/448/448 453/453/453
f 449/449/449 280/280/280 455/455/455
f 449/449/449 455/455/455 453/453/453
f 439/439/439 456/456/456 446/446/446
f 456/456/456 439/439/439 454/454/454
f 454/454/454 453/453/453 457/457/457
f 453/453/453 455/455/455 457/457/457
f 280/280/280 458/458/458 455/455/455
f 458/458/458 280/280/280 290/290/290
f 446/446/446 456/456/456 459/459/459
f 446/446/446 459/459/459 450/450/450
f 456/456/456 454/454/454 460/460/460
f 460/460/460 454/454/454 457/457/457
f 455/455/455 461/461/461 457/457/457
f 455/455/455 458/458/458 461/461/461
f 458/458/458 290/290/290 462/462/462
f 462/462/462 290/290/290 289/289/289
f 456/456/456 463/463/463 459/459/459
f 463/463/463 456/456/456 460/460/460
f 464/464/464 460/460/460 457/457/457
f 461/461/461 464/464/464 457/457/457
f 465/465/465 463/463/463 460/460/460
f 463/463/463 465/465/465 459/459/459
f 464/464/464 465/465/465 460/460/460
f 466/466/466 465/465/465 464/464/464
f 465/465/465 467/467/467 459/459/459
f 465/465/465 466/466/466 467/467/467
f 459/459/459 467/467/467 450/450/450
f 458/458/458 468/468/468 461/461/461
f 468/468/468 458/458/458 462/462/462
f 469/469/469 464/464/464 461/461/461
f 468/468/468 469/469/469 461/461/461
f 469/469/469 468/468/468 462/462/462
f 469/469/469 466/466/466 464/464/464
f 470/470/470 469/469/469 462/462/462
f 466/466/466 469/469/469 470/470/470
f 470/470/470 462/462/462 289/289/289
f 467/467/467 471/471/471 450/450/450
f 450/450/450 471/471/471 447/447/447
f 471/471/471 451/451/451 447/447/447
f 472/472/472 470/470/470 289/289/289
f 298/298/298 472/472/472 289/289/289
f 467/467/467 473/473/473 471/471/471
f 466/466/466 473/473/473 467/467/467
f 471/471/471 474/474/474 451/451/451
f 473/473/473 474/474/474 471/471/471
f 475/475/475 466/466/466 470/470/470
f 475/475/475 470/470/470 472/472/472
f 298/298/298 476/476/476 472/472/472
f 297/297/297 476/476/476 298/298/298
f 473/473/473 466/466/466 477/477/477
f 466/466/466 475/475/475 477/477/477
f 478/478/478 475/475/475 472/472/472
f 476/476/476 478/478/478 472/472/472
f 475/475/475 478/478/478 479/479/479
f 478/478/478 476/476/476 479/479/479
f 477/477/477 475/475/475 479/479/479
f 476/476/476 297/297/297 480/480/480
f 476/476/476 480/480/480 479/479/479
f 297/297/297 313/313/313 480/480/480
f 480/480/480 313/313/313 364/364/364
f 479/479/479 480/480/480 481/481/481
f 477/477/477 479/479/479 481/481/481
f 480/480/480 364/364/364 481/481/481
f 473/473/473 477/477/477 482/482/482
f 482/482/482 477/477/477 481/481/481
f 474/474/474 473/473/473 482/482/482
f 481/481/481 364/364/364 483/483/483
f 482/482/482 481/481/481 483/483/483
f 364/364/364 361/361/361 483/483/483
f 483/483/483 361/361/361 362/362/362
f 484/484/484 482/482/482 483/483/483
f 484/484/484 483/483/483 362/362/362
f 474/474/474 482/482/482 484/484/484
f 427/427/427 484/484/484 362/362/362
f 485/485/485 474/474/474 484/484/484
f 485/485/485 484/484/484 427/427/427
f 474/474/474 485/485/485 451/451/451
f 451/451/451 485/485/485 426/426/426
f 486/486/486 485/485/485 427/427/427
f 485/485/485 486/486/486 426/426/426
f 423/423/423 486/486/486 427/427/427
f 486/486/486 423/423/423 426/426/426
