g Pot_01
v 0.197823361 -0.124457449 0.000831386948
v 0.127633154 -0.176093727 0.00157466857
v 0.11731533 -0.176093727 0.0502983667
v 0.182834834 -0.124440983 0.0772862583
v 0.235326186 -0.0663574114 0.000380927086
v 0.0891371593 -0.176093727 0.0913647264
v 0.217841581 -0.0663747787 0.0916544572
v 0.250824273 0.00580620766 3.83827171E-07
v 0.140320778 -0.124424987 0.141496792
v 0.047388494 -0.176093727 0.11852178
v 0.232449606 0.00580357015 0.0975060165
v 0.245878309 0.077274099 9.06012986E-07
v 0.0757496804 -0.124440983 0.183471739
v -0.00157478987 -0.176093727 0.127635106
v 0.167675897 -0.0663963631 0.168215483
v 0.0909501463 -0.0663753077 0.218133256
v 0.0975053757 0.00580357015 0.232449695
v -0.00083153334 -0.124457449 0.197824031
v -0.0502984859 -0.176093727 0.117317274
v -0.000380511075 -0.0663574114 0.235326782
v -0.0772858933 -0.124440983 0.182835996
v -0.0913648456 -0.176093727 0.0891390964
v -0.141496927 -0.124424987 0.14032194
v -0.118521906 -0.176093727 0.0473904423
v -0.0916543156 -0.0663747787 0.217842191
v -0.18347162 -0.124440983 0.0757510886
v -0.127635241 -0.176093727 -0.0015728455
v -0.197824433 -0.124457449 -0.000830121688
v -0.168215856 -0.0663963631 0.167677015
v -0.218133122 -0.0663753077 0.090951249
v -0.235327139 -0.0663574114 -0.000379661622
v -0.232449576 0.00580357015 0.0975060165
v -0.250824273 0.00580620766 3.83827171E-07
v -0.245880365 0.077274099 9.13472377E-07
v 1.28188731E-08 0.00580620766 0.250823855
v -0.0975053459 0.00580357015 0.232449695
v -0.179271013 0.00580146909 0.17927061
v -0.227679759 0.0773402601 0.0953094065
v -1.02704132E-06 0.077274099 0.245880261
v -0.175340205 0.0774087459 0.175340071
v -0.214720756 0.129815742 0.0894761831
v -0.232179195 0.129805133 9.15707176E-07
v -0.0953095257 0.0773402601 0.227679625
v -0.164932057 0.129828021 0.164931908
v -0.190293744 0.174978286 0.0786446109
v -0.206189379 0.175017789 9.14496525E-07
v -0.197213545 0.18335031 3.98862426E-07
v -0.0894762874 0.129815713 0.214720622
v -0.145518437 0.174938694 0.145518303
v -0.181843311 0.183333427 0.0749031156
v -0.0786447227 0.174978271 0.19029361
v -1.02625233E-06 0.129805133 0.232179061
v -0.170361206 0.187464744 0.0701031089
v -0.184813038 0.187474623 9.10769927E-07
v -0.138792962 0.183316603 0.138793364
v -1.02830859E-06 0.175017789 0.20618926
v -0.129955083 0.187454864 0.129954964
v -0.129517213 0.176659033 0.0532240197
v -0.140556604 0.176660433 9.11669474E-07
v -0.129673064 0.159678087 9.12633254E-07
v -0.119487472 0.159676895 0.0491009317
v -0.0910758451 0.159675762 0.0910757408
v -0.0987223983 0.176657572 0.0987222865
v -0.0532241315 0.176659033 0.129517093
v -0.0491010509 0.159676895 0.119487338
v -1.03100729E-06 0.159678116 0.129672959
v -0.0701032206 0.187464789 0.170361102
v -0.074902989 0.183333427 0.181842953
v -1.03164973E-06 0.176660433 0.140556484
v 6.10839379E-10 0.18335031 0.197214216
v -1.03177831E-06 0.187474623 0.184812918
v 0.0532220751 0.176659033 0.129517093
v 0.0490989871 0.159676895 0.11948736
v 0.0910737962 0.159675762 0.0910757333
v 0.0701011643 0.187464744 0.170361102
v 0.0786426589 0.174978286 0.19029361
v 0.0987203419 0.176657572 0.0987222716
v 0.07490246 0.183333427 0.181842953
v 0.129515156 0.176659033 0.0532240123
v 0.119485401 0.159676895 0.0491009317
v 0.129671022 0.159678116 9.11797883E-07
v 0.140554532 0.176660433 9.12440498E-07
v 0.129953012 0.187454864 0.129954964
v 0.17035915 0.187464789 0.0701031089
v 0.184810981 0.187474623 9.12568908E-07
v 0.138792977 0.183316603 0.138793364
v 0.181843355 0.183333427 0.0749031156
v 0.197214082 0.18335031 3.98862426E-07
v 0.190291673 0.174978271 0.0786446035
v 0.206187338 0.175017789 9.09099299E-07
v 0.145516366 0.174938694 0.145518318
v 0.214718685 0.129815713 0.0894761607
v 0.232177138 0.129805133 9.06186074E-07
v 0.0894742459 0.129815742 0.214720622
v 0.164929971 0.129828051 0.164931923
v 0.0953074694 0.0773402601 0.227679625
v 0.175338164 0.0774087459 0.175340071
v 0.227677703 0.0773402601 0.0953094065
v 0.179271027 0.00580146909 0.17927061
v -0.197824433 -0.124457449 -0.000830121688
v -0.127635241 -0.176093727 -0.0015728455
v -0.117317408 -0.176093727 -0.0502965376
v -0.182835877 -0.124440983 -0.0772847384
v -0.235327139 -0.0663574114 -0.000379661622
v -0.0891392305 -0.176093727 -0.091362901
v -0.217842549 -0.0663747787 -0.0916532055
v -0.250824273 0.00580620766 3.83827171E-07
v -0.140321836 -0.124424987 -0.141495526
v -0.0473905616 -0.176093727 -0.118519969
v -0.232449576 0.00580357015 -0.0975052416
v -0.245880365 0.077274099 9.13472377E-07
v -0.167676881 -0.0663963631 -0.168214753
v -0.0757507384 -0.124441467 -0.183470726
v 0.00157272408 -0.176093727 -0.127633289
v 0.000830474601 -0.124457449 -0.197823003
v 0.0502964184 -0.176093727 -0.117315449
v -0.227679759 0.0773402601 -0.0953075886
v -0.232179195 0.129805133 9.15707176E-07
v -0.214720741 0.129815713 -0.0894743502
v -0.206189379 0.175017789 9.14496525E-07
v -0.175340205 0.0774087459 -0.175338268
v -0.190293729 0.174978271 -0.0786427855
v -0.197213545 0.18335031 3.98862426E-07
v -0.0909511 -0.0663753077 -0.218131989
v -0.0975053459 0.00580357015 -0.23244895
v -0.179271013 0.00580146909 -0.179270104
v 0.0772848427 -0.124440983 -0.182834715
v 0.0913627818 -0.176093727 -0.0891372859
v 0.00037955126 -0.0663574114 -0.235325769
v -0.164932042 0.129828051 -0.164930105
v 0.141495883 -0.124424987 -0.140320688
v 0.118519828 -0.176093727 -0.0473886132
v 0.0916533619 -0.0663747787 -0.217841178
v 0.183470562 -0.124440983 -0.075749822
v 0.127633154 -0.176093727 0.00157466857
v 0.197823361 -0.124457449 0.000831386948
v 0.168214887 -0.0663963631 -0.167676002
v 0.218132153 -0.0663753077 -0.0909497216
v 0.232449606 0.00580357015 -0.0975052416
v 0.235326186 -0.0663574114 0.000380927086
v 0.250824273 0.00580620766 3.83827171E-07
v 0.245878309 0.077274099 9.06012986E-07
v 1.28188731E-08 0.00580620766 -0.250823855
v 0.0975053757 0.00580357015 -0.23244895
v -1.03113791E-06 0.077274099 -0.245878443
v 0.179271027 0.00580146909 -0.179270104
v 0.175338149 0.0774087459 -0.175338283
v 0.227677703 0.0773402601 -0.095307596
v 0.214718699 0.129815742 -0.0894743577
v 0.232177138 0.129805133 9.06186074E-07
v -0.0953095332 0.0773402601 -0.227677792
v -0.0894762948 0.129815713 -0.214718789
v 0.0953074619 0.0773402601 -0.227677822
v 0.164929971 0.129828051 -0.164930105
v 0.190291688 0.174978286 -0.0786427855
v 0.206187338 0.175017789 9.09099299E-07
v 0.197214082 0.18335031 3.98862426E-07
v -1.03096477E-06 0.129805133 -0.232177258
v 0.089474231 0.129815713 -0.214718789
v -0.145518407 0.174938694 -0.1455165
v 0.145516381 0.174938694 -0.145516485
v -0.0786447227 0.174978286 -0.190291777
v -1.02805166E-06 0.175017789 -0.206187457
v 0.0786426589 0.174978271 -0.190291777
v -0.138792962 0.183316603 -0.138792574
v 0.138792977 0.183316603 -0.138792574
v 6.10839379E-10 0.18335031 -0.197213396
v -0.181843311 0.183333427 -0.0749023259
v -0.184813038 0.187474623 9.10769927E-07
v -0.170361206 0.187464789 -0.0701012835
v -0.140556604 0.176660433 9.11669474E-07
v -0.07490246 0.183333427 -0.181842417
v -0.129517213 0.176659033 -0.0532221943
v -0.129673064 0.159678087 9.12633254E-07
v -0.119487464 0.159676895 -0.0490991063
v -0.0910758451 0.159675762 -0.0910739079
v -0.129955068 0.187454864 -0.129953146
v -0.0987223983 0.176657572 -0.0987204537
v -0.0701032206 0.187464744 -0.170359284
v -0.0532241277 0.176659063 -0.12951526
v -0.0491010435 0.159676895 -0.119485535
v -1.02554577E-06 0.159678087 -0.129671142
v -1.02458193E-06 0.187474623 -0.184811085
v -1.02535296E-06 0.176660404 -0.140554667
v 0.074902989 0.183333427 -0.181842417
v 0.0701011717 0.187464789 -0.170359269
v 0.0532220826 0.176659033 -0.129515275
v 0.0490989909 0.159676954 -0.119485535
v 0.0910737962 0.159675762 -0.0910739079
v 0.129953012 0.187454864 -0.129953131
v 0.0987203419 0.176657602 -0.0987204537
v 0.181843355 0.183333427 -0.0749023259
v 0.170359164 0.187464744 -0.0701012835
v 0.184810981 0.187474623 9.12568908E-07
v 0.129515156 0.176659033 -0.0532221869
v 0.119485401 0.159676865 -0.0490991101
v 0.140554532 0.176660433 9.12440498E-07
v 0.129671022 0.159678116 9.11797883E-07
v 0.0502964184 -0.176093727 -0.117315449
v 0.00157272408 -0.176093727 -0.127633289
v -0.0473905616 -0.176093727 -0.118519969
v -0.0891392305 -0.176093727 -0.091362901
v 0.0913627818 -0.176093727 -0.0891372859
v -0.117317408 -0.176093727 -0.0502965376
v 0.118519828 -0.176093727 -0.0473886132
v -0.127635241 -0.176093727 -0.0015728455
v 0.127633154 -0.176093727 0.00157466857
v -0.118521906 -0.176093727 0.0473904423
v 0.11731533 -0.176093727 0.0502983667
v -0.0913648456 -0.176093727 0.0891390964
v 0.0891371593 -0.176093727 0.0913647264
v -0.0502984859 -0.176093727 0.117317274
v 0.047388494 -0.176093727 0.11852178
v -0.00157478987 -0.176093727 0.127635106
v 0.102144115 0.0274822246 -0.031733565
v 0.129671022 0.159678116 9.11797883E-07
v 0.115735255 0.0378070921 9.13518818E-07
v 0.119485401 0.159676865 -0.0490991101
v 0.0910737962 0.159675762 -0.0910739079
v 0.071257405 0.0242040604 -0.0712575167
v 0.0317334533 0.0274822414 -0.102144226
v 0.0490989909 0.159676954 -0.119485535
v -1.02497279E-06 0.0378070772 -0.115735359
v -1.02554577E-06 0.159678087 -0.129671142
v -0.0317355059 0.0274822246 -0.102144226
v -0.0491010435 0.159676895 -0.119485535
v -0.0910758451 0.159675762 -0.0910739079
v -0.0712594539 0.0242040604 -0.0712575167
v -0.102146164 0.0274822414 -0.0317335688
v -0.119487464 0.159676895 -0.0490991063
v -0.129673064 0.159678087 9.12633254E-07
v -0.115737289 0.0378070772 9.13469705E-07
v 0.0317334533 0.0274822414 -0.102144226
v -0.0317355059 0.0274822246 -0.102144226
v -1.02497279E-06 0.0378070772 -0.115735359
v -1.02509591E-06 0.00342126191 -0.0777086243
v 0.0409701057 -0.00242656469 -0.0409701988
v 0.071257405 0.0242040604 -0.0712575167
v 0.102144115 0.0274822246 -0.031733565
v -0.0409721546 -0.00242656469 -0.0409702063
v -0.0712594539 0.0242040604 -0.0712575167
v -0.102146164 0.0274822414 -0.0317335688
v 0.07770852 0.00342126191 9.18805085E-07
v 0.115735255 0.0378070921 9.13518818E-07
v 0.102144115 0.0274822414 0.0317353942
v 0.040970102 -0.0024265945 0.0409720503
v 0.0712573975 0.0242040604 0.0712593421
v -1.03075024E-06 -0.0090815872 9.23139964E-07
v -0.040972162 -0.00242657959 0.0409720466
v -1.03296691E-06 0.00342126191 0.0777104646
v 0.0317334495 0.0274822414 0.102146059
v -0.0317355134 0.0274822414 0.102146052
v -1.03096443E-06 0.0378070921 0.115737185
v -0.0712594613 0.0242040604 0.071259357
v -0.102146178 0.0274822116 0.0317353979
v -0.0777105764 0.00342124701 9.1702384E-07
v -0.115737289 0.0378070772 9.13469705E-07
v 0.129671022 0.159678116 9.11797883E-07
v 0.102144115 0.0274822414 0.0317353942
v 0.115735255 0.0378070921 9.13518818E-07
v 0.119485401 0.159676895 0.0491009317
v 0.0910737962 0.159675762 0.0910757333
v 0.0712573975 0.0242040604 0.0712593421
v 0.0317334495 0.0274822414 0.102146059
v 0.0490989871 0.159676895 0.11948736
v -1.03100729E-06 0.159678116 0.129672959
v -1.03096443E-06 0.0378070921 0.115737185
v -0.0317355134 0.0274822414 0.102146052
v -0.0491010509 0.159676895 0.119487338
v -0.0910758451 0.159675762 0.0910757408
v -0.0712594613 0.0242040604 0.071259357
v -0.102146178 0.0274822116 0.0317353979
v -0.119487472 0.159676895 0.0491009317
v -0.129673064 0.159678087 9.12633254E-07
v -0.115737289 0.0378070772 9.13469705E-07
vt 0.0971069336 0.560546875
vt 0.0453796387 0.560546875
vt 0.0453796387 0.60546875
vt 0.0971069336 0.60546875
vt 0.138061523 0.560546875
vt 0.0453796387 0.650390625
vt 0.138061523 0.60546875
vt 0.181640625 0.560546875
vt 0.0971069336 0.650390625
vt 0.0453796387 0.6953125
vt 0.181640625 0.60546875
vt 0.223999023 0.560546875
vt 0.0971069336 0.6953125
vt 0.0453796387 0.740722656
vt 0.138061523 0.650390625
vt 0.138061523 0.6953125
vt 0.181640625 0.6953125
vt 0.0971069336 0.740722656
vt 0.0453796387 0.785644531
vt 0.138061523 0.740722656
vt 0.0971069336 0.785644531
vt 0.0453796387 0.830566406
vt 0.0971069336 0.830566406
vt 0.0453796387 0.875488281
vt 0.138061523 0.785644531
vt 0.0971069336 0.875488281
vt 0.0453796387 0.920410156
vt 0.0971069336 0.920410156
vt 0.138061523 0.830566406
vt 0.138061523 0.875488281
vt 0.138061523 0.920410156
vt 0.181640625 0.875488281
vt 0.181640625 0.920410156
vt 0.223999023 0.920410156
vt 0.181640625 0.740722656
vt 0.181640625 0.785644531
vt 0.181640625 0.830566406
vt 0.223999023 0.875488281
vt 0.223999023 0.740722656
vt 0.223999023 0.830566406
vt 0.256103516 0.875488281
vt 0.256103516 0.920410156
vt 0.223999023 0.785644531
vt 0.256103516 0.830566406
vt 0.287109375 0.875488281
vt 0.287109375 0.920410156
vt 0.294433594 0.920410156
vt 0.256103516 0.785644531
vt 0.287109375 0.830566406
vt 0.294433594 0.875488281
vt 0.287109375 0.785644531
vt 0.256103516 0.740722656
vt 0.302001953 0.875488281
vt 0.302001953 0.920410156
vt 0.294433594 0.830566406
vt 0.287109375 0.740722656
vt 0.302001953 0.830566406
vt 0.328857422 0.875488281
vt 0.328857422 0.920410156
vt 0.340820312 0.920410156
vt 0.340820312 0.875488281
vt 0.340820312 0.830566406
vt 0.328857422 0.830566406
vt 0.328857422 0.785644531
vt 0.340820312 0.785644531
vt 0.340820312 0.740722656
vt 0.302001953 0.785644531
vt 0.294433594 0.785644531
vt 0.328857422 0.740722656
vt 0.294433594 0.740722656
vt 0.302001953 0.740722656
vt 0.328857422 0.6953125
vt 0.340820312 0.6953125
vt 0.340820312 0.650390625
vt 0.302001953 0.6953125
vt 0.287109375 0.6953125
vt 0.328857422 0.650390625
vt 0.294433594 0.6953125
vt 0.328857422 0.60546875
vt 0.340820312 0.60546875
vt 0.340820312 0.560546875
vt 0.328857422 0.560546875
vt 0.302001953 0.650390625
vt 0.302001953 0.60546875
vt 0.302001953 0.560546875
vt 0.294433594 0.650390625
vt 0.294433594 0.60546875
vt 0.294433594 0.560546875
vt 0.287109375 0.60546875
vt 0.287109375 0.560546875
vt 0.287109375 0.650390625
vt 0.256103516 0.60546875
vt 0.256103516 0.560546875
vt 0.256103516 0.6953125
vt 0.256103516 0.650390625
vt 0.223999023 0.6953125
vt 0.223999023 0.650390625
vt 0.223999023 0.60546875
vt 0.181640625 0.650390625
vt 0.0971069336 0.200317383
vt 0.0453796387 0.200317383
vt 0.0453796387 0.245483398
vt 0.0971069336 0.245483398
vt 0.138061523 0.200317383
vt 0.0453796387 0.290283203
vt 0.138061523 0.245483398
vt 0.181640625 0.200317383
vt 0.0971069336 0.290283203
vt 0.0453796387 0.335205078
vt 0.181640625 0.245483398
vt 0.223999023 0.200317383
vt 0.138061523 0.290283203
vt 0.0971069336 0.335205078
vt 0.0453796387 0.380371094
vt 0.0971069336 0.380371094
vt 0.0453796387 0.425537109
vt 0.223999023 0.245483398
vt 0.256103516 0.200317383
vt 0.256103516 0.245483398
vt 0.287109375 0.200317383
vt 0.223999023 0.290283203
vt 0.287109375 0.245483398
vt 0.294433594 0.200317383
vt 0.138061523 0.335205078
vt 0.181640625 0.335205078
vt 0.181640625 0.290283203
vt 0.0971069336 0.425537109
vt 0.0453796387 0.470458984
vt 0.138061523 0.380371094
vt 0.256103516 0.290283203
vt 0.0971069336 0.470458984
vt 0.0453796387 0.515136719
vt 0.138061523 0.425537109
vt 0.0971069336 0.515136719
vt 0.0453796387 0.560546875
vt 0.0971069336 0.560546875
vt 0.138061523 0.470458984
vt 0.138061523 0.515136719
vt 0.181640625 0.515136719
vt 0.138061523 0.560546875
vt 0.181640625 0.560546875
vt 0.223999023 0.560546875
vt 0.181640625 0.380371094
vt 0.181640625 0.425537109
vt 0.223999023 0.380371094
vt 0.181640625 0.470458984
vt 0.223999023 0.470458984
vt 0.223999023 0.515136719
vt 0.256103516 0.515136719
vt 0.256103516 0.560546875
vt 0.223999023 0.335205078
vt 0.256103516 0.335205078
vt 0.223999023 0.425537109
vt 0.256103516 0.470458984
vt 0.287109375 0.515136719
vt 0.287109375 0.560546875
vt 0.294433594 0.560546875
vt 0.256103516 0.380371094
vt 0.256103516 0.425537109
vt 0.287109375 0.290283203
vt 0.287109375 0.470458984
vt 0.287109375 0.335205078
vt 0.287109375 0.380371094
vt 0.287109375 0.425537109
vt 0.294433594 0.290283203
vt 0.294433594 0.470458984
vt 0.294433594 0.380371094
vt 0.294433594 0.245483398
vt 0.302001953 0.200317383
vt 0.302001953 0.245483398
vt 0.328857422 0.200317383
vt 0.294433594 0.335205078
vt 0.328857422 0.245483398
vt 0.340820312 0.200317383
vt 0.340820312 0.245483398
vt 0.340820312 0.290283203
vt 0.302001953 0.290283203
vt 0.328857422 0.290283203
vt 0.302001953 0.335205078
vt 0.328857422 0.335205078
vt 0.340820312 0.335205078
vt 0.340820312 0.380371094
vt 0.302001953 0.380371094
vt 0.328857422 0.380371094
vt 0.294433594 0.425537109
vt 0.302001953 0.425537109
vt 0.328857422 0.425537109
vt 0.340820312 0.425537109
vt 0.340820312 0.470458984
vt 0.302001953 0.470458984
vt 0.328857422 0.470458984
vt 0.294433594 0.515136719
vt 0.302001953 0.515136719
vt 0.302001953 0.560546875
vt 0.328857422 0.515136719
vt 0.340820312 0.515136719
vt 0.328857422 0.560546875
vt 0.340820312 0.560546875
vt 0.686523438 0.413330078
vt 0.686523438 0.376708984
vt 0.672363281 0.343017578
vt 0.646484375 0.316894531
vt 0.672363281 0.447265625
vt 0.612304688 0.302978516
vt 0.646484375 0.473144531
vt 0.575683594 0.302978516
vt 0.612304688 0.487060547
vt 0.541992188 0.316894531
vt 0.575683594 0.487060547
vt 0.516113281 0.343017578
vt 0.541992188 0.473144531
vt 0.501953125 0.376708984
vt 0.516113281 0.447265625
vt 0.501953125 0.413330078
vt 0.631347656 0.194946289
vt 0.629882812 0.302734375
vt 0.645019531 0.206787109
vt 0.571777344 0.284179688
vt 0.523925781 0.24609375
vt 0.616699219 0.178222656
vt 0.604980469 0.159301758
vt 0.501953125 0.188964844
vt 0.598144531 0.142822266
vt 0.501953125 0.127807617
vt 0.609863281 0.129272461
vt 0.520507812 0.0697021484
vt 0.55859375 0.0217285156
vt 0.626464844 0.114746094
vt 0.645507812 0.103210449
vt 0.615722656 0.000130057335
vt 0.677246094 0.000119507313
vt 0.662109375 0.0961303711
vt 0.604980469 0.159301758
vt 0.609863281 0.129272461
vt 0.598144531 0.142822266
vt 0.621582031 0.146484375
vt 0.634277344 0.165527344
vt 0.616699219 0.178222656
vt 0.631347656 0.194946289
vt 0.639160156 0.132080078
vt 0.626464844 0.114746094
vt 0.645507812 0.103210449
vt 0.6484375 0.183349609
vt 0.645019531 0.206787109
vt 0.661132812 0.199707031
vt 0.667480469 0.170776367
vt 0.680175781 0.188110352
vt 0.653320312 0.151489258
vt 0.672851562 0.137329102
vt 0.685546875 0.15637207
vt 0.696777344 0.173706055
vt 0.701660156 0.143554688
vt 0.708496094 0.16003418
vt 0.689941406 0.124633789
vt 0.67578125 0.107910156
vt 0.658203125 0.119506836
vt 0.662109375 0.0961303711
vt 0.629882812 0.302734375
vt 0.661132812 0.199707031
vt 0.645019531 0.206787109
vt 0.690917969 0.302734375
vt 0.748046875 0.28125
vt 0.680175781 0.188110352
vt 0.696777344 0.173706055
vt 0.786132812 0.233154297
vt 0.8046875 0.175048828
vt 0.708496094 0.16003418
vt 0.701660156 0.143554688
vt 0.8046875 0.113952637
vt 0.783203125 0.0567321777
vt 0.689941406 0.124633789
vt 0.67578125 0.107910156
vt 0.735351562 0.0187225342
vt 0.677246094 0.000119507313
vt 0.662109375 0.0961303711
vn 0.737304688 -0.675292969 0.00330543518
vn 0.345458984 -0.938476562 0.00324630737
vn 0.317138672 -0.938964844 0.13269043
vn 0.680664062 -0.677246094 0.279296875
vn 0.926757812 -0.375976562 0.0014667511
vn 0.239624023 -0.939453125 0.244262695
vn 0.857910156 -0.378173828 0.347412109
vn 0.997558594 -0.0696411133 6.94990158E-05
vn 0.516601562 -0.679199219 0.520996094
vn 0.126708984 -0.938964844 0.319824219
vn 0.925292969 -0.0694580078 0.372802734
vn 0.986816406 0.162109375 4.17232513E-07
vn 0.273193359 -0.677246094 0.683105469
vn -0.00324630737 -0.938476562 0.345458984
vn 0.652832031 -0.380615234 0.654785156
vn 0.344726562 -0.378173828 0.859375
vn 0.372558594 -0.0694580078 0.925292969
vn -0.00330734253 -0.675292969 0.737304688
vn -0.13269043 -0.938964844 0.317138672
vn -0.00146770477 -0.375976562 0.926757812
vn -0.279296875 -0.677246094 0.680664062
vn -0.244262695 -0.939453125 0.239624023
vn -0.520996094 -0.679199219 0.516601562
vn -0.319824219 -0.938964844 0.126708984
vn -0.347412109 -0.378173828 0.857910156
vn -0.683105469 -0.677246094 0.273193359
vn -0.345458984 -0.938476562 -0.00324630737
vn -0.737304688 -0.675292969 -0.00330734253
vn -0.654785156 -0.380615234 0.652832031
vn -0.859375 -0.378173828 0.344726562
vn -0.926757812 -0.375976562 -0.0014667511
vn -0.925292969 -0.0694580078 0.372558594
vn -0.997558594 -0.0696411133 -7.08699226E-05
vn -0.986816406 0.162109375 4.17232513E-07
vn -6.96778297E-05 -0.0696411133 0.997558594
vn -0.372802734 -0.069519043 0.925292969
vn -0.705566406 -0.0693359375 0.705566406
vn -0.9140625 0.166015625 0.369873047
vn -8.94069672E-07 0.162109375 0.986816406
vn -0.696777344 0.170043945 0.696777344
vn -0.854980469 0.3828125 0.349609375
vn -0.926269531 0.377197266 -1.1920929E-07
vn -0.369873047 0.166015625 0.9140625
vn -0.651367188 0.388671875 0.651367188
vn -0.722167969 0.623535156 0.298828125
vn -0.786132812 0.617675781 1.37090683E-06
vn -0.526367188 0.850585938 -3.03983688E-06
vn -0.349609375 0.3828125 0.854980469
vn -0.549316406 0.629394531 0.549316406
vn -0.482177734 0.852539062 0.200805664
vn -0.298828125 0.623535156 0.722167969
vn -0 0.377197266 0.926269531
vn -0.0686645508 0.997070312 0.0290222168
vn -0.0761108398 0.997070312 1.13248825E-06
vn -0.366699219 0.854980469 0.366699219
vn -3.03983688E-06 0.617675781 0.786132812
vn -0.0520935059 0.997070312 0.0520935059
vn 0.506347656 0.835449219 -0.213745117
vn 0.547363281 0.836914062 0
vn 0.93359375 0.358642578 0
vn 0.846191406 0.367919922 -0.385742188
vn 0.654296875 0.37890625 -0.654296875
vn 0.389892578 0.834472656 -0.389892578
vn 0.213745117 0.835449219 -0.506347656
vn 0.385742188 0.367919922 -0.846191406
vn 1.1920929E-07 0.358642578 -0.93359375
vn -0.0290222168 0.997070312 0.0686645508
vn -0.200805664 0.852539062 0.482177734
vn 1.78813934E-07 0.836914062 -0.547363281
vn 5.96046448E-06 0.850585938 0.526367188
vn -2.14576721E-06 0.997070312 0.0761108398
vn -0.213745117 0.835449219 -0.506347656
vn -0.385742188 0.367919922 -0.846191406
vn -0.654296875 0.37890625 -0.654296875
vn 0.029006958 0.997070312 0.0686645508
vn 0.298828125 0.623535156 0.722167969
vn -0.389892578 0.834472656 -0.389892578
vn 0.200805664 0.852539062 0.482177734
vn -0.506347656 0.835449219 -0.213745117
vn -0.846191406 0.367919922 -0.385742188
vn -0.93359375 0.358642578 0
vn -0.547363281 0.836914062 0
vn 0.0520935059 0.997070312 0.0520935059
vn 0.0686035156 0.997070312 0.029006958
vn 0.0760498047 0.997070312 1.07288361E-06
vn 0.366699219 0.854980469 0.366699219
vn 0.482177734 0.852539062 0.200805664
vn 0.526367188 0.850585938 -2.8014183E-06
vn 0.722167969 0.623535156 0.298828125
vn 0.786132812 0.617675781 1.66893005E-06
vn 0.549316406 0.629394531 0.549316406
vn 0.854980469 0.3828125 0.349609375
vn 0.926269531 0.377197266 0
vn 0.349609375 0.3828125 0.854980469
vn 0.651367188 0.388671875 0.651367188
vn 0.369873047 0.166015625 0.9140625
vn 0.696777344 0.170043945 0.696777344
vn 0.9140625 0.166015625 0.369873047
vn 0.705566406 -0.0693359375 0.705566406
vn -0.737304688 -0.675292969 -0.00330734253
vn -0.345458984 -0.938476562 -0.00324630737
vn -0.317138672 -0.938964844 -0.13269043
vn -0.680664062 -0.677246094 -0.279296875
vn -0.926757812 -0.375976562 -0.0014667511
vn -0.239624023 -0.939453125 -0.244262695
vn -0.857910156 -0.378173828 -0.347412109
vn -0.997558594 -0.0696411133 -7.08699226E-05
vn -0.516601562 -0.679199219 -0.520996094
vn -0.126708984 -0.938964844 -0.319824219
vn -0.925292969 -0.069519043 -0.372802734
vn -0.986816406 0.162109375 4.17232513E-07
vn -0.652832031 -0.380615234 -0.654785156
vn -0.273193359 -0.677246094 -0.683105469
vn 0.00324821472 -0.938476562 -0.345458984
vn 0.00330924988 -0.675292969 -0.737304688
vn 0.13269043 -0.938964844 -0.317138672
vn -0.9140625 0.166015625 -0.369873047
vn -0.926269531 0.377197266 -1.1920929E-07
vn -0.854980469 0.3828125 -0.349609375
vn -0.786132812 0.617675781 1.37090683E-06
vn -0.696777344 0.170043945 -0.696777344
vn -0.722167969 0.623535156 -0.298828125
vn -0.526367188 0.850585938 -3.03983688E-06
vn -0.344726562 -0.378173828 -0.859375
vn -0.372558594 -0.0694580078 -0.925292969
vn -0.705566406 -0.0693359375 -0.705566406
vn 0.279296875 -0.677246094 -0.680664062
vn 0.244262695 -0.939453125 -0.239624023
vn 0.0014667511 -0.375976562 -0.926757812
vn -0.651367188 0.388671875 -0.651367188
vn 0.520996094 -0.679199219 -0.516601562
vn 0.319824219 -0.938964844 -0.126708984
vn 0.347412109 -0.378173828 -0.857910156
vn 0.683105469 -0.677246094 -0.273193359
vn 0.345458984 -0.938476562 0.00324630737
vn 0.737304688 -0.675292969 0.00330543518
vn 0.654785156 -0.380615234 -0.652832031
vn 0.859375 -0.378173828 -0.344726562
vn 0.925292969 -0.0694580078 -0.372558594
vn 0.926757812 -0.375976562 0.0014667511
vn 0.997558594 -0.0696411133 6.94990158E-05
vn 0.986816406 0.162109375 4.17232513E-07
vn 7.1823597E-05 -0.0696411133 -0.997558594
vn 0.372802734 -0.0694580078 -0.925292969
vn -9.53674316E-07 0.162109375 -0.986816406
vn 0.705566406 -0.0693359375 -0.705566406
vn 0.696777344 0.170043945 -0.696777344
vn 0.9140625 0.166015625 -0.369873047
vn 0.854980469 0.3828125 -0.349609375
vn 0.926269531 0.377197266 0
vn -0.369873047 0.166015625 -0.9140625
vn -0.349609375 0.3828125 -0.854980469
vn 0.369873047 0.166015625 -0.9140625
vn 0.651367188 0.388671875 -0.651367188
vn 0.722167969 0.623535156 -0.298828125
vn 0.786132812 0.617675781 1.66893005E-06
vn 0.526367188 0.850585938 -2.8014183E-06
vn -0 0.377197266 -0.926269531
vn 0.349609375 0.3828125 -0.854980469
vn -0.549316406 0.629394531 -0.549316406
vn 0.549316406 0.629394531 -0.549316406
vn -0.298828125 0.623535156 -0.722167969
vn -2.86102295E-06 0.617675781 -0.786132812
vn 0.298828125 0.623535156 -0.722167969
vn -0.366699219 0.854980469 -0.366699219
vn 0.366699219 0.854980469 -0.366699219
vn 5.96046448E-06 0.850585938 -0.526367188
vn -0.482177734 0.852539062 -0.200805664
vn -0.0761108398 0.997070312 1.13248825E-06
vn -0.0686645508 0.997070312 -0.029006958
vn 0.547363281 0.836914062 0
vn -0.200805664 0.852539062 -0.482177734
vn 0.506347656 0.835449219 0.213745117
vn 0.93359375 0.358642578 0
vn 0.846191406 0.367919922 0.385742188
vn 0.654296875 0.37890625 0.654296875
vn -0.0520935059 0.997070312 -0.0520935059
vn 0.389892578 0.834472656 0.389892578
vn -0.029006958 0.997070312 -0.0686645508
vn 0.213745117 0.835449219 0.506347656
vn 0.385742188 0.367919922 0.846191406
vn -0 0.358642578 0.93359375
vn -2.44379044E-06 0.997070312 -0.0760498047
vn -0 0.836914062 0.547363281
vn 0.200805664 0.852539062 -0.482177734
vn 0.029006958 0.997070312 -0.0686645508
vn -0.213745117 0.835449219 0.506347656
vn -0.385742188 0.367919922 0.846191406
vn -0.654296875 0.37890625 0.654296875
vn 0.0520935059 0.997070312 -0.0520935059
vn -0.389892578 0.834472656 0.389892578
vn 0.482177734 0.852539062 -0.200805664
vn 0.0686035156 0.997070312 -0.029006958
vn 0.0760498047 0.997070312 1.07288361E-06
vn -0.506347656 0.835449219 0.213745117
vn -0.846191406 0.367919922 0.385742188
vn -0.547363281 0.836914062 0
vn -0.93359375 0.358642578 0
vn 0.13269043 -0.938964844 -0.317138672
vn 0.00324821472 -0.938476562 -0.345458984
vn -0.126708984 -0.938964844 -0.319824219
vn -0.239624023 -0.939453125 -0.244262695
vn 0.244262695 -0.939453125 -0.239624023
vn -0.317138672 -0.938964844 -0.13269043
vn 0.319824219 -0.938964844 -0.126708984
vn -0.345458984 -0.938476562 -0.00324630737
vn 0.345458984 -0.938476562 0.00324630737
vn -0.319824219 -0.938964844 0.126708984
vn 0.317138672 -0.938964844 0.13269043
vn -0.244262695 -0.939453125 0.239624023
vn 0.239624023 -0.939453125 0.244262695
vn -0.13269043 -0.938964844 0.317138672
vn 0.126708984 -0.938964844 0.319824219
vn -0.00324630737 -0.938476562 0.345458984
vn -0.777832031 0.537597656 0.325683594
vn -0.93359375 0.358642578 0
vn -0.923339844 0.384033203 0
vn -0.846191406 0.367919922 0.385742188
vn -0.654296875 0.37890625 0.654296875
vn -0.583496094 0.565429688 0.583496094
vn -0.325683594 0.537597656 0.777832031
vn -0.385742188 0.367919922 0.846191406
vn -0 0.384033203 0.923339844
vn -0 0.358642578 0.93359375
vn 0.325683594 0.537597656 0.777832031
vn 0.385742188 0.367919922 0.846191406
vn 0.654296875 0.37890625 0.654296875
vn 0.583496094 0.565429688 0.583496094
vn 0.777832031 0.537597656 0.325683594
vn 0.846191406 0.367919922 0.385742188
vn 0.93359375 0.358642578 0
vn 0.923339844 0.384033203 2.38418579E-07
vn -0.325683594 0.537597656 0.777832031
vn 0.325683594 0.537597656 0.777832031
vn -0 0.384033203 0.923339844
vn -0 0.895019531 0.445800781
vn -0.234130859 0.943847656 0.234130859
vn -0.583496094 0.565429688 0.583496094
vn -0.777832031 0.537597656 0.325683594
vn 0.234130859 0.943847656 0.234130859
vn 0.583496094 0.565429688 0.583496094
vn 0.777832031 0.537597656 0.325683594
vn -0.445800781 0.895019531 0
vn -0.923339844 0.384033203 0
vn -0.777832031 0.537597656 -0.325683594
vn -0.234130859 0.943847656 -0.234130859
vn -0.583496094 0.565429688 -0.583496094
vn -0 1 1.1920929E-07
vn 0.234130859 0.943847656 -0.234130859
vn -0 0.895019531 -0.445800781
vn -0.325683594 0.537597656 -0.777832031
vn 0.325683594 0.537597656 -0.777832031
vn 1.78813934E-07 0.384033203 -0.923339844
vn 0.583496094 0.565429688 -0.583496094
vn 0.777832031 0.537597656 -0.325683594
vn 0.445800781 0.895019531 1.1920929E-07
vn 0.923339844 0.384033203 2.38418579E-07
vn -0.93359375 0.358642578 0
vn -0.777832031 0.537597656 -0.325683594
vn -0.923339844 0.384033203 0
vn -0.846191406 0.367919922 -0.385742188
vn -0.654296875 0.37890625 -0.654296875
vn -0.583496094 0.565429688 -0.583496094
vn -0.325683594 0.537597656 -0.777832031
vn -0.385742188 0.367919922 -0.846191406
vn 1.1920929E-07 0.358642578 -0.93359375
vn 1.78813934E-07 0.384033203 -0.923339844
vn 0.325683594 0.537597656 -0.777832031
vn 0.385742188 0.367919922 -0.846191406
vn 0.654296875 0.37890625 -0.654296875
vn 0.583496094 0.565429688 -0.583496094
vn 0.777832031 0.537597656 -0.325683594
vn 0.846191406 0.367919922 -0.385742188
vn 0.93359375 0.358642578 0
vn 0.923339844 0.384033203 2.38418579E-07
g Pot_01_0
f 3/3/3 2/2/2 1/1/1
f 4/4/4 3/3/3 1/1/1
f 4/4/4 1/1/1 5/5/5
f 6/6/6 3/3/3 4/4/4
f 7/7/7 4/4/4 5/5/5
f 7/7/7 5/5/5 8/8/8
f 9/9/9 6/6/6 4/4/4
f 9/9/9 4/4/4 7/7/7
f 10/10/10 6/6/6 9/9/9
f 11/11/11 7/7/7 8/8/8
f 11/11/11 8/8/8 12/12/12
f 13/13/13 10/10/10 9/9/9
f 14/14/14 10/10/10 13/13/13
f 15/15/15 9/9/9 7/7/7
f 15/15/15 7/7/7 11/11/11
f 16/16/16 13/13/13 9/9/9
f 15/15/15 16/16/16 9/9/9
f 17/17/17 16/16/16 15/15/15
f 18/18/18 14/14/14 13/13/13
f 18/18/18 13/13/13 16/16/16
f 19/19/19 14/14/14 18/18/18
f 20/20/20 18/18/18 16/16/16
f 20/20/20 16/16/16 17/17/17
f 21/21/21 19/19/19 18/18/18
f 21/21/21 18/18/18 20/20/20
f 22/22/22 19/19/19 21/21/21
f 23/23/23 22/22/22 21/21/21
f 24/24/24 22/22/22 23/23/23
f 25/25/25 21/21/21 20/20/20
f 23/23/23 21/21/21 25/25/25
f 26/26/26 24/24/24 23/23/23
f 27/27/27 24/24/24 26/26/26
f 28/28/28 27/27/27 26/26/26
f 26/26/26 23/23/23 29/29/29
f 29/29/29 23/23/23 25/25/25
f 28/28/28 26/26/26 30/30/30
f 30/30/30 26/26/26 29/29/29
f 31/31/31 28/28/28 30/30/30
f 31/31/31 30/30/30 32/32/32
f 32/32/32 30/30/30 29/29/29
f 33/33/33 31/31/31 32/32/32
f 34/34/34 33/33/33 32/32/32
f 25/25/25 20/20/20 35/35/35
f 35/35/35 20/20/20 17/17/17
f 29/29/29 25/25/25 36/36/36
f 36/36/36 25/25/25 35/35/35
f 37/37/37 32/32/32 29/29/29
f 37/37/37 29/29/29 36/36/36
f 38/38/38 34/34/34 32/32/32
f 38/38/38 32/32/32 37/37/37
f 39/39/39 35/35/35 17/17/17
f 36/36/36 35/35/35 39/39/39
f 40/40/40 37/37/37 36/36/36
f 40/40/40 38/38/38 37/37/37
f 34/34/34 38/38/38 41/41/41
f 42/42/42 34/34/34 41/41/41
f 43/43/43 36/36/36 39/39/39
f 43/43/43 40/40/40 36/36/36
f 38/38/38 40/40/40 44/44/44
f 41/41/41 38/38/38 44/44/44
f 42/42/42 41/41/41 45/45/45
f 46/46/46 42/42/42 45/45/45
f 47/47/47 46/46/46 45/45/45
f 40/40/40 43/43/43 48/48/48
f 44/44/44 40/40/40 48/48/48
f 41/41/41 44/44/44 49/49/49
f 45/45/45 41/41/41 49/49/49
f 50/50/50 47/47/47 45/45/45
f 50/50/50 45/45/45 49/49/49
f 49/49/49 44/44/44 51/51/51
f 44/44/44 48/48/48 51/51/51
f 48/48/48 43/43/43 52/52/52
f 43/43/43 39/39/39 52/52/52
f 47/47/47 50/50/50 53/53/53
f 54/54/54 47/47/47 53/53/53
f 55/55/55 50/50/50 49/49/49
f 55/55/55 49/49/49 51/51/51
f 48/48/48 52/52/52 56/56/56
f 51/51/51 48/48/48 56/56/56
f 53/53/53 50/50/50 57/57/57
f 50/50/50 55/55/55 57/57/57
f 54/54/54 53/53/53 58/58/58
f 59/59/59 54/54/54 58/58/58
f 59/59/59 58/58/58 60/60/60
f 58/58/58 61/61/61 60/60/60
f 61/61/61 58/58/58 62/62/62
f 58/58/58 53/53/53 63/63/63
f 58/58/58 63/63/63 62/62/62
f 53/53/53 57/57/57 63/63/63
f 63/63/63 64/64/64 62/62/62
f 63/63/63 57/57/57 64/64/64
f 64/64/64 65/65/65 62/62/62
f 65/65/65 64/64/64 66/66/66
f 57/57/57 55/55/55 67/67/67
f 57/57/57 67/67/67 64/64/64
f 68/68/68 55/55/55 51/51/51
f 55/55/55 68/68/68 67/67/67
f 64/64/64 69/69/69 66/66/66
f 64/64/64 67/67/67 69/69/69
f 68/68/68 51/51/51 70/70/70
f 51/51/51 56/56/56 70/70/70
f 67/67/67 68/68/68 71/71/71
f 67/67/67 71/71/71 69/69/69
f 68/68/68 70/70/70 71/71/71
f 69/69/69 72/72/72 66/66/66
f 69/69/69 71/71/71 72/72/72
f 72/72/72 73/73/73 66/66/66
f 73/73/73 72/72/72 74/74/74
f 71/71/71 75/75/75 72/72/72
f 71/71/71 70/70/70 75/75/75
f 70/70/70 56/56/56 76/76/76
f 56/56/56 52/52/52 76/76/76
f 72/72/72 77/77/77 74/74/74
f 72/72/72 75/75/75 77/77/77
f 70/70/70 78/78/78 75/75/75
f 78/78/78 70/70/70 76/76/76
f 74/74/74 77/77/77 79/79/79
f 80/80/80 74/74/74 79/79/79
f 80/80/80 79/79/79 81/81/81
f 79/79/79 82/82/82 81/81/81
f 75/75/75 83/83/83 77/77/77
f 75/75/75 78/78/78 83/83/83
f 77/77/77 83/83/83 79/79/79
f 79/79/79 84/84/84 82/82/82
f 83/83/83 84/84/84 79/79/79
f 84/84/84 85/85/85 82/82/82
f 78/78/78 86/86/86 83/83/83
f 83/83/83 86/86/86 84/84/84
f 78/78/78 76/76/76 86/86/86
f 84/84/84 87/87/87 85/85/85
f 86/86/86 87/87/87 84/84/84
f 87/87/87 88/88/88 85/85/85
f 87/87/87 89/89/89 88/88/88
f 87/87/87 86/86/86 89/89/89
f 89/89/89 90/90/90 88/88/88
f 76/76/76 91/91/91 86/86/86
f 86/86/86 91/91/91 89/89/89
f 89/89/89 92/92/92 90/90/90
f 92/92/92 93/93/93 90/90/90
f 76/76/76 94/94/94 91/91/91
f 52/52/52 94/94/94 76/76/76
f 52/52/52 39/39/39 94/94/94
f 91/91/91 95/95/95 89/89/89
f 94/94/94 95/95/95 91/91/91
f 95/95/95 92/92/92 89/89/89
f 39/39/39 96/96/96 94/94/94
f 94/94/94 96/96/96 95/95/95
f 96/96/96 39/39/39 17/17/17
f 96/96/96 97/97/97 95/95/95
f 95/95/95 97/97/97 92/92/92
f 96/96/96 17/17/17 97/97/97
f 92/92/92 98/98/98 93/93/93
f 97/97/97 98/98/98 92/92/92
f 98/98/98 12/12/12 93/93/93
f 98/98/98 11/11/11 12/12/12
f 98/98/98 97/97/97 11/11/11
f 17/17/17 99/99/99 97/97/97
f 97/97/97 99/99/99 11/11/11
f 99/99/99 17/17/17 15/15/15
f 99/99/99 15/15/15 11/11/11
f 102/102/102 101/101/101 100/100/100
f 103/103/103 102/102/102 100/100/100
f 103/103/103 100/100/100 104/104/104
f 105/105/105 102/102/102 103/103/103
f 106/106/106 103/103/103 104/104/104
f 106/106/106 104/104/104 107/107/107
f 108/108/108 105/105/105 103/103/103
f 108/108/108 103/103/103 106/106/106
f 109/109/109 105/105/105 108/108/108
f 110/110/110 106/106/106 107/107/107
f 110/110/110 107/107/107 111/111/111
f 112/112/112 108/108/108 106/106/106
f 112/112/112 106/106/106 110/110/110
f 113/113/113 109/109/109 108/108/108
f 113/113/113 108/108/108 112/112/112
f 114/114/114 109/109/109 113/113/113
f 115/115/115 114/114/114 113/113/113
f 116/116/116 114/114/114 115/115/115
f 117/117/117 110/110/110 111/111/111
f 117/117/117 111/111/111 118/118/118
f 119/119/119 117/117/117 118/118/118
f 119/119/119 118/118/118 120/120/120
f 117/117/117 121/121/121 110/110/110
f 121/121/121 117/117/117 119/119/119
f 122/122/122 119/119/119 120/120/120
f 122/122/122 120/120/120 123/123/123
f 124/124/124 113/113/113 112/112/112
f 115/115/115 113/113/113 124/124/124
f 125/125/125 124/124/124 112/112/112
f 126/126/126 112/112/112 110/110/110
f 121/121/121 126/126/126 110/110/110
f 126/126/126 125/125/125 112/112/112
f 125/125/125 126/126/126 121/121/121
f 127/127/127 116/116/116 115/115/115
f 128/128/128 116/116/116 127/127/127
f 129/129/129 115/115/115 124/124/124
f 129/129/129 124/124/124 125/125/125
f 127/127/127 115/115/115 129/129/129
f 130/130/130 121/121/121 119/119/119
f 130/130/130 119/119/119 122/122/122
f 131/131/131 128/128/128 127/127/127
f 132/132/132 128/128/128 131/131/131
f 133/133/133 127/127/127 129/129/129
f 131/131/131 127/127/127 133/133/133
f 134/134/134 132/132/132 131/131/131
f 135/135/135 132/132/132 134/134/134
f 136/136/136 135/135/135 134/134/134
f 134/134/134 131/131/131 137/137/137
f 137/137/137 131/131/131 133/133/133
f 136/136/136 134/134/134 138/138/138
f 138/138/138 134/134/134 137/137/137
f 139/139/139 138/138/138 137/137/137
f 140/140/140 136/136/136 138/138/138
f 140/140/140 138/138/138 139/139/139
f 141/141/141 140/140/140 139/139/139
f 142/142/142 141/141/141 139/139/139
f 133/133/133 129/129/129 143/143/143
f 143/143/143 129/129/129 125/125/125
f 137/137/137 133/133/133 144/144/144
f 144/144/144 133/133/133 143/143/143
f 145/145/145 143/143/143 125/125/125
f 144/144/144 143/143/143 145/145/145
f 146/146/146 139/139/139 137/137/137
f 146/146/146 137/137/137 144/144/144
f 139/139/139 146/146/146 147/147/147
f 147/147/147 146/146/146 144/144/144
f 148/148/148 142/142/142 139/139/139
f 148/148/148 139/139/139 147/147/147
f 142/142/142 148/148/148 149/149/149
f 150/150/150 142/142/142 149/149/149
f 151/151/151 145/145/145 125/125/125
f 151/151/151 125/125/125 121/121/121
f 151/151/151 121/121/121 130/130/130
f 152/152/152 151/151/151 130/130/130
f 145/145/145 151/151/151 152/152/152
f 153/153/153 144/144/144 145/145/145
f 153/153/153 147/147/147 144/144/144
f 148/148/148 147/147/147 154/154/154
f 149/149/149 148/148/148 154/154/154
f 150/150/150 149/149/149 155/155/155
f 156/156/156 150/150/150 155/155/155
f 157/157/157 156/156/156 155/155/155
f 153/153/153 145/145/145 158/158/158
f 158/158/158 145/145/145 152/152/152
f 147/147/147 153/153/153 159/159/159
f 154/154/154 147/147/147 159/159/159
f 159/159/159 153/153/153 158/158/158
f 152/152/152 130/130/130 160/160/160
f 160/160/160 130/130/130 122/122/122
f 149/149/149 154/154/154 161/161/161
f 155/155/155 149/149/149 161/161/161
f 158/158/158 152/152/152 162/162/162
f 162/162/162 152/152/152 160/160/160
f 159/159/159 158/158/158 163/163/163
f 163/163/163 158/158/158 162/162/162
f 154/154/154 159/159/159 164/164/164
f 161/161/161 154/154/154 164/164/164
f 164/164/164 159/159/159 163/163/163
f 165/165/165 160/160/160 122/122/122
f 162/162/162 160/160/160 165/165/165
f 155/155/155 161/161/161 166/166/166
f 166/166/166 161/161/161 164/164/164
f 167/167/167 163/163/163 162/162/162
f 164/164/164 163/163/163 167/167/167
f 168/168/168 165/165/165 122/122/122
f 168/168/168 122/122/122 123/123/123
f 168/168/168 123/123/123 169/169/169
f 170/170/170 168/168/168 169/169/169
f 165/165/165 168/168/168 170/170/170
f 170/170/170 169/169/169 171/171/171
f 172/172/172 162/162/162 165/165/165
f 172/172/172 167/167/167 162/162/162
f 173/173/173 170/170/170 171/171/171
f 173/173/173 171/171/171 174/174/174
f 175/175/175 173/173/173 174/174/174
f 173/173/173 175/175/175 176/176/176
f 177/177/177 165/165/165 170/170/170
f 172/172/172 165/165/165 177/177/177
f 177/177/177 170/170/170 173/173/173
f 178/178/178 173/173/173 176/176/176
f 178/178/178 177/177/177 173/173/173
f 179/179/179 172/172/172 177/177/177
f 179/179/179 177/177/177 178/178/178
f 167/167/167 172/172/172 179/179/179
f 180/180/180 178/178/178 176/176/176
f 180/180/180 179/179/179 178/178/178
f 181/181/181 180/180/180 176/176/176
f 180/180/180 181/181/181 182/182/182
f 183/183/183 167/167/167 179/179/179
f 183/183/183 179/179/179 180/180/180
f 184/184/184 180/180/180 182/182/182
f 184/184/184 183/183/183 180/180/180
f 185/185/185 167/167/167 183/183/183
f 185/185/185 164/164/164 167/167/167
f 185/185/185 166/166/166 164/164/164
f 186/186/186 185/185/185 183/183/183
f 186/186/186 183/183/183 184/184/184
f 166/166/166 185/185/185 186/186/186
f 187/187/187 184/184/184 182/182/182
f 187/187/187 186/186/186 184/184/184
f 188/188/188 187/187/187 182/182/182
f 187/187/187 188/188/188 189/189/189
f 190/190/190 166/166/166 186/186/186
f 190/190/190 186/186/186 187/187/187
f 191/191/191 187/187/187 189/189/189
f 191/191/191 190/190/190 187/187/187
f 192/192/192 166/166/166 190/190/190
f 192/192/192 155/155/155 166/166/166
f 192/192/192 157/157/157 155/155/155
f 193/193/193 192/192/192 190/190/190
f 157/157/157 192/192/192 193/193/193
f 193/193/193 190/190/190 191/191/191
f 194/194/194 157/157/157 193/193/193
f 195/195/195 191/191/191 189/189/189
f 195/195/195 193/193/193 191/191/191
f 194/194/194 193/193/193 195/195/195
f 196/196/196 195/195/195 189/189/189
f 197/197/197 194/194/194 195/195/195
f 195/195/195 196/196/196 198/198/198
f 197/197/197 195/195/195 198/198/198
f 201/201/201 200/200/200 199/199/199
f 199/199/199 202/202/202 201/201/201
f 199/199/199 203/203/203 202/202/202
f 203/203/203 204/204/204 202/202/202
f 203/203/203 205/205/205 204/204/204
f 205/205/205 206/206/206 204/204/204
f 205/205/205 207/207/207 206/206/206
f 207/207/207 208/208/208 206/206/206
f 207/207/207 209/209/209 208/208/208
f 209/209/209 210/210/210 208/208/208
f 209/209/209 211/211/211 210/210/210
f 211/211/211 212/212/212 210/210/210
f 211/211/211 213/213/213 212/212/212
f 213/213/213 214/214/214 212/212/212
f 217/217/217 216/216/216 215/215/215
f 216/216/216 218/218/218 215/215/215
f 215/215/215 218/218/218 219/219/219
f 220/220/220 215/215/215 219/219/219
f 221/221/221 220/220/220 219/219/219
f 222/222/222 221/221/221 219/219/219
f 221/221/221 222/222/222 223/223/223
f 222/222/222 224/224/224 223/223/223
f 223/223/223 224/224/224 225/225/225
f 224/224/224 226/226/226 225/225/225
f 225/225/225 226/226/226 227/227/227
f 228/228/228 225/225/225 227/227/227
f 228/228/228 227/227/227 229/229/229
f 227/227/227 230/230/230 229/229/229
f 229/229/229 230/230/230 231/231/231
f 232/232/232 229/229/229 231/231/231
f 235/235/235 234/234/234 233/233/233
f 234/234/234 236/236/236 233/233/233
f 233/233/233 236/236/236 237/237/237
f 238/238/238 233/233/233 237/237/237
f 238/238/238 237/237/237 239/239/239
f 236/236/236 234/234/234 240/240/240
f 234/234/234 241/241/241 240/240/240
f 241/241/241 242/242/242 240/240/240
f 237/237/237 243/243/243 239/239/239
f 239/239/239 243/243/243 244/244/244
f 243/243/243 245/245/245 244/244/244
f 243/243/243 246/246/246 245/245/245
f 243/243/243 237/237/237 246/246/246
f 246/246/246 247/247/247 245/245/245
f 237/237/237 236/236/236 248/248/248
f 236/236/236 240/240/240 248/248/248
f 237/237/237 248/248/248 246/246/246
f 248/248/248 240/240/240 249/249/249
f 248/248/248 249/249/249 246/246/246
f 246/246/246 250/250/250 247/247/247
f 249/249/249 250/250/250 246/246/246
f 250/250/250 251/251/251 247/247/247
f 250/250/250 252/252/252 251/251/251
f 252/252/252 250/250/250 249/249/249
f 252/252/252 253/253/253 251/251/251
f 254/254/254 252/252/252 249/249/249
f 255/255/255 254/254/254 249/249/249
f 240/240/240 256/256/256 249/249/249
f 256/256/256 255/255/255 249/249/249
f 242/242/242 256/256/256 240/240/240
f 256/256/256 242/242/242 255/255/255
f 242/242/242 257/257/257 255/255/255
f 260/260/260 259/259/259 258/258/258
f 259/259/259 261/261/261 258/258/258
f 262/262/262 261/261/261 259/259/259
f 263/263/263 262/262/262 259/259/259
f 263/263/263 264/264/264 262/262/262
f 264/264/264 265/265/265 262/262/262
f 266/266/266 265/265/265 264/264/264
f 267/267/267 266/266/266 264/264/264
f 267/267/267 268/268/268 266/266/266
f 268/268/268 269/269/269 266/266/266
f 270/270/270 269/269/269 268/268/268
f 271/271/271 270/270/270 268/268/268
f 271/271/271 272/272/272 270/270/270
f 272/272/272 273/273/273 270/270/270
f 274/274/274 273/273/273 272/272/272
f 275/275/275 274/274/274 272/272/272
