g S_Carpet
v 0.466673583 -0.0485981777 -3.84339738
v 3.46150358E-07 0.0485981777 -3.87162614
v 3.46150358E-07 -0.0485981777 -3.87162614
v 0.466673583 0.0485981777 -3.84339738
v 0.92654109 -0.0485981777 -3.7591238
v 0.92654109 0.0485981777 -3.7591238
v 1.37289834 -0.0485981777 -3.62003279
v 1.37289834 0.0485981777 -3.62003279
v 1.79923332 -0.0485981777 -3.42815542
v 1.79923332 0.0485981777 -3.42815542
v 2.19933367 -0.0485981777 -3.18628621
v 2.19933367 0.0485981777 -3.18628621
v 2.56736255 -0.0485981777 -2.89795399
v 2.56736255 0.0485981777 -2.89795399
v 2.89795351 -0.0485981777 -2.56736326
v 2.89795351 0.048598174 -2.56736326
v 3.18628597 -0.0485981777 -2.19933438
v 3.18628597 0.0485981777 -2.19933438
v 3.42815518 -0.0485981777 -1.79923427
v 3.42815518 0.0485981777 -1.79923427
v 3.62003374 -0.0485981777 -1.37289727
v 3.62003374 0.0485981777 -1.37289727
v 3.7591238 -0.0485981777 -0.926541209
v 3.7591238 0.0485981777 -0.926541209
v 3.84339809 -0.0485981777 -0.466673195
v 3.84339809 0.0485981777 -0.466673195
v 3.87162614 -0.0485981777 0
v 3.87162614 0.0485981777 0
v 3.84339786 -0.0485981777 0.466674119
v 3.87162614 -0.0485981777 0
v 3.84339786 0.0485981777 0.466674119
v 3.7591238 -0.0485981777 0.926542103
v 3.7591238 0.0485981777 0.926542103
v 3.62003279 -0.0485981777 1.37289894
v 3.62003279 0.048598174 1.37289894
v 3.42815423 -0.0485981777 1.79923594
v 3.42815423 0.0485981777 1.79923594
v 3.18628502 -0.0485981777 2.19933605
v 3.18628502 0.0485981777 2.19933605
v 2.89795518 -0.0485981777 2.56736207
v 2.89795518 0.0485981777 2.56736207
v 2.56736374 -0.0485981777 2.8979528
v 2.56736374 0.0485981777 2.8979528
v 2.19933534 -0.0485981777 3.18628526
v 2.19933534 0.048598174 3.18628526
v 1.79923546 -0.0485981777 3.42815423
v 1.79923546 0.048598174 3.42815423
v 1.37289834 -0.0485981777 3.62003279
v 1.37289834 0.0485981777 3.62003279
v 0.92654109 -0.0485981777 3.7591238
v 0.92654109 0.0485981777 3.7591238
v 0.466673583 -0.0485981777 3.84339738
v 0.466673583 0.0485981777 3.84339738
v 3.46150358E-07 -0.0485981777 3.87162614
v 3.46150358E-07 0.0485981777 3.87162614
v -0.466672778 -0.0485981777 3.84339738
v -0.466672778 0.048598174 3.84339738
v -0.926540673 -0.0485981777 3.75912404
v -0.926540673 0.0485981777 3.75912404
v -1.37289774 -0.0485981777 3.62003326
v -1.37289774 0.0485981703 3.62003326
v -1.79923522 -0.0485981777 3.42815447
v -1.79923522 0.0485981777 3.42815447
v -2.19933486 -0.0485981777 3.18628573
v -2.19933486 0.0485981777 3.18628573
v -2.56736374 -0.0485981777 2.8979528
v -2.56736374 0.0485981777 2.8979528
v -2.89795423 -0.0485981777 2.56736231
v -2.89795423 0.048598174 2.56736231
v -3.18628693 -0.0485981777 2.19933343
v -3.18628693 0.0485981777 2.19933343
v -3.42815542 -0.0485981777 1.79923308
v -3.42815542 0.048598174 1.79923308
v -3.62003374 -0.0485981777 1.37289608
v -3.62003374 0.048598174 1.37289608
v -3.7591238 -0.0485981777 0.926540792
v -3.7591238 0.0485981777 0.926540792
v -3.84339809 -0.0485981777 0.466672808
v -3.84339809 0.0485981777 0.466672808
v -3.87162614 -0.0485981777 -3.3846834E-07
v -3.87162614 0.0485981777 -3.3846834E-07
v -3.84339809 -0.0485981777 -0.466672808
v -3.84339809 0.0485981777 -0.466672808
v -3.7591238 -0.0485981777 -0.926540792
v -3.7591238 0.0485981777 -0.926540792
v -3.62003374 -0.0485981777 -1.37289608
v -3.62003374 0.048598174 -1.37289608
v -3.42815542 -0.0485981777 -1.79923308
v -3.42815542 0.048598174 -1.79923308
v -3.18628693 -0.0485981777 -2.19933343
v -3.18628693 0.0485981777 -2.19933343
v -2.89795423 -0.0485981777 -2.56736231
v -2.89795423 0.048598174 -2.56736231
v -2.56736374 -0.0485981777 -2.8979528
v -2.56736374 0.0485981777 -2.8979528
v -2.19933486 -0.0485981777 -3.18628573
v -2.19933486 0.0485981777 -3.18628573
v -1.79923522 -0.0485981777 -3.42815447
v -1.79923522 0.0485981777 -3.42815447
v -1.37289774 -0.0485981777 -3.62003326
v -1.37289774 0.0485981703 -3.62003326
v -0.926540673 -0.0485981777 -3.75912404
v -0.926540673 0.0485981777 -3.75912404
v -0.466672778 -0.0485981777 -3.84339738
v -0.466672778 0.048598174 -3.84339738
v 3.46150358E-07 -0.0485981777 -3.87162614
v 0.466673583 -0.0485981777 -3.84339738
v 3.46150358E-07 -0.0485981777 -3.87162614
v -0.466672778 -0.0485981777 -3.84339738
v 0.92654109 -0.0485981777 -3.7591238
v -0.926540673 -0.0485981777 -3.75912404
v -1.37289774 -0.0485981777 -3.62003326
v 1.37289834 -0.0485981777 -3.62003279
v -1.79923522 -0.0485981777 -3.42815447
v 1.79923332 -0.0485981777 -3.42815542
v 2.19933367 -0.0485981777 -3.18628621
v -2.19933486 -0.0485981777 -3.18628573
v 2.56736255 -0.0485981777 -2.89795399
v -2.56736374 -0.0485981777 -2.8979528
v 2.89795351 -0.0485981777 -2.56736326
v -2.89795423 -0.0485981777 -2.56736231
v 3.18628597 -0.0485981777 -2.19933438
v -3.18628693 -0.0485981777 -2.19933343
v 3.42815518 -0.0485981777 -1.79923427
v -3.42815542 -0.0485981777 -1.79923308
v 3.62003374 -0.0485981777 -1.37289727
v -3.62003374 -0.0485981777 -1.37289608
v 3.7591238 -0.0485981777 -0.926541209
v -3.7591238 -0.0485981777 -0.926540792
v 3.84339809 -0.0485981777 -0.466673195
v -3.84339809 -0.0485981777 -0.466672808
v 3.87162614 -0.0485981777 0
v -3.87162614 -0.0485981777 -3.3846834E-07
v -3.84339809 -0.0485981777 0.466672808
v 3.84339786 -0.0485981777 0.466674119
v -3.7591238 -0.0485981777 0.926540792
v 3.7591238 -0.0485981777 0.926542103
v -3.62003374 -0.0485981777 1.37289608
v 3.62003279 -0.0485981777 1.37289894
v -3.42815542 -0.0485981777 1.79923308
v 3.42815423 -0.0485981777 1.79923594
v -3.18628693 -0.0485981777 2.19933343
v 3.18628502 -0.0485981777 2.19933605
v -2.89795423 -0.0485981777 2.56736231
v 2.89795518 -0.0485981777 2.56736207
v 2.56736374 -0.0485981777 2.8979528
v -2.56736374 -0.0485981777 2.8979528
v 2.19933534 -0.0485981777 3.18628526
v -2.19933486 -0.0485981777 3.18628573
v 1.79923546 -0.0485981777 3.42815423
v -1.79923522 -0.0485981777 3.42815447
v 1.37289834 -0.0485981777 3.62003279
v -1.37289774 -0.0485981777 3.62003326
v 0.92654109 -0.0485981777 3.7591238
v -0.926540673 -0.0485981777 3.75912404
v 0.466673583 -0.0485981777 3.84339738
v -0.466672778 -0.0485981777 3.84339738
v 3.46150358E-07 -0.0485981777 3.87162614
v 3.7591238 0.0485981777 0.926542103
v -0 0.0485981777 0
v 3.84339786 0.0485981777 0.466674119
v 3.62003279 0.048598174 1.37289894
v 3.87162614 0.0485981777 0
v 3.42815423 0.0485981777 1.79923594
v 3.84339809 0.0485981777 -0.466673195
v 3.18628502 0.0485981777 2.19933605
v 3.7591238 0.0485981777 -0.926541209
v 2.89795518 0.0485981777 2.56736207
v 3.62003374 0.0485981777 -1.37289727
v 2.56736374 0.0485981777 2.8979528
v 3.42815518 0.0485981777 -1.79923427
v 2.19933534 0.048598174 3.18628526
v 3.18628597 0.0485981777 -2.19933438
v 1.79923546 0.048598174 3.42815423
v 2.89795351 0.048598174 -2.56736326
v 1.37289834 0.0485981777 3.62003279
v 2.56736255 0.0485981777 -2.89795399
v 0.92654109 0.0485981777 3.7591238
v 2.19933367 0.0485981777 -3.18628621
v 0.466673583 0.0485981777 3.84339738
v 1.79923332 0.0485981777 -3.42815542
v 3.46150358E-07 0.0485981777 3.87162614
v 1.37289834 0.0485981777 -3.62003279
v -0.466672778 0.048598174 3.84339738
v 0.92654109 0.0485981777 -3.7591238
v -0.926540673 0.0485981777 3.75912404
v 0.466673583 0.0485981777 -3.84339738
v -1.37289774 0.0485981703 3.62003326
v 3.46150358E-07 0.0485981777 -3.87162614
v -1.79923522 0.0485981777 3.42815447
v -0.466672778 0.048598174 -3.84339738
v -2.19933486 0.0485981777 3.18628573
v -0.926540673 0.0485981777 -3.75912404
v -2.56736374 0.0485981777 2.8979528
v -1.37289774 0.0485981703 -3.62003326
v -2.89795423 0.048598174 2.56736231
v -1.79923522 0.0485981777 -3.42815447
v -3.18628693 0.0485981777 2.19933343
v -2.19933486 0.0485981777 -3.18628573
v -3.42815542 0.048598174 1.79923308
v -2.56736374 0.0485981777 -2.8979528
v -3.62003374 0.048598174 1.37289608
v -2.89795423 0.048598174 -2.56736231
v -3.7591238 0.0485981777 0.926540792
v -3.18628693 0.0485981777 -2.19933343
v -3.84339809 0.0485981777 0.466672808
v -3.42815542 0.048598174 -1.79923308
v -3.87162614 0.0485981777 -3.3846834E-07
v -3.62003374 0.048598174 -1.37289608
v -3.84339809 0.0485981777 -0.466672808
v -3.7591238 0.0485981777 -0.926540792
vt 0.598632812 1.24511719
vt 0.504882812 1.25097656
vt 0.504882812 1.25097656
vt 0.598632812 1.24511719
vt 0.69140625 1.22851562
vt 0.69140625 1.22851562
vt 0.78125 1.20019531
vt 0.78125 1.20019531
vt 0.8671875 1.16210938
vt 0.8671875 1.16210938
vt 0.947753906 1.11328125
vt 0.947753906 1.11328125
vt 1.02148438 1.0546875
vt 1.02148438 1.0546875
vt 1.08789062 0.988769531
vt 1.08789062 0.988769531
vt 1.14648438 0.914550781
vt 1.14648438 0.914550781
vt 1.1953125 0.833984375
vt 1.1953125 0.833984375
vt 1.23339844 0.748046875
vt 1.23339844 0.748046875
vt 1.26171875 0.658203125
vt 1.26171875 0.658203125
vt 1.27832031 0.565429688
vt 1.27832031 0.565429688
vt 1.28417969 0.471679688
vt 1.28417969 0.471679688
vt 1.27832031 0.377685547
vt 1.28417969 0.471679688
vt 1.27832031 0.377685547
vt 1.26171875 0.28515625
vt 1.26171875 0.28515625
vt 1.23339844 0.1953125
vt 1.23339844 0.1953125
vt 1.1953125 0.109436035
vt 1.1953125 0.109436035
vt 1.14648438 0.0288543701
vt 1.14648438 0.0288543701
vt 1.08789062 -0.0452270508
vt 1.08789062 -0.0452270508
vt 1.02148438 -0.111816406
vt 1.02148438 -0.111816406
vt 0.947753906 -0.169799805
vt 0.947753906 -0.169799805
vt 0.8671875 -0.218505859
vt 0.8671875 -0.218505859
vt 0.78125 -0.257080078
vt 0.78125 -0.257080078
vt 0.69140625 -0.28515625
vt 0.69140625 -0.28515625
vt 0.598632812 -0.302246094
vt 0.598632812 -0.302246094
vt 0.504882812 -0.307861328
vt 0.504882812 -0.307861328
vt 0.410888672 -0.302246094
vt 0.410888672 -0.302246094
vt 0.318359375 -0.28515625
vt 0.318359375 -0.28515625
vt 0.228515625 -0.257080078
vt 0.228515625 -0.257080078
vt 0.142700195 -0.218505859
vt 0.142700195 -0.218505859
vt 0.0621032715 -0.169799805
vt 0.0621032715 -0.169799805
vt -0.012008667 -0.111816406
vt -0.012008667 -0.111816406
vt -0.0785522461 -0.0452270508
vt -0.0785522461 -0.0452270508
vt -0.13659668 0.0288543701
vt -0.13659668 0.0288543701
vt -0.185302734 0.109436035
vt -0.185302734 0.109436035
vt -0.223999023 0.1953125
vt -0.223999023 0.1953125
vt -0.251953125 0.28515625
vt -0.251953125 0.28515625
vt -0.268798828 0.377685547
vt -0.268798828 0.377685547
vt -0.274658203 0.471679688
vt -0.274658203 0.471679688
vt -0.268798828 0.565429688
vt -0.268798828 0.565429688
vt -0.251953125 0.658203125
vt -0.251953125 0.658203125
vt -0.223999023 0.748046875
vt -0.223999023 0.748046875
vt -0.185302734 0.833984375
vt -0.185302734 0.833984375
vt -0.13659668 0.914550781
vt -0.13659668 0.914550781
vt -0.0785522461 0.988769531
vt -0.0785522461 0.988769531
vt -0.012008667 1.0546875
vt -0.012008667 1.0546875
vt 0.0621032715 1.11328125
vt 0.0621032715 1.11328125
vt 0.142700195 1.16210938
vt 0.142700195 1.16210938
vt 0.228515625 1.20019531
vt 0.228515625 1.20019531
vt 0.318359375 1.22851562
vt 0.318359375 1.22851562
vt 0.410888672 1.24511719
vt 0.410888672 1.24511719
vt 0.504882812 1.25097656
vt 0.598632812 1.24511719
vt 0.504882812 1.25097656
vt 0.410888672 1.24511719
vt 0.69140625 1.22851562
vt 0.318359375 1.22851562
vt 0.228515625 1.20019531
vt 0.78125 1.20019531
vt 0.142700195 1.16210938
vt 0.8671875 1.16210938
vt 0.947753906 1.11328125
vt 0.0621032715 1.11328125
vt 1.02148438 1.0546875
vt -0.012008667 1.0546875
vt 1.08789062 0.988769531
vt -0.0785522461 0.988769531
vt 1.14648438 0.914550781
vt -0.13659668 0.914550781
vt 1.1953125 0.833984375
vt -0.185302734 0.833984375
vt 1.23339844 0.748046875
vt -0.223999023 0.748046875
vt 1.26171875 0.658203125
vt -0.251953125 0.658203125
vt 1.27832031 0.565429688
vt -0.268798828 0.565429688
vt 1.28417969 0.471679688
vt -0.274658203 0.471679688
vt -0.268798828 0.377685547
vt 1.27832031 0.377685547
vt -0.251953125 0.28515625
vt 1.26171875 0.28515625
vt -0.223999023 0.1953125
vt 1.23339844 0.1953125
vt -0.185302734 0.109436035
vt 1.1953125 0.109436035
vt -0.13659668 0.0288543701
vt 1.14648438 0.0288543701
vt -0.0785522461 -0.0452270508
vt 1.08789062 -0.0452270508
vt 1.02148438 -0.111816406
vt -0.012008667 -0.111816406
vt 0.947753906 -0.169799805
vt 0.0621032715 -0.169799805
vt 0.8671875 -0.218505859
vt 0.142700195 -0.218505859
vt 0.78125 -0.257080078
vt 0.228515625 -0.257080078
vt 0.69140625 -0.28515625
vt 0.318359375 -0.28515625
vt 0.598632812 -0.302246094
vt 0.410888672 -0.302246094
vt 0.504882812 -0.307861328
vt 1.26171875 0.28515625
vt 0.504882812 0.471679688
vt 1.27832031 0.377685547
vt 1.23339844 0.1953125
vt 1.28417969 0.471679688
vt 1.1953125 0.109436035
vt 1.27832031 0.565429688
vt 1.14648438 0.0288543701
vt 1.26171875 0.658203125
vt 1.08789062 -0.0452270508
vt 1.23339844 0.748046875
vt 1.02148438 -0.111816406
vt 1.1953125 0.833984375
vt 0.947753906 -0.169799805
vt 1.14648438 0.914550781
vt 0.8671875 -0.218505859
vt 1.08789062 0.988769531
vt 0.78125 -0.257080078
vt 1.02148438 1.0546875
vt 0.69140625 -0.28515625
vt 0.947753906 1.11328125
vt 0.598632812 -0.302246094
vt 0.8671875 1.16210938
vt 0.504882812 -0.307861328
vt 0.78125 1.20019531
vt 0.410888672 -0.302246094
vt 0.69140625 1.22851562
vt 0.318359375 -0.28515625
vt 0.598632812 1.24511719
vt 0.228515625 -0.257080078
vt 0.504882812 1.25097656
vt 0.142700195 -0.218505859
vt 0.410888672 1.24511719
vt 0.0621032715 -0.169799805
vt 0.318359375 1.22851562
vt -0.012008667 -0.111816406
vt 0.228515625 1.20019531
vt -0.0785522461 -0.0452270508
vt 0.142700195 1.16210938
vt -0.13659668 0.0288543701
vt 0.0621032715 1.11328125
vt -0.185302734 0.109436035
vt -0.012008667 1.0546875
vt -0.223999023 0.1953125
vt -0.0785522461 0.988769531
vt -0.251953125 0.28515625
vt -0.13659668 0.914550781
vt -0.268798828 0.377685547
vt -0.185302734 0.833984375
vt -0.274658203 0.471679688
vt -0.223999023 0.748046875
vt -0.268798828 0.565429688
vt -0.251953125 0.658203125
vn 0.120544434 0 -0.992675781
vn -0 0 -1
vn -0 0 -1
vn 0.120544434 0 -0.992675781
vn 0.239257812 0 -0.970703125
vn 0.239257812 0 -0.970703125
vn 0.354492188 0 -0.935058594
vn 0.354492188 0 -0.935058594
vn 0.46484375 0 -0.885253906
vn 0.46484375 0 -0.885253906
vn 0.567871094 0 -0.822753906
vn 0.567871094 0 -0.822753906
vn 0.663085938 0 -0.748535156
vn 0.663085938 0 -0.748535156
vn 0.748535156 0 -0.663085938
vn 0.748535156 0 -0.663085938
vn 0.822753906 0 -0.567871094
vn 0.822753906 0 -0.567871094
vn 0.885253906 0 -0.46484375
vn 0.885253906 0 -0.46484375
vn 0.935058594 0 -0.354492188
vn 0.935058594 0 -0.354492188
vn 0.970703125 0 -0.239257812
vn 0.970703125 0 -0.239257812
vn 0.992675781 0 -0.120544434
vn 0.992675781 0 -0.120544434
vn 1 0 0
vn 1 0 0
vn 0.992675781 0 0.120544434
vn 1 0 0
vn 0.992675781 0 0.120544434
vn 0.970703125 0 0.239257812
vn 0.970703125 0 0.239257812
vn 0.935058594 0 0.354492188
vn 0.935058594 0 0.354492188
vn 0.885253906 0 0.46484375
vn 0.885253906 0 0.46484375
vn 0.822753906 0 0.567871094
vn 0.822753906 0 0.567871094
vn 0.748535156 0 0.663085938
vn 0.748535156 0 0.663085938
vn 0.663085938 0 0.748535156
vn 0.663085938 0 0.748535156
vn 0.567871094 0 0.822753906
vn 0.567871094 0 0.822753906
vn 0.46484375 0 0.885253906
vn 0.46484375 0 0.885253906
vn 0.354492188 0 0.935058594
vn 0.354492188 0 0.935058594
vn 0.239257812 0 0.970703125
vn 0.239257812 0 0.970703125
vn 0.120544434 0 0.992675781
vn 0.120544434 0 0.992675781
vn -0 0 1
vn -0 0 1
vn -0.120544434 0 0.992675781
vn -0.120544434 0 0.992675781
vn -0.239257812 0 0.970703125
vn -0.239257812 0 0.970703125
vn -0.354492188 0 0.935058594
vn -0.354492188 0 0.935058594
vn -0.46484375 0 0.885253906
vn -0.46484375 0 0.885253906
vn -0.567871094 0 0.822753906
vn -0.567871094 0 0.822753906
vn -0.663085938 0 0.748535156
vn -0.663085938 0 0.748535156
vn -0.748535156 0 0.663085938
vn -0.748535156 0 0.663085938
vn -0.822753906 0 0.567871094
vn -0.822753906 0 0.567871094
vn -0.885253906 0 0.46484375
vn -0.885253906 0 0.46484375
vn -0.935058594 0 0.354492188
vn -0.935058594 0 0.354492188
vn -0.970703125 0 0.239257812
vn -0.970703125 0 0.239257812
vn -0.992675781 0 0.120544434
vn -0.992675781 0 0.120544434
vn -1 0 0
vn -1 0 0
vn -0.992675781 0 -0.120544434
vn -0.992675781 0 -0.120544434
vn -0.970703125 0 -0.239257812
vn -0.970703125 0 -0.239257812
vn -0.935058594 0 -0.354492188
vn -0.935058594 0 -0.354492188
vn -0.885253906 0 -0.46484375
vn -0.885253906 0 -0.46484375
vn -0.822753906 0 -0.567871094
vn -0.822753906 0 -0.567871094
vn -0.748535156 0 -0.663085938
vn -0.748535156 0 -0.663085938
vn -0.663085938 0 -0.748535156
vn -0.663085938 0 -0.748535156
vn -0.567871094 0 -0.822753906
vn -0.567871094 0 -0.822753906
vn -0.46484375 0 -0.885253906
vn -0.46484375 0 -0.885253906
vn -0.354492188 0 -0.935058594
vn -0.354492188 0 -0.935058594
vn -0.239257812 0 -0.970703125
vn -0.239257812 0 -0.970703125
vn -0.120544434 0 -0.992675781
vn -0.120544434 0 -0.992675781
vn -0 0 -1
vn -0 -1 0
vn -0 -1 0
vn -0 -1 0
vn -0 -1 0
vn -0 -1 0
vn -0 -1 0
vn -0 -1 0
vn -0 -1 0
vn -0 -1 0
vn -0 -1 0
vn -0 -1 0
vn -0 -1 0
vn -0 -1 0
vn -0 -1 0
vn -0 -1 0
vn -0 -1 0
vn -0 -1 0
vn -0 -1 0
vn -0 -1 0
vn -0 -1 0
vn -0 -1 0
vn -0 -1 0
vn -0 -1 0
vn -0 -1 0
vn -0 -1 0
vn -0 -1 0
vn -0 -1 0
vn -0 -1 0
vn -0 -1 0
vn -0 -1 0
vn -0 -1 0
vn -0 -1 0
vn -0 -1 0
vn -0 -1 0
vn -0 -1 0
vn -0 -1 0
vn -0 -1 0
vn -0 -1 0
vn -0 -1 0
vn -0 -1 0
vn -0 -1 0
vn -0 -1 0
vn -0 -1 0
vn -0 -1 0
vn -0 -1 0
vn -0 -1 0
vn -0 -1 0
vn -0 -1 0
vn -0 -1 0
vn -0 -1 0
vn -0 -1 0
vn -0 -1 0
vn -0 1 0
vn -0 1 0
vn -0 1 0
vn -0 1 0
vn -0 1 0
vn -0 1 0
vn -0 1 0
vn -0 1 0
vn -0 1 0
vn -0 1 0
vn -0 1 0
vn -0 1 0
vn -0 1 0
vn -0 1 0
vn -0 1 0
vn -0 1 0
vn -0 1 0
vn -0 1 0
vn -0 1 0
vn -0 1 0
vn -0 1 0
vn -0 1 0
vn -0 1 0
vn -0 1 0
vn -0 1 0
vn -0 1 0
vn -0 1 0
vn -0 1 0
vn -0 1 0
vn -0 1 0
vn -0 1 0
vn -0 1 0
vn -0 1 0
vn -0 1 0
vn -0 1 0
vn -0 1 0
vn -0 1 0
vn -0 1 0
vn -0 1 0
vn -0 1 0
vn -0 1 0
vn -0 1 0
vn -0 1 0
vn -0 1 0
vn -0 1 0
vn -0 1 0
vn -0 1 0
vn -0 1 0
vn -0 1 0
vn -0 1 0
vn -0 1 0
vn -0 1 0
vn -0 1 0
g S_Carpet_0
f 3/3/3 2/2/2 1/1/1
f 2/2/2 4/4/4 1/1/1
f 1/1/1 4/4/4 5/5/5
f 4/4/4 6/6/6 5/5/5
f 5/5/5 6/6/6 7/7/7
f 6/6/6 8/8/8 7/7/7
f 7/7/7 8/8/8 9/9/9
f 8/8/8 10/10/10 9/9/9
f 9/9/9 10/10/10 11/11/11
f 10/10/10 12/12/12 11/11/11
f 11/11/11 12/12/12 13/13/13
f 12/12/12 14/14/14 13/13/13
f 13/13/13 14/14/14 15/15/15
f 14/14/14 16/16/16 15/15/15
f 15/15/15 16/16/16 17/17/17
f 16/16/16 18/18/18 17/17/17
f 17/17/17 18/18/18 19/19/19
f 18/18/18 20/20/20 19/19/19
f 19/19/19 20/20/20 21/21/21
f 20/20/20 22/22/22 21/21/21
f 21/21/21 22/22/22 23/23/23
f 22/22/22 24/24/24 23/23/23
f 23/23/23 24/24/24 25/25/25
f 24/24/24 26/26/26 25/25/25
f 25/25/25 26/26/26 27/27/27
f 26/26/26 28/28/28 27/27/27
f 30/30/30 28/28/28 29/29/29
f 28/28/28 31/31/31 29/29/29
f 29/29/29 31/31/31 32/32/32
f 31/31/31 33/33/33 32/32/32
f 32/32/32 33/33/33 34/34/34
f 33/33/33 35/35/35 34/34/34
f 34/34/34 35/35/35 36/36/36
f 35/35/35 37/37/37 36/36/36
f 36/36/36 37/37/37 38/38/38
f 37/37/37 39/39/39 38/38/38
f 38/38/38 39/39/39 40/40/40
f 39/39/39 41/41/41 40/40/40
f 40/40/40 41/41/41 42/42/42
f 41/41/41 43/43/43 42/42/42
f 42/42/42 43/43/43 44/44/44
f 43/43/43 45/45/45 44/44/44
f 44/44/44 45/45/45 46/46/46
f 45/45/45 47/47/47 46/46/46
f 46/46/46 47/47/47 48/48/48
f 47/47/47 49/49/49 48/48/48
f 48/48/48 49/49/49 50/50/50
f 49/49/49 51/51/51 50/50/50
f 50/50/50 51/51/51 52/52/52
f 51/51/51 53/53/53 52/52/52
f 52/52/52 53/53/53 54/54/54
f 53/53/53 55/55/55 54/54/54
f 54/54/54 55/55/55 56/56/56
f 55/55/55 57/57/57 56/56/56
f 56/56/56 57/57/57 58/58/58
f 57/57/57 59/59/59 58/58/58
f 58/58/58 59/59/59 60/60/60
f 59/59/59 61/61/61 60/60/60
f 60/60/60 61/61/61 62/62/62
f 61/61/61 63/63/63 62/62/62
f 62/62/62 63/63/63 64/64/64
f 63/63/63 65/65/65 64/64/64
f 64/64/64 65/65/65 66/66/66
f 65/65/65 67/67/67 66/66/66
f 66/66/66 67/67/67 68/68/68
f 67/67/67 69/69/69 68/68/68
f 68/68/68 69/69/69 70/70/70
f 69/69/69 71/71/71 70/70/70
f 70/70/70 71/71/71 72/72/72
f 71/71/71 73/73/73 72/72/72
f 72/72/72 73/73/73 74/74/74
f 73/73/73 75/75/75 74/74/74
f 74/74/74 75/75/75 76/76/76
f 75/75/75 77/77/77 76/76/76
f 76/76/76 77/77/77 78/78/78
f 77/77/77 79/79/79 78/78/78
f 78/78/78 79/79/79 80/80/80
f 79/79/79 81/81/81 80/80/80
f 80/80/80 81/81/81 82/82/82
f 81/81/81 83/83/83 82/82/82
f 82/82/82 83/83/83 84/84/84
f 83/83/83 85/85/85 84/84/84
f 84/84/84 85/85/85 86/86/86
f 85/85/85 87/87/87 86/86/86
f 86/86/86 87/87/87 88/88/88
f 87/87/87 89/89/89 88/88/88
f 88/88/88 89/89/89 90/90/90
f 89/89/89 91/91/91 90/90/90
f 90/90/90 91/91/91 92/92/92
f 91/91/91 93/93/93 92/92/92
f 92/92/92 93/93/93 94/94/94
f 93/93/93 95/95/95 94/94/94
f 94/94/94 95/95/95 96/96/96
f 95/95/95 97/97/97 96/96/96
f 96/96/96 97/97/97 98/98/98
f 97/97/97 99/99/99 98/98/98
f 98/98/98 99/99/99 100/100/100
f 99/99/99 101/101/101 100/100/100
f 100/100/100 101/101/101 102/102/102
f 101/101/101 103/103/103 102/102/102
f 102/102/102 103/103/103 104/104/104
f 103/103/103 105/105/105 104/104/104
f 104/104/104 105/105/105 106/106/106
f 105/105/105 2/2/2 106/106/106
f 109/109/109 108/108/108 107/107/107
f 107/107/107 110/110/110 109/109/109
f 110/110/110 111/111/111 109/109/109
f 110/110/110 112/112/112 111/111/111
f 110/110/110 113/113/113 112/112/112
f 113/113/113 114/114/114 112/112/112
f 113/113/113 115/115/115 114/114/114
f 115/115/115 116/116/116 114/114/114
f 116/116/116 117/117/117 114/114/114
f 116/116/116 118/118/118 117/117/117
f 118/118/118 119/119/119 117/117/117
f 118/118/118 120/120/120 119/119/119
f 120/120/120 121/121/121 119/119/119
f 120/120/120 122/122/122 121/121/121
f 122/122/122 123/123/123 121/121/121
f 122/122/122 124/124/124 123/123/123
f 124/124/124 125/125/125 123/123/123
f 124/124/124 126/126/126 125/125/125
f 126/126/126 127/127/127 125/125/125
f 126/126/126 128/128/128 127/127/127
f 128/128/128 129/129/129 127/127/127
f 128/128/128 130/130/130 129/129/129
f 130/130/130 131/131/131 129/129/129
f 130/130/130 132/132/132 131/131/131
f 132/132/132 133/133/133 131/131/131
f 132/132/132 134/134/134 133/133/133
f 132/132/132 135/135/135 134/134/134
f 135/135/135 136/136/136 134/134/134
f 135/135/135 137/137/137 136/136/136
f 137/137/137 138/138/138 136/136/136
f 137/137/137 139/139/139 138/138/138
f 139/139/139 140/140/140 138/138/138
f 139/139/139 141/141/141 140/140/140
f 141/141/141 142/142/142 140/140/140
f 141/141/141 143/143/143 142/142/142
f 143/143/143 144/144/144 142/142/142
f 143/143/143 145/145/145 144/144/144
f 145/145/145 146/146/146 144/144/144
f 146/146/146 147/147/147 144/144/144
f 146/146/146 148/148/148 147/147/147
f 148/148/148 149/149/149 147/147/147
f 148/148/148 150/150/150 149/149/149
f 150/150/150 151/151/151 149/149/149
f 150/150/150 152/152/152 151/151/151
f 152/152/152 153/153/153 151/151/151
f 152/152/152 154/154/154 153/153/153
f 154/154/154 155/155/155 153/153/153
f 154/154/154 156/156/156 155/155/155
f 156/156/156 157/157/157 155/155/155
f 156/156/156 158/158/158 157/157/157
f 161/161/161 160/160/160 159/159/159
f 159/159/159 160/160/160 162/162/162
f 163/163/163 160/160/160 161/161/161
f 162/162/162 160/160/160 164/164/164
f 165/165/165 160/160/160 163/163/163
f 164/164/164 160/160/160 166/166/166
f 167/167/167 160/160/160 165/165/165
f 166/166/166 160/160/160 168/168/168
f 169/169/169 160/160/160 167/167/167
f 168/168/168 160/160/160 170/170/170
f 171/171/171 160/160/160 169/169/169
f 170/170/170 160/160/160 172/172/172
f 173/173/173 160/160/160 171/171/171
f 172/172/172 160/160/160 174/174/174
f 175/175/175 160/160/160 173/173/173
f 174/174/174 160/160/160 176/176/176
f 177/177/177 160/160/160 175/175/175
f 176/176/176 160/160/160 178/178/178
f 179/179/179 160/160/160 177/177/177
f 178/178/178 160/160/160 180/180/180
f 181/181/181 160/160/160 179/179/179
f 180/180/180 160/160/160 182/182/182
f 183/183/183 160/160/160 181/181/181
f 182/182/182 160/160/160 184/184/184
f 185/185/185 160/160/160 183/183/183
f 184/184/184 160/160/160 186/186/186
f 187/187/187 160/160/160 185/185/185
f 186/186/186 160/160/160 188/188/188
f 189/189/189 160/160/160 187/187/187
f 188/188/188 160/160/160 190/190/190
f 191/191/191 160/160/160 189/189/189
f 190/190/190 160/160/160 192/192/192
f 193/193/193 160/160/160 191/191/191
f 192/192/192 160/160/160 194/194/194
f 195/195/195 160/160/160 193/193/193
f 194/194/194 160/160/160 196/196/196
f 197/197/197 160/160/160 195/195/195
f 196/196/196 160/160/160 198/198/198
f 199/199/199 160/160/160 197/197/197
f 198/198/198 160/160/160 200/200/200
f 201/201/201 160/160/160 199/199/199
f 200/200/200 160/160/160 202/202/202
f 203/203/203 160/160/160 201/201/201
f 202/202/202 160/160/160 204/204/204
f 205/205/205 160/160/160 203/203/203
f 204/204/204 160/160/160 206/206/206
f 207/207/207 160/160/160 205/205/205
f 206/206/206 160/160/160 208/208/208
f 209/209/209 160/160/160 207/207/207
f 208/208/208 160/160/160 210/210/210
f 211/211/211 160/160/160 209/209/209
f 210/210/210 160/160/160 211/211/211
