g S_ClayPot
v 0.140321806 0.0501274578 0.141495883
v 0.0891381875 -0.00154126715 0.0913638175
v 0.0473895222 -0.00154126715 0.118520871
v 0.0757507011 0.0501114726 0.183470815
v -0.00157376158 -0.00154126715 0.127634197
v 0.090951167 0.108177148 0.218132347
v 0.167676926 0.108156092 0.16821456
v 0.0975064039 0.180356041 0.232448786
v 0.179272056 0.180353925 0.179269686
v 0.175339177 0.251961201 0.175339162
v -0.000830505101 0.0500949994 0.197823107
v -0.0502974577 -0.00154126715 0.117316365
v -0.000379482895 0.108195044 0.235325873
v -0.0772848651 0.0501114726 0.182835072
v -0.0913638324 -0.00154126715 0.0891381949
v -0.141495898 0.0501274578 0.140321031
v -0.118520878 -0.00154126715 0.0473895334
v -0.0916532874 0.108177669 0.217841282
v -0.183470577 0.0501114726 0.0757501721
v -0.127634197 -0.00154126715 -0.00157375436
v -0.197823405 0.0500949994 -0.000831030658
v -0.168214828 0.108156092 0.167676091
v -0.218132079 0.108177148 0.0909503326
v -0.235326126 0.108195044 -0.000380570564
v -0.232448563 0.180356041 0.0975051001
v -0.25082323 0.180358663 -5.25143662E-07
v -0.245879337 0.251826555 4.50152893E-09
v 1.04099888E-06 0.180358663 0.250822932
v -0.0975043252 0.180356041 0.232448786
v -0.179269984 0.180353925 0.179269686
v -0.227678731 0.251892716 0.0953084975
v 1.13883836E-09 0.251826555 0.245879337
v -0.175339177 0.251961201 0.175339147
v -0.214719743 0.304368168 0.0894752741
v -0.232178152 0.304357588 6.73641498E-09
v 0.0953084975 0.251892716 0.227678716
v 0.164931014 0.304380506 0.164931014
v 0.0894752741 0.304368168 0.214719713
v 0.145517394 0.349491119 0.145517409
v -0.0953084901 0.251892686 0.227678716
v -0.164931014 0.304380447 0.164930984
v -0.190292701 0.349530727 0.078643702
v -0.206188366 0.349570245 5.5257412E-09
v -0.197212517 0.357902735 -5.1010835E-07
v 0.0786436945 0.349530727 0.190292701
v 0.13879399 0.357869059 0.138792455
v 1.92783789E-09 0.304357588 0.232178152
v -0.0894752517 0.304368168 0.214719713
v -0.145517409 0.349491119 0.145517394
v -0.181842297 0.357885897 0.0749022141
v -1.28505609E-10 0.349570245 0.206188366
v -0.0786436945 0.349530697 0.190292701
v 1.02879085E-06 0.357902735 0.197213292
v -0.138791934 0.357869059 0.138792455
v -0.170360193 0.362017184 0.0701021999
v -0.184811994 0.362027079 1.79907844E-09
v 0.0749034882 0.357885897 0.181842029
v 0.129954025 0.36200732 0.129954055
v 0.070102185 0.362017184 0.170360193
v 0.0987213701 0.351210028 0.0987213701
v -0.0749019608 0.357885897 0.181842029
v -0.129954055 0.36200732 0.12995404
v -0.129516169 0.351211488 0.0532231107
v -0.140555575 0.351212889 2.69861777E-09
v -0.129672021 0.334230512 3.66240971E-09
v -0.119486444 0.33422935 0.0491000265
v -0.0910748169 0.334228218 0.0910748243
v -0.0987213701 0.351210028 0.0987213776
v -0.053223107 0.351211488 0.129516184
v -0.0491000228 0.33422935 0.119486429
v -2.8271232E-09 0.334230572 0.12967205
v -0.0701021999 0.362017214 0.170360193
v -3.46965123E-09 0.351212889 0.140555575
v -3.59815688E-09 0.362027079 0.184811994
v 0.0532231033 0.351211488 0.129516169
v 0.0491000153 0.33422935 0.119486444
v 0.0910748169 0.334228218 0.0910748169
v 0.197824389 0.0500949994 0.000830477977
v 0.127634183 -0.00154126715 0.00157375948
v 0.117316358 -0.00154126715 0.0502974577
v 0.182835862 0.0501114726 0.0772853419
v 0.0891381875 -0.00154126715 0.0913638175
v 0.235327214 0.108195044 0.000380018144
v 0.140321806 0.0501274578 0.141495883
v 0.217842624 0.108177669 0.0916535482
v 0.250825286 0.180358663 -5.25143662E-07
v 0.167676926 0.108156092 0.16821456
v 0.232450619 0.180356041 0.0975051001
v 0.179272056 0.180353925 0.179269686
v 0.245879337 0.251826555 -2.95779867E-09
v 0.175339177 0.251961201 0.175339162
v 0.227678716 0.251892686 0.0953084901
v 0.232178152 0.304357588 -2.7846776E-09
v 0.214719698 0.304368168 0.0894752517
v 0.164931014 0.304380506 0.164931014
v 0.206188366 0.349570245 1.28505609E-10
v 0.190292701 0.349530697 0.0786436945
v 0.145517394 0.349491119 0.145517409
v 0.197215095 0.357902735 -5.1010835E-07
v 0.13879399 0.357869059 0.138792455
v 0.181844369 0.357885897 0.0749022141
v 0.184811994 0.362027079 3.59815688E-09
v 0.170360178 0.362017214 0.0701021999
v 0.129954025 0.36200732 0.129954055
v 0.140555575 0.351212889 3.46965123E-09
v 0.129516169 0.351211488 0.053223107
v 0.0987213701 0.351210028 0.0987213701
v 0.12967205 0.334230572 2.8271232E-09
v 0.0910748169 0.334228218 0.0910748169
v 0.119486429 0.33422935 0.0491000228
v -0.197823405 0.0500949994 -0.000831030658
v -0.127634197 -0.00154126715 -0.00157375436
v -0.117316365 -0.00154126715 -0.0502974465
v -0.182834849 0.0501114726 -0.0772856474
v -0.235326126 0.108195044 -0.000380570564
v -0.0891381949 -0.00154126715 -0.0913638175
v -0.217841536 0.108177669 -0.0916541144
v -0.25082323 0.180358663 -5.25143662E-07
v -0.140320808 0.0501274578 -0.14149642
v -0.0473895334 -0.00154126715 -0.118520871
v -0.232448563 0.180356041 -0.0975061581
v -0.245879337 0.251826555 4.50152893E-09
v -0.167675838 0.108156092 -0.168215662
v -0.0757497102 0.0501109771 -0.183471635
v 0.00157375238 -0.00154126715 -0.127634197
v 0.000831502839 0.0500949994 -0.197823927
v 0.0502974465 -0.00154126715 -0.117316365
v -0.227678716 0.251892686 -0.0953084901
v -0.232178152 0.304357588 6.73641498E-09
v -0.214719698 0.304368168 -0.0894752666
v -0.206188366 0.349570245 5.5257412E-09
v -0.175339177 0.251961201 -0.175339162
v -0.190292701 0.349530697 -0.0786436945
v -0.197212517 0.357902735 -5.1010835E-07
v -0.0909500718 0.108177148 -0.218132898
v -0.0975043252 0.180356041 -0.232449844
v -0.179269984 0.180353925 -0.179271013
v 0.0772858709 0.0501114726 -0.182835624
v 0.09136381 -0.00154126715 -0.0891381949
v 0.00038057944 0.108195044 -0.235326692
v -0.164931014 0.304380506 -0.164931014
v 0.141496897 0.0501274578 -0.140321597
v 0.118520871 -0.00154126715 -0.0473895222
v 0.0916543826 0.108177669 -0.217842102
v 0.18347159 0.0501114726 -0.0757507309
v 0.127634183 -0.00154126715 0.00157375948
v 0.197824389 0.0500949994 0.000830477977
v 0.168215916 0.108156092 -0.167676926
v 0.218133166 0.108177148 -0.0909506381
v 0.232450619 0.180356041 -0.0975061581
v 0.235327214 0.108195044 0.000380018144
v 0.250825286 0.180358663 -5.25143662E-07
v 0.245879337 0.251826555 -2.95779867E-09
v 1.04099888E-06 0.180358663 -0.250824779
v 0.0975064039 0.180356041 -0.232449844
v -2.95779867E-09 0.251826555 -0.245879337
v 0.179272056 0.180353925 -0.179271013
v 0.175339162 0.251961201 -0.175339177
v 0.227678716 0.251892716 -0.0953084975
v 0.214719713 0.304368168 -0.0894752741
v 0.232178152 0.304357588 -2.7846776E-09
v -0.0953084975 0.251892686 -0.227678716
v -0.0894752741 0.304368168 -0.214719698
v 0.0953084901 0.251892686 -0.227678716
v 0.164931014 0.304380506 -0.164931014
v 0.190292701 0.349530727 -0.0786436945
v 0.206188366 0.349570245 1.28505609E-10
v 0.197215095 0.357902735 -5.1010835E-07
v -2.7846776E-09 0.304357588 -0.232178152
v 0.0894752517 0.304368168 -0.214719698
v -0.145517394 0.349491119 -0.145517409
v 0.145517409 0.349491119 -0.145517394
v -0.0786436945 0.349530727 -0.190292701
v 1.28505609E-10 0.349570245 -0.206188366
v 0.0786436945 0.349530697 -0.190292701
v -0.138791934 0.357869059 -0.138793468
v 0.13879399 0.357869059 -0.138793468
v 1.02879085E-06 0.357902735 -0.19721432
v -0.181842297 0.357885897 -0.0749032348
v -0.184811994 0.362027079 1.79907844E-09
v -0.170360178 0.362017214 -0.070102185
v -0.140555575 0.351212889 2.69861777E-09
v -0.0749014318 0.357885897 -0.181843311
v -0.129516169 0.351211488 -0.0532231033
v -0.129672021 0.334230512 3.66240971E-09
v -0.119486429 0.33422935 -0.0491000153
v -0.0910748169 0.334228218 -0.0910748169
v -0.129954025 0.36200732 -0.12995404
v -0.0987213701 0.351210028 -0.0987213627
v -0.070102185 0.362017184 -0.170360193
v -0.0532230958 0.351211488 -0.129516169
v -0.0491000153 0.33422935 -0.119486444
v 2.63436495E-09 0.334230512 -0.12967205
v 3.59815688E-09 0.362027079 -0.184811994
v 2.8271232E-09 0.351212859 -0.140555575
v 0.0749040097 0.357885897 -0.181843311
v 0.0701021999 0.362017214 -0.170360178
v 0.0532231107 0.351211488 -0.129516169
v 0.0491000153 0.33422938 -0.119486444
v 0.0910748243 0.334228218 -0.0910748169
v 0.129954055 0.36200732 -0.129954025
v 0.0987213701 0.351210058 -0.0987213627
v 0.181844369 0.357885897 -0.0749032348
v 0.170360193 0.362017184 -0.070102185
v 0.184811994 0.362027079 3.59815688E-09
v 0.129516169 0.351211488 -0.0532230958
v 0.119486429 0.33422932 -0.0491000153
v 0.140555575 0.351212889 3.46965123E-09
v 0.12967205 0.334230572 2.8271232E-09
v 0.0502974465 -0.00154126715 -0.117316365
v 0.00157375238 -0.00154126715 -0.127634197
v -0.0473895334 -0.00154126715 -0.118520871
v -0.0891381949 -0.00154126715 -0.0913638175
v 0.09136381 -0.00154126715 -0.0891381949
v -0.117316365 -0.00154126715 -0.0502974465
v 0.118520871 -0.00154126715 -0.0473895222
v -0.127634197 -0.00154126715 -0.00157375436
v 0.127634183 -0.00154126715 0.00157375948
v -0.118520878 -0.00154126715 0.0473895334
v 0.117316358 -0.00154126715 0.0502974577
v -0.0913638324 -0.00154126715 0.0891381949
v 0.0891381875 -0.00154126715 0.0913638175
v -0.0502974577 -0.00154126715 0.117316365
v 0.0473895222 -0.00154126715 0.118520871
v -0.00157376158 -0.00154126715 0.127634197
v 0.09941715 0.203796357 -0.0411799178
v 0.12967205 0.334230572 2.8271232E-09
v 0.107608348 0.203796357 7.93978927E-09
v 0.119486429 0.33422932 -0.0491000153
v 0.0910748243 0.334228218 -0.0910748169
v 0.0760905966 0.203796357 -0.0760905743
v 0.0411799364 0.203796342 -0.0994171351
v 0.0491000153 0.33422938 -0.119486444
v 1.42053258E-09 0.203796342 -0.107608333
v 2.63436495E-09 0.334230512 -0.12967205
v -0.0411799289 0.203796327 -0.0994171351
v -0.0491000153 0.33422935 -0.119486444
v -0.0910748169 0.334228218 -0.0910748169
v -0.0760905892 0.203796327 -0.0760905817
v -0.09941715 0.203796327 -0.0411799252
v -0.119486429 0.33422935 -0.0491000153
v -0.129672021 0.334230512 3.66240971E-09
v -0.107608348 0.203796327 3.23608185E-09
v 0.09941715 0.203796357 0.0411799401
v 0.0910748169 0.334228218 0.0910748169
v 0.0760905892 0.203796357 0.0760905966
v 0.119486429 0.33422935 0.0491000228
v 0.12967205 0.334230572 2.8271232E-09
v 0.107608348 0.203796357 7.93978927E-09
v 0.0411799364 0.203796342 -0.0994171351
v -0.0411799289 0.203796327 -0.0994171351
v 1.42053258E-09 0.203796342 -0.107608333
v 3.0841345E-09 0.177973717 -0.0777095333
v 0.0409711301 0.172125891 -0.0409711115
v 0.0760905966 0.203796357 -0.0760905743
v 0.09941715 0.203796357 -0.0411799178
v -0.0409711301 0.172125891 -0.0409711152
v -0.0760905892 0.203796327 -0.0760905817
v -0.09941715 0.203796327 -0.0411799252
v 0.0777095482 0.177973717 9.83424808E-09
v 0.107608348 0.203796357 7.93978927E-09
v 0.09941715 0.203796357 0.0411799401
v 0.0409711301 0.172125861 0.0409711376
v 0.0760905892 0.203796357 0.0760905966
v -2.57011212E-09 0.165470853 1.41691308E-08
v -0.0409711301 0.172125876 0.0409711376
v -4.7868336E-09 0.177973717 0.0777095556
v 0.0411799289 0.203796357 0.09941715
v -0.0411799364 0.203796342 0.09941715
v -3.28317773E-09 0.203796342 0.107608348
v -0.0760905966 0.203796327 0.0760905892
v -0.09941715 0.203796327 0.0411799327
v -0.0777095482 0.177973688 8.0530187E-09
v -0.107608348 0.203796327 3.23608185E-09
v -0.09941715 0.203796327 0.0411799327
v -0.129672021 0.334230512 3.66240971E-09
v -0.107608348 0.203796327 3.23608185E-09
v -0.119486444 0.33422935 0.0491000265
v -0.0910748169 0.334228218 0.0910748243
v -0.0760905966 0.203796327 0.0760905892
v -0.0411799364 0.203796342 0.09941715
v -0.0491000228 0.33422935 0.119486429
v -2.8271232E-09 0.334230572 0.12967205
v -3.28317773E-09 0.203796342 0.107608348
v 0.0411799289 0.203796357 0.09941715
v 0.0491000153 0.33422935 0.119486444
v 0.0910748169 0.334228218 0.0910748169
v 0.0760905892 0.203796357 0.0760905966
vt 0.251953125 0.218994141
vt 0.212646484 0.218994141
vt 0.212646484 0.253173828
vt 0.251953125 0.253173828
vt 0.212646484 0.287597656
vt 0.283203125 0.253173828
vt 0.283203125 0.218994141
vt 0.31640625 0.253173828
vt 0.31640625 0.218994141
vt 0.348632812 0.218994141
vt 0.251953125 0.287597656
vt 0.212646484 0.321777344
vt 0.283203125 0.287597656
vt 0.251953125 0.321777344
vt 0.212646484 0.356201172
vt 0.251953125 0.356201172
vt 0.212646484 0.390380859
vt 0.283203125 0.321777344
vt 0.251953125 0.390380859
vt 0.212646484 0.424560547
vt 0.251953125 0.424560547
vt 0.283203125 0.356201172
vt 0.283203125 0.390380859
vt 0.283203125 0.424560547
vt 0.31640625 0.390380859
vt 0.31640625 0.424560547
vt 0.348632812 0.424560547
vt 0.31640625 0.287597656
vt 0.31640625 0.321777344
vt 0.31640625 0.356201172
vt 0.348632812 0.390380859
vt 0.348632812 0.287597656
vt 0.348632812 0.356201172
vt 0.373046875 0.390380859
vt 0.373046875 0.424560547
vt 0.348632812 0.253173828
vt 0.373046875 0.218994141
vt 0.373046875 0.253173828
vt 0.396728516 0.218994141
vt 0.348632812 0.321777344
vt 0.373046875 0.356201172
vt 0.396728516 0.390380859
vt 0.396728516 0.424560547
vt 0.40234375 0.424560547
vt 0.396728516 0.253173828
vt 0.40234375 0.218994141
vt 0.373046875 0.287597656
vt 0.373046875 0.321777344
vt 0.396728516 0.356201172
vt 0.40234375 0.390380859
vt 0.396728516 0.287597656
vt 0.396728516 0.321777344
vt 0.40234375 0.287597656
vt 0.40234375 0.356201172
vt 0.408203125 0.390380859
vt 0.408203125 0.424560547
vt 0.40234375 0.253173828
vt 0.408203125 0.218994141
vt 0.408203125 0.253173828
vt 0.428466797 0.218994141
vt 0.40234375 0.321777344
vt 0.408203125 0.356201172
vt 0.428466797 0.390380859
vt 0.428466797 0.424560547
vt 0.437744141 0.424560547
vt 0.437744141 0.390380859
vt 0.437744141 0.356201172
vt 0.428466797 0.356201172
vt 0.428466797 0.321777344
vt 0.437744141 0.321777344
vt 0.437744141 0.287597656
vt 0.408203125 0.321777344
vt 0.428466797 0.287597656
vt 0.408203125 0.287597656
vt 0.428466797 0.253173828
vt 0.437744141 0.253173828
vt 0.437744141 0.218994141
vt 0.251953125 0.698730469
vt 0.212646484 0.698730469
vt 0.212646484 0.733398438
vt 0.251953125 0.733398438
vt 0.212646484 0.767578125
vt 0.283203125 0.698730469
vt 0.251953125 0.767578125
vt 0.283203125 0.733398438
vt 0.31640625 0.698730469
vt 0.283203125 0.767578125
vt 0.31640625 0.733398438
vt 0.31640625 0.767578125
vt 0.348632812 0.698730469
vt 0.348632812 0.767578125
vt 0.348632812 0.733398438
vt 0.373046875 0.698730469
vt 0.373046875 0.733398438
vt 0.373046875 0.767578125
vt 0.396728516 0.698730469
vt 0.396728516 0.733398438
vt 0.396728516 0.767578125
vt 0.40234375 0.698730469
vt 0.40234375 0.767578125
vt 0.40234375 0.733398438
vt 0.408203125 0.698730469
vt 0.408203125 0.733398438
vt 0.408203125 0.767578125
vt 0.428466797 0.698730469
vt 0.428466797 0.733398438
vt 0.428466797 0.767578125
vt 0.437744141 0.698730469
vt 0.437744141 0.767578125
vt 0.437744141 0.733398438
vt 0.251953125 0.424560547
vt 0.212646484 0.424560547
vt 0.212646484 0.458984375
vt 0.251953125 0.458984375
vt 0.283203125 0.424560547
vt 0.212646484 0.493164062
vt 0.283203125 0.458984375
vt 0.31640625 0.424560547
vt 0.251953125 0.493164062
vt 0.212646484 0.52734375
vt 0.31640625 0.458984375
vt 0.348632812 0.424560547
vt 0.283203125 0.493164062
vt 0.251953125 0.52734375
vt 0.212646484 0.561523438
vt 0.251953125 0.561523438
vt 0.212646484 0.596191406
vt 0.348632812 0.458984375
vt 0.373046875 0.424560547
vt 0.373046875 0.458984375
vt 0.396728516 0.424560547
vt 0.348632812 0.493164062
vt 0.396728516 0.458984375
vt 0.40234375 0.424560547
vt 0.283203125 0.52734375
vt 0.31640625 0.52734375
vt 0.31640625 0.493164062
vt 0.251953125 0.596191406
vt 0.212646484 0.630371094
vt 0.283203125 0.561523438
vt 0.373046875 0.493164062
vt 0.251953125 0.630371094
vt 0.212646484 0.664550781
vt 0.283203125 0.596191406
vt 0.251953125 0.664550781
vt 0.212646484 0.698730469
vt 0.251953125 0.698730469
vt 0.283203125 0.630371094
vt 0.283203125 0.664550781
vt 0.31640625 0.664550781
vt 0.283203125 0.698730469
vt 0.31640625 0.698730469
vt 0.348632812 0.698730469
vt 0.31640625 0.561523438
vt 0.31640625 0.596191406
vt 0.348632812 0.561523438
vt 0.31640625 0.630371094
vt 0.348632812 0.630371094
vt 0.348632812 0.664550781
vt 0.373046875 0.664550781
vt 0.373046875 0.698730469
vt 0.348632812 0.52734375
vt 0.373046875 0.52734375
vt 0.348632812 0.596191406
vt 0.373046875 0.630371094
vt 0.396728516 0.664550781
vt 0.396728516 0.698730469
vt 0.40234375 0.698730469
vt 0.373046875 0.561523438
vt 0.373046875 0.596191406
vt 0.396728516 0.493164062
vt 0.396728516 0.630371094
vt 0.396728516 0.52734375
vt 0.396728516 0.561523438
vt 0.396728516 0.596191406
vt 0.40234375 0.493164062
vt 0.40234375 0.630371094
vt 0.40234375 0.561523438
vt 0.40234375 0.458984375
vt 0.408203125 0.424560547
vt 0.408203125 0.458984375
vt 0.428466797 0.424560547
vt 0.40234375 0.52734375
vt 0.428466797 0.458984375
vt 0.437744141 0.424560547
vt 0.437744141 0.458984375
vt 0.437744141 0.493164062
vt 0.408203125 0.493164062
vt 0.428466797 0.493164062
vt 0.408203125 0.52734375
vt 0.428466797 0.52734375
vt 0.437744141 0.52734375
vt 0.437744141 0.561523438
vt 0.408203125 0.561523438
vt 0.428466797 0.561523438
vt 0.40234375 0.596191406
vt 0.408203125 0.596191406
vt 0.428466797 0.596191406
vt 0.437744141 0.596191406
vt 0.437744141 0.630371094
vt 0.408203125 0.630371094
vt 0.428466797 0.630371094
vt 0.40234375 0.664550781
vt 0.408203125 0.664550781
vt 0.408203125 0.698730469
vt 0.428466797 0.664550781
vt 0.437744141 0.664550781
vt 0.428466797 0.698730469
vt 0.437744141 0.698730469
vt 0.608886719 0.581542969
vt 0.599609375 0.559570312
vt 0.583007812 0.542480469
vt 0.561035156 0.533203125
vt 0.608886719 0.604980469
vt 0.537109375 0.533203125
vt 0.599609375 0.626953125
vt 0.515136719 0.542480469
vt 0.583007812 0.644042969
vt 0.498535156 0.559570312
vt 0.561035156 0.652832031
vt 0.489257812 0.581542969
vt 0.537109375 0.652832031
vt 0.489257812 0.604980469
vt 0.515136719 0.644042969
vt 0.498535156 0.626953125
vt 0.513671875 0.226806641
vt 0.576660156 0.204833984
vt 0.513671875 0.204833984
vt 0.576660156 0.226806641
vt 0.576660156 0.248901367
vt 0.513671875 0.248901367
vt 0.513671875 0.270996094
vt 0.576660156 0.270996094
vt 0.513671875 0.29296875
vt 0.576660156 0.29296875
vt 0.513671875 0.314941406
vt 0.576660156 0.314941406
vt 0.576660156 0.337158203
vt 0.513671875 0.337158203
vt 0.513671875 0.359130859
vt 0.576660156 0.359130859
vt 0.576660156 0.381347656
vt 0.513671875 0.381347656
vt 0.513671875 0.182739258
vt 0.576660156 0.160644531
vt 0.513671875 0.160644531
vt 0.576660156 0.182739258
vt 0.576660156 0.204833984
vt 0.513671875 0.204833984
vt 0.677246094 0.264404297
vt 0.635253906 0.272460938
vt 0.657226562 0.272460938
vt 0.653320312 0.253662109
vt 0.668457031 0.233398438
vt 0.691894531 0.249267578
vt 0.700683594 0.229614258
vt 0.631835938 0.240600586
vt 0.615722656 0.264160156
vt 0.600585938 0.249023438
vt 0.681640625 0.211669922
vt 0.700683594 0.208007812
vt 0.692382812 0.187988281
vt 0.661621094 0.196411133
vt 0.677246094 0.172973633
vt 0.646484375 0.218505859
vt 0.624511719 0.203613281
vt 0.639648438 0.183349609
vt 0.657714844 0.164550781
vt 0.616210938 0.172729492
vt 0.636230469 0.164550781
vt 0.601074219 0.187744141
vt 0.592773438 0.207397461
vt 0.611328125 0.225341797
vt 0.592773438 0.229003906
vt 0.513671875 0.403320312
vt 0.576660156 0.381347656
vt 0.513671875 0.381347656
vt 0.576660156 0.403320312
vt 0.576660156 0.425292969
vt 0.513671875 0.425292969
vt 0.513671875 0.447509766
vt 0.576660156 0.447509766
vt 0.576660156 0.469482422
vt 0.513671875 0.469482422
vt 0.513671875 0.491455078
vt 0.576660156 0.491455078
vt 0.576660156 0.513671875
vt 0.513671875 0.513671875
vn 0.516601562 -0.679199219 0.520996094
vn 0.265136719 -0.92578125 0.270263672
vn 0.139160156 -0.92578125 0.351074219
vn 0.273193359 -0.677246094 0.683105469
vn -0.00371170044 -0.924316406 0.381835938
vn 0.344726562 -0.378173828 0.859375
vn 0.652832031 -0.380615234 0.654785156
vn 0.372558594 -0.0694580078 0.925292969
vn 0.705566406 -0.0693359375 0.705566406
vn 0.696777344 0.170043945 0.696777344
vn -0.00330734253 -0.675292969 0.737304688
vn -0.145996094 -0.92578125 0.348144531
vn -0.00146770477 -0.375976562 0.926757812
vn -0.279296875 -0.677246094 0.680664062
vn -0.270263672 -0.92578125 0.265136719
vn -0.520996094 -0.679199219 0.516601562
vn -0.351074219 -0.92578125 0.139160156
vn -0.347412109 -0.378173828 0.857910156
vn -0.683105469 -0.677246094 0.273193359
vn -0.381835938 -0.924316406 -0.00370979309
vn -0.737304688 -0.675292969 -0.00330543518
vn -0.654785156 -0.380615234 0.652832031
vn -0.859375 -0.378173828 0.344726562
vn -0.926757812 -0.375976562 -0.00146579742
vn -0.925292969 -0.0694580078 0.372558594
vn -0.997558594 -0.0696411133 -7.10487366E-05
vn -0.986816406 0.162109375 0
vn -6.98566437E-05 -0.0696411133 0.997558594
vn -0.372802734 -0.069519043 0.925292969
vn -0.705566406 -0.0693359375 0.705566406
vn -0.9140625 0.166015625 0.369873047
vn -0 0.162109375 0.986816406
vn -0.696777344 0.170043945 0.696777344
vn -0.854980469 0.3828125 0.349609375
vn -0.926269531 0.377197266 0
vn 0.369873047 0.166015625 0.9140625
vn 0.651367188 0.388671875 0.651367188
vn 0.349609375 0.3828125 0.854980469
vn 0.549316406 0.629394531 0.549316406
vn -0.369873047 0.166015625 0.9140625
vn -0.651367188 0.388671875 0.651367188
vn -0.722167969 0.623535156 0.298828125
vn -0.786132812 0.617675781 0
vn -0.526367188 0.850585938 0
vn 0.298828125 0.623535156 0.722167969
vn 0.366699219 0.854980469 0.366699219
vn -0 0.377197266 0.926269531
vn -0.349609375 0.3828125 0.854980469
vn -0.549316406 0.629394531 0.549316406
vn -0.482177734 0.852539062 0.200805664
vn -0 0.617675781 0.786132812
vn -0.298828125 0.623535156 0.722167969
vn -0 0.850585938 0.526367188
vn -0.366699219 0.854980469 0.366699219
vn -0.0686645508 0.997070312 0.029006958
vn -0.0761108398 0.997070312 0
vn 0.200805664 0.852539062 0.482177734
vn 0.0520935059 0.997070312 0.0520935059
vn 0.029006958 0.997070312 0.0686645508
vn -0.389892578 0.834472656 -0.389892578
vn -0.200805664 0.852539062 0.482177734
vn -0.0520935059 0.997070312 0.0520935059
vn 0.506347656 0.835449219 -0.213745117
vn 0.547363281 0.836914062 0
vn 0.9296875 0.368652344 0
vn 0.857421875 0.366699219 -0.360839844
vn 0.658203125 0.364990234 -0.658203125
vn 0.389892578 0.834472656 -0.389892578
vn 0.213745117 0.835449219 -0.506347656
vn 0.360839844 0.366699219 -0.857421875
vn -0 0.368652344 -0.9296875
vn -0.0290222168 0.997070312 0.0686645508
vn -0 0.836914062 -0.547363281
vn -0 0.997070312 0.0761108398
vn -0.213745117 0.835449219 -0.506347656
vn -0.360839844 0.366699219 -0.857421875
vn -0.658203125 0.364990234 -0.658203125
vn 0.737304688 -0.675292969 0.00330543518
vn 0.381835938 -0.924316406 0.00370979309
vn 0.348144531 -0.92578125 0.145996094
vn 0.680664062 -0.677246094 0.279296875
vn 0.265136719 -0.92578125 0.270263672
vn 0.926757812 -0.375976562 0.0014667511
vn 0.516601562 -0.679199219 0.520996094
vn 0.857910156 -0.378173828 0.347412109
vn 0.997558594 -0.0696411133 6.96778297E-05
vn 0.652832031 -0.380615234 0.654785156
vn 0.925292969 -0.0694580078 0.372802734
vn 0.705566406 -0.0693359375 0.705566406
vn 0.986816406 0.162109375 0
vn 0.696777344 0.170043945 0.696777344
vn 0.9140625 0.166015625 0.369873047
vn 0.926269531 0.377197266 0
vn 0.854980469 0.3828125 0.349609375
vn 0.651367188 0.388671875 0.651367188
vn 0.786132812 0.617675781 0
vn 0.722167969 0.623535156 0.298828125
vn 0.549316406 0.629394531 0.549316406
vn 0.526367188 0.850585938 0
vn 0.366699219 0.854980469 0.366699219
vn 0.482177734 0.852539062 0.200805664
vn 0.0760498047 0.997070312 0
vn 0.0686035156 0.997070312 0.029006958
vn 0.0520935059 0.997070312 0.0520935059
vn -0.547363281 0.836914062 0
vn -0.506347656 0.835449219 -0.213745117
vn -0.389892578 0.834472656 -0.389892578
vn -0.9296875 0.368652344 0
vn -0.658203125 0.364990234 -0.658203125
vn -0.857421875 0.366699219 -0.360839844
vn -0.737304688 -0.675292969 -0.00330543518
vn -0.381835938 -0.924316406 -0.00370979309
vn -0.348144531 -0.92578125 -0.145996094
vn -0.680664062 -0.677246094 -0.279296875
vn -0.926757812 -0.375976562 -0.00146579742
vn -0.265136719 -0.92578125 -0.270263672
vn -0.857910156 -0.378173828 -0.347412109
vn -0.997558594 -0.0696411133 -7.10487366E-05
vn -0.516601562 -0.679199219 -0.520996094
vn -0.139160156 -0.92578125 -0.351074219
vn -0.925292969 -0.069519043 -0.372802734
vn -0.986816406 0.162109375 0
vn -0.652832031 -0.380615234 -0.654785156
vn -0.273193359 -0.677246094 -0.683105469
vn 0.00371170044 -0.924316406 -0.381835938
vn 0.00330924988 -0.675292969 -0.737304688
vn 0.145996094 -0.92578125 -0.348144531
vn -0.9140625 0.166015625 -0.369873047
vn -0.926269531 0.377197266 0
vn -0.854980469 0.3828125 -0.349609375
vn -0.786132812 0.617675781 0
vn -0.696777344 0.170043945 -0.696777344
vn -0.722167969 0.623535156 -0.298828125
vn -0.526367188 0.850585938 0
vn -0.344726562 -0.378173828 -0.859375
vn -0.372558594 -0.0694580078 -0.925292969
vn -0.705566406 -0.0693359375 -0.705566406
vn 0.279296875 -0.677246094 -0.680664062
vn 0.270263672 -0.92578125 -0.265136719
vn 0.0014667511 -0.375976562 -0.926757812
vn -0.651367188 0.388671875 -0.651367188
vn 0.520996094 -0.679199219 -0.516601562
vn 0.351074219 -0.92578125 -0.139160156
vn 0.347412109 -0.378173828 -0.857910156
vn 0.683105469 -0.677246094 -0.273193359
vn 0.381835938 -0.924316406 0.00370979309
vn 0.737304688 -0.675292969 0.00330543518
vn 0.654785156 -0.380615234 -0.652832031
vn 0.859375 -0.378173828 -0.344726562
vn 0.925292969 -0.0694580078 -0.372558594
vn 0.926757812 -0.375976562 0.0014667511
vn 0.997558594 -0.0696411133 6.96778297E-05
vn 0.986816406 0.162109375 0
vn 7.19428062E-05 -0.0696411133 -0.997558594
vn 0.372802734 -0.0694580078 -0.925292969
vn -0 0.162109375 -0.986816406
vn 0.705566406 -0.0693359375 -0.705566406
vn 0.696777344 0.170043945 -0.696777344
vn 0.9140625 0.166015625 -0.369873047
vn 0.854980469 0.3828125 -0.349609375
vn 0.926269531 0.377197266 0
vn -0.369873047 0.166015625 -0.9140625
vn -0.349609375 0.3828125 -0.854980469
vn 0.369873047 0.166015625 -0.9140625
vn 0.651367188 0.388671875 -0.651367188
vn 0.722167969 0.623535156 -0.298828125
vn 0.786132812 0.617675781 0
vn 0.526367188 0.850585938 0
vn -0 0.377197266 -0.926269531
vn 0.349609375 0.3828125 -0.854980469
vn -0.549316406 0.629394531 -0.549316406
vn 0.549316406 0.629394531 -0.549316406
vn -0.298828125 0.623535156 -0.722167969
vn -0 0.617675781 -0.786132812
vn 0.298828125 0.623535156 -0.722167969
vn -0.366699219 0.854980469 -0.366699219
vn 0.366699219 0.854980469 -0.366699219
vn -0 0.850585938 -0.526367188
vn -0.482177734 0.852539062 -0.200805664
vn -0.0761108398 0.997070312 0
vn -0.0686645508 0.997070312 -0.029006958
vn 0.547363281 0.836914062 0
vn -0.200805664 0.852539062 -0.482177734
vn 0.506347656 0.835449219 0.213745117
vn 0.9296875 0.368652344 0
vn 0.857421875 0.366699219 0.360839844
vn 0.658203125 0.364990234 0.658203125
vn -0.0520935059 0.997070312 -0.0520935059
vn 0.389892578 0.834472656 0.389892578
vn -0.029006958 0.997070312 -0.0686645508
vn 0.213745117 0.835449219 0.506347656
vn 0.360839844 0.366699219 0.857421875
vn -0 0.368652344 0.9296875
vn -0 0.997070312 -0.0760498047
vn -0 0.836914062 0.547363281
vn 0.200805664 0.852539062 -0.482177734
vn 0.029006958 0.997070312 -0.0686035156
vn -0.213745117 0.835449219 0.506347656
vn -0.360839844 0.366699219 0.857421875
vn -0.658203125 0.364990234 0.658203125
vn 0.0520935059 0.997070312 -0.0520935059
vn -0.389892578 0.834472656 0.389892578
vn 0.482177734 0.852539062 -0.200805664
vn 0.0686035156 0.997070312 -0.029006958
vn 0.0760498047 0.997070312 0
vn -0.506347656 0.835449219 0.213745117
vn -0.857421875 0.366699219 0.360839844
vn -0.547363281 0.836914062 0
vn -0.9296875 0.368652344 0
vn 0.145996094 -0.92578125 -0.348144531
vn 0.00371170044 -0.924316406 -0.381835938
vn -0.139160156 -0.92578125 -0.351074219
vn -0.265136719 -0.92578125 -0.270263672
vn 0.270263672 -0.92578125 -0.265136719
vn -0.348144531 -0.92578125 -0.145996094
vn 0.351074219 -0.92578125 -0.139160156
vn -0.381835938 -0.924316406 -0.00370979309
vn 0.381835938 -0.924316406 0.00370979309
vn -0.351074219 -0.92578125 0.139160156
vn 0.348144531 -0.92578125 0.145996094
vn -0.270263672 -0.92578125 0.265136719
vn 0.265136719 -0.92578125 0.270263672
vn -0.145996094 -0.92578125 0.348144531
vn 0.139160156 -0.92578125 0.351074219
vn -0.00371170044 -0.924316406 0.381835938
vn -0.790527344 0.517089844 0.328369141
vn -0.9296875 0.368652344 0
vn -0.883300781 0.468994141 0
vn -0.857421875 0.366699219 0.360839844
vn -0.658203125 0.364990234 0.658203125
vn -0.599609375 0.529785156 0.599609375
vn -0.328369141 0.517089844 0.790527344
vn -0.360839844 0.366699219 0.857421875
vn -0 0.468994141 0.883300781
vn -0 0.368652344 0.9296875
vn 0.328369141 0.517089844 0.790527344
vn 0.360839844 0.366699219 0.857421875
vn 0.658203125 0.364990234 0.658203125
vn 0.599609375 0.529785156 0.599609375
vn 0.790527344 0.517089844 0.328369141
vn 0.857421875 0.366699219 0.360839844
vn 0.9296875 0.368652344 0
vn 0.883300781 0.468994141 0
vn -0.790527344 0.517089844 -0.328369141
vn -0.658203125 0.364990234 -0.658203125
vn -0.599609375 0.529785156 -0.599609375
vn -0.857421875 0.366699219 -0.360839844
vn -0.9296875 0.368652344 0
vn -0.883300781 0.468994141 0
vn -0.328369141 0.517089844 0.790527344
vn 0.328369141 0.517089844 0.790527344
vn -0 0.468994141 0.883300781
vn -0 0.893066406 0.449707031
vn -0.235839844 0.942871094 0.235839844
vn -0.599609375 0.529785156 0.599609375
vn -0.790527344 0.517089844 0.328369141
vn 0.235839844 0.942871094 0.235839844
vn 0.599609375 0.529785156 0.599609375
vn 0.790527344 0.517089844 0.328369141
vn -0.449707031 0.893066406 0
vn -0.883300781 0.468994141 0
vn -0.790527344 0.517089844 -0.328369141
vn -0.235839844 0.942871094 -0.235839844
vn -0.599609375 0.529785156 -0.599609375
vn -0 1 0
vn 0.235839844 0.942871094 -0.235839844
vn -0 0.893066406 -0.449707031
vn -0.328369141 0.517089844 -0.790527344
vn 0.328369141 0.517089844 -0.790527344
vn -0 0.468994141 -0.883300781
vn 0.599609375 0.529785156 -0.599609375
vn 0.790527344 0.517089844 -0.328369141
vn 0.449707031 0.893066406 0
vn 0.883300781 0.468994141 0
vn 0.790527344 0.517089844 -0.328369141
vn 0.9296875 0.368652344 0
vn 0.883300781 0.468994141 0
vn 0.857421875 0.366699219 -0.360839844
vn 0.658203125 0.364990234 -0.658203125
vn 0.599609375 0.529785156 -0.599609375
vn 0.328369141 0.517089844 -0.790527344
vn 0.360839844 0.366699219 -0.857421875
vn -0 0.368652344 -0.9296875
vn -0 0.468994141 -0.883300781
vn -0.328369141 0.517089844 -0.790527344
vn -0.360839844 0.366699219 -0.857421875
vn -0.658203125 0.364990234 -0.658203125
vn -0.599609375 0.529785156 -0.599609375
g S_ClayPot_0
f 3/3/3 2/2/2 1/1/1
f 4/4/4 3/3/3 1/1/1
f 5/5/5 3/3/3 4/4/4
f 6/6/6 4/4/4 1/1/1
f 7/7/7 6/6/6 1/1/1
f 8/8/8 6/6/6 7/7/7
f 9/9/9 8/8/8 7/7/7
f 8/8/8 9/9/9 10/10/10
f 11/11/11 5/5/5 4/4/4
f 11/11/11 4/4/4 6/6/6
f 12/12/12 5/5/5 11/11/11
f 13/13/13 11/11/11 6/6/6
f 13/13/13 6/6/6 8/8/8
f 14/14/14 12/12/12 11/11/11
f 14/14/14 11/11/11 13/13/13
f 15/15/15 12/12/12 14/14/14
f 16/16/16 15/15/15 14/14/14
f 17/17/17 15/15/15 16/16/16
f 18/18/18 14/14/14 13/13/13
f 16/16/16 14/14/14 18/18/18
f 19/19/19 17/17/17 16/16/16
f 20/20/20 17/17/17 19/19/19
f 21/21/21 20/20/20 19/19/19
f 19/19/19 16/16/16 22/22/22
f 22/22/22 16/16/16 18/18/18
f 21/21/21 19/19/19 23/23/23
f 23/23/23 19/19/19 22/22/22
f 24/24/24 21/21/21 23/23/23
f 24/24/24 23/23/23 25/25/25
f 25/25/25 23/23/23 22/22/22
f 26/26/26 24/24/24 25/25/25
f 27/27/27 26/26/26 25/25/25
f 18/18/18 13/13/13 28/28/28
f 28/28/28 13/13/13 8/8/8
f 22/22/22 18/18/18 29/29/29
f 29/29/29 18/18/18 28/28/28
f 30/30/30 25/25/25 22/22/22
f 30/30/30 22/22/22 29/29/29
f 31/31/31 27/27/27 25/25/25
f 31/31/31 25/25/25 30/30/30
f 32/32/32 28/28/28 8/8/8
f 29/29/29 28/28/28 32/32/32
f 33/33/33 30/30/30 29/29/29
f 33/33/33 31/31/31 30/30/30
f 27/27/27 31/31/31 34/34/34
f 35/35/35 27/27/27 34/34/34
f 36/36/36 32/32/32 8/8/8
f 36/36/36 8/8/8 10/10/10
f 36/36/36 10/10/10 37/37/37
f 38/38/38 36/36/36 37/37/37
f 32/32/32 36/36/36 38/38/38
f 38/38/38 37/37/37 39/39/39
f 40/40/40 29/29/29 32/32/32
f 40/40/40 33/33/33 29/29/29
f 31/31/31 33/33/33 41/41/41
f 34/34/34 31/31/31 41/41/41
f 35/35/35 34/34/34 42/42/42
f 43/43/43 35/35/35 42/42/42
f 44/44/44 43/43/43 42/42/42
f 45/45/45 38/38/38 39/39/39
f 45/45/45 39/39/39 46/46/46
f 47/47/47 32/32/32 38/38/38
f 40/40/40 32/32/32 47/47/47
f 47/47/47 38/38/38 45/45/45
f 33/33/33 40/40/40 48/48/48
f 48/48/48 40/40/40 47/47/47
f 41/41/41 33/33/33 48/48/48
f 34/34/34 41/41/41 49/49/49
f 42/42/42 34/34/34 49/49/49
f 50/50/50 44/44/44 42/42/42
f 50/50/50 42/42/42 49/49/49
f 48/48/48 47/47/47 51/51/51
f 51/51/51 47/47/47 45/45/45
f 41/41/41 48/48/48 52/52/52
f 49/49/49 41/41/41 52/52/52
f 52/52/52 48/48/48 51/51/51
f 53/53/53 51/51/51 45/45/45
f 52/52/52 51/51/51 53/53/53
f 54/54/54 49/49/49 52/52/52
f 54/54/54 50/50/50 49/49/49
f 44/44/44 50/50/50 55/55/55
f 56/56/56 44/44/44 55/55/55
f 57/57/57 53/53/53 45/45/45
f 57/57/57 45/45/45 46/46/46
f 57/57/57 46/46/46 58/58/58
f 59/59/59 57/57/57 58/58/58
f 53/53/53 57/57/57 59/59/59
f 59/59/59 58/58/58 60/60/60
f 61/61/61 52/52/52 53/53/53
f 61/61/61 54/54/54 52/52/52
f 50/50/50 54/54/54 62/62/62
f 55/55/55 50/50/50 62/62/62
f 56/56/56 55/55/55 63/63/63
f 64/64/64 56/56/56 63/63/63
f 64/64/64 63/63/63 65/65/65
f 63/63/63 66/66/66 65/65/65
f 66/66/66 63/63/63 67/67/67
f 63/63/63 55/55/55 68/68/68
f 63/63/63 68/68/68 67/67/67
f 55/55/55 62/62/62 68/68/68
f 68/68/68 69/69/69 67/67/67
f 68/68/68 62/62/62 69/69/69
f 69/69/69 70/70/70 67/67/67
f 70/70/70 69/69/69 71/71/71
f 62/62/62 54/54/54 72/72/72
f 54/54/54 61/61/61 72/72/72
f 62/62/62 72/72/72 69/69/69
f 69/69/69 73/73/73 71/71/71
f 69/69/69 72/72/72 73/73/73
f 72/72/72 61/61/61 74/74/74
f 72/72/72 74/74/74 73/73/73
f 61/61/61 53/53/53 74/74/74
f 74/74/74 53/53/53 59/59/59
f 73/73/73 75/75/75 71/71/71
f 73/73/73 74/74/74 75/75/75
f 74/74/74 59/59/59 75/75/75
f 75/75/75 76/76/76 71/71/71
f 75/75/75 59/59/59 60/60/60
f 76/76/76 75/75/75 77/77/77
f 75/75/75 60/60/60 77/77/77
f 80/80/80 79/79/79 78/78/78
f 81/81/81 80/80/80 78/78/78
f 82/82/82 80/80/80 81/81/81
f 81/81/81 78/78/78 83/83/83
f 84/84/84 82/82/82 81/81/81
f 85/85/85 81/81/81 83/83/83
f 84/84/84 81/81/81 85/85/85
f 85/85/85 83/83/83 86/86/86
f 87/87/87 84/84/84 85/85/85
f 88/88/88 85/85/85 86/86/86
f 87/87/87 85/85/85 88/88/88
f 89/89/89 87/87/87 88/88/88
f 88/88/88 86/86/86 90/90/90
f 91/91/91 89/89/89 88/88/88
f 92/92/92 88/88/88 90/90/90
f 92/92/92 91/91/91 88/88/88
f 92/92/92 90/90/90 93/93/93
f 91/91/91 92/92/92 94/94/94
f 94/94/94 92/92/92 93/93/93
f 95/95/95 91/91/91 94/94/94
f 94/94/94 93/93/93 96/96/96
f 95/95/95 94/94/94 97/97/97
f 97/97/97 94/94/94 96/96/96
f 98/98/98 95/95/95 97/97/97
f 97/97/97 96/96/96 99/99/99
f 100/100/100 98/98/98 97/97/97
f 101/101/101 97/97/97 99/99/99
f 101/101/101 100/100/100 97/97/97
f 101/101/101 99/99/99 102/102/102
f 100/100/100 101/101/101 103/103/103
f 103/103/103 101/101/101 102/102/102
f 104/104/104 100/100/100 103/103/103
f 103/103/103 102/102/102 105/105/105
f 104/104/104 103/103/103 106/106/106
f 106/106/106 103/103/103 105/105/105
f 107/107/107 104/104/104 106/106/106
f 106/106/106 105/105/105 108/108/108
f 109/109/109 107/107/107 106/106/106
f 110/110/110 106/106/106 108/108/108
f 110/110/110 109/109/109 106/106/106
f 113/113/113 112/112/112 111/111/111
f 114/114/114 113/113/113 111/111/111
f 114/114/114 111/111/111 115/115/115
f 116/116/116 113/113/113 114/114/114
f 117/117/117 114/114/114 115/115/115
f 117/117/117 115/115/115 118/118/118
f 119/119/119 116/116/116 114/114/114
f 119/119/119 114/114/114 117/117/117
f 120/120/120 116/116/116 119/119/119
f 121/121/121 117/117/117 118/118/118
f 121/121/121 118/118/118 122/122/122
f 123/123/123 119/119/119 117/117/117
f 123/123/123 117/117/117 121/121/121
f 124/124/124 120/120/120 119/119/119
f 124/124/124 119/119/119 123/123/123
f 125/125/125 120/120/120 124/124/124
f 126/126/126 125/125/125 124/124/124
f 127/127/127 125/125/125 126/126/126
f 128/128/128 121/121/121 122/122/122
f 128/128/128 122/122/122 129/129/129
f 130/130/130 128/128/128 129/129/129
f 130/130/130 129/129/129 131/131/131
f 128/128/128 132/132/132 121/121/121
f 132/132/132 128/128/128 130/130/130
f 133/133/133 130/130/130 131/131/131
f 133/133/133 131/131/131 134/134/134
f 135/135/135 124/124/124 123/123/123
f 126/126/126 124/124/124 135/135/135
f 136/136/136 135/135/135 123/123/123
f 137/137/137 123/123/123 121/121/121
f 132/132/132 137/137/137 121/121/121
f 137/137/137 136/136/136 123/123/123
f 136/136/136 137/137/137 132/132/132
f 138/138/138 127/127/127 126/126/126
f 139/139/139 127/127/127 138/138/138
f 140/140/140 126/126/126 135/135/135
f 140/140/140 135/135/135 136/136/136
f 138/138/138 126/126/126 140/140/140
f 141/141/141 132/132/132 130/130/130
f 141/141/141 130/130/130 133/133/133
f 142/142/142 139/139/139 138/138/138
f 143/143/143 139/139/139 142/142/142
f 144/144/144 138/138/138 140/140/140
f 142/142/142 138/138/138 144/144/144
f 145/145/145 143/143/143 142/142/142
f 146/146/146 143/143/143 145/145/145
f 147/147/147 146/146/146 145/145/145
f 145/145/145 142/142/142 148/148/148
f 148/148/148 142/142/142 144/144/144
f 147/147/147 145/145/145 149/149/149
f 149/149/149 145/145/145 148/148/148
f 150/150/150 149/149/149 148/148/148
f 151/151/151 147/147/147 149/149/149
f 151/151/151 149/149/149 150/150/150
f 152/152/152 151/151/151 150/150/150
f 153/153/153 152/152/152 150/150/150
f 144/144/144 140/140/140 154/154/154
f 154/154/154 140/140/140 136/136/136
f 148/148/148 144/144/144 155/155/155
f 155/155/155 144/144/144 154/154/154
f 156/156/156 154/154/154 136/136/136
f 155/155/155 154/154/154 156/156/156
f 157/157/157 150/150/150 148/148/148
f 157/157/157 148/148/148 155/155/155
f 150/150/150 157/157/157 158/158/158
f 158/158/158 157/157/157 155/155/155
f 159/159/159 153/153/153 150/150/150
f 159/159/159 150/150/150 158/158/158
f 153/153/153 159/159/159 160/160/160
f 161/161/161 153/153/153 160/160/160
f 162/162/162 156/156/156 136/136/136
f 162/162/162 136/136/136 132/132/132
f 162/162/162 132/132/132 141/141/141
f 163/163/163 162/162/162 141/141/141
f 156/156/156 162/162/162 163/163/163
f 164/164/164 155/155/155 156/156/156
f 164/164/164 158/158/158 155/155/155
f 159/159/159 158/158/158 165/165/165
f 160/160/160 159/159/159 165/165/165
f 161/161/161 160/160/160 166/166/166
f 167/167/167 161/161/161 166/166/166
f 168/168/168 167/167/167 166/166/166
f 164/164/164 156/156/156 169/169/169
f 169/169/169 156/156/156 163/163/163
f 158/158/158 164/164/164 170/170/170
f 165/165/165 158/158/158 170/170/170
f 170/170/170 164/164/164 169/169/169
f 163/163/163 141/141/141 171/171/171
f 171/171/171 141/141/141 133/133/133
f 160/160/160 165/165/165 172/172/172
f 166/166/166 160/160/160 172/172/172
f 169/169/169 163/163/163 173/173/173
f 173/173/173 163/163/163 171/171/171
f 170/170/170 169/169/169 174/174/174
f 174/174/174 169/169/169 173/173/173
f 165/165/165 170/170/170 175/175/175
f 172/172/172 165/165/165 175/175/175
f 175/175/175 170/170/170 174/174/174
f 176/176/176 171/171/171 133/133/133
f 173/173/173 171/171/171 176/176/176
f 166/166/166 172/172/172 177/177/177
f 177/177/177 172/172/172 175/175/175
f 178/178/178 174/174/174 173/173/173
f 175/175/175 174/174/174 178/178/178
f 179/179/179 176/176/176 133/133/133
f 179/179/179 133/133/133 134/134/134
f 179/179/179 134/134/134 180/180/180
f 181/181/181 179/179/179 180/180/180
f 176/176/176 179/179/179 181/181/181
f 181/181/181 180/180/180 182/182/182
f 183/183/183 173/173/173 176/176/176
f 183/183/183 178/178/178 173/173/173
f 184/184/184 181/181/181 182/182/182
f 184/184/184 182/182/182 185/185/185
f 186/186/186 184/184/184 185/185/185
f 184/184/184 186/186/186 187/187/187
f 188/188/188 176/176/176 181/181/181
f 183/183/183 176/176/176 188/188/188
f 188/188/188 181/181/181 184/184/184
f 189/189/189 184/184/184 187/187/187
f 189/189/189 188/188/188 184/184/184
f 190/190/190 183/183/183 188/188/188
f 190/190/190 188/188/188 189/189/189
f 178/178/178 183/183/183 190/190/190
f 191/191/191 189/189/189 187/187/187
f 191/191/191 190/190/190 189/189/189
f 192/192/192 191/191/191 187/187/187
f 191/191/191 192/192/192 193/193/193
f 194/194/194 178/178/178 190/190/190
f 194/194/194 190/190/190 191/191/191
f 195/195/195 191/191/191 193/193/193
f 195/195/195 194/194/194 191/191/191
f 196/196/196 178/178/178 194/194/194
f 196/196/196 175/175/175 178/178/178
f 196/196/196 177/177/177 175/175/175
f 197/197/197 196/196/196 194/194/194
f 197/197/197 194/194/194 195/195/195
f 177/177/177 196/196/196 197/197/197
f 198/198/198 195/195/195 193/193/193
f 198/198/198 197/197/197 195/195/195
f 199/199/199 198/198/198 193/193/193
f 198/198/198 199/199/199 200/200/200
f 201/201/201 177/177/177 197/197/197
f 201/201/201 197/197/197 198/198/198
f 202/202/202 198/198/198 200/200/200
f 202/202/202 201/201/201 198/198/198
f 203/203/203 177/177/177 201/201/201
f 203/203/203 166/166/166 177/177/177
f 203/203/203 168/168/168 166/166/166
f 204/204/204 203/203/203 201/201/201
f 168/168/168 203/203/203 204/204/204
f 204/204/204 201/201/201 202/202/202
f 205/205/205 168/168/168 204/204/204
f 206/206/206 202/202/202 200/200/200
f 206/206/206 204/204/204 202/202/202
f 205/205/205 204/204/204 206/206/206
f 207/207/207 206/206/206 200/200/200
f 208/208/208 205/205/205 206/206/206
f 206/206/206 207/207/207 209/209/209
f 208/208/208 206/206/206 209/209/209
f 212/212/212 211/211/211 210/210/210
f 210/210/210 213/213/213 212/212/212
f 210/210/210 214/214/214 213/213/213
f 214/214/214 215/215/215 213/213/213
f 214/214/214 216/216/216 215/215/215
f 216/216/216 217/217/217 215/215/215
f 216/216/216 218/218/218 217/217/217
f 218/218/218 219/219/219 217/217/217
f 218/218/218 220/220/220 219/219/219
f 220/220/220 221/221/221 219/219/219
f 220/220/220 222/222/222 221/221/221
f 222/222/222 223/223/223 221/221/221
f 222/222/222 224/224/224 223/223/223
f 224/224/224 225/225/225 223/223/223
f 228/228/228 227/227/227 226/226/226
f 227/227/227 229/229/229 226/226/226
f 226/226/226 229/229/229 230/230/230
f 231/231/231 226/226/226 230/230/230
f 232/232/232 231/231/231 230/230/230
f 233/233/233 232/232/232 230/230/230
f 232/232/232 233/233/233 234/234/234
f 233/233/233 235/235/235 234/234/234
f 234/234/234 235/235/235 236/236/236
f 235/235/235 237/237/237 236/236/236
f 236/236/236 237/237/237 238/238/238
f 239/239/239 236/236/236 238/238/238
f 239/239/239 238/238/238 240/240/240
f 238/238/238 241/241/241 240/240/240
f 240/240/240 241/241/241 242/242/242
f 243/243/243 240/240/240 242/242/242
f 246/246/246 245/245/245 244/244/244
f 245/245/245 247/247/247 244/244/244
f 244/244/244 247/247/247 248/248/248
f 249/249/249 244/244/244 248/248/248
f 252/252/252 251/251/251 250/250/250
f 251/251/251 253/253/253 250/250/250
f 250/250/250 253/253/253 254/254/254
f 255/255/255 250/250/250 254/254/254
f 255/255/255 254/254/254 256/256/256
f 253/253/253 251/251/251 257/257/257
f 251/251/251 258/258/258 257/257/257
f 258/258/258 259/259/259 257/257/257
f 254/254/254 260/260/260 256/256/256
f 256/256/256 260/260/260 261/261/261
f 260/260/260 262/262/262 261/261/261
f 260/260/260 263/263/263 262/262/262
f 260/260/260 254/254/254 263/263/263
f 263/263/263 264/264/264 262/262/262
f 254/254/254 253/253/253 265/265/265
f 253/253/253 257/257/257 265/265/265
f 254/254/254 265/265/265 263/263/263
f 265/265/265 257/257/257 266/266/266
f 265/265/265 266/266/266 263/263/263
f 263/263/263 267/267/267 264/264/264
f 266/266/266 267/267/267 263/263/263
f 267/267/267 268/268/268 264/264/264
f 267/267/267 269/269/269 268/268/268
f 269/269/269 267/267/267 266/266/266
f 269/269/269 270/270/270 268/268/268
f 271/271/271 269/269/269 266/266/266
f 272/272/272 271/271/271 266/266/266
f 257/257/257 273/273/273 266/266/266
f 273/273/273 272/272/272 266/266/266
f 259/259/259 273/273/273 257/257/257
f 273/273/273 259/259/259 272/272/272
f 259/259/259 274/274/274 272/272/272
f 277/277/277 276/276/276 275/275/275
f 276/276/276 278/278/278 275/275/275
f 275/275/275 278/278/278 279/279/279
f 280/280/280 275/275/275 279/279/279
f 280/280/280 279/279/279 281/281/281
f 279/279/279 282/282/282 281/281/281
f 281/281/281 282/282/282 283/283/283
f 284/284/284 281/281/281 283/283/283
f 284/284/284 283/283/283 285/285/285
f 283/283/283 286/286/286 285/285/285
f 285/285/285 286/286/286 287/287/287
f 288/288/288 285/285/285 287/287/287
