g S_Cup
v 0.00109292846 0.00186284643 0.000289059506
v 0.00106507319 0.0018153683 3.8747703E-06
v 0.00149863272 0.0014778499 3.87479076E-06
v 0.00153782719 0.00151650154 0.000289059506
v 0.00183006516 0.00103961839 3.8747703E-06
v 0.00187792687 0.00106680766 0.000289059506
v 0.00203677942 0.0005305378 3.87479076E-06
v 0.00209004804 0.000544413109 0.000289059506
v 0.00210469146 -1.46968659E-05 3.87479076E-06
v 0.00215973612 -1.50803471E-05 0.000289059506
v 0.00202917168 -0.0005589301 3.87479076E-06
v 0.00208224193 -0.000573548838 0.000289059506
v 0.0018153683 -0.00106507319 3.8747703E-06
v 0.00186284643 -0.00109292846 0.000289059506
v 0.00147784932 -0.00149863388 3.87479076E-06
v 0.00151649991 -0.00153782777 0.000289059506
v 0.00103961909 -0.00183006411 3.87479076E-06
v 0.00106680766 -0.00187792687 0.000289059506
v 0.0005305378 -0.00203677942 3.87479076E-06
v 0.000544413109 -0.00209004804 0.000289059506
v -1.46968659E-05 -0.00210469146 3.87479076E-06
v -1.50803471E-05 -0.00215973612 0.000289059506
v -0.0005589301 -0.00202917168 3.87479076E-06
v -0.000573547673 -0.00208224263 0.000289059506
v -0.00106507319 -0.0018153683 3.8747703E-06
v -0.00109292846 -0.00186284643 0.000289059506
v -0.00109292846 -0.00186284643 0.000289059506
v -0.00106507319 -0.0018153683 3.8747703E-06
v -0.00149863272 -0.0014778499 3.87479076E-06
v -0.00153782836 -0.00151650095 0.000289059506
v -0.00183006516 -0.00103961839 3.87479076E-06
v -0.00187792687 -0.00106680766 0.000289059506
v -0.00203677895 -0.000530539488 3.87479076E-06
v -0.00209004758 -0.000544414972 0.000289059506
v -0.00210469216 1.46972388E-05 3.87479076E-06
v -0.00215973798 1.50813157E-05 0.000289059506
v -0.00202917238 0.000558930449 3.87479076E-06
v -0.00208224333 0.000573548081 0.000289059506
v -0.0018153683 0.00106507319 3.8747703E-06
v -0.00186284701 0.00109292881 0.000289059506
v -0.00147785048 0.00149863318 3.87479076E-06
v -0.00151650154 0.00153782871 0.000289059506
v -0.00103961967 0.00183006458 3.87479076E-06
v -0.0010668094 0.00187792769 0.000289059506
v -0.000530538498 0.00203677826 3.87479076E-06
v -0.00054441375 0.00209004688 0.000289059506
v 1.46957482E-05 0.00210469216 3.87479076E-06
v 1.50803471E-05 0.00215973612 0.000289059506
v 0.0005589301 0.00202917168 3.87479076E-06
v 0.000573547673 0.00208224263 0.000289059506
v 0.00106507319 0.0018153683 3.8747703E-06
v 0.00109292846 0.00186284643 0.000289059506
v 0.000573547673 0.00208224263 0.000289059506
v 0.00109292846 0.00186284643 0.000289059506
v 0.00142730714 0.00243277941 0.000848006282
v 0.00074902334 0.0027192994 0.00084800605
v 1.9694342E-05 0.0028205025 0.000848006282
v 1.50803471E-05 0.00215973612 0.000289059506
v 0.000858783606 0.00311777857 0.00149118551
v 0.00163646147 0.00278927293 0.00149118551
v 2.25804743E-05 0.00323381205 0.00149118551
v -0.000710976485 0.00272949273 0.000848006224
v -0.00054441375 0.00209004688 0.000289059506
v 0.000911858573 0.00331046525 0.00223313272
v 0.00173759903 0.00296165724 0.00223313272
v -0.000815161387 0.00312946667 0.00149118551
v -0.00139319594 0.00245247455 0.00084800605
v -0.0010668094 0.00187792769 0.000289059506
v 2.39759684E-05 0.00343367062 0.00223313272
v 0.000914393517 0.00331966858 0.002968719
v 0.00174242957 0.0029698913 0.00296871923
v -0.00159735105 0.00281185401 0.00149118551
v -0.00198047073 0.00200832309 0.00084800605
v -0.00151650154 0.00153782871 0.000289059506
v -0.000865540467 0.00332287606 0.00223313342
v 2.40421286E-05 0.00344321621 0.00296871923
v 0.00089194451 0.00323816855 0.00358017441
v 0.00169965159 0.00289697829 0.00358017487
v -0.00227068365 0.00230261777 0.00149118551
v -0.00243278011 0.00142730784 0.00084800605
v -0.00186284701 0.00109292881 0.000289059506
v -0.000867946888 0.00333211408 0.00296872063
v 2.34518939E-05 0.00335868262 0.00358017487
v 0.000831933168 0.00302031031 0.0037719768
v 0.00158530124 0.00270207319 0.0037719768
v -0.00278927293 0.00163646182 0.00149118551
v -0.00271929963 0.000749023631 0.000848006166
v -0.00208224333 0.000573548081 0.000289059506
v -0.000846637762 0.0032503074 0.00358017487
v 2.18744572E-05 0.00313271582 0.0037719768
v 0.000758269511 0.00275289267 0.00376688433
v 0.00144493894 0.00246283202 0.0037668841
v 0.000711675268 0.00258374028 0.00356733077
v 0.00135615375 0.00231150165 0.00356732961
v 1.87147398E-05 0.00267989631 0.00356732938
v 1.99381266E-05 0.00285534398 0.00376688386
v -0.000675533083 0.00259342371 0.00356732868
v -0.000719758915 0.00276320986 0.00376688363
v -0.00132374489 0.00233021332 0.00356732938
v -0.000789677317 0.00303163193 0.00377197633
v -0.0014104062 0.00248276908 0.00376688386
v -0.00188173517 0.0019082108 0.003567331
v -0.00154741434 0.00272394833 0.0037719768
v -0.00200493052 0.00203313655 0.00376688526
v -0.00231150165 0.00135615421 0.00356732961
v -0.00165903091 0.00292043062 0.00358017487
v -0.00219969498 0.00223063421 0.00377197703
v -0.00246283202 0.00144493917 0.0037668841
v -0.00258374005 0.000711675617 0.00356733077
v -0.00170078687 0.00299393409 0.00296871923
v -0.00235836441 0.0023915309 0.00358017487
v -0.00270207273 0.00158530159 0.0037719768
v -0.00275289221 0.00075826986 0.00376688433
v -0.00267989631 1.87156347E-05 0.00356732938
v -0.00169607124 0.00298563391 0.00223313272
v -0.00241772132 0.00245172228 0.00296871923
v -0.00241101789 0.00244492502 0.00223313272
v -0.00289697782 0.00169965194 0.00358017487
v -0.00302031008 0.000831933517 0.0037719768
v -0.00285534398 1.99389451E-05 0.00376688386
v -0.00259342371 -0.000675534306 0.00356732868
v -0.00296989107 0.00174243003 0.00296872063
v -0.00296165724 0.00173759949 0.00223313342
v -0.00323816831 0.000891944917 0.00358017441
v -0.00313271582 2.18752029E-05 0.0037719768
v -0.00276321056 -0.000719759963 0.00376688363
v -0.00233021425 -0.00132374407 0.00356732938
v -0.00331966858 0.000914393633 0.002968719
v -0.00331046525 0.000911858631 0.00223313272
v -0.00335868262 2.34527888E-05 0.00358017487
v -0.00303163216 -0.000789678306 0.00377197633
v -0.00248276978 -0.00141040527 0.00376688386
v -0.00190821046 -0.00188173528 0.003567331
v -0.00344321667 2.40433219E-05 0.00296871923
v -0.00311777834 0.000858783722 0.00149118551
v -0.00325030787 -0.000846638635 0.00358017487
v -0.0027239488 -0.00154741341 0.0037719768
v -0.00203313585 -0.00200493098 0.00376688526
v -0.0013561541 -0.00231150165 0.00356732961
v -0.00144493917 -0.00246283202 0.0037668841
v -0.00223063375 -0.00219969545 0.00377197703
v -0.00158530171 -0.00270207343 0.0037719768
v -0.00292043132 -0.00165902998 0.00358017487
v -0.00239153043 -0.00235836464 0.00358017487
v -0.00169965194 -0.00289697829 0.00358017487
v -0.00333211408 -0.000867947296 0.00296871923
v -0.00299393479 -0.00170078571 0.00296872063
v -0.00245172251 -0.00241772179 0.00296871923
v -0.0017424298 -0.00296989107 0.00296871923
v -0.00343367038 2.39765632E-05 0.00223313272
v -0.00332287536 -0.000865541107 0.00223313272
v -0.00323381298 2.25813674E-05 0.00149118551
v -0.00298563484 -0.00169607066 0.00223313342
v -0.00244492502 -0.00241101836 0.00223313272
v -0.00173759914 -0.00296165701 0.00223313272
v -0.00282050343 1.96952369E-05 0.00084800605
v -0.00215973798 1.50813157E-05 0.000289059506
v -0.0031294662 -0.000815161795 0.00149118551
v -0.00272949273 -0.00071097695 0.000848006224
v -0.00209004758 -0.000544414972 0.000289059506
v -0.00281185494 -0.00159735 0.00149118551
v -0.0023026173 -0.00227068434 0.00149118551
v -0.00163646159 -0.00278927269 0.00149118551
v -0.00245247455 -0.00139319478 0.000848006224
v -0.00187792687 -0.00106680766 0.000289059506
v -0.00200832263 -0.00198047096 0.000848006224
v -0.00142730726 -0.00243277941 0.000848005933
v -0.00153782836 -0.00151650095 0.000289059506
v -0.00109292846 -0.00186284643 0.000289059506
v -0.00133309769 -0.00227220333 0.00291379471
v -0.000711675733 -0.00258374005 0.003567331
v -0.0013561541 -0.00231150165 0.00356732961
v -0.000699580123 -0.00253981235 0.00291379425
v -0.0011500956 -0.00196028501 0.00109530764
v -1.87158585E-05 -0.00267989631 0.00356732938
v -0.000603537716 -0.0021911636 0.00109531276
v -0.000751042098 -0.00128011662 0.000333702454
v -0.000394124218 -0.00143088307 0.000333699165
v -1.84018154E-05 -0.00263433508 0.00291379355
v 0.000675531919 -0.00259342417 0.00356732868
v -1.58661605E-05 -0.00227271044 0.00109531544
v -1.03668117E-05 -0.00148413621 0.000333707896
v 0.000664047198 -0.00254933303 0.00291379495
v 0.00132374524 -0.00233021309 0.00356732938
v 0.000572891207 -0.00219937786 0.001095318
v 0.000374110445 -0.00143624039 0.000333685137
v 0.00130124367 -0.00229059509 0.00291379355
v 0.00188173424 -0.0019082115 0.003567331
v 0.00112260901 -0.0019761615 0.00109531544
v 0.000733096444 -0.00129047991 0.000333707896
v 0.00184974552 -0.0018757669 0.00291379425
v 0.00231150212 -0.00135615363 0.00356732961
v 0.00159581716 -0.00161827833 0.00109531276
v 0.00104210665 -0.0010567751 0.00033369867
v 0.00227220356 -0.00133309723 0.00291379564
v 0.00258373981 -0.000711676374 0.00356733077
v 0.00196028501 -0.0011500956 0.00109530764
v 0.00128011673 -0.000751041749 0.000333702512
v 0.00253981189 -0.00069958088 0.00291379332
v 0.00267989631 -1.87152618E-05 0.00356732938
v 0.0021911629 -0.000603538821 0.00109531276
v 0.00143088261 -0.000394124858 0.00033369867
v 0.00263433508 -1.84012206E-05 0.00291379355
v 0.00259342487 0.000675530988 0.00356732868
v 0.00227271044 -1.58661605E-05 0.00109531544
v 0.00148413656 -1.03665889E-05 0.000333707896
v 0.00254933327 0.000664046442 0.00291379495
v 0.00233021379 0.00132374431 0.00356732938
v 0.00219937786 0.000572891207 0.001095318
v 0.00143624097 0.000374109688 0.00033368505
v 0.00229059509 0.00130124239 0.00291379355
v 0.00190820999 0.00188173563 0.00356733077
v 0.00197616196 0.00112260715 0.00109531672
v 0.00129047991 0.000733095978 0.000333707663
v 0.00187576527 0.0018497468 0.00291379332
v 0.00135615375 0.00231150165 0.00356732961
v 0.00133309746 0.00227220356 0.00291379471
v 0.00161827705 0.00159581774 0.00109531276
v 0.00105677405 0.00104210735 0.000333699165
v 0.0011500956 0.00196028501 0.00109530881
v 0.000751041982 0.00128011673 0.000333702454
v 0.00133309746 0.00227220356 0.00291379471
v 0.000711675268 0.00258374028 0.00356733077
v 0.00135615375 0.00231150165 0.00356732961
v 0.000699579716 0.00253981235 0.00291379332
v 0.0011500956 0.00196028501 0.00109530881
v 1.87147398E-05 0.00267989631 0.00356732938
v 0.000603537716 0.0021911636 0.00109531276
v 0.000751041982 0.00128011673 0.000333702454
v 0.000394124159 0.00143088307 0.000333699107
v 1.84006985E-05 0.00263433484 0.00291379355
v -0.000675533083 0.00259342371 0.00356732868
v 1.58643725E-05 0.00227270997 0.00109531672
v 1.03660668E-05 0.00148413621 0.000333707663
v -0.000664048479 0.00254933233 0.00291379588
v -0.00132374489 0.00233021332 0.00356732938
v -0.00057289307 0.0021993774 0.001095318
v -0.000374110939 0.00143624039 0.000333684526
v -0.00130124309 0.00229059509 0.00291379355
v -0.00188173517 0.0019082108 0.003567331
v -0.00112260901 0.0019761615 0.00109531544
v -0.000733096444 0.00129047991 0.000333707896
v -0.00184974633 0.00187576597 0.00291379425
v -0.00231150165 0.00135615421 0.00356732961
v -0.00159581774 0.00161827705 0.00109531276
v -0.001042107 0.00105677452 0.00033369867
v -0.00227220356 0.00133309793 0.00291379564
v -0.00258374005 0.000711675617 0.00356733077
v -0.00196028617 0.00115009618 0.00109530881
v -0.00128011662 0.000751042098 0.000333702454
v -0.00253981235 0.000699579949 0.00291379332
v -0.00267989631 1.87156347E-05 0.00356732938
v -0.00219116407 0.000603538007 0.00109531276
v -0.00143088307 0.000394124218 0.00033369867
v -0.00263433508 1.84017408E-05 0.00291379355
v -0.00259342371 -0.000675534306 0.00356732868
v -0.00227271114 1.58664589E-05 0.00109531544
v -0.00148413656 1.03665889E-05 0.000333707896
v -0.00254933233 -0.000664049061 0.00291379495
v -0.00233021425 -0.00132374407 0.00356732938
v -0.0021993774 -0.00057289307 0.001095318
v -0.00143624051 -0.000374111114 0.00033368505
v -0.00229059579 -0.00130124227 0.00291379495
v -0.00190821046 -0.00188173528 0.003567331
v -0.00197616196 -0.00112260715 0.00109531672
v -0.00129048037 -0.000733095687 0.000333707663
v -0.00187576585 -0.00184974633 0.00291379425
v -0.0013561541 -0.00231150165 0.00356732961
v -0.00133309769 -0.00227220333 0.00291379471
v -0.00161827705 -0.00159581774 0.00109531276
v -0.00105677452 -0.00104210735 0.000333699107
v -0.0011500956 -0.00196028501 0.00109530764
v -0.000751042098 -0.00128011662 0.000333702454
v 0.00143624097 0.000374109688 0.00033368505
v 0.00148413656 -1.03665889E-05 0.000333707896
v 0.00143088261 -0.000394124858 0.00033369867
v 0.00129047991 0.000733095978 0.000333707663
v 0.00128011673 -0.000751041749 0.000333702512
v 0.00105677405 0.00104210735 0.000333699165
v 0.00104210665 -0.0010567751 0.00033369867
v 0.000751041982 0.00128011673 0.000333702454
v 0.000733096444 -0.00129047991 0.000333707896
v 0.000394124159 0.00143088307 0.000333699107
v 0.000374110445 -0.00143624039 0.000333685137
v 1.03660668E-05 0.00148413621 0.000333707663
v -1.03668117E-05 -0.00148413621 0.000333707896
v -0.000374110939 0.00143624039 0.000333684526
v -0.000394124218 -0.00143088307 0.000333699165
v -0.000733096444 0.00129047991 0.000333707896
v -0.000751042098 -0.00128011662 0.000333702454
v -0.001042107 0.00105677452 0.00033369867
v -0.00105677452 -0.00104210735 0.000333699107
v -0.00128011662 0.000751042098 0.000333702454
v -0.00129048037 -0.000733095687 0.000333707663
v -0.00143088307 0.000394124218 0.00033369867
v -0.00143624051 -0.000374111114 0.00033368505
v -0.00148413656 1.03665889E-05 0.000333707896
v 0.00202917168 -0.0005589301 3.87479076E-06
v 0.00210469146 -1.46968659E-05 3.87479076E-06
v 0.00203677942 0.0005305378 3.87479076E-06
v 0.00183006516 0.00103961839 3.8747703E-06
v 0.0018153683 -0.00106507319 3.8747703E-06
v 0.00149863272 0.0014778499 3.87479076E-06
v 0.00147784932 -0.00149863388 3.87479076E-06
v 0.00106507319 0.0018153683 3.8747703E-06
v 0.00103961909 -0.00183006411 3.87479076E-06
v 0.0005589301 0.00202917168 3.87479076E-06
v 0.0005305378 -0.00203677942 3.87479076E-06
v 1.46957482E-05 0.00210469216 3.87479076E-06
v -1.46968659E-05 -0.00210469146 3.87479076E-06
v -0.000530538498 0.00203677826 3.87479076E-06
v -0.0005589301 -0.00202917168 3.87479076E-06
v -0.00103961967 0.00183006458 3.87479076E-06
v -0.00106507319 -0.0018153683 3.8747703E-06
v -0.00147785048 0.00149863318 3.87479076E-06
v -0.00149863272 -0.0014778499 3.87479076E-06
v -0.0018153683 0.00106507319 3.8747703E-06
v -0.00183006516 -0.00103961839 3.87479076E-06
v -0.00202917238 0.000558930449 3.87479076E-06
v -0.00203677895 -0.000530539488 3.87479076E-06
v -0.00210469216 1.46972388E-05 3.87479076E-06
v -0.00144493917 -0.00246283202 0.0037668841
v -0.0013561541 -0.00231150165 0.00356732961
v -0.000711675733 -0.00258374005 0.003567331
v -0.000758269918 -0.00275289221 0.00376688526
v -0.00158530171 -0.00270207343 0.0037719768
v -1.87158585E-05 -0.00267989631 0.00356732938
v -0.000831933576 -0.00302031008 0.00377197703
v -0.00169965194 -0.00289697829 0.00358017487
v -1.99392434E-05 -0.00285534374 0.00376688386
v 0.000675531919 -0.00259342417 0.00356732868
v -0.000891945092 -0.00323816855 0.00358017487
v -0.0017424298 -0.00296989107 0.00296871923
v -2.18753503E-05 -0.00313271582 0.0037719768
v 0.000719757809 -0.0027632108 0.00376688363
v 0.00132374524 -0.00233021309 0.00356732938
v -0.000914394099 -0.00331966928 0.00296871923
v -0.00173759914 -0.00296165701 0.00223313272
v -2.34530853E-05 -0.00335868238 0.00358017487
v 0.000789675978 -0.00303163263 0.00377197633
v 0.00141040655 -0.00248276885 0.00376688386
v 0.00188173424 -0.0019082115 0.003567331
v -0.000911859097 -0.00331046525 0.00223313272
v -0.00163646159 -0.00278927269 0.00149118551
v -2.40436184E-05 -0.00344321667 0.00296871923
v 0.000846636714 -0.00325030833 0.00358017487
v 0.00154741458 -0.00272394833 0.0037719768
v 0.00200492982 -0.00203313702 0.00376688526
v 0.00231150212 -0.00135615363 0.00356732961
v -0.000858784013 -0.00311777857 0.00149118551
v -0.00142730726 -0.00243277941 0.000848005933
v -2.39767123E-05 -0.00343366992 0.00223313272
v 0.000867945666 -0.00333211455 0.00296871923
v 0.00165903114 -0.00292043015 0.00358017487
v 0.00219969451 -0.00223063515 0.00377197703
v 0.00246283226 -0.00144493859 0.0037668841
v 0.00258373981 -0.000711676374 0.00356733077
v -0.000749023515 -0.00271929917 0.000848006224
v -0.00109292846 -0.00186284643 0.000289059506
v -0.000573547673 -0.00208224263 0.000289059506
v -2.25810709E-05 -0.00323381228 0.00149118551
v -1.96946403E-05 -0.00282050297 0.00084800605
v -1.50803471E-05 -0.00215973612 0.000289059506
v 0.00275289197 -0.000758270617 0.00376688433
v 0.00267989631 -1.87152618E-05 0.00356732938
v 0.00270207343 -0.00158530101 0.0037719768
v 0.000865539128 -0.00332287606 0.00223313272
v 0.000815160165 -0.00312946667 0.00149118551
v 0.000710975495 -0.00272949296 0.000848006224
v 0.000544413109 -0.00209004804 0.000289059506
v 0.00285534374 -1.99387214E-05 0.00376688386
v 0.00259342487 0.000675530988 0.00356732868
v 0.00170078746 -0.00299393409 0.00296871923
v 0.00169607159 -0.00298563344 0.00223313272
v 0.00159735105 -0.00281185401 0.00149118551
v 0.00139319594 -0.00245247409 0.00084800605
v 0.00106680766 -0.00187792687 0.000289059506
v 0.00235836371 -0.0023915316 0.00358017487
v 0.00241772039 -0.00245172321 0.00296871923
v 0.00241101696 -0.00244492595 0.00223313272
v 0.00227068295 -0.00230261823 0.00149118551
v 0.00198046956 -0.00200832309 0.00084800605
v 0.00151649991 -0.00153782777 0.000289059506
v 0.00289697852 -0.00169965124 0.00358017487
v 0.00296989176 -0.00174242945 0.00296872063
v 0.00296165748 -0.00173759891 0.00223313342
v 0.00278927316 -0.00163646124 0.00149118551
v 0.00243277987 -0.00142730714 0.00084800605
v 0.00186284643 -0.00109292846 0.000289059506
v 0.00302030984 -0.000831934274 0.0037719768
v 0.00323816831 -0.00089194579 0.00358017441
v 0.00331966835 -0.000914394739 0.002968719
v 0.00331046456 -0.000911859621 0.00223313272
v 0.00311777764 -0.00085878477 0.00149118551
v 0.00271929824 -0.000749024446 0.000848006166
v 0.00208224193 -0.000573548838 0.000289059506
v 0.00313271536 -2.18750538E-05 0.0037719768
v 0.00335868238 -2.34523413E-05 0.00358017487
v 0.00344321667 -2.40428744E-05 0.00296871923
v 0.00343367038 -2.39762667E-05 0.00223313272
v 0.00323381205 -2.25809217E-05 0.00149118551
v 0.00282050273 -1.96944911E-05 0.000848006166
v 0.00215973612 -1.50803471E-05 0.000289059506
v 0.00276321126 0.000719756761 0.00376688363
v 0.00233021379 0.00132374431 0.00356732938
v 0.0030316331 0.000789675163 0.00377197633
v 0.00248276908 0.00141040585 0.00376688386
v 0.00190820999 0.00188173563 0.00356733077
v 0.00272949389 0.000710974855 0.00084800605
v 0.00209004804 0.000544413109 0.000289059506
v 0.00312946737 0.000815159292 0.00149118551
v 0.00325030927 0.000846635783 0.00358017487
v 0.0027239488 0.00154741399 0.0037719768
v 0.00203313562 0.00200493098 0.00376688433
v 0.00135615375 0.00231150165 0.00356732961
v 0.00144493894 0.00246283202 0.0037668841
v 0.00223063352 0.00219969545 0.0037719768
v 0.00158530124 0.00270207319 0.0037719768
v 0.00333211478 0.000867944618 0.00296871923
v 0.00292043085 0.00165903056 0.00358017487
v 0.0023915302 0.00235836487 0.00358017441
v 0.00169965159 0.00289697829 0.00358017487
v 0.00332287652 0.000865538314 0.00223313272
v 0.00299393409 0.00170078606 0.00296871923
v 0.00245172158 0.00241772179 0.002968719
v 0.00174242957 0.0029698913 0.00296871923
v 0.00298563414 0.00169607112 0.00223313272
v 0.00244492432 0.00241101836 0.00223313272
v 0.00173759903 0.00296165724 0.00223313272
v 0.00281185447 0.00159735035 0.00149118551
v 0.00230261637 0.00227068411 0.00149118551
v 0.00163646147 0.00278927293 0.00149118551
v 0.00245247455 0.00139319489 0.000848006282
v 0.00187792687 0.00106680766 0.000289059506
v 0.00200832193 0.00198047096 0.000848006224
v 0.00142730714 0.00243277941 0.000848006282
v 0.00153782719 0.00151650154 0.000289059506
v 0.00109292846 0.00186284643 0.000289059506
v 0.00225481042 0.00253585144 0.00113670528
v 0.00182924652 0.00181049726 0.00113676302
v 0.00204020063 0.00217005913 0.00297052623
v 0.00256485632 0.00306431018 0.00292665302
v 0.00244865613 0.00286625279 0.00120399334
v 0.00262488006 0.00318807247 0.00134576135
v 0.00272754207 0.00334160123 0.00272679329
v 0.00275379047 0.00338633987 0.00171525532
v 0.00282823737 0.00351323118 0.0023980604
v 0.00182924652 0.00181049726 0.00113676302
v 0.00163333979 0.00186644227 0.000912941177
v 0.000854909245 0.00232314621 0.000912941177
v 0.000710498949 0.00246686442 0.00113676314
v 0.00204020063 0.00217005913 0.00297052623
v 0.000921453058 0.00282642595 0.00297052623
v 0.00189487776 0.0023122218 0.00318641495
v 0.00111644715 0.00276892562 0.00318641495
v 0.000921453058 0.00282642595 0.00297052623
v 0.000710498949 0.00246686442 0.00113676314
v 0.0011360629 0.00319221849 0.00113670528
v 0.00144610868 0.00372067722 0.00292665302
v 0.00132990861 0.00352261984 0.00120399334
v 0.00150382007 0.00381904375 0.00133480423
v 0.00160879456 0.00399796804 0.00272679329
v 0.00163504283 0.00404270692 0.00171525532
v 0.00170948973 0.00416959822 0.0023980604
v 0.00144610868 0.00372067722 0.00292665302
v 0.00111644715 0.00276892562 0.00318641495
v 0.000921453058 0.00282642595 0.00297052623
v 0.00165362598 0.00368452212 0.00314233289
v 0.00160879456 0.00399796804 0.00272679329
v 0.00189487776 0.0023122218 0.00318641495
v 0.00181853026 0.00396559387 0.00294289575
v 0.00170948973 0.00416959822 0.0023980604
v 0.0024320567 0.00322781829 0.00314233289
v 0.00204020063 0.00217005913 0.00297052623
v 0.00256485632 0.00306431018 0.00292665302
v 0.00259696087 0.00350888981 0.00294289575
v 0.00272754207 0.00334160123 0.00272679329
v 0.00269561051 0.00367703405 0.00265115919
v 0.00282823737 0.00351323118 0.0023980604
v 0.00191717991 0.00413373811 0.00265115919
v 0.00274406467 0.00375962164 0.00220411946
v 0.00196563383 0.00421632547 0.00220411946
v 0.00163504283 0.00404270692 0.00171525532
v 0.00189803285 0.00410110271 0.00163337647
v 0.00150382007 0.00381904375 0.00133480423
v 0.00267646369 0.00364439865 0.00163337647
v 0.00275379047 0.00338633987 0.00171525532
v 0.00255498732 0.00343734818 0.00128966733
v 0.00262488006 0.00318807247 0.00134576135
v 0.0017765566 0.00389405224 0.00128966733
v 0.00241545588 0.00319952331 0.00110799388
v 0.00163702527 0.00365622714 0.00110799388
v 0.00132990861 0.00352261984 0.00120399334
v 0.00223661913 0.002894704 0.000975323375
v 0.00244865613 0.00286625279 0.00120399334
v 0.0014581884 0.00335140782 0.000975323375
v 0.0011360629 0.00319221849 0.00113670528
v 0.00204570428 0.00256929849 0.0009118538
v 0.00225481042 0.00253585144 0.00113670528
v 0.00126727368 0.00302600232 0.0009118538
v 0.000710498949 0.00246686442 0.00113676314
v 0.000854909245 0.00232314621 0.000912941177
v 0.00163333979 0.00186644227 0.000912941177
v 0.00182924652 0.00181049726 0.00113676302
vt 0.0224456787 0.005027771
vt 0.00503158569 0.005027771
vt 0.00503158569 0.0479125977
vt 0.0224456787 0.0479125977
vt 0.00503158569 0.0907592773
vt 0.0224456787 0.0907592773
vt 0.00503158569 0.133666992
vt 0.0224456787 0.133666992
vt 0.00503158569 0.176513672
vt 0.0224456787 0.176513672
vt 0.00503158569 0.219360352
vt 0.0224456787 0.219360352
vt 0.00503158569 0.262207031
vt 0.0224456787 0.262207031
vt 0.00503158569 0.305175781
vt 0.0224456787 0.305175781
vt 0.00503158569 0.348144531
vt 0.0224456787 0.348144531
vt 0.00503158569 0.390869141
vt 0.0224456787 0.390869141
vt 0.00503158569 0.433837891
vt 0.0224456787 0.433837891
vt 0.00503158569 0.4765625
vt 0.0224456787 0.4765625
vt 0.00503158569 0.51953125
vt 0.0224456787 0.51953125
vt 0.540039062 0.005027771
vt 0.523925781 0.005027771
vt 0.523925781 0.044708252
vt 0.540039062 0.044708252
vt 0.523925781 0.0844116211
vt 0.540039062 0.0844116211
vt 0.523925781 0.124084473
vt 0.540039062 0.124084473
vt 0.523925781 0.163818359
vt 0.540039062 0.163818359
vt 0.523925781 0.203491211
vt 0.540039062 0.203491211
vt 0.523925781 0.243164062
vt 0.540039062 0.243164062
vt 0.523925781 0.282958984
vt 0.540039062 0.282958984
vt 0.523925781 0.322509766
vt 0.540039062 0.322509766
vt 0.523925781 0.362304688
vt 0.540039062 0.362304688
vt 0.523925781 0.401855469
vt 0.540039062 0.401855469
vt 0.523925781 0.441650391
vt 0.540039062 0.441650391
vt 0.523925781 0.481445312
vt 0.540039062 0.481445312
vt 0.540039062 0.441650391
vt 0.540039062 0.481445312
vt 0.587890625 0.481445312
vt 0.587890625 0.441650391
vt 0.587890625 0.401855469
vt 0.540039062 0.401855469
vt 0.630371094 0.441650391
vt 0.630371094 0.481445312
vt 0.630371094 0.401855469
vt 0.587890625 0.362304688
vt 0.540039062 0.362304688
vt 0.673339844 0.441650391
vt 0.673339844 0.481445312
vt 0.630371094 0.362304688
vt 0.587890625 0.322509766
vt 0.540039062 0.322509766
vt 0.673339844 0.401855469
vt 0.713867188 0.441650391
vt 0.713867188 0.481445312
vt 0.630371094 0.322509766
vt 0.587890625 0.282958984
vt 0.540039062 0.282958984
vt 0.673339844 0.362304688
vt 0.713867188 0.401855469
vt 0.748046875 0.441650391
vt 0.748046875 0.481445312
vt 0.630371094 0.282958984
vt 0.587890625 0.243164062
vt 0.540039062 0.243164062
vt 0.713867188 0.362304688
vt 0.748046875 0.401855469
vt 0.764648438 0.441650391
vt 0.764648438 0.481445312
vt 0.630371094 0.243164062
vt 0.587890625 0.203491211
vt 0.540039062 0.203491211
vt 0.748046875 0.362304688
vt 0.764648438 0.401855469
vt 0.780273438 0.441650391
vt 0.780273438 0.481445312
vt 0.794921875 0.441650391
vt 0.794921875 0.481445312
vt 0.794921875 0.401855469
vt 0.780273438 0.401855469
vt 0.794921875 0.362304688
vt 0.780273438 0.362304688
vt 0.794921875 0.322509766
vt 0.764648438 0.362304688
vt 0.780273438 0.322509766
vt 0.794921875 0.282958984
vt 0.764648438 0.322509766
vt 0.780273438 0.282958984
vt 0.794921875 0.243164062
vt 0.748046875 0.322509766
vt 0.764648438 0.282958984
vt 0.780273438 0.243164062
vt 0.794921875 0.203491211
vt 0.713867188 0.322509766
vt 0.748046875 0.282958984
vt 0.764648438 0.243164062
vt 0.780273438 0.203491211
vt 0.794921875 0.163818359
vt 0.673339844 0.322509766
vt 0.713867188 0.282958984
vt 0.673339844 0.282958984
vt 0.748046875 0.243164062
vt 0.764648438 0.203491211
vt 0.780273438 0.163818359
vt 0.794921875 0.124084473
vt 0.713867188 0.243164062
vt 0.673339844 0.243164062
vt 0.748046875 0.203491211
vt 0.764648438 0.163818359
vt 0.780273438 0.124084473
vt 0.794921875 0.0844116211
vt 0.713867188 0.203491211
vt 0.673339844 0.203491211
vt 0.748046875 0.163818359
vt 0.764648438 0.124084473
vt 0.780273438 0.0844116211
vt 0.794921875 0.044708252
vt 0.713867188 0.163818359
vt 0.630371094 0.203491211
vt 0.748046875 0.124084473
vt 0.764648438 0.0844116211
vt 0.780273438 0.044708252
vt 0.794921875 0.005027771
vt 0.780273438 0.005027771
vt 0.764648438 0.044708252
vt 0.764648438 0.005027771
vt 0.748046875 0.0844116211
vt 0.748046875 0.044708252
vt 0.748046875 0.005027771
vt 0.713867188 0.124084473
vt 0.713867188 0.0844116211
vt 0.713867188 0.044708252
vt 0.713867188 0.005027771
vt 0.673339844 0.163818359
vt 0.673339844 0.124084473
vt 0.630371094 0.163818359
vt 0.673339844 0.0844116211
vt 0.673339844 0.044708252
vt 0.673339844 0.005027771
vt 0.587890625 0.163818359
vt 0.540039062 0.163818359
vt 0.630371094 0.124084473
vt 0.587890625 0.124084473
vt 0.540039062 0.124084473
vt 0.630371094 0.0844116211
vt 0.630371094 0.044708252
vt 0.630371094 0.005027771
vt 0.587890625 0.0844116211
vt 0.540039062 0.0844116211
vt 0.587890625 0.044708252
vt 0.587890625 0.005027771
vt 0.540039062 0.044708252
vt 0.540039062 0.005027771
vt 0.336914062 0.51953125
vt 0.297607422 0.4765625
vt 0.297607422 0.51953125
vt 0.336914062 0.4765625
vt 0.448242188 0.51953125
vt 0.297607422 0.433837891
vt 0.448242188 0.4765625
vt 0.513671875 0.51953125
vt 0.513671875 0.4765625
vt 0.336914062 0.433837891
vt 0.297607422 0.390869141
vt 0.448242188 0.433837891
vt 0.513671875 0.433837891
vt 0.336914062 0.390869141
vt 0.297607422 0.348144531
vt 0.448242188 0.390869141
vt 0.513671875 0.390869141
vt 0.336914062 0.348144531
vt 0.297607422 0.305175781
vt 0.448242188 0.348144531
vt 0.513671875 0.348144531
vt 0.336914062 0.305175781
vt 0.297607422 0.262207031
vt 0.448242188 0.305175781
vt 0.513671875 0.305175781
vt 0.336914062 0.262207031
vt 0.297607422 0.219360352
vt 0.448242188 0.262207031
vt 0.513671875 0.262207031
vt 0.336914062 0.219360352
vt 0.297607422 0.176513672
vt 0.448242188 0.219360352
vt 0.513671875 0.219360352
vt 0.336914062 0.176513672
vt 0.297607422 0.133666992
vt 0.448242188 0.176513672
vt 0.513671875 0.176513672
vt 0.336914062 0.133666992
vt 0.297607422 0.0907592773
vt 0.448242188 0.133666992
vt 0.513671875 0.133666992
vt 0.336914062 0.0907592773
vt 0.297607422 0.0479125977
vt 0.448242188 0.0907592773
vt 0.513671875 0.0907592773
vt 0.336914062 0.0479125977
vt 0.297607422 0.005027771
vt 0.336914062 0.005027771
vt 0.448242188 0.0479125977
vt 0.513671875 0.0479125977
vt 0.448242188 0.005027771
vt 0.513671875 0.005027771
vt 0.831054688 0.481445312
vt 0.794921875 0.441650391
vt 0.794921875 0.481445312
vt 0.831054688 0.441650391
vt 0.934082031 0.481445312
vt 0.794921875 0.401855469
vt 0.934082031 0.441650391
vt 0.995117188 0.481445312
vt 0.995117188 0.441650391
vt 0.831054688 0.401855469
vt 0.794921875 0.362304688
vt 0.934082031 0.401855469
vt 0.995117188 0.401855469
vt 0.831054688 0.362304688
vt 0.794921875 0.322509766
vt 0.934082031 0.362304688
vt 0.995117188 0.362304688
vt 0.831054688 0.322509766
vt 0.794921875 0.282958984
vt 0.934082031 0.322509766
vt 0.995117188 0.322509766
vt 0.831054688 0.282958984
vt 0.794921875 0.243164062
vt 0.934082031 0.282958984
vt 0.995117188 0.282958984
vt 0.831054688 0.243164062
vt 0.794921875 0.203491211
vt 0.934082031 0.243164062
vt 0.995117188 0.243164062
vt 0.831054688 0.203491211
vt 0.794921875 0.163818359
vt 0.934082031 0.203491211
vt 0.995117188 0.203491211
vt 0.831054688 0.163818359
vt 0.794921875 0.124084473
vt 0.934082031 0.163818359
vt 0.995117188 0.163818359
vt 0.831054688 0.124084473
vt 0.794921875 0.0844116211
vt 0.934082031 0.124084473
vt 0.995117188 0.124084473
vt 0.831054688 0.0844116211
vt 0.794921875 0.044708252
vt 0.934082031 0.0844116211
vt 0.995117188 0.0844116211
vt 0.831054688 0.044708252
vt 0.794921875 0.005027771
vt 0.831054688 0.005027771
vt 0.934082031 0.044708252
vt 0.995117188 0.044708252
vt 0.934082031 0.005027771
vt 0.995117188 0.005027771
vt 0.794921875 0.663085938
vt 0.817382812 0.668945312
vt 0.840332031 0.668945312
vt 0.774902344 0.651367188
vt 0.862792969 0.663085938
vt 0.758300781 0.635253906
vt 0.8828125 0.651367188
vt 0.746582031 0.615234375
vt 0.899414062 0.635253906
vt 0.740722656 0.592773438
vt 0.911132812 0.615234375
vt 0.740722656 0.569335938
vt 0.916992188 0.592773438
vt 0.746582031 0.547363281
vt 0.916992188 0.569335938
vt 0.758300781 0.526855469
vt 0.911132812 0.547363281
vt 0.774902344 0.510742188
vt 0.899414062 0.526855469
vt 0.794921875 0.499023438
vt 0.8828125 0.510742188
vt 0.817382812 0.493164062
vt 0.862792969 0.499023438
vt 0.840332031 0.493164062
vt 0.708007812 0.694824219
vt 0.724121094 0.666015625
vt 0.732910156 0.634277344
vt 0.732910156 0.6015625
vt 0.684570312 0.717773438
vt 0.724121094 0.569824219
vt 0.65625 0.734375
vt 0.708007812 0.541503906
vt 0.624511719 0.742675781
vt 0.684570312 0.518066406
vt 0.591308594 0.742675781
vt 0.65625 0.501464844
vt 0.559570312 0.734375
vt 0.624511719 0.493164062
vt 0.53125 0.717773438
vt 0.591308594 0.493164062
vt 0.5078125 0.694824219
vt 0.559570312 0.501464844
vt 0.491455078 0.666015625
vt 0.53125 0.518066406
vt 0.483154297 0.634277344
vt 0.5078125 0.541503906
vt 0.483154297 0.6015625
vt 0.491455078 0.569824219
vt 0.281738281 0.51953125
vt 0.297607422 0.51953125
vt 0.297607422 0.4765625
vt 0.281738281 0.4765625
vt 0.265136719 0.51953125
vt 0.297607422 0.433837891
vt 0.265136719 0.4765625
vt 0.247314453 0.51953125
vt 0.281738281 0.433837891
vt 0.297607422 0.390869141
vt 0.247314453 0.4765625
vt 0.210327148 0.51953125
vt 0.265136719 0.433837891
vt 0.281738281 0.390869141
vt 0.297607422 0.348144531
vt 0.210327148 0.4765625
vt 0.166259766 0.51953125
vt 0.247314453 0.433837891
vt 0.265136719 0.390869141
vt 0.281738281 0.348144531
vt 0.297607422 0.305175781
vt 0.166259766 0.4765625
vt 0.120178223 0.51953125
vt 0.210327148 0.433837891
vt 0.247314453 0.390869141
vt 0.265136719 0.348144531
vt 0.281738281 0.305175781
vt 0.297607422 0.262207031
vt 0.120178223 0.4765625
vt 0.0743408203 0.51953125
vt 0.166259766 0.433837891
vt 0.210327148 0.390869141
vt 0.247314453 0.348144531
vt 0.265136719 0.305175781
vt 0.281738281 0.262207031
vt 0.297607422 0.219360352
vt 0.0743408203 0.4765625
vt 0.0224456787 0.51953125
vt 0.0224456787 0.4765625
vt 0.120178223 0.433837891
vt 0.0743408203 0.433837891
vt 0.0224456787 0.433837891
vt 0.281738281 0.219360352
vt 0.297607422 0.176513672
vt 0.265136719 0.262207031
vt 0.166259766 0.390869141
vt 0.120178223 0.390869141
vt 0.0743408203 0.390869141
vt 0.0224456787 0.390869141
vt 0.281738281 0.176513672
vt 0.297607422 0.133666992
vt 0.210327148 0.348144531
vt 0.166259766 0.348144531
vt 0.120178223 0.348144531
vt 0.0743408203 0.348144531
vt 0.0224456787 0.348144531
vt 0.247314453 0.305175781
vt 0.210327148 0.305175781
vt 0.166259766 0.305175781
vt 0.120178223 0.305175781
vt 0.0743408203 0.305175781
vt 0.0224456787 0.305175781
vt 0.247314453 0.262207031
vt 0.210327148 0.262207031
vt 0.166259766 0.262207031
vt 0.120178223 0.262207031
vt 0.0743408203 0.262207031
vt 0.0224456787 0.262207031
vt 0.265136719 0.219360352
vt 0.247314453 0.219360352
vt 0.210327148 0.219360352
vt 0.166259766 0.219360352
vt 0.120178223 0.219360352
vt 0.0743408203 0.219360352
vt 0.0224456787 0.219360352
vt 0.265136719 0.176513672
vt 0.247314453 0.176513672
vt 0.210327148 0.176513672
vt 0.166259766 0.176513672
vt 0.120178223 0.176513672
vt 0.0743408203 0.176513672
vt 0.0224456787 0.176513672
vt 0.281738281 0.133666992
vt 0.297607422 0.0907592773
vt 0.265136719 0.133666992
vt 0.281738281 0.0907592773
vt 0.297607422 0.0479125977
vt 0.0743408203 0.133666992
vt 0.0224456787 0.133666992
vt 0.120178223 0.133666992
vt 0.247314453 0.133666992
vt 0.265136719 0.0907592773
vt 0.281738281 0.0479125977
vt 0.297607422 0.005027771
vt 0.281738281 0.005027771
vt 0.265136719 0.0479125977
vt 0.265136719 0.005027771
vt 0.210327148 0.133666992
vt 0.247314453 0.0907592773
vt 0.247314453 0.0479125977
vt 0.247314453 0.005027771
vt 0.166259766 0.133666992
vt 0.210327148 0.0907592773
vt 0.210327148 0.0479125977
vt 0.210327148 0.005027771
vt 0.166259766 0.0907592773
vt 0.166259766 0.0479125977
vt 0.166259766 0.005027771
vt 0.120178223 0.0907592773
vt 0.120178223 0.0479125977
vt 0.120178223 0.005027771
vt 0.0743408203 0.0907592773
vt 0.0224456787 0.0907592773
vt 0.0743408203 0.0479125977
vt 0.0743408203 0.005027771
vt 0.0224456787 0.0479125977
vt 0.0224456787 0.005027771
vt 0.975097656 0.63671875
vt 0.944824219 0.596679688
vt 0.872070312 0.683105469
vt 0.912109375 0.730957031
vt 0.985839844 0.657714844
vt 0.9921875 0.680175781
vt 0.933105469 0.738769531
vt 0.982910156 0.704589844
vt 0.956054688 0.736328125
vt 0.333251953 0.533203125
vt 0.319335938 0.545410156
vt 0.319335938 0.599121094
vt 0.333251953 0.610839844
vt 0.445556641 0.533203125
vt 0.445556641 0.610839844
vt 0.458984375 0.545410156
vt 0.458984375 0.599121094
vt 0.324462891 0.619628906
vt 0.286132812 0.725097656
vt 0.3359375 0.731445312
vt 0.385742188 0.629882812
vt 0.359130859 0.73046875
vt 0.380615234 0.725097656
vt 0.403320312 0.644042969
vt 0.398925781 0.704589844
vt 0.412597656 0.665039062
vt 0.240112305 0.539550781
vt 0.308837891 0.553710938
vt 0.309814453 0.533691406
vt 0.241699219 0.559082031
vt 0.213745117 0.541992188
vt 0.306640625 0.615722656
vt 0.220458984 0.559570312
vt 0.18762207 0.543945312
vt 0.241699219 0.607910156
vt 0.306884766 0.634765625
vt 0.240234375 0.626953125
vt 0.220458984 0.607910156
vt 0.214355469 0.625488281
vt 0.201293945 0.608398438
vt 0.188232422 0.624023438
vt 0.201049805 0.559570312
vt 0.17578125 0.608886719
vt 0.175415039 0.560058594
vt 0.142944336 0.542480469
vt 0.143066406 0.560058594
vt 0.112304688 0.543945312
vt 0.143554688 0.608886719
vt 0.143798828 0.626464844
vt 0.120056152 0.609863281
vt 0.114929199 0.625
vt 0.119689941 0.560058594
vt 0.101379395 0.610839844
vt 0.100708008 0.559570312
vt 0.0878295898 0.541992188
vt 0.0794067383 0.611816406
vt 0.0894165039 0.62890625
vt 0.0785522461 0.559570312
vt 0.062286377 0.541015625
vt 0.056640625 0.61328125
vt 0.0640258789 0.631347656
vt 0.0556030273 0.559570312
vt 0.00887298584 0.5390625
vt 0.00503540039 0.558105469
vt 0.00551223755 0.615722656
vt 0.00999450684 0.635253906
vn 0.496863663 0.846881211 -0.189522505
vn 0.496863723 0.846881211 -0.18952252
vn 0.699122429 0.68942678 -0.189521804
vn 0.69912225 0.689426959 -0.189521819
vn 0.853737593 0.484988719 -0.189520478
vn 0.853737593 0.484988809 -0.189520493
vn 0.950171709 0.247499377 -0.189520106
vn 0.950171709 0.247499362 -0.189520106
vn 0.98185271 -0.00685612578 -0.189521238
vn 0.98185271 -0.00685563684 -0.189521253
vn 0.946622312 -0.260744125 -0.189522162
vn 0.946622312 -0.260744423 -0.189522207
vn 0.846881211 -0.496864021 -0.189521685
vn 0.846881211 -0.496863961 -0.189521685
vn 0.689426601 -0.699122965 -0.18952024
vn 0.68942672 -0.699122846 -0.189520255
vn 0.484989017 -0.853737414 -0.189520165
vn 0.48498857 -0.853737772 -0.189520195
vn 0.24749963 -0.950171471 -0.189520583
vn 0.2474996 -0.950171471 -0.189520597
vn -0.00685581984 -0.981852591 -0.189521626
vn -0.00685533555 -0.981852591 -0.189521626
vn -0.260744333 -0.946622193 -0.189522654
vn -0.260744035 -0.946622312 -0.189522654
vn -0.496863604 -0.846881211 -0.189522699
vn -0.496863663 -0.846881211 -0.189522699
vn -0.496863663 -0.846881211 -0.189522699
vn -0.496863604 -0.846881211 -0.189522699
vn -0.69912219 -0.689426839 -0.189522415
vn -0.699122488 -0.689426541 -0.1895224
vn -0.853737593 -0.4849886 -0.189520791
vn -0.853737593 -0.48498866 -0.189520806
vn -0.950171173 -0.247500628 -0.189520925
vn -0.950171173 -0.247500688 -0.189520925
vn -0.981852293 0.00685490062 -0.189523607
vn -0.981852293 0.00685476838 -0.189523637
vn -0.946621656 0.260745138 -0.189524367
vn -0.946621776 0.26074478 -0.189524367
vn -0.846880853 0.496863544 -0.189524189
vn -0.846880853 0.496863544 -0.189524204
vn -0.689427078 0.699121535 -0.189524382
vn -0.689426899 0.699121773 -0.189524382
vn -0.484987348 0.853737772 -0.189523131
vn -0.484987348 0.853737891 -0.18952316
vn -0.247499317 0.95017159 -0.189520538
vn -0.247499347 0.95017159 -0.189520553
vn 0.00685440423 0.981852829 -0.189520404
vn 0.0068545877 0.981852829 -0.189520389
vn 0.260744661 0.946622312 -0.189521983
vn 0.260744244 0.946622312 -0.189521983
vn 0.496863723 0.846881211 -0.18952252
vn 0.496863663 0.846881211 -0.189522505
vn 0.171502858 0.622635007 -0.763486981
vn 0.326809287 0.557031035 -0.763486803
vn 0.383126527 0.653021157 -0.653281987
vn 0.201057196 0.729930341 -0.653282106
vn 0.00528581906 0.757095933 -0.653282285
vn 0.00450839894 0.645807326 -0.76348716
vn 0.243328705 0.883394361 -0.400506347
vn 0.46367684 0.79031539 -0.400506496
vn 0.00639767013 0.916271567 -0.400506496
vn -0.190844059 0.73266691 -0.653282285
vn -0.162790865 0.624969423 -0.763486922
vn 0.263082087 0.955107927 -0.136223212
vn 0.501317739 0.854472816 -0.136223406
vn -0.230968416 0.886706233 -0.400506616
vn -0.373969197 0.658308029 -0.653282166
vn -0.318997562 0.561540961 -0.763486922
vn 0.00691727223 0.990653932 -0.136223242
vn 0.265050173 0.962253571 0.0617787726
vn 0.505068064 0.860865653 0.0617787279
vn -0.452594787 0.796713591 -0.400506467
vn -0.531609833 0.539086044 -0.653281927
vn -0.453466505 0.459843636 -0.763486743
vn -0.249718547 0.958688617 -0.136223346
vn 0.00696893409 0.998065531 0.0617788695
vn 0.234504715 0.851358593 0.46925047
vn 0.446861327 0.761654794 0.469251305
vn -0.643378019 0.652425945 -0.400506169
vn -0.653021455 0.383126438 -0.653281808
vn -0.557031035 0.326809138 -0.763486862
vn -0.251586854 0.965860963 0.0617793165
vn 0.00616572425 0.883043408 0.469250619
vn 0.0960346311 0.348651022 0.932319582
vn 0.182999641 0.311914474 0.93231988
vn -0.790315568 0.463676691 -0.400506169
vn -0.72993058 0.201057658 -0.653281868
vn -0.622635067 0.171503231 -0.763486862
vn -0.222592533 0.854550064 0.469251215
vn 0.00252492307 0.361626238 0.932319701
vn -0.104104437 -0.377948523 0.919955015
vn -0.198377505 -0.338125318 0.919955313
vn -0.243963644 -0.885705888 0.394977033
vn -0.464889765 -0.792383075 0.394976735
vn -0.00641433056 -0.918669164 0.394975871
vn -0.00273712282 -0.392015755 0.919954419
vn 0.231572792 -0.889026701 0.394975364
vn 0.0988172516 -0.37936753 0.919954121
vn 0.453779221 -0.798798263 0.394975483
vn -0.0911564901 0.349957108 0.93231988
vn 0.193637416 -0.340864092 0.919954538
vn 0.645060301 -0.654133856 0.394976109
vn -0.178625867 0.314440578 0.932319701
vn 0.27526018 -0.27913177 0.919955015
vn 0.792383194 -0.464889973 0.394976228
vn -0.436181366 0.767821193 0.469250917
vn -0.253922969 0.25749436 0.932319582
vn 0.338125139 -0.198377773 0.919955194
vn 0.885705948 -0.243963927 0.394976676
vn -0.492997199 0.867834687 0.0617789924
vn -0.620046079 0.628765643 0.469251156
vn -0.311914712 0.182999447 0.93231988
vn 0.377948701 -0.10410475 0.919954896
vn 0.918669045 -0.00641471474 0.39497602
vn -0.489336222 0.861390173 -0.136223421
vn -0.700811148 0.710666776 0.0617786497
vn -0.695606947 0.70538944 -0.136223406
vn -0.761654794 0.446861207 0.469251484
vn -0.348650753 0.0960347354 0.932319701
vn 0.392015815 -0.00273734774 0.919954419
vn 0.889026403 0.231572971 0.394975841
vn -0.860865653 0.505068123 0.0617788918
vn -0.854472876 0.50131768 -0.136223242
vn -0.851358414 0.234504893 0.469250709
vn -0.361625791 0.00252509466 0.93231988
vn 0.379367501 0.0988171995 0.919954121
vn 0.798798263 0.45377937 0.394975454
vn -0.962253451 0.265050262 0.0617788061
vn -0.955107808 0.263082176 -0.136223301
vn -0.883043349 0.00616597477 0.469250888
vn -0.349956632 -0.0911565572 0.932320118
vn 0.340864182 0.193637699 0.919954419
vn 0.654134035 0.645060003 0.394976348
vn -0.998065531 0.00696909707 0.0617787503
vn -0.88339448 0.243329078 -0.400506169
vn -0.854550183 -0.222592607 0.469251007
vn -0.314440191 -0.178625822 0.93231982
vn 0.279131383 0.27526024 0.919955134
vn 0.464889765 0.792383075 0.394976497
vn 0.198377088 0.338124931 0.919955432
vn -0.257494688 -0.253922701 0.932319462
vn -0.183000028 -0.311915159 0.932319582
vn -0.767821014 -0.436181515 0.469251007
vn -0.628765523 -0.620046139 0.469251156
vn -0.446861267 -0.761654913 0.469251394
vn -0.965860963 -0.251586676 0.0617787056
vn -0.867834747 -0.49299714 0.0617789701
vn -0.710666656 -0.700811207 0.0617787279
vn -0.505068243 -0.860865533 0.0617786422
vn -0.990653932 0.00691725267 -0.136223361
vn -0.958688617 -0.249718368 -0.136223406
vn -0.916271746 0.00639771251 -0.400506258
vn -0.861390471 -0.489336073 -0.136223182
vn -0.705389202 -0.695607185 -0.136223361
vn -0.50131762 -0.854472816 -0.13622348
vn -0.757096231 0.00528591219 -0.653282046
vn -0.645807624 0.00450859219 -0.763486862
vn -0.886706233 -0.230968639 -0.400506586
vn -0.732666671 -0.190844923 -0.653282285
vn -0.624969125 -0.162792236 -0.763486922
vn -0.79671371 -0.452594429 -0.400506586
vn -0.652425587 -0.643378019 -0.400506496
vn -0.463676631 -0.790315509 -0.400506377
vn -0.65830785 -0.373969138 -0.653282404
vn -0.561540663 -0.318997949 -0.763486981
vn -0.539085805 -0.531609774 -0.653282225
vn -0.383126229 -0.653021216 -0.653282225
vn -0.459843606 -0.453466117 -0.763486981
vn -0.326808959 -0.557030976 -0.763486922
vn 0.501615107 0.854979932 0.131877959
vn 0.243963987 0.885706067 0.394976407
vn 0.464889765 0.792383075 0.394976497
vn 0.26323846 0.955674529 0.131877646
vn 0.446959227 0.76182133 0.468887746
vn 0.00641530054 0.918669462 0.394974858
vn 0.234554112 0.851546049 0.468885601
vn 0.351539403 0.599182546 0.719305456
vn 0.184477627 0.669751644 0.719305694
vn 0.00692223897 0.991241813 0.131877124
vn -0.231572539 0.88902688 0.394975215
vn 0.00616774103 0.883237839 0.468884647
vn 0.00485143764 0.694678485 0.719303966
vn -0.249866411 0.959257603 0.131876975
vn -0.453779668 0.798798263 0.394975185
vn -0.222641498 0.85473913 0.468883574
vn -0.1751104 0.672263384 0.719304025
vn -0.489626944 0.861901224 0.131877273
vn -0.64506036 0.654133916 0.39497593
vn -0.436277777 0.767990112 0.468884677
vn -0.343138695 0.604034424 0.719303966
vn -0.696019828 0.705807865 0.131877601
vn -0.792383075 0.464889944 0.394976258
vn -0.620180905 0.628905416 0.468885511
vn -0.487778246 0.494642794 0.719305754
vn -0.854979813 0.501615167 0.13187772
vn -0.885706067 0.243964002 0.394976407
vn -0.761821389 0.446959138 0.468887746
vn -0.599182725 0.351539254 0.719305336
vn -0.955674529 0.26323837 0.131877735
vn -0.918669283 0.00641499367 0.394975424
vn -0.851546049 0.234554395 0.468885601
vn -0.669751763 0.184478223 0.719305456
vn -0.991241813 0.00692220777 0.131877378
vn -0.889026642 -0.231572688 0.394975662
vn -0.883237958 0.00616807863 0.468884557
vn -0.694678724 0.00485179946 0.719303727
vn -0.959257603 -0.249866441 0.131877273
vn -0.798798144 -0.453779161 0.394975901
vn -0.85473901 -0.2226419 0.468883544
vn -0.672263622 -0.17511113 0.719303608
vn -0.861901224 -0.489626914 0.131877497
vn -0.654133677 -0.645060003 0.394976676
vn -0.767990351 -0.436278194 0.468884081
vn -0.604034722 -0.34313941 0.719303429
vn -0.705807984 -0.696019709 0.13187781
vn -0.464889765 -0.792383075 0.394976735
vn -0.501615167 -0.854979813 0.131877825
vn -0.628905654 -0.620180607 0.468885809
vn -0.494643271 -0.487778336 0.719305396
vn -0.446959287 -0.761821508 0.468887269
vn -0.351539552 -0.599182844 0.719305098
vn -0.501615167 -0.854979813 0.131877825
vn -0.243963644 -0.885705888 0.394977033
vn -0.464889765 -0.792383075 0.394976735
vn -0.263238102 -0.955674648 0.131877825
vn -0.446959287 -0.761821508 0.468887269
vn -0.00641433056 -0.918669164 0.394975871
vn -0.234553725 -0.851546109 0.46888575
vn -0.351539552 -0.599182844 0.719305098
vn -0.184477508 -0.669752002 0.719305456
vn -0.00692154281 -0.991241813 0.131877467
vn 0.231572792 -0.889026701 0.394975364
vn -0.00616722088 -0.883238196 0.468883991
vn -0.00485129794 -0.694679081 0.719303429
vn 0.249866635 -0.959257603 0.131877005
vn 0.453779221 -0.798798263 0.394975483
vn 0.222641543 -0.854739189 0.468883395
vn 0.175110236 -0.67226392 0.719303548
vn 0.489627004 -0.861901224 0.131877348
vn 0.645060301 -0.654133856 0.394976109
vn 0.436278135 -0.767990053 0.468884498
vn 0.343139231 -0.604034245 0.719303906
vn 0.69601965 -0.705808043 0.131877616
vn 0.792383194 -0.464889973 0.394976228
vn 0.620180726 -0.628905416 0.468885809
vn 0.487778336 -0.494642884 0.719305694
vn 0.854979813 -0.501615167 0.131877571
vn 0.885705948 -0.243963927 0.394976676
vn 0.761821508 -0.446959376 0.468887269
vn 0.599182487 -0.351539642 0.719305396
vn 0.955674648 -0.263238132 0.131877497
vn 0.918669045 -0.00641471474 0.39497602
vn 0.85154593 -0.234554112 0.46888569
vn 0.669751465 -0.184477985 0.719305754
vn 0.991241813 -0.00692187436 0.131877184
vn 0.889026403 0.231572971 0.394975841
vn 0.883237958 -0.00616743043 0.468884557
vn 0.694678426 -0.0048510395 0.719303966
vn 0.959257483 0.249866888 0.131877229
vn 0.798798263 0.45377937 0.394975454
vn 0.854738832 0.222642481 0.468883604
vn 0.672263443 0.175111547 0.719303668
vn 0.861901224 0.489627004 0.131877467
vn 0.654134035 0.645060003 0.394976348
vn 0.767990291 0.436278135 0.46888411
vn 0.604034841 0.343139291 0.71930337
vn 0.705807865 0.696019828 0.13187781
vn 0.464889765 0.792383075 0.394976497
vn 0.501615107 0.854979932 0.131877959
vn 0.628905833 0.620180428 0.468885601
vn 0.494643629 0.487777859 0.719305456
vn 0.446959227 0.76182133 0.468887746
vn 0.351539403 0.599182546 0.719305456
vn -0 0 1
vn -0 0 1
vn -0 0 1
vn -0 0 1
vn -0 0 1
vn -0 0 1
vn -0 0 1
vn -0 0 1
vn -0 0 1
vn -0 0 1
vn -0 0 1
vn -0 0 1
vn -0 0 1
vn -0 0 1
vn -0 0 1
vn -0 0 1
vn -0 0 1
vn -0 0 1
vn -0 0 1
vn -0 0 1
vn -0 0 1
vn -0 0 1
vn -0 0 1
vn -0 0 1
vn -0 0 -1
vn -0 0 -1
vn -0 0 -1
vn -0 0 -1
vn -0 0 -1
vn -0 0 -1
vn -0 0 -1
vn -0 0 -1
vn -0 0 -1
vn -0 0 -1
vn -0 0 -1
vn -0 0 -1
vn -0 0 -1
vn -0 0 -1
vn -0 0 -1
vn -0 0 -1
vn -0 0 -1
vn -0 0 -1
vn -0 0 -1
vn -0 0 -1
vn -0 0 -1
vn -0 0 -1
vn -0 0 -1
vn -0 0 -1
vn 0.198377088 0.338124931 0.919955432
vn 0.464889765 0.792383075 0.394976497
vn 0.243963987 0.885706067 0.394976407
vn 0.104104444 0.377948433 0.919955015
vn -0.183000028 -0.311915159 0.932319582
vn 0.00641530054 0.918669462 0.394974858
vn -0.0960344821 -0.348651052 0.932319582
vn -0.446861267 -0.761654913 0.469251394
vn 0.00273784343 0.392016262 0.91995424
vn -0.231572539 0.88902688 0.394975215
vn -0.234504506 -0.851358294 0.469251096
vn -0.505068243 -0.860865533 0.0617786422
vn -0.00252469559 -0.361626208 0.93231982
vn -0.0988172963 0.379367292 0.919954121
vn -0.453779668 0.798798263 0.394975185
vn -0.265050292 -0.962253451 0.0617787205
vn -0.50131762 -0.854472816 -0.13622348
vn -0.00616572285 -0.88304317 0.469251335
vn 0.0911563039 -0.3499569 0.932319999
vn -0.193637997 0.340864122 0.9199543
vn -0.64506036 0.654133916 0.39497593
vn -0.263082176 -0.955107808 -0.13622348
vn -0.463676631 -0.790315509 -0.400506377
vn -0.00696904166 -0.998065531 0.061778862
vn 0.222592443 -0.854550064 0.469251305
vn 0.178626105 -0.314440429 0.932319701
vn -0.275260359 0.27913183 0.919955015
vn -0.792383075 0.464889944 0.394976258
vn -0.243328944 -0.883394361 -0.400506347
vn -0.383126229 -0.653021216 -0.653282225
vn -0.00691725872 -0.990653932 -0.136223525
vn 0.251586497 -0.965860963 0.0617789589
vn 0.436181545 -0.767821133 0.469250888
vn 0.253923178 -0.257494599 0.932319403
vn -0.33812508 0.198377684 0.919955313
vn -0.885706067 0.243964002 0.394976407
vn -0.201057479 -0.729930282 -0.653282166
vn -0.326808959 -0.557030976 -0.763486922
vn -0.171503037 -0.622634947 -0.763486981
vn -0.00639777118 -0.916271567 -0.400506496
vn -0.00528609985 -0.757095933 -0.653282285
vn -0.00450887065 -0.645807445 -0.763487041
vn -0.377948672 0.10410478 0.919954896
vn -0.918669283 0.00641499367 0.394975424
vn 0.311914593 -0.182999551 0.93231988
vn 0.249718145 -0.958688617 -0.13622351
vn 0.230968297 -0.886706293 -0.400506586
vn 0.190844372 -0.73266685 -0.653282344
vn 0.162791401 -0.624969304 -0.763486922
vn -0.392016351 0.00273756147 0.91995424
vn -0.889026642 -0.231572688 0.394975662
vn 0.49299705 -0.867834866 0.0617788471
vn 0.489336014 -0.861390352 -0.13622354
vn 0.452594608 -0.796713591 -0.400506675
vn 0.373969346 -0.658307672 -0.653282344
vn 0.318998039 -0.561540365 -0.76348716
vn 0.62004596 -0.628765762 0.469251037
vn 0.700811028 -0.710666895 0.061778713
vn 0.695606887 -0.70538944 -0.136223495
vn 0.643377841 -0.652425885 -0.400506496
vn 0.531609416 -0.539085746 -0.653282464
vn 0.453466028 -0.459843397 -0.76348716
vn 0.761654675 -0.446861356 0.469251543
vn 0.860865533 -0.505068183 0.0617787167
vn 0.854472876 -0.50131762 -0.136223346
vn 0.790315509 -0.463676512 -0.400506407
vn 0.653021157 -0.383126318 -0.653282166
vn 0.557030797 -0.326809257 -0.763486981
vn 0.348650694 -0.0960345268 0.932319701
vn 0.851358414 -0.23450461 0.469250858
vn 0.962253571 -0.265050203 0.0617786124
vn 0.955107808 -0.263082147 -0.136223584
vn 0.883394361 -0.243328914 -0.400506496
vn 0.729930341 -0.201057419 -0.653282166
vn 0.622635007 -0.171503112 -0.763486981
vn 0.361625731 -0.0025251708 0.93231988
vn 0.883043349 -0.00616617221 0.469251037
vn 0.998065531 -0.00696945144 0.0617787428
vn 0.990653932 -0.00691770855 -0.136223584
vn 0.916271567 -0.00639841659 -0.400506616
vn 0.757095993 -0.00528678764 -0.653282225
vn 0.645807326 -0.00450945133 -0.76348716
vn -0.379367679 -0.0988171399 0.919954002
vn -0.798798144 -0.453779161 0.394975901
vn 0.349956602 0.0911562815 0.932320118
vn -0.34086436 -0.193637431 0.9199543
vn -0.654133677 -0.645060003 0.394976676
vn 0.73266685 0.190844327 -0.653282344
vn 0.624969065 0.162791416 -0.76348722
vn 0.886706412 0.230968237 -0.400506556
vn 0.854550362 0.22259222 0.469250947
vn 0.314440042 0.178626135 0.93231982
vn -0.27913186 -0.275260657 0.919954896
vn -0.464889765 -0.792383075 0.394976735
vn -0.198377505 -0.338125318 0.919955313
vn 0.25749433 0.253922731 0.932319701
vn 0.182999641 0.311914474 0.93231988
vn 0.965861082 0.251586497 0.0617787652
vn 0.767821193 0.436181664 0.46925047
vn 0.628765881 0.620046318 0.4692505
vn 0.446861327 0.761654794 0.469251305
vn 0.958688736 0.249718174 -0.136223361
vn 0.867834687 0.492997259 0.0617787577
vn 0.710666656 0.700811207 0.061778672
vn 0.505068064 0.860865653 0.0617787279
vn 0.861390173 0.489336342 -0.136223212
vn 0.705389261 0.695607066 -0.136223406
vn 0.501317739 0.854472816 -0.136223406
vn 0.796713471 0.452594846 -0.400506705
vn 0.652425587 0.643378019 -0.400506645
vn 0.46367684 0.79031539 -0.400506496
vn 0.658307612 0.373969585 -0.653282285
vn 0.561540425 0.318998307 -0.763487041
vn 0.539085805 0.531609774 -0.653282225
vn 0.383126527 0.653021157 -0.653281987
vn 0.459843576 0.453466356 -0.763486862
vn 0.326809287 0.557031035 -0.763486803
vn 0.818096042 -0.434345812 -0.376911759
vn 0.791466892 -0.464134663 -0.397692144
vn 0.823468506 -0.466739893 0.322573215
vn 0.849862099 -0.365540981 0.379623741
vn 0.851068377 -0.358738512 -0.383391768
vn 0.909836829 -0.197782815 -0.364800036
vn 0.940134346 -0.194361031 0.279948503
vn 0.97710222 -0.135067672 -0.164401755
vn 0.995612264 -0.0201611724 0.0913759917
vn -0.493444592 -0.841053665 0.221678004
vn -0.493444592 -0.841053665 0.221678004
vn -0.493444592 -0.841053665 0.221678004
vn -0.493444592 -0.841053665 0.221678004
vn -0.493444592 -0.841053665 0.221678004
vn -0.493444592 -0.841053665 0.221678004
vn -0.493444592 -0.841053665 0.221678004
vn -0.493444592 -0.841053665 0.221678004
vn -0.809285879 0.490512908 0.323192567
vn -0.791682541 0.464160264 -0.397232831
vn -0.778712094 0.50192219 -0.376406252
vn -0.73382014 0.563054144 0.380102664
vn -0.728773475 0.564474702 -0.387630641
vn -0.62187314 0.690837622 -0.368805081
vn -0.628543794 0.725434363 0.280495554
vn -0.592413962 0.788257778 -0.166418806
vn -0.503623247 0.859020472 0.0919095352
vn -0.73382014 0.563054144 0.380102664
vn -0.345289201 0.24635306 0.905585706
vn -0.809285879 0.490512908 0.323192567
vn -0.202512324 0.431041926 0.879313171
vn -0.628543794 0.725434363 0.280495554
vn 0.383499175 -0.181225136 0.905585885
vn -0.010668138 0.739958882 0.672567546
vn -0.503623247 0.859020472 0.0919095352
vn 0.475063533 0.0335095897 0.879313231
vn 0.823468506 -0.466739893 0.322573215
vn 0.849862099 -0.365540981 0.379623741
vn 0.651131809 0.351681948 0.672567666
vn 0.940134346 -0.194361031 0.279948503
vn 0.726283073 0.568078458 0.387039661
vn 0.995612264 -0.0201611724 0.0913759917
vn 0.141565651 0.911130905 0.387039542
vn 0.773897529 0.632257998 -0.0365019217
vn 0.174360201 0.984005094 -0.0365020819
vn -0.592413962 0.788257778 -0.166418806
vn 0.107600793 0.920266151 -0.37620768
vn -0.62187314 0.690837622 -0.368805081
vn 0.750519276 0.543481231 -0.375963986
vn 0.97710222 -0.135067672 -0.164401755
vn 0.637428701 0.396676272 -0.660554767
vn 0.909836829 -0.197782815 -0.364800036
vn 0.0368860364 0.751077294 -0.659183145
vn 0.513159454 0.178303778 -0.839568377
vn -0.089827247 0.53116107 -0.84249568
vn -0.728773475 0.564474702 -0.387630641
vn 0.447286129 0.00852462463 -0.89435029
vn 0.851068377 -0.358738512 -0.383391768
vn -0.210310236 0.392258048 -0.895490527
vn -0.778712094 0.50192219 -0.376406252
vn 0.379971623 -0.141015813 -0.91418606
vn 0.818096042 -0.434345812 -0.376911759
vn -0.308467865 0.262890428 -0.91418606
vn -0.791682541 0.464160264 -0.397232831
vn -0.335794836 0.195839584 -0.921351492
vn 0.334772944 -0.197581455 -0.921351492
vn 0.791466892 -0.464134663 -0.397692144
g S_Cup_0
f 3/3/3 2/2/2 1/1/1
f 4/4/4 3/3/3 1/1/1
f 5/5/5 3/3/3 4/4/4
f 6/6/6 5/5/5 4/4/4
f 7/7/7 5/5/5 6/6/6
f 8/8/8 7/7/7 6/6/6
f 9/9/9 7/7/7 8/8/8
f 10/10/10 9/9/9 8/8/8
f 11/11/11 9/9/9 10/10/10
f 12/12/12 11/11/11 10/10/10
f 13/13/13 11/11/11 12/12/12
f 14/14/14 13/13/13 12/12/12
f 15/15/15 13/13/13 14/14/14
f 16/16/16 15/15/15 14/14/14
f 17/17/17 15/15/15 16/16/16
f 18/18/18 17/17/17 16/16/16
f 19/19/19 17/17/17 18/18/18
f 20/20/20 19/19/19 18/18/18
f 21/21/21 19/19/19 20/20/20
f 22/22/22 21/21/21 20/20/20
f 23/23/23 21/21/21 22/22/22
f 24/24/24 23/23/23 22/22/22
f 25/25/25 23/23/23 24/24/24
f 26/26/26 25/25/25 24/24/24
f 29/29/29 28/28/28 27/27/27
f 30/30/30 29/29/29 27/27/27
f 31/31/31 29/29/29 30/30/30
f 32/32/32 31/31/31 30/30/30
f 33/33/33 31/31/31 32/32/32
f 34/34/34 33/33/33 32/32/32
f 35/35/35 33/33/33 34/34/34
f 36/36/36 35/35/35 34/34/34
f 37/37/37 35/35/35 36/36/36
f 38/38/38 37/37/37 36/36/36
f 39/39/39 37/37/37 38/38/38
f 40/40/40 39/39/39 38/38/38
f 41/41/41 39/39/39 40/40/40
f 42/42/42 41/41/41 40/40/40
f 43/43/43 41/41/41 42/42/42
f 44/44/44 43/43/43 42/42/42
f 45/45/45 43/43/43 44/44/44
f 46/46/46 45/45/45 44/44/44
f 47/47/47 45/45/45 46/46/46
f 48/48/48 47/47/47 46/46/46
f 49/49/49 47/47/47 48/48/48
f 50/50/50 49/49/49 48/48/48
f 51/51/51 49/49/49 50/50/50
f 52/52/52 51/51/51 50/50/50
f 55/55/55 54/54/54 53/53/53
f 56/56/56 55/55/55 53/53/53
f 57/57/57 56/56/56 53/53/53
f 58/58/58 57/57/57 53/53/53
f 56/56/56 59/59/59 55/55/55
f 59/59/59 60/60/60 55/55/55
f 57/57/57 61/61/61 56/56/56
f 61/61/61 59/59/59 56/56/56
f 62/62/62 57/57/57 58/58/58
f 63/63/63 62/62/62 58/58/58
f 59/59/59 64/64/64 60/60/60
f 64/64/64 65/65/65 60/60/60
f 66/66/66 61/61/61 57/57/57
f 62/62/62 66/66/66 57/57/57
f 67/67/67 62/62/62 63/63/63
f 68/68/68 67/67/67 63/63/63
f 61/61/61 69/69/69 59/59/59
f 69/69/69 64/64/64 59/59/59
f 64/64/64 70/70/70 65/65/65
f 70/70/70 71/71/71 65/65/65
f 72/72/72 66/66/66 62/62/62
f 67/67/67 72/72/72 62/62/62
f 73/73/73 67/67/67 68/68/68
f 74/74/74 73/73/73 68/68/68
f 66/66/66 75/75/75 61/61/61
f 75/75/75 69/69/69 61/61/61
f 69/69/69 76/76/76 64/64/64
f 76/76/76 70/70/70 64/64/64
f 70/70/70 77/77/77 71/71/71
f 77/77/77 78/78/78 71/71/71
f 79/79/79 72/72/72 67/67/67
f 73/73/73 79/79/79 67/67/67
f 80/80/80 73/73/73 74/74/74
f 81/81/81 80/80/80 74/74/74
f 75/75/75 82/82/82 69/69/69
f 82/82/82 76/76/76 69/69/69
f 76/76/76 83/83/83 70/70/70
f 83/83/83 77/77/77 70/70/70
f 77/77/77 84/84/84 78/78/78
f 84/84/84 85/85/85 78/78/78
f 86/86/86 79/79/79 73/73/73
f 80/80/80 86/86/86 73/73/73
f 87/87/87 80/80/80 81/81/81
f 88/88/88 87/87/87 81/81/81
f 82/82/82 89/89/89 76/76/76
f 89/89/89 83/83/83 76/76/76
f 83/83/83 90/90/90 77/77/77
f 90/90/90 84/84/84 77/77/77
f 84/84/84 91/91/91 85/85/85
f 91/91/91 92/92/92 85/85/85
f 91/91/91 93/93/93 92/92/92
f 93/93/93 94/94/94 92/92/92
f 95/95/95 93/93/93 91/91/91
f 96/96/96 91/91/91 84/84/84
f 96/96/96 95/95/95 91/91/91
f 90/90/90 96/96/96 84/84/84
f 97/97/97 95/95/95 96/96/96
f 98/98/98 97/97/97 96/96/96
f 98/98/98 96/96/96 90/90/90
f 99/99/99 97/97/97 98/98/98
f 100/100/100 90/90/90 83/83/83
f 100/100/100 98/98/98 90/90/90
f 89/89/89 100/100/100 83/83/83
f 101/101/101 99/99/99 98/98/98
f 101/101/101 98/98/98 100/100/100
f 102/102/102 99/99/99 101/101/101
f 103/103/103 100/100/100 89/89/89
f 103/103/103 101/101/101 100/100/100
f 104/104/104 102/102/102 101/101/101
f 104/104/104 101/101/101 103/103/103
f 105/105/105 102/102/102 104/104/104
f 106/106/106 103/103/103 89/89/89
f 106/106/106 89/89/89 82/82/82
f 107/107/107 104/104/104 103/103/103
f 107/107/107 103/103/103 106/106/106
f 108/108/108 105/105/105 104/104/104
f 108/108/108 104/104/104 107/107/107
f 109/109/109 105/105/105 108/108/108
f 110/110/110 106/106/106 82/82/82
f 110/110/110 82/82/82 75/75/75
f 111/111/111 107/107/107 106/106/106
f 111/111/111 106/106/106 110/110/110
f 112/112/112 108/108/108 107/107/107
f 112/112/112 107/107/107 111/111/111
f 113/113/113 109/109/109 108/108/108
f 113/113/113 108/108/108 112/112/112
f 114/114/114 109/109/109 113/113/113
f 115/115/115 110/110/110 75/75/75
f 115/115/115 75/75/75 66/66/66
f 72/72/72 115/115/115 66/66/66
f 116/116/116 111/111/111 110/110/110
f 116/116/116 110/110/110 115/115/115
f 117/117/117 115/115/115 72/72/72
f 117/117/117 116/116/116 115/115/115
f 79/79/79 117/117/117 72/72/72
f 118/118/118 112/112/112 111/111/111
f 118/118/118 111/111/111 116/116/116
f 119/119/119 113/113/113 112/112/112
f 119/119/119 112/112/112 118/118/118
f 120/120/120 114/114/114 113/113/113
f 120/120/120 113/113/113 119/119/119
f 121/121/121 114/114/114 120/120/120
f 122/122/122 116/116/116 117/117/117
f 122/122/122 118/118/118 116/116/116
f 123/123/123 117/117/117 79/79/79
f 123/123/123 122/122/122 117/117/117
f 86/86/86 123/123/123 79/79/79
f 124/124/124 119/119/119 118/118/118
f 124/124/124 118/118/118 122/122/122
f 125/125/125 120/120/120 119/119/119
f 125/125/125 119/119/119 124/124/124
f 126/126/126 121/121/121 120/120/120
f 126/126/126 120/120/120 125/125/125
f 127/127/127 121/121/121 126/126/126
f 128/128/128 122/122/122 123/123/123
f 128/128/128 124/124/124 122/122/122
f 129/129/129 123/123/123 86/86/86
f 129/129/129 128/128/128 123/123/123
f 130/130/130 125/125/125 124/124/124
f 130/130/130 124/124/124 128/128/128
f 131/131/131 126/126/126 125/125/125
f 131/131/131 125/125/125 130/130/130
f 132/132/132 127/127/127 126/126/126
f 132/132/132 126/126/126 131/131/131
f 133/133/133 127/127/127 132/132/132
f 134/134/134 130/130/130 128/128/128
f 134/134/134 128/128/128 129/129/129
f 135/135/135 129/129/129 86/86/86
f 135/135/135 86/86/86 80/80/80
f 87/87/87 135/135/135 80/80/80
f 136/136/136 131/131/131 130/130/130
f 136/136/136 130/130/130 134/134/134
f 137/137/137 132/132/132 131/131/131
f 137/137/137 131/131/131 136/136/136
f 138/138/138 133/133/133 132/132/132
f 138/138/138 132/132/132 137/137/137
f 139/139/139 133/133/133 138/138/138
f 140/140/140 139/139/139 138/138/138
f 140/140/140 138/138/138 141/141/141
f 141/141/141 138/138/138 137/137/137
f 142/142/142 140/140/140 141/141/141
f 143/143/143 137/137/137 136/136/136
f 141/141/141 137/137/137 143/143/143
f 142/142/142 141/141/141 144/144/144
f 144/144/144 141/141/141 143/143/143
f 145/145/145 142/142/142 144/144/144
f 146/146/146 136/136/136 134/134/134
f 143/143/143 136/136/136 146/146/146
f 144/144/144 143/143/143 147/147/147
f 147/147/147 143/143/143 146/146/146
f 145/145/145 144/144/144 148/148/148
f 148/148/148 144/144/144 147/147/147
f 149/149/149 145/145/145 148/148/148
f 146/146/146 134/134/134 150/150/150
f 150/150/150 134/134/134 129/129/129
f 150/150/150 129/129/129 135/135/135
f 147/147/147 146/146/146 151/151/151
f 151/151/151 146/146/146 150/150/150
f 152/152/152 150/150/150 135/135/135
f 151/151/151 150/150/150 152/152/152
f 152/152/152 135/135/135 87/87/87
f 148/148/148 147/147/147 153/153/153
f 153/153/153 147/147/147 151/151/151
f 149/149/149 148/148/148 154/154/154
f 154/154/154 148/148/148 153/153/153
f 155/155/155 149/149/149 154/154/154
f 156/156/156 152/152/152 87/87/87
f 156/156/156 87/87/87 88/88/88
f 157/157/157 156/156/156 88/88/88
f 158/158/158 151/151/151 152/152/152
f 153/153/153 151/151/151 158/158/158
f 158/158/158 152/152/152 156/156/156
f 159/159/159 156/156/156 157/157/157
f 159/159/159 158/158/158 156/156/156
f 160/160/160 159/159/159 157/157/157
f 161/161/161 153/153/153 158/158/158
f 154/154/154 153/153/153 161/161/161
f 161/161/161 158/158/158 159/159/159
f 155/155/155 154/154/154 162/162/162
f 162/162/162 154/154/154 161/161/161
f 163/163/163 155/155/155 162/162/162
f 164/164/164 159/159/159 160/160/160
f 164/164/164 161/161/161 159/159/159
f 162/162/162 161/161/161 164/164/164
f 165/165/165 164/164/164 160/160/160
f 163/163/163 162/162/162 166/166/166
f 166/166/166 162/162/162 164/164/164
f 166/166/166 164/164/164 165/165/165
f 167/167/167 163/163/163 166/166/166
f 168/168/168 166/166/166 165/165/165
f 167/167/167 166/166/166 168/168/168
f 169/169/169 167/167/167 168/168/168
f 172/172/172 171/171/171 170/170/170
f 171/171/171 173/173/173 170/170/170
f 170/170/170 173/173/173 174/174/174
f 171/171/171 175/175/175 173/173/173
f 173/173/173 176/176/176 174/174/174
f 177/177/177 174/174/174 176/176/176
f 178/178/178 177/177/177 176/176/176
f 175/175/175 179/179/179 173/173/173
f 173/173/173 179/179/179 176/176/176
f 175/175/175 180/180/180 179/179/179
f 178/178/178 176/176/176 181/181/181
f 179/179/179 181/181/181 176/176/176
f 182/182/182 178/178/178 181/181/181
f 180/180/180 183/183/183 179/179/179
f 179/179/179 183/183/183 181/181/181
f 180/180/180 184/184/184 183/183/183
f 182/182/182 181/181/181 185/185/185
f 183/183/183 185/185/185 181/181/181
f 186/186/186 182/182/182 185/185/185
f 184/184/184 187/187/187 183/183/183
f 183/183/183 187/187/187 185/185/185
f 184/184/184 188/188/188 187/187/187
f 186/186/186 185/185/185 189/189/189
f 187/187/187 189/189/189 185/185/185
f 190/190/190 186/186/186 189/189/189
f 188/188/188 191/191/191 187/187/187
f 187/187/187 191/191/191 189/189/189
f 188/188/188 192/192/192 191/191/191
f 190/190/190 189/189/189 193/193/193
f 191/191/191 193/193/193 189/189/189
f 194/194/194 190/190/190 193/193/193
f 192/192/192 195/195/195 191/191/191
f 191/191/191 195/195/195 193/193/193
f 192/192/192 196/196/196 195/195/195
f 194/194/194 193/193/193 197/197/197
f 195/195/195 197/197/197 193/193/193
f 198/198/198 194/194/194 197/197/197
f 196/196/196 199/199/199 195/195/195
f 195/195/195 199/199/199 197/197/197
f 196/196/196 200/200/200 199/199/199
f 198/198/198 197/197/197 201/201/201
f 199/199/199 201/201/201 197/197/197
f 202/202/202 198/198/198 201/201/201
f 200/200/200 203/203/203 199/199/199
f 199/199/199 203/203/203 201/201/201
f 200/200/200 204/204/204 203/203/203
f 202/202/202 201/201/201 205/205/205
f 203/203/203 205/205/205 201/201/201
f 206/206/206 202/202/202 205/205/205
f 204/204/204 207/207/207 203/203/203
f 203/203/203 207/207/207 205/205/205
f 204/204/204 208/208/208 207/207/207
f 206/206/206 205/205/205 209/209/209
f 207/207/207 209/209/209 205/205/205
f 210/210/210 206/206/206 209/209/209
f 208/208/208 211/211/211 207/207/207
f 207/207/207 211/211/211 209/209/209
f 208/208/208 212/212/212 211/211/211
f 210/210/210 209/209/209 213/213/213
f 211/211/211 213/213/213 209/209/209
f 214/214/214 210/210/210 213/213/213
f 212/212/212 215/215/215 211/211/211
f 211/211/211 215/215/215 213/213/213
f 212/212/212 216/216/216 215/215/215
f 216/216/216 217/217/217 215/215/215
f 214/214/214 213/213/213 218/218/218
f 215/215/215 218/218/218 213/213/213
f 215/215/215 217/217/217 218/218/218
f 219/219/219 214/214/214 218/218/218
f 217/217/217 220/220/220 218/218/218
f 219/219/219 218/218/218 220/220/220
f 221/221/221 219/219/219 220/220/220
f 224/224/224 223/223/223 222/222/222
f 223/223/223 225/225/225 222/222/222
f 222/222/222 225/225/225 226/226/226
f 223/223/223 227/227/227 225/225/225
f 225/225/225 228/228/228 226/226/226
f 229/229/229 226/226/226 228/228/228
f 230/230/230 229/229/229 228/228/228
f 227/227/227 231/231/231 225/225/225
f 225/225/225 231/231/231 228/228/228
f 227/227/227 232/232/232 231/231/231
f 230/230/230 228/228/228 233/233/233
f 231/231/231 233/233/233 228/228/228
f 234/234/234 230/230/230 233/233/233
f 232/232/232 235/235/235 231/231/231
f 231/231/231 235/235/235 233/233/233
f 232/232/232 236/236/236 235/235/235
f 234/234/234 233/233/233 237/237/237
f 235/235/235 237/237/237 233/233/233
f 238/238/238 234/234/234 237/237/237
f 236/236/236 239/239/239 235/235/235
f 235/235/235 239/239/239 237/237/237
f 236/236/236 240/240/240 239/239/239
f 238/238/238 237/237/237 241/241/241
f 239/239/239 241/241/241 237/237/237
f 242/242/242 238/238/238 241/241/241
f 240/240/240 243/243/243 239/239/239
f 239/239/239 243/243/243 241/241/241
f 240/240/240 244/244/244 243/243/243
f 242/242/242 241/241/241 245/245/245
f 243/243/243 245/245/245 241/241/241
f 246/246/246 242/242/242 245/245/245
f 244/244/244 247/247/247 243/243/243
f 243/243/243 247/247/247 245/245/245
f 244/244/244 248/248/248 247/247/247
f 246/246/246 245/245/245 249/249/249
f 247/247/247 249/249/249 245/245/245
f 250/250/250 246/246/246 249/249/249
f 248/248/248 251/251/251 247/247/247
f 247/247/247 251/251/251 249/249/249
f 248/248/248 252/252/252 251/251/251
f 250/250/250 249/249/249 253/253/253
f 251/251/251 253/253/253 249/249/249
f 254/254/254 250/250/250 253/253/253
f 252/252/252 255/255/255 251/251/251
f 251/251/251 255/255/255 253/253/253
f 252/252/252 256/256/256 255/255/255
f 254/254/254 253/253/253 257/257/257
f 255/255/255 257/257/257 253/253/253
f 258/258/258 254/254/254 257/257/257
f 256/256/256 259/259/259 255/255/255
f 255/255/255 259/259/259 257/257/257
f 256/256/256 260/260/260 259/259/259
f 258/258/258 257/257/257 261/261/261
f 259/259/259 261/261/261 257/257/257
f 262/262/262 258/258/258 261/261/261
f 260/260/260 263/263/263 259/259/259
f 259/259/259 263/263/263 261/261/261
f 260/260/260 264/264/264 263/263/263
f 262/262/262 261/261/261 265/265/265
f 263/263/263 265/265/265 261/261/261
f 266/266/266 262/262/262 265/265/265
f 264/264/264 267/267/267 263/263/263
f 263/263/263 267/267/267 265/265/265
f 264/264/264 268/268/268 267/267/267
f 268/268/268 269/269/269 267/267/267
f 266/266/266 265/265/265 270/270/270
f 267/267/267 270/270/270 265/265/265
f 267/267/267 269/269/269 270/270/270
f 271/271/271 266/266/266 270/270/270
f 269/269/269 272/272/272 270/270/270
f 271/271/271 270/270/270 272/272/272
f 273/273/273 271/271/271 272/272/272
f 276/276/276 275/275/275 274/274/274
f 274/274/274 277/277/277 276/276/276
f 277/277/277 278/278/278 276/276/276
f 277/277/277 279/279/279 278/278/278
f 279/279/279 280/280/280 278/278/278
f 279/279/279 281/281/281 280/280/280
f 281/281/281 282/282/282 280/280/280
f 281/281/281 283/283/283 282/282/282
f 283/283/283 284/284/284 282/282/282
f 283/283/283 285/285/285 284/284/284
f 285/285/285 286/286/286 284/284/284
f 285/285/285 287/287/287 286/286/286
f 287/287/287 288/288/288 286/286/286
f 287/287/287 289/289/289 288/288/288
f 289/289/289 290/290/290 288/288/288
f 289/289/289 291/291/291 290/290/290
f 291/291/291 292/292/292 290/290/290
f 291/291/291 293/293/293 292/292/292
f 293/293/293 294/294/294 292/292/292
f 293/293/293 295/295/295 294/294/294
f 295/295/295 296/296/296 294/294/294
f 295/295/295 297/297/297 296/296/296
f 300/300/300 299/299/299 298/298/298
f 298/298/298 301/301/301 300/300/300
f 298/298/298 302/302/302 301/301/301
f 302/302/302 303/303/303 301/301/301
f 302/302/302 304/304/304 303/303/303
f 304/304/304 305/305/305 303/303/303
f 304/304/304 306/306/306 305/305/305
f 306/306/306 307/307/307 305/305/305
f 306/306/306 308/308/308 307/307/307
f 308/308/308 309/309/309 307/307/307
f 308/308/308 310/310/310 309/309/309
f 310/310/310 311/311/311 309/309/309
f 310/310/310 312/312/312 311/311/311
f 312/312/312 313/313/313 311/311/311
f 312/312/312 314/314/314 313/313/313
f 314/314/314 315/315/315 313/313/313
f 314/314/314 316/316/316 315/315/315
f 316/316/316 317/317/317 315/315/315
f 316/316/316 318/318/318 317/317/317
f 318/318/318 319/319/319 317/317/317
f 318/318/318 320/320/320 319/319/319
f 320/320/320 321/321/321 319/319/319
f 324/324/324 323/323/323 322/322/322
f 325/325/325 324/324/324 322/322/322
f 325/325/325 322/322/322 326/326/326
f 327/327/327 324/324/324 325/325/325
f 328/328/328 325/325/325 326/326/326
f 328/328/328 326/326/326 329/329/329
f 330/330/330 327/327/327 325/325/325
f 330/330/330 325/325/325 328/328/328
f 331/331/331 327/327/327 330/330/330
f 332/332/332 328/328/328 329/329/329
f 332/332/332 329/329/329 333/333/333
f 334/334/334 330/330/330 328/328/328
f 334/334/334 328/328/328 332/332/332
f 335/335/335 331/331/331 330/330/330
f 335/335/335 330/330/330 334/334/334
f 336/336/336 331/331/331 335/335/335
f 337/337/337 332/332/332 333/333/333
f 337/337/337 333/333/333 338/338/338
f 339/339/339 334/334/334 332/332/332
f 339/339/339 332/332/332 337/337/337
f 340/340/340 335/335/335 334/334/334
f 340/340/340 334/334/334 339/339/339
f 341/341/341 336/336/336 335/335/335
f 341/341/341 335/335/335 340/340/340
f 342/342/342 336/336/336 341/341/341
f 343/343/343 337/337/337 338/338/338
f 343/343/343 338/338/338 344/344/344
f 345/345/345 339/339/339 337/337/337
f 345/345/345 337/337/337 343/343/343
f 346/346/346 340/340/340 339/339/339
f 346/346/346 339/339/339 345/345/345
f 347/347/347 341/341/341 340/340/340
f 347/347/347 340/340/340 346/346/346
f 348/348/348 342/342/342 341/341/341
f 348/348/348 341/341/341 347/347/347
f 349/349/349 342/342/342 348/348/348
f 350/350/350 343/343/343 344/344/344
f 350/350/350 344/344/344 351/351/351
f 352/352/352 345/345/345 343/343/343
f 352/352/352 343/343/343 350/350/350
f 353/353/353 346/346/346 345/345/345
f 353/353/353 345/345/345 352/352/352
f 354/354/354 347/347/347 346/346/346
f 354/354/354 346/346/346 353/353/353
f 355/355/355 348/348/348 347/347/347
f 355/355/355 347/347/347 354/354/354
f 356/356/356 349/349/349 348/348/348
f 356/356/356 348/348/348 355/355/355
f 357/357/357 349/349/349 356/356/356
f 358/358/358 350/350/350 351/351/351
f 358/358/358 351/351/351 359/359/359
f 360/360/360 358/358/358 359/359/359
f 361/361/361 352/352/352 350/350/350
f 361/361/361 350/350/350 358/358/358
f 362/362/362 358/358/358 360/360/360
f 362/362/362 361/361/361 358/358/358
f 363/363/363 362/362/362 360/360/360
f 364/364/364 357/357/357 356/356/356
f 365/365/365 357/357/357 364/364/364
f 366/366/366 356/356/356 355/355/355
f 364/364/364 356/356/356 366/366/366
f 367/367/367 352/352/352 361/361/361
f 367/367/367 353/353/353 352/352/352
f 368/368/368 361/361/361 362/362/362
f 368/368/368 367/367/367 361/361/361
f 369/369/369 362/362/362 363/363/363
f 369/369/369 368/368/368 362/362/362
f 370/370/370 369/369/369 363/363/363
f 371/371/371 365/365/365 364/364/364
f 372/372/372 365/365/365 371/371/371
f 373/373/373 353/353/353 367/367/367
f 373/373/373 354/354/354 353/353/353
f 374/374/374 367/367/367 368/368/368
f 374/374/374 373/373/373 367/367/367
f 375/375/375 368/368/368 369/369/369
f 375/375/375 374/374/374 368/368/368
f 376/376/376 369/369/369 370/370/370
f 376/376/376 375/375/375 369/369/369
f 377/377/377 376/376/376 370/370/370
f 378/378/378 354/354/354 373/373/373
f 378/378/378 355/355/355 354/354/354
f 366/366/366 355/355/355 378/378/378
f 379/379/379 373/373/373 374/374/374
f 379/379/379 378/378/378 373/373/373
f 380/380/380 374/374/374 375/375/375
f 380/380/380 379/379/379 374/374/374
f 381/381/381 375/375/375 376/376/376
f 381/381/381 380/380/380 375/375/375
f 382/382/382 376/376/376 377/377/377
f 382/382/382 381/381/381 376/376/376
f 383/383/383 382/382/382 377/377/377
f 384/384/384 366/366/366 378/378/378
f 384/384/384 378/378/378 379/379/379
f 385/385/385 379/379/379 380/380/380
f 385/385/385 384/384/384 379/379/379
f 386/386/386 380/380/380 381/381/381
f 386/386/386 385/385/385 380/380/380
f 387/387/387 381/381/381 382/382/382
f 387/387/387 386/386/386 381/381/381
f 388/388/388 382/382/382 383/383/383
f 388/388/388 387/387/387 382/382/382
f 389/389/389 388/388/388 383/383/383
f 390/390/390 366/366/366 384/384/384
f 390/390/390 364/364/364 366/366/366
f 371/371/371 364/364/364 390/390/390
f 391/391/391 384/384/384 385/385/385
f 391/391/391 390/390/390 384/384/384
f 392/392/392 385/385/385 386/386/386
f 392/392/392 391/391/391 385/385/385
f 393/393/393 386/386/386 387/387/387
f 393/393/393 392/392/392 386/386/386
f 394/394/394 387/387/387 388/388/388
f 394/394/394 393/393/393 387/387/387
f 395/395/395 388/388/388 389/389/389
f 395/395/395 394/394/394 388/388/388
f 396/396/396 395/395/395 389/389/389
f 397/397/397 371/371/371 390/390/390
f 397/397/397 390/390/390 391/391/391
f 398/398/398 391/391/391 392/392/392
f 398/398/398 397/397/397 391/391/391
f 399/399/399 392/392/392 393/393/393
f 399/399/399 398/398/398 392/392/392
f 400/400/400 393/393/393 394/394/394
f 400/400/400 399/399/399 393/393/393
f 401/401/401 394/394/394 395/395/395
f 401/401/401 400/400/400 394/394/394
f 402/402/402 395/395/395 396/396/396
f 402/402/402 401/401/401 395/395/395
f 403/403/403 402/402/402 396/396/396
f 404/404/404 371/371/371 397/397/397
f 404/404/404 372/372/372 371/371/371
f 405/405/405 372/372/372 404/404/404
f 406/406/406 397/397/397 398/398/398
f 406/406/406 404/404/404 397/397/397
f 407/407/407 405/405/405 404/404/404
f 407/407/407 404/404/404 406/406/406
f 408/408/408 405/405/405 407/407/407
f 409/409/409 402/402/402 403/403/403
f 410/410/410 409/409/409 403/403/403
f 411/411/411 401/401/401 402/402/402
f 409/409/409 411/411/411 402/402/402
f 412/412/412 406/406/406 398/398/398
f 412/412/412 398/398/398 399/399/399
f 413/413/413 407/407/407 406/406/406
f 413/413/413 406/406/406 412/412/412
f 414/414/414 408/408/408 407/407/407
f 414/414/414 407/407/407 413/413/413
f 408/408/408 414/414/414 415/415/415
f 414/414/414 416/416/416 415/415/415
f 416/416/416 414/414/414 417/417/417
f 417/417/417 414/414/414 413/413/413
f 418/418/418 416/416/416 417/417/417
f 419/419/419 412/412/412 399/399/399
f 419/419/419 399/399/399 400/400/400
f 420/420/420 413/413/413 412/412/412
f 417/417/417 413/413/413 420/420/420
f 420/420/420 412/412/412 419/419/419
f 417/417/417 421/421/421 418/418/418
f 421/421/421 417/417/417 420/420/420
f 421/421/421 422/422/422 418/418/418
f 423/423/423 419/419/419 400/400/400
f 423/423/423 400/400/400 401/401/401
f 411/411/411 423/423/423 401/401/401
f 424/424/424 420/420/420 419/419/419
f 421/421/421 420/420/420 424/424/424
f 424/424/424 419/419/419 423/423/423
f 422/422/422 421/421/421 425/425/425
f 425/425/425 421/421/421 424/424/424
f 426/426/426 422/422/422 425/425/425
f 427/427/427 424/424/424 423/423/423
f 427/427/427 423/423/423 411/411/411
f 425/425/425 424/424/424 427/427/427
f 426/426/426 425/425/425 428/428/428
f 428/428/428 425/425/425 427/427/427
f 429/429/429 426/426/426 428/428/428
f 430/430/430 427/427/427 411/411/411
f 428/428/428 427/427/427 430/430/430
f 430/430/430 411/411/411 409/409/409
f 429/429/429 428/428/428 431/431/431
f 431/431/431 428/428/428 430/430/430
f 432/432/432 429/429/429 431/431/431
f 433/433/433 430/430/430 409/409/409
f 431/431/431 430/430/430 433/433/433
f 433/433/433 409/409/409 410/410/410
f 434/434/434 433/433/433 410/410/410
f 432/432/432 431/431/431 435/435/435
f 435/435/435 431/431/431 433/433/433
f 435/435/435 433/433/433 434/434/434
f 436/436/436 432/432/432 435/435/435
f 437/437/437 435/435/435 434/434/434
f 436/436/436 435/435/435 437/437/437
f 438/438/438 436/436/436 437/437/437
g S_Cup_1
f 441/441/441 440/440/440 439/439/439
f 439/439/439 442/442/442 441/441/441
f 439/439/439 443/443/443 442/442/442
f 443/443/443 444/444/444 442/442/442
f 444/444/444 445/445/445 442/442/442
f 444/444/444 446/446/446 445/445/445
f 446/446/446 447/447/447 445/445/445
f 450/450/450 449/449/449 448/448/448
f 448/448/448 451/451/451 450/450/450
f 448/448/448 452/452/452 451/451/451
f 452/452/452 453/453/453 451/451/451
f 452/452/452 454/454/454 453/453/453
f 454/454/454 455/455/455 453/453/453
f 458/458/458 457/457/457 456/456/456
f 456/456/456 459/459/459 458/458/458
f 459/459/459 460/460/460 458/458/458
f 459/459/459 461/461/461 460/460/460
f 459/459/459 462/462/462 461/461/461
f 462/462/462 463/463/463 461/461/461
f 462/462/462 464/464/464 463/463/463
f 467/467/467 466/466/466 465/465/465
f 466/466/466 468/468/468 465/465/465
f 465/465/465 468/468/468 469/469/469
f 466/466/466 470/470/470 468/468/468
f 468/468/468 471/471/471 469/469/469
f 469/469/469 471/471/471 472/472/472
f 470/470/470 473/473/473 468/468/468
f 473/473/473 470/470/470 474/474/474
f 475/475/475 473/473/473 474/474/474
f 473/473/473 476/476/476 468/468/468
f 476/476/476 473/473/473 475/475/475
f 476/476/476 471/471/471 468/468/468
f 477/477/477 476/476/476 475/475/475
f 478/478/478 476/476/476 477/477/477
f 476/476/476 478/478/478 471/471/471
f 479/479/479 478/478/478 477/477/477
f 471/471/471 480/480/480 472/472/472
f 478/478/478 480/480/480 471/471/471
f 481/481/481 478/478/478 479/479/479
f 478/478/478 481/481/481 480/480/480
f 480/480/480 482/482/482 472/472/472
f 481/481/481 482/482/482 480/480/480
f 472/472/472 482/482/482 483/483/483
f 482/482/482 484/484/484 483/483/483
f 482/482/482 481/481/481 484/484/484
f 483/483/483 484/484/484 485/485/485
f 486/486/486 481/481/481 479/479/479
f 481/481/481 486/486/486 484/484/484
f 487/487/487 486/486/486 479/479/479
f 488/488/488 486/486/486 487/487/487
f 484/484/484 486/486/486 488/488/488
f 489/489/489 488/488/488 487/487/487
f 484/484/484 490/490/490 485/485/485
f 490/490/490 484/484/484 488/488/488
f 491/491/491 488/488/488 489/489/489
f 490/490/490 488/488/488 491/491/491
f 490/490/490 492/492/492 485/485/485
f 492/492/492 490/490/490 491/491/491
f 485/485/485 492/492/492 493/493/493
f 494/494/494 491/491/491 489/489/489
f 492/492/492 491/491/491 494/494/494
f 495/495/495 494/494/494 489/489/489
f 492/492/492 496/496/496 493/493/493
f 496/496/496 492/492/492 494/494/494
f 493/493/493 496/496/496 497/497/497
f 498/498/498 494/494/494 495/495/495
f 496/496/496 494/494/494 498/498/498
f 499/499/499 498/498/498 495/495/495
f 496/496/496 500/500/500 497/497/497
f 500/500/500 496/496/496 498/498/498
f 497/497/497 500/500/500 501/501/501
f 500/500/500 502/502/502 501/501/501
f 500/500/500 498/498/498 502/502/502
f 498/498/498 503/503/503 502/502/502
f 503/503/503 498/498/498 499/499/499
f 504/504/504 503/503/503 499/499/499
