g S_Cup_01
v -0.0714482814 0.143513933 -0.124905296
v -0.0240225326 0.143513918 -0.14180088
v 0.0263249613 0.143513903 -0.141053006
v 0.129483789 0.143513918 0.0527111627
v 0.103577048 0.143513933 0.0943316147
v -0.109123304 0.143513888 0.0897940025
v 0.178509548 0.39740923 0.113614239
v 0.192294061 0.37706843 0.0986438617
v 0.230817959 0.37933895 0.13313368
v 0.218988165 0.399603605 0.149858057
v 0.160006583 0.404854447 0.134352595
v 0.263343394 0.372468621 0.162851006
v 0.201049685 0.407012463 0.171087414
v 0.25578776 0.39094311 0.183516845
v 0.291482925 0.352474809 0.189135849
v 0.239332646 0.397662163 0.206106499
v 0.287636876 0.367268831 0.21331875
v 0.272443235 0.372604132 0.237106323
v 0.312321782 0.320759505 0.208949387
v 0.311120301 0.330438256 0.235704377
v 0.296795189 0.333898455 0.260346234
v 0.32297492 0.280071974 0.247082233
v 0.322657764 0.276707798 0.218833193
v 0.309145302 0.281258494 0.272223562
v 0.320554078 0.229860201 0.216799438
v 0.320933074 0.226580232 0.245122045
v 0.307117552 0.225390926 0.270290256
v 0.306011051 0.183831915 0.202689722
v 0.305083871 0.17439115 0.229731858
v 0.290870607 0.171037525 0.254510671
v 0.281044334 0.146625102 0.179005444
v 0.27742976 0.131972164 0.203477755
v 0.262351781 0.12675406 0.227426812
v 0.248487517 0.121541508 0.148856416
v 0.241154194 0.103337772 0.16985698
v 0.224873707 0.0968481228 0.192678526
v 0.211203113 0.108707845 0.115382783
v 0.1996025 0.0887228549 0.132526219
v 0.187462002 0.106447116 0.0948583186
v 0.181957409 0.0816054642 0.154110149
v 0.174436837 0.0863216743 0.110770106
v 0.156433299 0.0791689456 0.132044077
v 0.211203113 0.108707845 0.115382783
v 0.192018718 0.134152606 0.0885722786
v 0.187462002 0.106447116 0.0948583186
v 0.213650912 0.13620545 0.107273348
v 0.248487517 0.121541508 0.148856416
v 0.186885983 0.162014484 0.093596369
v 0.244902313 0.146593541 0.135298073
v 0.281044334 0.146625102 0.179005444
v 0.206289977 0.163847655 0.110370919
v 0.17343913 0.182567224 0.108584315
v 0.272214949 0.166806623 0.160555854
v 0.306011051 0.183831915 0.202689722
v 0.1910927 0.184227824 0.123845391
v 0.155281276 0.190303698 0.129520178
v 0.172131151 0.191885099 0.144086421
v 0.231351241 0.171795741 0.132807925
v 0.211463511 0.190394819 0.142051831
v 0.190583244 0.197364211 0.160565183
v 0.293395132 0.196846724 0.180620909
v 0.320554078 0.229860201 0.216799438
v 0.253290743 0.187136129 0.15305683
v 0.229332134 0.202171952 0.158508211
v 0.206776097 0.207808554 0.175466567
v 0.306081027 0.234360218 0.1929086
v 0.322657764 0.276707798 0.218833193
v 0.270604074 0.209971651 0.169425175
v 0.243731126 0.219695807 0.17208831
v 0.219958201 0.223337591 0.187889397
v 0.308265418 0.27206102 0.195032418
v 0.312321782 0.320759505 0.208949387
v 0.281389147 0.238886371 0.179845557
v 0.253080904 0.242226079 0.181095615
v 0.228685215 0.243418038 0.196287572
v 0.300058633 0.307426542 0.187234059
v 0.291482925 0.352474809 0.189135849
v 0.283635259 0.267369777 0.182038516
v 0.255352378 0.263883233 0.183319658
v 0.230997488 0.262506843 0.198545247
v 0.282924384 0.332135797 0.171016797
v 0.263343394 0.372468621 0.162851006
v 0.277591228 0.293971449 0.176356331
v 0.250929087 0.283972472 0.179224983
v 0.227263927 0.280166894 0.195112228
v 0.259956747 0.347133487 0.149633348
v 0.230817959 0.37933895 0.13313368
v 0.264218658 0.311627954 0.163790107
v 0.2403671 0.296393454 0.169390097
v 0.217868745 0.290683508 0.186398804
v 0.233359843 0.351614028 0.125387967
v 0.192294061 0.37706843 0.0986438617
v 0.197666585 0.349282444 0.0934527367
v 0.246509016 0.321637034 0.147388026
v 0.226598218 0.30273208 0.156720847
v 0.205673367 0.295730501 0.175214112
v 0.225915164 0.323780924 0.128682911
v 0.193187475 0.321496546 0.0994318351
v 0.210472733 0.303193033 0.142136753
v 0.191270769 0.295599312 0.162222132
v 0.180056989 0.301155835 0.114979073
v 0.161793366 0.293710589 0.135928571
v 0.172131151 0.191885099 0.144086421
v 0.137277767 0.183150932 0.150794163
v 0.155281276 0.190303698 0.129520178
v 0.15448606 0.184767723 0.165670291
v 0.190583244 0.197364211 0.160565183
v 0.124252602 0.163025588 0.166705966
v 0.174334958 0.19083868 0.183415234
v 0.206776097 0.207808554 0.175466567
v 0.142885476 0.164782748 0.182813734
v 0.119695902 0.135320097 0.172991961
v 0.191774055 0.20252572 0.199487612
v 0.219958201 0.223337591 0.187889397
v 0.140437692 0.137285143 0.190923169
v 0.124828622 0.107458219 0.167967886
v 0.167033598 0.172581166 0.204444885
v 0.205832139 0.219940618 0.212758228
v 0.228685215 0.243418038 0.196287572
v 0.147798598 0.109642923 0.187825575
v 0.138275445 0.0869054794 0.15297991
v 0.188230991 0.187772363 0.224026754
v 0.170625821 0.147515327 0.218009651
v 0.214940146 0.242236063 0.221534476
v 0.230997488 0.262506843 0.198545247
v 0.162995875 0.0892626941 0.174351111
v 0.156433299 0.0791689456 0.132044077
v 0.181957409 0.0816054642 0.154110149
v 0.204968393 0.210414708 0.239863291
v 0.197079286 0.167562202 0.242493585
v 0.184157342 0.122347899 0.22048229
v 0.204011604 0.103805766 0.21120885
v 0.224873707 0.0968481228 0.192678526
v 0.217257321 0.26374954 0.223777935
v 0.227263927 0.280166894 0.195112228
v 0.215349972 0.238918319 0.249890223
v 0.215968311 0.147290885 0.249958873
v 0.23985593 0.132360071 0.244440645
v 0.262351781 0.12675406 0.227426812
v 0.217601433 0.197374105 0.26194784
v 0.213001758 0.283755243 0.219809085
v 0.217868745 0.290683508 0.186398804
v 0.267183483 0.174662545 0.270390779
v 0.290870607 0.171037525 0.254510671
v 0.240368038 0.184297308 0.273115844
v 0.22983177 0.234406233 0.273788452
v 0.217660427 0.267151505 0.252105594
v 0.202722043 0.296196848 0.210216016
v 0.205673367 0.295730501 0.175214112
v 0.282809526 0.226607546 0.285561293
v 0.307117552 0.225390926 0.270290256
v 0.254521728 0.229904875 0.286842704
v 0.211902097 0.293602258 0.246645615
v 0.232080862 0.27181536 0.275928974
v 0.189214587 0.302639872 0.19778432
v 0.191270769 0.295599312 0.162222132
v 0.284879774 0.279951751 0.287526071
v 0.309145302 0.281258494 0.272223562
v 0.256676763 0.27649799 0.288886577
v 0.224205777 0.306999922 0.268389881
v 0.199007511 0.311291039 0.234498471
v 0.173302367 0.3031739 0.183413729
v 0.161793366 0.293710589 0.135928571
v 0.143290371 0.301155835 0.15666689
v 0.273192048 0.330224097 0.276278853
v 0.296795189 0.333898455 0.260346234
v 0.246629134 0.320389092 0.279228508
v 0.207621112 0.331743628 0.252655208
v 0.181745559 0.321478605 0.218509972
v 0.161525145 0.323758304 0.200178578
v 0.129505873 0.321496606 0.171637267
v 0.249982849 0.367070258 0.254133403
v 0.272443235 0.372604132 0.237106323
v 0.22626549 0.35213238 0.259831786
v 0.185171157 0.346945882 0.23175174
v 0.159008324 0.351589739 0.207943887
v 0.124133363 0.349282563 0.17682834
v 0.198575318 0.372302324 0.233964041
v 0.218393549 0.390845895 0.224572733
v 0.239332646 0.397662163 0.206106499
v 0.166427091 0.379317075 0.204629123
v 0.128612489 0.37706843 0.170849264
v 0.181811959 0.399590701 0.191135883
v 0.201049685 0.407012463 0.171087414
v 0.141742975 0.397409201 0.155302063
v 0.160006583 0.404854447 0.134352595
v 0.030493984 -0.00228258059 -0.165358365
v -0.0275455192 -0.00228258898 -0.166220397
v -0.0822168812 -0.00228260318 -0.146743447
v 0.0843182728 -0.00228258758 -0.144094646
v -0.126671523 -0.00228261692 -0.109399363
v 0.127063021 -0.00228260993 -0.105219372
v -0.155307978 -0.00228262576 -0.0591662712
v 0.153696612 -0.00228263671 -0.0540405586
v -0.164516553 -0.00228262483 -0.00306535768
v 0.161315054 -0.00228265836 0.00270354864
v -0.153977543 -0.00228261692 0.0528425984
v 0.149413049 -0.0022826721 0.0580087081
v -0.125647888 -0.0022826097 0.1007571
v 0.119548328 -0.00228267629 0.105987824
v -0.0833560079 -0.00228261668 0.136453763
v 0.0754546374 -0.00228267023 0.14040941
v -0.0318165049 -0.00228263391 0.156072527
v 0.0232631955 -0.0022826544 0.15750429
v 0.0754546374 -0.00228267023 0.14040941
v 0.14673841 0.0157419126 0.130961433
v 0.119548328 -0.00228267629 0.105987824
v 0.0927348956 0.0157419369 0.173119098
v 0.0232631955 -0.0022826544 0.15750429
v 0.163830787 0.04227449 0.146660492
v 0.0288137123 0.015741948 0.194055974
v -0.0318165049 -0.00228263391 0.156072527
v 0.103597715 0.0422744937 0.19368127
v 0.169660702 0.0755118802 0.152015179
v -0.0386448726 0.0157419518 0.192302436
v -0.0833560079 -0.00228261668 0.136453763
v 0.0323028937 0.0422744974 0.217033312
v 0.107302822 0.0755118802 0.20069465
v -0.101767607 0.0157419499 0.168274462
v -0.125647888 -0.0022826097 0.1007571
v 0.103931904 0.401647568 0.197269753
v 0.164321378 0.401647568 0.150126934
v 0.154517233 0.426733643 0.141122028
v -0.0429373831 0.0422744974 0.215077505
v 0.0334929936 0.0755118653 0.224870443
v -0.153564349 0.015741948 0.124555156
v -0.153977543 -0.00228261692 0.0528425984
v 0.0977010354 0.426733643 0.185475439
v 0.147583038 0.436339498 0.134753108
v -0.113341652 0.0422745012 0.188277811
v -0.188260928 0.0157419518 0.0658721104
v -0.164516553 -0.00228262483 -0.00306535768
v 0.0324519649 0.401647568 0.220682442
v 0.0932941064 0.436339527 0.177133575
v 0.129770383 0.444684178 0.11839278
v -0.0444014631 0.075511843 0.222845644
v -0.171113431 0.0422745161 0.139515281
v -0.201168567 0.0157419611 -0.00260087196
v -0.155307978 -0.00228262576 -0.0591662712
v 0.0304505769 0.426733643 0.207502797
v -0.0429836437 0.401647598 0.218721569
v -0.11728932 0.0755118281 0.195100531
v -0.209812462 0.042274531 0.0740628317
v -0.113570698 0.401647627 0.191852286
v -0.0405215248 0.426733702 0.205657974
v 0.0290350784 0.436339527 0.198181078
v -0.177099049 0.0755118206 0.144617856
v -0.171492442 0.401647627 0.142963156
v -0.106931955 0.426733702 0.180378526
v 0.0819737017 0.444684148 0.155705065
v 0.111957319 0.436624169 0.102029912
v -0.0387800261 0.436339498 0.196418241
v 0.0706528574 0.436624169 0.13427408
v 0.103576913 0.425260067 0.094333522
v 0.0253992528 0.444684088 0.174235478
v 0.0217629261 0.436624169 0.150287569
v 0.0653269365 0.425260127 0.124193206
v 0.103577048 0.143513933 0.0943316147
v 0.065327093 0.143513948 0.124191307
v 0.0200525858 0.143513933 0.139020547
v -0.0343060233 0.444684029 0.172683403
v -0.102236375 0.436339498 0.172263235
v 0.0200524107 0.425260156 0.139022499
v -0.0298325624 0.43662411 0.148946375
v -0.0277275816 0.425260127 0.137780488
v -0.0277274027 0.143513903 0.137778506
v -0.0901737735 0.444683969 0.151417032
v -0.161426499 0.426733643 0.134382188
v -0.0781117901 0.43662405 0.130568638
v -0.0724365562 0.425260067 0.120761812
v -0.07243637 0.143513888 0.120759793
v -0.109123304 0.143513888 0.0897940025
v -0.117728367 0.43662411 0.0971300453
v -0.154306859 0.436339498 0.128312886
v -0.210291892 0.401647627 0.0773407668
v -0.109123476 0.425260037 0.089796029
v -0.133698568 0.425260037 0.0482316092
v -0.133698449 0.143513918 0.0482295938
v -0.136017308 0.444684058 0.112722576
v -0.197930232 0.426733643 0.0726426914
v -0.21716325 0.0755118206 0.0768565014
v -0.14426595 0.43662414 0.0522464775
v -0.142840818 0.425260067 -0.000266895717
v -0.142840773 0.143513948 -0.000268911943
v -0.166726112 0.444684178 0.0607842132
v -0.189186856 0.436339527 0.0693196952
v -0.224725828 0.401647627 0.000770783634
v -0.154138327 0.436624169 -0.000124929196
v -0.134852588 0.425260067 -0.0489327759
v -0.134852603 0.143513963 -0.0489348061
v -0.178150281 0.444684237 0.000181098469
v -0.145512253 0.436624169 -0.0526770912
v -0.211510122 0.426733643 0.000603356981
v -0.202162713 0.436339557 0.00048483329
v -0.110011302 0.425260067 -0.0925084651
v -0.110011347 0.143513948 -0.0925104916
v -0.190824956 0.436339527 -0.0685876086
v -0.118687287 0.43662414 -0.0997326076
v -0.0714482293 0.425260037 -0.124903306
v -0.0714482814 0.143513933 -0.124905296
v -0.0240225326 0.143513918 -0.14180088
v -0.168168426 0.444684237 -0.0606311969
v -0.137127116 0.444684148 -0.115082875
v -0.0770447254 0.43662411 -0.134714425
v -0.0889391676 0.444684058 -0.155563086
v -0.155567273 0.436339498 -0.130435467
v -0.0258317068 0.43662411 -0.152959287
v -0.0240224712 0.425259948 -0.141798928
v 0.026325034 0.425259918 -0.141051084
v 0.0263249613 0.143513903 -0.141053006
v -0.100833938 0.436339498 -0.176414147
v 0.028536398 0.43662411 -0.152151734
v 0.0730159804 0.425259948 -0.122605428
v 0.0730159134 0.143513903 -0.122607343
v 0.110095724 0.143513918 -0.0888842568
v 0.0789559335 0.43662411 -0.132233053
v -0.0296764746 0.444684029 -0.176675692
v 0.0332372189 0.444683969 -0.175741211
v 0.0915817171 0.444683939 -0.152691722
v 0.118996777 0.43662411 -0.0958168954
v 0.110095777 0.425260007 -0.0888823122
v -0.0335216038 0.436339498 -0.200394511
v 0.0379376523 0.436339498 -0.199333146
v 0.133199617 0.425260007 -0.0444862545
v 0.133199617 0.143513918 -0.0444882102
v 0.104207084 0.436339498 -0.173152879
v 0.14394559 0.43662411 -0.0478755087
v 0.139808372 0.425260007 0.00473753409
v 0.139808416 0.143513918 0.0047355881
v 0.129483789 0.143513918 0.0527111627
v 0.151082069 0.43662411 0.00527912797
v 0.0397677198 0.426733643 -0.208516836
v 0.109122172 0.426733643 -0.181117833
v -0.0350181758 0.426733702 -0.209627584
v -0.105464093 0.426733702 -0.184530824
v -0.162745431 0.426733643 -0.136411682
v -0.199644506 0.426733643 -0.0716846064
v -0.212114006 0.401647598 -0.0760634616
v -0.172894329 0.401647598 -0.144861281
v -0.112010524 0.401647627 -0.196006656
v -0.0371342078 0.401647627 -0.222681686
v 0.042355027 0.401647627 -0.221501052
v -0.232067689 0.0755118355 -0.00220928551
v -0.219044775 0.0755118579 -0.0815479532
v -0.224209055 0.0422745496 -0.00230887299
v -0.211629868 0.0422745608 -0.0789441615
v -0.178546727 0.0755118802 -0.152588278
v -0.0383614041 0.07551191 -0.232945338
v -0.189890414 0.0157419667 -0.0713101774
v -0.126671523 -0.00228261692 -0.109399363
v -0.154818058 0.0157419648 -0.132832885
v -0.0822168812 -0.00228260318 -0.146743447
v -0.172511742 0.0422745496 -0.14756383
v -0.100372463 0.0157419574 -0.178569853
v -0.0275455192 -0.00228258898 -0.166220397
v -0.115678363 0.0755119026 -0.205400765
v -0.111785568 0.042274531 -0.198576793
v -0.037103124 0.0422745124 -0.225182801
v -0.0334140174 0.0157419555 -0.202424139
v 0.030493984 -0.00228258059 -0.165358365
v 0.0376695581 0.0157419574 -0.201368362
v 0.0843182728 -0.00228258758 -0.144094646
v 0.0421803035 0.0422744974 -0.224005222
v 0.10359057 0.0157419536 -0.175325736
v 0.127063021 -0.00228260993 -0.105219372
v 0.0437188372 0.0755119026 -0.231726214
v 0.155941993 0.0157419313 -0.127713472
v 0.153696612 -0.00228263671 -0.0540405586
v 0.115705647 0.04227449 -0.194958448
v 0.116071239 0.401647627 -0.192378879
v 0.188561335 0.0157419033 -0.065032497
v 0.161315054 -0.00228265836 0.00270354864
v 0.174096063 0.0422744825 -0.141853854
v 0.119837873 0.0755118877 -0.201654807
v 0.197891995 0.0157418903 0.00446454715
v 0.149413049 -0.0022826721 0.0580087081
v 0.180288076 0.0755118728 -0.146676883
v 0.210478231 0.0422744751 -0.0719423145
v 0.174613267 0.401647598 -0.139136419
v 0.164200231 0.426733702 -0.131025702
v 0.211089894 0.401647568 -0.0690434054
v 0.217953652 0.0755118579 -0.0742991269
v 0.156835213 0.436339498 -0.125288978
v 0.198518485 0.426733732 -0.0650800392
v 0.137916192 0.444683969 -0.110551678
v 0.189626992 0.436339498 -0.0622767247
v 0.166786492 0.444684058 -0.0550748333
v 0.221523911 0.401647508 0.00867170654
v 0.220885217 0.0422744751 0.00557155767
v 0.208335087 0.426733732 0.00803668611
v 0.17504473 0.444684088 0.00643467344
v 0.199006975 0.436339498 0.00758763589
v 0.228727773 0.0755118579 0.00594915356
v 0.204626739 0.0422744825 0.0811198056
v 0.211895764 0.0755118728 0.0841624513
v 0.205223247 0.401647508 0.0844160914
v 0.192998916 0.426733702 0.079299286
v 0.139932901 0.43662414 0.057085827
v 0.184353009 0.436339498 0.0756803527
v 0.164321378 0.401647568 0.150126934
v 0.154517233 0.426733643 0.141122028
v 0.169660702 0.0755118802 0.152015179
v 0.163830787 0.04227449 0.146660492
v 0.147583038 0.436339498 0.134753108
v 0.14673841 0.0157419126 0.130961433
v 0.162143171 0.444684178 0.0663843676
v 0.129770383 0.444684178 0.11839278
v 0.111957319 0.436624169 0.102029912
v 0.183315039 0.0157418959 0.0721992552
v 0.119548328 -0.00228267629 0.105987824
v 0.129483685 0.425260037 0.0527130924
v 0.103576913 0.425260067 0.094333522
v 0.103577048 0.143513933 0.0943316147
v 0.0263249613 0.143513903 -0.141053006
v 0.0730159134 0.143513903 -0.122607343
v -0.0714482814 0.143513933 -0.124905296
v -0.110011347 0.143513948 -0.0925104916
v 0.110095724 0.143513918 -0.0888842568
v -0.134852603 0.143513963 -0.0489348061
v 0.133199617 0.143513918 -0.0444882102
v -0.142840773 0.143513948 -0.000268911943
v 0.139808416 0.143513918 0.0047355881
v -0.133698449 0.143513918 0.0482295938
v 0.129483789 0.143513918 0.0527111627
v -0.109123304 0.143513888 0.0897940025
v 0.103577048 0.143513933 0.0943316147
v -0.07243637 0.143513888 0.120759793
v -0.109123304 0.143513888 0.0897940025
v 0.065327093 0.143513948 0.124191307
v -0.0277274027 0.143513903 0.137778506
v 0.0200525858 0.143513933 0.139020547
vt 0.127807617 0.504394531
vt 0.122680664 0.494873047
vt 0.120300293 0.487792969
vt 0.0160369873 0.487792969
vt 9.14335251E-05 0.467773438
vt 0.111938477 0.530273438
vt 0 0.0833129883
vt 0 0
vt 0.166625977 0
vt 0.166625977 0.0833129883
vt 0 0.166625977
vt 0.25 0
vt 0.166625977 0.166625977
vt 0.25 0.0833129883
vt 0.291748047 0
vt 0.25 0.166625977
vt 0.291748047 0.0833129883
vt 0.291748047 0.166625977
vt 0.375 0
vt 0.375 0.0833129883
vt 0.375 0.166625977
vt 0.541503906 0.0833129883
vt 0.541503906 0
vt 0.541503906 0.166625977
vt 0.625 0
vt 0.625 0.0833129883
vt 0.625 0.166625977
vt 0.708496094 0
vt 0.708496094 0.0833129883
vt 0.708496094 0.166625977
vt 0.791503906 0
vt 0.791503906 0.0833129883
vt 0.791503906 0.166625977
vt 0.875 0
vt 0.875 0.0833129883
vt 0.875 0.166625977
vt 0.958496094 0
vt 0.958496094 0.0833129883
vt 1 0
vt 0.958496094 0.166625977
vt 1 0.0833129883
vt 1 0.166625977
vt 0.958496094 1
vt 1 0.916503906
vt 1 1
vt 0.958496094 0.916503906
vt 0.875 1
vt 1 0.833496094
vt 0.875 0.916503906
vt 0.791503906 1
vt 0.958496094 0.833496094
vt 1 0.75
vt 0.791503906 0.916503906
vt 0.708496094 1
vt 0.958496094 0.75
vt 1 0.666503906
vt 0.958496094 0.666503906
vt 0.875 0.833496094
vt 0.875 0.75
vt 0.875 0.666503906
vt 0.708496094 0.916503906
vt 0.625 1
vt 0.791503906 0.833496094
vt 0.791503906 0.75
vt 0.791503906 0.666503906
vt 0.625 0.916503906
vt 0.541503906 1
vt 0.708496094 0.833496094
vt 0.708496094 0.75
vt 0.708496094 0.666503906
vt 0.541503906 0.916503906
vt 0.375 1
vt 0.625 0.833496094
vt 0.625 0.75
vt 0.625 0.666503906
vt 0.375 0.916503906
vt 0.291748047 1
vt 0.541503906 0.833496094
vt 0.541503906 0.75
vt 0.541503906 0.666503906
vt 0.291748047 0.916503906
vt 0.25 1
vt 0.375 0.833496094
vt 0.375 0.75
vt 0.375 0.666503906
vt 0.25 0.916503906
vt 0.166625977 1
vt 0.291748047 0.833496094
vt 0.291748047 0.75
vt 0.291748047 0.666503906
vt 0.166625977 0.916503906
vt 0 1
vt 0 0.916503906
vt 0.25 0.833496094
vt 0.25 0.75
vt 0.25 0.666503906
vt 0.166625977 0.833496094
vt 0 0.833496094
vt 0.166625977 0.75
vt 0.166625977 0.666503906
vt 0 0.75
vt 0 0.666503906
vt 0.958496094 0.666503906
vt 1 0.583496094
vt 1 0.666503906
vt 0.958496094 0.583496094
vt 0.875 0.666503906
vt 1 0.5
vt 0.875 0.583496094
vt 0.791503906 0.666503906
vt 0.958496094 0.5
vt 1 0.416748047
vt 0.791503906 0.583496094
vt 0.708496094 0.666503906
vt 0.958496094 0.416748047
vt 1 0.333251953
vt 0.875 0.5
vt 0.708496094 0.583496094
vt 0.625 0.666503906
vt 0.958496094 0.333251953
vt 1 0.25
vt 0.791503906 0.5
vt 0.875 0.416748047
vt 0.625 0.583496094
vt 0.541503906 0.666503906
vt 0.958496094 0.25
vt 1 0.166625977
vt 0.958496094 0.166625977
vt 0.708496094 0.5
vt 0.791503906 0.416748047
vt 0.875 0.333251953
vt 0.875 0.25
vt 0.875 0.166625977
vt 0.541503906 0.583496094
vt 0.375 0.666503906
vt 0.625 0.5
vt 0.791503906 0.333251953
vt 0.791503906 0.25
vt 0.791503906 0.166625977
vt 0.708496094 0.416748047
vt 0.375 0.583496094
vt 0.291748047 0.666503906
vt 0.708496094 0.25
vt 0.708496094 0.166625977
vt 0.708496094 0.333251953
vt 0.625 0.416748047
vt 0.541503906 0.5
vt 0.291748047 0.583496094
vt 0.25 0.666503906
vt 0.625 0.25
vt 0.625 0.166625977
vt 0.625 0.333251953
vt 0.375 0.5
vt 0.541503906 0.416748047
vt 0.25 0.583496094
vt 0.166625977 0.666503906
vt 0.541503906 0.25
vt 0.541503906 0.166625977
vt 0.541503906 0.333251953
vt 0.375 0.416748047
vt 0.291748047 0.5
vt 0.166625977 0.583496094
vt 0 0.666503906
vt 0 0.583496094
vt 0.375 0.25
vt 0.375 0.166625977
vt 0.375 0.333251953
vt 0.291748047 0.416748047
vt 0.25 0.5
vt 0.166625977 0.5
vt 0 0.5
vt 0.291748047 0.25
vt 0.291748047 0.166625977
vt 0.291748047 0.333251953
vt 0.25 0.416748047
vt 0.166625977 0.416748047
vt 0 0.416748047
vt 0.25 0.333251953
vt 0.25 0.25
vt 0.25 0.166625977
vt 0.166625977 0.333251953
vt 0 0.333251953
vt 0.166625977 0.25
vt 0.166625977 0.166625977
vt 0 0.25
vt 0 0.166625977
vt 0.5703125 0.419921875
vt 0.563476562 0.443359375
vt 0.556640625 0.48828125
vt 0.579589844 0.395751953
vt 0.555664062 0.510253906
vt 0.608886719 0.343994141
vt 0.556640625 0.532226562
vt 0.630859375 0.315673828
vt 0.563964844 0.576660156
vt 0.66015625 0.285888672
vt 0.571289062 0.599609375
vt 0.756347656 0.224609375
vt 0.580566406 0.623535156
vt 0.8359375 0.811035156
vt 0.610839844 0.674316406
vt 0.758789062 0.788085938
vt 0.6328125 0.701171875
vt 0.662597656 0.729492188
vt 0.758789062 0.788085938
vt 0.801757812 0.905761719
vt 0.8359375 0.811035156
vt 0.720214844 0.846191406
vt 0.662597656 0.729492188
vt 0.737304688 0.966796875
vt 0.632324219 0.759765625
vt 0.6328125 0.701171875
vt 0.677246094 0.887695312
vt 0.663085938 1
vt 0.604980469 0.723632812
vt 0.610839844 0.674316406
vt 0.602050781 0.78125
vt 0.627441406 0.918457031
vt 0.584472656 0.690917969
vt 0.580566406 0.623535156
vt 0.212890625 0.890136719
vt 0.170776367 0.95703125
vt 0.130126953 0.920898438
vt 0.578613281 0.739746094
vt 0.569335938 0.799316406
vt 0.557617188 0.6328125
vt 0.571289062 0.599609375
vt 0.180297852 0.8671875
vt 0.11517334 0.90234375
vt 0.560546875 0.703125
vt 0.548828125 0.606933594
vt 0.563964844 0.576660156
vt 0.262695312 0.789550781
vt 0.167114258 0.854980469
vt 0.0994262695 0.868164062
vt 0.550292969 0.753417969
vt 0.537109375 0.640136719
vt 0.542480469 0.581542969
vt 0.556640625 0.532226562
vt 0.238037109 0.778808594
vt 0.278564453 0.749511719
vt 0.535644531 0.713378906
vt 0.529785156 0.611816406
vt 0.291015625 0.712890625
vt 0.256591797 0.740722656
vt 0.226928711 0.772460938
vt 0.516601562 0.645507812
vt 0.30859375 0.6484375
vt 0.270751953 0.706054688
vt 0.147949219 0.83203125
vt 0.0837402344 0.833496094
vt 0.246582031 0.736328125
vt 0.12878418 0.80859375
vt 0.0781860352 0.8125
vt 0.208129883 0.760742188
vt 0.189331055 0.748535156
vt 0.118286133 0.792480469
vt 9.14335251E-05 0.467773438
vt 0.021270752 0.508300781
vt 0.0679931641 0.539550781
vt 0.228759766 0.7265625
vt 0.261474609 0.702636719
vt 0.177734375 0.738769531
vt 0.2109375 0.717285156
vt 0.19934082 0.709472656
vt 0.0823974609 0.541503906
vt 0.245239258 0.6953125
vt 0.291015625 0.64453125
vt 0.229003906 0.687988281
vt 0.217773438 0.681640625
vt 0.0944824219 0.538574219
vt 0.111938477 0.530273438
vt 0.253417969 0.633300781
vt 0.282958984 0.642089844
vt 0.314208984 0.619140625
vt 0.243652344 0.629394531
vt 0.252197266 0.604980469
vt 0.118041992 0.527832031
vt 0.268310547 0.637695312
vt 0.297851562 0.616210938
vt 0.510253906 0.616210938
vt 0.262207031 0.607910156
vt 0.259277344 0.581054688
vt 0.122436523 0.523925781
vt 0.276123047 0.611328125
vt 0.290039062 0.614257812
vt 0.318603516 0.591308594
vt 0.268554688 0.583007812
vt 0.267089844 0.53515625
vt 0.126220703 0.514160156
vt 0.281982422 0.585449219
vt 0.276123047 0.535644531
vt 0.302734375 0.588867188
vt 0.295410156 0.587890625
vt 0.268066406 0.512695312
vt 0.127807617 0.509277344
vt 0.301513672 0.537109375
vt 0.277099609 0.512695312
vt 0.267578125 0.489990234
vt 0.127807617 0.504394531
vt 0.122680664 0.494873047
vt 0.288818359 0.536621094
vt 0.289794922 0.512695312
vt 0.276611328 0.489501953
vt 0.289306641 0.488525391
vt 0.302490234 0.512207031
vt 0.270507812 0.442626953
vt 0.260986328 0.444580078
vt 0.255126953 0.421386719
vt 0.120300293 0.487792969
vt 0.302001953 0.487792969
vt 0.264648438 0.418701172
vt 0.247192383 0.397460938
vt 0.115600586 0.481933594
vt 0.0975341797 0.472900391
vt 0.257080078 0.393798828
vt 0.283447266 0.440185547
vt 0.278076172 0.415283203
vt 0.270751953 0.389648438
vt 0.232543945 0.342529297
vt 0.221801758 0.348388672
vt 0.296386719 0.437744141
vt 0.291259766 0.411865234
vt 0.204345703 0.322753906
vt 0.0834960938 0.466308594
vt 0.284423828 0.385253906
vt 0.215454102 0.315185547
vt 0.182373047 0.297119141
vt 0.0651245117 0.465087891
vt 0.0160369873 0.487792969
vt 0.193969727 0.287109375
vt 0.298828125 0.410400391
vt 0.292236328 0.383056641
vt 0.303710938 0.436523438
vt 0.308837891 0.487304688
vt 0.309570312 0.512207031
vt 0.30859375 0.537597656
vt 0.323730469 0.538085938
vt 0.324462891 0.512695312
vt 0.323974609 0.486816406
vt 0.319335938 0.434326172
vt 0.315185547 0.407226562
vt 0.505859375 0.588378906
vt 0.500976562 0.535644531
vt 0.524414062 0.584960938
vt 0.518554688 0.534667969
vt 0.500488281 0.510253906
vt 0.505371094 0.432861328
vt 0.536132812 0.533691406
vt 0.555664062 0.510253906
vt 0.53515625 0.510253906
vt 0.556640625 0.48828125
vt 0.518066406 0.510253906
vt 0.535644531 0.486816406
vt 0.563476562 0.443359375
vt 0.500976562 0.485107422
vt 0.518554688 0.485839844
vt 0.523925781 0.435302734
vt 0.541992188 0.438476562
vt 0.5703125 0.419921875
vt 0.547851562 0.413085938
vt 0.579589844 0.395751953
vt 0.528808594 0.408691406
vt 0.556152344 0.386474609
vt 0.608886719 0.343994141
vt 0.509277344 0.405029297
vt 0.58203125 0.327636719
vt 0.630859375 0.315673828
vt 0.535644531 0.380371094
vt 0.309326172 0.379150391
vt 0.602050781 0.293945312
vt 0.66015625 0.285888672
vt 0.557617188 0.316162109
vt 0.514648438 0.375488281
vt 0.628417969 0.256347656
vt 0.756347656 0.224609375
vt 0.532226562 0.307373047
vt 0.574707031 0.278808594
vt 0.292236328 0.317382812
vt 0.272949219 0.32421875
vt 0.280029297 0.282470703
vt 0.545410156 0.266845703
vt 0.263916016 0.327880859
vt 0.258544922 0.291503906
vt 0.248291016 0.335205078
vt 0.248901367 0.296142578
vt 0.232177734 0.305664062
vt 0.263427734 0.243530273
vt 0.597167969 0.235717773
vt 0.239868164 0.255371094
vt 0.211669922 0.274414062
vt 0.229492188 0.26171875
vt 0.562988281 0.219482422
vt 0.672851562 0.123413086
vt 0.619628906 0.0907592773
vt 0.210327148 0.148681641
vt 0.181030273 0.172119141
vt 0.132568359 0.228271484
vt 0.169311523 0.183959961
vt 0.166259766 0.0872192383
vt 0.131103516 0.12487793
vt 0.658203125 9.14335251E-05
vt 0.739746094 0.0369262695
vt 0.119934082 0.143554688
vt 0.800292969 0.106140137
vt 0.150878906 0.206176758
vt 0.106506348 0.175415039
vt 0.0930786133 0.207275391
vt 0.71875 0.165283203
vt 0.8359375 0.200927734
vt 0.122192383 0.243164062
vt 0.0908203125 0.224609375
vt 9.14335251E-05 0.467773438
vt 0.120300293 0.487792969
vt 0.115600586 0.481933594
vt 0.127807617 0.504394531
vt 0.127807617 0.509277344
vt 0.0975341797 0.472900391
vt 0.126220703 0.514160156
vt 0.0834960938 0.466308594
vt 0.122436523 0.523925781
vt 0.0651245117 0.465087891
vt 0.118041992 0.527832031
vt 0.0160369873 0.487792969
vt 0.111938477 0.530273438
vt 9.14335251E-05 0.467773438
vt 0.0944824219 0.538574219
vt 0.111938477 0.530273438
vt 0.021270752 0.508300781
vt 0.0823974609 0.541503906
vt 0.0679931641 0.539550781
vn -0 1 0
vn -0 1 0
vn -0 1 0
vn -0 1 0
vn -0 1 0
vn -0 1 0
vn 0.307617188 0.865234375 -0.396484375
vn 0.562011719 0.498046875 -0.66015625
vn 0.597167969 0.513183594 -0.616699219
vn 0.371826172 0.869140625 -0.325927734
vn -0.0289764404 0.999023438 -0.0272369385
vn 0.698730469 0.494628906 -0.517089844
vn 0.0511779785 0.997558594 0.0461425781
vn 0.541992188 0.82421875 -0.163574219
vn 0.816894531 0.412353516 -0.403320312
vn 0.246582031 0.942382812 0.22644043
vn 0.730957031 0.682128906 0.0176544189
vn 0.460205078 0.777832031 0.427978516
vn 0.915527344 0.261474609 -0.305175781
vn 0.885742188 0.432373047 0.169189453
vn 0.634277344 0.493164062 0.595214844
vn 0.962890625 0.114257812 0.245361328
vn 0.963867188 0.0655517578 -0.258300781
vn 0.721679688 0.132080078 0.6796875
vn 0.956054688 -0.121337891 -0.266845703
vn 0.952148438 -0.19519043 0.234375
vn 0.709960938 -0.220581055 0.668945312
vn 0.904296875 -0.283203125 -0.319580078
vn 0.87109375 -0.466796875 0.15222168
vn 0.618164062 -0.531738281 0.579101562
vn 0.819335938 -0.408203125 -0.402587891
vn 0.734863281 -0.677734375 0.0199890137
vn 0.464111328 -0.772949219 0.432373047
vn 0.71875 -0.484863281 -0.498535156
vn 0.572265625 -0.809082031 -0.133666992
vn 0.280761719 -0.923339844 0.26171875
vn 0.627929688 -0.512695312 -0.585449219
vn 0.427734375 -0.862792969 -0.270019531
vn 0.588378906 -0.513671875 -0.624023438
vn 0.117492676 -0.986328125 0.114013672
vn 0.366455078 -0.870605469 -0.327880859
vn 0.0484008789 -0.997558594 0.054107666
vn 0.627929688 -0.512695312 -0.585449219
vn 0.654785156 -0.0184326172 -0.755371094
vn 0.588378906 -0.513671875 -0.624023438
vn 0.6640625 -0.0231781006 -0.747070312
vn 0.71875 -0.484863281 -0.498535156
vn 0.545898438 0.483886719 -0.684082031
vn 0.680175781 -0.0250701904 -0.732421875
vn 0.819335938 -0.408203125 -0.402587891
vn 0.524414062 0.476806641 -0.705566406
vn 0.2890625 0.856445312 -0.427490234
vn 0.693847656 -0.0194091797 -0.719726562
vn 0.904296875 -0.283203125 -0.319580078
vn 0.244262695 0.848632812 -0.46875
vn -0.0464172363 0.997558594 -0.0546875
vn -0.101989746 0.989257812 -0.104370117
vn 0.466308594 0.451904297 -0.760253906
vn 0.1328125 0.810546875 -0.5703125
vn -0.236938477 0.944824219 -0.225219727
vn 0.702636719 -0.0104446411 -0.711425781
vn 0.956054688 -0.121337891 -0.266845703
vn 0.391357422 0.395263672 -0.831054688
vn -0.00527191162 0.715820312 -0.698242188
vn -0.399902344 0.836425781 -0.375
vn 0.707519531 -0.0034866333 -0.70703125
vn 0.963867188 0.0655517578 -0.258300781
vn 0.317626953 0.294921875 -0.901367188
vn -0.141235352 0.544921875 -0.826171875
vn -0.559082031 0.641601562 -0.524902344
vn 0.709472656 0.00365829468 -0.705078125
vn 0.915527344 0.261474609 -0.305175781
vn 0.264648438 0.14440918 -0.953613281
vn -0.244873047 0.283203125 -0.927246094
vn -0.684570312 0.342285156 -0.643554688
vn 0.708984375 0.0162506104 -0.705078125
vn 0.816894531 0.412353516 -0.403320312
vn 0.256103516 -0.0446166992 -0.965820312
vn -0.271484375 -0.0612487793 -0.960449219
vn -0.727050781 -0.0590515137 -0.684082031
vn 0.696289062 0.0211639404 -0.717285156
vn 0.698730469 0.494628906 -0.517089844
vn 0.31640625 -0.246582031 -0.916015625
vn -0.161987305 -0.460693359 -0.872558594
vn -0.610351562 -0.546386719 -0.573242188
vn 0.68359375 0.0246276855 -0.729492188
vn 0.597167969 0.513183594 -0.616699219
vn 0.408203125 -0.40234375 -0.819335938
vn 0.0342407227 -0.743652344 -0.66796875
vn -0.351318359 -0.876464844 -0.328613281
vn 0.671875 0.0145797729 -0.740722656
vn 0.562011719 0.498046875 -0.66015625
vn 0.667480469 -0.00380134583 -0.744628906
vn 0.511230469 -0.469238281 -0.720214844
vn 0.231201172 -0.846679688 -0.479003906
vn -0.112731934 -0.987792969 -0.106262207
vn 0.579101562 -0.493164062 -0.648925781
vn 0.595214844 -0.501953125 -0.627441406
vn 0.343261719 -0.865234375 -0.365966797
vn 0.01612854 -1 0.0129852295
vn 0.365234375 -0.864746094 -0.344238281
vn 0.0372924805 -0.999023438 0.0317382812
vn -0.101989746 0.989257812 -0.104370117
vn -0.369384766 0.867675781 0.333007812
vn -0.0464172363 0.997558594 -0.0546875
vn -0.423095703 0.859375 0.286621094
vn -0.236938477 0.944824219 -0.225219727
vn -0.591796875 0.502441406 0.629882812
vn -0.550292969 0.81640625 0.174316406
vn -0.399902344 0.836425781 -0.375
vn -0.629394531 0.494140625 0.600097656
vn -0.654296875 0.00234031677 0.756347656
vn -0.69921875 0.713867188 0.0382385254
vn -0.559082031 0.641601562 -0.524902344
vn -0.659667969 -0.00476455688 0.751953125
vn -0.540039062 -0.496582031 0.679199219
vn -0.713378906 0.461669922 0.52734375
vn -0.838378906 0.537109375 -0.0928344727
vn -0.684570312 0.342285156 -0.643554688
vn -0.508300781 -0.498046875 0.702148438
vn -0.282714844 -0.861328125 0.422119141
vn -0.805175781 0.393066406 0.444091797
vn -0.668457031 -0.0143280029 0.743652344
vn -0.941894531 0.277587891 -0.189819336
vn -0.727050781 -0.0590515137 -0.684082031
vn -0.223632812 -0.854492188 0.468505859
vn 0.0484008789 -0.997558594 0.054107666
vn 0.117492676 -0.986328125 0.114013672
vn -0.884765625 0.283935547 0.369140625
vn -0.671386719 -0.0196685791 0.741210938
vn -0.433837891 -0.475830078 0.765136719
vn -0.0850830078 -0.804199219 0.588378906
vn 0.280761719 -0.923339844 0.26171875
vn -0.975097656 -0.0586853027 -0.213500977
vn -0.610351562 -0.546386719 -0.573242188
vn -0.937988281 0.136962891 0.318847656
vn -0.34375 -0.406982422 0.846191406
vn 0.0725708008 -0.676757812 0.732910156
vn 0.464111328 -0.772949219 0.432373047
vn -0.669433594 -0.0186920166 0.742675781
vn -0.884277344 -0.454101562 -0.109008789
vn -0.351318359 -0.876464844 -0.328613281
vn 0.207519531 -0.468505859 0.858886719
vn 0.618164062 -0.531738281 0.579101562
vn -0.263183594 -0.287597656 0.920898438
vn -0.665527344 -0.00950622559 0.74609375
vn -0.94921875 -0.0422058105 0.312255859
vn -0.668457031 -0.739746094 0.0770263672
vn -0.112731934 -0.987792969 -0.106262207
vn 0.290283203 -0.196899414 0.936523438
vn 0.709960938 -0.220581055 0.668945312
vn -0.21081543 -0.12512207 0.969238281
vn -0.897460938 -0.238891602 0.370849609
vn -0.662109375 0.00455856323 0.749511719
vn -0.458251953 -0.84765625 0.267822266
vn 0.01612854 -1 0.0129852295
vn 0.302490234 0.113952637 0.946289062
vn 0.721679688 0.132080078 0.6796875
vn -0.200805664 0.0654296875 0.977539062
vn -0.660644531 0.0211181641 0.75
vn -0.793945312 -0.395751953 0.461425781
vn -0.326904297 -0.866210938 0.378173828
vn 0.0372924805 -0.999023438 0.0317382812
vn -0.299072266 -0.865722656 0.400878906
vn 0.224975586 0.432861328 0.873046875
vn 0.634277344 0.493164062 0.595214844
vn -0.247192383 0.263427734 0.932617188
vn -0.668457031 0.0261993408 0.743164062
vn -0.676269531 -0.468261719 0.568359375
vn -0.585449219 -0.494384766 0.642578125
vn -0.555175781 -0.50390625 0.661621094
vn 0.0703735352 0.682617188 0.727050781
vn 0.460205078 0.777832031 0.427978516
vn -0.344238281 0.414550781 0.842285156
vn -0.669921875 0.0258789062 0.7421875
vn -0.66796875 0.0139007568 0.744140625
vn -0.665039062 -0.00493621826 0.746582031
vn -0.455566406 0.494873047 0.739746094
vn -0.116638184 0.82421875 0.553710938
vn 0.246582031 0.942382812 0.22644043
vn -0.552246094 0.512695312 0.657226562
vn -0.59375 0.498291016 0.631835938
vn -0.286132812 0.869140625 0.403076172
vn 0.0511779785 0.997558594 0.0461425781
vn -0.359130859 0.865722656 0.348632812
vn -0.0289764404 0.999023438 -0.0272369385
vn 0.0486450195 -0.968261719 -0.245849609
vn -0.0409240723 -0.968261719 -0.247192383
vn -0.124694824 -0.968261719 -0.217407227
vn 0.13269043 -0.968261719 -0.212768555
vn -0.192504883 -0.968261719 -0.160522461
vn 0.198730469 -0.968261719 -0.152832031
vn -0.236206055 -0.968261719 -0.0837402344
vn 0.238769531 -0.968261719 -0.0756225586
vn -0.25 -0.968261719 0.0029296875
vn 0.24987793 -0.968261719 0.00955963135
vn -0.233886719 -0.968261719 0.0880126953
vn 0.231201172 -0.968261719 0.0931396484
vn -0.190307617 -0.968261719 0.160766602
vn 0.185180664 -0.96875 0.166137695
vn -0.126464844 -0.96875 0.214233398
vn 0.116760254 -0.96875 0.21887207
vn -0.0482788086 -0.96875 0.243408203
vn 0.035736084 -0.96875 0.245239258
vn 0.116760254 -0.96875 0.21887207
vn 0.462158203 -0.783691406 0.415283203
vn 0.185180664 -0.96875 0.166137695
vn 0.291748047 -0.784179688 0.547363281
vn 0.035736084 -0.96875 0.245239258
vn 0.664550781 -0.447753906 0.598144531
vn 0.0897216797 -0.784179688 0.613769531
vn -0.0482788086 -0.96875 0.243408203
vn 0.420410156 -0.448730469 0.788574219
vn 0.739257812 -0.107177734 0.664550781
vn -0.120422363 -0.783691406 0.609375
vn -0.126464844 -0.96875 0.214233398
vn 0.129394531 -0.448486328 0.884277344
vn 0.467773438 -0.108398438 0.876953125
vn -0.315917969 -0.782714844 0.536132812
vn -0.190307617 -0.968261719 0.160766602
vn 0.456054688 0.242797852 0.856445312
vn 0.720703125 0.243286133 0.648925781
vn 0.604003906 0.583007812 0.543457031
vn -0.173095703 -0.447753906 0.877441406
vn 0.144042969 -0.108825684 0.983398438
vn -0.475585938 -0.782226562 0.402099609
vn -0.233886719 -0.968261719 0.0880126953
vn 0.381835938 0.583984375 0.716308594
vn 0.410888672 0.833496094 0.369140625
vn -0.454101562 -0.447021484 0.770996094
vn -0.583496094 -0.781738281 0.219604492
vn -0.25 -0.968261719 0.0029296875
vn 0.14050293 0.24230957 0.959960938
vn 0.259277344 0.834472656 0.486572266
vn 0.0308532715 0.999023438 0.0272216797
vn -0.192504883 -0.108459473 0.975097656
vn -0.683105469 -0.446289062 0.577636719
vn -0.623535156 -0.781738281 0.00735473633
vn -0.236206055 -0.968261719 -0.0837402344
vn 0.117553711 0.583496094 0.803222656
vn -0.18762207 0.241821289 0.952148438
vn -0.504882812 -0.10760498 0.856445312
vn -0.837402344 -0.446044922 0.315429688
vn -0.4921875 0.241821289 0.836425781
vn -0.157348633 0.582519531 0.797363281
vn 0.0797119141 0.834472656 0.545410156
vn -0.759765625 -0.106384277 0.641601562
vn -0.740722656 0.242431641 0.626953125
vn -0.412841797 0.581542969 0.700683594
vn 0.0191955566 0.999023438 0.035736084
vn -0.376464844 0.862304688 -0.338623047
vn -0.107055664 0.833984375 0.541503906
vn -0.237915039 0.862792969 -0.446533203
vn -0.682128906 0.398925781 -0.612792969
vn 0.00562286377 0.999023438 0.0397949219
vn -0.0733032227 0.862304688 -0.500976562
vn -0.431396484 0.399169922 -0.809082031
vn -0.743652344 4.17232513E-06 -0.668457031
vn -0.470458984 5.7220459E-06 -0.882324219
vn -0.144775391 6.73532486E-06 -0.989257812
vn -0.00801086426 0.999023438 0.0390014648
vn -0.280761719 0.833007812 0.476318359
vn -0.132568359 0.398925781 -0.907226562
vn 0.0982666016 0.861816406 -0.498046875
vn 0.177856445 0.397949219 -0.899902344
vn 0.193603516 7.03334808E-06 -0.980957031
vn -0.0204772949 0.999023438 0.0342102051
vn -0.621582031 0.581054688 0.525390625
vn 0.258056641 0.860839844 -0.438232422
vn 0.466064453 0.397216797 -0.790527344
vn 0.5078125 6.49690628E-06 -0.861816406
vn 0.763671875 5.06639481E-06 -0.645507812
vn 0.388916016 0.860351562 -0.328857422
vn -0.422851562 0.832519531 0.357421875
vn -0.907226562 0.243530273 0.342285156
vn 0.701171875 0.396728516 -0.592773438
vn 0.858886719 0.397216797 -0.323242188
vn 0.936035156 2.92062759E-06 -0.352294922
vn -0.0304718018 0.999023438 0.0255737305
vn -0.76171875 0.580566406 0.286865234
vn -0.930664062 -0.104919434 0.350097656
vn 0.476074219 0.860839844 -0.179321289
vn 0.91796875 0.396972656 -0.0108184814
vn 1 2.38418579E-07 -0.0118103027
vn -0.0384216309 0.999023438 0.0143432617
vn -0.518554688 0.832519531 0.1953125
vn -0.969238281 0.244995117 0.0120239258
vn 0.508789062 0.860839844 -0.00600814819
vn 0.864746094 0.397460938 0.306396484
vn 0.942382812 -2.44379044E-06 0.333984375
vn -0.0411376953 0.999023438 0.000454187393
vn 0.479492188 0.860839844 0.169799805
vn -0.814453125 0.580566406 0.0096206665
vn -0.5546875 0.83203125 0.00653457642
vn 0.704589844 0.397216797 0.587890625
vn 0.768066406 -4.64916229E-06 0.640625
vn -0.522949219 0.83203125 -0.185302734
vn 0.390869141 0.860839844 0.325927734
vn 0.456298828 0.397216797 0.795898438
vn 0.497314453 -6.19888306E-06 0.867675781
vn 0.162963867 -6.85453415E-06 0.986816406
vn -0.0393676758 0.999023438 -0.0140609741
vn -0.0319824219 0.999023438 -0.0267181396
vn 0.252929688 0.860839844 0.44140625
vn -0.0209197998 0.999023438 -0.0363464355
vn -0.426269531 0.83203125 -0.35546875
vn 0.082824707 0.861328125 0.501464844
vn 0.149658203 0.397705078 0.905273438
vn -0.178222656 0.398193359 0.899902344
vn -0.194335938 -6.67572021E-06 0.980957031
vn -0.276123047 0.83203125 -0.481445312
vn -0.0986328125 0.861328125 0.498046875
vn -0.485107422 0.397949219 0.778808594
vn -0.528808594 -5.7220459E-06 0.848632812
vn -0.792480469 -4.11272049E-06 0.610351562
vn -0.268554688 0.861328125 0.430908203
vn -0.00694656372 0.999023438 -0.0413818359
vn 0.00818634033 0.999023438 -0.0415344238
vn 0.022567749 0.999023438 -0.0359191895
vn -0.403320312 0.860839844 0.310791016
vn -0.727539062 0.396972656 0.560058594
vn -0.0904541016 0.83203125 -0.547363281
vn 0.107727051 0.83203125 -0.543945312
vn -0.875488281 0.396240234 0.277099609
vn -0.953125 -2.08616257E-06 0.301757812
vn 0.293457031 0.83203125 -0.470947266
vn -0.486328125 0.860351562 0.153930664
vn -0.917480469 0.396728516 -0.035736084
vn -0.999023438 0 -0.0392456055
vn -0.927246094 2.2649765E-06 -0.375
vn -0.509277344 0.860351562 -0.0200042725
vn 0.158203125 0.580566406 -0.798339844
vn 0.430419922 0.580566406 -0.690917969
vn -0.13269043 0.580566406 -0.803222656
vn -0.405029297 0.580078125 -0.706542969
vn -0.625488281 0.580078125 -0.521972656
vn -0.767578125 0.580078125 -0.271972656
vn -0.913574219 0.246459961 -0.322998047
vn -0.744140625 0.247680664 -0.620117188
vn -0.481933594 0.248779297 -0.840332031
vn -0.157836914 0.249511719 -0.955566406
vn 0.188354492 0.249511719 -0.949707031
vn -0.994628906 -0.103271484 0.0112304688
vn -0.9375 -0.101623535 -0.332519531
vn -0.895019531 -0.445800781 0.0105819702
vn -0.84375 -0.445556641 -0.298828125
vn -0.763671875 -0.100158691 -0.637695312
vn -0.162109375 -0.0986938477 -0.981933594
vn -0.587890625 -0.78125 -0.208374023
vn -0.192504883 -0.968261719 -0.160522461
vn -0.479248047 -0.78125 -0.399658203
vn -0.124694824 -0.968261719 -0.217407227
vn -0.6875 -0.4453125 -0.573242188
vn -0.310302734 -0.78125 -0.541503906
vn -0.0409240723 -0.968261719 -0.247192383
vn -0.494628906 -0.0991210938 -0.86328125
vn -0.4453125 -0.4453125 -0.776855469
vn -0.145874023 -0.445556641 -0.883300781
vn -0.10168457 -0.781738281 -0.615234375
vn 0.0486450195 -0.968261719 -0.245849609
vn 0.121154785 -0.781738281 -0.611816406
vn 0.13269043 -0.968261719 -0.212768555
vn 0.173950195 -0.445800781 -0.877929688
vn 0.329833984 -0.781738281 -0.529296875
vn 0.198730469 -0.968261719 -0.152832031
vn 0.193237305 -0.0988769531 -0.976074219
vn 0.494628906 -0.78125 -0.380859375
vn 0.238769531 -0.968261719 -0.0756225586
vn 0.473388672 -0.445800781 -0.759765625
vn 0.512207031 0.248779297 -0.821777344
vn 0.595214844 -0.78125 -0.188476562
vn 0.24987793 -0.968261719 0.00955963135
vn 0.709472656 -0.4453125 -0.546386719
vn 0.525878906 -0.0994873047 -0.844726562
vn 0.623535156 -0.781738281 0.0243377686
vn 0.231201172 -0.968261719 0.0931396484
vn 0.788085938 -0.100402832 -0.607421875
vn 0.854003906 -0.445068359 -0.270263672
vn 0.768066406 0.247314453 -0.590820312
vn 0.645507812 0.579589844 -0.497070312
vn 0.924316406 0.245727539 -0.291992188
vn 0.948242188 -0.101745605 -0.30078125
vn 0.439941406 0.831542969 -0.338623047
vn 0.776855469 0.579589844 -0.24597168
vn 0.0330810547 0.999023438 -0.0252227783
vn 0.529296875 0.831542969 -0.167602539
vn 0.0390625 0.999023438 -0.0124130249
vn 0.96875 0.244506836 0.0387573242
vn 0.89453125 -0.445556641 0.0352172852
vn 0.813964844 0.580078125 0.0319519043
vn 0.040802002 0.999023438 0.00127506256
vn 0.554199219 0.83203125 0.0215911865
vn 0.993652344 -0.103515625 0.0386352539
vn 0.829589844 -0.446533203 0.335693359
vn 0.921875 -0.105407715 0.372558594
vn 0.898925781 0.243774414 0.364257812
vn 0.754394531 0.581542969 0.304931641
vn -0.471191406 0.861328125 -0.190551758
vn 0.513183594 0.833007812 0.207275391
vn 0.720703125 0.243286133 0.648925781
vn 0.604003906 0.583007812 0.543457031
vn 0.739257812 -0.107177734 0.664550781
vn 0.664550781 -0.447753906 0.598144531
vn 0.410888672 0.833496094 0.369140625
vn 0.462158203 -0.783691406 0.415283203
vn 0.0378417969 0.999023438 0.014831543
vn 0.0308532715 0.999023438 0.0272216797
vn -0.376464844 0.862304688 -0.338623047
vn 0.577148438 -0.782714844 0.233276367
vn 0.185180664 -0.96875 0.166137695
vn -0.850585938 0.397460938 -0.34375
vn -0.682128906 0.398925781 -0.612792969
vn -0.743652344 4.17232513E-06 -0.668457031
vn -0 1 0
vn -0 1 0
vn -0 1 0
vn -0 1 0
vn -0 1 0
vn -0 1 0
vn -0 1 0
vn -0 1 0
vn -0 1 0
vn -0 1 0
vn -0 1 0
vn -0 1 0
vn -0 1 0
vn -0 1 0
vn -0 1 0
vn -0 1 0
vn -0 1 0
vn -0 1 0
g S_Cup_01_0
f 3/3/3 2/2/2 1/1/1
f 6/6/6 5/5/5 4/4/4
f 9/9/9 8/8/8 7/7/7
f 10/10/10 9/9/9 7/7/7
f 10/10/10 7/7/7 11/11/11
f 12/12/12 9/9/9 10/10/10
f 13/13/13 10/10/10 11/11/11
f 14/14/14 12/12/12 10/10/10
f 14/14/14 10/10/10 13/13/13
f 15/15/15 12/12/12 14/14/14
f 16/16/16 14/14/14 13/13/13
f 17/17/17 15/15/15 14/14/14
f 17/17/17 14/14/14 16/16/16
f 18/18/18 17/17/17 16/16/16
f 19/19/19 15/15/15 17/17/17
f 20/20/20 17/17/17 18/18/18
f 20/20/20 19/19/19 17/17/17
f 21/21/21 20/20/20 18/18/18
f 19/19/19 20/20/20 22/22/22
f 22/22/22 20/20/20 21/21/21
f 23/23/23 19/19/19 22/22/22
f 24/24/24 22/22/22 21/21/21
f 25/25/25 23/23/23 22/22/22
f 26/26/26 22/22/22 24/24/24
f 26/26/26 25/25/25 22/22/22
f 27/27/27 26/26/26 24/24/24
f 28/28/28 25/25/25 26/26/26
f 29/29/29 26/26/26 27/27/27
f 29/29/29 28/28/28 26/26/26
f 30/30/30 29/29/29 27/27/27
f 31/31/31 28/28/28 29/29/29
f 32/32/32 29/29/29 30/30/30
f 32/32/32 31/31/31 29/29/29
f 33/33/33 32/32/32 30/30/30
f 34/34/34 31/31/31 32/32/32
f 35/35/35 32/32/32 33/33/33
f 35/35/35 34/34/34 32/32/32
f 36/36/36 35/35/35 33/33/33
f 37/37/37 34/34/34 35/35/35
f 38/38/38 35/35/35 36/36/36
f 38/38/38 37/37/37 35/35/35
f 39/39/39 37/37/37 38/38/38
f 40/40/40 38/38/38 36/36/36
f 41/41/41 39/39/39 38/38/38
f 41/41/41 38/38/38 40/40/40
f 42/42/42 41/41/41 40/40/40
f 45/45/45 44/44/44 43/43/43
f 44/44/44 46/46/46 43/43/43
f 43/43/43 46/46/46 47/47/47
f 44/44/44 48/48/48 46/46/46
f 46/46/46 49/49/49 47/47/47
f 47/47/47 49/49/49 50/50/50
f 48/48/48 51/51/51 46/46/46
f 46/46/46 51/51/51 49/49/49
f 48/48/48 52/52/52 51/51/51
f 49/49/49 53/53/53 50/50/50
f 50/50/50 53/53/53 54/54/54
f 52/52/52 55/55/55 51/51/51
f 52/52/52 56/56/56 55/55/55
f 56/56/56 57/57/57 55/55/55
f 51/51/51 58/58/58 49/49/49
f 51/51/51 55/55/55 58/58/58
f 49/49/49 58/58/58 53/53/53
f 55/55/55 57/57/57 59/59/59
f 55/55/55 59/59/59 58/58/58
f 57/57/57 60/60/60 59/59/59
f 53/53/53 61/61/61 54/54/54
f 54/54/54 61/61/61 62/62/62
f 58/58/58 63/63/63 53/53/53
f 58/58/58 59/59/59 63/63/63
f 53/53/53 63/63/63 61/61/61
f 59/59/59 60/60/60 64/64/64
f 59/59/59 64/64/64 63/63/63
f 60/60/60 65/65/65 64/64/64
f 61/61/61 66/66/66 62/62/62
f 62/62/62 66/66/66 67/67/67
f 63/63/63 68/68/68 61/61/61
f 63/63/63 64/64/64 68/68/68
f 61/61/61 68/68/68 66/66/66
f 64/64/64 65/65/65 69/69/69
f 64/64/64 69/69/69 68/68/68
f 65/65/65 70/70/70 69/69/69
f 66/66/66 71/71/71 67/67/67
f 67/67/67 71/71/71 72/72/72
f 68/68/68 73/73/73 66/66/66
f 68/68/68 69/69/69 73/73/73
f 66/66/66 73/73/73 71/71/71
f 69/69/69 70/70/70 74/74/74
f 69/69/69 74/74/74 73/73/73
f 70/70/70 75/75/75 74/74/74
f 71/71/71 76/76/76 72/72/72
f 72/72/72 76/76/76 77/77/77
f 73/73/73 78/78/78 71/71/71
f 73/73/73 74/74/74 78/78/78
f 71/71/71 78/78/78 76/76/76
f 74/74/74 75/75/75 79/79/79
f 74/74/74 79/79/79 78/78/78
f 75/75/75 80/80/80 79/79/79
f 76/76/76 81/81/81 77/77/77
f 77/77/77 81/81/81 82/82/82
f 78/78/78 83/83/83 76/76/76
f 78/78/78 79/79/79 83/83/83
f 76/76/76 83/83/83 81/81/81
f 79/79/79 80/80/80 84/84/84
f 79/79/79 84/84/84 83/83/83
f 80/80/80 85/85/85 84/84/84
f 81/81/81 86/86/86 82/82/82
f 82/82/82 86/86/86 87/87/87
f 83/83/83 88/88/88 81/81/81
f 83/83/83 84/84/84 88/88/88
f 81/81/81 88/88/88 86/86/86
f 84/84/84 85/85/85 89/89/89
f 84/84/84 89/89/89 88/88/88
f 85/85/85 90/90/90 89/89/89
f 86/86/86 91/91/91 87/87/87
f 87/87/87 91/91/91 92/92/92
f 91/91/91 93/93/93 92/92/92
f 88/88/88 94/94/94 86/86/86
f 88/88/88 89/89/89 94/94/94
f 86/86/86 94/94/94 91/91/91
f 89/89/89 90/90/90 95/95/95
f 89/89/89 95/95/95 94/94/94
f 90/90/90 96/96/96 95/95/95
f 91/91/91 97/97/97 93/93/93
f 94/94/94 97/97/97 91/91/91
f 94/94/94 95/95/95 97/97/97
f 97/97/97 98/98/98 93/93/93
f 95/95/95 96/96/96 99/99/99
f 95/95/95 99/99/99 97/97/97
f 97/97/97 99/99/99 98/98/98
f 96/96/96 100/100/100 99/99/99
f 99/99/99 101/101/101 98/98/98
f 99/99/99 100/100/100 101/101/101
f 100/100/100 102/102/102 101/101/101
f 105/105/105 104/104/104 103/103/103
f 104/104/104 106/106/106 103/103/103
f 103/103/103 106/106/106 107/107/107
f 104/104/104 108/108/108 106/106/106
f 106/106/106 109/109/109 107/107/107
f 107/107/107 109/109/109 110/110/110
f 108/108/108 111/111/111 106/106/106
f 106/106/106 111/111/111 109/109/109
f 108/108/108 112/112/112 111/111/111
f 109/109/109 113/113/113 110/110/110
f 110/110/110 113/113/113 114/114/114
f 112/112/112 115/115/115 111/111/111
f 112/112/112 116/116/116 115/115/115
f 111/111/111 117/117/117 109/109/109
f 109/109/109 117/117/117 113/113/113
f 111/111/111 115/115/115 117/117/117
f 113/113/113 118/118/118 114/114/114
f 114/114/114 118/118/118 119/119/119
f 116/116/116 120/120/120 115/115/115
f 116/116/116 121/121/121 120/120/120
f 117/117/117 122/122/122 113/113/113
f 113/113/113 122/122/122 118/118/118
f 115/115/115 123/123/123 117/117/117
f 115/115/115 120/120/120 123/123/123
f 117/117/117 123/123/123 122/122/122
f 118/118/118 124/124/124 119/119/119
f 119/119/119 124/124/124 125/125/125
f 121/121/121 126/126/126 120/120/120
f 121/121/121 127/127/127 126/126/126
f 127/127/127 128/128/128 126/126/126
f 122/122/122 129/129/129 118/118/118
f 118/118/118 129/129/129 124/124/124
f 123/123/123 130/130/130 122/122/122
f 122/122/122 130/130/130 129/129/129
f 120/120/120 131/131/131 123/123/123
f 120/120/120 126/126/126 131/131/131
f 123/123/123 131/131/131 130/130/130
f 126/126/126 128/128/128 132/132/132
f 126/126/126 132/132/132 131/131/131
f 128/128/128 133/133/133 132/132/132
f 124/124/124 134/134/134 125/125/125
f 125/125/125 134/134/134 135/135/135
f 129/129/129 136/136/136 124/124/124
f 124/124/124 136/136/136 134/134/134
f 131/131/131 137/137/137 130/130/130
f 131/131/131 132/132/132 137/137/137
f 132/132/132 133/133/133 138/138/138
f 132/132/132 138/138/138 137/137/137
f 133/133/133 139/139/139 138/138/138
f 130/130/130 140/140/140 129/129/129
f 130/130/130 137/137/137 140/140/140
f 129/129/129 140/140/140 136/136/136
f 134/134/134 141/141/141 135/135/135
f 135/135/135 141/141/141 142/142/142
f 138/138/138 139/139/139 143/143/143
f 139/139/139 144/144/144 143/143/143
f 137/137/137 138/138/138 145/145/145
f 137/137/137 145/145/145 140/140/140
f 138/138/138 143/143/143 145/145/145
f 140/140/140 146/146/146 136/136/136
f 140/140/140 145/145/145 146/146/146
f 136/136/136 147/147/147 134/134/134
f 134/134/134 147/147/147 141/141/141
f 136/136/136 146/146/146 147/147/147
f 141/141/141 148/148/148 142/142/142
f 142/142/142 148/148/148 149/149/149
f 143/143/143 144/144/144 150/150/150
f 144/144/144 151/151/151 150/150/150
f 145/145/145 143/143/143 152/152/152
f 145/145/145 152/152/152 146/146/146
f 143/143/143 150/150/150 152/152/152
f 147/147/147 153/153/153 141/141/141
f 141/141/141 153/153/153 148/148/148
f 146/146/146 154/154/154 147/147/147
f 146/146/146 152/152/152 154/154/154
f 147/147/147 154/154/154 153/153/153
f 148/148/148 155/155/155 149/149/149
f 149/149/149 155/155/155 156/156/156
f 150/150/150 151/151/151 157/157/157
f 151/151/151 158/158/158 157/157/157
f 152/152/152 150/150/150 159/159/159
f 152/152/152 159/159/159 154/154/154
f 150/150/150 157/157/157 159/159/159
f 154/154/154 160/160/160 153/153/153
f 154/154/154 159/159/159 160/160/160
f 153/153/153 161/161/161 148/148/148
f 148/148/148 161/161/161 155/155/155
f 153/153/153 160/160/160 161/161/161
f 155/155/155 162/162/162 156/156/156
f 156/156/156 162/162/162 163/163/163
f 162/162/162 164/164/164 163/163/163
f 157/157/157 158/158/158 165/165/165
f 158/158/158 166/166/166 165/165/165
f 159/159/159 157/157/157 167/167/167
f 159/159/159 167/167/167 160/160/160
f 157/157/157 165/165/165 167/167/167
f 160/160/160 168/168/168 161/161/161
f 160/160/160 167/167/167 168/168/168
f 161/161/161 169/169/169 155/155/155
f 155/155/155 169/169/169 162/162/162
f 161/161/161 168/168/168 169/169/169
f 162/162/162 170/170/170 164/164/164
f 169/169/169 170/170/170 162/162/162
f 170/170/170 171/171/171 164/164/164
f 165/165/165 166/166/166 172/172/172
f 166/166/166 173/173/173 172/172/172
f 167/167/167 165/165/165 174/174/174
f 167/167/167 174/174/174 168/168/168
f 165/165/165 172/172/172 174/174/174
f 168/168/168 175/175/175 169/169/169
f 169/169/169 175/175/175 170/170/170
f 168/168/168 174/174/174 175/175/175
f 170/170/170 176/176/176 171/171/171
f 175/175/175 176/176/176 170/170/170
f 176/176/176 177/177/177 171/171/171
f 174/174/174 178/178/178 175/175/175
f 174/174/174 172/172/172 178/178/178
f 175/175/175 178/178/178 176/176/176
f 172/172/172 173/173/173 179/179/179
f 172/172/172 179/179/179 178/178/178
f 173/173/173 180/180/180 179/179/179
f 176/176/176 181/181/181 177/177/177
f 178/178/178 181/181/181 176/176/176
f 178/178/178 179/179/179 181/181/181
f 181/181/181 182/182/182 177/177/177
f 179/179/179 180/180/180 183/183/183
f 179/179/179 183/183/183 181/181/181
f 181/181/181 183/183/183 182/182/182
f 180/180/180 184/184/184 183/183/183
f 183/183/183 185/185/185 182/182/182
f 183/183/183 184/184/184 185/185/185
f 184/184/184 186/186/186 185/185/185
f 189/189/189 188/188/188 187/187/187
f 187/187/187 190/190/190 189/189/189
f 190/190/190 191/191/191 189/189/189
f 190/190/190 192/192/192 191/191/191
f 192/192/192 193/193/193 191/191/191
f 192/192/192 194/194/194 193/193/193
f 194/194/194 195/195/195 193/193/193
f 194/194/194 196/196/196 195/195/195
f 196/196/196 197/197/197 195/195/195
f 196/196/196 198/198/198 197/197/197
f 198/198/198 199/199/199 197/197/197
f 198/198/198 200/200/200 199/199/199
f 200/200/200 201/201/201 199/199/199
f 200/200/200 202/202/202 201/201/201
f 202/202/202 203/203/203 201/201/201
f 202/202/202 204/204/204 203/203/203
f 207/207/207 206/206/206 205/205/205
f 206/206/206 208/208/208 205/205/205
f 205/205/205 208/208/208 209/209/209
f 206/206/206 210/210/210 208/208/208
f 208/208/208 211/211/211 209/209/209
f 209/209/209 211/211/211 212/212/212
f 210/210/210 213/213/213 208/208/208
f 210/210/210 214/214/214 213/213/213
f 211/211/211 215/215/215 212/212/212
f 212/212/212 215/215/215 216/216/216
f 217/217/217 211/211/211 208/208/208
f 213/213/213 217/217/217 208/208/208
f 211/211/211 217/217/217 215/215/215
f 214/214/214 218/218/218 213/213/213
f 213/213/213 218/218/218 217/217/217
f 215/215/215 219/219/219 216/216/216
f 216/216/216 219/219/219 220/220/220
f 221/221/221 218/218/218 214/214/214
f 222/222/222 221/221/221 214/214/214
f 222/222/222 223/223/223 221/221/221
f 217/217/217 224/224/224 215/215/215
f 215/215/215 224/224/224 219/219/219
f 218/218/218 225/225/225 217/217/217
f 225/225/225 218/218/218 221/221/221
f 217/217/217 225/225/225 224/224/224
f 219/219/219 226/226/226 220/220/220
f 220/220/220 226/226/226 227/227/227
f 223/223/223 228/228/228 221/221/221
f 223/223/223 229/229/229 228/228/228
f 224/224/224 230/230/230 219/219/219
f 219/219/219 230/230/230 226/226/226
f 226/226/226 231/231/231 227/227/227
f 227/227/227 231/231/231 232/232/232
f 233/233/233 225/225/225 221/221/221
f 221/221/221 228/228/228 233/233/233
f 229/229/229 234/234/234 228/228/228
f 229/229/229 235/235/235 234/234/234
f 225/225/225 236/236/236 224/224/224
f 224/224/224 236/236/236 230/230/230
f 230/230/230 237/237/237 226/226/226
f 226/226/226 237/237/237 231/231/231
f 231/231/231 238/238/238 232/232/232
f 232/232/232 238/238/238 239/239/239
f 228/228/228 240/240/240 233/233/233
f 228/228/228 234/234/234 240/240/240
f 233/233/233 241/241/241 225/225/225
f 241/241/241 236/236/236 225/225/225
f 233/233/233 240/240/240 241/241/241
f 236/236/236 242/242/242 230/230/230
f 230/230/230 242/242/242 237/237/237
f 237/237/237 243/243/243 231/231/231
f 231/231/231 243/243/243 238/238/238
f 241/241/241 244/244/244 236/236/236
f 244/244/244 242/242/242 236/236/236
f 240/240/240 245/245/245 241/241/241
f 241/241/241 245/245/245 244/244/244
f 234/234/234 246/246/246 240/240/240
f 240/240/240 246/246/246 245/245/245
f 242/242/242 247/247/247 237/237/237
f 237/237/237 247/247/247 243/243/243
f 244/244/244 248/248/248 242/242/242
f 248/248/248 247/247/247 242/242/242
f 245/245/245 249/249/249 244/244/244
f 244/244/244 249/249/249 248/248/248
f 234/234/234 250/250/250 246/246/246
f 235/235/235 250/250/250 234/234/234
f 235/235/235 251/251/251 250/250/250
f 246/246/246 252/252/252 245/245/245
f 245/245/245 252/252/252 249/249/249
f 251/251/251 253/253/253 250/250/250
f 251/251/251 254/254/254 253/253/253
f 250/250/250 255/255/255 246/246/246
f 246/246/246 255/255/255 252/252/252
f 253/253/253 256/256/256 250/250/250
f 256/256/256 255/255/255 250/250/250
f 254/254/254 257/257/257 253/253/253
f 253/253/253 257/257/257 256/256/256
f 254/254/254 258/258/258 257/257/257
f 258/258/258 259/259/259 257/257/257
f 259/259/259 260/260/260 257/257/257
f 255/255/255 261/261/261 252/252/252
f 255/255/255 256/256/256 261/261/261
f 252/252/252 262/262/262 249/249/249
f 252/252/252 261/261/261 262/262/262
f 257/257/257 263/263/263 256/256/256
f 260/260/260 263/263/263 257/257/257
f 256/256/256 264/264/264 261/261/261
f 256/256/256 263/263/263 264/264/264
f 263/263/263 260/260/260 265/265/265
f 263/263/263 265/265/265 264/264/264
f 260/260/260 266/266/266 265/265/265
f 261/261/261 264/264/264 267/267/267
f 261/261/261 267/267/267 262/262/262
f 249/249/249 262/262/262 268/268/268
f 249/249/249 268/268/268 248/248/248
f 264/264/264 265/265/265 269/269/269
f 264/264/264 269/269/269 267/267/267
f 265/265/265 266/266/266 270/270/270
f 265/265/265 270/270/270 269/269/269
f 266/266/266 271/271/271 270/270/270
f 271/271/271 272/272/272 270/270/270
f 269/269/269 270/270/270 273/273/273
f 269/269/269 273/273/273 267/267/267
f 262/262/262 267/267/267 274/274/274
f 262/262/262 274/274/274 268/268/268
f 248/248/248 268/268/268 275/275/275
f 248/248/248 275/275/275 247/247/247
f 272/272/272 276/276/276 270/270/270
f 270/270/270 276/276/276 273/273/273
f 276/276/276 272/272/272 277/277/277
f 272/272/272 278/278/278 277/277/277
f 267/267/267 279/279/279 274/274/274
f 273/273/273 279/279/279 267/267/267
f 268/268/268 274/274/274 280/280/280
f 268/268/268 280/280/280 275/275/275
f 275/275/275 281/281/281 247/247/247
f 247/247/247 281/281/281 243/243/243
f 273/273/273 276/276/276 282/282/282
f 276/276/276 277/277/277 282/282/282
f 277/277/277 278/278/278 283/283/283
f 278/278/278 284/284/284 283/283/283
f 279/279/279 273/273/273 285/285/285
f 273/273/273 282/282/282 285/285/285
f 274/274/274 279/279/279 286/286/286
f 279/279/279 285/285/285 286/286/286
f 274/274/274 286/286/286 280/280/280
f 275/275/275 280/280/280 287/287/287
f 275/275/275 287/287/287 281/281/281
f 282/282/282 277/277/277 288/288/288
f 277/277/277 283/283/283 288/288/288
f 283/283/283 284/284/284 289/289/289
f 284/284/284 290/290/290 289/289/289
f 285/285/285 282/282/282 291/291/291
f 282/282/282 288/288/288 291/291/291
f 288/288/288 283/283/283 292/292/292
f 283/283/283 289/289/289 292/292/292
f 288/288/288 292/292/292 291/291/291
f 280/280/280 286/286/286 293/293/293
f 280/280/280 293/293/293 287/287/287
f 286/286/286 285/285/285 294/294/294
f 285/285/285 291/291/291 294/294/294
f 286/286/286 294/294/294 293/293/293
f 289/289/289 290/290/290 295/295/295
f 290/290/290 296/296/296 295/295/295
f 294/294/294 291/291/291 297/297/297
f 294/294/294 297/297/297 293/293/293
f 292/292/292 289/289/289 298/298/298
f 289/289/289 295/295/295 298/298/298
f 295/295/295 296/296/296 299/299/299
f 296/296/296 300/300/300 299/299/299
f 300/300/300 301/301/301 299/299/299
f 292/292/292 302/302/302 291/291/291
f 291/291/291 302/302/302 297/297/297
f 302/302/302 292/292/292 303/303/303
f 292/292/292 298/298/298 303/303/303
f 298/298/298 295/295/295 304/304/304
f 295/295/295 299/299/299 304/304/304
f 298/298/298 304/304/304 305/305/305
f 303/303/303 298/298/298 305/305/305
f 302/302/302 303/303/303 306/306/306
f 297/297/297 302/302/302 306/306/306
f 304/304/304 299/299/299 307/307/307
f 304/304/304 307/307/307 305/305/305
f 301/301/301 308/308/308 299/299/299
f 299/299/299 308/308/308 307/307/307
f 308/308/308 301/301/301 309/309/309
f 301/301/301 310/310/310 309/309/309
f 303/303/303 305/305/305 311/311/311
f 306/306/306 303/303/303 311/311/311
f 307/307/307 308/308/308 312/312/312
f 308/308/308 309/309/309 312/312/312
f 309/309/309 310/310/310 313/313/313
f 310/310/310 314/314/314 313/313/313
f 314/314/314 315/315/315 313/313/313
f 312/312/312 309/309/309 316/316/316
f 309/309/309 313/313/313 316/316/316
f 307/307/307 317/317/317 305/305/305
f 307/307/307 312/312/312 318/318/318
f 317/317/317 307/307/307 318/318/318
f 312/312/312 316/316/316 319/319/319
f 318/318/318 312/312/312 319/319/319
f 316/316/316 313/313/313 320/320/320
f 316/316/316 320/320/320 319/319/319
f 315/315/315 321/321/321 313/313/313
f 313/313/313 321/321/321 320/320/320
f 305/305/305 317/317/317 322/322/322
f 311/311/311 305/305/305 322/322/322
f 317/317/317 318/318/318 323/323/323
f 322/322/322 317/317/317 323/323/323
f 321/321/321 315/315/315 324/324/324
f 315/315/315 325/325/325 324/324/324
f 318/318/318 319/319/319 326/326/326
f 323/323/323 318/318/318 326/326/326
f 320/320/320 321/321/321 327/327/327
f 321/321/321 324/324/324 327/327/327
f 324/324/324 325/325/325 328/328/328
f 325/325/325 329/329/329 328/328/328
f 329/329/329 330/330/330 328/328/328
f 327/327/327 324/324/324 331/331/331
f 324/324/324 328/328/328 331/331/331
f 322/322/322 323/323/323 332/332/332
f 323/323/323 326/326/326 333/333/333
f 332/332/332 323/323/323 333/333/333
f 334/334/334 322/322/322 332/332/332
f 311/311/311 322/322/322 334/334/334
f 335/335/335 311/311/311 334/334/334
f 306/306/306 311/311/311 335/335/335
f 336/336/336 306/306/306 335/335/335
f 297/297/297 306/306/306 336/336/336
f 337/337/337 297/297/297 336/336/336
f 297/297/297 337/337/337 293/293/293
f 293/293/293 337/337/337 338/338/338
f 287/287/287 293/293/293 338/338/338
f 337/337/337 336/336/336 339/339/339
f 338/338/338 337/337/337 339/339/339
f 336/336/336 335/335/335 340/340/340
f 339/339/339 336/336/336 340/340/340
f 335/335/335 334/334/334 341/341/341
f 340/340/340 335/335/335 341/341/341
f 334/334/334 332/332/332 342/342/342
f 341/341/341 334/334/334 342/342/342
f 287/287/287 338/338/338 343/343/343
f 287/287/287 343/343/343 281/281/281
f 338/338/338 339/339/339 344/344/344
f 338/338/338 344/344/344 343/343/343
f 281/281/281 343/343/343 345/345/345
f 243/243/243 281/281/281 345/345/345
f 243/243/243 345/345/345 238/238/238
f 345/345/345 343/343/343 346/346/346
f 345/345/345 346/346/346 238/238/238
f 343/343/343 344/344/344 346/346/346
f 339/339/339 347/347/347 344/344/344
f 339/339/339 340/340/340 347/347/347
f 341/341/341 348/348/348 340/340/340
f 341/341/341 342/342/342 348/348/348
f 346/346/346 349/349/349 238/238/238
f 238/238/238 349/349/349 239/239/239
f 239/239/239 349/349/349 350/350/350
f 349/349/349 351/351/351 350/350/350
f 349/349/349 346/346/346 351/351/351
f 350/350/350 351/351/351 352/352/352
f 346/346/346 344/344/344 353/353/353
f 346/346/346 353/353/353 351/351/351
f 344/344/344 347/347/347 353/353/353
f 351/351/351 354/354/354 352/352/352
f 351/351/351 353/353/353 354/354/354
f 352/352/352 354/354/354 355/355/355
f 340/340/340 356/356/356 347/347/347
f 348/348/348 356/356/356 340/340/340
f 353/353/353 347/347/347 357/357/357
f 347/347/347 356/356/356 357/357/357
f 353/353/353 357/357/357 354/354/354
f 357/357/357 356/356/356 358/358/358
f 357/357/357 358/358/358 354/354/354
f 356/356/356 348/348/348 358/358/358
f 354/354/354 359/359/359 355/355/355
f 358/358/358 359/359/359 354/354/354
f 355/355/355 359/359/359 360/360/360
f 359/359/359 361/361/361 360/360/360
f 359/359/359 358/358/358 361/361/361
f 360/360/360 361/361/361 362/362/362
f 358/358/358 348/348/348 363/363/363
f 358/358/358 363/363/363 361/361/361
f 361/361/361 364/364/364 362/362/362
f 361/361/361 363/363/363 364/364/364
f 362/362/362 364/364/364 365/365/365
f 348/348/348 366/366/366 363/363/363
f 342/342/342 366/366/366 348/348/348
f 364/364/364 367/367/367 365/365/365
f 365/365/365 367/367/367 368/368/368
f 363/363/363 369/369/369 364/364/364
f 363/363/363 366/366/366 369/369/369
f 342/342/342 370/370/370 366/366/366
f 342/342/342 332/332/332 370/370/370
f 332/332/332 333/333/333 370/370/370
f 367/367/367 371/371/371 368/368/368
f 368/368/368 371/371/371 372/372/372
f 373/373/373 367/367/367 364/364/364
f 369/369/369 373/373/373 364/364/364
f 367/367/367 373/373/373 371/371/371
f 366/366/366 374/374/374 369/369/369
f 370/370/370 374/374/374 366/366/366
f 369/369/369 374/374/374 373/373/373
f 371/371/371 375/375/375 372/372/372
f 372/372/372 375/375/375 376/376/376
f 377/377/377 374/374/374 370/370/370
f 374/374/374 377/377/377 373/373/373
f 373/373/373 378/378/378 371/371/371
f 371/371/371 378/378/378 375/375/375
f 373/373/373 377/377/377 378/378/378
f 370/370/370 333/333/333 379/379/379
f 379/379/379 377/377/377 370/370/370
f 333/333/333 380/380/380 379/379/379
f 333/333/333 326/326/326 380/380/380
f 379/379/379 381/381/381 377/377/377
f 379/379/379 380/380/380 381/381/381
f 377/377/377 382/382/382 378/378/378
f 381/381/381 382/382/382 377/377/377
f 326/326/326 383/383/383 380/380/380
f 326/326/326 319/319/319 383/383/383
f 380/380/380 384/384/384 381/381/381
f 380/380/380 383/383/383 384/384/384
f 319/319/319 385/385/385 383/383/383
f 320/320/320 385/385/385 319/319/319
f 383/383/383 385/385/385 386/386/386
f 383/383/383 386/386/386 384/384/384
f 385/385/385 320/320/320 387/387/387
f 385/385/385 387/387/387 386/386/386
f 320/320/320 327/327/327 387/387/387
f 381/381/381 384/384/384 388/388/388
f 381/381/381 388/388/388 382/382/382
f 378/378/378 382/382/382 389/389/389
f 378/378/378 389/389/389 375/375/375
f 384/384/384 386/386/386 390/390/390
f 384/384/384 390/390/390 388/388/388
f 387/387/387 327/327/327 391/391/391
f 327/327/327 331/331/331 391/391/391
f 386/386/386 387/387/387 392/392/392
f 386/386/386 392/392/392 390/390/390
f 387/387/387 391/391/391 392/392/392
f 382/382/382 393/393/393 389/389/389
f 388/388/388 393/393/393 382/382/382
f 389/389/389 394/394/394 375/375/375
f 389/389/389 393/393/393 394/394/394
f 395/395/395 393/393/393 388/388/388
f 393/393/393 395/395/395 394/394/394
f 388/388/388 390/390/390 396/396/396
f 396/396/396 395/395/395 388/388/388
f 390/390/390 392/392/392 397/397/397
f 390/390/390 397/397/397 396/396/396
f 331/331/331 398/398/398 391/391/391
f 331/331/331 328/328/328 398/398/398
f 392/392/392 391/391/391 399/399/399
f 392/392/392 399/399/399 397/397/397
f 396/396/396 397/397/397 400/400/400
f 396/396/396 400/400/400 395/395/395
f 397/397/397 401/401/401 400/400/400
f 397/397/397 399/399/399 401/401/401
f 400/400/400 402/402/402 395/395/395
f 395/395/395 402/402/402 403/403/403
f 394/394/394 395/395/395 403/403/403
f 399/399/399 404/404/404 401/401/401
f 394/394/394 403/403/403 405/405/405
f 391/391/391 406/406/406 399/399/399
f 399/399/399 406/406/406 404/404/404
f 406/406/406 407/407/407 404/404/404
f 398/398/398 406/406/406 391/391/391
f 406/406/406 398/398/398 407/407/407
f 398/398/398 408/408/408 407/407/407
f 409/409/409 394/394/394 405/405/405
f 409/409/409 405/405/405 410/410/410
f 394/394/394 409/409/409 375/375/375
f 376/376/376 409/409/409 410/410/410
f 375/375/375 409/409/409 376/376/376
f 398/398/398 411/411/411 408/408/408
f 328/328/328 411/411/411 398/398/398
f 411/411/411 412/412/412 408/408/408
f 330/330/330 411/411/411 328/328/328
f 411/411/411 330/330/330 412/412/412
f 330/330/330 413/413/413 412/412/412
f 416/416/416 415/415/415 414/414/414
f 416/416/416 417/417/417 415/415/415
f 417/417/417 418/418/418 415/415/415
f 417/417/417 419/419/419 418/418/418
f 419/419/419 420/420/420 418/418/418
f 419/419/419 421/421/421 420/420/420
f 421/421/421 422/422/422 420/420/420
f 421/421/421 423/423/423 422/422/422
f 423/423/423 424/424/424 422/422/422
f 423/423/423 425/425/425 424/424/424
f 428/428/428 427/427/427 426/426/426
f 427/427/427 429/429/429 426/426/426
f 427/427/427 430/430/430 429/429/429
f 430/430/430 431/431/431 429/429/429
