g S_NapkinStand
v -0.1944374 0.00242481288 -0.21674718
v -0.188569367 0.00242481288 -0.2257936
v -0.188569367 0.0416324884 -0.2257936
v -0.1944374 0.0416324884 -0.21674718
v -0.197764084 0.00242481288 -0.206490263
v -0.197764084 0.0416324884 -0.206490263
v -0.198729873 0.00242481288 -0.195693448
v -0.198729873 0.0416324884 -0.195693448
v -0.197115719 0.00242481288 0.196623221
v -0.197115719 0.0416324884 0.196623221
v -0.196061149 0.00242481288 0.207411706
v -0.196061149 0.0416324884 0.207411706
v -0.192650154 0.00242481311 0.217640907
v -0.192650154 0.0416324884 0.217640907
v -0.186707914 0.00242481288 0.226638749
v -0.186707914 0.0416324884 0.226638749
v -0.188569367 0.00242481288 -0.2257936
v -0.180559933 0.0416324884 -0.233012974
v -0.188569367 0.0416324884 -0.2257936
v -0.180559933 0.00242481288 -0.233012974
v -0.170954853 0.0416324884 -0.23791343
v -0.170954853 0.00242481288 -0.23791343
v -0.160408765 0.0416324884 -0.240160838
v -0.160408765 0.00242481288 -0.240160838
v 0.090304926 0.0416324697 -0.24115558
v 0.090304926 0.00242481707 -0.24115558
v 0.101101652 0.0416324697 -0.24018991
v 0.101101652 0.00242481707 -0.24018991
v 0.111358672 0.0416324697 -0.23686336
v 0.111358672 0.00242481707 -0.23686336
v 0.120405041 0.0416324697 -0.230995193
v 0.120405041 0.00242481707 -0.230995193
v -0.157100052 0.0447522476 -0.23746188
v 0.0932329744 0.0447522551 -0.238048077
v 0.103394479 0.0447522551 -0.236752734
v -0.167250589 0.0447522476 -0.236083061
v 0.112683646 0.0447522551 -0.232949629
v -0.176508114 0.0447522476 -0.232203752
v 0.120672062 0.0447522551 -0.226872057
v -0.184446216 0.0447522476 -0.226060614
v 0.12681517 0.0447522551 -0.218934059
v -0.190523863 0.0447522476 -0.218072176
v 0.130694583 0.0447522551 -0.20967637
v -0.194326833 0.0447522476 -0.20878309
v 0.132073343 0.0447522551 -0.199525997
v -0.195622131 0.0447522476 -0.198621556
v 0.133711442 0.0447522551 0.198621377
v -0.193984002 0.0447522476 0.199525669
v 0.132416278 0.0447522551 0.208782762
v -0.192605153 0.0447522476 0.209676161
v 0.128613174 0.0447522551 0.218071818
v -0.188725844 0.0447522476 0.218933716
v 0.122535586 0.0447522551 0.226060346
v -0.182582676 0.0447522476 0.226871803
v 0.114597462 0.0447522551 0.232203454
v -0.174594328 0.0447522476 0.232949436
v 0.105340019 0.0447522551 0.236082852
v -0.165305197 0.0447522476 0.236752406
v 0.0951893851 0.0447522551 0.237461731
v -0.155143604 0.0447522476 0.238047704
v 0.120405041 0.00242481707 -0.230995193
v 0.127624497 0.0416324697 -0.222985715
v 0.120405041 0.0416324697 -0.230995193
v 0.127624497 0.00242481707 -0.222985715
v 0.132524863 0.0416324697 -0.213380679
v 0.132524863 0.00242481707 -0.213380679
v 0.134772301 0.0416324697 -0.202834427
v 0.134772301 0.00242481707 -0.202834427
v 0.136819229 0.0416324697 0.195693105
v 0.136819229 0.00242481707 0.195693105
v 0.135853425 0.0416324697 0.20649007
v 0.135853425 0.00242481707 0.20649007
v 0.13252677 0.0416324697 0.216746837
v 0.13252677 0.00242481707 0.216746837
v 0.126658708 0.0416324697 0.225793228
v 0.126658708 0.00242481707 0.225793228
v 0.126658708 0.00242481707 0.225793228
v 0.118649252 0.0416324697 0.233012676
v 0.126658708 0.0416324697 0.225793228
v 0.118649252 0.00242481707 0.233012676
v 0.109044187 0.0416324697 0.237913027
v 0.109044187 0.00242481707 0.237913027
v 0.0984980837 0.0416324697 0.240160599
v 0.0984980837 0.00242481707 0.240160599
v -0.158430025 0.0416324884 0.240773782
v -0.158430025 0.00242481288 0.240773782
v -0.168994233 0.0416324884 0.238613203
v -0.168994233 0.00242481311 0.238613203
v -0.178639337 0.0416324884 0.233791992
v -0.178639337 0.00242481288 0.233791992
v -0.186707914 0.0416324884 0.226638749
v -0.186707914 0.00242481288 0.226638749
v -0.184446216 -0.000694942602 -0.226060614
v -0.188569367 0.00242481288 -0.2257936
v -0.1944374 0.00242481288 -0.21674718
v -0.190523863 -0.000694942602 -0.218072176
v -0.197764084 0.00242481288 -0.206490263
v -0.194326833 -0.000694942602 -0.20878309
v -0.198729873 0.00242481288 -0.195693448
v -0.195622131 -0.000694942602 -0.198621556
v -0.197115719 0.00242481288 0.196623221
v -0.193984002 -0.000694942602 0.199525669
v -0.196061149 0.00242481288 0.207411706
v -0.192605153 -0.000694942602 0.209676161
v -0.192650154 0.00242481311 0.217640907
v -0.188725844 -0.000694942602 0.218933716
v -0.186707914 0.00242481288 0.226638749
v -0.182582676 -0.000694942602 0.226871803
v -0.176508114 -0.000694942602 -0.232203752
v -0.188569367 0.00242481288 -0.2257936
v -0.184446216 -0.000694942602 -0.226060614
v -0.180559933 0.00242481288 -0.233012974
v -0.167250589 -0.000694942602 -0.236083061
v -0.170954853 0.00242481288 -0.23791343
v -0.157100052 -0.000694942602 -0.23746188
v -0.160408765 0.00242481288 -0.240160838
v 0.0932329744 -0.00069496542 -0.238048077
v 0.090304926 0.00242481707 -0.24115558
v 0.103394479 -0.00069496542 -0.236752734
v 0.101101652 0.00242481707 -0.24018991
v 0.112683646 -0.00069496542 -0.232949629
v 0.111358672 0.00242481707 -0.23686336
v 0.120672062 -0.00069496542 -0.226872057
v 0.120405041 0.00242481707 -0.230995193
v 0.12681517 -0.00069496542 -0.218934059
v 0.120405041 0.00242481707 -0.230995193
v 0.120672062 -0.00069496542 -0.226872057
v 0.127624497 0.00242481707 -0.222985715
v 0.130694583 -0.00069496542 -0.20967637
v 0.132524863 0.00242481707 -0.213380679
v 0.132073343 -0.00069496542 -0.199525997
v 0.134772301 0.00242481707 -0.202834427
v 0.133711442 -0.00069496542 0.198621377
v 0.136819229 0.00242481707 0.195693105
v 0.132416278 -0.00069496542 0.208782762
v 0.135853425 0.00242481707 0.20649007
v 0.128613174 -0.00069496542 0.218071818
v 0.13252677 0.00242481707 0.216746837
v 0.122535586 -0.00069496542 0.226060346
v 0.126658708 0.00242481707 0.225793228
v -0.182582676 -0.000694942602 0.226871803
v -0.186707914 0.00242481288 0.226638749
v -0.178639337 0.00242481288 0.233791992
v -0.174594328 -0.000694942602 0.232949436
v -0.168994233 0.00242481311 0.238613203
v -0.165305197 -0.000694942602 0.236752406
v -0.158430025 0.00242481288 0.240773782
v -0.155143604 -0.000694942602 0.238047704
v 0.0984980837 0.00242481707 0.240160599
v 0.0951893851 -0.00069496542 0.237461731
v 0.109044187 0.00242481707 0.237913027
v 0.105340019 -0.00069496542 0.236082852
v 0.118649252 0.00242481707 0.233012676
v 0.114597462 -0.00069496542 0.232203454
v 0.126658708 0.00242481707 0.225793228
v 0.122535586 -0.00069496542 0.226060346
v 0.103394479 -0.00069496542 -0.236752734
v 0.0932329744 -0.00069496542 -0.238048077
v -0.157100052 -0.000694942602 -0.23746188
v -0.167250589 -0.000694942602 -0.236083061
v 0.112683646 -0.00069496542 -0.232949629
v -0.176508114 -0.000694942602 -0.232203752
v 0.120672062 -0.00069496542 -0.226872057
v -0.184446216 -0.000694942602 -0.226060614
v 0.12681517 -0.00069496542 -0.218934059
v -0.190523863 -0.000694942602 -0.218072176
v 0.130694583 -0.00069496542 -0.20967637
v -0.194326833 -0.000694942602 -0.20878309
v 0.132073343 -0.00069496542 -0.199525997
v -0.195622131 -0.000694942602 -0.198621556
v 0.133711442 -0.00069496542 0.198621377
v -0.193984002 -0.000694942602 0.199525669
v 0.132416278 -0.00069496542 0.208782762
v -0.192605153 -0.000694942602 0.209676161
v 0.128613174 -0.00069496542 0.218071818
v -0.188725844 -0.000694942602 0.218933716
v 0.122535586 -0.00069496542 0.226060346
v -0.182582676 -0.000694942602 0.226871803
v 0.114597462 -0.00069496542 0.232203454
v -0.174594328 -0.000694942602 0.232949436
v 0.105340019 -0.00069496542 0.236082852
v -0.165305197 -0.000694942602 0.236752406
v 0.0951893851 -0.00069496542 0.237461731
v -0.155143604 -0.000694942602 0.238047704
v 0.12742278 0.070098117 -0.0843204185
v 0.0980804116 0.0452715568 -0.0874766409
v 0.127409309 0.0452715568 -0.087597318
v 0.0980938897 0.070098117 -0.0841997489
v 0.127462313 0.0932326764 -0.0747133046
v 0.0981334075 0.0932326764 -0.074592635
v 0.127525181 0.113098808 -0.0594304539
v 0.0981974602 0.113098808 -0.059309788
v 0.127607122 0.128342628 -0.0395133421
v 0.0982782319 0.128342628 -0.0393926725
v 0.127702534 0.137925386 -0.0163195152
v 0.098373659 0.137925386 -0.0161988474
v 0.12780495 0.141193807 0.0085706301
v 0.0984760672 0.141193807 0.00869129878
v 0.127907351 0.137925386 0.0334607773
v 0.098578468 0.137925386 0.0335814469
v 0.128002778 0.128342628 0.0566545948
v 0.0986739025 0.128342628 0.0567752644
v 0.128084719 0.113098808 0.076571703
v 0.0987570062 0.113098808 0.0766923651
v 0.128147602 0.0932326764 0.0918545574
v 0.0988187268 0.0932326764 0.091975227
v 0.128187135 0.070098117 0.101461664
v 0.0988582596 0.070098117 0.101582333
v 0.12820062 0.0452715568 0.104738563
v 0.0988717377 0.0452715568 0.104859233
v 0.0933417231 0.0689712763 0.0973889232
v 0.0933545977 0.0452715531 0.100516878
v 0.0929768905 0.0452715568 0.00871392339
v 0.0933039933 0.0910557657 0.0882176384
v 0.0932451263 0.11002028 0.0736284927
v 0.0931657404 0.12457224 0.0546154976
v 0.0930746421 0.133719921 0.0324743539
v 0.0929768831 0.136840075 0.00871392339
v 0.092879124 0.133719921 -0.0150465043
v 0.0927880257 0.12457224 -0.0371876433
v 0.0927109718 0.11002028 -0.056200657
v 0.0926497802 0.0910557657 -0.0707897842
v 0.0926120579 0.0689712763 -0.0799610764
v 0.0925991908 0.0452715568 -0.0830890387
v -0.155929223 0.0452715382 -0.0815271959
v -0.161446333 0.0452715382 -0.0858694613
v -0.19077526 0.0452715345 -0.0857487917
v -0.196256459 0.0452715345 -0.0813612714
v -0.155551508 0.0452715419 0.0102758426
v -0.195878744 0.0452715382 0.0104417605
v -0.155173808 0.0452715345 0.102078885
v -0.195501044 0.0452715345 0.102244802
v -0.160654992 0.0452715345 0.106466405
v -0.189983919 0.0452715345 0.106587075
v 0.132926434 0.0452715568 -0.0832549632
v 0.133304149 0.0452715568 0.00854800455
v 0.132939294 0.0689712837 -0.0801270008
v 0.132977039 0.0910557657 -0.0709557086
v 0.13303706 0.11002028 -0.0563665703
v 0.133115292 0.12457224 -0.0373535641
v 0.133206367 0.133719921 -0.0152124222
v 0.133304134 0.136840075 0.00854800548
v 0.133401886 0.133719921 0.0323084332
v 0.133492991 0.12457224 0.0544495769
v 0.133571208 0.11002028 0.0734625757
v 0.133631229 0.0910557657 0.0880517066
v 0.133668974 0.0689712837 0.0972229913
v 0.133681834 0.0452715568 0.100350961
v 0.0933545977 0.0452715531 0.100516878
v 0.0988717377 0.0452715568 0.104859233
v 0.12820062 0.0452715568 0.104738563
v 0.133681834 0.0452715568 0.100350961
v 0.0929768905 0.0452715568 0.00871392339
v 0.133304149 0.0452715568 0.00854800455
v 0.0925991908 0.0452715568 -0.0830890387
v 0.132926434 0.0452715568 -0.0832549632
v 0.0980804116 0.0452715568 -0.0874766409
v 0.127409309 0.0452715568 -0.087597318
v -0.161432877 0.0700980797 -0.0825926214
v -0.19077526 0.0452715345 -0.0857487917
v -0.161446333 0.0452715382 -0.0858694613
v -0.19076179 0.0700980723 -0.0824719518
v -0.16139333 0.0932326615 -0.0729854181
v -0.190722257 0.0932326615 -0.0728647485
v -0.161330447 0.11309883 -0.0577025153
v -0.190658122 0.11309883 -0.0575818531
v -0.161248505 0.128342643 -0.0377855338
v -0.190577433 0.128342643 -0.0376648642
v -0.161153078 0.137925327 -0.0145916147
v -0.190482005 0.137925327 -0.0144709479
v -0.161050677 0.141193807 0.0102984607
v -0.190379575 0.141193807 0.0104191275
v -0.160948277 0.137925327 0.0351885557
v -0.190277189 0.137925327 0.0353092216
v -0.160852849 0.128342643 0.0583824664
v -0.190181762 0.128342643 0.0585031398
v -0.160770908 0.11309883 0.0782994628
v -0.190098584 0.11309883 0.0784201249
v -0.160708025 0.0932326615 0.0935823694
v -0.190036938 0.0932326615 0.093703039
v -0.160668477 0.0700980797 0.103189558
v -0.189997405 0.0700980723 0.103310227
v -0.160654992 0.0452715345 0.106466405
v -0.189983919 0.0452715345 0.106587075
v -0.195513889 0.0689712465 0.099116683
v -0.195501044 0.0452715345 0.102244802
v -0.195878744 0.0452715382 0.0104417605
v -0.195551634 0.0910557806 0.0899455398
v -0.195610479 0.110020265 0.0753562972
v -0.195689902 0.12457218 0.0563433096
v -0.195780978 0.133719921 0.0342021324
v -0.195878744 0.136840045 0.0104417522
v -0.195976496 0.133719921 -0.0133186039
v -0.196067601 0.12457218 -0.0354597829
v -0.196144655 0.110020265 -0.054472778
v -0.196205854 0.0910557806 -0.0690620169
v -0.196243584 0.0689712465 -0.0782331675
v -0.196256459 0.0452715345 -0.0813612714
v -0.155929223 0.0452715382 -0.0815271959
v -0.155551508 0.0452715419 0.0102758426
v -0.155916363 0.0689712465 -0.0783990845
v -0.155878618 0.0910557806 -0.0692279339
v -0.155818596 0.110020272 -0.0546386912
v -0.155740365 0.12457218 -0.0356257036
v -0.155649275 0.133719921 -0.0134845227
v -0.155551508 0.136840045 0.0102758361
v -0.155453756 0.133719921 0.0340362079
v -0.155362666 0.12457218 0.0561773926
v -0.155284435 0.110020272 0.0751903877
v -0.155224413 0.0910557806 0.0897796303
v -0.155186668 0.0689712465 0.098950766
v -0.155173808 0.0452715345 0.102078885
v 0.127409309 0.0452715568 -0.087597318
v 0.132926434 0.0452715568 -0.0832549632
v 0.132939294 0.0689712837 -0.0801270008
v 0.12742278 0.070098117 -0.0843204185
v 0.132977039 0.0910557657 -0.0709557086
v 0.127462313 0.0932326764 -0.0747133046
v 0.13303706 0.11002028 -0.0563665703
v 0.127525181 0.113098808 -0.0594304539
v 0.133115292 0.12457224 -0.0373535641
v 0.127607122 0.128342628 -0.0395133421
v 0.133206367 0.133719921 -0.0152124222
v 0.127702534 0.137925386 -0.0163195152
v 0.133304134 0.136840075 0.00854800548
v 0.12780495 0.141193807 0.0085706301
v 0.133401886 0.133719921 0.0323084332
v 0.127907351 0.137925386 0.0334607773
v 0.133492991 0.12457224 0.0544495769
v 0.128002778 0.128342628 0.0566545948
v 0.133571208 0.11002028 0.0734625757
v 0.128084719 0.113098808 0.076571703
v 0.133631229 0.0910557657 0.0880517066
v 0.128147602 0.0932326764 0.0918545574
v 0.133668974 0.0689712837 0.0972229913
v 0.128187135 0.070098117 0.101461664
v 0.133681834 0.0452715568 0.100350961
v 0.12820062 0.0452715568 0.104738563
v 0.0925991908 0.0452715568 -0.0830890387
v 0.0980804116 0.0452715568 -0.0874766409
v 0.0980938897 0.070098117 -0.0841997489
v 0.0926120579 0.0689712763 -0.0799610764
v 0.0981334075 0.0932326764 -0.074592635
v 0.0926497802 0.0910557657 -0.0707897842
v 0.0981974602 0.113098808 -0.059309788
v 0.0927109718 0.11002028 -0.056200657
v 0.0982782319 0.128342628 -0.0393926725
v 0.0927880257 0.12457224 -0.0371876433
v 0.098373659 0.137925386 -0.0161988474
v 0.092879124 0.133719921 -0.0150465043
v 0.0984760672 0.141193807 0.00869129878
v 0.0929768831 0.136840075 0.00871392339
v 0.098578468 0.137925386 0.0335814469
v 0.0930746421 0.133719921 0.0324743539
v 0.0986739025 0.128342628 0.0567752644
v 0.0931657404 0.12457224 0.0546154976
v 0.0987570062 0.113098808 0.0766923651
v 0.0932451263 0.11002028 0.0736284927
v 0.0988187268 0.0932326764 0.091975227
v 0.0933039933 0.0910557657 0.0882176384
v 0.0988582596 0.070098117 0.101582333
v 0.0933417231 0.0689712763 0.0973889232
v 0.0988717377 0.0452715568 0.104859233
v 0.0933545977 0.0452715531 0.100516878
v -0.161446333 0.0452715382 -0.0858694613
v -0.155929223 0.0452715382 -0.0815271959
v -0.155916363 0.0689712465 -0.0783990845
v -0.161432877 0.0700980797 -0.0825926214
v -0.155878618 0.0910557806 -0.0692279339
v -0.16139333 0.0932326615 -0.0729854181
v -0.155818596 0.110020272 -0.0546386912
v -0.161330447 0.11309883 -0.0577025153
v -0.155740365 0.12457218 -0.0356257036
v -0.161248505 0.128342643 -0.0377855338
v -0.155649275 0.133719921 -0.0134845227
v -0.161153078 0.137925327 -0.0145916147
v -0.155551508 0.136840045 0.0102758361
v -0.161050677 0.141193807 0.0102984607
v -0.155453756 0.133719921 0.0340362079
v -0.160948277 0.137925327 0.0351885557
v -0.155362666 0.12457218 0.0561773926
v -0.160852849 0.128342643 0.0583824664
v -0.155284435 0.110020272 0.0751903877
v -0.160770908 0.11309883 0.0782994628
v -0.155224413 0.0910557806 0.0897796303
v -0.160708025 0.0932326615 0.0935823694
v -0.155186668 0.0689712465 0.098950766
v -0.160668477 0.0700980797 0.103189558
v -0.155173808 0.0452715345 0.102078885
v -0.160654992 0.0452715345 0.106466405
v -0.196256459 0.0452715345 -0.0813612714
v -0.19077526 0.0452715345 -0.0857487917
v -0.19076179 0.0700980723 -0.0824719518
v -0.196243584 0.0689712465 -0.0782331675
v -0.190722257 0.0932326615 -0.0728647485
v -0.196205854 0.0910557806 -0.0690620169
v -0.190658122 0.11309883 -0.0575818531
v -0.196144655 0.110020265 -0.054472778
v -0.190577433 0.128342643 -0.0376648642
v -0.196067601 0.12457218 -0.0354597829
v -0.190482005 0.137925327 -0.0144709479
v -0.195976496 0.133719921 -0.0133186039
v -0.190379575 0.141193807 0.0104191275
v -0.195878744 0.136840045 0.0104417522
v -0.190277189 0.137925327 0.0353092216
v -0.195780978 0.133719921 0.0342021324
v -0.190181762 0.128342643 0.0585031398
v -0.195689902 0.12457218 0.0563433096
v -0.190098584 0.11309883 0.0784201249
v -0.195610479 0.110020265 0.0753562972
v -0.190036938 0.0932326615 0.093703039
v -0.195551634 0.0910557806 0.0899455398
v -0.189997405 0.0700980723 0.103310227
v -0.195513889 0.0689712465 0.099116683
v -0.189983919 0.0452715345 0.106587075
v -0.195501044 0.0452715345 0.102244802
v 0.128613174 0.0447522551 0.218071818
v 0.13252677 0.0416324697 0.216746837
v 0.126658708 0.0416324697 0.225793228
v 0.122535586 0.0447522551 0.226060346
v 0.132416278 0.0447522551 0.208782762
v 0.118649252 0.0416324697 0.233012676
v 0.135853425 0.0416324697 0.20649007
v 0.114597462 0.0447522551 0.232203454
v 0.133711442 0.0447522551 0.198621377
v 0.109044187 0.0416324697 0.237913027
v 0.136819229 0.0416324697 0.195693105
v 0.105340019 0.0447522551 0.236082852
v 0.132073343 0.0447522551 -0.199525997
v 0.0984980837 0.0416324697 0.240160599
v 0.134772301 0.0416324697 -0.202834427
v 0.0951893851 0.0447522551 0.237461731
v 0.130694583 0.0447522551 -0.20967637
v -0.158430025 0.0416324884 0.240773782
v 0.132524863 0.0416324697 -0.213380679
v -0.155143604 0.0447522476 0.238047704
v 0.12681517 0.0447522551 -0.218934059
v -0.168994233 0.0416324884 0.238613203
v 0.127624497 0.0416324697 -0.222985715
v -0.165305197 0.0447522476 0.236752406
v 0.120672062 0.0447522551 -0.226872057
v -0.178639337 0.0416324884 0.233791992
v 0.120405041 0.0416324697 -0.230995193
v -0.174594328 0.0447522476 0.232949436
v 0.112683646 0.0447522551 -0.232949629
v -0.186707914 0.0416324884 0.226638749
v 0.111358672 0.0416324697 -0.23686336
v -0.182582676 0.0447522476 0.226871803
v 0.103394479 0.0447522551 -0.236752734
v -0.192650154 0.0416324884 0.217640907
v 0.101101652 0.0416324697 -0.24018991
v -0.188725844 0.0447522476 0.218933716
v 0.0932329744 0.0447522551 -0.238048077
v -0.196061149 0.0416324884 0.207411706
v 0.090304926 0.0416324697 -0.24115558
v -0.192605153 0.0447522476 0.209676161
v -0.157100052 0.0447522476 -0.23746188
v -0.197115719 0.0416324884 0.196623221
v -0.160408765 0.0416324884 -0.240160838
v -0.193984002 0.0447522476 0.199525669
v -0.167250589 0.0447522476 -0.236083061
v -0.198729873 0.0416324884 -0.195693448
v -0.170954853 0.0416324884 -0.23791343
v -0.195622131 0.0447522476 -0.198621556
v -0.176508114 0.0447522476 -0.232203752
v -0.197764084 0.0416324884 -0.206490263
v -0.180559933 0.0416324884 -0.233012974
v -0.194326833 0.0447522476 -0.20878309
v -0.184446216 0.0447522476 -0.226060614
v -0.1944374 0.0416324884 -0.21674718
v -0.188569367 0.0416324884 -0.2257936
v -0.190523863 0.0447522476 -0.218072176
vt 0.671875 0.0867919922
vt 0.666503906 0.0653076172
vt 0.592285156 0.0916137695
vt 0.603515625 0.107910156
vt 0.676757812 0.107299805
vt 0.610351562 0.124206543
vt 0.6796875 0.128662109
vt 0.615234375 0.142456055
vt 0.682617188 0.712890625
vt 0.617675781 0.701660156
vt 0.680664062 0.733398438
vt 0.614746094 0.720214844
vt 0.677246094 0.75390625
vt 0.609863281 0.737792969
vt 0.673828125 0.774414062
vt 0.600097656 0.755859375
vt 0.609863281 0.0245513916
vt 0.575683594 0.0822143555
vt 0.592285156 0.0916137695
vt 0.591308594 0.0213623047
vt 0.559570312 0.0772094727
vt 0.573730469 0.0176849365
vt 0.543457031 0.0755615234
vt 0.556640625 0.0145187378
vt 0.149780273 0.0776367188
vt 0.138671875 0.0126724243
vt 0.131835938 0.0816040039
vt 0.119018555 0.0154190063
vt 0.114807129 0.0878295898
vt 0.0987548828 0.01902771
vt 0.0971069336 0.0986328125
vt 0.0771484375 0.0224151611
vt 0.538085938 0.0806884766
vt 0.145385742 0.0870361328
vt 0.12878418 0.0897827148
vt 0.553710938 0.0823364258
vt 0.113708496 0.0968017578
vt 0.568359375 0.0864257812
vt 0.100097656 0.109069824
vt 0.582519531 0.0946044922
vt 0.0908203125 0.124084473
vt 0.594726562 0.10736084
vt 0.0859375 0.139892578
vt 0.602050781 0.121704102
vt 0.0848388672 0.158081055
vt 0.60546875 0.138061523
vt 0.0877685547 0.712890625
vt 0.609375 0.706542969
vt 0.0904541016 0.729980469
vt 0.606933594 0.723632812
vt 0.0971679688 0.745117188
vt 0.600585938 0.739257812
vt 0.108398438 0.758789062
vt 0.589355469 0.75390625
vt 0.122375488 0.767578125
vt 0.575195312 0.763671875
vt 0.136962891 0.772460938
vt 0.560546875 0.76953125
vt 0.153198242 0.7734375
vt 0.543945312 0.771484375
vt 0.0255737305 0.0794067383
vt 0.0864868164 0.116516113
vt 0.0971069336 0.0986328125
vt 0.0219726562 0.0990600586
vt 0.0803222656 0.133422852
vt 0.0179595947 0.118103027
vt 0.0765380859 0.151611328
vt 0.0147628784 0.137451172
vt 0.078918457 0.708007812
vt 0.0140380859 0.720703125
vt 0.0823974609 0.727050781
vt 0.0163574219 0.741210938
vt 0.0883789062 0.743652344
vt 0.0203704834 0.76171875
vt 0.098449707 0.761230469
vt 0.0242614746 0.782714844
vt 0.0776367188 0.831054688
vt 0.115112305 0.771972656
vt 0.098449707 0.761230469
vt 0.0969238281 0.834960938
vt 0.131103516 0.777832031
vt 0.11541748 0.839355469
vt 0.147827148 0.780761719
vt 0.133544922 0.842773438
vt 0.549804688 0.778320312
vt 0.563476562 0.842285156
vt 0.566894531 0.774902344
vt 0.582519531 0.838867188
vt 0.583007812 0.767578125
vt 0.602050781 0.834472656
vt 0.600097656 0.755859375
vt 0.623046875 0.830566406
vt 0.674804688 0.0579528809
vt 0.666503906 0.0653076172
vt 0.671875 0.0867919922
vt 0.678710938 0.078918457
vt 0.676757812 0.107299805
vt 0.68359375 0.0993652344
vt 0.6796875 0.128662109
vt 0.688964844 0.121276855
vt 0.682617188 0.712890625
vt 0.691894531 0.719726562
vt 0.680664062 0.733398438
vt 0.687988281 0.740722656
vt 0.677246094 0.75390625
vt 0.684082031 0.760742188
vt 0.673828125 0.774414062
vt 0.682128906 0.780761719
vt 0.587890625 0.0131225586
vt 0.609863281 0.0245513916
vt 0.60546875 0.0163879395
vt 0.591308594 0.0213623047
vt 0.5703125 0.00952911377
vt 0.573730469 0.0176849365
vt 0.552246094 0.00704956055
vt 0.556640625 0.0145187378
vt 0.132324219 0.00510787964
vt 0.138671875 0.0126724243
vt 0.111877441 0.00819396973
vt 0.119018555 0.0154190063
vt 0.0915527344 0.0116043091
vt 0.0987548828 0.01902771
vt 0.0705566406 0.0137710571
vt 0.0771484375 0.0224151611
vt 0.013092041 0.102966309
vt 0.0255737305 0.0794067383
vt 0.0167694092 0.0841674805
vt 0.0219726562 0.0990600586
vt 0.00899505615 0.122070312
vt 0.0179595947 0.118103027
vt 0.00511169434 0.143188477
vt 0.0147628784 0.137451172
vt 0.00510787964 0.727539062
vt 0.0140380859 0.720703125
vt 0.00916290283 0.749023438
vt 0.0163574219 0.741210938
vt 0.0132141113 0.769042969
vt 0.0203704834 0.76171875
vt 0.0159301758 0.789550781
vt 0.0242614746 0.782714844
vt 0.618164062 0.83984375
vt 0.623046875 0.830566406
vt 0.602050781 0.834472656
vt 0.598144531 0.844238281
vt 0.582519531 0.838867188
vt 0.578125 0.848144531
vt 0.563476562 0.842285156
vt 0.55859375 0.850097656
vt 0.133544922 0.842773438
vt 0.138305664 0.850585938
vt 0.11541748 0.839355469
vt 0.119262695 0.848144531
vt 0.0969238281 0.834960938
vt 0.100585938 0.84375
vt 0.0776367188 0.831054688
vt 0.0822143555 0.83984375
vt 0.983398438 0.0843505859
vt 0.983886719 0.0816040039
vt 0.983886719 0.0152511597
vt 0.983398438 0.0125579834
vt 0.982421875 0.0867919922
vt 0.982421875 0.0101013184
vt 0.98046875 0.0888671875
vt 0.980957031 0.00798797607
vt 0.978515625 0.0905151367
vt 0.978515625 0.00637054443
vt 0.976074219 0.0915527344
vt 0.976074219 0.00535202026
vt 0.973632812 0.0918579102
vt 0.973632812 0.00499725342
vt 0.867675781 0.0918579102
vt 0.868164062 0.00499725342
vt 0.865234375 0.0915527344
vt 0.865234375 0.00535202026
vt 0.862792969 0.0905151367
vt 0.862792969 0.00637054443
vt 0.860351562 0.0888671875
vt 0.860839844 0.00798797607
vt 0.858886719 0.0867919922
vt 0.858886719 0.0101013184
vt 0.857910156 0.0843505859
vt 0.857910156 0.0125579834
vt 0.857421875 0.0816040039
vt 0.857910156 0.0152511597
vt 0.745117188 0.479492188
vt 0.7265625 0.420654297
vt 0.70703125 0.466308594
vt 0.765136719 0.437011719
vt 0.77734375 0.497314453
vt 0.804199219 0.458251953
vt 0.8046875 0.520507812
vt 0.83984375 0.486816406
vt 0.827148438 0.547851562
vt 0.866699219 0.523925781
vt 0.841796875 0.580078125
vt 0.886230469 0.564453125
vt 0.849121094 0.614746094
vt 0.896972656 0.609375
vt 0.848632812 0.650390625
vt 0.896972656 0.655761719
vt 0.839355469 0.685058594
vt 0.885742188 0.701660156
vt 0.822265625 0.717285156
vt 0.864746094 0.745117188
vt 0.798828125 0.74609375
vt 0.833496094 0.780273438
vt 0.768554688 0.76953125
vt 0.798828125 0.809570312
vt 0.731933594 0.7890625
vt 0.760253906 0.834960938
vt 0.692382812 0.940429688
vt 0.685058594 0.977050781
vt 0.829589844 0.981933594
vt 0.708007812 0.907226562
vt 0.730957031 0.878417969
vt 0.760742188 0.856933594
vt 0.795410156 0.843261719
vt 0.83203125 0.839355469
vt 0.868652344 0.844726562
vt 0.902832031 0.859375
vt 0.931640625 0.881835938
vt 0.954101562 0.911132812
vt 0.968261719 0.9453125
vt 0.974121094 0.981933594
vt 0.594726562 0.936523438
vt 0.6015625 0.928222656
vt 0.6015625 0.883300781
vt 0.594726562 0.875
vt 0.454833984 0.936523438
vt 0.454833984 0.875
vt 0.314941406 0.936523438
vt 0.314941406 0.875
vt 0.308349609 0.928222656
vt 0.308349609 0.883300781
vt 0.704101562 0.477783203
vt 0.701660156 0.627441406
vt 0.740722656 0.489257812
vt 0.771484375 0.505859375
vt 0.797851562 0.52734375
vt 0.818359375 0.553222656
vt 0.832519531 0.583007812
vt 0.839355469 0.615722656
vt 0.838378906 0.648925781
vt 0.830078125 0.681152344
vt 0.813964844 0.711425781
vt 0.791503906 0.73828125
vt 0.762695312 0.760253906
vt 0.727539062 0.77734375
vt 0.291503906 0.936523438
vt 0.298339844 0.928222656
vt 0.298339844 0.883300781
vt 0.291503906 0.875
vt 0.151611328 0.936523438
vt 0.151611328 0.875
vt 0.0116577148 0.936523438
vt 0.0116577148 0.875
vt 0.00500106812 0.928222656
vt 0.00500106812 0.883300781
vt 0.796875 0.396240234
vt 0.729980469 0.375244141
vt 0.7578125 0.421630859
vt 0.766601562 0.355712891
vt 0.83203125 0.366210938
vt 0.796875 0.332275391
vt 0.860351562 0.330566406
vt 0.820800781 0.304199219
vt 0.884277344 0.289550781
vt 0.836914062 0.271728516
vt 0.895019531 0.242675781
vt 0.846191406 0.236938477
vt 0.895019531 0.195556641
vt 0.847167969 0.201171875
vt 0.884765625 0.150268555
vt 0.83984375 0.166381836
vt 0.864257812 0.109436035
vt 0.824707031 0.134399414
vt 0.836425781 0.0747680664
vt 0.803222656 0.106384277
vt 0.802734375 0.0447998047
vt 0.775390625 0.0839233398
vt 0.763671875 0.0233306885
vt 0.743164062 0.0659179688
vt 0.724609375 0.00670623779
vt 0.705078125 0.0525817871
vt 0.738769531 0.0758056641
vt 0.702148438 0.0640869141
vt 0.69921875 0.213867188
vt 0.76953125 0.0924682617
vt 0.795898438 0.113525391
vt 0.81640625 0.139648438
vt 0.830566406 0.169677734
vt 0.836914062 0.202026367
vt 0.836425781 0.235473633
vt 0.827636719 0.268066406
vt 0.812011719 0.298339844
vt 0.789550781 0.324462891
vt 0.760742188 0.346435547
vt 0.725097656 0.364013672
vt 0.995117188 0.566894531
vt 0.995117188 0.422363281
vt 0.958007812 0.560546875
vt 0.924316406 0.546386719
vt 0.895019531 0.524414062
vt 0.872070312 0.495361328
vt 0.857421875 0.461425781
vt 0.852050781 0.424804688
vt 0.856445312 0.387695312
vt 0.869628906 0.353515625
vt 0.891601562 0.323730469
vt 0.919921875 0.300537109
vt 0.953613281 0.28515625
vt 0.989746094 0.277587891
vt 0.70703125 0.466308594
vt 0.704101562 0.477783203
vt 0.740722656 0.489257812
vt 0.745117188 0.479492188
vt 0.771484375 0.505859375
vt 0.77734375 0.497314453
vt 0.797851562 0.52734375
vt 0.8046875 0.520507812
vt 0.818359375 0.553222656
vt 0.827148438 0.547851562
vt 0.832519531 0.583007812
vt 0.841796875 0.580078125
vt 0.839355469 0.615722656
vt 0.849121094 0.614746094
vt 0.838378906 0.648925781
vt 0.848632812 0.650390625
vt 0.830078125 0.681152344
vt 0.839355469 0.685058594
vt 0.813964844 0.711425781
vt 0.822265625 0.717285156
vt 0.791503906 0.73828125
vt 0.798828125 0.74609375
vt 0.762695312 0.760253906
vt 0.768554688 0.76953125
vt 0.727539062 0.77734375
vt 0.731933594 0.7890625
vt 0.974121094 0.981933594
vt 0.985351562 0.980957031
vt 0.978515625 0.942382812
vt 0.968261719 0.9453125
vt 0.963378906 0.905761719
vt 0.954101562 0.911132812
vt 0.939453125 0.874511719
vt 0.931640625 0.881835938
vt 0.908691406 0.849609375
vt 0.902832031 0.859375
vt 0.872070312 0.833984375
vt 0.868652344 0.844726562
vt 0.832519531 0.828125
vt 0.83203125 0.839355469
vt 0.792480469 0.832519531
vt 0.795410156 0.843261719
vt 0.755371094 0.847167969
vt 0.760742188 0.856933594
vt 0.723632812 0.870605469
vt 0.730957031 0.878417969
vt 0.698730469 0.901367188
vt 0.708007812 0.907226562
vt 0.682128906 0.937011719
vt 0.692382812 0.940429688
vt 0.674316406 0.975585938
vt 0.685058594 0.977050781
vt 0.994140625 0.578125
vt 0.995117188 0.566894531
vt 0.958007812 0.560546875
vt 0.955078125 0.571289062
vt 0.924316406 0.546386719
vt 0.918945312 0.556152344
vt 0.895019531 0.524414062
vt 0.887207031 0.532226562
vt 0.872070312 0.495361328
vt 0.862792969 0.500976562
vt 0.857421875 0.461425781
vt 0.847167969 0.464599609
vt 0.852050781 0.424804688
vt 0.840820312 0.424804688
vt 0.856445312 0.387695312
vt 0.845703125 0.385009766
vt 0.869628906 0.353515625
vt 0.860351562 0.347900391
vt 0.891601562 0.323730469
vt 0.883789062 0.315917969
vt 0.919921875 0.300537109
vt 0.914550781 0.291015625
vt 0.953613281 0.28515625
vt 0.950195312 0.274658203
vt 0.989746094 0.277587891
vt 0.988769531 0.266845703
vt 0.725097656 0.364013672
vt 0.729980469 0.375244141
vt 0.766601562 0.355712891
vt 0.760742188 0.346435547
vt 0.796875 0.332275391
vt 0.789550781 0.324462891
vt 0.820800781 0.304199219
vt 0.812011719 0.298339844
vt 0.836914062 0.271728516
vt 0.827636719 0.268066406
vt 0.846191406 0.236938477
vt 0.836425781 0.235473633
vt 0.847167969 0.201171875
vt 0.836914062 0.202026367
vt 0.83984375 0.166381836
vt 0.830566406 0.169677734
vt 0.824707031 0.134399414
vt 0.81640625 0.139648438
vt 0.803222656 0.106384277
vt 0.795898438 0.113525391
vt 0.775390625 0.0839233398
vt 0.76953125 0.0924682617
vt 0.743164062 0.0659179688
vt 0.738769531 0.0758056641
vt 0.705078125 0.0525817871
vt 0.702148438 0.0640869141
vt 0.0971679688 0.745117188
vt 0.0883789062 0.743652344
vt 0.098449707 0.761230469
vt 0.108398438 0.758789062
vt 0.0904541016 0.729980469
vt 0.115112305 0.771972656
vt 0.0823974609 0.727050781
vt 0.122375488 0.767578125
vt 0.0877685547 0.712890625
vt 0.131103516 0.777832031
vt 0.078918457 0.708007812
vt 0.136962891 0.772460938
vt 0.0848388672 0.158081055
vt 0.147827148 0.780761719
vt 0.0765380859 0.151611328
vt 0.153198242 0.7734375
vt 0.0859375 0.139892578
vt 0.549804688 0.778320312
vt 0.0803222656 0.133422852
vt 0.543945312 0.771484375
vt 0.0908203125 0.124084473
vt 0.566894531 0.774902344
vt 0.0864868164 0.116516113
vt 0.560546875 0.76953125
vt 0.100097656 0.109069824
vt 0.583007812 0.767578125
vt 0.0971069336 0.0986328125
vt 0.575195312 0.763671875
vt 0.113708496 0.0968017578
vt 0.600097656 0.755859375
vt 0.114807129 0.0878295898
vt 0.589355469 0.75390625
vt 0.12878418 0.0897827148
vt 0.609863281 0.737792969
vt 0.131835938 0.0816040039
vt 0.600585938 0.739257812
vt 0.145385742 0.0870361328
vt 0.614746094 0.720214844
vt 0.149780273 0.0776367188
vt 0.606933594 0.723632812
vt 0.538085938 0.0806884766
vt 0.617675781 0.701660156
vt 0.543457031 0.0755615234
vt 0.609375 0.706542969
vt 0.553710938 0.0823364258
vt 0.615234375 0.142456055
vt 0.559570312 0.0772094727
vt 0.60546875 0.138061523
vt 0.568359375 0.0864257812
vt 0.610351562 0.124206543
vt 0.575683594 0.0822143555
vt 0.602050781 0.121704102
vt 0.582519531 0.0946044922
vt 0.603515625 0.107910156
vt 0.592285156 0.0916137695
vt 0.594726562 0.10736084
vn -0.902832031 0 -0.429931641
vn -0.760742188 0 -0.648925781
vn -0.760742188 0 -0.648925781
vn -0.902832031 0 -0.429931641
vn -0.979980469 0 -0.200073242
vn -0.979980469 0 -0.200073242
vn -0.999023438 0 -0.0425415039
vn -0.999023438 0 -0.0425415039
vn -0.998535156 0 0.0507507324
vn -0.998535156 0 0.0507507324
vn -0.978027344 0 0.208129883
vn -0.978027344 0 0.208129883
vn -0.899414062 0 0.4375
vn -0.899414062 0 0.4375
vn -0.755371094 0 0.655273438
vn -0.755371094 0 0.655273438
vn -0.760742188 0 -0.648925781
vn -0.566894531 0 -0.823730469
vn -0.760742188 0 -0.648925781
vn -0.566894531 0 -0.823730469
vn -0.334228516 0 -0.942382812
vn -0.334228516 0 -0.942382812
vn -0.106750488 0 -0.994140625
vn -0.106750488 0 -0.994140625
vn 0.0426025391 0 -0.999023438
vn 0.0426025391 0 -0.999023438
vn 0.200073242 0 -0.979980469
vn 0.200073242 0 -0.979980469
vn 0.429931641 0 -0.902832031
vn 0.429931641 0 -0.902832031
vn 0.648925781 0 -0.760742188
vn 0.648925781 0 -0.760742188
vn -0 1 0
vn -0 1 0
vn -0 1 0
vn -0 1 0
vn -0 1 0
vn -0 1 0
vn -0 1 0
vn -0 1 0
vn -0 1 0
vn -0 1 0
vn -0 1 0
vn -0 1 0
vn -0 1 0
vn -0 1 0
vn -0 1 0
vn -0 1 0
vn -0 1 0
vn -0 1 0
vn -0 1 0
vn -0 1 0
vn -0 1 0
vn -0 1 0
vn -0 1 0
vn -0 1 0
vn -0 1 0
vn -0 1 0
vn -0 1 0
vn -0 1 0
vn 0.648925781 0 -0.760742188
vn 0.823730469 0 -0.566894531
vn 0.648925781 0 -0.760742188
vn 0.823730469 0 -0.566894531
vn 0.942382812 0 -0.334228516
vn 0.942382812 0 -0.334228516
vn 0.994140625 0 -0.10736084
vn 0.994140625 0 -0.10736084
vn 0.999023438 0 0.0420227051
vn 0.999023438 0 0.0420227051
vn 0.979980469 0 0.200073242
vn 0.979980469 0 0.200073242
vn 0.902832031 0 0.429931641
vn 0.902832031 0 0.429931641
vn 0.760742188 0 0.648925781
vn 0.760742188 0 0.648925781
vn 0.760742188 0 0.648925781
vn 0.566894531 0 0.823730469
vn 0.760742188 0 0.648925781
vn 0.566894531 0 0.823730469
vn 0.334228516 0 0.942382812
vn 0.334228516 0 0.942382812
vn 0.105957031 0 0.994140625
vn 0.105957031 0 0.994140625
vn -0.0994873047 0 0.995117188
vn -0.0994873047 0 0.995117188
vn -0.326416016 0 0.9453125
vn -0.326416016 0 0.9453125
vn -0.560058594 0 0.828613281
vn -0.560058594 0 0.828613281
vn -0.755371094 0 0.655273438
vn -0.755371094 0 0.655273438
vn -0.517578125 -0.674804688 -0.525878906
vn -0.568847656 -0.674804688 -0.469970703
vn -0.671386719 -0.674804688 -0.306640625
vn -0.636230469 -0.674804688 -0.373779297
vn -0.71484375 -0.687011719 -0.130737305
vn -0.705566406 -0.680175781 -0.200195312
vn -0.711425781 -0.702636719 -0.0212554932
vn -0.716308594 -0.695800781 -0.0530700684
vn -0.711425781 -0.702636719 0.0270996094
vn -0.715820312 -0.695800781 0.0589599609
vn -0.713867188 -0.687011719 0.13659668
vn -0.703613281 -0.680175781 0.205932617
vn -0.668457031 -0.674804688 0.312255859
vn -0.633300781 -0.674804688 0.37890625
vn -0.564941406 -0.674804688 0.474609375
vn -0.513183594 -0.674804688 0.529785156
vn -0.364013672 -0.674804688 -0.641601562
vn -0.568847656 -0.674804688 -0.469970703
vn -0.517578125 -0.674804688 -0.525878906
vn -0.427978516 -0.674804688 -0.601074219
vn -0.185302734 -0.675292969 -0.713867188
vn -0.257568359 -0.674804688 -0.69140625
vn -0.0406494141 -0.680664062 -0.731445312
vn -0.0903320312 -0.676757812 -0.73046875
vn 0.0532836914 -0.687988281 -0.723632812
vn 0.0216674805 -0.685058594 -0.728027344
vn 0.200195312 -0.680175781 -0.705566406
vn 0.130737305 -0.687011719 -0.71484375
vn 0.373779297 -0.674804688 -0.636230469
vn 0.306640625 -0.674804688 -0.671386719
vn 0.525878906 -0.674804688 -0.517578125
vn 0.469970703 -0.674804688 -0.568847656
vn 0.641601562 -0.674804688 -0.364013672
vn 0.469970703 -0.674804688 -0.568847656
vn 0.525878906 -0.674804688 -0.517578125
vn 0.601074219 -0.674804688 -0.427978516
vn 0.713867188 -0.675292969 -0.185302734
vn 0.69140625 -0.674804688 -0.257568359
vn 0.730957031 -0.681152344 -0.0414123535
vn 0.73046875 -0.676757812 -0.090637207
vn 0.723632812 -0.688476562 0.0529174805
vn 0.727539062 -0.685546875 0.0209350586
vn 0.705566406 -0.680175781 0.200195312
vn 0.71484375 -0.687011719 0.130737305
vn 0.636230469 -0.674804688 0.373779297
vn 0.671386719 -0.674804688 0.306640625
vn 0.517578125 -0.674804688 0.525878906
vn 0.568847656 -0.674804688 0.469970703
vn -0.513183594 -0.674804688 0.529785156
vn -0.564941406 -0.674804688 0.474609375
vn -0.422851562 -0.674804688 0.604492188
vn -0.358642578 -0.674804688 0.64453125
vn -0.251953125 -0.674804688 0.693359375
vn -0.179443359 -0.675292969 0.715332031
vn -0.0848388672 -0.668945312 0.738769531
vn -0.0360107422 -0.662109375 0.748535156
vn 0.0902099609 -0.668945312 0.737792969
vn 0.0403137207 -0.662109375 0.748046875
vn 0.257568359 -0.674804688 0.69140625
vn 0.185302734 -0.675292969 0.713867188
vn 0.427978516 -0.674804688 0.601074219
vn 0.364013672 -0.674804688 0.641601562
vn 0.568847656 -0.674804688 0.469970703
vn 0.517578125 -0.674804688 0.525878906
vn -0 -1 0
vn -0 -1 0
vn -0 -1 0
vn -0 -1 0
vn -0 -1 0
vn -0 -1 0
vn -0 -1 0
vn -0 -1 0
vn -0 -1 0
vn -0 -1 0
vn -0 -1 0
vn -0 -1 0
vn -0 -1 0
vn -0 -1 0
vn -0 -1 0
vn -0 -1 0
vn -0 -1 0
vn -0 -1 0
vn -0 -1 0
vn -0 -1 0
vn -0 -1 0
vn -0 -1 0
vn -0 -1 0
vn -0 -1 0
vn -0 -1 0
vn -0 -1 0
vn -0 -1 0
vn -0 -1 0
vn -0.00397491455 0.259521484 -0.965820312
vn -0.00407791138 0.130859375 -0.991210938
vn -0.00407791138 0.130859375 -0.991210938
vn -0.00397491455 0.259521484 -0.965820312
vn -0.0035610199 0.500976562 -0.865722656
vn -0.0035610199 0.500976562 -0.865722656
vn -0.00290489197 0.708007812 -0.706054688
vn -0.00290489197 0.708007812 -0.706054688
vn -0.00205421448 0.866699219 -0.499023438
vn -0.00205421448 0.866699219 -0.499023438
vn -0.00106239319 0.966308594 -0.258300781
vn -0.00106239319 0.966308594 -0.258300781
vn -0 1 0
vn -0 1 0
vn 0.00106239319 0.966308594 0.258300781
vn 0.00106239319 0.966308594 0.258300781
vn 0.00205421448 0.866699219 0.499023438
vn 0.00205421448 0.866699219 0.499023438
vn 0.00290489197 0.708007812 0.706054688
vn 0.00290489197 0.708007812 0.706054688
vn 0.0035610199 0.500976562 0.865722656
vn 0.0035610199 0.500976562 0.865722656
vn 0.00397491455 0.259521484 0.965820312
vn 0.00397491455 0.259521484 0.965820312
vn 0.00407791138 0.130859375 0.991210938
vn 0.00407791138 0.130859375 0.991210938
vn -1 0 0.00411605835
vn -1 -2.38418579E-07 0.00411605835
vn -1 2.86102295E-06 0.00411605835
vn -1 2.11596489E-05 0.00410079956
vn -1 8.94069672E-06 0.00412368774
vn -1 -1.23381615E-05 0.00413513184
vn -1 0 0.00411605835
vn -1 0 0.00411605835
vn -1 0 0.00411224365
vn -1 -1.24573708E-05 0.00409317017
vn -1 8.82148743E-06 0.00410461426
vn -1 2.11000443E-05 0.00412750244
vn -1 -1.1920929E-07 0.00411605835
vn -1 0 0.00411605835
vn -0 -1 0
vn -0 -1 0
vn -0 -1 0
vn -0 -1 0
vn -0 -1 0
vn -0 -1 0
vn -1.1920929E-07 -1 0
vn -1.1920929E-07 -1 0
vn -1.1920929E-07 -1 0
vn -1.1920929E-07 -1 0
vn 1 4.17232513E-07 -0.00411605835
vn 1 1.1920929E-07 -0.00411605835
vn 1 0 -0.00411605835
vn 1 -1.1920929E-07 -0.00411605835
vn 1 0 -0.00411605835
vn 1 1.78813934E-07 -0.00411224365
vn 1 2.98023224E-07 -0.00411224365
vn 1 1.78813934E-07 -0.00411605835
vn 1 2.38418579E-07 -0.00411605835
vn 1 1.1920929E-07 -0.00411605835
vn 1 0 -0.00411224365
vn 1 2.98023224E-07 -0.00411224365
vn 1 0 -0.00411224365
vn 1 -3.57627869E-07 -0.00411224365
vn -0 -1 0
vn -0 -1 0
vn -0 -1 0
vn -0 -1 0
vn 1.1920929E-07 -1 0
vn 1.1920929E-07 -1 0
vn 2.38418579E-07 -1 0
vn 2.38418579E-07 -1 0
vn 2.38418579E-07 -1 0
vn 2.38418579E-07 -1 0
vn -0.00397491455 0.259521484 -0.965820312
vn -0.00407791138 0.130859375 -0.991210938
vn -0.00407791138 0.130859375 -0.991210938
vn -0.00397491455 0.259521484 -0.965820312
vn -0.0035610199 0.500976562 -0.865722656
vn -0.0035610199 0.500976562 -0.865722656
vn -0.00290489197 0.708007812 -0.706054688
vn -0.00290489197 0.708007812 -0.706054688
vn -0.00205421448 0.866699219 -0.499023438
vn -0.00205421448 0.866699219 -0.499023438
vn -0.00106239319 0.966308594 -0.258300781
vn -0.00106239319 0.966308594 -0.258300781
vn -0 1 0
vn -0 1 0
vn 0.00106239319 0.966308594 0.258300781
vn 0.00106239319 0.966308594 0.258300781
vn 0.00205421448 0.866699219 0.499023438
vn 0.00205421448 0.866699219 0.499023438
vn 0.00290489197 0.708007812 0.706054688
vn 0.00290489197 0.708007812 0.706054688
vn 0.0035610199 0.500976562 0.865722656
vn 0.0035610199 0.500976562 0.865722656
vn 0.00397491455 0.259521484 0.965820312
vn 0.00397491455 0.259521484 0.965820312
vn 0.00407791138 0.130859375 0.991210938
vn 0.00407791138 0.130859375 0.991210938
vn -1 0 0.00411605835
vn -1 4.17232513E-07 0.00411605835
vn -1 2.98023224E-06 0.00411605835
vn -1 2.12788582E-05 0.00410079956
vn -1 9.05990601E-06 0.00412368774
vn -1 -1.257658E-05 0.00413513184
vn -1 0 0.00411224365
vn -1 0 0.00411605835
vn -1 0 0.00411605835
vn -1 -1.24573708E-05 0.00409317017
vn -1 9.11951065E-06 0.00410461426
vn -1 2.15768814E-05 0.00412750244
vn -1 0 0.00411605835
vn -1 -4.76837158E-07 0.00411605835
vn 1 4.76837158E-07 -0.00411605835
vn 1 0 -0.00411605835
vn 1 0 -0.00411605835
vn 1 -1.1920929E-07 -0.00411605835
vn 1 0 -0.00411224365
vn 1 0 -0.00411224365
vn 1 0 -0.00411605835
vn 1 0 -0.00411605835
vn 1 0 -0.00411605835
vn 1 1.1920929E-07 -0.00411224365
vn 1 0 -0.00411224365
vn 1 1.78813934E-07 -0.00411605835
vn 1 0 -0.00411605835
vn 1 -4.17232513E-07 -0.00411224365
vn 0.615234375 0.102844238 -0.781738281
vn 0.615234375 0.102844238 -0.781738281
vn 0.618652344 0.20324707 -0.758789062
vn 0.618652344 0.203125 -0.759277344
vn 0.618652344 0.392578125 -0.680664062
vn 0.618652344 0.392333984 -0.680664062
vn 0.619140625 0.5546875 -0.555664062
vn 0.619140625 0.5546875 -0.556152344
vn 0.619140625 0.679199219 -0.393554688
vn 0.619140625 0.679199219 -0.393798828
vn 0.620117188 0.757324219 -0.204956055
vn 0.620117188 0.757324219 -0.205078125
vn 0.620605469 0.784179688 -0.00255393982
vn 0.620605469 0.784179688 -0.00255393982
vn 0.621582031 0.757324219 0.199829102
vn 0.621582031 0.757324219 0.199951172
vn 0.622558594 0.679199219 0.388671875
vn 0.622558594 0.679199219 0.388671875
vn 0.623535156 0.5546875 0.55078125
vn 0.623535156 0.5546875 0.55078125
vn 0.624023438 0.392578125 0.675292969
vn 0.624023438 0.392333984 0.67578125
vn 0.624511719 0.20324707 0.75390625
vn 0.624511719 0.203125 0.75390625
vn 0.621582031 0.102844238 0.776367188
vn 0.621582031 0.102844238 0.776367188
vn -0.621582031 0.102844238 -0.776367188
vn -0.621582031 0.102844238 -0.776367188
vn -0.624511719 0.203125 -0.75390625
vn -0.624511719 0.20324707 -0.75390625
vn -0.624023438 0.392333984 -0.675292969
vn -0.624023438 0.392578125 -0.675292969
vn -0.623535156 0.5546875 -0.55078125
vn -0.623535156 0.5546875 -0.55078125
vn -0.622558594 0.679199219 -0.388671875
vn -0.622558594 0.679199219 -0.388671875
vn -0.621582031 0.757324219 -0.199951172
vn -0.621582031 0.757324219 -0.199829102
vn -0.620605469 0.784179688 0.00255393982
vn -0.620605469 0.784179688 0.00255393982
vn -0.620117188 0.757324219 0.205078125
vn -0.620117188 0.757324219 0.204956055
vn -0.619140625 0.679199219 0.393798828
vn -0.619140625 0.679199219 0.393554688
vn -0.619140625 0.5546875 0.556152344
vn -0.619140625 0.5546875 0.555664062
vn -0.618652344 0.392333984 0.680664062
vn -0.618652344 0.392578125 0.680664062
vn -0.618652344 0.203125 0.759277344
vn -0.618652344 0.20324707 0.758789062
vn -0.615234375 0.102844238 0.781738281
vn -0.615234375 0.102844238 0.781738281
vn 0.615234375 0.102844238 -0.781738281
vn 0.615234375 0.102844238 -0.781738281
vn 0.618652344 0.20324707 -0.758789062
vn 0.618652344 0.203125 -0.759277344
vn 0.618652344 0.392578125 -0.680664062
vn 0.618652344 0.392333984 -0.680664062
vn 0.619140625 0.5546875 -0.555664062
vn 0.619140625 0.5546875 -0.556152344
vn 0.619140625 0.679199219 -0.393554688
vn 0.619140625 0.679199219 -0.393798828
vn 0.620117188 0.757324219 -0.204956055
vn 0.620117188 0.757324219 -0.205078125
vn 0.620605469 0.784179688 -0.00255393982
vn 0.620605469 0.784179688 -0.00255393982
vn 0.621582031 0.757324219 0.199829102
vn 0.621582031 0.757324219 0.199951172
vn 0.622558594 0.679199219 0.388671875
vn 0.622558594 0.679199219 0.388671875
vn 0.623535156 0.5546875 0.55078125
vn 0.623535156 0.5546875 0.55078125
vn 0.624023438 0.392578125 0.675292969
vn 0.624023438 0.392333984 0.67578125
vn 0.624511719 0.20324707 0.75390625
vn 0.624511719 0.203125 0.75390625
vn 0.621582031 0.102844238 0.776367188
vn 0.621582031 0.102844238 0.776367188
vn -0.621582031 0.102844238 -0.776367188
vn -0.621582031 0.102844238 -0.776367188
vn -0.624511719 0.203125 -0.75390625
vn -0.624511719 0.20324707 -0.75390625
vn -0.624023438 0.392333984 -0.675292969
vn -0.624023438 0.392578125 -0.675292969
vn -0.623535156 0.5546875 -0.55078125
vn -0.623535156 0.5546875 -0.55078125
vn -0.622558594 0.679199219 -0.388671875
vn -0.622558594 0.679199219 -0.388671875
vn -0.621582031 0.757324219 -0.199951172
vn -0.621582031 0.757324219 -0.199829102
vn -0.620605469 0.784179688 0.00255393982
vn -0.620605469 0.784179688 0.00255393982
vn -0.620117188 0.757324219 0.205078125
vn -0.620117188 0.757324219 0.204956055
vn -0.619140625 0.679199219 0.393798828
vn -0.619140625 0.679199219 0.393554688
vn -0.619140625 0.5546875 0.556152344
vn -0.619140625 0.5546875 0.555664062
vn -0.618652344 0.392333984 0.680664062
vn -0.618652344 0.392578125 0.680664062
vn -0.618652344 0.203125 0.759277344
vn -0.618652344 0.20324707 0.758789062
vn -0.615234375 0.102844238 0.781738281
vn -0.615234375 0.102844238 0.781738281
vn 0.636230469 0.674804688 0.373779297
vn 0.671386719 0.674804688 0.306640625
vn 0.568847656 0.674804688 0.469970703
vn 0.517578125 0.674804688 0.525878906
vn 0.705566406 0.680175781 0.200195312
vn 0.427978516 0.674804688 0.601074219
vn 0.71484375 0.687011719 0.130737305
vn 0.364013672 0.674804688 0.641601562
vn 0.723632812 0.688476562 0.0529174805
vn 0.257568359 0.674804688 0.69140625
vn 0.727539062 0.685546875 0.0209350586
vn 0.185302734 0.675292969 0.713867188
vn 0.730957031 0.681152344 -0.0414123535
vn 0.0902099609 0.668945312 0.737792969
vn 0.73046875 0.676757812 -0.090637207
vn 0.0403137207 0.662109375 0.748046875
vn 0.713867188 0.675292969 -0.185302734
vn -0.0848388672 0.668945312 0.738769531
vn 0.69140625 0.674804688 -0.257568359
vn -0.0360107422 0.662109375 0.748535156
vn 0.641601562 0.674804688 -0.364013672
vn -0.251953125 0.674804688 0.693359375
vn 0.601074219 0.674804688 -0.427978516
vn -0.179443359 0.675292969 0.715332031
vn 0.525878906 0.674804688 -0.517578125
vn -0.422851562 0.674804688 0.604492188
vn 0.469970703 0.674804688 -0.568847656
vn -0.358642578 0.674804688 0.64453125
vn 0.373779297 0.674804688 -0.636230469
vn -0.564941406 0.674804688 0.474609375
vn 0.306640625 0.674804688 -0.671386719
vn -0.513183594 0.674804688 0.529785156
vn 0.200195312 0.680175781 -0.705566406
vn -0.668457031 0.674804688 0.312255859
vn 0.130737305 0.687011719 -0.71484375
vn -0.633300781 0.674804688 0.37890625
vn 0.0532836914 0.687988281 -0.723632812
vn -0.713867188 0.687011719 0.13659668
vn 0.0216674805 0.685058594 -0.728027344
vn -0.703613281 0.680175781 0.205932617
vn -0.0406494141 0.680664062 -0.731445312
vn -0.711425781 0.702636719 0.0270996094
vn -0.0903320312 0.676757812 -0.73046875
vn -0.715820312 0.695800781 0.0589599609
vn -0.185302734 0.675292969 -0.713867188
vn -0.711425781 0.702636719 -0.0212554932
vn -0.257568359 0.674804688 -0.69140625
vn -0.716308594 0.695800781 -0.0530700684
vn -0.364013672 0.674804688 -0.641601562
vn -0.71484375 0.687011719 -0.130737305
vn -0.427978516 0.674804688 -0.601074219
vn -0.705566406 0.680175781 -0.200195312
vn -0.517578125 0.674804688 -0.525878906
vn -0.671386719 0.674804688 -0.306640625
vn -0.568847656 0.674804688 -0.469970703
vn -0.636230469 0.674804688 -0.373779297
g S_NapkinStand_0
f 3/3/3 2/2/2 1/1/1
f 4/4/4 3/3/3 1/1/1
f 4/4/4 1/1/1 5/5/5
f 6/6/6 4/4/4 5/5/5
f 6/6/6 5/5/5 7/7/7
f 8/8/8 6/6/6 7/7/7
f 8/8/8 7/7/7 9/9/9
f 10/10/10 8/8/8 9/9/9
f 9/9/9 11/11/11 10/10/10
f 11/11/11 12/12/12 10/10/10
f 11/11/11 13/13/13 12/12/12
f 13/13/13 14/14/14 12/12/12
f 13/13/13 15/15/15 14/14/14
f 15/15/15 16/16/16 14/14/14
f 19/19/19 18/18/18 17/17/17
f 18/18/18 20/20/20 17/17/17
f 18/18/18 21/21/21 20/20/20
f 21/21/21 22/22/22 20/20/20
f 21/21/21 23/23/23 22/22/22
f 23/23/23 24/24/24 22/22/22
f 23/23/23 25/25/25 24/24/24
f 25/25/25 26/26/26 24/24/24
f 25/25/25 27/27/27 26/26/26
f 27/27/27 28/28/28 26/26/26
f 27/27/27 29/29/29 28/28/28
f 29/29/29 30/30/30 28/28/28
f 29/29/29 31/31/31 30/30/30
f 31/31/31 32/32/32 30/30/30
f 35/35/35 34/34/34 33/33/33
f 33/33/33 36/36/36 35/35/35
f 36/36/36 37/37/37 35/35/35
f 36/36/36 38/38/38 37/37/37
f 38/38/38 39/39/39 37/37/37
f 38/38/38 40/40/40 39/39/39
f 40/40/40 41/41/41 39/39/39
f 40/40/40 42/42/42 41/41/41
f 42/42/42 43/43/43 41/41/41
f 42/42/42 44/44/44 43/43/43
f 44/44/44 45/45/45 43/43/43
f 44/44/44 46/46/46 45/45/45
f 46/46/46 47/47/47 45/45/45
f 46/46/46 48/48/48 47/47/47
f 48/48/48 49/49/49 47/47/47
f 48/48/48 50/50/50 49/49/49
f 50/50/50 51/51/51 49/49/49
f 50/50/50 52/52/52 51/51/51
f 52/52/52 53/53/53 51/51/51
f 52/52/52 54/54/54 53/53/53
f 54/54/54 55/55/55 53/53/53
f 54/54/54 56/56/56 55/55/55
f 56/56/56 57/57/57 55/55/55
f 56/56/56 58/58/58 57/57/57
f 58/58/58 59/59/59 57/57/57
f 58/58/58 60/60/60 59/59/59
f 63/63/63 62/62/62 61/61/61
f 62/62/62 64/64/64 61/61/61
f 62/62/62 65/65/65 64/64/64
f 65/65/65 66/66/66 64/64/64
f 65/65/65 67/67/67 66/66/66
f 67/67/67 68/68/68 66/66/66
f 67/67/67 69/69/69 68/68/68
f 69/69/69 70/70/70 68/68/68
f 69/69/69 71/71/71 70/70/70
f 71/71/71 72/72/72 70/70/70
f 71/71/71 73/73/73 72/72/72
f 73/73/73 74/74/74 72/72/72
f 73/73/73 75/75/75 74/74/74
f 75/75/75 76/76/76 74/74/74
f 79/79/79 78/78/78 77/77/77
f 78/78/78 80/80/80 77/77/77
f 78/78/78 81/81/81 80/80/80
f 81/81/81 82/82/82 80/80/80
f 81/81/81 83/83/83 82/82/82
f 83/83/83 84/84/84 82/82/82
f 83/83/83 85/85/85 84/84/84
f 85/85/85 86/86/86 84/84/84
f 86/86/86 85/85/85 87/87/87
f 88/88/88 86/86/86 87/87/87
f 88/88/88 87/87/87 89/89/89
f 90/90/90 88/88/88 89/89/89
f 90/90/90 89/89/89 91/91/91
f 92/92/92 90/90/90 91/91/91
f 95/95/95 94/94/94 93/93/93
f 96/96/96 95/95/95 93/93/93
f 97/97/97 95/95/95 96/96/96
f 98/98/98 97/97/97 96/96/96
f 99/99/99 97/97/97 98/98/98
f 100/100/100 99/99/99 98/98/98
f 99/99/99 100/100/100 101/101/101
f 100/100/100 102/102/102 101/101/101
f 103/103/103 101/101/101 102/102/102
f 104/104/104 103/103/103 102/102/102
f 105/105/105 103/103/103 104/104/104
f 106/106/106 105/105/105 104/104/104
f 107/107/107 105/105/105 106/106/106
f 108/108/108 107/107/107 106/106/106
f 111/111/111 110/110/110 109/109/109
f 110/110/110 112/112/112 109/109/109
f 109/109/109 112/112/112 113/113/113
f 112/112/112 114/114/114 113/113/113
f 113/113/113 114/114/114 115/115/115
f 114/114/114 116/116/116 115/115/115
f 117/117/117 115/115/115 116/116/116
f 118/118/118 117/117/117 116/116/116
f 117/117/117 118/118/118 119/119/119
f 118/118/118 120/120/120 119/119/119
f 119/119/119 120/120/120 121/121/121
f 120/120/120 122/122/122 121/121/121
f 121/121/121 122/122/122 123/123/123
f 122/122/122 124/124/124 123/123/123
f 127/127/127 126/126/126 125/125/125
f 126/126/126 128/128/128 125/125/125
f 125/125/125 128/128/128 129/129/129
f 128/128/128 130/130/130 129/129/129
f 129/129/129 130/130/130 131/131/131
f 130/130/130 132/132/132 131/131/131
f 133/133/133 131/131/131 132/132/132
f 134/134/134 133/133/133 132/132/132
f 133/133/133 134/134/134 135/135/135
f 134/134/134 136/136/136 135/135/135
f 135/135/135 136/136/136 137/137/137
f 136/136/136 138/138/138 137/137/137
f 137/137/137 138/138/138 139/139/139
f 138/138/138 140/140/140 139/139/139
f 143/143/143 142/142/142 141/141/141
f 144/144/144 143/143/143 141/141/141
f 145/145/145 143/143/143 144/144/144
f 146/146/146 145/145/145 144/144/144
f 147/147/147 145/145/145 146/146/146
f 148/148/148 147/147/147 146/146/146
f 147/147/147 148/148/148 149/149/149
f 148/148/148 150/150/150 149/149/149
f 151/151/151 149/149/149 150/150/150
f 152/152/152 151/151/151 150/150/150
f 153/153/153 151/151/151 152/152/152
f 154/154/154 153/153/153 152/152/152
f 155/155/155 153/153/153 154/154/154
f 156/156/156 155/155/155 154/154/154
f 159/159/159 158/158/158 157/157/157
f 157/157/157 160/160/160 159/159/159
f 157/157/157 161/161/161 160/160/160
f 161/161/161 162/162/162 160/160/160
f 161/161/161 163/163/163 162/162/162
f 163/163/163 164/164/164 162/162/162
f 163/163/163 165/165/165 164/164/164
f 165/165/165 166/166/166 164/164/164
f 165/165/165 167/167/167 166/166/166
f 167/167/167 168/168/168 166/166/166
f 167/167/167 169/169/169 168/168/168
f 169/169/169 170/170/170 168/168/168
f 169/169/169 171/171/171 170/170/170
f 171/171/171 172/172/172 170/170/170
f 171/171/171 173/173/173 172/172/172
f 173/173/173 174/174/174 172/172/172
f 173/173/173 175/175/175 174/174/174
f 175/175/175 176/176/176 174/174/174
f 175/175/175 177/177/177 176/176/176
f 177/177/177 178/178/178 176/176/176
f 177/177/177 179/179/179 178/178/178
f 179/179/179 180/180/180 178/178/178
f 179/179/179 181/181/181 180/180/180
f 181/181/181 182/182/182 180/180/180
f 181/181/181 183/183/183 182/182/182
f 183/183/183 184/184/184 182/182/182
f 187/187/187 186/186/186 185/185/185
f 186/186/186 188/188/188 185/185/185
f 185/185/185 188/188/188 189/189/189
f 188/188/188 190/190/190 189/189/189
f 189/189/189 190/190/190 191/191/191
f 190/190/190 192/192/192 191/191/191
f 191/191/191 192/192/192 193/193/193
f 192/192/192 194/194/194 193/193/193
f 193/193/193 194/194/194 195/195/195
f 194/194/194 196/196/196 195/195/195
f 195/195/195 196/196/196 197/197/197
f 196/196/196 198/198/198 197/197/197
f 197/197/197 198/198/198 199/199/199
f 198/198/198 200/200/200 199/199/199
f 199/199/199 200/200/200 201/201/201
f 200/200/200 202/202/202 201/201/201
f 201/201/201 202/202/202 203/203/203
f 202/202/202 204/204/204 203/203/203
f 203/203/203 204/204/204 205/205/205
f 204/204/204 206/206/206 205/205/205
f 205/205/205 206/206/206 207/207/207
f 206/206/206 208/208/208 207/207/207
f 207/207/207 208/208/208 209/209/209
f 208/208/208 210/210/210 209/209/209
f 213/213/213 212/212/212 211/211/211
f 213/213/213 211/211/211 214/214/214
f 213/213/213 214/214/214 215/215/215
f 213/213/213 215/215/215 216/216/216
f 213/213/213 216/216/216 217/217/217
f 213/213/213 217/217/217 218/218/218
f 213/213/213 218/218/218 219/219/219
f 213/213/213 219/219/219 220/220/220
f 213/213/213 220/220/220 221/221/221
f 213/213/213 221/221/221 222/222/222
f 213/213/213 222/222/222 223/223/223
f 213/213/213 223/223/223 224/224/224
f 227/227/227 226/226/226 225/225/225
f 225/225/225 228/228/228 227/227/227
f 225/225/225 229/229/229 228/228/228
f 229/229/229 230/230/230 228/228/228
f 230/230/230 229/229/229 231/231/231
f 231/231/231 232/232/232 230/230/230
f 231/231/231 233/233/233 232/232/232
f 233/233/233 234/234/234 232/232/232
f 237/237/237 236/236/236 235/235/235
f 238/238/238 236/236/236 237/237/237
f 239/239/239 236/236/236 238/238/238
f 240/240/240 236/236/236 239/239/239
f 241/241/241 236/236/236 240/240/240
f 242/242/242 236/236/236 241/241/241
f 243/243/243 236/236/236 242/242/242
f 244/244/244 236/236/236 243/243/243
f 245/245/245 236/236/236 244/244/244
f 246/246/246 236/236/236 245/245/245
f 247/247/247 236/236/236 246/246/246
f 248/248/248 236/236/236 247/247/247
f 251/251/251 250/250/250 249/249/249
f 252/252/252 251/251/251 249/249/249
f 252/252/252 249/249/249 253/253/253
f 253/253/253 254/254/254 252/252/252
f 254/254/254 253/253/253 255/255/255
f 256/256/256 254/254/254 255/255/255
f 256/256/256 255/255/255 257/257/257
f 257/257/257 258/258/258 256/256/256
f 261/261/261 260/260/260 259/259/259
f 260/260/260 262/262/262 259/259/259
f 259/259/259 262/262/262 263/263/263
f 262/262/262 264/264/264 263/263/263
f 263/263/263 264/264/264 265/265/265
f 264/264/264 266/266/266 265/265/265
f 265/265/265 266/266/266 267/267/267
f 266/266/266 268/268/268 267/267/267
f 267/267/267 268/268/268 269/269/269
f 268/268/268 270/270/270 269/269/269
f 269/269/269 270/270/270 271/271/271
f 270/270/270 272/272/272 271/271/271
f 271/271/271 272/272/272 273/273/273
f 272/272/272 274/274/274 273/273/273
f 273/273/273 274/274/274 275/275/275
f 274/274/274 276/276/276 275/275/275
f 275/275/275 276/276/276 277/277/277
f 276/276/276 278/278/278 277/277/277
f 277/277/277 278/278/278 279/279/279
f 278/278/278 280/280/280 279/279/279
f 279/279/279 280/280/280 281/281/281
f 280/280/280 282/282/282 281/281/281
f 281/281/281 282/282/282 283/283/283
f 282/282/282 284/284/284 283/283/283
f 287/287/287 286/286/286 285/285/285
f 287/287/287 285/285/285 288/288/288
f 287/287/287 288/288/288 289/289/289
f 287/287/287 289/289/289 290/290/290
f 287/287/287 290/290/290 291/291/291
f 287/287/287 291/291/291 292/292/292
f 287/287/287 292/292/292 293/293/293
f 287/287/287 293/293/293 294/294/294
f 287/287/287 294/294/294 295/295/295
f 287/287/287 295/295/295 296/296/296
f 287/287/287 296/296/296 297/297/297
f 287/287/287 297/297/297 298/298/298
f 301/301/301 300/300/300 299/299/299
f 302/302/302 300/300/300 301/301/301
f 303/303/303 300/300/300 302/302/302
f 304/304/304 300/300/300 303/303/303
f 305/305/305 300/300/300 304/304/304
f 306/306/306 300/300/300 305/305/305
f 307/307/307 300/300/300 306/306/306
f 308/308/308 300/300/300 307/307/307
f 309/309/309 300/300/300 308/308/308
f 310/310/310 300/300/300 309/309/309
f 311/311/311 300/300/300 310/310/310
f 312/312/312 300/300/300 311/311/311
f 315/315/315 314/314/314 313/313/313
f 316/316/316 315/315/315 313/313/313
f 317/317/317 315/315/315 316/316/316
f 318/318/318 317/317/317 316/316/316
f 319/319/319 317/317/317 318/318/318
f 320/320/320 319/319/319 318/318/318
f 321/321/321 319/319/319 320/320/320
f 322/322/322 321/321/321 320/320/320
f 323/323/323 321/321/321 322/322/322
f 324/324/324 323/323/323 322/322/322
f 325/325/325 323/323/323 324/324/324
f 326/326/326 325/325/325 324/324/324
f 327/327/327 325/325/325 326/326/326
f 328/328/328 327/327/327 326/326/326
f 329/329/329 327/327/327 328/328/328
f 330/330/330 329/329/329 328/328/328
f 331/331/331 329/329/329 330/330/330
f 332/332/332 331/331/331 330/330/330
f 333/333/333 331/331/331 332/332/332
f 334/334/334 333/333/333 332/332/332
f 335/335/335 333/333/333 334/334/334
f 336/336/336 335/335/335 334/334/334
f 337/337/337 335/335/335 336/336/336
f 338/338/338 337/337/337 336/336/336
f 341/341/341 340/340/340 339/339/339
f 342/342/342 341/341/341 339/339/339
f 343/343/343 341/341/341 342/342/342
f 344/344/344 343/343/343 342/342/342
f 345/345/345 343/343/343 344/344/344
f 346/346/346 345/345/345 344/344/344
f 347/347/347 345/345/345 346/346/346
f 348/348/348 347/347/347 346/346/346
f 349/349/349 347/347/347 348/348/348
f 350/350/350 349/349/349 348/348/348
f 351/351/351 349/349/349 350/350/350
f 352/352/352 351/351/351 350/350/350
f 353/353/353 351/351/351 352/352/352
f 354/354/354 353/353/353 352/352/352
f 355/355/355 353/353/353 354/354/354
f 356/356/356 355/355/355 354/354/354
f 357/357/357 355/355/355 356/356/356
f 358/358/358 357/357/357 356/356/356
f 359/359/359 357/357/357 358/358/358
f 360/360/360 359/359/359 358/358/358
f 361/361/361 359/359/359 360/360/360
f 362/362/362 361/361/361 360/360/360
f 363/363/363 361/361/361 362/362/362
f 364/364/364 363/363/363 362/362/362
f 367/367/367 366/366/366 365/365/365
f 368/368/368 367/367/367 365/365/365
f 369/369/369 367/367/367 368/368/368
f 370/370/370 369/369/369 368/368/368
f 371/371/371 369/369/369 370/370/370
f 372/372/372 371/371/371 370/370/370
f 373/373/373 371/371/371 372/372/372
f 374/374/374 373/373/373 372/372/372
f 375/375/375 373/373/373 374/374/374
f 376/376/376 375/375/375 374/374/374
f 377/377/377 375/375/375 376/376/376
f 378/378/378 377/377/377 376/376/376
f 379/379/379 377/377/377 378/378/378
f 380/380/380 379/379/379 378/378/378
f 381/381/381 379/379/379 380/380/380
f 382/382/382 381/381/381 380/380/380
f 383/383/383 381/381/381 382/382/382
f 384/384/384 383/383/383 382/382/382
f 385/385/385 383/383/383 384/384/384
f 386/386/386 385/385/385 384/384/384
f 387/387/387 385/385/385 386/386/386
f 388/388/388 387/387/387 386/386/386
f 389/389/389 387/387/387 388/388/388
f 390/390/390 389/389/389 388/388/388
f 393/393/393 392/392/392 391/391/391
f 394/394/394 393/393/393 391/391/391
f 395/395/395 393/393/393 394/394/394
f 396/396/396 395/395/395 394/394/394
f 397/397/397 395/395/395 396/396/396
f 398/398/398 397/397/397 396/396/396
f 399/399/399 397/397/397 398/398/398
f 400/400/400 399/399/399 398/398/398
f 401/401/401 399/399/399 400/400/400
f 402/402/402 401/401/401 400/400/400
f 403/403/403 401/401/401 402/402/402
f 404/404/404 403/403/403 402/402/402
f 405/405/405 403/403/403 404/404/404
f 406/406/406 405/405/405 404/404/404
f 407/407/407 405/405/405 406/406/406
f 408/408/408 407/407/407 406/406/406
f 409/409/409 407/407/407 408/408/408
f 410/410/410 409/409/409 408/408/408
f 411/411/411 409/409/409 410/410/410
f 412/412/412 411/411/411 410/410/410
f 413/413/413 411/411/411 412/412/412
f 414/414/414 413/413/413 412/412/412
f 415/415/415 413/413/413 414/414/414
f 416/416/416 415/415/415 414/414/414
f 419/419/419 418/418/418 417/417/417
f 420/420/420 419/419/419 417/417/417
f 417/417/417 418/418/418 421/421/421
f 422/422/422 419/419/419 420/420/420
f 418/418/418 423/423/423 421/421/421
f 424/424/424 422/422/422 420/420/420
f 421/421/421 423/423/423 425/425/425
f 426/426/426 422/422/422 424/424/424
f 423/423/423 427/427/427 425/425/425
f 428/428/428 426/426/426 424/424/424
f 429/429/429 425/425/425 427/427/427
f 430/430/430 426/426/426 428/428/428
f 431/431/431 429/429/429 427/427/427
f 432/432/432 430/430/430 428/428/428
f 429/429/429 431/431/431 433/433/433
f 430/430/430 432/432/432 434/434/434
f 431/431/431 435/435/435 433/433/433
f 432/432/432 436/436/436 434/434/434
f 433/433/433 435/435/435 437/437/437
f 438/438/438 434/434/434 436/436/436
f 435/435/435 439/439/439 437/437/437
f 440/440/440 438/438/438 436/436/436
f 437/437/437 439/439/439 441/441/441
f 442/442/442 438/438/438 440/440/440
f 439/439/439 443/443/443 441/441/441
f 444/444/444 442/442/442 440/440/440
f 441/441/441 443/443/443 445/445/445
f 446/446/446 442/442/442 444/444/444
f 443/443/443 447/447/447 445/445/445
f 448/448/448 446/446/446 444/444/444
f 445/445/445 447/447/447 449/449/449
f 450/450/450 446/446/446 448/448/448
f 447/447/447 451/451/451 449/449/449
f 452/452/452 450/450/450 448/448/448
f 449/449/449 451/451/451 453/453/453
f 454/454/454 450/450/450 452/452/452
f 451/451/451 455/455/455 453/453/453
f 456/456/456 454/454/454 452/452/452
f 453/453/453 455/455/455 457/457/457
f 458/458/458 454/454/454 456/456/456
f 455/455/455 459/459/459 457/457/457
f 460/460/460 458/458/458 456/456/456
f 457/457/457 459/459/459 461/461/461
f 462/462/462 458/458/458 460/460/460
f 459/459/459 463/463/463 461/461/461
f 464/464/464 462/462/462 460/460/460
f 461/461/461 463/463/463 465/465/465
f 466/466/466 462/462/462 464/464/464
f 463/463/463 467/467/467 465/465/465
f 468/468/468 466/466/466 464/464/464
f 465/465/465 467/467/467 469/469/469
f 470/470/470 466/466/466 468/468/468
f 467/467/467 471/471/471 469/469/469
f 472/472/472 470/470/470 468/468/468
f 469/469/469 471/471/471 472/472/472
f 471/471/471 470/470/470 472/472/472
