g S_Plate_01
v 0.0950513706 0.00952613447 -0.370964944
v 0.0208267774 0.00952613447 -0.382423937
v -0.0542071424 0.00952613447 -0.37918219
v -0.127166897 0.00952613447 -0.361364424
v 0.165614218 0.00952613447 -0.345245659
v -0.195248663 0.00952613447 -0.32965523
v 0.229803652 0.00952613447 -0.306254447
v -0.255836099 0.00952613447 -0.285273224
v 0.285152882 0.00952613447 -0.255489677
v -0.306600869 0.00952613447 -0.229923993
v 0.329534858 0.00952613447 -0.194902241
v -0.345592082 0.00952613447 -0.165734574
v 0.361244082 0.00952613447 -0.126820475
v -0.371311367 0.00952613447 -0.0951717049
v 0.379061878 0.00952613447 -0.0538607202
v -0.38277033 0.00952613447 -0.0209471099
v 0.382303566 0.00952613447 0.0211732071
v -0.379528642 0.00952613447 0.0540868118
v 0.370844632 0.00952613447 0.0953977928
v -0.361710846 0.00952613447 0.127046555
v 0.345125318 0.00952613447 0.165960655
v -0.330001622 0.00952613447 0.195128322
v 0.306134105 0.00952613447 0.230150059
v -0.285619646 0.00952613447 0.255715758
v 0.255369335 0.00952613447 0.285499305
v -0.230270416 0.00952613447 0.306480527
v 0.194781885 0.00952613447 0.32988131
v -0.166080981 0.00952613447 0.34547171
v 0.126700133 0.00952613447 0.361590505
v -0.0955181271 0.00952613447 0.371191055
v 0.0537403896 0.00952613447 0.3794083
v -0.0212935396 0.00952613447 0.382650018
v 0.38295269 0.0684158504 0.0212099832
v 0.33907488 0.0430513658 0.0871672779
v 0.349541783 0.0430513509 0.019298071
v 0.371474147 0.0684158504 0.0955605283
v 0.315568507 0.0430513695 0.151690394
v 0.422360629 0.191948429 0.0233925525
v 0.345711052 0.0684158504 0.166243106
v 0.279925942 0.0430513769 0.210387856
v 0.409700871 0.191948429 0.105394192
v 0.3066535 0.0684158504 0.230541393
v 0.233516917 0.0430513695 0.261003941
v 0.435012192 0.201261058 0.111905456
v 0.448454082 0.201261058 0.0248377528
v 0.381286681 0.191948429 0.183350384
v 0.255802482 0.0684158504 0.285984486
v 0.178124964 0.0430513658 0.301593542
v 0.455595106 0.200087041 0.117200322
v 0.469673008 0.200087041 0.0260129422
v 0.487143427 0.188565269 0.0269806124
v 0.404842556 0.201261058 0.194677785
v 0.338209897 0.191948429 0.254265368
v 0.195112124 0.0684158504 0.330441654
v 0.115878694 0.0430513509 0.330596715
v 0.12691474 0.0684158504 0.362204581
v 0.0491702259 0.0430513322 0.346899033
v 0.215190306 0.191948429 0.364445984
v 0.0538311265 0.0684158504 0.380052477
v -0.0194368809 0.0430513099 0.349873871
v 0.423997939 0.200087041 0.203889072
v 0.359104484 0.201261058 0.269973904
v 0.282126039 0.191948429 0.315413862
v 0.299555779 0.201261058 0.334900111
v 0.376095802 0.200087041 0.282747865
v 0.22848478 0.201261058 0.38696143
v 0.313729495 0.200087041 0.350746155
v 0.439769387 0.188565269 0.211473197
v 0.390085369 0.188565269 0.293265283
v 0.32539919 0.188565269 0.363792866
v 0.472541869 0.188565269 0.121559873
v 0.482408971 0.167332143 0.124098063
v 0.497315437 0.167332143 0.0275438949
v 0.448952168 0.167332143 0.215888873
v 0.474614352 0.120765463 0.122093044
v 0.489279956 0.120765463 0.0270989668
v 0.398230731 0.167332143 0.299388826
v 0.451105863 0.074024342 0.116045527
v 0.465045065 0.074024342 0.0257566776
v 0.441698134 0.120765463 0.212400734
v 0.332193822 0.167332143 0.371389121
v 0.391796231 0.120765463 0.294551551
v 0.414615303 0.0322432667 0.106587112
v 0.427414119 0.0322432555 0.0235977471
v 0.382303566 0.00952613447 0.0211732071
v 0.370844632 0.00952613447 0.0953977928
v 0.345125318 0.00952613447 0.165960655
v 0.385872036 0.0322432742 0.185484946
v 0.306134105 0.00952613447 0.230150059
v 0.41982004 0.074024342 0.201880127
v 0.342288822 0.0322432779 0.25725922
v 0.255369335 0.00952613447 0.285499305
v 0.372389853 0.074024342 0.279961854
v 0.285540581 0.0322432779 0.3191517
v 0.194781885 0.00952613447 0.32988131
v 0.326826304 0.120765463 0.365388453
v 0.217808127 0.0322432742 0.368783891
v 0.126700133 0.00952613447 0.361590505
v 0.31063807 0.074024342 0.347290099
v 0.141694367 0.0322432667 0.404248536
v 0.0537403896 0.00952613447 0.3794083
v 0.236937702 0.074024342 0.401277453
v 0.249285221 0.120765463 0.422189236
v 0.0601242967 0.0322432555 0.424182624
v -0.0212935396 0.00952613447 0.382650018
v 0.154121071 0.074024342 0.439849228
v -0.0237673726 0.0322432406 0.427820146
v -0.0955181271 0.00952613447 0.371191055
v 0.253379315 0.167332143 0.429122806
v 0.162152737 0.120765463 0.462771147
v 0.0653707609 0.074024342 0.461523145
v -0.106756732 0.0322432257 0.41502136
v -0.166080981 0.00952613447 0.34547171
v 0.248196691 0.188565269 0.420345634
v 0.164815858 0.167332143 0.470371157
v 0.0687773749 0.120765463 0.485574514
v -0.0259026214 0.074024342 0.465466291
v -0.185654566 0.0322432071 0.386278063
v -0.230270416 0.00952613447 0.306480527
v 0.239295706 0.200087041 0.405270755
v 0.161444724 0.188565269 0.460750312
v 0.0699070022 0.167332143 0.493549079
v -0.02725254 0.120765463 0.489723146
v -0.116191469 0.074024342 0.451527089
v 0.155654922 0.200087041 0.444226444
v 0.0684771016 0.188565269 0.483454168
v -0.0277000107 0.167332143 0.497765869
v 0.148622721 0.201261058 0.424157172
v 0.0660214052 0.200087041 0.466116041
v 0.139975071 0.191948429 0.399477452
v 0.0630386546 0.201261058 0.445057869
v -0.0271334741 0.188565269 0.487584651
v -0.122246623 0.120765463 0.475057542
v 0.0593707561 0.191948429 0.419162005
v -0.0261602923 0.200087041 0.470098436
v -0.124254175 0.167332143 0.482859403
v -0.121712729 0.188565269 0.472983092
v -0.216044992 0.167332143 0.449402601
v -0.212554291 0.120765463 0.442141324
v -0.0213301554 0.0684158504 0.3832995
v -0.0873060897 0.0430512801 0.339406997
v -0.0249784514 0.201261058 0.448860347
v -0.0235250499 0.191948429 0.422743261
v -0.0956806988 0.0684158504 0.371820986
v -0.151829213 0.0430512503 0.315900624
v -0.112046152 0.201261058 0.435418457
v -0.105526693 0.191948429 0.410083503
v -0.166363269 0.0684158504 0.346057892
v -0.210526675 0.0430512168 0.28025806
v -0.230661556 0.0684158504 0.307000339
v -0.261142761 0.0430511907 0.233849049
v -0.183482885 0.191948429 0.381669253
v -0.286104649 0.0684158504 0.256149322
v -0.301732361 0.0430511609 0.178457081
v -0.117347665 0.200087041 0.456020564
v -0.194818497 0.201261058 0.405248791
v -0.254397869 0.191948429 0.338592529
v -0.211626053 0.188565269 0.440210611
v -0.204036444 0.200087041 0.424423397
v -0.270114601 0.201261058 0.35951075
v -0.29954496 0.167332143 0.398681164
v -0.293418139 0.188565269 0.390526563
v -0.282895207 0.200087041 0.37652126
v -0.335040838 0.201261058 0.299961984
v -0.350893468 0.200087041 0.314154953
v -0.363945723 0.188565269 0.325840414
v -0.371545225 0.167332143 0.332644254
v -0.294705123 0.120765463 0.392239422
v -0.315546364 0.191948429 0.282508641
v -0.387102157 0.201261058 0.228890985
v -0.364578456 0.191948429 0.215572923
v -0.202026054 0.074024342 0.420241266
v -0.257428855 0.0322431847 0.342694849
v -0.285619646 0.00952613447 0.255715758
v -0.280107796 0.074024342 0.372811079
v -0.319321334 0.0322431661 0.285946608
v -0.330001622 0.00952613447 0.195128322
v -0.365542024 0.120765463 0.327269495
v -0.368953556 0.0322431438 0.218214169
v -0.361710846 0.00952613447 0.127046555
v -0.347436011 0.074024342 0.311059266
v -0.422342837 0.120765463 0.249728411
v -0.40441817 0.0322431251 0.142100409
v -0.379528642 0.00952613447 0.0540868118
v -0.401423365 0.074024342 0.237358913
v -0.424352258 0.0322431065 0.0605303273
v -0.38277033 0.00952613447 -0.0209471099
v -0.427989811 0.0322430916 -0.0233613364
v -0.43999517 0.074024342 0.154542267
v -0.461669117 0.074024342 0.0657919422
v -0.465612203 0.074024342 -0.0254814364
v -0.489876747 0.120765463 -0.0268093552
v -0.485728115 0.120765463 0.0692205578
v -0.497921973 0.167332143 -0.0272495747
v -0.462924719 0.120765463 0.162595943
v -0.493705153 0.167332143 0.0703574345
v -0.470527261 0.167332143 0.165266305
v -0.483607024 0.188565269 0.0689183027
v -0.487737507 0.188565269 -0.0266922712
v -0.42927891 0.167332143 0.253829747
v -0.42049849 0.188565269 0.2486379
v -0.460903168 0.188565269 0.161885902
v -0.405418128 0.200087041 0.239721134
v -0.444373757 0.200087041 0.15608035
v -0.466263413 0.200087041 0.0664468482
v -0.470245808 0.200087041 -0.0257348493
v -0.424297869 0.201261058 0.149028927
v -0.445198536 0.201261058 0.0634448752
v -0.449001044 0.201261058 -0.0245722327
v -0.399609953 0.191948429 0.140357673
v -0.419294536 0.191948429 0.0597533584
v -0.422875732 0.191948429 -0.023142444
v -0.383419663 0.0684158504 -0.0209833216
v -0.38017264 0.0684158504 0.054177966
v -0.35001269 0.0430510901 -0.0191047583
v -0.347037852 0.0430511087 0.0495023467
v -0.362324744 0.0684158504 0.127261564
v -0.330735534 0.0430511311 0.116210818
v -0.330561817 0.0684158504 0.195458949
v -0.371311367 0.00952613447 -0.0951717049
v -0.427989811 0.0322430916 -0.0233613364
v -0.38277033 0.00952613447 -0.0209471099
v -0.415190995 0.0322430804 -0.106350705
v -0.345592082 0.00952613447 -0.165734574
v -0.465612203 0.074024342 -0.0254814364
v -0.386447698 0.032243073 -0.185248524
v -0.306600869 0.00952613447 -0.229923993
v -0.451673031 0.074024342 -0.115770288
v -0.489876747 0.120765463 -0.0268093552
v -0.342864484 0.0322430693 -0.257022828
v -0.255836099 0.00952613447 -0.285273224
v -0.475211143 0.120765463 -0.12180344
v -0.497921973 0.167332143 -0.0272495747
v -0.420387179 0.074024342 -0.201604873
v -0.286116242 0.0322430693 -0.318915308
v -0.195248663 0.00952613447 -0.32965523
v -0.483015507 0.167332143 -0.12380375
v -0.487737507 0.188565269 -0.0266922712
v -0.442294866 0.120765463 -0.212111101
v -0.372957021 0.074024342 -0.2796866
v -0.218383789 0.032243073 -0.368547499
v -0.127166897 0.00952613447 -0.361364424
v -0.473135948 0.188565269 -0.121271528
v -0.470245808 0.200087041 -0.0257348493
v -0.449558705 0.167332143 -0.21559453
v -0.392392993 0.120765463 -0.294261932
v -0.311205208 0.074024342 -0.347014844
v -0.142270029 0.0322430804 -0.404012144
v -0.0542071424 0.00952613447 -0.37918219
v -0.398837268 0.167332143 -0.299094528
v -0.440363467 0.188565269 -0.211184859
v -0.327423096 0.120765463 -0.365098834
v -0.237504855 0.074024342 -0.401002198
v -0.0606999584 0.0322430916 -0.423946232
v 0.0208267774 0.00952613447 -0.382423937
v -0.332800359 0.167332143 -0.371094763
v -0.249881968 0.120765463 -0.421899647
v -0.154688209 0.074024342 -0.439574003
v 0.0231917109 0.0322431065 -0.427583754
v 0.0950513706 0.00952613447 -0.370964944
v -0.162749514 0.120765463 -0.462481529
v -0.0659378842 0.074024342 -0.461247921
v 0.106181078 0.0322431214 -0.414784968
v 0.165614218 0.00952613447 -0.345245659
v 0.0253354944 0.074024342 -0.465191036
v 0.185078904 0.03224314 -0.386041671
v 0.229803652 0.00952613447 -0.306254447
v 0.115624346 0.074024342 -0.451251835
v 0.0266557857 0.120765463 -0.489433557
v 0.256853193 0.0322431587 -0.342458457
v 0.285152882 0.00952613447 -0.255489677
v -0.0693741292 0.120765463 -0.485284895
v 0.201458931 0.074024342 -0.419966012
v 0.318745673 0.032243181 -0.285710216
v 0.329534858 0.00952613447 -0.194902241
v 0.279540658 0.074024342 -0.372535825
v 0.368377864 0.0322432034 -0.217977747
v 0.361244082 0.00952613447 -0.126820475
v 0.346868902 0.074024342 -0.310784012
v 0.403842509 0.032243222 -0.141863987
v 0.379061878 0.00952613447 -0.0538607202
v 0.400856227 0.074024342 -0.237083659
v 0.423776567 0.0322432406 -0.0602939203
v 0.382303566 0.00952613447 0.0211732071
v 0.427414119 0.0322432555 0.0235977471
v 0.439428061 0.074024342 -0.154267013
v 0.461101979 0.074024342 -0.0655167028
v 0.465045065 0.074024342 0.0257566776
v 0.489279956 0.120765463 0.0270989668
v 0.485131323 0.120765463 -0.0689309537
v 0.497315437 0.167332143 0.0275438949
v 0.462327957 0.120765463 -0.162306324
v 0.421746045 0.120765463 -0.249438792
v 0.493098617 0.167332143 -0.0700631216
v 0.364945263 0.120765463 -0.326979905
v 0.294108331 0.120765463 -0.391949803
v 0.483012944 0.188565269 -0.0686299652
v 0.487143427 0.188565269 0.0269806124
v 0.469920725 0.167332143 -0.164971977
v 0.370938689 0.167332143 -0.332349956
v 0.211957544 0.120765463 -0.441851676
v 0.465690613 0.200087041 -0.0661687478
v 0.469673008 0.200087041 0.0260129422
v 0.460309088 0.188565269 -0.16159758
v 0.428672373 0.167332143 -0.25353542
v 0.419904441 0.188565269 -0.248349562
v 0.443800986 0.200087041 -0.15580228
v 0.444651634 0.201261058 -0.0631793514
v 0.448454082 0.201261058 0.0248377528
v 0.363351613 0.188565269 -0.325552046
v 0.404845297 0.200087041 -0.239443049
v 0.423750937 0.201261058 -0.148763418
v 0.418779433 0.191948429 -0.0595032498
v 0.422360629 0.191948429 0.0233925525
v 0.38295269 0.0684158504 0.0212099832
v 0.350320697 0.200087041 -0.313876837
v 0.386555195 0.201261058 -0.228625461
v 0.39909485 0.191948429 -0.140107572
v 0.379705608 0.0684158504 -0.0539513044
v 0.349541783 0.0430513509 0.019298071
v 0.346566916 0.0430513322 -0.0493090339
v 0.361857742 0.0684158504 -0.127034917
v 0.330264628 0.0430513024 -0.116017498
v 0.364063382 0.191948429 -0.215322807
v 0.330094814 0.0684158504 -0.195232287
v 0.301261425 0.0430512801 -0.178263769
v 0.285637647 0.0684158504 -0.255922645
v 0.260671824 0.0430512503 -0.233655751
v 0.31503126 0.191948429 -0.28225854
v 0.230194569 0.0684158504 -0.306773663
v 0.210055724 0.0430512168 -0.280064762
v 0.334493905 0.201261058 -0.299696475
v 0.253882766 0.191948429 -0.338342428
v 0.165896282 0.0684158504 -0.345831215
v 0.151358277 0.0430511907 -0.315707326
v 0.269567668 0.201261058 -0.359245211
v 0.182967797 0.191948429 -0.381419182
v 0.0952136964 0.0684158504 -0.37159431
v 0.0868351534 0.0430511609 -0.339213699
v 0.282322407 0.200087041 -0.376243114
v 0.105011582 0.191948429 -0.409833401
v 0.0208631493 0.0684158504 -0.383072853
v 0.0189659484 0.0430511311 -0.349680573
v 0.194271594 0.201261058 -0.404983252
v 0.29282406 0.188565269 -0.390238225
v 0.203463644 0.200087041 -0.424145311
v 0.111499242 0.201261058 -0.435152918
v 0.298938423 0.167332143 -0.398386836
v 0.211032003 0.188565269 -0.439922243
v 0.215438426 0.167332143 -0.449108273
v 0.116774879 0.200087041 -0.455742478
v 0.121118665 0.188565269 -0.472694725
v 0.121649876 0.120765463 -0.474767953
v 0.12364763 0.167332143 -0.482565075
v 0.0270934571 0.167332143 -0.497471541
v 0.0255874991 0.200087041 -0.46982035
v 0.0265394077 0.188565269 -0.487296283
v -0.0705135539 0.167332143 -0.493254721
v -0.0690711662 0.188565269 -0.483165801
v -0.16542241 0.167332143 -0.470076829
v -0.0665941909 0.200087041 -0.465837926
v -0.162038758 0.188565269 -0.460461944
v -0.253985852 0.167332143 -0.428828448
v -0.248790771 0.188565269 -0.420057297
v -0.156227723 0.200087041 -0.443948328
v -0.32599327 0.188565269 -0.363504469
v -0.239868507 0.200087041 -0.40499267
v -0.314302295 0.200087041 -0.35046801
v -0.390679419 0.188565269 -0.292976916
v -0.229031667 0.201261058 -0.386695921
v -0.149169624 0.201261058 -0.423891634
v -0.376668572 0.200087041 -0.282469749
v -0.424570769 0.200087041 -0.203610986
v -0.0635855719 0.201261058 -0.44479233
v -0.456167936 0.200087041 -0.116922222
v -0.435559154 0.201261058 -0.111639939
v -0.449001044 0.201261058 -0.0245722327
v -0.422875732 0.191948429 -0.023142444
v -0.405389458 0.201261058 -0.194412291
v -0.410215974 0.191948429 -0.105144091
v -0.383419663 0.0684158504 -0.0209833216
v -0.359651446 0.201261058 -0.269708365
v -0.381801784 0.191948429 -0.183100298
v -0.300102711 0.201261058 -0.334634572
v -0.338725001 0.191948429 -0.254015267
v -0.282641143 0.191948429 -0.315163761
v -0.215705425 0.191948429 -0.364195883
v -0.256269485 0.0684158504 -0.28575781
v -0.307120502 0.0684158504 -0.230314746
v -0.346178055 0.0684158504 -0.166016459
v -0.140490159 0.191948429 -0.399227321
v -0.371941149 0.0684158504 -0.0953338668
v -0.339545816 0.0430510752 -0.0869739577
v -0.35001269 0.0430510901 -0.0191047583
v -0.316039443 0.043051064 -0.151497096
v -0.280396879 0.0430510603 -0.210194543
v -0.233987853 0.043051064 -0.260810643
v -0.178595901 0.0430510752 -0.301400244
v -0.195579126 0.0684158504 -0.330214977
v -0.11634963 0.0430510901 -0.330403447
v -0.127381742 0.0684158504 -0.361977905
v -0.0496411547 0.0430511087 -0.346705735
v -0.0542981364 0.0684158504 -0.379825771
v -0.0598858483 0.191948429 -0.418911934
v 0.0230099503 0.191948429 -0.42249316
v 0.0244315378 0.201261058 -0.448594809
v -0.0496411547 0.0430511087 -0.346705735
v 0.0189659484 0.0430511311 -0.349680573
v 0.0868351534 0.0430511609 -0.339213699
v -0.11634963 0.0430510901 -0.330403447
v 0.151358277 0.0430511907 -0.315707326
v -0.178595901 0.0430510752 -0.301400244
v 0.210055724 0.0430512168 -0.280064762
v -0.233987853 0.043051064 -0.260810643
v 0.260671824 0.0430512503 -0.233655751
v -0.280396879 0.0430510603 -0.210194543
v 0.301261425 0.0430512801 -0.178263769
v -0.316039443 0.043051064 -0.151497096
v 0.330264628 0.0430513024 -0.116017498
v -0.339545816 0.0430510752 -0.0869739577
v 0.346566916 0.0430513322 -0.0493090339
v -0.35001269 0.0430510901 -0.0191047583
v 0.349541783 0.0430513509 0.019298071
v -0.347037852 0.0430511087 0.0495023467
v 0.33907488 0.0430513658 0.0871672779
v -0.330735534 0.0430511311 0.116210818
v 0.315568507 0.0430513695 0.151690394
v -0.301732361 0.0430511609 0.178457081
v 0.279925942 0.0430513769 0.210387856
v -0.261142761 0.0430511907 0.233849049
v 0.233516917 0.0430513695 0.261003941
v -0.210526675 0.0430512168 0.28025806
v 0.178124964 0.0430513658 0.301593542
v -0.151829213 0.0430512503 0.315900624
v 0.115878694 0.0430513509 0.330596715
v -0.0873060897 0.0430512801 0.339406997
v 0.0491702259 0.0430513322 0.346899033
v -0.0194368809 0.0430513099 0.349873871
vt 0.329101562 1.72363281
vt 0.364501953 1.61914062
vt 0.371582031 1.56445312
vt 0.364501953 1.45410156
vt 0.301269531 1.77148438
vt 0.350097656 1.40136719
vt 0.228637695 1.85449219
vt 0.301269531 1.30175781
vt 0.184814453 1.88769531
vt 0.267822266 1.25878906
vt 0.0859985352 1.93652344
vt 0.184814453 1.18554688
vt 0.032623291 1.95117188
vt 0.136962891 1.15820312
vt -0.0773925781 1.95800781
vt 0.032623291 1.12304688
vt -0.132202148 1.95117188
vt -0.0221557617 1.11523438
vt -0.236572266 1.91601562
vt -0.132202148 1.12304688
vt -0.284423828 1.88769531
vt -0.185546875 1.13671875
vt -0.3671875 1.81542969
vt -0.284423828 1.18554688
vt -0.400878906 1.77148438
vt -0.328125 1.21972656
vt -0.449707031 1.67285156
vt -0.400878906 1.30175781
vt -0.464111328 1.61914062
vt -0.428466797 1.34960938
vt -0.471191406 1.50878906
vt -0.464111328 1.45410156
vt 0.190429688 0.0468139648
vt 0.149536133 0.116760254
vt 0.206176758 0.0756835938
vt 0.126953125 0.0928955078
vt 0.125488281 0.142333984
vt 0.136108398 -0.0534057617
vt 0.100402832 0.121948242
vt 0.0888671875 0.201904297
vt 0.0485229492 0.0101470947
vt 0.059387207 0.188720703
vt 0.0770263672 0.234863281
vt 0.0297393799 -0.00967407227
vt 0.12310791 -0.0773925781
vt 0.0113525391 0.0496520996
vt 0.0455322266 0.225463867
vt 0.0659790039 0.303710938
vt 0.015296936 -0.0249328613
vt 0.113098145 -0.0958862305
vt 0.103210449 -0.114196777
vt -0.0096282959 0.0326538086
vt -0.0453186035 0.141967773
vt 0.0331726074 0.302978516
vt 0.0670166016 0.338867188
vt 0.034942627 0.342041016
vt 0.0833740234 0.406738281
vt -0.0806884766 0.299804688
vt 0.0531921387 0.418212891
vt 0.0982666016 0.438476562
vt -0.0258789062 0.0194702148
vt -0.0700073242 0.130981445
vt -0.0637207031 0.192993164
vt -0.0899047852 0.185180664
vt -0.0891113281 0.122436523
vt -0.108032227 0.299072266
vt -0.110046387 0.179199219
vt -0.0420532227 0.00634765625
vt -0.108093262 0.113952637
vt -0.130004883 0.173339844
vt 0.000982284546 -0.0400390625
vt -0.0153656006 -0.0572814941
vt 0.0918579102 -0.135131836
vt -0.0608520508 -0.00888061523
vt -0.0509033203 -0.0947875977
vt 0.0672607422 -0.180541992
vt -0.130249023 0.104125977
vt -0.0979003906 -0.144287109
vt 0.0346984863 -0.240478516
vt -0.100708008 -0.0411987305
vt -0.152709961 0.166625977
vt -0.177001953 0.0832519531
vt -0.155517578 -0.205078125
vt -0.00522232056 -0.314208984
vt -0.0501403809 -0.396972656
vt -0.220336914 -0.2734375
vt -0.294921875 -0.198730469
vt -0.218383789 -0.13659668
vt -0.405517578 -0.0185852051
vt -0.15246582 -0.0831298828
vt -0.315429688 0.0215759277
vt -0.438232422 0.0818481445
vt -0.237915039 0.0560913086
vt -0.347900391 0.108642578
vt -0.471191406 0.289550781
vt -0.202270508 0.151855469
vt -0.376953125 0.291992188
vt -0.470947266 0.395019531
vt -0.267578125 0.132446289
vt -0.373046875 0.384765625
vt -0.421875 0.600585938
vt -0.293457031 0.294189453
vt -0.225219727 0.295898438
vt -0.329833984 0.564941406
vt -0.374023438 0.694335938
vt -0.288574219 0.375976562
vt -0.291259766 0.649902344
vt -0.250732422 0.864746094
vt -0.173583984 0.297363281
vt -0.222412109 0.369140625
vt -0.250732422 0.534667969
vt -0.182373047 0.799804688
vt -0.17590332 0.938964844
vt -0.149780273 0.298095703
vt -0.171508789 0.363769531
vt -0.188476562 0.510742188
vt -0.217773438 0.609863281
vt -0.113830566 0.862792969
vt 0.00397491455 1.04980469
vt -0.12902832 0.298583984
vt -0.147460938 0.361083984
vt -0.140625 0.492675781
vt -0.157714844 0.577148438
vt -0.121582031 0.7421875
vt -0.126708984 0.359130859
vt -0.118041992 0.483886719
vt -0.112365723 0.552734375
vt -0.105895996 0.356933594
vt -0.0985717773 0.4765625
vt -0.0790405273 0.354003906
vt -0.0790405273 0.468994141
vt -0.0914916992 0.541503906
vt -0.0720825195 0.6953125
vt -0.0538330078 0.459228516
vt -0.0732421875 0.53125
vt -0.0346374512 0.659667969
vt -0.0173797607 0.643554688
vt 0.0137405396 0.705078125
vt -0.0185546875 0.745117188
vt 0.0693969727 0.454101562
vt 0.139282227 0.494873047
vt -0.0547485352 0.521484375
vt -0.0307617188 0.508300781
vt 0.11541748 0.517578125
vt 0.164794922 0.519042969
vt 0.0129394531 0.614746094
vt 0.0327453613 0.595703125
vt 0.14440918 0.543945312
vt 0.224365234 0.555175781
vt 0.211303711 0.584960938
vt 0.257324219 0.567382812
vt 0.072265625 0.6328125
vt 0.248046875 0.598632812
vt 0.326416016 0.578125
vt -0.00229454041 0.62890625
vt 0.0552368164 0.653808594
vt 0.164550781 0.689453125
vt 0.0289611816 0.686523438
vt 0.0420837402 0.670410156
vt 0.153564453 0.714355469
vt 0.126708984 0.774414062
vt 0.136474609 0.752441406
vt 0.145019531 0.733398438
vt 0.207763672 0.734375
vt 0.201782227 0.754394531
vt 0.195800781 0.774414062
vt 0.189086914 0.796875
vt 0.105773926 0.821289062
vt 0.215576172 0.708007812
vt 0.321533203 0.752441406
vt 0.322265625 0.725097656
vt -0.0604553223 0.796875
vt 0.044128418 0.959472656
vt 0.104309082 1.08203125
vt 0.0786743164 0.882324219
vt 0.131103516 0.9921875
vt 0.311767578 1.11523438
vt 0.174316406 0.846679688
vt 0.314208984 1.02148438
vt 0.417236328 1.11523438
vt 0.154907227 0.912109375
vt 0.318359375 0.869628906
vt 0.406982422 1.01757812
vt 0.622558594 1.06640625
vt 0.31640625 0.9375
vt 0.587402344 0.974609375
vt 0.716796875 1.01855469
vt 0.671875 0.936035156
vt 0.398193359 0.933105469
vt 0.557128906 0.895019531
vt 0.632324219 0.862304688
vt 0.599609375 0.802246094
vt 0.533203125 0.833007812
vt 0.575195312 0.756835938
vt 0.391357422 0.866699219
vt 0.515136719 0.78515625
vt 0.386230469 0.815917969
vt 0.506347656 0.762695312
vt 0.563964844 0.736328125
vt 0.319824219 0.817871094
vt 0.320556641 0.793945312
vt 0.383544922 0.791992188
vt 0.321044922 0.7734375
vt 0.381591797 0.770996094
vt 0.499023438 0.743164062
vt 0.553710938 0.717773438
vt 0.379394531 0.750488281
vt 0.491455078 0.723632812
vt 0.543945312 0.69921875
vt 0.376464844 0.723632812
vt 0.481933594 0.698242188
vt 0.530761719 0.675292969
vt 0.476806641 0.575195312
vt 0.440917969 0.591308594
vt 0.4609375 0.546386719
vt 0.429443359 0.561035156
vt 0.364746094 0.609375
vt 0.361328125 0.577148438
vt 0.325439453 0.611328125
vt 0.88671875 0.895507812
vt 0.671875 0.936035156
vt 0.716796875 1.01855469
vt 0.822265625 0.827148438
vt 0.961425781 0.820800781
vt 0.632324219 0.862304688
vt 0.885253906 0.758789062
vt 1.07226562 0.641113281
vt 0.764648438 0.766601562
vt 0.599609375 0.802246094
vt 0.982421875 0.600585938
vt 1.10546875 0.540527344
vt 0.717773438 0.716796875
vt 0.575195312 0.756835938
vt 0.819335938 0.705078125
vt 1.01464844 0.513671875
vt 1.13867188 0.333007812
vt 0.682128906 0.679199219
vt 0.563964844 0.736328125
vt 0.767578125 0.663574219
vt 0.904785156 0.56640625
vt 1.04394531 0.330566406
vt 1.13867188 0.227416992
vt 0.666015625 0.662109375
vt 0.553710938 0.717773438
vt 0.728027344 0.630859375
vt 0.844238281 0.5390625
vt 0.934570312 0.489990234
vt 1.04003906 0.237548828
vt 1.08984375 0.0218811035
vt 0.797363281 0.518066406
vt 0.708984375 0.615722656
vt 0.869140625 0.470458984
vt 0.960449219 0.328125
vt 0.997070312 0.0571289062
vt 1.04199219 -0.0724487305
vt 0.819824219 0.455566406
vt 0.892578125 0.326416016
vt 0.956054688 0.246337891
vt 0.958984375 -0.0275726318
vt 0.918457031 -0.242675781
vt 0.889648438 0.253173828
vt 0.91796875 0.0874023438
vt 0.850097656 -0.177978516
vt 0.84375 -0.317382812
vt 0.885253906 0.0122909546
vt 0.78125 -0.240844727
vt 0.663574219 -0.427978516
vt 0.7890625 -0.120361328
vt 0.825195312 0.0447998047
vt 0.623046875 -0.337890625
vt 0.562988281 -0.4609375
vt 0.855957031 0.111206055
vt 0.728027344 -0.174926758
vt 0.536132812 -0.370605469
vt 0.35546875 -0.494140625
vt 0.588867188 -0.260498047
vt 0.352783203 -0.399902344
vt 0.249633789 -0.493896484
vt 0.512207031 -0.290283203
vt 0.260009766 -0.395751953
vt 0.0441589355 -0.444824219
vt 0.350585938 -0.316162109
vt 0.0794677734 -0.352539062
vt -0.0501403809 -0.396972656
vt -0.00522232056 -0.314208984
vt 0.268798828 -0.311523438
vt 0.109802246 -0.2734375
vt 0.0346984863 -0.240478516
vt 0.0672607422 -0.180541992
vt 0.133666992 -0.211181641
vt 0.0918579102 -0.135131836
vt 0.275634766 -0.245239258
vt 0.348632812 -0.247802734
vt 0.151977539 -0.163330078
vt 0.492919922 -0.224853516
vt 0.561523438 -0.199584961
vt 0.160644531 -0.14074707
vt 0.103210449 -0.114196777
vt 0.281005859 -0.194213867
vt 0.478027344 -0.175415039
vt 0.686035156 -0.12322998
vt 0.16809082 -0.121276855
vt 0.113098145 -0.0958862305
vt 0.283447266 -0.170043945
vt 0.347412109 -0.196166992
vt 0.346679688 -0.172485352
vt 0.285644531 -0.149414062
vt 0.175537109 -0.101745605
vt 0.12310791 -0.0773925781
vt 0.471435547 -0.152587891
vt 0.346191406 -0.151611328
vt 0.287841797 -0.128540039
vt 0.185302734 -0.0764770508
vt 0.136108398 -0.0534057617
vt 0.190429688 0.0468139648
vt 0.465332031 -0.13269043
vt 0.345458984 -0.130615234
vt 0.290527344 -0.10168457
vt 0.226318359 0.0306091309
vt 0.206176758 0.0756835938
vt 0.237915039 0.060760498
vt 0.302490234 0.0123596191
vt 0.305908203 0.0444641113
vt 0.344726562 -0.10333252
vt 0.341796875 0.010597229
vt 0.340820312 0.0434265137
vt 0.419189453 0.0229949951
vt 0.409912109 0.0545654297
vt 0.451660156 -0.0863037109
vt 0.456054688 0.0368652344
vt 0.442871094 0.0663452148
vt 0.459472656 -0.112487793
vt 0.502929688 -0.0679321289
vt 0.522949219 0.0778198242
vt 0.502441406 0.102905273
vt 0.513671875 -0.092590332
vt 0.595214844 -0.01121521
vt 0.551757812 0.104309082
vt 0.527832031 0.126831055
vt 0.522460938 -0.111694336
vt 0.634277344 0.0259857178
vt 0.59765625 0.16784668
vt 0.568847656 0.18347168
vt 0.611816406 -0.0321960449
vt 0.530761719 -0.130737305
vt 0.625 -0.0484313965
vt 0.654296875 0.00720214844
vt 0.540527344 -0.152832031
vt 0.638183594 -0.0646362305
vt 0.653808594 -0.0833740234
vt 0.669433594 -0.00723648071
vt 0.684570312 -0.0215454102
vt 0.739257812 -0.073425293
vt 0.702148438 -0.0378723145
vt 0.779785156 0.0693969727
vt 0.740722656 0.090637207
vt 0.758789062 0.0806884766
vt 0.808105469 0.129516602
vt 0.78515625 0.138183594
vt 0.838867188 0.258544922
vt 0.765625 0.145629883
vt 0.814453125 0.260986328
vt 0.840820312 0.324951172
vt 0.816894531 0.32421875
vt 0.793945312 0.263183594
vt 0.796875 0.448974609
vt 0.796386719 0.323730469
vt 0.77734375 0.442871094
vt 0.775390625 0.508300781
vt 0.775390625 0.322998047
vt 0.772949219 0.265380859
vt 0.756347656 0.499755859
vt 0.692871094 0.602539062
vt 0.74609375 0.153076172
vt 0.651855469 0.646972656
vt 0.637207031 0.631835938
vt 0.543945312 0.69921875
vt 0.530761719 0.675292969
vt 0.676757812 0.589355469
vt 0.618652344 0.611816406
vt 0.476806641 0.575195312
vt 0.736816406 0.491210938
vt 0.655761719 0.572265625
vt 0.756835938 0.437011719
vt 0.712402344 0.480224609
vt 0.730957031 0.429199219
vt 0.748046875 0.322265625
vt 0.621582031 0.396728516
vt 0.607910156 0.433349609
vt 0.566894531 0.5
vt 0.74609375 0.268066406
vt 0.540039062 0.529296875
vt 0.517578125 0.505371094
vt 0.4609375 0.546386719
vt 0.541503906 0.479736328
vt 0.578125 0.420410156
vt 0.58984375 0.387451172
vt 0.601074219 0.318359375
vt 0.633789062 0.319335938
vt 0.600097656 0.283447266
vt 0.632324219 0.280029297
vt 0.583496094 0.215209961
vt 0.613769531 0.203735352
vt 0.721191406 0.162719727
vt 0.698242188 0.113586426
vt 0.722167969 0.100585938
vt 0.583496094 0.215209961
vt 0.568847656 0.18347168
vt 0.527832031 0.126831055
vt 0.600097656 0.283447266
vt 0.502441406 0.102905273
vt 0.601074219 0.318359375
vt 0.442871094 0.0663452148
vt 0.58984375 0.387451172
vt 0.409912109 0.0545654297
vt 0.578125 0.420410156
vt 0.340820312 0.0434265137
vt 0.541503906 0.479736328
vt 0.305908203 0.0444641113
vt 0.517578125 0.505371094
vt 0.237915039 0.060760498
vt 0.4609375 0.546386719
vt 0.206176758 0.0756835938
vt 0.429443359 0.561035156
vt 0.149536133 0.116760254
vt 0.361328125 0.577148438
vt 0.125488281 0.142333984
vt 0.326416016 0.578125
vt 0.0888671875 0.201904297
vt 0.257324219 0.567382812
vt 0.0770263672 0.234863281
vt 0.224365234 0.555175781
vt 0.0659790039 0.303710938
vt 0.164794922 0.519042969
vt 0.0670166016 0.338867188
vt 0.139282227 0.494873047
vt 0.0833740234 0.406738281
vt 0.0982666016 0.438476562
vn 0.060760498 -0.969726562 -0.236572266
vn 0.0134429932 -0.969726562 -0.243896484
vn -0.0343933105 -0.969726562 -0.241699219
vn -0.080871582 -0.969726562 -0.23034668
vn 0.105773926 -0.969726562 -0.220214844
vn -0.124206543 -0.969726562 -0.210083008
vn 0.146728516 -0.969726562 -0.19543457
vn -0.162841797 -0.969726562 -0.181762695
vn 0.182006836 -0.969726562 -0.163085938
vn -0.195068359 -0.969726562 -0.146484375
vn 0.210327148 -0.969726562 -0.124389648
vn -0.219970703 -0.969726562 -0.105651855
vn 0.23059082 -0.969726562 -0.0809936523
vn -0.236328125 -0.969726562 -0.0606689453
vn 0.241943359 -0.969726562 -0.0344238281
vn -0.243530273 -0.969726562 -0.0134124756
vn 0.244018555 -0.969726562 0.0134353638
vn -0.241455078 -0.969726562 0.034362793
vn 0.236694336 -0.969726562 0.0607910156
vn -0.230224609 -0.969726562 0.0808105469
vn 0.220336914 -0.969726562 0.105773926
vn -0.209960938 -0.969726562 0.124206543
vn 0.19543457 -0.969726562 0.146728516
vn -0.181762695 -0.969726562 0.162841797
vn 0.162963867 -0.969726562 0.182006836
vn -0.146484375 -0.969726562 0.19519043
vn 0.124389648 -0.969726562 0.210327148
vn -0.105651855 -0.969726562 0.219970703
vn 0.0809326172 -0.969726562 0.23046875
vn -0.0606994629 -0.969726562 0.236450195
vn 0.0344238281 -0.969726562 0.241821289
vn -0.0134048462 -0.969726562 0.243774414
vn -0.821289062 0.568847656 -0.0452270508
vn -0.325683594 0.941894531 -0.0835571289
vn -0.335693359 0.941894531 -0.0184173584
vn -0.796386719 0.568847656 -0.204589844
vn -0.303222656 0.941894531 -0.145507812
vn -0.703613281 0.709472656 -0.0387268066
vn -0.741210938 0.568847656 -0.355957031
vn -0.268798828 0.941894531 -0.201782227
vn -0.682617188 0.709472656 -0.175292969
vn -0.657714844 0.568847656 -0.493896484
vn -0.224365234 0.941894531 -0.250488281
vn -0.126831055 0.991210938 -0.0325622559
vn -0.130737305 0.991210938 -0.00720214844
vn -0.635253906 0.709472656 -0.305175781
vn -0.548828125 0.568847656 -0.612792969
vn -0.171142578 0.941894531 -0.289306641
vn 0.317626953 0.944824219 0.0815429688
vn 0.327392578 0.944824219 0.0180206299
vn 0.759277344 0.649902344 0.0417785645
vn -0.118041992 0.991210938 -0.0566711426
vn -0.563476562 0.709472656 -0.423095703
vn -0.418701172 0.568847656 -0.708007812
vn -0.111450195 0.941894531 -0.317138672
vn -0.272460938 0.568847656 -0.775878906
vn -0.0474243164 0.941894531 -0.332763672
vn -0.358642578 0.709472656 -0.606445312
vn -0.115844727 0.568847656 -0.813964844
vn 0.0184326172 0.941894531 -0.335693359
vn 0.295654297 0.944824219 0.141967773
vn -0.104675293 0.991210938 -0.0786132812
vn -0.470214844 0.709472656 -0.524902344
vn -0.0873413086 0.991210938 -0.0975341797
vn 0.262207031 0.944824219 0.196899414
vn -0.0665893555 0.991210938 -0.112670898
vn 0.21875 0.944824219 0.244140625
vn 0.685058594 0.649902344 0.329101562
vn 0.607910156 0.649902344 0.456542969
vn 0.507324219 0.649902344 0.56640625
vn 0.736328125 0.649902344 0.189086914
vn 0.959472656 0.135131836 0.246459961
vn 0.989257812 0.135131836 0.054473877
vn 0.893066406 0.135131836 0.428955078
vn 0.918945312 -0.31640625 0.235961914
vn 0.947265625 -0.31640625 0.052154541
vn 0.792480469 0.135131836 0.594726562
vn 0.798339844 -0.56640625 0.204956055
vn 0.822753906 -0.56640625 0.0453186035
vn 0.854980469 -0.316650391 0.410644531
vn 0.661132812 0.135253906 0.73828125
vn 0.758300781 -0.316650391 0.569335938
vn 0.594238281 -0.789550781 0.15246582
vn 0.612304688 -0.789550781 0.0336303711
vn 0.244018555 -0.969726562 0.0134353638
vn 0.236694336 -0.969726562 0.0607910156
vn 0.220336914 -0.969726562 0.105773926
vn 0.553222656 -0.789550781 0.265380859
vn 0.19543457 -0.969726562 0.146728516
vn 0.743164062 -0.56640625 0.356689453
vn 0.490478516 -0.790039062 0.368164062
vn 0.162963867 -0.969726562 0.182006836
vn 0.659179688 -0.56640625 0.494873047
vn 0.409179688 -0.790039062 0.456787109
vn 0.124389648 -0.969726562 0.210327148
vn 0.6328125 -0.316650391 0.706542969
vn 0.312255859 -0.790039062 0.527832031
vn 0.0809326172 -0.969726562 0.23046875
vn 0.549804688 -0.56640625 0.613769531
vn 0.20324707 -0.790039062 0.578613281
vn 0.0344238281 -0.969726562 0.241821289
vn 0.419433594 -0.56640625 0.709472656
vn 0.482910156 -0.316650391 0.81640625
vn 0.0864868164 -0.790039062 0.606933594
vn -0.0134048462 -0.969726562 0.243774414
vn 0.272949219 -0.56640625 0.77734375
vn -0.0336303711 -0.790039062 0.612304688
vn -0.0606994629 -0.969726562 0.236450195
vn 0.504394531 0.135253906 0.853027344
vn 0.314208984 -0.316650391 0.895019531
vn 0.116088867 -0.56640625 0.815917969
vn -0.15246582 -0.790039062 0.59375
vn -0.105651855 -0.969726562 0.219970703
vn 0.386962891 0.649902344 0.654296875
vn 0.328369141 0.135253906 0.935058594
vn 0.133666992 -0.316650391 0.938964844
vn -0.0452880859 -0.56640625 0.822753906
vn -0.265380859 -0.790039062 0.552734375
vn -0.146484375 -0.969726562 0.19519043
vn 0.166870117 0.944824219 0.282226562
vn 0.251708984 0.649902344 0.717285156
vn 0.139526367 0.135253906 0.980957031
vn -0.052154541 -0.316650391 0.947265625
vn -0.204956055 -0.56640625 0.798339844
vn 0.108581543 0.944824219 0.309326172
vn 0.107055664 0.649902344 0.752441406
vn -0.054473877 0.135253906 0.989257812
vn -0.0433654785 0.991210938 -0.123474121
vn 0.0461730957 0.944824219 0.324462891
vn -0.233398438 0.709472656 -0.665039062
vn -0.0184326172 0.991210938 -0.129516602
vn -0.0417785645 0.649902344 0.758789062
vn -0.235961914 -0.316650391 0.918457031
vn -0.0992431641 0.709472656 -0.697753906
vn -0.0180053711 0.944824219 0.327148438
vn -0.246459961 0.135253906 0.959472656
vn -0.188964844 0.649902344 0.735839844
vn -0.428955078 0.135253906 0.893066406
vn -0.410644531 -0.316894531 0.854980469
vn 0.0451965332 0.568847656 -0.821289062
vn 0.0835571289 0.941894531 -0.325683594
vn 0.00719833374 0.991210938 -0.130615234
vn 0.0387268066 0.709472656 -0.703613281
vn 0.204467773 0.568847656 -0.796386719
vn 0.145507812 0.941894531 -0.302978516
vn 0.0325317383 0.991210938 -0.126708984
vn 0.175170898 0.709472656 -0.682617188
vn 0.355957031 0.568847656 -0.741210938
vn 0.201782227 0.941894531 -0.268798828
vn 0.493652344 0.568847656 -0.657714844
vn 0.250488281 0.941894531 -0.224365234
vn 0.304931641 0.709472656 -0.635253906
vn 0.612304688 0.568847656 -0.548828125
vn 0.289306641 0.941894531 -0.171264648
vn -0.0814819336 0.944824219 0.317382812
vn 0.056640625 0.991210938 -0.117919922
vn 0.423095703 0.709472656 -0.563476562
vn -0.328857422 0.649902344 0.685058594
vn -0.141845703 0.944824219 0.295410156
vn 0.0785522461 0.991210938 -0.104614258
vn -0.594726562 0.135253906 0.792480469
vn -0.456298828 0.649902344 0.607910156
vn -0.196655273 0.944824219 0.261962891
vn 0.0974121094 0.991210938 -0.0872802734
vn -0.244018555 0.944824219 0.21862793
vn -0.565917969 0.649902344 0.506835938
vn -0.73828125 0.135253906 0.661132812
vn -0.569335938 -0.316894531 0.758300781
vn 0.524902344 0.709472656 -0.469970703
vn 0.112609863 0.991210938 -0.0665893555
vn 0.606445312 0.709472656 -0.358642578
vn -0.356689453 -0.56640625 0.742675781
vn -0.368164062 -0.790039062 0.490234375
vn -0.181762695 -0.969726562 0.162841797
vn -0.494873047 -0.56640625 0.659179688
vn -0.456542969 -0.790039062 0.409179688
vn -0.209960938 -0.969726562 0.124206543
vn -0.706542969 -0.316894531 0.6328125
vn -0.527832031 -0.790039062 0.312255859
vn -0.230224609 -0.969726562 0.0808105469
vn -0.613769531 -0.56640625 0.549804688
vn -0.81640625 -0.316894531 0.482910156
vn -0.578613281 -0.790039062 0.20324707
vn -0.241455078 -0.969726562 0.034362793
vn -0.709472656 -0.56640625 0.419433594
vn -0.606933594 -0.790039062 0.0864868164
vn -0.243530273 -0.969726562 -0.0134124756
vn -0.612304688 -0.790039062 -0.0336303711
vn -0.77734375 -0.56640625 0.272949219
vn -0.815917969 -0.56640625 0.116088867
vn -0.822753906 -0.56640625 -0.0452880859
vn -0.947265625 -0.316894531 -0.0521240234
vn -0.938964844 -0.316894531 0.133666992
vn -0.989257812 0.135253906 -0.054473877
vn -0.895019531 -0.316894531 0.314208984
vn -0.980957031 0.135253906 0.139648438
vn -0.935058594 0.135253906 0.328369141
vn -0.752441406 0.649902344 0.107055664
vn -0.758789062 0.649902344 -0.0417785645
vn -0.853027344 0.135253906 0.504394531
vn -0.654296875 0.649902344 0.38671875
vn -0.716796875 0.649902344 0.251708984
vn -0.281982422 0.944824219 0.166748047
vn -0.309082031 0.944824219 0.108520508
vn -0.32421875 0.944824219 0.0461425781
vn -0.327148438 0.944824219 -0.0180206299
vn 0.123413086 0.991210938 -0.0433349609
vn 0.129516602 0.991210938 -0.0184326172
vn 0.130615234 0.991210938 0.00718688965
vn 0.664550781 0.709472656 -0.233398438
vn 0.697265625 0.709472656 -0.0992431641
vn 0.703613281 0.709472656 0.0387268066
vn 0.821289062 0.568847656 0.0451965332
vn 0.813964844 0.568847656 -0.115844727
vn 0.3359375 0.941894531 0.018447876
vn 0.333007812 0.941894531 -0.0474243164
vn 0.775878906 0.568847656 -0.272460938
vn 0.317382812 0.941894531 -0.111450195
vn 0.708007812 0.568847656 -0.418701172
vn -0.236328125 -0.969726562 -0.0606689453
vn -0.612304688 -0.790039062 -0.0336303711
vn -0.243530273 -0.969726562 -0.0134124756
vn -0.59375 -0.790039062 -0.15246582
vn -0.219970703 -0.969726562 -0.105651855
vn -0.822753906 -0.56640625 -0.0452880859
vn -0.552734375 -0.790039062 -0.265380859
vn -0.195068359 -0.969726562 -0.146484375
vn -0.798339844 -0.56640625 -0.204956055
vn -0.947265625 -0.316894531 -0.0521240234
vn -0.490478516 -0.790039062 -0.368164062
vn -0.162841797 -0.969726562 -0.181762695
vn -0.918457031 -0.316894531 -0.235839844
vn -0.989257812 0.135253906 -0.054473877
vn -0.743164062 -0.56640625 -0.356689453
vn -0.409179688 -0.790039062 -0.456787109
vn -0.124206543 -0.969726562 -0.210083008
vn -0.959472656 0.135253906 -0.246459961
vn -0.758789062 0.649902344 -0.0417785645
vn -0.854980469 -0.316650391 -0.410644531
vn -0.659179688 -0.56640625 -0.494873047
vn -0.312255859 -0.790039062 -0.527832031
vn -0.080871582 -0.969726562 -0.23034668
vn -0.735839844 0.649902344 -0.188964844
vn -0.327148438 0.944824219 -0.0180206299
vn -0.893066406 0.135253906 -0.428955078
vn -0.758300781 -0.316650391 -0.569335938
vn -0.549804688 -0.56640625 -0.613769531
vn -0.203369141 -0.790039062 -0.578613281
vn -0.0343933105 -0.969726562 -0.241699219
vn -0.792480469 0.135253906 -0.594726562
vn -0.685058594 0.649902344 -0.328857422
vn -0.6328125 -0.316650391 -0.706542969
vn -0.419433594 -0.56640625 -0.709472656
vn -0.0865478516 -0.789550781 -0.607421875
vn 0.0134429932 -0.969726562 -0.243896484
vn -0.661132812 0.135253906 -0.73828125
vn -0.482910156 -0.316650391 -0.81640625
vn -0.273193359 -0.56640625 -0.777832031
vn 0.0335998535 -0.789550781 -0.612304688
vn 0.060760498 -0.969726562 -0.236572266
vn -0.314208984 -0.316650391 -0.895019531
vn -0.116088867 -0.56640625 -0.815917969
vn 0.15246582 -0.789550781 -0.594238281
vn 0.105773926 -0.969726562 -0.220214844
vn 0.0453186035 -0.56640625 -0.823242188
vn 0.265380859 -0.789550781 -0.553222656
vn 0.146728516 -0.969726562 -0.19543457
vn 0.205078125 -0.56640625 -0.798339844
vn 0.052154541 -0.316650391 -0.947265625
vn 0.368164062 -0.789550781 -0.490722656
vn 0.182006836 -0.969726562 -0.163085938
vn -0.133666992 -0.316650391 -0.938964844
vn 0.356933594 -0.56640625 -0.743164062
vn 0.45703125 -0.789550781 -0.409423828
vn 0.210327148 -0.969726562 -0.124389648
vn 0.494873047 -0.56640625 -0.659179688
vn 0.527832031 -0.789550781 -0.3125
vn 0.23059082 -0.969726562 -0.0809936523
vn 0.613769531 -0.56640625 -0.549804688
vn 0.578613281 -0.789550781 -0.203369141
vn 0.241943359 -0.969726562 -0.0344238281
vn 0.709472656 -0.56640625 -0.419677734
vn 0.607421875 -0.789550781 -0.0865478516
vn 0.244018555 -0.969726562 0.0134353638
vn 0.612304688 -0.789550781 0.0336303711
vn 0.777832031 -0.56640625 -0.273193359
vn 0.815917969 -0.56640625 -0.116088867
vn 0.822753906 -0.56640625 0.0453186035
vn 0.947265625 -0.31640625 0.052154541
vn 0.938964844 -0.31640625 -0.133666992
vn 0.989257812 0.135131836 0.054473877
vn 0.895019531 -0.31640625 -0.314208984
vn 0.81640625 -0.31640625 -0.482910156
vn 0.980957031 0.135131836 -0.139526367
vn 0.706542969 -0.31640625 -0.6328125
vn 0.569335938 -0.31640625 -0.758789062
vn 0.752441406 0.649414062 -0.107116699
vn 0.759277344 0.649902344 0.0417785645
vn 0.935058594 0.135131836 -0.328369141
vn 0.73828125 0.135131836 -0.661132812
vn 0.410644531 -0.31640625 -0.854980469
vn 0.324707031 0.944824219 -0.0462036133
vn 0.327392578 0.944824219 0.0180206299
vn 0.717285156 0.649414062 -0.251953125
vn 0.853027344 0.135131836 -0.504394531
vn 0.654296875 0.649414062 -0.386962891
vn 0.309326172 0.944824219 -0.108642578
vn -0.129638672 0.991210938 0.018447876
vn -0.130737305 0.991210938 -0.00720214844
vn 0.56640625 0.649414062 -0.507324219
vn 0.282226562 0.944824219 -0.166870117
vn -0.123535156 0.991210938 0.0433959961
vn -0.697753906 0.709472656 0.0993041992
vn -0.703613281 0.709472656 -0.0387268066
vn -0.821289062 0.568847656 -0.0452270508
vn 0.244262695 0.944824219 -0.21875
vn -0.112731934 0.991210938 0.0666503906
vn -0.665039062 0.709472656 0.233520508
vn -0.814453125 0.568847656 0.115844727
vn -0.335693359 0.941894531 -0.0184173584
vn -0.333007812 0.941894531 0.047454834
vn -0.775878906 0.568847656 0.272460938
vn -0.317382812 0.941894531 0.11151123
vn -0.606445312 0.709472656 0.358642578
vn -0.708007812 0.568847656 0.418701172
vn -0.289550781 0.941894531 0.171264648
vn -0.612792969 0.568847656 0.548828125
vn -0.250488281 0.941894531 0.224487305
vn -0.524902344 0.709472656 0.470214844
vn -0.493896484 0.568847656 0.657714844
vn -0.201904297 0.941894531 0.269042969
vn -0.0975341797 0.991210938 0.0873413086
vn -0.423095703 0.709472656 0.563476562
vn -0.355957031 0.568847656 0.741210938
vn -0.145629883 0.941894531 0.303222656
vn -0.0786132812 0.991210938 0.104736328
vn -0.305175781 0.709472656 0.635253906
vn -0.204589844 0.568847656 0.796875
vn -0.0836181641 0.941894531 0.325927734
vn 0.196899414 0.944824219 -0.262207031
vn -0.175292969 0.709472656 0.682617188
vn -0.0452270508 0.568847656 0.821289062
vn -0.0184326172 0.941894531 0.3359375
vn -0.0566711426 0.991210938 0.118041992
vn 0.456542969 0.649414062 -0.607910156
vn 0.141967773 0.944824219 -0.295654297
vn -0.0325622559 0.991210938 0.126831055
vn 0.594726562 0.135131836 -0.792480469
vn 0.329101562 0.649902344 -0.685058594
vn 0.428955078 0.135131836 -0.893066406
vn 0.0815429688 0.944824219 -0.317626953
vn 0.189086914 0.649902344 -0.736328125
vn 0.235961914 -0.316650391 -0.918945312
vn 0.246459961 0.135131836 -0.959472656
vn 0.0544433594 0.135131836 -0.989257812
vn 0.0180358887 0.944824219 -0.327392578
vn 0.0417785645 0.649902344 -0.758789062
vn -0.139648438 0.135253906 -0.980957031
vn -0.107055664 0.649902344 -0.752441406
vn -0.328369141 0.135253906 -0.935058594
vn -0.0461730957 0.944824219 -0.324462891
vn -0.251708984 0.649902344 -0.717285156
vn -0.504394531 0.135253906 -0.853027344
vn -0.386962891 0.649902344 -0.654296875
vn -0.108581543 0.944824219 -0.309326172
vn -0.506835938 0.649902344 -0.565917969
vn -0.166870117 0.944824219 -0.282226562
vn -0.21862793 0.944824219 -0.244140625
vn -0.607910156 0.649902344 -0.456298828
vn 0.0666503906 0.991210938 0.112670898
vn 0.0433654785 0.991210938 0.123474121
vn -0.261962891 0.944824219 -0.196777344
vn -0.295410156 0.944824219 -0.141845703
vn 0.018447876 0.991210938 0.129638672
vn -0.317382812 0.944824219 -0.0814819336
vn 0.126708984 0.991210938 0.0325317383
vn 0.130615234 0.991210938 0.00718688965
vn 0.703613281 0.709472656 0.0387268066
vn 0.117919922 0.991210938 0.056640625
vn 0.682617188 0.709472656 0.175170898
vn 0.821289062 0.568847656 0.0451965332
vn 0.104614258 0.991210938 0.0785522461
vn 0.635253906 0.709472656 0.304931641
vn 0.0872802734 0.991210938 0.0974731445
vn 0.563476562 0.709472656 0.423095703
vn 0.469970703 0.709472656 0.524902344
vn 0.358642578 0.709472656 0.606445312
vn 0.548828125 0.568847656 0.612792969
vn 0.657714844 0.568847656 0.493896484
vn 0.741210938 0.568847656 0.355957031
vn 0.233520508 0.709472656 0.665039062
vn 0.796386719 0.568847656 0.204589844
vn 0.325683594 0.941894531 0.0836181641
vn 0.3359375 0.941894531 0.018447876
vn 0.303222656 0.941894531 0.145629883
vn 0.269042969 0.941894531 0.201904297
vn 0.224487305 0.941894531 0.250488281
vn 0.171264648 0.941894531 0.289550781
vn 0.418701172 0.568847656 0.708007812
vn 0.11151123 0.941894531 0.317382812
vn 0.272460938 0.568847656 0.775878906
vn 0.047454834 0.941894531 0.333007812
vn 0.115844727 0.568847656 0.814453125
vn 0.0992431641 0.709472656 0.697753906
vn -0.0387268066 0.709472656 0.703613281
vn -0.00719070435 0.991210938 0.130737305
vn 0.047454834 0.941894531 0.333007812
vn -0.0184326172 0.941894531 0.3359375
vn -0.0836181641 0.941894531 0.325927734
vn 0.11151123 0.941894531 0.317382812
vn -0.145629883 0.941894531 0.303222656
vn 0.171264648 0.941894531 0.289550781
vn -0.201904297 0.941894531 0.269042969
vn 0.224487305 0.941894531 0.250488281
vn -0.250488281 0.941894531 0.224487305
vn 0.269042969 0.941894531 0.201904297
vn -0.289550781 0.941894531 0.171264648
vn 0.303222656 0.941894531 0.145629883
vn -0.317382812 0.941894531 0.11151123
vn 0.325683594 0.941894531 0.0836181641
vn -0.333007812 0.941894531 0.047454834
vn 0.3359375 0.941894531 0.018447876
vn -0.335693359 0.941894531 -0.0184173584
vn 0.333007812 0.941894531 -0.0474243164
vn -0.325683594 0.941894531 -0.0835571289
vn 0.317382812 0.941894531 -0.111450195
vn -0.303222656 0.941894531 -0.145507812
vn 0.289306641 0.941894531 -0.171264648
vn -0.268798828 0.941894531 -0.201782227
vn 0.250488281 0.941894531 -0.224365234
vn -0.224365234 0.941894531 -0.250488281
vn 0.201782227 0.941894531 -0.268798828
vn -0.171142578 0.941894531 -0.289306641
vn 0.145507812 0.941894531 -0.302978516
vn -0.111450195 0.941894531 -0.317138672
vn 0.0835571289 0.941894531 -0.325683594
vn -0.0474243164 0.941894531 -0.332763672
vn 0.0184326172 0.941894531 -0.335693359
g S_Plate_01_0
f 3/3/3 2/2/2 1/1/1
f 1/1/1 4/4/4 3/3/3
f 1/1/1 5/5/5 4/4/4
f 5/5/5 6/6/6 4/4/4
f 5/5/5 7/7/7 6/6/6
f 7/7/7 8/8/8 6/6/6
f 7/7/7 9/9/9 8/8/8
f 9/9/9 10/10/10 8/8/8
f 9/9/9 11/11/11 10/10/10
f 11/11/11 12/12/12 10/10/10
f 11/11/11 13/13/13 12/12/12
f 13/13/13 14/14/14 12/12/12
f 13/13/13 15/15/15 14/14/14
f 15/15/15 16/16/16 14/14/14
f 15/15/15 17/17/17 16/16/16
f 17/17/17 18/18/18 16/16/16
f 17/17/17 19/19/19 18/18/18
f 19/19/19 20/20/20 18/18/18
f 19/19/19 21/21/21 20/20/20
f 21/21/21 22/22/22 20/20/20
f 21/21/21 23/23/23 22/22/22
f 23/23/23 24/24/24 22/22/22
f 23/23/23 25/25/25 24/24/24
f 25/25/25 26/26/26 24/24/24
f 25/25/25 27/27/27 26/26/26
f 27/27/27 28/28/28 26/26/26
f 27/27/27 29/29/29 28/28/28
f 29/29/29 30/30/30 28/28/28
f 29/29/29 31/31/31 30/30/30
f 31/31/31 32/32/32 30/30/30
f 35/35/35 34/34/34 33/33/33
f 34/34/34 36/36/36 33/33/33
f 36/36/36 34/34/34 37/37/37
f 33/33/33 36/36/36 38/38/38
f 39/39/39 36/36/36 37/37/37
f 39/39/39 37/37/37 40/40/40
f 36/36/36 41/41/41 38/38/38
f 41/41/41 36/36/36 39/39/39
f 42/42/42 39/39/39 40/40/40
f 42/42/42 40/40/40 43/43/43
f 41/41/41 44/44/44 38/38/38
f 44/44/44 45/45/45 38/38/38
f 46/46/46 41/41/41 39/39/39
f 46/46/46 39/39/39 42/42/42
f 47/47/47 42/42/42 43/43/43
f 43/43/43 48/48/48 47/47/47
f 45/45/45 44/44/44 49/49/49
f 50/50/50 45/45/45 49/49/49
f 50/50/50 49/49/49 51/51/51
f 44/44/44 41/41/41 52/52/52
f 41/41/41 46/46/46 52/52/52
f 53/53/53 46/46/46 42/42/42
f 53/53/53 42/42/42 47/47/47
f 48/48/48 54/54/54 47/47/47
f 54/54/54 48/48/48 55/55/55
f 56/56/56 54/54/54 55/55/55
f 56/56/56 55/55/55 57/57/57
f 47/47/47 54/54/54 58/58/58
f 58/58/58 54/54/54 56/56/56
f 59/59/59 56/56/56 57/57/57
f 59/59/59 57/57/57 60/60/60
f 44/44/44 52/52/52 61/61/61
f 49/49/49 44/44/44 61/61/61
f 52/52/52 46/46/46 62/62/62
f 46/46/46 53/53/53 62/62/62
f 63/63/63 53/53/53 47/47/47
f 63/63/63 47/47/47 58/58/58
f 53/53/53 63/63/63 64/64/64
f 62/62/62 53/53/53 64/64/64
f 52/52/52 62/62/62 65/65/65
f 61/61/61 52/52/52 65/65/65
f 64/64/64 63/63/63 66/66/66
f 63/63/63 58/58/58 66/66/66
f 62/62/62 64/64/64 67/67/67
f 65/65/65 62/62/62 67/67/67
f 64/64/64 66/66/66 67/67/67
f 49/49/49 61/61/61 68/68/68
f 61/61/61 65/65/65 69/69/69
f 68/68/68 61/61/61 69/69/69
f 65/65/65 67/67/67 70/70/70
f 69/69/69 65/65/65 70/70/70
f 71/71/71 49/49/49 68/68/68
f 49/49/49 71/71/71 51/51/51
f 51/51/51 71/71/71 72/72/72
f 73/73/73 51/51/51 72/72/72
f 71/71/71 68/68/68 74/74/74
f 72/72/72 71/71/71 74/74/74
f 72/72/72 75/75/75 73/73/73
f 72/72/72 74/74/74 75/75/75
f 75/75/75 76/76/76 73/73/73
f 68/68/68 69/69/69 77/77/77
f 74/74/74 68/68/68 77/77/77
f 75/75/75 78/78/78 76/76/76
f 78/78/78 79/79/79 76/76/76
f 74/74/74 80/80/80 75/75/75
f 74/74/74 77/77/77 80/80/80
f 75/75/75 80/80/80 78/78/78
f 77/77/77 69/69/69 81/81/81
f 69/69/69 70/70/70 81/81/81
f 77/77/77 82/82/82 80/80/80
f 77/77/77 81/81/81 82/82/82
f 79/79/79 78/78/78 83/83/83
f 84/84/84 79/79/79 83/83/83
f 84/84/84 83/83/83 85/85/85
f 83/83/83 86/86/86 85/85/85
f 86/86/86 83/83/83 87/87/87
f 83/83/83 88/88/88 87/87/87
f 83/83/83 78/78/78 88/88/88
f 87/87/87 88/88/88 89/89/89
f 80/80/80 90/90/90 78/78/78
f 78/78/78 90/90/90 88/88/88
f 80/80/80 82/82/82 90/90/90
f 88/88/88 91/91/91 89/89/89
f 88/88/88 90/90/90 91/91/91
f 89/89/89 91/91/91 92/92/92
f 82/82/82 93/93/93 90/90/90
f 90/90/90 93/93/93 91/91/91
f 91/91/91 94/94/94 92/92/92
f 91/91/91 93/93/93 94/94/94
f 92/92/92 94/94/94 95/95/95
f 82/82/82 96/96/96 93/93/93
f 81/81/81 96/96/96 82/82/82
f 94/94/94 97/97/97 95/95/95
f 95/95/95 97/97/97 98/98/98
f 93/93/93 99/99/99 94/94/94
f 96/96/96 99/99/99 93/93/93
f 94/94/94 99/99/99 97/97/97
f 97/97/97 100/100/100 98/98/98
f 98/98/98 100/100/100 101/101/101
f 99/99/99 102/102/102 97/97/97
f 102/102/102 99/99/99 96/96/96
f 97/97/97 102/102/102 100/100/100
f 103/103/103 96/96/96 81/81/81
f 103/103/103 102/102/102 96/96/96
f 100/100/100 104/104/104 101/101/101
f 101/101/101 104/104/104 105/105/105
f 102/102/102 106/106/106 100/100/100
f 100/100/100 106/106/106 104/104/104
f 104/104/104 107/107/107 105/105/105
f 105/105/105 107/107/107 108/108/108
f 109/109/109 103/103/103 81/81/81
f 81/81/81 70/70/70 109/109/109
f 103/103/103 110/110/110 102/102/102
f 110/110/110 106/106/106 102/102/102
f 106/106/106 111/111/111 104/104/104
f 104/104/104 111/111/111 107/107/107
f 107/107/107 112/112/112 108/108/108
f 108/108/108 112/112/112 113/113/113
f 70/70/70 114/114/114 109/109/109
f 70/70/70 67/67/67 114/114/114
f 109/109/109 115/115/115 103/103/103
f 115/115/115 110/110/110 103/103/103
f 109/109/109 114/114/114 115/115/115
f 106/106/106 110/110/110 116/116/116
f 111/111/111 106/106/106 116/116/116
f 111/111/111 117/117/117 107/107/107
f 107/107/107 117/117/117 112/112/112
f 112/112/112 118/118/118 113/113/113
f 113/113/113 118/118/118 119/119/119
f 67/67/67 120/120/120 114/114/114
f 66/66/66 120/120/120 67/67/67
f 114/114/114 121/121/121 115/115/115
f 114/114/114 120/120/120 121/121/121
f 115/115/115 122/122/122 110/110/110
f 115/115/115 121/121/121 122/122/122
f 122/122/122 116/116/116 110/110/110
f 123/123/123 117/117/117 111/111/111
f 116/116/116 123/123/123 111/111/111
f 117/117/117 124/124/124 112/112/112
f 112/112/112 124/124/124 118/118/118
f 124/124/124 117/117/117 123/123/123
f 120/120/120 66/66/66 125/125/125
f 120/120/120 125/125/125 121/121/121
f 121/121/121 126/126/126 122/122/122
f 121/121/121 125/125/125 126/126/126
f 122/122/122 127/127/127 116/116/116
f 127/127/127 123/123/123 116/116/116
f 122/122/122 126/126/126 127/127/127
f 66/66/66 128/128/128 125/125/125
f 66/66/66 58/58/58 128/128/128
f 125/125/125 129/129/129 126/126/126
f 125/125/125 128/128/128 129/129/129
f 58/58/58 130/130/130 128/128/128
f 130/130/130 58/58/58 56/56/56
f 130/130/130 56/56/56 59/59/59
f 128/128/128 130/130/130 131/131/131
f 128/128/128 131/131/131 129/129/129
f 126/126/126 129/129/129 132/132/132
f 126/126/126 132/132/132 127/127/127
f 133/133/133 123/123/123 127/127/127
f 133/133/133 124/124/124 123/123/123
f 134/134/134 130/130/130 59/59/59
f 130/130/130 134/134/134 131/131/131
f 129/129/129 131/131/131 135/135/135
f 129/129/129 135/135/135 132/132/132
f 127/127/127 132/132/132 136/136/136
f 136/136/136 133/133/133 127/127/127
f 132/132/132 137/137/137 136/136/136
f 132/132/132 135/135/135 137/137/137
f 136/136/136 138/138/138 133/133/133
f 136/136/136 137/137/137 138/138/138
f 133/133/133 139/139/139 124/124/124
f 138/138/138 139/139/139 133/133/133
f 134/134/134 59/59/59 140/140/140
f 140/140/140 59/59/59 60/60/60
f 60/60/60 141/141/141 140/140/140
f 131/131/131 134/134/134 142/142/142
f 131/131/131 142/142/142 135/135/135
f 134/134/134 143/143/143 142/142/142
f 143/143/143 134/134/134 140/140/140
f 141/141/141 144/144/144 140/140/140
f 144/144/144 141/141/141 145/145/145
f 142/142/142 146/146/146 135/135/135
f 142/142/142 143/143/143 146/146/146
f 143/143/143 140/140/140 147/147/147
f 140/140/140 144/144/144 147/147/147
f 143/143/143 147/147/147 146/146/146
f 148/148/148 144/144/144 145/145/145
f 147/147/147 144/144/144 148/148/148
f 148/148/148 145/145/145 149/149/149
f 150/150/150 148/148/148 149/149/149
f 150/150/150 149/149/149 151/151/151
f 152/152/152 147/147/147 148/148/148
f 152/152/152 148/148/148 150/150/150
f 153/153/153 150/150/150 151/151/151
f 151/151/151 154/154/154 153/153/153
f 146/146/146 155/155/155 135/135/135
f 135/135/135 155/155/155 137/137/137
f 146/146/146 147/147/147 156/156/156
f 147/147/147 152/152/152 156/156/156
f 157/157/157 152/152/152 150/150/150
f 157/157/157 150/150/150 153/153/153
f 137/137/137 155/155/155 158/158/158
f 137/137/137 158/158/158 138/138/138
f 155/155/155 146/146/146 159/159/159
f 146/146/146 156/156/156 159/159/159
f 155/155/155 159/159/159 158/158/158
f 156/156/156 152/152/152 160/160/160
f 152/152/152 157/157/157 160/160/160
f 138/138/138 158/158/158 161/161/161
f 138/138/138 161/161/161 139/139/139
f 158/158/158 159/159/159 162/162/162
f 158/158/158 162/162/162 161/161/161
f 159/159/159 156/156/156 163/163/163
f 156/156/156 160/160/160 163/163/163
f 159/159/159 163/163/163 162/162/162
f 160/160/160 157/157/157 164/164/164
f 163/163/163 160/160/160 165/165/165
f 160/160/160 164/164/164 165/165/165
f 162/162/162 163/163/163 166/166/166
f 163/163/163 165/165/165 166/166/166
f 161/161/161 162/162/162 167/167/167
f 162/162/162 166/166/166 167/167/167
f 161/161/161 168/168/168 139/139/139
f 161/161/161 167/167/167 168/168/168
f 157/157/157 169/169/169 164/164/164
f 169/169/169 157/157/157 153/153/153
f 164/164/164 169/169/169 170/170/170
f 164/164/164 170/170/170 165/165/165
f 169/169/169 153/153/153 171/171/171
f 169/169/169 171/171/171 170/170/170
f 139/139/139 168/168/168 172/172/172
f 139/139/139 172/172/172 124/124/124
f 124/124/124 172/172/172 118/118/118
f 118/118/118 172/172/172 173/173/173
f 118/118/118 173/173/173 119/119/119
f 119/119/119 173/173/173 174/174/174
f 168/168/168 175/175/175 172/172/172
f 172/172/172 175/175/175 173/173/173
f 173/173/173 176/176/176 174/174/174
f 173/173/173 175/175/175 176/176/176
f 174/174/174 176/176/176 177/177/177
f 168/168/168 178/178/178 175/175/175
f 167/167/167 178/178/178 168/168/168
f 176/176/176 179/179/179 177/177/177
f 177/177/177 179/179/179 180/180/180
f 175/175/175 181/181/181 176/176/176
f 178/178/178 181/181/181 175/175/175
f 176/176/176 181/181/181 179/179/179
f 182/182/182 178/178/178 167/167/167
f 178/178/178 182/182/182 181/181/181
f 179/179/179 183/183/183 180/180/180
f 180/180/180 183/183/183 184/184/184
f 181/181/181 185/185/185 179/179/179
f 182/182/182 185/185/185 181/181/181
f 179/179/179 185/185/185 183/183/183
f 183/183/183 186/186/186 184/184/184
f 184/184/184 186/186/186 187/187/187
f 186/186/186 188/188/188 187/187/187
f 185/185/185 189/189/189 183/183/183
f 183/183/183 189/189/189 186/186/186
f 186/186/186 190/190/190 188/188/188
f 189/189/189 190/190/190 186/186/186
f 190/190/190 191/191/191 188/188/188
f 192/192/192 191/191/191 190/190/190
f 193/193/193 192/192/192 190/190/190
f 190/190/190 189/189/189 193/193/193
f 194/194/194 192/192/192 193/193/193
f 195/195/195 189/189/189 185/185/185
f 189/189/189 195/195/195 193/193/193
f 182/182/182 195/195/195 185/185/185
f 196/196/196 194/194/194 193/193/193
f 196/196/196 193/193/193 195/195/195
f 197/197/197 195/195/195 182/182/182
f 197/197/197 196/196/196 195/195/195
f 196/196/196 198/198/198 194/194/194
f 198/198/198 199/199/199 194/194/194
f 200/200/200 197/197/197 182/182/182
f 200/200/200 182/182/182 167/167/167
f 167/167/167 166/166/166 200/200/200
f 166/166/166 201/201/201 200/200/200
f 200/200/200 201/201/201 197/197/197
f 166/166/166 165/165/165 201/201/201
f 197/197/197 202/202/202 196/196/196
f 201/201/201 202/202/202 197/197/197
f 202/202/202 198/198/198 196/196/196
f 165/165/165 203/203/203 201/201/201
f 201/201/201 203/203/203 202/202/202
f 170/170/170 203/203/203 165/165/165
f 203/203/203 204/204/204 202/202/202
f 202/202/202 204/204/204 198/198/198
f 203/203/203 170/170/170 204/204/204
f 198/198/198 205/205/205 199/199/199
f 204/204/204 205/205/205 198/198/198
f 205/205/205 206/206/206 199/199/199
f 170/170/170 207/207/207 204/204/204
f 204/204/204 207/207/207 205/205/205
f 170/170/170 171/171/171 207/207/207
f 205/205/205 208/208/208 206/206/206
f 207/207/207 208/208/208 205/205/205
f 208/208/208 209/209/209 206/206/206
f 207/207/207 210/210/210 208/208/208
f 171/171/171 210/210/210 207/207/207
f 208/208/208 211/211/211 209/209/209
f 210/210/210 211/211/211 208/208/208
f 211/211/211 212/212/212 209/209/209
f 212/212/212 211/211/211 213/213/213
f 211/211/211 214/214/214 213/213/213
f 211/211/211 210/210/210 214/214/214
f 213/213/213 214/214/214 215/215/215
f 214/214/214 216/216/216 215/215/215
f 210/210/210 217/217/217 214/214/214
f 214/214/214 217/217/217 216/216/216
f 210/210/210 171/171/171 217/217/217
f 217/217/217 218/218/218 216/216/216
f 171/171/171 219/219/219 217/217/217
f 217/217/217 219/219/219 218/218/218
f 153/153/153 219/219/219 171/171/171
f 219/219/219 154/154/154 218/218/218
f 154/154/154 219/219/219 153/153/153
f 222/222/222 221/221/221 220/220/220
f 221/221/221 223/223/223 220/220/220
f 220/220/220 223/223/223 224/224/224
f 221/221/221 225/225/225 223/223/223
f 223/223/223 226/226/226 224/224/224
f 224/224/224 226/226/226 227/227/227
f 225/225/225 228/228/228 223/223/223
f 223/223/223 228/228/228 226/226/226
f 228/228/228 225/225/225 229/229/229
f 226/226/226 230/230/230 227/227/227
f 227/227/227 230/230/230 231/231/231
f 232/232/232 228/228/228 229/229/229
f 232/232/232 229/229/229 233/233/233
f 228/228/228 234/234/234 226/226/226
f 226/226/226 234/234/234 230/230/230
f 230/230/230 235/235/235 231/231/231
f 231/231/231 235/235/235 236/236/236
f 237/237/237 232/232/232 233/233/233
f 233/233/233 238/238/238 237/237/237
f 232/232/232 239/239/239 228/228/228
f 239/239/239 234/234/234 228/228/228
f 234/234/234 240/240/240 230/230/230
f 230/230/230 240/240/240 235/235/235
f 235/235/235 241/241/241 236/236/236
f 236/236/236 241/241/241 242/242/242
f 238/238/238 243/243/243 237/237/237
f 238/238/238 244/244/244 243/243/243
f 237/237/237 245/245/245 232/232/232
f 245/245/245 239/239/239 232/232/232
f 237/237/237 243/243/243 245/245/245
f 239/239/239 246/246/246 234/234/234
f 246/246/246 240/240/240 234/234/234
f 240/240/240 247/247/247 235/235/235
f 235/235/235 247/247/247 241/241/241
f 241/241/241 248/248/248 242/242/242
f 242/242/242 248/248/248 249/249/249
f 245/245/245 250/250/250 239/239/239
f 250/250/250 246/246/246 239/239/239
f 243/243/243 251/251/251 245/245/245
f 245/245/245 251/251/251 250/250/250
f 246/246/246 252/252/252 240/240/240
f 252/252/252 247/247/247 240/240/240
f 247/247/247 253/253/253 241/241/241
f 241/241/241 253/253/253 248/248/248
f 248/248/248 254/254/254 249/249/249
f 249/249/249 254/254/254 255/255/255
f 250/250/250 256/256/256 246/246/246
f 256/256/256 252/252/252 246/246/246
f 252/252/252 257/257/257 247/247/247
f 257/257/257 253/253/253 247/247/247
f 257/257/257 252/252/252 256/256/256
f 253/253/253 258/258/258 248/248/248
f 248/248/248 258/258/258 254/254/254
f 254/254/254 259/259/259 255/255/255
f 255/255/255 259/259/259 260/260/260
f 261/261/261 258/258/258 253/253/253
f 257/257/257 261/261/261 253/253/253
f 258/258/258 262/262/262 254/254/254
f 254/254/254 262/262/262 259/259/259
f 262/262/262 258/258/258 261/261/261
f 259/259/259 263/263/263 260/260/260
f 260/260/260 263/263/263 264/264/264
f 262/262/262 265/265/265 259/259/259
f 259/259/259 265/265/265 263/263/263
f 263/263/263 266/266/266 264/264/264
f 264/264/264 266/266/266 267/267/267
f 265/265/265 268/268/268 263/263/263
f 263/263/263 268/268/268 266/266/266
f 269/269/269 265/265/265 262/262/262
f 268/268/268 265/265/265 269/269/269
f 266/266/266 270/270/270 267/267/267
f 267/267/267 270/270/270 271/271/271
f 272/272/272 262/262/262 261/261/261
f 272/272/272 269/269/269 262/262/262
f 268/268/268 273/273/273 266/266/266
f 266/266/266 273/273/273 270/270/270
f 270/270/270 274/274/274 271/271/271
f 271/271/271 274/274/274 275/275/275
f 273/273/273 276/276/276 270/270/270
f 270/270/270 276/276/276 274/274/274
f 274/274/274 277/277/277 275/275/275
f 275/275/275 277/277/277 278/278/278
f 276/276/276 279/279/279 274/274/274
f 274/274/274 279/279/279 277/277/277
f 277/277/277 280/280/280 278/278/278
f 278/278/278 280/280/280 281/281/281
f 279/279/279 282/282/282 277/277/277
f 277/277/277 282/282/282 280/280/280
f 280/280/280 283/283/283 281/281/281
f 281/281/281 283/283/283 284/284/284
f 283/283/283 285/285/285 284/284/284
f 280/280/280 286/286/286 283/283/283
f 282/282/282 286/286/286 280/280/280
f 283/283/283 287/287/287 285/285/285
f 286/286/286 287/287/287 283/283/283
f 287/287/287 288/288/288 285/285/285
f 289/289/289 288/288/288 287/287/287
f 290/290/290 289/289/289 287/287/287
f 287/287/287 286/286/286 290/290/290
f 291/291/291 289/289/289 290/290/290
f 292/292/292 286/286/286 282/282/282
f 286/286/286 292/292/292 290/290/290
f 293/293/293 282/282/282 279/279/279
f 293/293/293 292/292/292 282/282/282
f 294/294/294 291/291/291 290/290/290
f 294/294/294 290/290/290 292/292/292
f 295/295/295 293/293/293 279/279/279
f 295/295/295 279/279/279 276/276/276
f 296/296/296 295/295/295 276/276/276
f 296/296/296 276/276/276 273/273/273
f 294/294/294 297/297/297 291/291/291
f 297/297/297 298/298/298 291/291/291
f 299/299/299 294/294/294 292/292/292
f 299/299/299 292/292/292 293/293/293
f 293/293/293 295/295/295 300/300/300
f 300/300/300 295/295/295 296/296/296
f 301/301/301 296/296/296 273/273/273
f 301/301/301 273/273/273 268/268/268
f 297/297/297 302/302/302 298/298/298
f 302/302/302 303/303/303 298/298/298
f 304/304/304 297/297/297 294/294/294
f 299/299/299 304/304/304 294/294/294
f 305/305/305 299/299/299 293/293/293
f 305/305/305 293/293/293 300/300/300
f 305/305/305 306/306/306 299/299/299
f 306/306/306 304/304/304 299/299/299
f 304/304/304 307/307/307 297/297/297
f 307/307/307 302/302/302 297/297/297
f 302/302/302 308/308/308 303/303/303
f 308/308/308 309/309/309 303/303/303
f 300/300/300 310/310/310 305/305/305
f 310/310/310 306/306/306 305/305/305
f 306/306/306 311/311/311 304/304/304
f 311/311/311 307/307/307 304/304/304
f 307/307/307 312/312/312 302/302/302
f 312/312/312 308/308/308 302/302/302
f 308/308/308 313/313/313 309/309/309
f 313/313/313 314/314/314 309/309/309
f 314/314/314 313/313/313 315/315/315
f 316/316/316 311/311/311 306/306/306
f 310/310/310 316/316/316 306/306/306
f 311/311/311 317/317/317 307/307/307
f 317/317/317 312/312/312 307/307/307
f 317/317/317 311/311/311 316/316/316
f 318/318/318 313/313/313 308/308/308
f 312/312/312 318/318/318 308/308/308
f 313/313/313 319/319/319 315/315/315
f 313/313/313 318/318/318 319/319/319
f 315/315/315 319/319/319 320/320/320
f 319/319/319 321/321/321 320/320/320
f 319/319/319 322/322/322 321/321/321
f 318/318/318 322/322/322 319/319/319
f 322/322/322 323/323/323 321/321/321
f 324/324/324 318/318/318 312/312/312
f 318/318/318 324/324/324 322/322/322
f 317/317/317 324/324/324 312/312/312
f 322/322/322 325/325/325 323/323/323
f 324/324/324 325/325/325 322/322/322
f 325/325/325 326/326/326 323/323/323
f 326/326/326 325/325/325 327/327/327
f 327/327/327 325/325/325 324/324/324
f 328/328/328 326/326/326 327/327/327
f 329/329/329 324/324/324 317/317/317
f 329/329/329 327/327/327 324/324/324
f 327/327/327 330/330/330 328/328/328
f 330/330/330 331/331/331 328/328/328
f 332/332/332 329/329/329 317/317/317
f 332/332/332 317/317/317 316/316/316
f 329/329/329 333/333/333 327/327/327
f 333/333/333 329/329/329 332/332/332
f 333/333/333 330/330/330 327/327/327
f 330/330/330 334/334/334 331/331/331
f 334/334/334 335/335/335 331/331/331
f 336/336/336 332/332/332 316/316/316
f 336/336/336 333/333/333 332/332/332
f 333/333/333 337/337/337 330/330/330
f 337/337/337 334/334/334 330/330/330
f 337/337/337 333/333/333 336/336/336
f 334/334/334 338/338/338 335/335/335
f 338/338/338 339/339/339 335/335/335
f 340/340/340 336/336/336 316/316/316
f 340/340/340 316/316/316 310/310/310
f 337/337/337 341/341/341 334/334/334
f 341/341/341 338/338/338 334/334/334
f 339/339/339 338/338/338 342/342/342
f 342/342/342 338/338/338 341/341/341
f 343/343/343 339/339/339 342/342/342
f 344/344/344 337/337/337 336/336/336
f 344/344/344 336/336/336 340/340/340
f 341/341/341 337/337/337 344/344/344
f 345/345/345 340/340/340 310/310/310
f 345/345/345 310/310/310 300/300/300
f 346/346/346 344/344/344 340/340/340
f 346/346/346 340/340/340 345/345/345
f 347/347/347 341/341/341 344/344/344
f 347/347/347 344/344/344 346/346/346
f 348/348/348 345/345/345 300/300/300
f 348/348/348 300/300/300 296/296/296
f 348/348/348 296/296/296 301/301/301
f 349/349/349 346/346/346 345/345/345
f 349/349/349 345/345/345 348/348/348
f 350/350/350 348/348/348 301/301/301
f 350/350/350 349/349/349 348/348/348
f 351/351/351 346/346/346 349/349/349
f 351/351/351 347/347/347 346/346/346
f 352/352/352 351/351/351 349/349/349
f 352/352/352 349/349/349 350/350/350
f 350/350/350 301/301/301 353/353/353
f 353/353/353 301/301/301 268/268/268
f 353/353/353 268/268/268 269/269/269
f 354/354/354 350/350/350 353/353/353
f 354/354/354 352/352/352 350/350/350
f 353/353/353 269/269/269 355/355/355
f 354/354/354 353/353/353 355/355/355
f 355/355/355 269/269/269 272/272/272
f 356/356/356 351/351/351 352/352/352
f 347/347/347 351/351/351 356/356/356
f 357/357/357 352/352/352 354/354/354
f 355/355/355 357/357/357 354/354/354
f 357/357/357 356/356/356 352/352/352
f 358/358/358 355/355/355 272/272/272
f 358/358/358 272/272/272 261/261/261
f 359/359/359 357/357/357 355/355/355
f 358/358/358 359/359/359 355/355/355
f 360/360/360 358/358/358 261/261/261
f 360/360/360 261/261/261 257/257/257
f 361/361/361 356/356/356 357/357/357
f 359/359/359 361/361/361 357/357/357
f 362/362/362 359/359/359 358/358/358
f 360/360/360 362/362/362 358/358/358
f 363/363/363 360/360/360 257/257/257
f 363/363/363 257/257/257 256/256/256
f 363/363/363 364/364/364 360/360/360
f 364/364/364 362/362/362 360/360/360
f 362/362/362 365/365/365 359/359/359
f 365/365/365 361/361/361 359/359/359
f 256/256/256 366/366/366 363/363/363
f 366/366/366 364/364/364 363/363/363
f 364/364/364 367/367/367 362/362/362
f 367/367/367 365/365/365 362/362/362
f 368/368/368 367/367/367 364/364/364
f 366/366/366 368/368/368 364/364/364
f 369/369/369 366/366/366 256/256/256
f 250/250/250 369/369/369 256/256/256
f 251/251/251 369/369/369 250/250/250
f 367/367/367 370/370/370 365/365/365
f 370/370/370 367/367/367 368/368/368
f 365/365/365 371/371/371 361/361/361
f 370/370/370 371/371/371 365/365/365
f 369/369/369 372/372/372 366/366/366
f 372/372/372 368/368/368 366/366/366
f 251/251/251 373/373/373 369/369/369
f 373/373/373 372/372/372 369/369/369
f 371/371/371 374/374/374 361/361/361
f 361/361/361 374/374/374 356/356/356
f 375/375/375 373/373/373 251/251/251
f 243/243/243 375/375/375 251/251/251
f 244/244/244 375/375/375 243/243/243
f 376/376/376 375/375/375 244/244/244
f 375/375/375 376/376/376 373/373/373
f 377/377/377 376/376/376 244/244/244
f 377/377/377 378/378/378 376/376/376
f 373/373/373 379/379/379 372/372/372
f 376/376/376 379/379/379 373/373/373
f 378/378/378 380/380/380 376/376/376
f 376/376/376 380/380/380 379/379/379
f 378/378/378 381/381/381 380/380/380
f 379/379/379 382/382/382 372/372/372
f 372/372/372 382/382/382 368/368/368
f 380/380/380 383/383/383 379/379/379
f 379/379/379 383/383/383 382/382/382
f 382/382/382 384/384/384 368/368/368
f 384/384/384 370/370/370 368/368/368
f 382/382/382 385/385/385 384/384/384
f 383/383/383 385/385/385 382/382/382
f 384/384/384 386/386/386 370/370/370
f 385/385/385 386/386/386 384/384/384
f 386/386/386 387/387/387 370/370/370
f 370/370/370 387/387/387 371/371/371
f 386/386/386 385/385/385 388/388/388
f 386/386/386 388/388/388 387/387/387
f 385/385/385 383/383/383 389/389/389
f 385/385/385 389/389/389 388/388/388
f 383/383/383 380/380/380 390/390/390
f 383/383/383 390/390/390 389/389/389
f 387/387/387 391/391/391 371/371/371
f 371/371/371 391/391/391 374/374/374
f 380/380/380 392/392/392 390/390/390
f 381/381/381 392/392/392 380/380/380
f 393/393/393 392/392/392 381/381/381
f 394/394/394 393/393/393 381/381/381
f 392/392/392 393/393/393 395/395/395
f 390/390/390 392/392/392 395/395/395
f 390/390/390 395/395/395 396/396/396
f 389/389/389 390/390/390 396/396/396
f 389/389/389 396/396/396 397/397/397
f 388/388/388 389/389/389 397/397/397
f 397/397/397 398/398/398 388/388/388
f 398/398/398 399/399/399 388/388/388
f 388/388/388 399/399/399 387/387/387
f 399/399/399 398/398/398 400/400/400
f 387/387/387 399/399/399 401/401/401
f 401/401/401 399/399/399 400/400/400
f 401/401/401 400/400/400 402/402/402
f 391/391/391 387/387/387 401/401/401
f 403/403/403 401/401/401 402/402/402
f 391/391/391 401/401/401 403/403/403
f 403/403/403 402/402/402 343/343/343
f 342/342/342 403/403/403 343/343/343
f 404/404/404 391/391/391 403/403/403
f 404/404/404 403/403/403 342/342/342
f 391/391/391 404/404/404 374/374/374
f 405/405/405 404/404/404 342/342/342
f 405/405/405 342/342/342 341/341/341
f 405/405/405 341/341/341 347/347/347
f 374/374/374 404/404/404 406/406/406
f 404/404/404 405/405/405 406/406/406
f 406/406/406 405/405/405 347/347/347
f 374/374/374 406/406/406 356/356/356
f 406/406/406 347/347/347 356/356/356
f 409/409/409 408/408/408 407/407/407
f 407/407/407 410/410/410 409/409/409
f 410/410/410 411/411/411 409/409/409
f 410/410/410 412/412/412 411/411/411
f 412/412/412 413/413/413 411/411/411
f 412/412/412 414/414/414 413/413/413
f 414/414/414 415/415/415 413/413/413
f 414/414/414 416/416/416 415/415/415
f 416/416/416 417/417/417 415/415/415
f 416/416/416 418/418/418 417/417/417
f 418/418/418 419/419/419 417/417/417
f 418/418/418 420/420/420 419/419/419
f 420/420/420 421/421/421 419/419/419
f 420/420/420 422/422/422 421/421/421
f 422/422/422 423/423/423 421/421/421
f 422/422/422 424/424/424 423/423/423
f 424/424/424 425/425/425 423/423/423
f 424/424/424 426/426/426 425/425/425
f 426/426/426 427/427/427 425/425/425
f 426/426/426 428/428/428 427/427/427
f 428/428/428 429/429/429 427/427/427
f 428/428/428 430/430/430 429/429/429
f 430/430/430 431/431/431 429/429/429
f 430/430/430 432/432/432 431/431/431
f 432/432/432 433/433/433 431/431/431
f 432/432/432 434/434/434 433/433/433
f 434/434/434 435/435/435 433/433/433
f 434/434/434 436/436/436 435/435/435
f 436/436/436 437/437/437 435/435/435
f 436/436/436 438/438/438 437/437/437
