g Saucer_01
v -0.0992670581 0.0193011127 -0.239652157
v -0.155799076 0.0313699804 -0.2030413
v -0.157911107 0.0193011127 -0.205793858
v -0.0979394317 0.0313699804 -0.236446604
v -0.0338581204 0.0193011127 -0.257178307
v -0.0334053636 0.0313699804 -0.253738403
v -0.145076558 0.0374936126 -0.189067364
v -0.0911991 0.0374936126 -0.220173597
v -0.189067394 0.0374936126 -0.145076513
v -0.203041241 0.0313699804 -0.15579915
v -0.0311064124 0.0374936126 -0.236275434
v 0.0334053636 0.0313699804 -0.253738403
v -0.220173642 0.0374936126 -0.0911991447
v -0.236446545 0.0313699804 -0.0979394764
v 0.0311064124 0.0374936126 -0.236275434
v 0.0979394317 0.0313699804 -0.236446604
v -0.23627536 0.0374936126 -0.0311064646
v -0.253738433 0.0313699804 -0.0334052965
v 0.0911991 0.0374936126 -0.220173597
v 0.15579915 0.0313699804 -0.2030413
v -0.23627536 0.0374936126 0.0311064776
v -0.253738433 0.0313699804 0.0334053114
v 0.145076573 0.0374936126 -0.189067364
v 0.203041375 0.0313699804 -0.15579915
v -0.220173642 0.0374936126 0.0911991671
v -0.236446545 0.0313699804 0.0979394987
v 0.189067528 0.0374936126 -0.145076513
v 0.236446604 0.0313699804 -0.0979394764
v -0.189067394 0.0374936126 0.145076513
v -0.203041241 0.0313699804 0.15579915
v 0.220173776 0.0374936126 -0.0911991447
v 0.253738463 0.0313699804 -0.0334052965
v -0.145076558 0.0374936126 0.189067364
v -0.155799076 0.0313699804 0.2030413
v -0.0911991 0.0374936126 0.220173597
v -0.0979394317 0.0313699804 0.236446604
v -0.0311064124 0.0374936126 0.236275434
v -0.0334053636 0.0313699804 0.253738403
v 0.0311064124 0.0374936126 0.236275434
v 0.0334053636 0.0313699804 0.253738403
v 0.0911991 0.0374936126 0.220173597
v 0.0979394317 0.0313699804 0.236446604
v 0.145076692 0.0374936126 0.189067364
v 0.15579915 0.0313699804 0.2030413
v 0.189067528 0.0374936126 0.145076513
v 0.203041375 0.0313699804 0.15579915
v 0.220173776 0.0374936126 0.0911989287
v 0.236446679 0.0313699804 0.0979394987
v -0.0834215209 0.0332501493 0.201396465
v -0.0284536481 0.0332501493 0.21612525
v 0.0284536481 0.0332501493 0.21612525
v 0.0834215209 0.0332501493 0.201396704
v 0.132704198 0.0332501493 0.172943115
v 0.172943339 0.0332501493 0.13270402
v 0.201396629 0.0332501493 0.0834214762
v -0.132704064 0.0332501493 0.172943339
v -0.172943145 0.0332501493 0.13270402
v -0.201396495 0.0332501493 0.0834214762
v -0.216125041 0.0332501493 0.0284535941
v -0.216125041 0.0332501493 -0.028453581
v -0.201396495 0.0332501493 -0.0834214538
v -0.172943145 0.0332501493 -0.13270402
v -0.132704064 0.0332501493 -0.172943339
v -0.0834215209 0.0332501493 -0.201396704
v -0.0284536481 0.0332501493 -0.21612525
v 0.0284537673 0.0332501493 -0.21612525
v 0.0834215209 0.0332501493 -0.201396465
v 0.132704079 0.0332501493 -0.172943339
v 0.172943279 0.0332501493 -0.13270402
v -0.103650145 -0.0166314244 -0.135079384
v -0.0651573539 -0.0166315436 -0.157303095
v -0.13507919 -0.0166314244 -0.103650317
v -0.022224009 -0.0166315436 -0.16880703
v -0.15730314 -0.0166315436 -0.065157406
v 0.022224009 -0.0166315436 -0.16880703
v -0.16880706 -0.0166315436 -0.022223942
v 0.0651574656 -0.0166315436 -0.157303095
v -0.16880706 -0.0166315436 0.0222239569
v 0.103650272 -0.0166314244 -0.135079384
v -0.15730314 -0.0166315436 0.0651574209
v 0.135079324 -0.0166314244 -0.103650317
v -0.13507919 -0.0166314244 0.103650339
v -0.103650145 -0.0166314244 0.135079384
v -0.0651573539 -0.0166315436 0.157303095
v -0.022224009 -0.0166315436 0.16880703
v 0.022224009 -0.0166315436 0.16880703
v 0.0651573539 -0.0166315436 0.157303095
v 0.103650272 -0.0166314244 0.135079384
v 0.135079324 -0.0166314244 0.103650101
v 0.157303214 -0.0166315436 0.0651574209
v 0.216125175 0.0332501493 0.0284535941
v 0.168807194 -0.0166315436 0.0222239569
v 0.216125175 0.0332501493 -0.028453581
v 0.168807194 -0.0166315436 -0.022223942
v 0.236275494 0.0374936126 0.0311062392
v 0.201396629 0.0332501493 -0.0834214538
v 0.157303274 -0.0166315436 -0.065157406
v 0.236275494 0.0374936126 -0.0311064646
v 0.253738463 0.0313699804 0.0334053114
v 0.239652097 0.0193011127 0.0992670134
v 0.257178366 0.0193011127 0.0338580683
v -0.157911107 0.0193011127 -0.205793858
v -0.155799076 0.0313699804 -0.2030413
v -0.203041241 0.0313699804 -0.15579915
v -0.205793783 0.0193011127 -0.157911301
v -0.236446545 0.0313699804 -0.0979394764
v -0.239651963 0.0193011127 -0.0992672294
v -0.253738433 0.0313699804 -0.0334052965
v -0.257178217 0.0193011127 -0.0338580534
v -0.253738433 0.0313699804 0.0334053114
v -0.257178217 0.0193011127 0.0338580683
v -0.202468678 0.000206289813 -0.155359745
v -0.235779792 0.000206289813 -0.0976631492
v -0.25302282 0.000206289813 -0.0333111212
v -0.25302282 0.000206289813 0.0333111361
v -0.235779792 0.000206289813 0.0976631716
v -0.239651963 0.0193011127 0.0992672518
v -0.22134164 -0.0234889388 0.09168268
v -0.237528831 -0.0234889388 0.0312712267
v -0.237528831 -0.0234889388 -0.0312712118
v -0.22134164 -0.0234889388 -0.0916826576
v -0.190070316 -0.0234889388 -0.145846128
v -0.155359671 0.000206289813 -0.202468634
v -0.0992670581 0.0193011127 -0.239652157
v -0.145846173 -0.0234889388 -0.190070376
v -0.0976632163 0.000206289813 -0.235779762
v -0.0916827247 -0.0234889388 -0.22134161
v -0.257178217 0.0193011127 0.0338580683
v -0.253738433 0.0313699804 0.0334053114
v -0.236446545 0.0313699804 0.0979394987
v -0.239651963 0.0193011127 0.0992672518
v -0.203041241 0.0313699804 0.15579915
v -0.205793783 0.0193011127 0.157911301
v -0.155799076 0.0313699804 0.2030413
v -0.202468678 0.000206289813 0.155359745
v -0.235779792 0.000206289813 0.0976631716
v -0.157911107 0.0193011127 0.205793858
v -0.0979394317 0.0313699804 0.236446604
v -0.155359671 0.000206289813 0.202468634
v -0.190070435 -0.0234889388 0.145846128
v -0.22134164 -0.0234889388 0.09168268
v -0.145846173 -0.0234889388 0.190070376
v -0.0976632163 0.000206289813 0.235779762
v -0.0992670581 0.0193011127 0.239651904
v -0.0334053636 0.0313699804 0.253738403
v -0.033311069 0.000206289813 0.253022909
v -0.0338581204 0.0193011127 0.257178307
v 0.0334053636 0.0313699804 0.253738403
v 0.033311069 0.000206289813 0.253022909
v 0.205793962 0.0193011127 0.157911062
v 0.236446679 0.0313699804 0.0979394987
v 0.239652097 0.0193011127 0.0992670134
v 0.203041375 0.0313699804 0.15579915
v 0.157911301 0.0193011127 0.205793858
v 0.15579915 0.0313699804 0.2030413
v 0.202468812 0.000206289813 0.155359745
v 0.235779807 0.000206289813 0.0976631716
v 0.0992671847 0.0193011127 0.239652157
v 0.0979394317 0.0313699804 0.236446604
v 0.155359805 0.000206289813 0.202468634
v 0.19007051 -0.0234889388 0.145846128
v 0.145846307 -0.0234889388 0.190070376
v 0.0976632163 0.000206289813 0.235779762
v 0.0916827247 -0.0234889388 0.22134161
v 0.0338582397 0.0193011127 0.257178307
v 0.0334053636 0.0313699804 0.253738403
v -0.0338581204 0.0193011127 0.257178307
v 0.033311069 0.000206289813 0.253022909
v 0.0312712789 -0.0234889388 0.237529024
v -0.033311069 0.000206289813 0.253022909
v -0.0312712789 -0.0234889388 0.237529024
v -0.0976632163 0.000206289813 0.235779762
v -0.0916827247 -0.0234889388 0.22134161
v -0.155359671 0.000206289813 0.202468634
v 0.235779807 0.000206289813 0.0976631716
v 0.205793962 0.0193011127 0.157911062
v 0.239652097 0.0193011127 0.0992670134
v 0.253022969 0.000206289813 0.0333111361
v 0.257178366 0.0193011127 0.0338580683
v 0.253022969 0.000206289813 -0.0333111212
v 0.237528965 -0.0234889388 -0.0312712118
v 0.221341774 -0.0234889388 -0.0916826576
v 0.237528965 -0.0234889388 0.0312712267
v 0.221341774 -0.0234889388 0.09168268
v 0.202468812 0.000206289813 0.155359745
v 0.19007051 -0.0234889388 0.145846128
v 0.212794945 -0.0360928141 -0.0280148908
v 0.212795019 -0.0360928141 0.0280149058
v 0.198293373 -0.0360928141 -0.0821356624
v 0.198293373 -0.0360928141 0.0821356848
v 0.19007051 -0.0234889388 -0.145846128
v 0.17027837 -0.0360928141 0.130659103
v 0.17027837 -0.0360928141 -0.130659103
v 0.130659282 -0.0360928141 0.170278311
v 0.145846307 -0.0234889388 -0.190070376
v 0.145846307 -0.0234889388 0.190070376
v 0.130659282 -0.0360928141 -0.170278311
v 0.0821358562 -0.0360928141 0.198293447
v 0.0916827247 -0.0234889388 -0.22134161
v 0.0916827247 -0.0234889388 0.22134161
v 0.0821358562 -0.0360928141 -0.198293447
v 0.0280149579 -0.0360928141 0.212795019
v 0.0312712789 -0.0234889388 -0.237529024
v 0.0312712789 -0.0234889388 0.237529024
v 0.0280150771 -0.0360928141 -0.212795019
v -0.0280149579 -0.0360928141 0.212795019
v -0.0312712789 -0.0234889388 -0.237529024
v -0.0312712789 -0.0234889388 0.237529024
v -0.0280149579 -0.0360928141 -0.212795019
v -0.0821357295 -0.0360928141 0.198293447
v -0.0916827247 -0.0234889388 -0.22134161
v -0.0821357295 -0.0360928141 -0.198293447
v -0.145846173 -0.0234889388 -0.190070376
v -0.130659148 -0.0360928141 -0.170278311
v -0.190070316 -0.0234889388 -0.145846128
v -0.170278236 -0.0360928141 -0.130659103
v -0.22134164 -0.0234889388 -0.0916826576
v -0.198293239 -0.0360928141 -0.0821359009
v -0.237528831 -0.0234889388 -0.0312712118
v -0.212794811 -0.0360928141 -0.0280148908
v -0.237528831 -0.0234889388 0.0312712267
v -0.212794811 -0.0360928141 0.0280149058
v -0.22134164 -0.0234889388 0.09168268
v -0.198293239 -0.0360928141 0.0821359232
v -0.190070435 -0.0234889388 0.145846128
v -0.170278236 -0.0360928141 0.130659103
v -0.145846173 -0.0234889388 0.190070376
v -0.130659148 -0.0360928141 0.170278311
v -0.0916827247 -0.0234889388 0.22134161
v -0.155359671 0.000206289813 0.202468634
v -0.0976632163 0.000206289813 -0.235779762
v -0.0338581204 0.0193011127 -0.257178307
v -0.0992670581 0.0193011127 -0.239652157
v -0.033311069 0.000206289813 -0.253022909
v -0.0312712789 -0.0234889388 -0.237529024
v -0.0916827247 -0.0234889388 -0.22134161
v 0.0338582397 0.0193011127 -0.257178307
v -0.0334053636 0.0313699804 -0.253738403
v 0.0334053636 0.0313699804 -0.253738403
v 0.0333111882 0.000206289813 -0.253022909
v 0.0312712789 -0.0234889388 -0.237529024
v 0.0992671847 0.0193011127 -0.239651904
v 0.0979394317 0.0313699804 -0.236446604
v 0.0976632163 0.000206289813 -0.235779762
v 0.0916827247 -0.0234889388 -0.22134161
v 0.157911241 0.0193011127 -0.205793858
v 0.15579915 0.0313699804 -0.2030413
v 0.155359805 0.000206289813 -0.202468872
v 0.145846307 -0.0234889388 -0.190070376
v 0.19007051 -0.0234889388 -0.145846128
v 0.205793917 0.0193011127 -0.157911301
v 0.203041375 0.0313699804 -0.15579915
v 0.202468812 0.000206289813 -0.155359745
v 0.239652097 0.0193011127 -0.0992672294
v 0.236446604 0.0313699804 -0.0979394764
v 0.235779807 0.000206289813 -0.0976631492
v 0.221341774 -0.0234889388 -0.0916826576
v 0.253022969 0.000206289813 -0.0333111212
v 0.257178366 0.0193011127 -0.0338580534
v 0.253738463 0.0313699804 -0.0334052965
v 0.257178366 0.0193011127 0.0338580683
v -0.0651573539 -0.0166315436 -0.157303095
v -0.022224009 -0.0166315436 -0.16880703
v 0.022224009 -0.0166315436 -0.16880703
v 0.0651574656 -0.0166315436 -0.157303095
v -0.103650145 -0.0166314244 -0.135079384
v 0.103650272 -0.0166314244 -0.135079384
v -0.13507919 -0.0166314244 -0.103650317
v 0.135079324 -0.0166314244 -0.103650317
v -0.15730314 -0.0166315436 -0.065157406
v 0.157303274 -0.0166315436 -0.065157406
v -0.16880706 -0.0166315436 -0.022223942
v 0.168807194 -0.0166315436 -0.022223942
v -0.16880706 -0.0166315436 0.0222239569
v 0.168807194 -0.0166315436 0.0222239569
v -0.15730314 -0.0166315436 0.0651574209
v 0.157303214 -0.0166315436 0.0651574209
v -0.13507919 -0.0166314244 0.103650339
v 0.135079324 -0.0166314244 0.103650101
v 0.103650272 -0.0166314244 0.135079384
v -0.103650145 -0.0166314244 0.135079384
v -0.0651573539 -0.0166315436 0.157303095
v 0.0651573539 -0.0166315436 0.157303095
v -0.022224009 -0.0166315436 0.16880703
v 0.022224009 -0.0166315436 0.16880703
v 0.175547421 -0.0454078279 -0.0231113359
v 0.212794945 -0.0360928141 -0.0280148908
v 0.198293373 -0.0360928141 -0.0821356624
v 0.212795019 -0.0360928141 0.0280149058
v 0.163584113 -0.0454078279 -0.0677587911
v 0.17027837 -0.0360928141 -0.130659103
v 0.140472829 -0.0454078279 -0.107788548
v 0.130659282 -0.0360928141 -0.170278311
v 0.107788615 -0.0454078279 -0.140472889
v 0.0821358562 -0.0360928141 -0.198293447
v 0.067758739 -0.0454078279 -0.163583979
v 0.0280150771 -0.0360928141 -0.212795019
v 0.0231112838 -0.0454078279 -0.175547361
v -0.0280149579 -0.0360928141 -0.212795019
v -0.0231111646 -0.0454078279 -0.175547361
v -0.0821357295 -0.0360928141 -0.198293447
v -0.067758739 -0.0454078279 -0.163583979
v -0.130659148 -0.0360928141 -0.170278311
v -0.107788503 -0.0454078279 -0.140472889
v -0.170278236 -0.0360928141 -0.130659103
v -0.140472814 -0.0454078279 -0.107788548
v -0.198293239 -0.0360928141 -0.0821359009
v -0.163584039 -0.0454078279 -0.0677587911
v -0.212794811 -0.0360928141 -0.0280148908
v -0.175547287 -0.0454078279 -0.0231113359
v -0.212794811 -0.0360928141 0.0280149058
v 0.175547421 -0.0454078279 0.0231111124
v -0.175547287 -0.0454078279 0.0231113508
v -0.198293239 -0.0360928141 0.0821359232
v 0.163584173 -0.0454078279 0.067758806
v 0.198293373 -0.0360928141 0.0821356848
v -0.163584039 -0.0454078279 0.067758806
v -0.170278236 -0.0360928141 0.130659103
v 0.140472949 -0.0454078279 0.10778857
v 0.17027837 -0.0360928141 0.130659103
v -0.140472695 -0.0454078279 0.10778857
v -0.130659148 -0.0360928141 0.170278311
v 0.107788615 -0.0454078279 0.140472889
v 0.130659282 -0.0360928141 0.170278311
v -0.107788503 -0.0454078279 0.140472889
v -0.0821357295 -0.0360928141 0.198293447
v 0.0677588508 -0.0454078279 0.163583979
v 0.0821358562 -0.0360928141 0.198293447
v -0.0677586123 -0.0454078279 0.163583979
v -0.0280149579 -0.0360928141 0.212795019
v 0.0231112838 -0.0454078279 0.175547361
v 0.0280149579 -0.0360928141 0.212795019
v -0.0231111646 -0.0454078279 0.175547361
vt 0.514648438 0.392333984
vt 0.475830078 0.436523438
vt 0.484619141 0.443359375
vt 0.504394531 0.387939453
vt 0.530273438 0.335205078
vt 0.51953125 0.333984375
vt 0.468261719 0.430664062
vt 0.495605469 0.384277344
vt 0.429931641 0.468017578
vt 0.435546875 0.475585938
vt 0.509765625 0.332519531
vt 0.51953125 0.277832031
vt 0.383544922 0.493896484
vt 0.386962891 0.502441406
vt 0.510253906 0.279052734
vt 0.505371094 0.223876953
vt 0.331787109 0.507324219
vt 0.333007812 0.517089844
vt 0.496826172 0.227416992
vt 0.477783203 0.175170898
vt 0.278076172 0.506835938
vt 0.276855469 0.516113281
vt 0.470214844 0.180908203
vt 0.438476562 0.135498047
vt 0.22668457 0.491943359
vt 0.222900391 0.500488281
vt 0.432617188 0.142944336
vt 0.390380859 0.107421875
vt 0.180908203 0.464599609
vt 0.175048828 0.471923828
vt 0.38671875 0.116210938
vt 0.336914062 0.092956543
vt 0.143798828 0.426269531
vt 0.136108398 0.431884766
vt 0.117736816 0.379882812
vt 0.108886719 0.383300781
vt 0.104675293 0.328125
vt 0.0951538086 0.329345703
vt 0.105285645 0.274658203
vt 0.0958251953 0.2734375
vt 0.119812012 0.223510742
vt 0.111083984 0.219726562
vt 0.146972656 0.177612305
vt 0.139526367 0.17175293
vt 0.185180664 0.14050293
vt 0.17956543 0.1328125
vt 0.231811523 0.114624023
vt 0.228271484 0.105834961
vt 0.138916016 0.371337891
vt 0.127319336 0.325439453
vt 0.127929688 0.278076172
vt 0.14074707 0.232421875
vt 0.164916992 0.191772461
vt 0.198852539 0.158813477
vt 0.240112305 0.135742188
vt 0.162109375 0.412841797
vt 0.194946289 0.446777344
vt 0.235839844 0.470947266
vt 0.281494141 0.484130859
vt 0.329101562 0.484619141
vt 0.375 0.47265625
vt 0.416259766 0.449462891
vt 0.450195312 0.416503906
vt 0.474365234 0.375244141
vt 0.487060547 0.329345703
vt 0.487304688 0.281982422
vt 0.475585938 0.235961914
vt 0.451904297 0.194702148
vt 0.418701172 0.160888672
vt 0.407470703 0.3828125
vt 0.424072266 0.354003906
vt 0.384033203 0.406005859
vt 0.432617188 0.321777344
vt 0.355224609 0.422363281
vt 0.433105469 0.288085938
vt 0.322753906 0.430664062
vt 0.425048828 0.256103516
vt 0.289550781 0.430175781
vt 0.408691406 0.227294922
vt 0.257324219 0.421142578
vt 0.385253906 0.203735352
vt 0.228759766 0.404052734
vt 0.205688477 0.380371094
vt 0.189453125 0.3515625
vt 0.181396484 0.319335938
vt 0.181884766 0.285888672
vt 0.190429688 0.254150391
vt 0.20715332 0.225708008
vt 0.230834961 0.202514648
vt 0.259765625 0.186279297
vt 0.285644531 0.124206543
vt 0.291748047 0.177856445
vt 0.332519531 0.124633789
vt 0.324707031 0.177978516
vt 0.283203125 0.101806641
vt 0.377929688 0.137207031
vt 0.356689453 0.186889648
vt 0.335693359 0.102294922
vt 0.281982422 0.0924072266
vt 0.224365234 0.0955810547
vt 0.280761719 0.0817871094
vt 0.484619141 0.443359375
vt 0.475830078 0.436523438
vt 0.435546875 0.475585938
vt 0.442382812 0.484375
vt 0.386962891 0.502441406
vt 0.391113281 0.513183594
vt 0.333007812 0.517089844
vt 0.334228516 0.527832031
vt 0.276855469 0.516113281
vt 0.275146484 0.52734375
vt 0.453125 0.499023438
vt 0.397705078 0.529785156
vt 0.336425781 0.545898438
vt 0.272460938 0.545410156
vt 0.211303711 0.52734375
vt 0.218505859 0.510742188
vt 0.198974609 0.5546875
vt 0.268310547 0.574707031
vt 0.340332031 0.575683594
vt 0.409179688 0.557617188
vt 0.471191406 0.5234375
vt 0.499023438 0.454833984
vt 0.514648438 0.392333984
vt 0.522949219 0.473876953
vt 0.53125 0.399414062
vt 0.560546875 0.411376953
vt 0.275146484 0.52734375
vt 0.276855469 0.516113281
vt 0.222900391 0.500488281
vt 0.218505859 0.510742188
vt 0.175048828 0.471923828
vt 0.16809082 0.480712891
vt 0.136108398 0.431884766
vt 0.156982422 0.494873047
vt 0.211303711 0.52734375
vt 0.127319336 0.438476562
vt 0.108886719 0.383300781
vt 0.112854004 0.449462891
vt 0.138061523 0.518554688
vt 0.198974609 0.5546875
vt 0.0877685547 0.468017578
vt 0.0817260742 0.394042969
vt 0.0986328125 0.387207031
vt 0.0951538086 0.329345703
vt 0.0662841797 0.332763672
vt 0.0842285156 0.330566406
vt 0.0958251953 0.2734375
vt 0.0670166016 0.269287109
vt 0.172973633 0.123962402
vt 0.228271484 0.105834961
vt 0.224365234 0.0955810547
vt 0.17956543 0.1328125
vt 0.130737305 0.164794922
vt 0.139526367 0.17175293
vt 0.162109375 0.109436035
vt 0.217773438 0.0787353516
vt 0.100952148 0.215454102
vt 0.111083984 0.219726562
vt 0.116699219 0.153808594
vt 0.143798828 0.085144043
vt 0.0926513672 0.135131836
vt 0.0839233398 0.208251953
vt 0.0559997559 0.196411133
vt 0.0850219727 0.271972656
vt 0.0958251953 0.2734375
vt 0.0842285156 0.330566406
vt 0.0670166016 0.269287109
vt 0.0369262695 0.265380859
vt 0.0662841797 0.332763672
vt 0.0362854004 0.336425781
vt 0.0817260742 0.394042969
vt 0.0534362793 0.405273438
vt 0.112854004 0.449462891
vt 0.217773438 0.0787353516
vt 0.172973633 0.123962402
vt 0.224365234 0.0955810547
vt 0.278808594 0.063659668
vt 0.280761719 0.0817871094
vt 0.340820312 0.064453125
vt 0.344726562 0.0359191895
vt 0.412353516 0.0532226562
vt 0.275390625 0.0341796875
vt 0.206787109 0.050567627
vt 0.162109375 0.109436035
vt 0.143798828 0.085144043
vt 0.350097656 0.000711917877
vt 0.272460938 0
vt 0.426269531 0.0196838379
vt 0.193359375 0.0143356323
vt 0.474609375 0.0875244141
vt 0.122070312 0.0549926758
vt 0.497070312 0.0577697754
vt 0.0640869141 0.111633301
vt 0.526367188 0.138427734
vt 0.0926513672 0.135131836
vt 0.558105469 0.114929199
vt 0.0223693848 0.181274414
vt 0.561035156 0.201660156
vt 0.0559997559 0.196411133
vt 0.594238281 0.189208984
vt 0.00054693222 0.259521484
vt 0.578613281 0.270263672
vt 0.0369262695 0.265380859
vt 0.614746094 0.266357422
vt 0 0.340332031
vt 0.578125 0.341552734
vt 0.0362854004 0.336425781
vt 0.614746094 0.346679688
vt 0.0205841064 0.417724609
vt 0.560546875 0.411376953
vt 0.595214844 0.426025391
vt 0.522949219 0.473876953
vt 0.553710938 0.498779297
vt 0.471191406 0.5234375
vt 0.491455078 0.552246094
vt 0.409179688 0.557617188
vt 0.422363281 0.591796875
vt 0.340332031 0.575683594
vt 0.344482422 0.612792969
vt 0.268310547 0.574707031
vt 0.262451172 0.61328125
vt 0.198974609 0.5546875
vt 0.184448242 0.588378906
vt 0.138061523 0.518554688
vt 0.116821289 0.546386719
vt 0.0877685547 0.468017578
vt 0.0567321777 0.491210938
vt 0.0534362793 0.405273438
vt 0.112854004 0.449462891
vt 0.53125 0.399414062
vt 0.530273438 0.335205078
vt 0.514648438 0.392333984
vt 0.548339844 0.337890625
vt 0.578125 0.341552734
vt 0.560546875 0.411376953
vt 0.530273438 0.276367188
vt 0.51953125 0.333984375
vt 0.51953125 0.277832031
vt 0.548339844 0.274169922
vt 0.578613281 0.270263672
vt 0.515625 0.219604492
vt 0.505371094 0.223876953
vt 0.532714844 0.212890625
vt 0.561035156 0.201660156
vt 0.486572266 0.168334961
vt 0.477783203 0.175170898
vt 0.501464844 0.157470703
vt 0.526367188 0.138427734
vt 0.474609375 0.0875244141
vt 0.445068359 0.126708984
vt 0.438476562 0.135498047
vt 0.456298828 0.111938477
vt 0.39453125 0.0973510742
vt 0.390380859 0.107421875
vt 0.401123047 0.0809326172
vt 0.412353516 0.0532226562
vt 0.340820312 0.064453125
vt 0.338378906 0.0822143555
vt 0.336914062 0.092956543
vt 0.280761719 0.0817871094
vt 0.424072266 0.354003906
vt 0.432617188 0.321777344
vt 0.433105469 0.288085938
vt 0.425048828 0.256103516
vt 0.407470703 0.3828125
vt 0.408691406 0.227294922
vt 0.384033203 0.406005859
vt 0.385253906 0.203735352
vt 0.355224609 0.422363281
vt 0.356689453 0.186889648
vt 0.322753906 0.430664062
vt 0.324707031 0.177978516
vt 0.289550781 0.430175781
vt 0.291748047 0.177856445
vt 0.257324219 0.421142578
vt 0.259765625 0.186279297
vt 0.228759766 0.404052734
vt 0.230834961 0.202514648
vt 0.20715332 0.225708008
vt 0.205688477 0.380371094
vt 0.189453125 0.3515625
vt 0.190429688 0.254150391
vt 0.181396484 0.319335938
vt 0.181884766 0.285888672
vt 0.254150391 0.954589844
vt 0.267578125 0.986816406
vt 0.311767578 0.961425781
vt 0.218505859 1
vt 0.290527344 0.93359375
vt 0.347900391 0.925292969
vt 0.319824219 0.904296875
vt 0.373291016 0.881347656
vt 0.340820312 0.868164062
vt 0.386474609 0.83203125
vt 0.3515625 0.827636719
vt 0.386474609 0.78125
vt 0.3515625 0.785644531
vt 0.373291016 0.731933594
vt 0.340820312 0.745605469
vt 0.347900391 0.687988281
vt 0.320068359 0.709472656
vt 0.311767578 0.651855469
vt 0.290527344 0.6796875
vt 0.267822266 0.626464844
vt 0.254394531 0.658691406
vt 0.21862793 0.61328125
vt 0.213989258 0.647949219
vt 0.167724609 0.61328125
vt 0.172363281 0.647949219
vt 0.118591309 0.626464844
vt 0.213989258 0.965332031
vt 0.132080078 0.658691406
vt 0.0745849609 0.651855469
vt 0.172241211 0.965332031
vt 0.167724609 1
vt 0.0959472656 0.6796875
vt 0.0386352539 0.687988281
vt 0.131958008 0.954589844
vt 0.118591309 0.986816406
vt 0.0664672852 0.709472656
vt 0.0132369995 0.731933594
vt 0.0958251953 0.93359375
vt 0.0744628906 0.961425781
vt 0.0455932617 0.745605469
vt 3.99947166E-05 0.78125
vt 0.0663452148 0.903808594
vt 0.0384521484 0.925292969
vt 0.0348205566 0.785644531
vt 0 0.83203125
vt 0.045501709 0.867675781
vt 0.013053894 0.881347656
vt 0.0347290039 0.827636719
vn -0.382568359 0.0312805176 -0.923339844
vn -0.452392578 0.668945312 -0.58984375
vn -0.608398438 0.0312805176 -0.79296875
vn -0.284423828 0.668945312 -0.686523438
vn -0.130493164 0.0312805176 -0.990722656
vn -0.0970458984 0.668945312 -0.736816406
vn -0.0526123047 0.99609375 -0.0685424805
vn -0.0330810547 0.99609375 -0.0798339844
vn -0.0685424805 0.99609375 -0.0526123047
vn -0.58984375 0.668945312 -0.452392578
vn -0.0112762451 0.99609375 -0.0856933594
vn 0.0970458984 0.668945312 -0.736816406
vn -0.0798339844 0.99609375 -0.0330810547
vn -0.686523438 0.668945312 -0.284423828
vn 0.0112762451 0.99609375 -0.0856933594
vn 0.284423828 0.668945312 -0.686523438
vn -0.0856933594 0.99609375 -0.0112762451
vn -0.736816406 0.668945312 -0.0970458984
vn 0.0330810547 0.99609375 -0.0798339844
vn 0.452392578 0.668945312 -0.58984375
vn -0.0856933594 0.99609375 0.0112762451
vn -0.736816406 0.668945312 0.0970458984
vn 0.0526123047 0.99609375 -0.0685424805
vn 0.58984375 0.668945312 -0.452392578
vn -0.0798339844 0.99609375 0.0330810547
vn -0.686523438 0.668945312 0.284423828
vn 0.0685424805 0.99609375 -0.0526123047
vn 0.686523438 0.668945312 -0.284423828
vn -0.0685424805 0.99609375 0.0526123047
vn -0.58984375 0.668945312 0.452392578
vn 0.0798339844 0.99609375 -0.0330810547
vn 0.736816406 0.668945312 -0.0970458984
vn -0.0526123047 0.99609375 0.0685424805
vn -0.452392578 0.668945312 0.58984375
vn -0.0330810547 0.99609375 0.0798339844
vn -0.284423828 0.668945312 0.686523438
vn -0.0112762451 0.99609375 0.0856933594
vn -0.0970458984 0.668945312 0.736816406
vn 0.0112762451 0.99609375 0.0856933594
vn 0.0970458984 0.668945312 0.736816406
vn 0.0330810547 0.99609375 0.0798339844
vn 0.284423828 0.668945312 0.686523438
vn 0.0526123047 0.99609375 0.0685424805
vn 0.452392578 0.668945312 0.58984375
vn 0.0685424805 0.99609375 0.0526123047
vn 0.58984375 0.668945312 0.452392578
vn 0.0798339844 0.99609375 0.0330810547
vn 0.686523438 0.668945312 0.284423828
vn 0.178344727 0.884765625 -0.430419922
vn 0.0608215332 0.884765625 -0.461914062
vn -0.0608215332 0.884765625 -0.461914062
vn -0.178344727 0.884765625 -0.430419922
vn -0.283691406 0.884765625 -0.369628906
vn -0.369628906 0.884765625 -0.283691406
vn -0.430419922 0.884765625 -0.178344727
vn 0.283691406 0.884765625 -0.369628906
vn 0.369628906 0.884765625 -0.283691406
vn 0.430419922 0.884765625 -0.178344727
vn 0.461914062 0.884765625 -0.0608215332
vn 0.461914062 0.884765625 0.0608215332
vn 0.430419922 0.884765625 0.178344727
vn 0.369628906 0.884765625 0.283691406
vn 0.283691406 0.884765625 0.369628906
vn 0.178344727 0.884765625 0.430419922
vn 0.0608215332 0.884765625 0.461914062
vn -0.0608215332 0.884765625 0.461914062
vn -0.178344727 0.884765625 0.430419922
vn -0.283691406 0.884765625 0.369628906
vn -0.369628906 0.884765625 0.283691406
vn 0.439941406 0.69140625 0.573242188
vn 0.276611328 0.69140625 0.667480469
vn 0.573242188 0.69140625 0.439941406
vn 0.0942993164 0.69140625 0.716308594
vn 0.667480469 0.69140625 0.276611328
vn -0.0942993164 0.69140625 0.716308594
vn 0.716308594 0.69140625 0.0942993164
vn -0.276611328 0.69140625 0.667480469
vn 0.716308594 0.69140625 -0.0942993164
vn -0.439941406 0.69140625 0.573242188
vn 0.667480469 0.69140625 -0.276611328
vn -0.573242188 0.69140625 0.439941406
vn 0.573242188 0.69140625 -0.439941406
vn 0.439941406 0.69140625 -0.573242188
vn 0.276611328 0.69140625 -0.667480469
vn 0.0942993164 0.69140625 -0.716308594
vn -0.0942993164 0.69140625 -0.716308594
vn -0.276611328 0.69140625 -0.667480469
vn -0.439941406 0.69140625 -0.573242188
vn -0.573242188 0.69140625 -0.439941406
vn -0.667480469 0.69140625 -0.276611328
vn -0.461914062 0.884765625 -0.0608215332
vn -0.716308594 0.69140625 -0.0942993164
vn -0.461914062 0.884765625 0.0608215332
vn -0.716308594 0.69140625 0.0942993164
vn 0.0856933594 0.99609375 0.0112762451
vn -0.430419922 0.884765625 0.178344727
vn -0.667480469 0.69140625 0.276611328
vn 0.0856933594 0.99609375 -0.0112762451
vn 0.736816406 0.668945312 0.0970458984
vn 0.923339844 0.0312805176 0.382568359
vn 0.990722656 0.0312805176 0.130493164
vn -0.608398438 0.0312805176 -0.79296875
vn -0.452392578 0.668945312 -0.58984375
vn -0.58984375 0.668945312 -0.452392578
vn -0.79296875 0.0312805176 -0.608398438
vn -0.686523438 0.668945312 -0.284423828
vn -0.923339844 0.0312805176 -0.382568359
vn -0.736816406 0.668945312 -0.0970458984
vn -0.990722656 0.0312805176 -0.130493164
vn -0.736816406 0.668945312 0.0970458984
vn -0.990722656 0.0312805176 0.130493164
vn -0.732421875 -0.383789062 -0.562011719
vn -0.853027344 -0.383789062 -0.353515625
vn -0.915527344 -0.383789062 -0.120544434
vn -0.915527344 -0.383789062 0.120544434
vn -0.853027344 -0.383789062 0.353515625
vn -0.923339844 0.0312805176 0.382568359
vn -0.625488281 -0.736328125 0.259033203
vn -0.670898438 -0.736328125 0.0883178711
vn -0.670898438 -0.736328125 -0.0883178711
vn -0.625488281 -0.736328125 -0.259033203
vn -0.537109375 -0.736328125 -0.412109375
vn -0.562011719 -0.383789062 -0.732421875
vn -0.382568359 0.0312805176 -0.923339844
vn -0.412109375 -0.736328125 -0.537109375
vn -0.353515625 -0.383789062 -0.853027344
vn -0.259033203 -0.736328125 -0.625488281
vn -0.990722656 0.0312805176 0.130493164
vn -0.736816406 0.668945312 0.0970458984
vn -0.686523438 0.668945312 0.284423828
vn -0.923339844 0.0312805176 0.382568359
vn -0.58984375 0.668945312 0.452392578
vn -0.79296875 0.0312805176 0.608398438
vn -0.452392578 0.668945312 0.58984375
vn -0.732421875 -0.383789062 0.562011719
vn -0.853027344 -0.383789062 0.353515625
vn -0.608398438 0.0312805176 0.79296875
vn -0.284423828 0.668945312 0.686523438
vn -0.562011719 -0.383789062 0.732421875
vn -0.537109375 -0.736328125 0.412109375
vn -0.625488281 -0.736328125 0.259033203
vn -0.412109375 -0.736328125 0.537109375
vn -0.353515625 -0.383789062 0.853027344
vn -0.382568359 0.0312805176 0.923339844
vn -0.0970458984 0.668945312 0.736816406
vn -0.120544434 -0.383789062 0.915527344
vn -0.130493164 0.0312805176 0.990722656
vn 0.0970458984 0.668945312 0.736816406
vn 0.120544434 -0.383789062 0.915527344
vn 0.79296875 0.0312805176 0.608398438
vn 0.686523438 0.668945312 0.284423828
vn 0.923339844 0.0312805176 0.382568359
vn 0.58984375 0.668945312 0.452392578
vn 0.608398438 0.0312805176 0.79296875
vn 0.452392578 0.668945312 0.58984375
vn 0.732421875 -0.383789062 0.562011719
vn 0.853027344 -0.383789062 0.353515625
vn 0.382568359 0.0312805176 0.923339844
vn 0.284423828 0.668945312 0.686523438
vn 0.562011719 -0.383789062 0.732421875
vn 0.537109375 -0.736328125 0.412109375
vn 0.412109375 -0.736328125 0.537109375
vn 0.353515625 -0.383789062 0.853027344
vn 0.259033203 -0.736328125 0.625488281
vn 0.130493164 0.0312805176 0.990722656
vn 0.0970458984 0.668945312 0.736816406
vn -0.130493164 0.0312805176 0.990722656
vn 0.120544434 -0.383789062 0.915527344
vn 0.0883178711 -0.736328125 0.670898438
vn -0.120544434 -0.383789062 0.915527344
vn -0.0883178711 -0.736328125 0.670898438
vn -0.353515625 -0.383789062 0.853027344
vn -0.259033203 -0.736328125 0.625488281
vn -0.562011719 -0.383789062 0.732421875
vn 0.853027344 -0.383789062 0.353515625
vn 0.79296875 0.0312805176 0.608398438
vn 0.923339844 0.0312805176 0.382568359
vn 0.915527344 -0.383789062 0.120544434
vn 0.990722656 0.0312805176 0.130493164
vn 0.915527344 -0.383789062 -0.120544434
vn 0.670898438 -0.736328125 -0.0883178711
vn 0.625488281 -0.736328125 -0.259033203
vn 0.670898438 -0.736328125 0.0883178711
vn 0.625488281 -0.736328125 0.259033203
vn 0.732421875 -0.383789062 0.562011719
vn 0.537109375 -0.736328125 0.412109375
vn 0.353027344 -0.934570312 -0.0464782715
vn 0.353027344 -0.934570312 0.0464782715
vn 0.329101562 -0.934570312 -0.136352539
vn 0.329101562 -0.934570312 0.136352539
vn 0.537109375 -0.736328125 -0.412109375
vn 0.282470703 -0.934570312 0.216796875
vn 0.282470703 -0.934570312 -0.216796875
vn 0.216796875 -0.934570312 0.282470703
vn 0.412109375 -0.736328125 -0.537109375
vn 0.412109375 -0.736328125 0.537109375
vn 0.216796875 -0.934570312 -0.282470703
vn 0.136352539 -0.934570312 0.329101562
vn 0.259033203 -0.736328125 -0.625488281
vn 0.259033203 -0.736328125 0.625488281
vn 0.136352539 -0.934570312 -0.329101562
vn 0.0464782715 -0.934570312 0.353027344
vn 0.0883178711 -0.736328125 -0.670898438
vn 0.0883178711 -0.736328125 0.670898438
vn 0.0464782715 -0.934570312 -0.353027344
vn -0.0464782715 -0.934570312 0.353027344
vn -0.0883178711 -0.736328125 -0.670898438
vn -0.0883178711 -0.736328125 0.670898438
vn -0.0464782715 -0.934570312 -0.353027344
vn -0.136352539 -0.934570312 0.329101562
vn -0.259033203 -0.736328125 -0.625488281
vn -0.136352539 -0.934570312 -0.329101562
vn -0.412109375 -0.736328125 -0.537109375
vn -0.216796875 -0.934570312 -0.282470703
vn -0.537109375 -0.736328125 -0.412109375
vn -0.282470703 -0.934570312 -0.216796875
vn -0.625488281 -0.736328125 -0.259033203
vn -0.329101562 -0.934570312 -0.136352539
vn -0.670898438 -0.736328125 -0.0883178711
vn -0.353027344 -0.934570312 -0.0464782715
vn -0.670898438 -0.736328125 0.0883178711
vn -0.353027344 -0.934570312 0.0464782715
vn -0.625488281 -0.736328125 0.259033203
vn -0.329101562 -0.934570312 0.136352539
vn -0.537109375 -0.736328125 0.412109375
vn -0.282470703 -0.934570312 0.216796875
vn -0.412109375 -0.736328125 0.537109375
vn -0.216796875 -0.934570312 0.282470703
vn -0.259033203 -0.736328125 0.625488281
vn -0.562011719 -0.383789062 0.732421875
vn -0.353515625 -0.383789062 -0.853027344
vn -0.130493164 0.0312805176 -0.990722656
vn -0.382568359 0.0312805176 -0.923339844
vn -0.120544434 -0.383789062 -0.915527344
vn -0.0883178711 -0.736328125 -0.670898438
vn -0.259033203 -0.736328125 -0.625488281
vn 0.130493164 0.0312805176 -0.990722656
vn -0.0970458984 0.668945312 -0.736816406
vn 0.0970458984 0.668945312 -0.736816406
vn 0.120544434 -0.383789062 -0.915527344
vn 0.0883178711 -0.736328125 -0.670898438
vn 0.382568359 0.0312805176 -0.923339844
vn 0.284423828 0.668945312 -0.686523438
vn 0.353515625 -0.383789062 -0.853027344
vn 0.259033203 -0.736328125 -0.625488281
vn 0.608398438 0.0312805176 -0.79296875
vn 0.452392578 0.668945312 -0.58984375
vn 0.562011719 -0.383789062 -0.732421875
vn 0.412109375 -0.736328125 -0.537109375
vn 0.537109375 -0.736328125 -0.412109375
vn 0.79296875 0.0312805176 -0.608398438
vn 0.58984375 0.668945312 -0.452392578
vn 0.732421875 -0.383789062 -0.562011719
vn 0.923339844 0.0312805176 -0.382568359
vn 0.686523438 0.668945312 -0.284423828
vn 0.853027344 -0.383789062 -0.353515625
vn 0.625488281 -0.736328125 -0.259033203
vn 0.915527344 -0.383789062 -0.120544434
vn 0.990722656 0.0312805176 -0.130493164
vn 0.736816406 0.668945312 -0.0970458984
vn 0.990722656 0.0312805176 0.130493164
vn -0 1 0
vn -0 1 0
vn -0 1 0
vn -0 1 0
vn -0 1 0
vn -0 1 0
vn -0 1 0
vn -0 1 0
vn -0 1 0
vn -0 1 0
vn -0 1 0
vn -0 1 0
vn -0 1 0
vn -0 1 0
vn -0 1 0
vn -0 1 0
vn -0 1 0
vn -0 1 0
vn -0 1 0
vn -0 1 0
vn -0 1 0
vn -0 1 0
vn -0 1 0
vn -0 1 0
vn 0.130004883 -0.991210938 -0.0171203613
vn 0.353027344 -0.934570312 -0.0464782715
vn 0.329101562 -0.934570312 -0.136352539
vn 0.353027344 -0.934570312 0.0464782715
vn 0.121154785 -0.991210938 -0.050201416
vn 0.282470703 -0.934570312 -0.216796875
vn 0.104064941 -0.991210938 -0.0798339844
vn 0.216796875 -0.934570312 -0.282470703
vn 0.0798339844 -0.991210938 -0.104064941
vn 0.136352539 -0.934570312 -0.329101562
vn 0.050201416 -0.991210938 -0.121154785
vn 0.0464782715 -0.934570312 -0.353027344
vn 0.0171203613 -0.991210938 -0.130004883
vn -0.0464782715 -0.934570312 -0.353027344
vn -0.0171203613 -0.991210938 -0.130004883
vn -0.136352539 -0.934570312 -0.329101562
vn -0.050201416 -0.991210938 -0.121154785
vn -0.216796875 -0.934570312 -0.282470703
vn -0.0798339844 -0.991210938 -0.104064941
vn -0.282470703 -0.934570312 -0.216796875
vn -0.104064941 -0.991210938 -0.0798339844
vn -0.329101562 -0.934570312 -0.136352539
vn -0.121154785 -0.991210938 -0.050201416
vn -0.353027344 -0.934570312 -0.0464782715
vn -0.130004883 -0.991210938 -0.0171203613
vn -0.353027344 -0.934570312 0.0464782715
vn 0.130004883 -0.991210938 0.0171203613
vn -0.130004883 -0.991210938 0.0171203613
vn -0.329101562 -0.934570312 0.136352539
vn 0.121154785 -0.991210938 0.050201416
vn 0.329101562 -0.934570312 0.136352539
vn -0.121154785 -0.991210938 0.050201416
vn -0.282470703 -0.934570312 0.216796875
vn 0.104064941 -0.991210938 0.0798339844
vn 0.282470703 -0.934570312 0.216796875
vn -0.104064941 -0.991210938 0.0798339844
vn -0.216796875 -0.934570312 0.282470703
vn 0.0798339844 -0.991210938 0.104064941
vn 0.216796875 -0.934570312 0.282470703
vn -0.0798339844 -0.991210938 0.104064941
vn -0.136352539 -0.934570312 0.329101562
vn 0.050201416 -0.991210938 0.121154785
vn 0.136352539 -0.934570312 0.329101562
vn -0.050201416 -0.991210938 0.121154785
vn -0.0464782715 -0.934570312 0.353027344
vn 0.0171203613 -0.991210938 0.130004883
vn 0.0464782715 -0.934570312 0.353027344
vn -0.0171203613 -0.991210938 0.130004883
g Saucer_01_0
f 3/3/3 2/2/2 1/1/1
f 2/2/2 4/4/4 1/1/1
f 1/1/1 4/4/4 5/5/5
f 4/4/4 6/6/6 5/5/5
f 2/2/2 7/7/7 4/4/4
f 4/4/4 8/8/8 6/6/6
f 7/7/7 8/8/8 4/4/4
f 9/9/9 7/7/7 2/2/2
f 10/10/10 9/9/9 2/2/2
f 8/8/8 11/11/11 6/6/6
f 6/6/6 11/11/11 12/12/12
f 13/13/13 9/9/9 10/10/10
f 14/14/14 13/13/13 10/10/10
f 11/11/11 15/15/15 12/12/12
f 12/12/12 15/15/15 16/16/16
f 17/17/17 13/13/13 14/14/14
f 18/18/18 17/17/17 14/14/14
f 15/15/15 19/19/19 16/16/16
f 16/16/16 19/19/19 20/20/20
f 21/21/21 17/17/17 18/18/18
f 22/22/22 21/21/21 18/18/18
f 19/19/19 23/23/23 20/20/20
f 20/20/20 23/23/23 24/24/24
f 25/25/25 21/21/21 22/22/22
f 26/26/26 25/25/25 22/22/22
f 23/23/23 27/27/27 24/24/24
f 24/24/24 27/27/27 28/28/28
f 29/29/29 25/25/25 26/26/26
f 30/30/30 29/29/29 26/26/26
f 27/27/27 31/31/31 28/28/28
f 28/28/28 31/31/31 32/32/32
f 33/33/33 29/29/29 30/30/30
f 34/34/34 33/33/33 30/30/30
f 35/35/35 33/33/33 34/34/34
f 36/36/36 35/35/35 34/34/34
f 37/37/37 35/35/35 36/36/36
f 38/38/38 37/37/37 36/36/36
f 39/39/39 37/37/37 38/38/38
f 40/40/40 39/39/39 38/38/38
f 41/41/41 39/39/39 40/40/40
f 42/42/42 41/41/41 40/40/40
f 43/43/43 41/41/41 42/42/42
f 44/44/44 43/43/43 42/42/42
f 45/45/45 43/43/43 44/44/44
f 46/46/46 45/45/45 44/44/44
f 47/47/47 45/45/45 46/46/46
f 48/48/48 47/47/47 46/46/46
f 33/33/33 35/35/35 49/49/49
f 35/35/35 37/37/37 50/50/50
f 49/49/49 35/35/35 50/50/50
f 37/37/37 39/39/39 51/51/51
f 50/50/50 37/37/37 51/51/51
f 39/39/39 41/41/41 52/52/52
f 51/51/51 39/39/39 52/52/52
f 41/41/41 43/43/43 53/53/53
f 52/52/52 41/41/41 53/53/53
f 43/43/43 45/45/45 54/54/54
f 53/53/53 43/43/43 54/54/54
f 45/45/45 47/47/47 55/55/55
f 54/54/54 45/45/45 55/55/55
f 56/56/56 33/33/33 49/49/49
f 29/29/29 33/33/33 56/56/56
f 57/57/57 29/29/29 56/56/56
f 25/25/25 29/29/29 57/57/57
f 58/58/58 25/25/25 57/57/57
f 21/21/21 25/25/25 58/58/58
f 59/59/59 21/21/21 58/58/58
f 17/17/17 21/21/21 59/59/59
f 60/60/60 17/17/17 59/59/59
f 13/13/13 17/17/17 60/60/60
f 61/61/61 13/13/13 60/60/60
f 9/9/9 13/13/13 61/61/61
f 62/62/62 9/9/9 61/61/61
f 7/7/7 9/9/9 62/62/62
f 63/63/63 7/7/7 62/62/62
f 8/8/8 7/7/7 63/63/63
f 64/64/64 8/8/8 63/63/63
f 11/11/11 8/8/8 64/64/64
f 65/65/65 11/11/11 64/64/64
f 15/15/15 11/11/11 65/65/65
f 66/66/66 15/15/15 65/65/65
f 19/19/19 15/15/15 66/66/66
f 67/67/67 19/19/19 66/66/66
f 23/23/23 19/19/19 67/67/67
f 68/68/68 23/23/23 67/67/67
f 27/27/27 23/23/23 68/68/68
f 69/69/69 27/27/27 68/68/68
f 31/31/31 27/27/27 69/69/69
f 63/63/63 62/62/62 70/70/70
f 63/63/63 70/70/70 71/71/71
f 64/64/64 63/63/63 71/71/71
f 62/62/62 72/72/72 70/70/70
f 64/64/64 71/71/71 73/73/73
f 62/62/62 61/61/61 72/72/72
f 65/65/65 64/64/64 73/73/73
f 61/61/61 74/74/74 72/72/72
f 65/65/65 73/73/73 75/75/75
f 61/61/61 60/60/60 74/74/74
f 66/66/66 65/65/65 75/75/75
f 60/60/60 76/76/76 74/74/74
f 66/66/66 75/75/75 77/77/77
f 60/60/60 59/59/59 76/76/76
f 67/67/67 66/66/66 77/77/77
f 59/59/59 78/78/78 76/76/76
f 67/67/67 77/77/77 79/79/79
f 59/59/59 58/58/58 78/78/78
f 68/68/68 67/67/67 79/79/79
f 58/58/58 80/80/80 78/78/78
f 68/68/68 79/79/79 81/81/81
f 58/58/58 57/57/57 80/80/80
f 57/57/57 82/82/82 80/80/80
f 57/57/57 56/56/56 82/82/82
f 56/56/56 83/83/83 82/82/82
f 56/56/56 49/49/49 83/83/83
f 49/49/49 84/84/84 83/83/83
f 49/49/49 50/50/50 84/84/84
f 50/50/50 85/85/85 84/84/84
f 50/50/50 51/51/51 85/85/85
f 51/51/51 86/86/86 85/85/85
f 51/51/51 52/52/52 86/86/86
f 52/52/52 87/87/87 86/86/86
f 52/52/52 53/53/53 87/87/87
f 53/53/53 88/88/88 87/87/87
f 53/53/53 54/54/54 88/88/88
f 54/54/54 89/89/89 88/88/88
f 54/54/54 55/55/55 89/89/89
f 55/55/55 90/90/90 89/89/89
f 55/55/55 91/91/91 90/90/90
f 91/91/91 92/92/92 90/90/90
f 55/55/55 47/47/47 91/91/91
f 91/91/91 93/93/93 92/92/92
f 93/93/93 94/94/94 92/92/92
f 47/47/47 95/95/95 91/91/91
f 95/95/95 47/47/47 48/48/48
f 93/93/93 96/96/96 94/94/94
f 96/96/96 97/97/97 94/94/94
f 93/93/93 91/91/91 98/98/98
f 91/91/91 95/95/95 98/98/98
f 93/93/93 98/98/98 96/96/96
f 99/99/99 95/95/95 48/48/48
f 98/98/98 95/95/95 99/99/99
f 99/99/99 48/48/48 100/100/100
f 101/101/101 99/99/99 100/100/100
f 32/32/32 99/99/99 101/101/101
f 32/32/32 98/98/98 99/99/99
f 31/31/31 98/98/98 32/32/32
f 98/98/98 31/31/31 96/96/96
f 96/96/96 31/31/31 69/69/69
f 96/96/96 69/69/69 97/97/97
f 69/69/69 81/81/81 97/97/97
f 69/69/69 68/68/68 81/81/81
f 104/104/104 103/103/103 102/102/102
f 105/105/105 104/104/104 102/102/102
f 106/106/106 104/104/104 105/105/105
f 107/107/107 106/106/106 105/105/105
f 108/108/108 106/106/106 107/107/107
f 109/109/109 108/108/108 107/107/107
f 110/110/110 108/108/108 109/109/109
f 111/111/111 110/110/110 109/109/109
f 105/105/105 102/102/102 112/112/112
f 107/107/107 105/105/105 113/113/113
f 105/105/105 112/112/112 113/113/113
f 109/109/109 107/107/107 114/114/114
f 107/107/107 113/113/113 114/114/114
f 111/111/111 109/109/109 115/115/115
f 109/109/109 114/114/114 115/115/115
f 111/111/111 115/115/115 116/116/116
f 117/117/117 111/111/111 116/116/116
f 118/118/118 116/116/116 115/115/115
f 119/119/119 118/118/118 115/115/115
f 115/115/115 114/114/114 119/119/119
f 114/114/114 120/120/120 119/119/119
f 121/121/121 120/120/120 114/114/114
f 113/113/113 121/121/121 114/114/114
f 113/113/113 112/112/112 121/121/121
f 112/112/112 122/122/122 121/121/121
f 102/102/102 123/123/123 112/112/112
f 122/122/122 112/112/112 123/123/123
f 102/102/102 124/124/124 123/123/123
f 125/125/125 122/122/122 123/123/123
f 124/124/124 126/126/126 123/123/123
f 123/123/123 126/126/126 125/125/125
f 126/126/126 127/127/127 125/125/125
f 130/130/130 129/129/129 128/128/128
f 131/131/131 130/130/130 128/128/128
f 132/132/132 130/130/130 131/131/131
f 133/133/133 132/132/132 131/131/131
f 134/134/134 132/132/132 133/133/133
f 133/133/133 131/131/131 135/135/135
f 131/131/131 136/136/136 135/135/135
f 137/137/137 134/134/134 133/133/133
f 138/138/138 134/134/134 137/137/137
f 133/133/133 135/135/135 139/139/139
f 137/137/137 133/133/133 139/139/139
f 135/135/135 136/136/136 140/140/140
f 135/135/135 140/140/140 139/139/139
f 136/136/136 141/141/141 140/140/140
f 140/140/140 142/142/142 139/139/139
f 137/137/137 139/139/139 143/143/143
f 144/144/144 138/138/138 137/137/137
f 144/144/144 137/137/137 143/143/143
f 145/145/145 138/138/138 144/144/144
f 144/144/144 143/143/143 146/146/146
f 147/147/147 145/145/145 144/144/144
f 147/147/147 144/144/144 146/146/146
f 148/148/148 145/145/145 147/147/147
f 147/147/147 146/146/146 149/149/149
f 152/152/152 151/151/151 150/150/150
f 151/151/151 153/153/153 150/150/150
f 150/150/150 153/153/153 154/154/154
f 153/153/153 155/155/155 154/154/154
f 150/150/150 154/154/154 156/156/156
f 150/150/150 156/156/156 157/157/157
f 154/154/154 155/155/155 158/158/158
f 155/155/155 159/159/159 158/158/158
f 154/154/154 160/160/160 156/156/156
f 154/154/154 158/158/158 160/160/160
f 156/156/156 160/160/160 161/161/161
f 160/160/160 162/162/162 161/161/161
f 160/160/160 163/163/163 162/162/162
f 158/158/158 163/163/163 160/160/160
f 163/163/163 164/164/164 162/162/162
f 158/158/158 159/159/159 165/165/165
f 158/158/158 165/165/165 163/163/163
f 159/159/159 166/166/166 165/165/165
f 165/165/165 166/166/166 167/167/167
f 165/165/165 167/167/167 168/168/168
f 165/165/165 168/168/168 163/163/163
f 164/164/164 163/163/163 168/168/168
f 169/169/169 164/164/164 168/168/168
f 168/168/168 170/170/170 169/169/169
f 170/170/170 171/171/171 169/169/169
f 171/171/171 170/170/170 172/172/172
f 173/173/173 171/171/171 172/172/172
f 172/172/172 174/174/174 173/173/173
f 177/177/177 176/176/176 175/175/175
f 177/177/177 175/175/175 178/178/178
f 179/179/179 177/177/177 178/178/178
f 179/179/179 178/178/178 180/180/180
f 181/181/181 180/180/180 178/178/178
f 181/181/181 182/182/182 180/180/180
f 178/178/178 175/175/175 183/183/183
f 183/183/183 181/181/181 178/178/178
f 175/175/175 184/184/184 183/183/183
f 175/175/175 185/185/185 184/184/184
f 185/185/185 186/186/186 184/184/184
f 182/182/182 181/181/181 187/187/187
f 187/187/187 181/181/181 188/188/188
f 181/181/181 183/183/183 188/188/188
f 189/189/189 182/182/182 187/187/187
f 188/188/188 183/183/183 190/190/190
f 183/183/183 184/184/184 190/190/190
f 191/191/191 182/182/182 189/189/189
f 190/190/190 184/184/184 192/192/192
f 184/184/184 186/186/186 192/192/192
f 193/193/193 191/191/191 189/189/189
f 192/192/192 186/186/186 194/194/194
f 195/195/195 191/191/191 193/193/193
f 186/186/186 196/196/196 194/194/194
f 197/197/197 195/195/195 193/193/193
f 194/194/194 196/196/196 198/198/198
f 199/199/199 195/195/195 197/197/197
f 196/196/196 200/200/200 198/198/198
f 201/201/201 199/199/199 197/197/197
f 198/198/198 200/200/200 202/202/202
f 203/203/203 199/199/199 201/201/201
f 200/200/200 204/204/204 202/202/202
f 205/205/205 203/203/203 201/201/201
f 202/202/202 204/204/204 206/206/206
f 207/207/207 203/203/203 205/205/205
f 204/204/204 208/208/208 206/206/206
f 209/209/209 207/207/207 205/205/205
f 206/206/206 208/208/208 210/210/210
f 211/211/211 207/207/207 209/209/209
f 212/212/212 211/211/211 209/209/209
f 213/213/213 211/211/211 212/212/212
f 214/214/214 213/213/213 212/212/212
f 215/215/215 213/213/213 214/214/214
f 216/216/216 215/215/215 214/214/214
f 217/217/217 215/215/215 216/216/216
f 218/218/218 217/217/217 216/216/216
f 219/219/219 217/217/217 218/218/218
f 220/220/220 219/219/219 218/218/218
f 221/221/221 219/219/219 220/220/220
f 222/222/222 221/221/221 220/220/220
f 223/223/223 221/221/221 222/222/222
f 224/224/224 223/223/223 222/222/222
f 225/225/225 223/223/223 224/224/224
f 226/226/226 225/225/225 224/224/224
f 227/227/227 225/225/225 226/226/226
f 228/228/228 227/227/227 226/226/226
f 229/229/229 227/227/227 228/228/228
f 230/230/230 227/227/227 229/229/229
f 210/210/210 229/229/229 228/228/228
f 208/208/208 229/229/229 210/210/210
f 233/233/233 232/232/232 231/231/231
f 232/232/232 234/234/234 231/231/231
f 234/234/234 235/235/235 231/231/231
f 235/235/235 236/236/236 231/231/231
f 232/232/232 237/237/237 234/234/234
f 232/232/232 238/238/238 237/237/237
f 238/238/238 239/239/239 237/237/237
f 234/234/234 240/240/240 235/235/235
f 237/237/237 240/240/240 234/234/234
f 240/240/240 241/241/241 235/235/235
f 237/237/237 239/239/239 242/242/242
f 237/237/237 242/242/242 240/240/240
f 239/239/239 243/243/243 242/242/242
f 241/241/241 240/240/240 244/244/244
f 242/242/242 244/244/244 240/240/240
f 245/245/245 241/241/241 244/244/244
f 242/242/242 243/243/243 246/246/246
f 242/242/242 246/246/246 244/244/244
f 243/243/243 247/247/247 246/246/246
f 244/244/244 248/248/248 245/245/245
f 246/246/246 248/248/248 244/244/244
f 248/248/248 249/249/249 245/245/245
f 250/250/250 249/249/249 248/248/248
f 246/246/246 247/247/247 251/251/251
f 246/246/246 251/251/251 248/248/248
f 247/247/247 252/252/252 251/251/251
f 253/253/253 250/250/250 248/248/248
f 251/251/251 253/253/253 248/248/248
f 251/251/251 252/252/252 254/254/254
f 251/251/251 254/254/254 253/253/253
f 252/252/252 255/255/255 254/254/254
f 253/253/253 256/256/256 250/250/250
f 254/254/254 256/256/256 253/253/253
f 256/256/256 257/257/257 250/250/250
f 257/257/257 256/256/256 258/258/258
f 254/254/254 255/255/255 259/259/259
f 254/254/254 259/259/259 256/256/256
f 259/259/259 258/258/258 256/256/256
f 255/255/255 260/260/260 259/259/259
f 259/259/259 261/261/261 258/258/258
f 259/259/259 260/260/260 261/261/261
f 264/264/264 263/263/263 262/262/262
f 262/262/262 265/265/265 264/264/264
f 262/262/262 266/266/266 265/265/265
f 266/266/266 267/267/267 265/265/265
f 266/266/266 268/268/268 267/267/267
f 268/268/268 269/269/269 267/267/267
f 268/268/268 270/270/270 269/269/269
f 270/270/270 271/271/271 269/269/269
f 270/270/270 272/272/272 271/271/271
f 272/272/272 273/273/273 271/271/271
f 272/272/272 274/274/274 273/273/273
f 274/274/274 275/275/275 273/273/273
f 274/274/274 276/276/276 275/275/275
f 276/276/276 277/277/277 275/275/275
f 276/276/276 278/278/278 277/277/277
f 278/278/278 279/279/279 277/277/277
f 278/278/278 280/280/280 279/279/279
f 278/278/278 281/281/281 280/280/280
f 281/281/281 282/282/282 280/280/280
f 282/282/282 283/283/283 280/280/280
f 282/282/282 284/284/284 283/283/283
f 284/284/284 285/285/285 283/283/283
f 288/288/288 287/287/287 286/286/286
f 287/287/287 289/289/289 286/286/286
f 290/290/290 288/288/288 286/286/286
f 291/291/291 288/288/288 290/290/290
f 292/292/292 291/291/291 290/290/290
f 293/293/293 291/291/291 292/292/292
f 294/294/294 293/293/293 292/292/292
f 295/295/295 293/293/293 294/294/294
f 296/296/296 295/295/295 294/294/294
f 297/297/297 295/295/295 296/296/296
f 298/298/298 297/297/297 296/296/296
f 299/299/299 297/297/297 298/298/298
f 300/300/300 299/299/299 298/298/298
f 300/300/300 298/298/298 296/296/296
f 301/301/301 299/299/299 300/300/300
f 296/296/296 302/302/302 300/300/300
f 302/302/302 301/301/301 300/300/300
f 296/296/296 294/294/294 302/302/302
f 303/303/303 301/301/301 302/302/302
f 294/294/294 304/304/304 302/302/302
f 304/304/304 303/303/303 302/302/302
f 294/294/294 292/292/292 304/304/304
f 305/305/305 303/303/303 304/304/304
f 292/292/292 306/306/306 304/304/304
f 306/306/306 305/305/305 304/304/304
f 292/292/292 290/290/290 306/306/306
f 307/307/307 305/305/305 306/306/306
f 290/290/290 308/308/308 306/306/306
f 308/308/308 307/307/307 306/306/306
f 309/309/309 307/307/307 308/308/308
f 290/290/290 286/286/286 308/308/308
f 310/310/310 309/309/309 308/308/308
f 286/286/286 310/310/310 308/308/308
f 311/311/311 309/309/309 310/310/310
f 286/286/286 312/312/312 310/310/310
f 289/289/289 312/312/312 286/286/286
f 313/313/313 311/311/311 310/310/310
f 312/312/312 313/313/313 310/310/310
f 314/314/314 311/311/311 313/313/313
f 312/312/312 289/289/289 315/315/315
f 312/312/312 315/315/315 313/313/313
f 289/289/289 316/316/316 315/315/315
f 317/317/317 314/314/314 313/313/313
f 315/315/315 317/317/317 313/313/313
f 318/318/318 314/314/314 317/317/317
f 315/315/315 316/316/316 319/319/319
f 315/315/315 319/319/319 317/317/317
f 316/316/316 320/320/320 319/319/319
f 321/321/321 318/318/318 317/317/317
f 319/319/319 321/321/321 317/317/317
f 322/322/322 318/318/318 321/321/321
f 319/319/319 320/320/320 323/323/323
f 319/319/319 323/323/323 321/321/321
f 320/320/320 324/324/324 323/323/323
f 325/325/325 322/322/322 321/321/321
f 323/323/323 325/325/325 321/321/321
f 326/326/326 322/322/322 325/325/325
f 323/323/323 324/324/324 327/327/327
f 323/323/323 327/327/327 325/325/325
f 324/324/324 328/328/328 327/327/327
f 329/329/329 326/326/326 325/325/325
f 327/327/327 329/329/329 325/325/325
f 330/330/330 326/326/326 329/329/329
f 327/327/327 328/328/328 331/331/331
f 327/327/327 331/331/331 329/329/329
f 328/328/328 332/332/332 331/331/331
f 332/332/332 330/330/330 333/333/333
f 333/333/333 330/330/330 329/329/329
f 331/331/331 333/333/333 329/329/329
f 331/331/331 332/332/332 333/333/333
