g Stand
v -0.117407851 -0.000170774438 -0.0271149874
v -0.146002665 0.0157925468 0.0194312036
v -0.119781233 -0.000170774438 0.0159414429
v -0.143109724 0.0157925282 -0.0330507644
v -0.0999329612 -0.000170774438 -0.0665973276
v -0.160509109 0.0451660082 0.021361839
v -0.121809363 0.0157925077 -0.0811762288
v -0.0671950653 -0.000170774438 -0.0995622203
v -0.15732871 0.0451660082 -0.0363345854
v -0.161752731 0.0862485841 0.0215273518
v -0.0819047838 0.0157924965 -0.121357486
v -0.0284169 -0.000170774438 -0.116730489
v -0.133912027 0.0451660156 -0.0892416611
v -0.158547729 0.0862485841 -0.036616113
v -0.133885533 0.273642212 0.0178185478
v -0.0346376672 0.0157925244 -0.142284065
v 0.0129611166 -0.000170774438 -0.119130798
v -0.0900426358 0.0451660156 -0.133415237
v -0.13494958 0.0862485692 -0.0899331272
v -0.131232679 0.273642212 -0.0303077977
v -0.124398313 0.286645263 0.0165559165
v 0.0157984514 0.0157925766 -0.145209819
v 0.0511193834 -0.000170774438 -0.109741025
v -0.0380791835 0.0451660156 -0.156421021
v -0.0907402858 0.0862485692 -0.13444896
v -0.111700103 0.273642212 -0.0744392052
v -0.12193346 0.286645263 -0.0281601716
v -0.109351985 0.293326586 0.0145226074
v 0.0623099841 0.0157925785 -0.133764535
v 0.0861647874 -0.000170774438 -0.0843231678
v 0.0173681341 0.0451660156 -0.159637481
v -0.0383742191 0.0862485841 -0.157633007
v -0.0751072988 0.273642212 -0.111285731
v -0.103784971 0.286645263 -0.0691644028
v -0.107152946 0.293326586 -0.0247215834
v -0.096652247 0.290817589 0.0128632495
v 0.105027206 0.0157925878 -0.102782421
v 0.109566174 -0.000170774438 -0.049607411
v 0.068500936 0.0451660156 -0.147055045
v 0.0175027121 0.0862485841 -0.160874382
v -0.0317629986 0.273642212 -0.130475551
v -0.0697851554 0.286645263 -0.103399962
v -0.0911633447 0.293326586 -0.0606977493
v -0.0947371498 0.290817589 -0.0218792651
v -0.0870721713 0.283497512 0.0115882577
v -0.0853468999 0.283497512 -0.0197106116
v -0.080636546 0.290817589 -0.0537378192
v -0.0726439282 0.283497512 -0.0484113768
v -0.0542201214 0.290817589 -0.0803373978
v -0.048845876 0.283497512 -0.0723744407
v -0.0612601973 0.293326586 -0.0907244459
v -0.0295122545 0.286645263 -0.121229976
v -0.0229297802 0.290817589 -0.0941905677
v -0.0206570067 0.283497512 -0.0848544836
v -0.0259510987 0.293326586 -0.106467262
v 0.0144872917 0.273642212 -0.13315849
v 0.0104584051 0.290817589 -0.0961273909
v 0.00942177419 0.283497512 -0.0865993276
v 0.0134607144 0.286645263 -0.123722807
v 0.0117435735 0.293326586 -0.108632788
v 0.0690316856 0.0862485841 -0.148194447
v 0.04124856 0.290817589 -0.088550739
v 0.0371600389 0.283497512 -0.0797736794
v 0.0571387149 0.273642212 -0.122663073
v 0.053089831 0.286645263 -0.113971107
v 0.0465084724 0.293326586 -0.10002134
v 0.115462445 0.0451660194 -0.112994634
v 0.0695269182 0.290817589 -0.0680408999
v 0.0626354739 0.283497512 -0.0612967573
v 0.116357036 0.0862485692 -0.113870122
v 0.0963107273 0.273642212 -0.0942522585
v 0.0894860998 0.286645263 -0.087573491
v 0.0784252882 0.293326586 -0.0768262446
v 0.133551389 0.0157925617 -0.0604670122
v 0.120063081 -0.000170774438 -0.0104234917
v 0.146820724 0.0451660156 -0.0664748773
v 0.146346182 0.0157925356 -0.0127053019
v 0.117116116 -0.000170774438 0.0299688354
v 0.147958294 0.0862485692 -0.0669899136
v 0.12246763 0.273642212 -0.0554487072
v 0.113789506 0.286645263 -0.0515195839
v 0.142754108 0.0157925282 0.0365293436
v 0.100843027 -0.000170774438 0.0670208856
v 0.160886735 0.0451660082 -0.013967678
v 0.162133321 0.0862485617 -0.014075892
v 0.12291868 0.015792558 0.0816924945
v 0.0707545578 -0.000170774438 0.0992347896
v 0.156937778 0.0451660082 0.0401588008
v 0.0862435102 0.0157926101 0.120958373
v 0.0298298299 -0.000170774438 0.117483906
v 0.135131553 0.0451660156 0.0898092613
v 0.0363599136 0.0157925859 0.143202439
v -0.0122368187 -0.000170774438 0.119961925
v 0.134200543 0.273642212 -0.0116508622
v 0.158153743 0.0862485617 0.0404699594
v 0.0948124379 0.0451660156 0.132976502
v -0.0149155874 0.0157925505 0.146222919
v -0.0504117087 -0.000170774438 0.110136889
v 0.130906582 0.273642212 0.0334976763
v 0.136178553 0.0862485617 0.0905051008
v 0.124691017 0.286645263 -0.0108252764
v 0.0399725437 0.0451660156 0.157430679
v -0.0614473894 0.0157925505 0.134247079
v -0.0835234895 -0.000170774438 0.0876046643
v 0.0955470428 0.0862485692 0.134006813
v 0.11271733 0.273642212 0.07491263
v -0.0163975637 0.0451660156 0.160751268
v -0.101807706 0.0157925598 0.106782302
v -0.107060619 -0.000170774438 0.0546962172
v 0.040282242 0.0862485692 0.158650458
v -0.0675526485 0.0451660194 0.147585526
v -0.130497366 0.0157925505 0.0666698292
v -0.119781233 -0.000170774438 0.0159414429
v -0.146002665 0.0157925468 0.0194312036
v -0.111923054 0.0451660194 0.117391907
v -0.143463239 0.0451660156 0.0732939765
v -0.160509109 0.0451660082 0.021361839
v -0.0165246185 0.0862485617 0.161996767
v 0.0790859312 0.273642212 0.110919721
v -0.0680760592 0.0862485617 0.148729026
v -0.144574821 0.0862485841 0.0738618597
v -0.161752731 0.0862485841 0.0215273518
v -0.112790249 0.0862485692 0.118301474
v 0.0333423056 0.273642212 0.13131769
v -0.119667038 0.273642212 0.0611367151
v -0.133885533 0.273642212 0.0178185478
v -0.013677706 0.273642212 0.134087503
v -0.0933584198 0.273642212 0.0979201421
v -0.0563477129 0.273642212 0.123105548
v -0.111187376 0.286645263 0.0568045452
v -0.124398313 0.286645263 0.0165559165
v -0.0867429897 0.286645263 0.0909814835
v -0.0523548871 0.286645263 0.114382237
v -0.0127085019 0.286645263 0.124585986
v 0.0309796538 0.286645263 0.122012451
v -0.0977056846 0.293326586 0.0499069095
v -0.109351985 0.293326586 0.0145226074
v -0.096652247 0.290817589 0.0128632495
v -0.0762292594 0.293326586 0.0799245834
v -0.0460121371 0.293326586 0.100458764
v -0.0111830831 0.293326586 0.109382056
v 0.0734818652 0.286645263 0.103059903
v 0.0271807835 0.293326586 0.107075728
v 0.104730129 0.286645263 0.0696042851
v 0.0644723326 0.293326586 0.0904006436
v 0.0918223336 0.293326586 0.0610271357
v 0.121630475 0.286645263 0.0311240163
v 0.057092309 0.290817589 0.0800731927
v 0.0240698829 0.290817589 0.0947985277
v 0.10661675 0.293326586 0.0272787903
v 0.109291285 0.293326586 -0.00950738508
v -0.00987396296 0.290817589 0.0967980549
v 0.0997338966 0.293326586 -0.0451919399
v 0.0884096399 0.290817589 -0.0400285423
v 0.0796465576 0.283497512 -0.0360609517
v 0.0968796685 0.290817589 -0.00841078255
v 0.0872770399 0.283497512 -0.00757711194
v 0.0945017487 0.290817589 0.0241820458
v 0.0851348191 0.283497512 0.0217851438
v 0.0813708827 0.290817589 0.0540795885
v 0.0733054876 0.283497512 0.048719272
v 0.051433377 0.283497512 0.072136417
v 0.0216841027 0.283497512 0.0854021907
v -0.00889526773 0.283497512 0.0872035325
v -0.0406775363 0.290817589 0.0888701603
v -0.0366456211 0.283497512 0.0800614506
v -0.0673956499 0.290817589 0.0706887692
v -0.0607154593 0.283497512 0.0636821687
v -0.0863879025 0.290817589 0.0441347286
v -0.0778252184 0.283497512 0.0397601388
v -0.0870721713 0.283497512 0.0115882577
v 0.0511193834 -0.000170774438 -0.109741025
v 0.0129611166 -0.000170774438 -0.119130798
v -0.0284169 -0.000170774438 -0.116730489
v -0.0671950653 -0.000170774438 -0.0995622203
v 0.0861647874 -0.000170774438 -0.0843231678
v -0.0999329612 -0.000170774438 -0.0665973276
v 0.109566174 -0.000170774438 -0.049607411
v -0.117407851 -0.000170774438 -0.0271149874
v 0.120063081 -0.000170774438 -0.0104234917
v -0.119781233 -0.000170774438 0.0159414429
v 0.117116116 -0.000170774438 0.0299688354
v -0.107060619 -0.000170774438 0.0546962172
v 0.100843027 -0.000170774438 0.0670208856
v -0.0835234895 -0.000170774438 0.0876046643
v 0.0707545578 -0.000170774438 0.0992347896
v -0.0504117087 -0.000170774438 0.110136889
v 0.0298298299 -0.000170774438 0.117483906
v -0.0122368187 -0.000170774438 0.119961925
v -0.0870721713 0.283497512 0.0115882577
v -0.0870721713 0.0898551568 0.0115882577
v -0.0778252184 0.0898551568 0.0397601388
v -0.0778252184 0.283497512 0.0397601388
v -0.0607154593 0.0898551568 0.0636821687
v -0.0607154593 0.283497512 0.0636821687
v -0.0366456211 0.0898551568 0.0800614506
v -0.0366456211 0.283497512 0.0800614506
v -0.00889526773 0.0898551568 0.0872035325
v -0.00889526773 0.283497512 0.0872035325
v 0.0216841027 0.0898551568 0.0854021907
v 0.0216841027 0.283497512 0.0854021907
v 0.051433377 0.0898551568 0.072136417
v 0.051433377 0.283497512 0.072136417
v 0.0733054876 0.0898551568 0.048719272
v 0.0733054876 0.283497512 0.048719272
v 0.0851348191 0.0898551568 0.0217851438
v 0.0851348191 0.283497512 0.0217851438
v 0.0872770399 0.0898551568 -0.00757711194
v 0.0872770399 0.283497512 -0.00757711194
v 0.0796465576 0.0898551568 -0.0360609517
v 0.0796465576 0.283497512 -0.0360609517
v 0.0626354739 0.0898551568 -0.0612967573
v 0.0626354739 0.283497512 -0.0612967573
v 0.0371600389 0.0898551568 -0.0797736794
v 0.0371600389 0.283497512 -0.0797736794
v 0.00942177419 0.0898551568 -0.0865993276
v 0.00942177419 0.283497512 -0.0865993276
v -0.0206570067 0.0898551568 -0.0848544836
v -0.0206570067 0.283497512 -0.0848544836
v -0.048845876 0.0898551568 -0.0723744407
v -0.048845876 0.283497512 -0.0723744407
v -0.0726439282 0.0898551568 -0.0484113768
v -0.0726439282 0.283497512 -0.0484113768
v -0.0853468999 0.0898551568 -0.0197106116
v -0.0853468999 0.283497512 -0.0197106116
v -0.0870721713 0.0898551568 0.0115882577
v -0.0870721713 0.283497512 0.0115882577
v -0.0206570067 0.0898551568 -0.0848544836
v 0.00942177419 0.0898551568 -0.0865993276
v 0.0371600389 0.0898551568 -0.0797736794
v -0.048845876 0.0898551568 -0.0723744407
v 0.0626354739 0.0898551568 -0.0612967573
v -0.0726439282 0.0898551568 -0.0484113768
v 0.0796465576 0.0898551568 -0.0360609517
v -0.0853468999 0.0898551568 -0.0197106116
v 0.0872770399 0.0898551568 -0.00757711194
v -0.0870721713 0.0898551568 0.0115882577
v 0.0851348191 0.0898551568 0.0217851438
v -0.0778252184 0.0898551568 0.0397601388
v 0.0733054876 0.0898551568 0.048719272
v -0.0607154593 0.0898551568 0.0636821687
v 0.051433377 0.0898551568 0.072136417
v -0.0366456211 0.0898551568 0.0800614506
v 0.0216841027 0.0898551568 0.0854021907
v -0.00889526773 0.0898551568 0.0872035325
vt 0.420410156 0.647949219
vt 0.402099609 0.674804688
vt 0.420410156 0.674804688
vt 0.402099609 0.647949219
vt 0.420410156 0.62109375
vt 0.382568359 0.674804688
vt 0.402099609 0.62109375
vt 0.420410156 0.591796875
vt 0.382568359 0.647949219
vt 0.358398438 0.674804688
vt 0.402099609 0.591796875
vt 0.420410156 0.565429688
vt 0.382568359 0.62109375
vt 0.358398438 0.647949219
vt 0.24621582 0.674804688
vt 0.402099609 0.565429688
vt 0.420410156 0.539550781
vt 0.382568359 0.591796875
vt 0.358398438 0.62109375
vt 0.24621582 0.647949219
vt 0.236694336 0.674804688
vt 0.402099609 0.539550781
vt 0.420410156 0.515136719
vt 0.382568359 0.565429688
vt 0.358398438 0.591796875
vt 0.24621582 0.62109375
vt 0.236694336 0.647949219
vt 0.226806641 0.674804688
vt 0.402099609 0.515136719
vt 0.420410156 0.487792969
vt 0.382568359 0.539550781
vt 0.358398438 0.565429688
vt 0.24621582 0.591796875
vt 0.236694336 0.62109375
vt 0.226806641 0.647949219
vt 0.219116211 0.674804688
vt 0.402099609 0.487792969
vt 0.420410156 0.461669922
vt 0.382568359 0.515136719
vt 0.358398438 0.539550781
vt 0.24621582 0.565429688
vt 0.236694336 0.591796875
vt 0.226806641 0.62109375
vt 0.219116211 0.647949219
vt 0.212036133 0.674804688
vt 0.212036133 0.647949219
vt 0.219116211 0.62109375
vt 0.212036133 0.62109375
vt 0.219116211 0.591796875
vt 0.212036133 0.591796875
vt 0.226806641 0.591796875
vt 0.236694336 0.565429688
vt 0.219116211 0.565429688
vt 0.212036133 0.565429688
vt 0.226806641 0.565429688
vt 0.24621582 0.539550781
vt 0.219116211 0.539550781
vt 0.212036133 0.539550781
vt 0.236694336 0.539550781
vt 0.226806641 0.539550781
vt 0.358398438 0.515136719
vt 0.219116211 0.515136719
vt 0.212036133 0.515136719
vt 0.24621582 0.515136719
vt 0.236694336 0.515136719
vt 0.226806641 0.515136719
vt 0.382568359 0.487792969
vt 0.219116211 0.487792969
vt 0.212036133 0.487792969
vt 0.358398438 0.487792969
vt 0.24621582 0.487792969
vt 0.236694336 0.487792969
vt 0.226806641 0.487792969
vt 0.402099609 0.461669922
vt 0.420410156 0.436279297
vt 0.382568359 0.461669922
vt 0.402099609 0.436279297
vt 0.420410156 0.411132812
vt 0.358398438 0.461669922
vt 0.24621582 0.461669922
vt 0.236694336 0.461669922
vt 0.402099609 0.411132812
vt 0.420410156 0.385742188
vt 0.382568359 0.436279297
vt 0.358398438 0.436279297
vt 0.402099609 0.385742188
vt 0.420410156 0.358154297
vt 0.382568359 0.411132812
vt 0.402099609 0.358154297
vt 0.420410156 0.330078125
vt 0.382568359 0.385742188
vt 0.402099609 0.330078125
vt 0.420410156 0.303710938
vt 0.24621582 0.436279297
vt 0.358398438 0.411132812
vt 0.382568359 0.358154297
vt 0.402099609 0.303710938
vt 0.420410156 0.279052734
vt 0.24621582 0.411132812
vt 0.358398438 0.385742188
vt 0.236694336 0.436279297
vt 0.382568359 0.330078125
vt 0.402099609 0.279052734
vt 0.420410156 0.254150391
vt 0.358398438 0.358154297
vt 0.24621582 0.385742188
vt 0.382568359 0.303710938
vt 0.402099609 0.254150391
vt 0.420410156 0.228881836
vt 0.358398438 0.330078125
vt 0.382568359 0.279052734
vt 0.402099609 0.228881836
vt 0.420410156 0.203369141
vt 0.402099609 0.203369141
vt 0.382568359 0.254150391
vt 0.382568359 0.228881836
vt 0.382568359 0.203369141
vt 0.358398438 0.303710938
vt 0.24621582 0.358154297
vt 0.358398438 0.279052734
vt 0.358398438 0.228881836
vt 0.358398438 0.203369141
vt 0.358398438 0.254150391
vt 0.24621582 0.330078125
vt 0.24621582 0.228881836
vt 0.24621582 0.203369141
vt 0.24621582 0.303710938
vt 0.24621582 0.254150391
vt 0.24621582 0.279052734
vt 0.236694336 0.228881836
vt 0.236694336 0.203369141
vt 0.236694336 0.254150391
vt 0.236694336 0.279052734
vt 0.236694336 0.303710938
vt 0.236694336 0.330078125
vt 0.226806641 0.228881836
vt 0.226806641 0.203369141
vt 0.219116211 0.203369141
vt 0.226806641 0.254150391
vt 0.226806641 0.279052734
vt 0.226806641 0.303710938
vt 0.236694336 0.358154297
vt 0.226806641 0.330078125
vt 0.236694336 0.385742188
vt 0.226806641 0.358154297
vt 0.226806641 0.385742188
vt 0.236694336 0.411132812
vt 0.219116211 0.358154297
vt 0.219116211 0.330078125
vt 0.226806641 0.411132812
vt 0.226806641 0.436279297
vt 0.219116211 0.303710938
vt 0.226806641 0.461669922
vt 0.219116211 0.461669922
vt 0.212036133 0.461669922
vt 0.219116211 0.436279297
vt 0.212036133 0.436279297
vt 0.219116211 0.411132812
vt 0.212036133 0.411132812
vt 0.219116211 0.385742188
vt 0.212036133 0.385742188
vt 0.212036133 0.358154297
vt 0.212036133 0.330078125
vt 0.212036133 0.303710938
vt 0.219116211 0.279052734
vt 0.212036133 0.279052734
vt 0.219116211 0.254150391
vt 0.212036133 0.254150391
vt 0.219116211 0.228881836
vt 0.212036133 0.228881836
vt 0.212036133 0.203369141
vt 0.562988281 0.624023438
vt 0.577148438 0.605957031
vt 0.5859375 0.583007812
vt 0.5859375 0.558105469
vt 0.541015625 0.637207031
vt 0.575683594 0.532226562
vt 0.516601562 0.641601562
vt 0.55859375 0.513671875
vt 0.492919922 0.637695312
vt 0.536132812 0.501953125
vt 0.471923828 0.626464844
vt 0.512207031 0.499511719
vt 0.455810547 0.608886719
vt 0.488769531 0.504394531
vt 0.445556641 0.584960938
vt 0.468505859 0.516601562
vt 0.445556641 0.55859375
vt 0.454101562 0.53515625
vt 0.445556641 0.499511719
vt 0.560058594 0.499511719
vt 0.560058594 0.481933594
vt 0.445556641 0.481933594
vt 0.560058594 0.464599609
vt 0.445556641 0.464599609
vt 0.560058594 0.447509766
vt 0.445556641 0.447509766
vt 0.560058594 0.430419922
vt 0.445556641 0.430419922
vt 0.560058594 0.412353516
vt 0.445556641 0.412353516
vt 0.560058594 0.393066406
vt 0.445556641 0.393066406
vt 0.560058594 0.374267578
vt 0.445556641 0.374267578
vt 0.560058594 0.356933594
vt 0.445556641 0.356933594
vt 0.560058594 0.339355469
vt 0.445556641 0.339355469
vt 0.560058594 0.322021484
vt 0.445556641 0.322021484
vt 0.560058594 0.303955078
vt 0.445556641 0.303955078
vt 0.560058594 0.285400391
vt 0.445556641 0.285400391
vt 0.560058594 0.268554688
vt 0.445556641 0.268554688
vt 0.560058594 0.250732422
vt 0.445556641 0.250732422
vt 0.560058594 0.232543945
vt 0.445556641 0.232543945
vt 0.560058594 0.212646484
vt 0.445556641 0.212646484
vt 0.560058594 0.194091797
vt 0.445556641 0.194091797
vt 0.560058594 0.17565918
vt 0.445556641 0.17565918
vt 0.560058594 0.236328125
vt 0.565917969 0.252929688
vt 0.576171875 0.266357422
vt 0.560058594 0.218017578
vt 0.592285156 0.275634766
vt 0.566894531 0.199462891
vt 0.610351562 0.278808594
vt 0.579589844 0.185791016
vt 0.627441406 0.276123047
vt 0.596191406 0.177368164
vt 0.642578125 0.267822266
vt 0.61328125 0.17565918
vt 0.654296875 0.255126953
vt 0.630371094 0.179077148
vt 0.661621094 0.237670898
vt 0.645019531 0.188232422
vt 0.662109375 0.218383789
vt 0.655761719 0.201538086
vn -0.288574219 -0.955078125 -0.0697021484
vn -0.743164062 -0.662109375 0.0979614258
vn -0.294677734 -0.955078125 0.0387878418
vn -0.729003906 -0.661621094 -0.175292969
vn -0.245849609 -0.954589844 -0.168457031
vn -0.962890625 -0.23815918 0.126953125
vn -0.620117188 -0.66015625 -0.423583984
vn -0.169555664 -0.954589844 -0.245727539
vn -0.944335938 -0.237670898 -0.226806641
vn -0.989746094 0.0585327148 0.130493164
vn -0.426025391 -0.66015625 -0.618652344
vn -0.0698852539 -0.954589844 -0.2890625
vn -0.802246094 -0.236938477 -0.547851562
vn -0.970703125 0.0584106445 -0.233154297
vn -0.920410156 0.372070312 0.121276855
vn -0.176513672 -0.660644531 -0.729492188
vn 0.0264129639 -0.956054688 -0.292236328
vn -0.55078125 -0.236938477 -0.800292969
vn -0.82421875 0.0581970215 -0.562988281
vn -0.902832031 0.371582031 -0.216796875
vn -0.637207031 0.766113281 0.0840454102
vn 0.0685424805 -0.662597656 -0.74609375
vn 0.125244141 -0.954589844 -0.270019531
vn -0.228515625 -0.237182617 -0.944335938
vn -0.565917969 0.0581970215 -0.822265625
vn -0.767089844 0.370605469 -0.523925781
vn -0.625488281 0.765625 -0.150512695
vn -0.143676758 0.989257812 0.0188446045
vn 0.315429688 -0.662109375 -0.6796875
vn 0.213012695 -0.955078125 -0.205566406
vn 0.0891723633 -0.237548828 -0.967285156
vn -0.234741211 0.0582275391 -0.970214844
vn -0.526367188 0.370361328 -0.765136719
vn -0.531738281 0.765136719 -0.363525391
vn -0.139648438 0.989746094 -0.0339050293
vn 0.382568359 0.922363281 -0.0504760742
vn 0.5390625 -0.662109375 -0.520507812
vn 0.268554688 -0.955566406 -0.122375488
vn 0.408691406 -0.23828125 -0.880859375
vn 0.0914916992 0.0581665039 -0.994140625
vn -0.218383789 0.370849609 -0.902832031
vn -0.365234375 0.765136719 -0.530273438
vn -0.117797852 0.989746094 -0.0809936523
vn 0.376953125 0.921875 0.090637207
vn 0.876464844 0.467529297 -0.115478516
vn 0.860351562 0.466064453 0.20703125
vn 0.321044922 0.921386719 0.219482422
vn 0.73046875 0.465576172 0.499511719
vn 0.220336914 0.921386719 0.3203125
vn 0.501953125 0.466064453 0.728515625
vn -0.0811767578 0.989746094 -0.1171875
vn -0.151245117 0.765625 -0.625488281
vn 0.0916137695 0.920898438 0.378417969
vn 0.208129883 0.465332031 0.860351562
vn -0.0334777832 0.989746094 -0.138305664
vn 0.0852050781 0.371582031 -0.924316406
vn -0.0363464355 0.918945312 0.392333984
vn -0.0807495117 0.4609375 0.883789062
vn 0.0586242676 0.767089844 -0.638671875
vn 0.0119628906 0.990722656 -0.136108398
vn 0.420166016 0.0586242676 -0.905761719
vn -0.162597656 0.922363281 0.350097656
vn -0.371582031 0.46875 0.801269531
vn 0.390625 0.372314453 -0.841796875
vn 0.270019531 0.767089844 -0.58203125
vn 0.0596313477 0.989746094 -0.12890625
vn 0.698242188 -0.238037109 -0.674804688
vn -0.280517578 0.920898438 0.270996094
vn -0.63671875 0.465576172 0.614746094
vn 0.717773438 0.0584411621 -0.693847656
vn 0.667480469 0.372070312 -0.645019531
vn 0.4609375 0.768066406 -0.445068359
vn 0.0993041992 0.990234375 -0.095703125
vn 0.681640625 -0.662109375 -0.310546875
vn 0.293457031 -0.955566406 -0.0280456543
vn 0.883789062 -0.237792969 -0.402587891
vn 0.745605469 -0.662597656 -0.0706787109
vn 0.286132812 -0.955566406 0.0708007812
vn 0.908691406 0.0583496094 -0.413818359
vn 0.844726562 0.371826172 -0.384765625
vn 0.582519531 0.768066406 -0.265380859
vn 0.726074219 -0.663574219 0.180297852
vn 0.245605469 -0.955566406 0.161621094
vn 0.966796875 -0.23815918 -0.0914916992
vn 0.993652344 0.0584411621 -0.0940551758
vn 0.624511719 -0.6640625 0.411376953
vn 0.172607422 -0.954589844 0.24206543
vn 0.942382812 -0.238647461 0.234130859
vn 0.434326172 -0.663574219 0.609375
vn 0.0697021484 -0.955566406 0.287109375
vn 0.811035156 -0.239013672 0.534179688
vn 0.177246094 -0.663574219 0.727050781
vn -0.0280914307 -0.956054688 0.291503906
vn 0.923828125 0.372314453 -0.0874023438
vn 0.96875 0.0586242676 0.240600586
vn 0.563964844 -0.239379883 0.790527344
vn -0.0720825195 -0.6640625 0.744140625
vn -0.12121582 -0.955566406 0.268554688
vn 0.900390625 0.373046875 0.223632812
vn 0.833496094 0.0587158203 0.549316406
vn 0.63671875 0.768554688 -0.0604248047
vn 0.230224609 -0.238891602 0.943359375
vn -0.308105469 -0.663574219 0.681640625
vn -0.206542969 -0.955566406 0.2109375
vn 0.579589844 0.0589904785 0.812988281
vn 0.774414062 0.373535156 0.510253906
vn -0.0936889648 -0.238647461 0.966796875
vn -0.522949219 -0.663085938 0.53515625
vn -0.261474609 -0.956054688 0.132324219
vn 0.236572266 0.0587463379 0.969726562
vn -0.400146484 -0.239013672 0.884765625
vn -0.667480469 -0.663085938 0.338134766
vn -0.294677734 -0.955078125 0.0387878418
vn -0.743164062 -0.662109375 0.0979614258
vn -0.678222656 -0.238769531 0.694824219
vn -0.866210938 -0.23815918 0.438964844
vn -0.962890625 -0.23815918 0.126953125
vn -0.0962524414 0.0585327148 0.993652344
vn 0.538574219 0.373779297 0.755371094
vn -0.411376953 0.0587158203 0.909667969
vn -0.890625 0.0583496094 0.451171875
vn -0.989746094 0.0585327148 0.130493164
vn -0.697753906 0.0586547852 0.714355469
vn 0.219848633 0.373291016 0.901367188
vn -0.827636719 0.372314453 0.419433594
vn -0.920410156 0.372070312 0.121276855
vn -0.0894775391 0.373046875 0.923339844
vn -0.6484375 0.373046875 0.663574219
vn -0.382324219 0.373535156 0.845214844
vn -0.572265625 0.767089844 0.289794922
vn -0.637207031 0.766113281 0.0840454102
vn -0.448242188 0.767578125 0.458496094
vn -0.263671875 0.768066406 0.583496094
vn -0.0614929199 0.768554688 0.63671875
vn 0.151489258 0.768066406 0.622070312
vn -0.123657227 0.990234375 0.0625610352
vn -0.143676758 0.989257812 0.0188446045
vn 0.382568359 0.922363281 -0.0504760742
vn -0.0995483398 0.989746094 0.101257324
vn -0.0578308105 0.990234375 0.128295898
vn -0.0130386353 0.990722656 0.136352539
vn 0.371582031 0.768554688 0.520996094
vn 0.0328369141 0.990234375 0.136108398
vn 0.533203125 0.76953125 0.351318359
vn 0.0825805664 0.989746094 0.115722656
vn 0.113769531 0.990722656 0.0747680664
vn 0.620117188 0.769042969 0.153808594
vn -0.22265625 0.923828125 -0.312011719
vn -0.0918579102 0.921875 -0.375976562
vn 0.132202148 0.990722656 0.0325317383
vn 0.135131836 0.990722656 -0.013092041
vn 0.0376281738 0.920410156 -0.389404297
vn 0.123596191 0.990722656 -0.056427002
vn -0.356933594 0.919921875 0.162475586
vn -0.806152344 0.463867188 0.367431641
vn -0.389648438 0.920410156 0.0368347168
vn -0.881835938 0.464355469 0.0838012695
vn -0.378417969 0.920898438 -0.0939941406
vn -0.858886719 0.465576172 -0.213012695
vn -0.325195312 0.920898438 -0.214233398
vn -0.739257812 0.465820312 -0.486816406
vn -0.512207031 0.471191406 -0.718261719
vn -0.209106445 0.467285156 -0.858886719
vn 0.0852661133 0.463134766 -0.882324219
vn 0.159545898 0.921875 -0.353027344
vn 0.364257812 0.466308594 -0.806152344
vn 0.270263672 0.921875 -0.276855469
vn 0.618164062 0.466552734 -0.632324219
vn 0.349365234 0.919921875 -0.177124023
vn 0.791015625 0.461914062 -0.400878906
vn 0.876464844 0.467529297 -0.115478516
vn 0.125244141 -0.954589844 -0.270019531
vn 0.0264129639 -0.956054688 -0.292236328
vn -0.0698852539 -0.954589844 -0.2890625
vn -0.169555664 -0.954589844 -0.245727539
vn 0.213012695 -0.955078125 -0.205566406
vn -0.245849609 -0.954589844 -0.168457031
vn 0.268554688 -0.955566406 -0.122375488
vn -0.288574219 -0.955078125 -0.0697021484
vn 0.293457031 -0.955566406 -0.0280456543
vn -0.294677734 -0.955078125 0.0387878418
vn 0.286132812 -0.955566406 0.0708007812
vn -0.261474609 -0.956054688 0.132324219
vn 0.245605469 -0.955566406 0.161621094
vn -0.206542969 -0.955566406 0.2109375
vn 0.172607422 -0.954589844 0.24206543
vn -0.12121582 -0.955566406 0.268554688
vn 0.0697021484 -0.955566406 0.287109375
vn -0.0280914307 -0.956054688 0.291503906
vn 0.876464844 0.467529297 -0.115478516
vn 0.737792969 0.66796875 -0.0972900391
vn 0.658691406 0.674804688 -0.333740234
vn 0.791015625 0.461914062 -0.400878906
vn 0.519042969 0.669921875 -0.53125
vn 0.618164062 0.466552734 -0.632324219
vn 0.305664062 0.670410156 -0.676269531
vn 0.364257812 0.466308594 -0.806152344
vn 0.0712280273 0.673828125 -0.735351562
vn 0.0852661133 0.463134766 -0.882324219
vn -0.176025391 0.668945312 -0.722167969
vn -0.209106445 0.467285156 -0.858886719
vn -0.43359375 0.665039062 -0.607910156
vn -0.512207031 0.471191406 -0.718261719
vn -0.619140625 0.671386719 -0.407714844
vn -0.739257812 0.465820312 -0.486816406
vn -0.719726562 0.670898438 -0.178710938
vn -0.858886719 0.465576172 -0.213012695
vn -0.737792969 0.671386719 0.0698852539
vn -0.881835938 0.464355469 0.0838012695
vn -0.674316406 0.671875 0.307128906
vn -0.806152344 0.463867188 0.367431641
vn -0.533691406 0.669921875 0.516113281
vn -0.63671875 0.465576172 0.614746094
vn -0.313720703 0.666503906 0.676269531
vn -0.371582031 0.46875 0.801269531
vn -0.067565918 0.674804688 0.734863281
vn -0.0807495117 0.4609375 0.883789062
vn 0.174804688 0.668945312 0.722167969
vn 0.208129883 0.465332031 0.860351562
vn 0.422119141 0.66796875 0.61328125
vn 0.501953125 0.466064453 0.728515625
vn 0.614257812 0.668457031 0.419433594
vn 0.73046875 0.465576172 0.499511719
vn 0.72265625 0.668945312 0.173706055
vn 0.860351562 0.466064453 0.20703125
vn 0.737792969 0.66796875 -0.0972900391
vn 0.876464844 0.467529297 -0.115478516
vn 0.174804688 0.668945312 0.722167969
vn -0.067565918 0.674804688 0.734863281
vn -0.313720703 0.666503906 0.676269531
vn 0.422119141 0.66796875 0.61328125
vn -0.533691406 0.669921875 0.516113281
vn 0.614257812 0.668457031 0.419433594
vn -0.674316406 0.671875 0.307128906
vn 0.72265625 0.668945312 0.173706055
vn -0.737792969 0.671386719 0.0698852539
vn 0.737792969 0.66796875 -0.0972900391
vn -0.719726562 0.670898438 -0.178710938
vn 0.658691406 0.674804688 -0.333740234
vn -0.619140625 0.671386719 -0.407714844
vn 0.519042969 0.669921875 -0.53125
vn -0.43359375 0.665039062 -0.607910156
vn 0.305664062 0.670410156 -0.676269531
vn -0.176025391 0.668945312 -0.722167969
vn 0.0712280273 0.673828125 -0.735351562
g Stand_0
f 3/3/3 2/2/2 1/1/1
f 2/2/2 4/4/4 1/1/1
f 1/1/1 4/4/4 5/5/5
f 2/2/2 6/6/6 4/4/4
f 4/4/4 7/7/7 5/5/5
f 5/5/5 7/7/7 8/8/8
f 6/6/6 9/9/9 4/4/4
f 4/4/4 9/9/9 7/7/7
f 6/6/6 10/10/10 9/9/9
f 7/7/7 11/11/11 8/8/8
f 8/8/8 11/11/11 12/12/12
f 9/9/9 13/13/13 7/7/7
f 7/7/7 13/13/13 11/11/11
f 10/10/10 14/14/14 9/9/9
f 9/9/9 14/14/14 13/13/13
f 10/10/10 15/15/15 14/14/14
f 11/11/11 16/16/16 12/12/12
f 12/12/12 16/16/16 17/17/17
f 13/13/13 18/18/18 11/11/11
f 11/11/11 18/18/18 16/16/16
f 14/14/14 19/19/19 13/13/13
f 13/13/13 19/19/19 18/18/18
f 15/15/15 20/20/20 14/14/14
f 14/14/14 20/20/20 19/19/19
f 15/15/15 21/21/21 20/20/20
f 16/16/16 22/22/22 17/17/17
f 17/17/17 22/22/22 23/23/23
f 18/18/18 24/24/24 16/16/16
f 16/16/16 24/24/24 22/22/22
f 19/19/19 25/25/25 18/18/18
f 18/18/18 25/25/25 24/24/24
f 20/20/20 26/26/26 19/19/19
f 19/19/19 26/26/26 25/25/25
f 21/21/21 27/27/27 20/20/20
f 20/20/20 27/27/27 26/26/26
f 21/21/21 28/28/28 27/27/27
f 22/22/22 29/29/29 23/23/23
f 23/23/23 29/29/29 30/30/30
f 24/24/24 31/31/31 22/22/22
f 22/22/22 31/31/31 29/29/29
f 25/25/25 32/32/32 24/24/24
f 24/24/24 32/32/32 31/31/31
f 26/26/26 33/33/33 25/25/25
f 25/25/25 33/33/33 32/32/32
f 27/27/27 34/34/34 26/26/26
f 26/26/26 34/34/34 33/33/33
f 28/28/28 35/35/35 27/27/27
f 27/27/27 35/35/35 34/34/34
f 28/28/28 36/36/36 35/35/35
f 29/29/29 37/37/37 30/30/30
f 30/30/30 37/37/37 38/38/38
f 31/31/31 39/39/39 29/29/29
f 29/29/29 39/39/39 37/37/37
f 32/32/32 40/40/40 31/31/31
f 31/31/31 40/40/40 39/39/39
f 33/33/33 41/41/41 32/32/32
f 32/32/32 41/41/41 40/40/40
f 34/34/34 42/42/42 33/33/33
f 33/33/33 42/42/42 41/41/41
f 35/35/35 43/43/43 34/34/34
f 34/34/34 43/43/43 42/42/42
f 36/36/36 44/44/44 35/35/35
f 35/35/35 44/44/44 43/43/43
f 36/36/36 45/45/45 44/44/44
f 45/45/45 46/46/46 44/44/44
f 44/44/44 46/46/46 47/47/47
f 44/44/44 47/47/47 43/43/43
f 46/46/46 48/48/48 47/47/47
f 47/47/47 48/48/48 49/49/49
f 47/47/47 49/49/49 43/43/43
f 48/48/48 50/50/50 49/49/49
f 43/43/43 51/51/51 42/42/42
f 49/49/49 51/51/51 43/43/43
f 42/42/42 52/52/52 41/41/41
f 42/42/42 51/51/51 52/52/52
f 49/49/49 50/50/50 53/53/53
f 50/50/50 54/54/54 53/53/53
f 51/51/51 49/49/49 55/55/55
f 51/51/51 55/55/55 52/52/52
f 49/49/49 53/53/53 55/55/55
f 41/41/41 52/52/52 56/56/56
f 41/41/41 56/56/56 40/40/40
f 53/53/53 54/54/54 57/57/57
f 54/54/54 58/58/58 57/57/57
f 52/52/52 55/55/55 59/59/59
f 52/52/52 59/59/59 56/56/56
f 55/55/55 53/53/53 60/60/60
f 53/53/53 57/57/57 60/60/60
f 55/55/55 60/60/60 59/59/59
f 40/40/40 56/56/56 61/61/61
f 40/40/40 61/61/61 39/39/39
f 57/57/57 58/58/58 62/62/62
f 58/58/58 63/63/63 62/62/62
f 56/56/56 59/59/59 64/64/64
f 56/56/56 64/64/64 61/61/61
f 59/59/59 60/60/60 65/65/65
f 59/59/59 65/65/65 64/64/64
f 60/60/60 57/57/57 66/66/66
f 57/57/57 62/62/62 66/66/66
f 60/60/60 66/66/66 65/65/65
f 39/39/39 61/61/61 67/67/67
f 39/39/39 67/67/67 37/37/37
f 62/62/62 63/63/63 68/68/68
f 63/63/63 69/69/69 68/68/68
f 61/61/61 64/64/64 70/70/70
f 61/61/61 70/70/70 67/67/67
f 64/64/64 65/65/65 71/71/71
f 64/64/64 71/71/71 70/70/70
f 65/65/65 66/66/66 72/72/72
f 65/65/65 72/72/72 71/71/71
f 66/66/66 62/62/62 73/73/73
f 62/62/62 68/68/68 73/73/73
f 66/66/66 73/73/73 72/72/72
f 37/37/37 67/67/67 74/74/74
f 37/37/37 74/74/74 38/38/38
f 38/38/38 74/74/74 75/75/75
f 67/67/67 70/70/70 76/76/76
f 67/67/67 76/76/76 74/74/74
f 74/74/74 77/77/77 75/75/75
f 74/74/74 76/76/76 77/77/77
f 75/75/75 77/77/77 78/78/78
f 70/70/70 71/71/71 79/79/79
f 70/70/70 79/79/79 76/76/76
f 71/71/71 72/72/72 80/80/80
f 71/71/71 80/80/80 79/79/79
f 72/72/72 73/73/73 81/81/81
f 72/72/72 81/81/81 80/80/80
f 77/77/77 82/82/82 78/78/78
f 78/78/78 82/82/82 83/83/83
f 76/76/76 84/84/84 77/77/77
f 76/76/76 79/79/79 84/84/84
f 77/77/77 84/84/84 82/82/82
f 79/79/79 80/80/80 85/85/85
f 79/79/79 85/85/85 84/84/84
f 82/82/82 86/86/86 83/83/83
f 83/83/83 86/86/86 87/87/87
f 84/84/84 88/88/88 82/82/82
f 84/84/84 85/85/85 88/88/88
f 82/82/82 88/88/88 86/86/86
f 86/86/86 89/89/89 87/87/87
f 87/87/87 89/89/89 90/90/90
f 88/88/88 91/91/91 86/86/86
f 86/86/86 91/91/91 89/89/89
f 89/89/89 92/92/92 90/90/90
f 90/90/90 92/92/92 93/93/93
f 80/80/80 94/94/94 85/85/85
f 80/80/80 81/81/81 94/94/94
f 85/85/85 95/95/95 88/88/88
f 88/88/88 95/95/95 91/91/91
f 91/91/91 96/96/96 89/89/89
f 89/89/89 96/96/96 92/92/92
f 92/92/92 97/97/97 93/93/93
f 93/93/93 97/97/97 98/98/98
f 94/94/94 99/99/99 85/85/85
f 99/99/99 95/95/95 85/85/85
f 95/95/95 100/100/100 91/91/91
f 91/91/91 100/100/100 96/96/96
f 95/95/95 99/99/99 100/100/100
f 81/81/81 101/101/101 94/94/94
f 99/99/99 94/94/94 101/101/101
f 96/96/96 102/102/102 92/92/92
f 92/92/92 102/102/102 97/97/97
f 97/97/97 103/103/103 98/98/98
f 98/98/98 103/103/103 104/104/104
f 100/100/100 105/105/105 96/96/96
f 96/96/96 105/105/105 102/102/102
f 99/99/99 106/106/106 100/100/100
f 100/100/100 106/106/106 105/105/105
f 102/102/102 107/107/107 97/97/97
f 97/97/97 107/107/107 103/103/103
f 103/103/103 108/108/108 104/104/104
f 104/104/104 108/108/108 109/109/109
f 105/105/105 110/110/110 102/102/102
f 102/102/102 110/110/110 107/107/107
f 107/107/107 111/111/111 103/103/103
f 103/103/103 111/111/111 108/108/108
f 108/108/108 112/112/112 109/109/109
f 109/109/109 112/112/112 113/113/113
f 112/112/112 114/114/114 113/113/113
f 108/108/108 115/115/115 112/112/112
f 111/111/111 115/115/115 108/108/108
f 112/112/112 116/116/116 114/114/114
f 115/115/115 116/116/116 112/112/112
f 116/116/116 117/117/117 114/114/114
f 107/107/107 118/118/118 111/111/111
f 110/110/110 118/118/118 107/107/107
f 105/105/105 119/119/119 110/110/110
f 106/106/106 119/119/119 105/105/105
f 111/111/111 120/120/120 115/115/115
f 118/118/118 120/120/120 111/111/111
f 116/116/116 121/121/121 117/117/117
f 121/121/121 122/122/122 117/117/117
f 115/115/115 123/123/123 116/116/116
f 120/120/120 123/123/123 115/115/115
f 123/123/123 121/121/121 116/116/116
f 110/110/110 124/124/124 118/118/118
f 119/119/119 124/124/124 110/110/110
f 121/121/121 125/125/125 122/122/122
f 125/125/125 126/126/126 122/122/122
f 118/118/118 127/127/127 120/120/120
f 124/124/124 127/127/127 118/118/118
f 123/123/123 128/128/128 121/121/121
f 128/128/128 125/125/125 121/121/121
f 120/120/120 129/129/129 123/123/123
f 127/127/127 129/129/129 120/120/120
f 129/129/129 128/128/128 123/123/123
f 125/125/125 130/130/130 126/126/126
f 130/130/130 131/131/131 126/126/126
f 128/128/128 132/132/132 125/125/125
f 132/132/132 130/130/130 125/125/125
f 129/129/129 133/133/133 128/128/128
f 133/133/133 132/132/132 128/128/128
f 127/127/127 134/134/134 129/129/129
f 134/134/134 133/133/133 129/129/129
f 124/124/124 135/135/135 127/127/127
f 135/135/135 134/134/134 127/127/127
f 130/130/130 136/136/136 131/131/131
f 136/136/136 137/137/137 131/131/131
f 138/138/138 137/137/137 136/136/136
f 132/132/132 139/139/139 130/130/130
f 139/139/139 136/136/136 130/130/130
f 133/133/133 140/140/140 132/132/132
f 140/140/140 139/139/139 132/132/132
f 134/134/134 141/141/141 133/133/133
f 141/141/141 140/140/140 133/133/133
f 142/142/142 135/135/135 124/124/124
f 119/119/119 142/142/142 124/124/124
f 135/135/135 143/143/143 134/134/134
f 143/143/143 141/141/141 134/134/134
f 144/144/144 142/142/142 119/119/119
f 106/106/106 144/144/144 119/119/119
f 142/142/142 145/145/145 135/135/135
f 145/145/145 143/143/143 135/135/135
f 146/146/146 145/145/145 142/142/142
f 144/144/144 146/146/146 142/142/142
f 147/147/147 144/144/144 106/106/106
f 99/99/99 147/147/147 106/106/106
f 147/147/147 99/99/99 101/101/101
f 145/145/145 148/148/148 143/143/143
f 148/148/148 145/145/145 146/146/146
f 143/143/143 149/149/149 141/141/141
f 148/148/148 149/149/149 143/143/143
f 147/147/147 150/150/150 144/144/144
f 150/150/150 146/146/146 144/144/144
f 147/147/147 101/101/101 151/151/151
f 150/150/150 147/147/147 151/151/151
f 149/149/149 152/152/152 141/141/141
f 141/141/141 152/152/152 140/140/140
f 153/153/153 151/151/151 101/101/101
f 81/81/81 153/153/153 101/101/101
f 73/73/73 153/153/153 81/81/81
f 73/73/73 68/68/68 153/153/153
f 68/68/68 154/154/154 153/153/153
f 153/153/153 154/154/154 151/151/151
f 68/68/68 69/69/69 154/154/154
f 69/69/69 155/155/155 154/154/154
f 154/154/154 156/156/156 151/151/151
f 154/154/154 155/155/155 156/156/156
f 150/150/150 151/151/151 156/156/156
f 155/155/155 157/157/157 156/156/156
f 158/158/158 150/150/150 156/156/156
f 158/158/158 156/156/156 157/157/157
f 150/150/150 158/158/158 146/146/146
f 159/159/159 158/158/158 157/157/157
f 158/158/158 160/160/160 146/146/146
f 158/158/158 159/159/159 160/160/160
f 159/159/159 161/161/161 160/160/160
f 160/160/160 148/148/148 146/146/146
f 160/160/160 161/161/161 148/148/148
f 161/161/161 162/162/162 148/148/148
f 148/148/148 162/162/162 149/149/149
f 162/162/162 163/163/163 149/149/149
f 149/149/149 163/163/163 152/152/152
f 163/163/163 164/164/164 152/152/152
f 152/152/152 164/164/164 165/165/165
f 152/152/152 165/165/165 140/140/140
f 164/164/164 166/166/166 165/165/165
f 140/140/140 165/165/165 139/139/139
f 165/165/165 166/166/166 167/167/167
f 165/165/165 167/167/167 139/139/139
f 166/166/166 168/168/168 167/167/167
f 139/139/139 167/167/167 136/136/136
f 167/167/167 168/168/168 169/169/169
f 167/167/167 169/169/169 136/136/136
f 168/168/168 170/170/170 169/169/169
f 169/169/169 138/138/138 136/136/136
f 169/169/169 170/170/170 138/138/138
f 170/170/170 171/171/171 138/138/138
f 174/174/174 173/173/173 172/172/172
f 172/172/172 175/175/175 174/174/174
f 172/172/172 176/176/176 175/175/175
f 176/176/176 177/177/177 175/175/175
f 176/176/176 178/178/178 177/177/177
f 178/178/178 179/179/179 177/177/177
f 178/178/178 180/180/180 179/179/179
f 180/180/180 181/181/181 179/179/179
f 180/180/180 182/182/182 181/181/181
f 182/182/182 183/183/183 181/181/181
f 182/182/182 184/184/184 183/183/183
f 184/184/184 185/185/185 183/183/183
f 184/184/184 186/186/186 185/185/185
f 186/186/186 187/187/187 185/185/185
f 186/186/186 188/188/188 187/187/187
f 188/188/188 189/189/189 187/187/187
f 192/192/192 191/191/191 190/190/190
f 193/193/193 192/192/192 190/190/190
f 194/194/194 192/192/192 193/193/193
f 195/195/195 194/194/194 193/193/193
f 196/196/196 194/194/194 195/195/195
f 197/197/197 196/196/196 195/195/195
f 198/198/198 196/196/196 197/197/197
f 199/199/199 198/198/198 197/197/197
f 200/200/200 198/198/198 199/199/199
f 201/201/201 200/200/200 199/199/199
f 202/202/202 200/200/200 201/201/201
f 203/203/203 202/202/202 201/201/201
f 204/204/204 202/202/202 203/203/203
f 205/205/205 204/204/204 203/203/203
f 206/206/206 204/204/204 205/205/205
f 207/207/207 206/206/206 205/205/205
f 208/208/208 206/206/206 207/207/207
f 209/209/209 208/208/208 207/207/207
f 210/210/210 208/208/208 209/209/209
f 211/211/211 210/210/210 209/209/209
f 212/212/212 210/210/210 211/211/211
f 213/213/213 212/212/212 211/211/211
f 214/214/214 212/212/212 213/213/213
f 215/215/215 214/214/214 213/213/213
f 216/216/216 214/214/214 215/215/215
f 217/217/217 216/216/216 215/215/215
f 218/218/218 216/216/216 217/217/217
f 219/219/219 218/218/218 217/217/217
f 220/220/220 218/218/218 219/219/219
f 221/221/221 220/220/220 219/219/219
f 222/222/222 220/220/220 221/221/221
f 223/223/223 222/222/222 221/221/221
f 224/224/224 222/222/222 223/223/223
f 225/225/225 224/224/224 223/223/223
f 226/226/226 224/224/224 225/225/225
f 227/227/227 226/226/226 225/225/225
f 230/230/230 229/229/229 228/228/228
f 228/228/228 231/231/231 230/230/230
f 231/231/231 232/232/232 230/230/230
f 231/231/231 233/233/233 232/232/232
f 233/233/233 234/234/234 232/232/232
f 233/233/233 235/235/235 234/234/234
f 235/235/235 236/236/236 234/234/234
f 235/235/235 237/237/237 236/236/236
f 237/237/237 238/238/238 236/236/236
f 237/237/237 239/239/239 238/238/238
f 239/239/239 240/240/240 238/238/238
f 239/239/239 241/241/241 240/240/240
f 241/241/241 242/242/242 240/240/240
f 241/241/241 243/243/243 242/242/242
f 243/243/243 244/244/244 242/242/242
f 243/243/243 245/245/245 244/244/244
