g TableLegs_2
v 0.109578967 0.00539088249 -0.264548063
v -1.1920929E-07 0.00539088249 -0.286344647
v -0.109579444 0.00539088249 -0.264547944
v 0.202476129 0.00539088249 -0.202476382
v -0.202476606 0.00539088249 -0.202476129
v 0.264548182 0.00539088249 -0.109579444
v -0.264548421 0.00539088249 -0.109579138
v 0.286344886 0.00539088249 0
v -0.286345005 0.00539088249 3.57627869E-07
v 0.264548182 0.00539088249 0.109579563
v -0.264548421 0.00539088249 0.109579802
v 0.202476606 0.00539088249 0.202476725
v -0.202476606 0.00539088249 0.202476859
v 0.109579444 0.00539088249 0.26454851
v -0.109579444 0.00539088249 0.264548659
v 1.1920929E-07 0.00539088249 0.286345243
v -0.178061113 1.51030219 -0.178061247
v -0.141244993 1.26309669 -0.340995431
v -0.0963660404 1.51030219 -0.232648119
v -0.260986447 1.26309669 -0.260986626
v -0.142274484 1.24046671 -0.343481064
v -0.262889028 1.24046671 -0.262889028
v -0.154795274 0.990209937 -0.373708844
v -0.340995312 1.26309669 -0.141244948
v -0.232648 1.51030219 -0.0963661671
v -0.178061113 1.51030219 -0.178061247
v -0.286024302 0.990209937 -0.286024392
v -0.343481064 1.24046671 -0.142274559
v -0.369090676 1.26309669 -1.1920929E-07
v -0.251816392 1.51030219 -1.1920929E-07
v -0.232648 1.51030219 -0.0963661671
v -0.37178123 1.24046671 -1.1920929E-07
v -0.373708844 0.990209937 -0.154795274
v -0.404499501 0.990209937 -1.1920929E-07
v -0.369351983 0.974200547 -0.152990639
v -0.399783731 0.974200547 -1.1920929E-07
v -0.40067789 0.961172283 -1.1920929E-07
v -0.28268981 0.974200547 -0.28268981
v -0.370178103 0.961172283 -0.153332815
v -0.410499096 0.944320261 -1.1920929E-07
v -0.379251689 0.944320261 -0.157091245
v -0.384965658 0.897014737 -0.159458041
v -0.416683793 0.897014737 -1.1920929E-07
v -0.283322096 0.961172283 -0.283322096
v -0.379251689 0.944320261 -0.157091245
v -0.290266752 0.944320261 -0.290266752
v -0.294639945 0.897014737 -0.294639945
v -0.153040037 0.974356651 -0.36947155
v -0.283322096 0.961172283 -0.283322096
v -0.379915118 0.881989181 -0.157366037
v -0.411217064 0.881989181 -1.1920929E-07
v -0.411828369 0.870505333 -1.1920929E-07
v -0.380479932 0.870505333 -0.157599926
v -0.42220974 0.854748368 -1.1920929E-07
v -0.390070796 0.854748368 -0.16157268
v -0.504823685 0.299109399 0
v -0.379915118 0.881989181 -0.157366037
v -0.290774465 0.881989181 -0.290774465
v -0.291206717 0.870505333 -0.291206717
v -0.380479932 0.870505333 -0.157599926
v -0.298547387 0.854748368 -0.298547387
v -0.466396272 0.299109399 -0.193187654
v -0.408749908 0.0926916599 1.1920929E-07
v -0.35696429 0.299109399 -0.35696429
v -0.377635598 0.0926916599 -0.156421661
v -0.323904991 0.0303527713 -0.13416554
v -0.350592256 0.0303527713 3.17891448E-07
v -0.264548421 0.00539088249 -0.109579138
v -0.286345005 0.00539088249 3.57627869E-07
v -0.202476606 0.00539088249 -0.202476129
v -0.247906178 0.0303527713 -0.247905821
v -0.109579444 0.00539088249 -0.264547944
v -0.289029717 0.0926916599 -0.289029717
v -0.134165809 0.0303527713 -0.323904634
v -1.1920929E-07 0.00539088249 -0.286344647
v -1.1920929E-07 0.0303527713 -0.350591838
v -0.156421766 0.0926916599 -0.377635479
v -1.1920929E-07 0.0926916599 -0.40874964
v -1.21611123E-07 0.299109399 -0.504823685
v -0.193187654 0.299109399 -0.466396242
v -1.1920929E-07 0.854748368 -0.42220974
v -0.161572561 0.854748368 -0.390070826
v -1.1920929E-07 0.870505333 -0.411828518
v -0.15760003 0.870505333 -0.380479872
v -0.291206717 0.870505333 -0.291206717
v -1.1920929E-07 0.881989181 -0.411217183
v -0.290774465 0.881989181 -0.290774465
v -0.157365903 0.881989181 -0.379915118
v -0.159458041 0.897014737 -0.384965658
v -1.1920929E-07 0.897014737 -0.416683912
v -1.1920929E-07 0.944320261 -0.410499215
v -0.157091245 0.944320261 -0.379251689
v -0.157091245 0.944320261 -0.379251689
v -0.290266752 0.944320261 -0.290266752
v -1.1920929E-07 0.961172283 -0.400677979
v -0.153332815 0.961172283 -0.370178103
v -1.1920929E-07 0.974200547 -0.39978385
v -1.1920929E-07 0.990209937 -0.40449965
v -1.1920929E-07 1.24046671 -0.37178126
v -0.142274484 1.24046671 -0.343481064
v -0.141244993 1.26309669 -0.340995431
v -1.1920929E-07 1.26309669 -0.369090796
v -0.0963660404 1.51030219 -0.232648119
v -1.1920929E-07 1.51030219 -0.251816511
v 0.109578967 0.00539088249 -0.264548063
v -1.1920929E-07 0.0303527713 -0.350591838
v -1.1920929E-07 0.00539088249 -0.286344647
v 0.134165332 0.0303527713 -0.323904872
v 0.202476129 0.00539088249 -0.202476382
v -1.1920929E-07 0.0926916599 -0.40874964
v 0.247905836 0.0303527713 -0.247906134
v 0.264548182 0.00539088249 -0.109579444
v 0.156421289 0.0926916599 -0.377635717
v 0.323904753 0.0303527713 -0.134165898
v 0.286344886 0.00539088249 0
v 0.350592107 0.0303527713 -3.9736431E-08
v 0.289029479 0.0926916599 -0.289029956
v 0.37763533 0.0926916599 -0.156422019
v 0.408749908 0.0926916599 -2.38418579E-07
v 0.504823685 0.299109399 -4.86444492E-07
v 0.466396004 0.299109399 -0.193188205
v 0.42220962 0.854748368 -4.76837158E-07
v 0.193186924 0.299109399 -0.466396511
v -1.21611123E-07 0.299109399 -0.504823685
v -1.1920929E-07 0.854748368 -0.42220974
v 0.356963754 0.299109399 -0.356964648
v 0.161572084 0.854748368 -0.390071124
v 0.15759933 0.870505333 -0.380480111
v -1.1920929E-07 0.870505333 -0.411828518
v -1.1920929E-07 0.881989181 -0.411217183
v 0.157365426 0.881989181 -0.379915357
v 0.29854691 0.854748368 -0.298547685
v 0.161572084 0.854748368 -0.390071124
v 0.291206241 0.870505333 -0.291207016
v 0.29854691 0.854748368 -0.298547685
v 0.15759933 0.870505333 -0.380480111
v 0.159457311 0.897014737 -0.384965897
v -1.1920929E-07 0.897014737 -0.416683912
v -1.1920929E-07 0.944320261 -0.410499215
v 0.290773988 0.881989181 -0.290774763
v 0.294639468 0.897014737 -0.294640303
v 0.390070558 0.854748368 -0.161573097
v 0.411828369 0.870505333 -4.76837158E-07
v 0.380479693 0.870505333 -0.157600403
v 0.380479693 0.870505333 -0.157600403
v 0.411217064 0.881989181 -4.76837158E-07
v 0.290773988 0.881989181 -0.290774763
v 0.37991488 0.881989181 -0.157366455
v 0.384965539 0.897014737 -0.159458458
v 0.416683793 0.897014737 -4.76837158E-07
v 0.379251599 0.944320261 -0.157091677
v 0.410498947 0.944320261 -4.76837158E-07
v 0.4006778 0.961172283 -4.76837158E-07
v 0.370177865 0.961172283 -0.153333247
v 0.399913162 0.974356651 -4.76837158E-07
v 0.290266395 0.944320261 -0.29026711
v 0.283321738 0.961172283 -0.283322453
v 0.369351715 0.974200547 -0.152991056
v 0.282689452 0.974200547 -0.282690167
v 0.373708606 0.990209937 -0.154795751
v 0.404499382 0.990209937 -4.76837158E-07
v 0.286023974 0.990209937 -0.28602469
v 0.343480945 1.24046671 -0.142274961
v 0.37178123 1.24046671 -3.57627869E-07
v 0.262888789 1.24046671 -0.262889385
v 0.340995163 1.26309669 -0.141245365
v 0.369090676 1.26309669 -4.76837158E-07
v 0.232647777 1.51030219 -0.0963663459
v 0.251816392 1.51030219 -3.57627869E-07
v 0.260986209 1.26309669 -0.260986924
v 0.178060889 1.51030219 -0.178061485
v 0.232647777 1.51030219 -0.0963663459
v 0.142274007 1.24046671 -0.343481272
v 0.141244292 1.26309669 -0.34099558
v 0.260986209 1.26309669 -0.260986924
v 0.0963655636 1.51030219 -0.232648253
v 0.178060889 1.51030219 -0.178061485
v 0.154794797 0.990209937 -0.373709053
v -1.1920929E-07 0.990209937 -0.40449965
v -1.1920929E-07 1.24046671 -0.37178126
v 0.141244292 1.26309669 -0.34099558
v -1.1920929E-07 1.26309669 -0.369090796
v -1.1920929E-07 1.51030219 -0.251816511
v 0.0963655636 1.51030219 -0.232648253
v -1.1920929E-07 0.974200547 -0.39978385
v 0.152989969 0.974200547 -0.369352251
v 0.153332338 0.961172283 -0.370178342
v -1.1920929E-07 0.961172283 -0.400677979
v 0.283321738 0.961172283 -0.283322453
v 0.157090545 0.944320261 -0.379251927
v 0.290266395 0.944320261 -0.29026711
v 0.251816392 1.51030219 -3.57627869E-07
v 0.340995431 1.26309669 0.141244516
v 0.232648 1.51030219 0.0963655636
v 0.369090676 1.26309669 -4.76837158E-07
v 0.343481183 1.24046671 0.142274141
v 0.37178123 1.24046671 -3.57627869E-07
v 0.373708844 0.990209937 0.154794931
v 0.404499382 0.990209937 -4.76837158E-07
v 0.369352221 0.974200547 0.152990341
v 0.399913162 0.974356651 -4.76837158E-07
v 0.4006778 0.961172283 -4.76837158E-07
v 0.370178103 0.961172283 0.153332472
v 0.410498947 0.944320261 -4.76837158E-07
v 0.282781482 0.974356651 0.282781005
v 0.379251808 0.944320261 0.157090902
v 0.416683793 0.897014737 -4.76837158E-07
v 0.286024451 0.990209937 0.286024094
v 0.343481183 1.24046671 0.142274141
v 0.283322215 0.961172283 0.283321857
v 0.384965777 0.897014737 0.159457684
v 0.411217064 0.881989181 -4.76837158E-07
v 0.262889266 1.24046671 0.262888789
v 0.340995431 1.26309669 0.141244516
v 0.260986686 1.26309669 0.260986328
v 0.232648 1.51030219 0.0963655636
v 0.178061113 1.51030219 0.178060755
v 0.152990699 0.974200547 0.369351864
v 0.290266871 0.944320261 0.290266514
v 0.294640183 0.897014737 0.294639707
v 0.379915118 0.881989181 0.15736568
v 0.380479932 0.870505333 0.157599553
v 0.411828369 0.870505333 -4.76837158E-07
v 0.379915118 0.881989181 0.15736568
v 0.42220962 0.854748368 -4.76837158E-07
v 0.154795527 0.990209937 0.373708725
v 0.262889266 1.24046671 0.262888789
v 0.153333068 0.961172283 0.370177984
v 0.290266871 0.944320261 0.290266514
v 0.142274737 1.24046671 0.343480945
v 0.260986686 1.26309669 0.260986328
v 0.141244993 1.26309669 0.340995163
v 0.178061113 1.51030219 0.178060755
v 0.0963660404 1.51030219 0.232647777
v 1.1920929E-07 0.974200547 0.399783731
v 0.157091498 0.944320261 0.379251599
v 0.159458041 0.897014737 0.384965539
v 1.1920929E-07 0.990209937 0.404499501
v 0.142274737 1.24046671 0.343480945
v 1.1920929E-07 0.961172283 0.4006778
v 0.157091498 0.944320261 0.379251599
v 1.1920929E-07 0.944320261 0.410499096
v 1.1920929E-07 0.897014737 0.416683793
v 0.157366157 0.881989181 0.379914999
v 0.157366157 0.881989181 0.379914999
v -0.152990445 0.974200547 0.369351983
v 1.1920929E-07 1.24046671 0.371781111
v 0.141244993 1.26309669 0.340995163
v 0.290774703 0.881989181 0.290774226
v 0.291206717 0.870505333 0.291206479
v 0.15760003 0.870505333 0.380479693
v 0.298547626 0.854748368 0.298547149
v 0.161572814 0.854748368 0.390070796
v 0.356964529 0.299109399 0.356964022
v 0.193187907 0.299109399 0.466396183
v 0.390071034 0.854748368 0.161572337
v 0.298547626 0.854748368 0.298547149
v 0.466396272 0.299109399 0.193187296
v 0.504823685 0.299109399 -4.86444492E-07
v 0.408749908 0.0926916599 -2.38418579E-07
v 0.377635598 0.0926916599 0.156421661
v 0.289029956 0.0926916599 0.289029717
v 0.323904991 0.0303527713 0.134165868
v 0.350592107 0.0303527713 -3.9736431E-08
v 0.264548182 0.00539088249 0.109579563
v 0.286344886 0.00539088249 0
v 0.202476606 0.00539088249 0.202476725
v 0.247906312 0.0303527713 0.247906283
v 0.109579444 0.00539088249 0.26454851
v 0.134166047 0.0303527713 0.3239052
v 1.1920929E-07 0.00539088249 0.286345243
v 0.156422019 0.0926916599 0.377635837
v 1.1920929E-07 0.0303527713 0.350592524
v -0.109579444 0.00539088249 0.264548659
v 1.21611123E-07 0.299109399 0.504823685
v 0.161572814 0.854748368 0.390070796
v -0.134165809 0.0303527713 0.323905319
v -0.202476606 0.00539088249 0.202476859
v 1.1920929E-07 0.0926916599 0.408750057
v 1.1920929E-07 0.854748368 0.42220962
v 0.15760003 0.870505333 0.380479693
v 1.1920929E-07 0.870505333 0.411828369
v 1.1920929E-07 0.881989181 0.411217064
v -0.247906178 0.0303527713 0.247906432
v -0.264548421 0.00539088249 0.109579802
v -0.193187654 0.299109399 0.466396272
v 1.1920929E-07 0.854748368 0.42220962
v -0.156421766 0.0926916599 0.377635837
v -0.323904991 0.0303527713 0.134166017
v -0.286345005 0.00539088249 3.57627869E-07
v -0.350592256 0.0303527713 3.17891448E-07
v -0.161572561 0.854748368 0.390070796
v -0.157599807 0.870505333 0.380479932
v 1.1920929E-07 0.870505333 0.411828369
v 1.1920929E-07 0.881989181 0.411217064
v -0.157365903 0.881989181 0.379915118
v -0.159458041 0.897014737 0.384965658
v -0.289029717 0.0926916599 0.289029956
v -0.377635598 0.0926916599 0.1564219
v -0.408749908 0.0926916599 1.1920929E-07
v -0.504823685 0.299109399 0
v -0.35696429 0.299109399 0.35696429
v -0.466396272 0.299109399 0.193187654
v -0.298547387 0.854748368 0.298547268
v -0.161572561 0.854748368 0.390070796
v -0.390070915 0.854748368 0.161572561
v -0.42220974 0.854748368 -1.1920929E-07
v -0.411828369 0.870505333 -1.1920929E-07
v -0.380479932 0.870505333 0.157599807
v -0.379915118 0.881989181 0.157365903
v -0.411217064 0.881989181 -1.1920929E-07
v -0.416683793 0.897014737 -1.1920929E-07
v -0.384965777 0.897014737 0.159457922
v -0.390070915 0.854748368 0.161572561
v -0.410499096 0.944320261 -1.1920929E-07
v -0.291206717 0.870505333 0.291206568
v -0.291206717 0.870505333 0.291206568
v -0.157599807 0.870505333 0.380479932
v -0.380479932 0.870505333 0.157599807
v -0.290774465 0.881989181 0.290774345
v -0.157365903 0.881989181 0.379915118
v -0.290774465 0.881989181 0.290774345
v -0.379915118 0.881989181 0.157365903
v -0.294639945 0.897014737 0.294639945
v -0.379251808 0.944320261 0.157091141
v -0.40067789 0.961172283 -1.1920929E-07
v -0.370178103 0.961172283 0.15333271
v -0.379251808 0.944320261 0.157091141
v -0.399783731 0.974200547 -1.1920929E-07
v -0.157091245 0.944320261 0.379251689
v 1.1920929E-07 0.944320261 0.410499096
v -0.290266752 0.944320261 0.290266633
v -0.153332815 0.961172283 0.370178103
v -0.283322096 0.961172283 0.283321977
v -0.369352102 0.974200547 0.15299058
v -0.282781243 0.974356651 0.282781243
v -0.373708844 0.990209937 0.15479517
v -0.404499501 0.990209937 -1.1920929E-07
v -0.154795274 0.990209937 0.373708844
v -0.286024302 0.990209937 0.286024302
v -0.142274484 1.24046671 0.343481064
v -0.142274484 1.24046671 0.343481064
v 1.1920929E-07 1.26309669 0.369090676
v -0.141244769 1.26309669 0.340995431
v 1.1920929E-07 1.51030219 0.251816273
v -0.0963660404 1.51030219 0.232647777
v -0.262889028 1.24046671 0.262888908
v -0.141244769 1.26309669 0.340995431
v -0.260986447 1.26309669 0.260986447
v -0.0963660404 1.51030219 0.232647777
v -0.178061113 1.51030219 0.178060889
v -0.343481064 1.24046671 0.14227438
v -0.260986447 1.26309669 0.260986447
v -0.37178123 1.24046671 -1.1920929E-07
v -0.340995431 1.26309669 0.141244769
v -0.178061113 1.51030219 0.178060889
v -0.232648 1.51030219 0.0963658094
v -0.369090676 1.26309669 -1.1920929E-07
v -0.232648 1.51030219 0.0963658094
v -0.251816392 1.51030219 -1.1920929E-07
v 0.0963660404 1.51030219 0.232647777
v 1.1920929E-07 1.26309669 0.369090676
v 1.1920929E-07 1.51030219 0.251816273
v -0.0963660404 1.51030219 -0.232648119
v -1.1920929E-07 1.51030219 -0.251816511
v 0.0963655636 1.51030219 -0.232648253
v 0.178060889 1.51030219 -0.178061485
v -0.178061113 1.51030219 -0.178061247
v 0.232647777 1.51030219 -0.0963663459
v -0.232648 1.51030219 -0.0963661671
v 0.251816392 1.51030219 -3.57627869E-07
v -0.251816392 1.51030219 -1.1920929E-07
v 0.232648 1.51030219 0.0963655636
v -0.232648 1.51030219 0.0963658094
v 0.178061113 1.51030219 0.178060755
v -0.178061113 1.51030219 0.178060889
v 0.0963660404 1.51030219 0.232647777
v -0.0963660404 1.51030219 0.232647777
v 1.1920929E-07 1.51030219 0.251816273
vt 0.883789062 -1.01855469
vt 1.11816406 -0.972167969
vt 1.35253906 -1.01855469
vt 0.685058594 -1.15136719
vt 1.55078125 -1.15136719
vt 0.552246094 -1.34960938
vt 1.68359375 -1.34960938
vt 0.505859375 -1.58398438
vt 1.72949219 -1.58398438
vt 0.552246094 -1.81835938
vt 1.68359375 -1.81835938
vt 0.685058594 -2.01757812
vt 1.55078125 -2.01757812
vt 0.883789062 -2.15039062
vt 1.35253906 -2.15039062
vt 1.11816406 -2.19726562
vt 1.43847656 0.328613281
vt 1.59570312 0.187988281
vt 1.59472656 0.328613281
vt 1.43652344 0.187988281
vt 1.59570312 0.170410156
vt 1.43652344 0.170410156
vt 1.59570312 0.0874633789
vt 1.27734375 0.187988281
vt 1.27832031 0.328613281
vt 1.43554688 0.328613281
vt 1.43652344 0.0874633789
vt 1.27734375 0.170410156
vt 1.11816406 0.187988281
vt 1.11914062 0.328613281
vt 1.27539062 0.328613281
vt 1.11816406 0.170410156
vt 1.27734375 0.0874633789
vt 1.11816406 0.0874633789
vt 1.27734375 0.0822143555
vt 1.11816406 0.0822143555
vt 1.11816406 0.0778198242
vt 1.43652344 0.0822143555
vt 1.27734375 0.0778198242
vt 1.11816406 0.072265625
vt 1.27734375 0.072265625
vt 1.27734375 0.0565795898
vt 1.11816406 0.0565795898
vt 1.43652344 0.0778198242
vt 1.27734375 0.072265625
vt 1.43652344 0.072265625
vt 1.43652344 0.0565795898
vt 1.59570312 0.0822143555
vt 1.43652344 0.0778198242
vt 1.27734375 0.051574707
vt 1.11816406 0.051574707
vt 1.11816406 0.0477905273
vt 1.27734375 0.0477905273
vt 1.11816406 0.0425720215
vt 1.27734375 0.0425415039
vt 1.11816406 -0.141723633
vt 1.27734375 0.051574707
vt 1.43652344 0.051574707
vt 1.43652344 0.0477905273
vt 1.27734375 0.0477905273
vt 1.43652344 0.0425720215
vt 1.27734375 -0.141723633
vt 1.11816406 -0.496826172
vt 1.43652344 -0.141723633
vt 1.27734375 -0.496826172
vt 1.27734375 -0.754882812
vt 1.11816406 -0.754882812
vt 1.27734375 -0.946777344
vt 1.11816406 -0.946777344
vt 1.43652344 -0.946777344
vt 1.43652344 -0.754882812
vt 1.59570312 -0.946777344
vt 1.43652344 -0.496826172
vt 1.59570312 -0.754882812
vt 1.75585938 -0.946777344
vt 1.75585938 -0.754882812
vt 1.59570312 -0.496826172
vt 1.75585938 -0.496826172
vt 1.75585938 -0.141723633
vt 1.59570312 -0.141723633
vt 1.75585938 0.0425415039
vt 1.59570312 0.0425415039
vt 1.75585938 0.0477905273
vt 1.59570312 0.0477905273
vt 1.43652344 0.0477905273
vt 1.75585938 0.051574707
vt 1.43652344 0.051574707
vt 1.59570312 0.051574707
vt 1.59570312 0.0565795898
vt 1.75585938 0.0565795898
vt 1.75585938 0.072265625
vt 1.59570312 0.072265625
vt 1.59570312 0.072265625
vt 1.43652344 0.072265625
vt 1.75585938 0.0778198242
vt 1.59570312 0.0778198242
vt 1.75585938 0.0822143555
vt 1.75585938 0.0874633789
vt 1.75585938 0.170410156
vt 1.59570312 0.170410156
vt 1.59570312 0.187988281
vt 1.75585938 0.187988281
vt 1.59765625 0.328613281
vt 1.75390625 0.328613281
vt -0.635742188 -0.946777344
vt -0.795410156 -0.754882812
vt -0.795410156 -0.946777344
vt -0.635742188 -0.754882812
vt -0.476318359 -0.946777344
vt -0.795410156 -0.496826172
vt -0.476318359 -0.754882812
vt -0.316894531 -0.946777344
vt -0.635742188 -0.496826172
vt -0.316894531 -0.754882812
vt -0.157470703 -0.946777344
vt -0.157470703 -0.754882812
vt -0.476318359 -0.496826172
vt -0.316894531 -0.496826172
vt -0.157470703 -0.496826172
vt -0.157470703 -0.141723633
vt -0.316894531 -0.141723633
vt -0.157470703 0.0425415039
vt -0.635742188 -0.141723633
vt -0.795410156 -0.141723633
vt -0.795410156 0.0425720215
vt -0.476318359 -0.141723633
vt -0.635742188 0.0425720215
vt -0.635742188 0.0477905273
vt -0.795410156 0.0477905273
vt -0.795410156 0.051574707
vt -0.635742188 0.051574707
vt -0.476318359 0.0425720215
vt -0.635742188 0.0425720215
vt -0.476318359 0.0477905273
vt -0.476318359 0.0425415039
vt -0.635742188 0.0477905273
vt -0.635742188 0.0565795898
vt -0.795410156 0.0565795898
vt -0.795410156 0.072265625
vt -0.476318359 0.051574707
vt -0.476318359 0.0565795898
vt -0.316894531 0.0425415039
vt -0.157470703 0.0477905273
vt -0.316894531 0.0477905273
vt -0.316894531 0.0477905273
vt -0.157470703 0.051574707
vt -0.476318359 0.051574707
vt -0.316894531 0.051574707
vt -0.316894531 0.0565795898
vt -0.157470703 0.0565795898
vt -0.316894531 0.072265625
vt -0.157470703 0.072265625
vt -0.157470703 0.0778198242
vt -0.316894531 0.0778198242
vt -0.157470703 0.0822143555
vt -0.476318359 0.072265625
vt -0.476318359 0.0778198242
vt -0.316894531 0.0822143555
vt -0.476318359 0.0822143555
vt -0.316894531 0.0874633789
vt -0.157470703 0.0874633789
vt -0.476318359 0.0874633789
vt -0.316894531 0.170410156
vt -0.157470703 0.170410156
vt -0.476318359 0.170410156
vt -0.316894531 0.187988281
vt -0.157470703 0.187988281
vt -0.315429688 0.328613281
vt -0.158935547 0.328613281
vt -0.476318359 0.187988281
vt -0.474853516 0.328613281
vt -0.318359375 0.328613281
vt -0.635742188 0.170410156
vt -0.635742188 0.187988281
vt -0.476318359 0.187988281
vt -0.634277344 0.328613281
vt -0.477783203 0.328613281
vt -0.635742188 0.0874633789
vt -0.795410156 0.0874633789
vt -0.795410156 0.170410156
vt -0.635742188 0.187988281
vt -0.795410156 0.187988281
vt -0.793945312 0.328613281
vt -0.637207031 0.328613281
vt -0.795410156 0.0822143555
vt -0.635742188 0.0822143555
vt -0.635742188 0.0778198242
vt -0.795410156 0.0778198242
vt -0.476318359 0.0778198242
vt -0.635742188 0.072265625
vt -0.476318359 0.072265625
vt -0.15612793 0.328613281
vt 0.00190448761 0.187988281
vt 0.000524044037 0.328613281
vt -0.157470703 0.187988281
vt 0.00190448761 0.170410156
vt -0.157470703 0.170410156
vt 0.00190448761 0.0874633789
vt -0.157470703 0.0874633789
vt 0.00190448761 0.0822143555
vt -0.157470703 0.0822143555
vt -0.157470703 0.0778198242
vt 0.00190448761 0.0778198242
vt -0.157470703 0.072265625
vt 0.161376953 0.0822143555
vt 0.00190448761 0.072265625
vt -0.157470703 0.0565795898
vt 0.161376953 0.0874633789
vt 0.00190448761 0.170410156
vt 0.161376953 0.0778198242
vt 0.00190448761 0.0565795898
vt -0.157470703 0.051574707
vt 0.161376953 0.170410156
vt 0.00190448761 0.187988281
vt 0.161376953 0.187988281
vt 0.00328445435 0.328613281
vt 0.159912109 0.328613281
vt 0.320800781 0.0822143555
vt 0.161376953 0.072265625
vt 0.161376953 0.0565795898
vt 0.00190448761 0.051574707
vt 0.00190448761 0.0477905273
vt -0.157470703 0.0477905273
vt 0.00190448761 0.051574707
vt -0.157470703 0.0425415039
vt 0.320800781 0.0874633789
vt 0.161376953 0.170410156
vt 0.320800781 0.0778198242
vt 0.161376953 0.072265625
vt 0.320800781 0.170410156
vt 0.161376953 0.187988281
vt 0.320800781 0.187988281
vt 0.162719727 0.328613281
vt 0.319335938 0.328613281
vt 0.480224609 0.0822143555
vt 0.320800781 0.072265625
vt 0.320800781 0.0565795898
vt 0.480224609 0.0874633789
vt 0.320800781 0.170410156
vt 0.480224609 0.0778198242
vt 0.320800781 0.072265625
vt 0.480224609 0.072265625
vt 0.480224609 0.0565795898
vt 0.320800781 0.051574707
vt 0.320800781 0.051574707
vt 0.639648438 0.0822143555
vt 0.480224609 0.170410156
vt 0.320800781 0.187988281
vt 0.161376953 0.051574707
vt 0.161376953 0.0477905273
vt 0.320800781 0.0477905273
vt 0.161376953 0.0425720215
vt 0.320800781 0.0425720215
vt 0.161376953 -0.141723633
vt 0.320800781 -0.141723633
vt 0.00190448761 0.0425720215
vt 0.161376953 0.0425415039
vt 0.00190448761 -0.141723633
vt -0.157470703 -0.141723633
vt -0.157470703 -0.496826172
vt 0.00190448761 -0.496826172
vt 0.161376953 -0.496826172
vt 0.00190448761 -0.754882812
vt -0.157470703 -0.754882812
vt 0.00190448761 -0.946777344
vt -0.157470703 -0.946777344
vt 0.161376953 -0.946777344
vt 0.161376953 -0.754882812
vt 0.320800781 -0.946777344
vt 0.320800781 -0.754882812
vt 0.480224609 -0.946777344
vt 0.320800781 -0.496826172
vt 0.480224609 -0.754882812
vt 0.639648438 -0.946777344
vt 0.480224609 -0.141723633
vt 0.320800781 0.0425720215
vt 0.639648438 -0.754882812
vt 0.798828125 -0.946777344
vt 0.480224609 -0.496826172
vt 0.480224609 0.0425415039
vt 0.320800781 0.0477905273
vt 0.480224609 0.0477905273
vt 0.480224609 0.051574707
vt 0.798828125 -0.754882812
vt 0.958496094 -0.946777344
vt 0.639648438 -0.141723633
vt 0.480224609 0.0425720215
vt 0.639648438 -0.496826172
vt 0.958496094 -0.754882812
vt 1.11816406 -0.946777344
vt 1.11816406 -0.754882812
vt 0.639648438 0.0425415039
vt 0.639648438 0.0477905273
vt 0.480224609 0.0477905273
vt 0.480224609 0.051574707
vt 0.639648438 0.051574707
vt 0.639648438 0.0565795898
vt 0.798828125 -0.496826172
vt 0.958496094 -0.496826172
vt 1.11816406 -0.496826172
vt 1.11816406 -0.141723633
vt 0.798828125 -0.141723633
vt 0.958496094 -0.141723633
vt 0.798828125 0.0425415039
vt 0.639648438 0.0425720215
vt 0.958496094 0.0425720215
vt 1.11816406 0.0425720215
vt 1.11816406 0.0477905273
vt 0.958496094 0.0477905273
vt 0.958496094 0.051574707
vt 1.11816406 0.051574707
vt 1.11816406 0.0565795898
vt 0.958496094 0.0565795898
vt 0.958496094 0.0425720215
vt 1.11816406 0.072265625
vt 0.798828125 0.0477905273
vt 0.798828125 0.0477905273
vt 0.639648438 0.0477905273
vt 0.958496094 0.0477905273
vt 0.798828125 0.051574707
vt 0.639648438 0.051574707
vt 0.798828125 0.051574707
vt 0.958496094 0.051574707
vt 0.798828125 0.0565795898
vt 0.958496094 0.072265625
vt 1.11816406 0.0778198242
vt 0.958496094 0.0778198242
vt 0.958496094 0.072265625
vt 1.11816406 0.0822143555
vt 0.639648438 0.072265625
vt 0.480224609 0.072265625
vt 0.798828125 0.072265625
vt 0.639648438 0.0778198242
vt 0.798828125 0.0778198242
vt 0.958496094 0.0822143555
vt 0.798828125 0.0822143555
vt 0.958496094 0.0874633789
vt 1.11816406 0.0874633789
vt 0.639648438 0.0874633789
vt 0.798828125 0.0874633789
vt 0.639648438 0.170410156
vt 0.639648438 0.170410156
vt 0.480224609 0.187988281
vt 0.639648438 0.187988281
vt 0.481445312 0.328613281
vt 0.638183594 0.328613281
vt 0.798828125 0.170410156
vt 0.639648438 0.187988281
vt 0.798828125 0.187988281
vt 0.641113281 0.328613281
vt 0.797363281 0.328613281
vt 0.958496094 0.170410156
vt 0.798828125 0.187988281
vt 1.11816406 0.170410156
vt 0.958496094 0.187988281
vt 0.800292969 0.328613281
vt 0.95703125 0.328613281
vt 1.11816406 0.187988281
vt 0.959960938 0.328613281
vt 1.11621094 0.328613281
vt 0.322021484 0.328613281
vt 0.480224609 0.187988281
vt 0.478759766 0.328613281
vt 0.0686645508 -1.03808594
vt -0.157470703 -0.993164062
vt -0.383544922 -1.03808594
vt -0.575195312 -1.16601562
vt 0.260253906 -1.16601562
vt -0.703613281 -1.35839844
vt 0.388427734 -1.35839844
vt -0.748535156 -1.58398438
vt 0.433349609 -1.58398438
vt -0.703613281 -1.81054688
vt 0.388427734 -1.81054688
vt -0.575195312 -2.00195312
vt 0.260253906 -2.00195312
vt -0.383544922 -2.13085938
vt 0.0686645508 -2.13085938
vt -0.157470703 -2.17578125
vn 0.078918457 -0.978515625 -0.190551758
vn -1.1920929E-07 -0.978515625 -0.206298828
vn -0.078918457 -0.978515625 -0.190551758
vn 0.145874023 -0.978515625 -0.145874023
vn -0.145874023 -0.978515625 -0.145874023
vn 0.190551758 -0.978515625 -0.078918457
vn -0.190551758 -0.978515625 -0.078918457
vn 0.206298828 -0.978515625 -1.1920929E-07
vn -0.206298828 -0.978515625 0
vn 0.190551758 -0.978515625 0.078918457
vn -0.190551758 -0.978515625 0.078918457
vn 0.145874023 -0.978515625 0.145874023
vn -0.145874023 -0.978515625 0.145874023
vn 0.078918457 -0.978515625 0.190551758
vn -0.078918457 -0.978515625 0.190551758
vn 1.1920929E-07 -0.978515625 0.206298828
vn -0.409423828 0.815429688 -0.409423828
vn -0.368164062 0.271728516 -0.889160156
vn -0.221557617 0.815429688 -0.534667969
vn -0.680664062 0.271728516 -0.680664062
vn -0.379638672 0.123962402 -0.916992188
vn -0.701660156 0.123962402 -0.701660156
vn -0.381591797 -0.0750732422 -0.921386719
vn -0.889160156 0.271728516 -0.368164062
vn -0.534667969 0.815429688 -0.221557617
vn -0.409423828 0.815429688 -0.409423828
vn -0.705078125 -0.0756225586 -0.705078125
vn -0.916992188 0.123962402 -0.379638672
vn -0.962402344 0.271728516 -1.1920929E-07
vn -0.579101562 0.815429688 -1.1920929E-07
vn -0.534667969 0.815429688 -0.221557617
vn -0.9921875 0.123962402 0
vn -0.921386719 -0.0762329102 -0.381591797
vn -0.997070312 -0.0762329102 0
vn -0.91796875 -0.111206055 -0.380371094
vn -0.993652344 -0.111206055 0
vn -0.953125 0.302001953 -4.76837158E-07
vn -0.702636719 -0.111816406 -0.702636719
vn -0.880859375 0.302001953 -0.364746094
vn -0.948730469 0.315673828 -5.96046448E-07
vn -0.876464844 0.315673828 -0.363037109
vn -0.918457031 -0.106201172 -0.380615234
vn -0.994140625 -0.106201172 -1.1920929E-07
vn -0.674316406 0.30078125 -0.674316406
vn -0.876464844 0.315673828 -0.363037109
vn -0.670898438 0.315673828 -0.670898438
vn -0.703125 -0.106201172 -0.703125
vn -0.380126953 -0.112792969 -0.91796875
vn -0.674316406 0.30078125 -0.674316406
vn -0.913085938 -0.151123047 -0.378173828
vn -0.98828125 -0.151123047 2.98023224E-07
vn -0.946289062 0.322753906 0
vn -0.874511719 0.322753906 -0.362304688
vn -0.9375 0.348388672 -2.98023224E-07
vn -0.866210938 0.348388672 -0.358642578
vn -0.990234375 -0.138671875 -1.1920929E-07
vn -0.913085938 -0.151123047 -0.378173828
vn -0.69921875 -0.151123047 -0.69921875
vn -0.669433594 0.322753906 -0.669433594
vn -0.874511719 0.322753906 -0.362304688
vn -0.662597656 0.348388672 -0.662597656
vn -0.915039062 -0.138671875 -0.37890625
vn -0.834960938 -0.550292969 0
vn -0.700195312 -0.138671875 -0.700195312
vn -0.771484375 -0.550292969 -0.319580078
vn -0.53515625 -0.814941406 -0.221679688
vn -0.579101562 -0.814941406 1.78813934E-07
vn -0.190551758 -0.978515625 -0.078918457
vn -0.206298828 -0.978515625 0
vn -0.145874023 -0.978515625 -0.145874023
vn -0.409667969 -0.814941406 -0.409667969
vn -0.078918457 -0.978515625 -0.190551758
vn -0.590332031 -0.550292969 -0.590332031
vn -0.221679688 -0.814941406 -0.53515625
vn -1.1920929E-07 -0.978515625 -0.206298828
vn -3.57627869E-07 -0.814941406 -0.579101562
vn -0.319580078 -0.550292969 -0.771484375
vn -4.76837158E-07 -0.550292969 -0.834960938
vn -4.76837158E-07 -0.138671875 -0.990234375
vn -0.37890625 -0.138671875 -0.915039062
vn -5.96046448E-07 0.348388672 -0.9375
vn -0.358642578 0.348388672 -0.866210938
vn -7.74860382E-07 0.322753906 -0.946289062
vn -0.362304688 0.322753906 -0.874511719
vn -0.669433594 0.322753906 -0.669433594
vn -6.55651093E-07 -0.151123047 -0.98828125
vn -0.69921875 -0.151123047 -0.69921875
vn -0.378173828 -0.151123047 -0.913085938
vn -0.380615234 -0.106201172 -0.918457031
vn -4.76837158E-07 -0.106201172 -0.994140625
vn -2.98023224E-07 0.315673828 -0.948730469
vn -0.363037109 0.315673828 -0.876464844
vn -0.363037109 0.315673828 -0.876464844
vn -0.670898438 0.315673828 -0.670898438
vn 9.07182693E-05 0.30078125 -0.953613281
vn -0.365234375 0.299316406 -0.881347656
vn 0.000129461288 -0.111816406 -0.993652344
vn 3.03983688E-05 -0.0756225586 -0.997070312
vn -8.94069672E-07 0.123962402 -0.9921875
vn -0.379638672 0.123962402 -0.916992188
vn -0.368164062 0.271728516 -0.889160156
vn -7.15255737E-07 0.271728516 -0.962402344
vn -0.221557617 0.815429688 -0.534667969
vn -1.78813934E-07 0.815429688 -0.579101562
vn 0.078918457 -0.978515625 -0.190551758
vn -3.57627869E-07 -0.814941406 -0.579101562
vn -1.1920929E-07 -0.978515625 -0.206298828
vn 0.221679688 -0.814941406 -0.53515625
vn 0.145874023 -0.978515625 -0.145874023
vn -4.76837158E-07 -0.550292969 -0.834960938
vn 0.409667969 -0.814941406 -0.409667969
vn 0.190551758 -0.978515625 -0.078918457
vn 0.319580078 -0.550292969 -0.771484375
vn 0.53515625 -0.814941406 -0.221679688
vn 0.206298828 -0.978515625 -1.1920929E-07
vn 0.579101562 -0.814941406 -3.57627869E-07
vn 0.590332031 -0.550292969 -0.590332031
vn 0.771484375 -0.550292969 -0.319580078
vn 0.834960938 -0.550292969 -7.15255737E-07
vn 0.990234375 -0.138671875 -9.53674316E-07
vn 0.915039062 -0.138671875 -0.37890625
vn 0.9375 0.348388672 -9.53674316E-07
vn 0.37890625 -0.138671875 -0.915039062
vn -4.76837158E-07 -0.138671875 -0.990234375
vn -5.96046448E-07 0.348388672 -0.9375
vn 0.700195312 -0.138671875 -0.700195312
vn 0.358642578 0.348388672 -0.866210938
vn 0.362304688 0.322753906 -0.874511719
vn -7.74860382E-07 0.322753906 -0.946289062
vn -6.55651093E-07 -0.151123047 -0.98828125
vn 0.378173828 -0.151123047 -0.913085938
vn 0.662597656 0.348388672 -0.662597656
vn 0.358642578 0.348388672 -0.866210938
vn 0.669433594 0.322753906 -0.669433594
vn 0.662597656 0.348388672 -0.662597656
vn 0.362304688 0.322753906 -0.874511719
vn 0.380615234 -0.106201172 -0.918457031
vn -4.76837158E-07 -0.106201172 -0.994140625
vn -2.98023224E-07 0.315673828 -0.948730469
vn 0.69921875 -0.151123047 -0.69921875
vn 0.703125 -0.106201172 -0.703125
vn 0.866210938 0.348388672 -0.358642578
vn 0.946289062 0.322753906 -1.49011612E-06
vn 0.874511719 0.322753906 -0.362304688
vn 0.874511719 0.322753906 -0.362304688
vn 0.98828125 -0.151123047 -1.1920929E-06
vn 0.69921875 -0.151123047 -0.69921875
vn 0.913085938 -0.151123047 -0.378173828
vn 0.918457031 -0.106201172 -0.380615234
vn 0.994140625 -0.106201172 -4.76837158E-07
vn 0.876464844 0.315673828 -0.363037109
vn 0.948730469 0.315673828 -1.07288361E-06
vn 0.954101562 0.299316406 -1.43051147E-06
vn 0.880859375 0.30078125 -0.364990234
vn 0.993652344 -0.112792969 -8.34465027E-07
vn 0.670898438 0.315673828 -0.670898438
vn 0.674316406 0.302001953 -0.674316406
vn 0.91796875 -0.111816406 -0.380371094
vn 0.702636719 -0.111206055 -0.702636719
vn 0.921386719 -0.0756225586 -0.381591797
vn 0.997070312 -0.0750732422 -5.96046448E-07
vn 0.705078125 -0.0762329102 -0.705078125
vn 0.916992188 0.123962402 -0.379638672
vn 0.9921875 0.123962402 -4.76837158E-07
vn 0.701660156 0.123962402 -0.701660156
vn 0.889160156 0.271728516 -0.368164062
vn 0.962402344 0.271728516 -1.25169754E-06
vn 0.534667969 0.815429688 -0.221557617
vn 0.579101562 0.815429688 -5.36441803E-07
vn 0.680664062 0.271728516 -0.680664062
vn 0.409423828 0.815429688 -0.409423828
vn 0.534667969 0.815429688 -0.221557617
vn 0.379638672 0.123962402 -0.916992188
vn 0.368164062 0.271728516 -0.889160156
vn 0.680664062 0.271728516 -0.680664062
vn 0.221557617 0.815429688 -0.534667969
vn 0.409423828 0.815429688 -0.409423828
vn 0.381591797 -0.0762329102 -0.921386719
vn 3.03983688E-05 -0.0756225586 -0.997070312
vn -8.94069672E-07 0.123962402 -0.9921875
vn 0.368164062 0.271728516 -0.889160156
vn -7.15255737E-07 0.271728516 -0.962402344
vn -1.78813934E-07 0.815429688 -0.579101562
vn 0.221557617 0.815429688 -0.534667969
vn 0.000129461288 -0.111816406 -0.993652344
vn 0.380371094 -0.111206055 -0.91796875
vn 0.364746094 0.302001953 -0.880859375
vn 9.07182693E-05 0.30078125 -0.953613281
vn 0.674316406 0.302001953 -0.674316406
vn 0.363037109 0.315673828 -0.876464844
vn 0.670898438 0.315673828 -0.670898438
vn 0.579101562 0.815429688 -5.36441803E-07
vn 0.889160156 0.271728516 0.368164062
vn 0.534667969 0.815429688 0.221557617
vn 0.962402344 0.271728516 -1.25169754E-06
vn 0.916992188 0.123962402 0.379638672
vn 0.9921875 0.123962402 -4.76837158E-07
vn 0.921386719 -0.075012207 0.381591797
vn 0.997070312 -0.0750732422 -5.96046448E-07
vn 0.91796875 -0.112487793 0.380371094
vn 0.993652344 -0.112792969 -8.34465027E-07
vn 0.954101562 0.299316406 -1.43051147E-06
vn 0.881347656 0.299560547 0.365234375
vn 0.948730469 0.315673828 -1.07288361E-06
vn 0.702636719 -0.112792969 0.702636719
vn 0.876464844 0.315673828 0.363037109
vn 0.994140625 -0.106201172 -4.76837158E-07
vn 0.705078125 -0.0750732422 0.705078125
vn 0.916992188 0.123962402 0.379638672
vn 0.674804688 0.299316406 0.674804688
vn 0.918457031 -0.106201172 0.380615234
vn 0.98828125 -0.151123047 -1.1920929E-06
vn 0.701660156 0.123962402 0.701660156
vn 0.889160156 0.271728516 0.368164062
vn 0.680664062 0.271728516 0.680664062
vn 0.534667969 0.815429688 0.221557617
vn 0.409423828 0.815429688 0.409423828
vn 0.380126953 -0.111816406 0.91796875
vn 0.670898438 0.315673828 0.670898438
vn 0.703125 -0.106201172 0.703125
vn 0.913085938 -0.151123047 0.378173828
vn 0.874511719 0.322753906 0.362304688
vn 0.946289062 0.322753906 -1.49011612E-06
vn 0.913085938 -0.151123047 0.378173828
vn 0.9375 0.348388672 -9.53674316E-07
vn 0.381591797 -0.0756225586 0.921386719
vn 0.701660156 0.123962402 0.701660156
vn 0.364990234 0.30078125 0.881347656
vn 0.670898438 0.315673828 0.670898438
vn 0.379638672 0.123962402 0.916992188
vn 0.680664062 0.271728516 0.680664062
vn 0.368164062 0.271728516 0.889160156
vn 0.409423828 0.815429688 0.409423828
vn 0.221557617 0.815429688 0.534667969
vn -0 -0.111206055 0.993652344
vn 0.363037109 0.315673828 0.876464844
vn 0.380615234 -0.106201172 0.918457031
vn 1.78813934E-07 -0.0762329102 0.997070312
vn 0.379638672 0.123962402 0.916992188
vn 2.98023224E-07 0.302001953 0.953125
vn 0.363037109 0.315673828 0.876464844
vn 4.17232513E-07 0.315673828 0.948730469
vn 3.57627869E-07 -0.106201172 0.994140625
vn 0.378173828 -0.151123047 0.913085938
vn 0.378173828 -0.151123047 0.913085938
vn -0.380126953 -0.111816406 0.91796875
vn 4.76837158E-07 0.123962402 0.9921875
vn 0.368164062 0.271728516 0.889160156
vn 0.69921875 -0.151123047 0.69921875
vn 0.669433594 0.322753906 0.669433594
vn 0.362304688 0.322753906 0.874511719
vn 0.662597656 0.348388672 0.662597656
vn 0.358642578 0.348388672 0.866210938
vn 0.700195312 -0.138671875 0.700195312
vn 0.37890625 -0.138671875 0.915039062
vn 0.866210938 0.348388672 0.358642578
vn 0.662597656 0.348388672 0.662597656
vn 0.915039062 -0.138671875 0.37890625
vn 0.990234375 -0.138671875 -9.53674316E-07
vn 0.834960938 -0.550292969 -7.15255737E-07
vn 0.771484375 -0.550292969 0.319580078
vn 0.590332031 -0.550292969 0.590332031
vn 0.53515625 -0.814941406 0.221679688
vn 0.579101562 -0.814941406 -3.57627869E-07
vn 0.190551758 -0.978515625 0.078918457
vn 0.206298828 -0.978515625 -1.1920929E-07
vn 0.145874023 -0.978515625 0.145874023
vn 0.409667969 -0.814941406 0.409667969
vn 0.078918457 -0.978515625 0.190551758
vn 0.221679688 -0.814941406 0.53515625
vn 1.1920929E-07 -0.978515625 0.206298828
vn 0.319580078 -0.550292969 0.771484375
vn 1.1920929E-07 -0.814941406 0.579101562
vn -0.078918457 -0.978515625 0.190551758
vn 1.78813934E-07 -0.138671875 0.990234375
vn 0.358642578 0.348388672 0.866210938
vn -0.221679688 -0.814941406 0.53515625
vn -0.145874023 -0.978515625 0.145874023
vn 1.1920929E-07 -0.550292969 0.834960938
vn -0 0.348388672 0.9375
vn 0.362304688 0.322753906 0.874511719
vn 4.17232513E-07 0.322753906 0.946289062
vn 7.15255737E-07 -0.151123047 0.98828125
vn -0.409667969 -0.814941406 0.409667969
vn -0.190551758 -0.978515625 0.078918457
vn -0.37890625 -0.138671875 0.915039062
vn -0 0.348388672 0.9375
vn -0.319580078 -0.550292969 0.771484375
vn -0.53515625 -0.814941406 0.221679688
vn -0.206298828 -0.978515625 0
vn -0.579101562 -0.814941406 1.78813934E-07
vn -0.358642578 0.348388672 0.866210938
vn -0.362304688 0.322753906 0.874511719
vn 4.17232513E-07 0.322753906 0.946289062
vn 7.15255737E-07 -0.151123047 0.98828125
vn -0.378173828 -0.151123047 0.913085938
vn -0.380615234 -0.106201172 0.918457031
vn -0.590332031 -0.550292969 0.590332031
vn -0.771484375 -0.550292969 0.319580078
vn -0.834960938 -0.550292969 0
vn -0.990234375 -0.138671875 -1.1920929E-07
vn -0.700195312 -0.138671875 0.700195312
vn -0.915039062 -0.138671875 0.37890625
vn -0.662597656 0.348388672 0.662597656
vn -0.358642578 0.348388672 0.866210938
vn -0.866210938 0.348388672 0.358642578
vn -0.9375 0.348388672 -2.98023224E-07
vn -0.946289062 0.322753906 0
vn -0.874511719 0.322753906 0.362304688
vn -0.913085938 -0.151123047 0.378173828
vn -0.98828125 -0.151123047 2.98023224E-07
vn -0.994140625 -0.106201172 -1.1920929E-07
vn -0.918457031 -0.106201172 0.380615234
vn -0.866210938 0.348388672 0.358642578
vn -0.948730469 0.315673828 -5.96046448E-07
vn -0.669433594 0.322753906 0.669433594
vn -0.669433594 0.322753906 0.669433594
vn -0.362304688 0.322753906 0.874511719
vn -0.874511719 0.322753906 0.362304688
vn -0.69921875 -0.151123047 0.69921875
vn -0.378173828 -0.151123047 0.913085938
vn -0.69921875 -0.151123047 0.69921875
vn -0.913085938 -0.151123047 0.378173828
vn -0.703125 -0.106201172 0.703125
vn -0.876464844 0.315673828 0.363037109
vn -0.953125 0.302001953 -4.76837158E-07
vn -0.881347656 0.30078125 0.364990234
vn -0.876464844 0.315673828 0.363037109
vn -0.993652344 -0.111206055 0
vn -0.363037109 0.315673828 0.876464844
vn 4.17232513E-07 0.315673828 0.948730469
vn -0.670898438 0.315673828 0.670898438
vn -0.364990234 0.30078125 0.881347656
vn -0.674804688 0.299316406 0.674804688
vn -0.91796875 -0.111816406 0.380126953
vn -0.702636719 -0.112792969 0.702636719
vn -0.921386719 -0.0756225586 0.381591797
vn -0.997070312 -0.0762329102 0
vn -0.381591797 -0.0756225586 0.921386719
vn -0.705078125 -0.0750732422 0.705078125
vn -0.379638672 0.123962402 0.916992188
vn -0.379638672 0.123962402 0.916992188
vn 5.36441803E-07 0.271728516 0.962402344
vn -0.368164062 0.271728516 0.889160156
vn 3.57627869E-07 0.815429688 0.579101562
vn -0.221557617 0.815429688 0.534667969
vn -0.701660156 0.123962402 0.701660156
vn -0.368164062 0.271728516 0.889160156
vn -0.680664062 0.271728516 0.680664062
vn -0.221557617 0.815429688 0.534667969
vn -0.409423828 0.815429688 0.409423828
vn -0.916992188 0.123962402 0.379638672
vn -0.680664062 0.271728516 0.680664062
vn -0.9921875 0.123962402 0
vn -0.889160156 0.271728516 0.368164062
vn -0.409423828 0.815429688 0.409423828
vn -0.534667969 0.815429688 0.221557617
vn -0.962402344 0.271728516 -1.1920929E-07
vn -0.534667969 0.815429688 0.221557617
vn -0.579101562 0.815429688 -1.1920929E-07
vn 0.221557617 0.815429688 0.534667969
vn 5.36441803E-07 0.271728516 0.962402344
vn 3.57627869E-07 0.815429688 0.579101562
vn -0.221557617 0.815429688 -0.534667969
vn -1.78813934E-07 0.815429688 -0.579101562
vn 0.221557617 0.815429688 -0.534667969
vn 0.409423828 0.815429688 -0.409423828
vn -0.409423828 0.815429688 -0.409423828
vn 0.534667969 0.815429688 -0.221557617
vn -0.534667969 0.815429688 -0.221557617
vn 0.579101562 0.815429688 -5.36441803E-07
vn -0.579101562 0.815429688 -1.1920929E-07
vn 0.534667969 0.815429688 0.221557617
vn -0.534667969 0.815429688 0.221557617
vn 0.409423828 0.815429688 0.409423828
vn -0.409423828 0.815429688 0.409423828
vn 0.221557617 0.815429688 0.534667969
vn -0.221557617 0.815429688 0.534667969
vn 3.57627869E-07 0.815429688 0.579101562
g TableLegs_2_0
f 3/3/3 2/2/2 1/1/1
f 1/1/1 4/4/4 3/3/3
f 4/4/4 5/5/5 3/3/3
f 4/4/4 6/6/6 5/5/5
f 6/6/6 7/7/7 5/5/5
f 6/6/6 8/8/8 7/7/7
f 8/8/8 9/9/9 7/7/7
f 8/8/8 10/10/10 9/9/9
f 10/10/10 11/11/11 9/9/9
f 10/10/10 12/12/12 11/11/11
f 12/12/12 13/13/13 11/11/11
f 12/12/12 14/14/14 13/13/13
f 14/14/14 15/15/15 13/13/13
f 14/14/14 16/16/16 15/15/15
f 19/19/19 18/18/18 17/17/17
f 18/18/18 20/20/20 17/17/17
f 20/20/20 18/18/18 21/21/21
f 22/22/22 20/20/20 21/21/21
f 22/22/22 21/21/21 23/23/23
f 24/24/24 20/20/20 22/22/22
f 20/20/20 24/24/24 25/25/25
f 26/26/26 20/20/20 25/25/25
f 27/27/27 22/22/22 23/23/23
f 28/28/28 24/24/24 22/22/22
f 28/28/28 22/22/22 27/27/27
f 29/29/29 24/24/24 28/28/28
f 24/24/24 29/29/29 30/30/30
f 31/31/31 24/24/24 30/30/30
f 32/32/32 29/29/29 28/28/28
f 32/32/32 28/28/28 33/33/33
f 33/33/33 28/28/28 27/27/27
f 34/34/34 32/32/32 33/33/33
f 34/34/34 33/33/33 35/35/35
f 36/36/36 34/34/34 35/35/35
f 36/36/36 35/35/35 37/37/37
f 33/33/33 27/27/27 38/38/38
f 35/35/35 33/33/33 38/38/38
f 35/35/35 39/39/39 37/37/37
f 35/35/35 38/38/38 39/39/39
f 37/37/37 39/39/39 40/40/40
f 39/39/39 41/41/41 40/40/40
f 40/40/40 41/41/41 42/42/42
f 43/43/43 40/40/40 42/42/42
f 38/38/38 44/44/44 39/39/39
f 39/39/39 44/44/44 45/45/45
f 44/44/44 46/46/46 45/45/45
f 45/45/45 46/46/46 42/42/42
f 46/46/46 47/47/47 42/42/42
f 38/38/38 27/27/27 48/48/48
f 38/38/38 48/48/48 49/49/49
f 27/27/27 23/23/23 48/48/48
f 43/43/43 42/42/42 50/50/50
f 51/51/51 43/43/43 50/50/50
f 51/51/51 50/50/50 52/52/52
f 50/50/50 53/53/53 52/52/52
f 52/52/52 53/53/53 54/54/54
f 53/53/53 55/55/55 54/54/54
f 54/54/54 55/55/55 56/56/56
f 57/57/57 42/42/42 47/47/47
f 58/58/58 57/57/57 47/47/47
f 58/58/58 59/59/59 57/57/57
f 59/59/59 60/60/60 57/57/57
f 59/59/59 61/61/61 60/60/60
f 61/61/61 55/55/55 60/60/60
f 55/55/55 62/62/62 56/56/56
f 63/63/63 56/56/56 62/62/62
f 62/62/62 55/55/55 64/64/64
f 55/55/55 61/61/61 64/64/64
f 65/65/65 63/63/63 62/62/62
f 65/65/65 62/62/62 64/64/64
f 65/65/65 66/66/66 63/63/63
f 66/66/66 67/67/67 63/63/63
f 67/67/67 66/66/66 68/68/68
f 69/69/69 67/67/67 68/68/68
f 68/68/68 66/66/66 70/70/70
f 66/66/66 71/71/71 70/70/70
f 71/71/71 66/66/66 65/65/65
f 70/70/70 71/71/71 72/72/72
f 73/73/73 65/65/65 64/64/64
f 73/73/73 71/71/71 65/65/65
f 71/71/71 74/74/74 72/72/72
f 74/74/74 71/71/71 73/73/73
f 72/72/72 74/74/74 75/75/75
f 74/74/74 76/76/76 75/75/75
f 76/76/76 74/74/74 77/77/77
f 77/77/77 74/74/74 73/73/73
f 78/78/78 76/76/76 77/77/77
f 78/78/78 77/77/77 79/79/79
f 73/73/73 64/64/64 80/80/80
f 77/77/77 73/73/73 80/80/80
f 77/77/77 80/80/80 79/79/79
f 81/81/81 79/79/79 80/80/80
f 64/64/64 61/61/61 80/80/80
f 82/82/82 81/81/81 80/80/80
f 61/61/61 82/82/82 80/80/80
f 83/83/83 81/81/81 82/82/82
f 84/84/84 82/82/82 61/61/61
f 84/84/84 83/83/83 82/82/82
f 85/85/85 84/84/84 61/61/61
f 86/86/86 83/83/83 84/84/84
f 84/84/84 85/85/85 87/87/87
f 88/88/88 86/86/86 84/84/84
f 88/88/88 84/84/84 87/87/87
f 88/88/88 89/89/89 86/86/86
f 88/88/88 87/87/87 89/89/89
f 89/89/89 90/90/90 86/86/86
f 87/87/87 47/47/47 89/89/89
f 90/90/90 89/89/89 91/91/91
f 92/92/92 89/89/89 47/47/47
f 89/89/89 93/93/93 91/91/91
f 94/94/94 92/92/92 47/47/47
f 95/95/95 91/91/91 93/93/93
f 96/96/96 92/92/92 94/94/94
f 96/96/96 95/95/95 93/93/93
f 49/49/49 96/96/96 94/94/94
f 95/95/95 96/96/96 97/97/97
f 48/48/48 96/96/96 49/49/49
f 96/96/96 48/48/48 97/97/97
f 97/97/97 48/48/48 98/98/98
f 48/48/48 23/23/23 98/98/98
f 98/98/98 23/23/23 99/99/99
f 23/23/23 100/100/100 99/99/99
f 100/100/100 101/101/101 99/99/99
f 101/101/101 102/102/102 99/99/99
f 102/102/102 101/101/101 103/103/103
f 104/104/104 102/102/102 103/103/103
f 107/107/107 106/106/106 105/105/105
f 106/106/106 108/108/108 105/105/105
f 105/105/105 108/108/108 109/109/109
f 108/108/108 106/106/106 110/110/110
f 108/108/108 111/111/111 109/109/109
f 109/109/109 111/111/111 112/112/112
f 113/113/113 108/108/108 110/110/110
f 111/111/111 108/108/108 113/113/113
f 111/111/111 114/114/114 112/112/112
f 112/112/112 114/114/114 115/115/115
f 114/114/114 116/116/116 115/115/115
f 114/114/114 111/111/111 117/117/117
f 117/117/117 111/111/111 113/113/113
f 116/116/116 114/114/114 118/118/118
f 118/118/118 114/114/114 117/117/117
f 119/119/119 116/116/116 118/118/118
f 119/119/119 118/118/118 120/120/120
f 118/118/118 121/121/121 120/120/120
f 118/118/118 117/117/117 121/121/121
f 122/122/122 120/120/120 121/121/121
f 113/113/113 110/110/110 123/123/123
f 110/110/110 124/124/124 123/123/123
f 124/124/124 125/125/125 123/123/123
f 117/117/117 113/113/113 126/126/126
f 117/117/117 126/126/126 121/121/121
f 113/113/113 123/123/123 126/126/126
f 125/125/125 127/127/127 123/123/123
f 128/128/128 127/127/127 125/125/125
f 129/129/129 128/128/128 125/125/125
f 128/128/128 129/129/129 130/130/130
f 131/131/131 128/128/128 130/130/130
f 132/132/132 126/126/126 123/123/123
f 133/133/133 132/132/132 123/123/123
f 134/134/134 132/132/132 133/133/133
f 126/126/126 135/135/135 121/121/121
f 136/136/136 134/134/134 133/133/133
f 131/131/131 130/130/130 137/137/137
f 130/130/130 138/138/138 137/137/137
f 138/138/138 139/139/139 137/137/137
f 131/131/131 140/140/140 136/136/136
f 140/140/140 134/134/134 136/136/136
f 131/131/131 137/137/137 140/140/140
f 137/137/137 141/141/141 140/140/140
f 135/135/135 142/142/142 121/121/121
f 142/142/142 122/122/122 121/121/121
f 122/122/122 142/142/142 143/143/143
f 142/142/142 144/144/144 143/143/143
f 145/145/145 142/142/142 135/135/135
f 134/134/134 145/145/145 135/135/135
f 146/146/146 143/143/143 144/144/144
f 145/145/145 134/134/134 147/147/147
f 148/148/148 146/146/146 144/144/144
f 148/148/148 145/145/145 147/147/147
f 148/148/148 149/149/149 146/146/146
f 148/148/148 147/147/147 149/149/149
f 147/147/147 141/141/141 149/149/149
f 149/149/149 150/150/150 146/146/146
f 149/149/149 151/151/151 150/150/150
f 151/151/151 149/149/149 141/141/141
f 151/151/151 152/152/152 150/150/150
f 153/153/153 152/152/152 151/151/151
f 154/154/154 153/153/153 151/151/151
f 155/155/155 153/153/153 154/154/154
f 156/156/156 151/151/151 141/141/141
f 154/154/154 151/151/151 156/156/156
f 157/157/157 154/154/154 156/156/156
f 158/158/158 154/154/154 157/157/157
f 158/158/158 155/155/155 154/154/154
f 159/159/159 158/158/158 157/157/157
f 158/158/158 160/160/160 155/155/155
f 160/160/160 161/161/161 155/155/155
f 159/159/159 162/162/162 158/158/158
f 162/162/162 160/160/160 158/158/158
f 160/160/160 163/163/163 161/161/161
f 163/163/163 164/164/164 161/161/161
f 162/162/162 165/165/165 160/160/160
f 165/165/165 163/163/163 160/160/160
f 163/163/163 166/166/166 164/164/164
f 166/166/166 167/167/167 164/164/164
f 167/167/167 166/166/166 168/168/168
f 169/169/169 167/167/167 168/168/168
f 170/170/170 166/166/166 163/163/163
f 165/165/165 170/170/170 163/163/163
f 166/166/166 170/170/170 171/171/171
f 172/172/172 166/166/166 171/171/171
f 173/173/173 165/165/165 162/162/162
f 173/173/173 174/174/174 165/165/165
f 174/174/174 175/175/175 165/165/165
f 175/175/175 174/174/174 176/176/176
f 177/177/177 175/175/175 176/176/176
f 178/178/178 173/173/173 162/162/162
f 178/178/178 162/162/162 159/159/159
f 173/173/173 178/178/178 179/179/179
f 180/180/180 173/173/173 179/179/179
f 173/173/173 180/180/180 181/181/181
f 180/180/180 182/182/182 181/181/181
f 181/181/181 182/182/182 183/183/183
f 184/184/184 181/181/181 183/183/183
f 185/185/185 179/179/179 178/178/178
f 186/186/186 178/178/178 159/159/159
f 186/186/186 185/185/185 178/178/178
f 186/186/186 159/159/159 187/187/187
f 186/186/186 187/187/187 185/185/185
f 187/187/187 188/188/188 185/185/185
f 159/159/159 189/189/189 187/187/187
f 188/188/188 187/187/187 139/139/139
f 187/187/187 189/189/189 190/190/190
f 187/187/187 190/190/190 139/139/139
f 189/189/189 191/191/191 190/190/190
f 139/139/139 190/190/190 137/137/137
f 190/190/190 191/191/191 141/141/141
f 137/137/137 190/190/190 141/141/141
f 194/194/194 193/193/193 192/192/192
f 193/193/193 195/195/195 192/192/192
f 195/195/195 193/193/193 196/196/196
f 197/197/197 195/195/195 196/196/196
f 197/197/197 196/196/196 198/198/198
f 199/199/199 197/197/197 198/198/198
f 199/199/199 198/198/198 200/200/200
f 201/201/201 199/199/199 200/200/200
f 201/201/201 200/200/200 202/202/202
f 200/200/200 203/203/203 202/202/202
f 202/202/202 203/203/203 204/204/204
f 200/200/200 198/198/198 205/205/205
f 200/200/200 205/205/205 203/203/203
f 203/203/203 206/206/206 204/204/204
f 204/204/204 206/206/206 207/207/207
f 198/198/198 208/208/208 205/205/205
f 198/198/198 209/209/209 208/208/208
f 205/205/205 210/210/210 203/203/203
f 203/203/203 210/210/210 206/206/206
f 206/206/206 211/211/211 207/207/207
f 212/212/212 207/207/207 211/211/211
f 209/209/209 213/213/213 208/208/208
f 209/209/209 214/214/214 213/213/213
f 214/214/214 215/215/215 213/213/213
f 215/215/215 214/214/214 216/216/216
f 217/217/217 215/215/215 216/216/216
f 205/205/205 208/208/208 218/218/218
f 205/205/205 218/218/218 210/210/210
f 210/210/210 219/219/219 206/206/206
f 206/206/206 219/219/219 211/211/211
f 219/219/219 220/220/220 211/211/211
f 221/221/221 212/212/212 211/211/211
f 221/221/221 222/222/222 212/212/212
f 222/222/222 223/223/223 212/212/212
f 224/224/224 211/211/211 220/220/220
f 223/223/223 222/222/222 225/225/225
f 208/208/208 226/226/226 218/218/218
f 208/208/208 227/227/227 226/226/226
f 218/218/218 228/228/228 210/210/210
f 210/210/210 228/228/228 229/229/229
f 227/227/227 230/230/230 226/226/226
f 227/227/227 231/231/231 230/230/230
f 231/231/231 232/232/232 230/230/230
f 232/232/232 231/231/231 233/233/233
f 234/234/234 232/232/232 233/233/233
f 218/218/218 226/226/226 235/235/235
f 218/218/218 235/235/235 228/228/228
f 228/228/228 236/236/236 229/229/229
f 229/229/229 236/236/236 237/237/237
f 220/220/220 229/229/229 237/237/237
f 226/226/226 238/238/238 235/235/235
f 226/226/226 239/239/239 238/238/238
f 235/235/235 240/240/240 228/228/228
f 228/228/228 240/240/240 241/241/241
f 241/241/241 242/242/242 237/237/237
f 240/240/240 242/242/242 241/241/241
f 242/242/242 243/243/243 237/237/237
f 220/220/220 237/237/237 244/244/244
f 245/245/245 237/237/237 243/243/243
f 235/235/235 246/246/246 240/240/240
f 235/235/235 238/238/238 246/246/246
f 239/239/239 247/247/247 238/238/238
f 239/239/239 248/248/248 247/247/247
f 249/249/249 220/220/220 244/244/244
f 249/249/249 224/224/224 220/220/220
f 249/249/249 244/244/244 250/250/250
f 249/249/249 250/250/250 224/224/224
f 244/244/244 251/251/251 250/250/250
f 250/250/250 222/222/222 224/224/224
f 250/250/250 251/251/251 252/252/252
f 251/251/251 253/253/253 252/252/252
f 252/252/252 253/253/253 254/254/254
f 253/253/253 255/255/255 254/254/254
f 222/222/222 250/250/250 256/256/256
f 250/250/250 257/257/257 256/256/256
f 256/256/256 257/257/257 254/254/254
f 222/222/222 256/256/256 225/225/225
f 225/225/225 256/256/256 258/258/258
f 258/258/258 256/256/256 254/254/254
f 259/259/259 225/225/225 258/258/258
f 260/260/260 259/259/259 258/258/258
f 261/261/261 258/258/258 254/254/254
f 261/261/261 260/260/260 258/258/258
f 262/262/262 254/254/254 255/255/255
f 262/262/262 261/261/261 254/254/254
f 261/261/261 263/263/263 260/260/260
f 263/263/263 264/264/264 260/260/260
f 264/264/264 263/263/263 265/265/265
f 266/266/266 264/264/264 265/265/265
f 265/265/265 263/263/263 267/267/267
f 268/268/268 263/263/263 261/261/261
f 263/263/263 268/268/268 267/267/267
f 262/262/262 268/268/268 261/261/261
f 267/267/267 268/268/268 269/269/269
f 268/268/268 270/270/270 269/269/269
f 270/270/270 268/268/268 262/262/262
f 269/269/269 270/270/270 271/271/271
f 272/272/272 262/262/262 255/255/255
f 272/272/272 270/270/270 262/262/262
f 270/270/270 273/273/273 271/271/271
f 273/273/273 270/270/270 272/272/272
f 271/271/271 273/273/273 274/274/274
f 272/272/272 255/255/255 275/275/275
f 255/255/255 276/276/276 275/275/275
f 273/273/273 277/277/277 274/274/274
f 274/274/274 277/277/277 278/278/278
f 279/279/279 273/273/273 272/272/272
f 279/279/279 272/272/272 275/275/275
f 277/277/277 273/273/273 279/279/279
f 276/276/276 280/280/280 275/275/275
f 280/280/280 276/276/276 281/281/281
f 282/282/282 280/280/280 281/281/281
f 282/282/282 281/281/281 245/245/245
f 283/283/283 282/282/282 245/245/245
f 283/283/283 245/245/245 243/243/243
f 277/277/277 284/284/284 278/278/278
f 278/278/278 284/284/284 285/285/285
f 279/279/279 275/275/275 286/286/286
f 275/275/275 287/287/287 286/286/286
f 288/288/288 277/277/277 279/279/279
f 284/284/284 277/277/277 288/288/288
f 288/288/288 279/279/279 286/286/286
f 284/284/284 289/289/289 285/285/285
f 285/285/285 289/289/289 290/290/290
f 289/289/289 291/291/291 290/290/290
f 287/287/287 292/292/292 286/286/286
f 293/293/293 292/292/292 287/287/287
f 294/294/294 293/293/293 287/287/287
f 293/293/293 294/294/294 295/295/295
f 296/296/296 293/293/293 295/295/295
f 296/296/296 295/295/295 297/297/297
f 295/295/295 243/243/243 297/297/297
f 298/298/298 284/284/284 288/288/288
f 289/289/289 284/284/284 298/298/298
f 291/291/291 289/289/289 299/299/299
f 299/299/299 289/289/289 298/298/298
f 300/300/300 291/291/291 299/299/299
f 300/300/300 299/299/299 301/301/301
f 298/298/298 288/288/288 302/302/302
f 288/288/288 286/286/286 302/302/302
f 299/299/299 298/298/298 303/303/303
f 299/299/299 303/303/303 301/301/301
f 298/298/298 302/302/302 303/303/303
f 304/304/304 302/302/302 286/286/286
f 302/302/302 304/304/304 303/303/303
f 305/305/305 304/304/304 286/286/286
f 303/303/303 306/306/306 301/301/301
f 306/306/306 307/307/307 301/301/301
f 308/308/308 307/307/307 306/306/306
f 309/309/309 308/308/308 306/306/306
f 308/308/308 309/309/309 310/310/310
f 311/311/311 308/308/308 310/310/310
f 311/311/311 310/310/310 312/312/312
f 310/310/310 313/313/313 312/312/312
f 304/304/304 314/314/314 303/303/303
f 315/315/315 312/312/312 313/313/313
f 316/316/316 304/304/304 305/305/305
f 314/314/314 304/304/304 317/317/317
f 318/318/318 316/316/316 305/305/305
f 319/319/319 314/314/314 317/317/317
f 320/320/320 316/316/316 318/318/318
f 321/321/321 320/320/320 318/318/318
f 319/319/319 317/317/317 322/322/322
f 323/323/323 319/319/319 322/322/322
f 323/323/323 322/322/322 313/313/313
f 321/321/321 297/297/297 320/320/320
f 322/322/322 324/324/324 313/313/313
f 297/297/297 324/324/324 320/320/320
f 325/325/325 315/315/315 313/313/313
f 326/326/326 315/315/315 325/325/325
f 327/327/327 326/326/326 325/325/325
f 328/328/328 313/313/313 324/324/324
f 329/329/329 326/326/326 327/327/327
f 297/297/297 330/330/330 324/324/324
f 330/330/330 297/297/297 243/243/243
f 331/331/331 330/330/330 243/243/243
f 332/332/332 328/328/328 324/324/324
f 327/327/327 328/328/328 332/332/332
f 330/330/330 332/332/332 324/324/324
f 333/333/333 330/330/330 331/331/331
f 240/240/240 333/333/333 331/331/331
f 246/246/246 333/333/333 240/240/240
f 334/334/334 332/332/332 330/330/330
f 334/334/334 327/327/327 332/332/332
f 333/333/333 334/334/334 330/330/330
f 335/335/335 329/329/329 327/327/327
f 335/335/335 327/327/327 334/334/334
f 336/336/336 334/334/334 333/333/333
f 246/246/246 336/336/336 333/333/333
f 336/336/336 335/335/335 334/334/334
f 335/335/335 337/337/337 329/329/329
f 337/337/337 338/338/338 329/329/329
f 246/246/246 339/339/339 336/336/336
f 238/238/238 339/339/339 246/246/246
f 238/238/238 247/247/247 339/339/339
f 336/336/336 340/340/340 335/335/335
f 339/339/339 340/340/340 336/336/336
f 340/340/340 337/337/337 335/335/335
f 247/247/247 341/341/341 339/339/339
f 339/339/339 342/342/342 340/340/340
f 247/247/247 343/343/343 341/341/341
f 343/343/343 344/344/344 341/341/341
f 344/344/344 343/343/343 345/345/345
f 346/346/346 344/344/344 345/345/345
f 342/342/342 347/347/347 340/340/340
f 340/340/340 347/347/347 337/337/337
f 342/342/342 348/348/348 347/347/347
f 348/348/348 349/349/349 347/347/347
f 349/349/349 348/348/348 350/350/350
f 351/351/351 349/349/349 350/350/350
f 347/347/347 352/352/352 337/337/337
f 337/337/337 352/352/352 338/338/338
f 347/347/347 353/353/353 352/352/352
f 352/352/352 354/354/354 338/338/338
f 353/353/353 355/355/355 352/352/352
f 352/352/352 355/355/355 354/354/354
f 355/355/355 353/353/353 356/356/356
f 357/357/357 355/355/355 356/356/356
f 355/355/355 358/358/358 354/354/354
f 358/358/358 355/355/355 359/359/359
f 360/360/360 358/358/358 359/359/359
f 363/363/363 362/362/362 361/361/361
f 362/362/362 248/248/248 361/361/361
f 248/248/248 362/362/362 247/247/247
f 366/366/366 365/365/365 364/364/364
f 364/364/364 367/367/367 366/366/366
f 364/364/364 368/368/368 367/367/367
f 368/368/368 369/369/369 367/367/367
f 368/368/368 370/370/370 369/369/369
f 370/370/370 371/371/371 369/369/369
f 370/370/370 372/372/372 371/371/371
f 372/372/372 373/373/373 371/371/371
f 372/372/372 374/374/374 373/373/373
f 374/374/374 375/375/375 373/373/373
f 374/374/374 376/376/376 375/375/375
f 376/376/376 377/377/377 375/375/375
f 376/376/376 378/378/378 377/377/377
f 378/378/378 379/379/379 377/377/377
