g TableLegs_1
v 0.109578967 0.00539088249 -0.264548063
v -1.1920929E-07 0.00539088249 -0.286344647
v -0.109579444 0.00539088249 -0.264547944
v 0.202476129 0.00539088249 -0.202476382
v -0.202476606 0.00539088249 -0.202476129
v 0.264548182 0.00539088249 -0.109579444
v -0.264548421 0.00539088249 -0.109579138
v 0.286344886 0.00539088249 0
v -0.286345005 0.00539088249 3.57627869E-07
v 0.264548182 0.00539088249 0.109579563
v -0.264548421 0.00539088249 0.109579802
v 0.202476606 0.00539088249 0.202476725
v -0.202476606 0.00539088249 0.202476859
v 0.109579444 0.00539088249 0.26454851
v -0.109579444 0.00539088249 0.264548659
v 1.1920929E-07 0.00539088249 0.286345243
v -0.178061113 1.51030219 -0.178061247
v -0.141244993 1.26309669 -0.340995431
v -0.0963660404 1.51030219 -0.232648119
v -0.260986447 1.26309669 -0.260986626
v -0.142274484 1.24046671 -0.343481064
v -1.1920929E-07 1.24046671 -0.37178126
v -1.1920929E-07 1.26309669 -0.369090796
v -0.0963660404 1.51030219 -0.232648119
v -1.1920929E-07 1.51030219 -0.251816511
v -0.154795274 0.990209937 -0.373708844
v -1.1920929E-07 0.990209937 -0.40449965
v -0.262889028 1.24046671 -0.262889028
v -0.153040037 0.974356651 -0.36947155
v -1.1920929E-07 0.974200547 -0.39978385
v -0.286024302 0.990209937 -0.286024392
v -0.153332815 0.961172283 -0.370178103
v -1.1920929E-07 0.961172283 -0.400677979
v -0.157091245 0.944320261 -0.379251689
v -1.1920929E-07 0.944320261 -0.410499215
v -0.159458041 0.897014737 -0.384965658
v -1.1920929E-07 0.897014737 -0.416683912
v -1.1920929E-07 0.881989181 -0.411217183
v -0.283322096 0.961172283 -0.283322096
v -0.290266752 0.944320261 -0.290266752
v -0.28268981 0.974200547 -0.28268981
v -0.294639945 0.897014737 -0.294639945
v -0.343481064 1.24046671 -0.142274559
v -0.373708844 0.990209937 -0.154795274
v -0.340995312 1.26309669 -0.141244948
v -0.232648 1.51030219 -0.0963661671
v -0.178061113 1.51030219 -0.178061247
v -0.369090676 1.26309669 -1.1920929E-07
v -0.251816392 1.51030219 -1.1920929E-07
v -0.232648 1.51030219 -0.0963661671
v -0.37178123 1.24046671 -1.1920929E-07
v -0.404499501 0.990209937 -1.1920929E-07
v -0.369351983 0.974200547 -0.152990639
v -0.399783731 0.974200547 -1.1920929E-07
v -0.40067789 0.961172283 -1.1920929E-07
v -0.370178103 0.961172283 -0.153332815
v -0.283322096 0.961172283 -0.283322096
v -0.410499096 0.944320261 -1.1920929E-07
v -0.379251689 0.944320261 -0.157091245
v -0.290266752 0.944320261 -0.290266752
v -0.384965658 0.897014737 -0.159458041
v -0.416683793 0.897014737 -1.1920929E-07
v -0.379915118 0.881989181 -0.157366037
v -0.411217064 0.881989181 -1.1920929E-07
v -0.411828369 0.870505333 -1.1920929E-07
v -0.290774465 0.881989181 -0.290774465
v -0.291206717 0.870505333 -0.291206717
v -0.380479932 0.870505333 -0.157599926
v -0.42220974 0.854748368 -1.1920929E-07
v -0.298547387 0.854748368 -0.298547387
v -0.390070796 0.854748368 -0.16157268
v -0.504823685 0.299109399 0
v -0.466396272 0.299109399 -0.193187654
v -0.408749908 0.0926916599 1.1920929E-07
v -0.35696429 0.299109399 -0.35696429
v -0.377635598 0.0926916599 -0.156421661
v -0.323904991 0.0303527713 -0.13416554
v -0.350592256 0.0303527713 3.17891448E-07
v -0.264548421 0.00539088249 -0.109579138
v -0.286345005 0.00539088249 3.57627869E-07
v -0.202476606 0.00539088249 -0.202476129
v -0.247906178 0.0303527713 -0.247905821
v -0.109579444 0.00539088249 -0.264547944
v -0.289029717 0.0926916599 -0.289029717
v -0.134165809 0.0303527713 -0.323904634
v -1.1920929E-07 0.00539088249 -0.286344647
v -1.1920929E-07 0.0303527713 -0.350591838
v -0.156421766 0.0926916599 -0.377635479
v -1.1920929E-07 0.0926916599 -0.40874964
v -1.21611123E-07 0.299109399 -0.504823685
v -0.193187654 0.299109399 -0.466396242
v -1.1920929E-07 0.854748368 -0.42220974
v -0.161572561 0.854748368 -0.390070826
v -1.1920929E-07 0.870505333 -0.411828518
v -0.15760003 0.870505333 -0.380479872
v -0.291206717 0.870505333 -0.291206717
v -0.290774465 0.881989181 -0.290774465
v -0.157365903 0.881989181 -0.379915118
v 0.109578967 0.00539088249 -0.264548063
v -1.1920929E-07 0.0303527713 -0.350591838
v -1.1920929E-07 0.00539088249 -0.286344647
v 0.134165332 0.0303527713 -0.323904872
v 0.202476129 0.00539088249 -0.202476382
v -1.1920929E-07 0.0926916599 -0.40874964
v 0.247905836 0.0303527713 -0.247906134
v 0.264548182 0.00539088249 -0.109579444
v 0.156421289 0.0926916599 -0.377635717
v 0.323904753 0.0303527713 -0.134165898
v 0.286344886 0.00539088249 0
v 0.350592107 0.0303527713 -3.9736431E-08
v 0.289029479 0.0926916599 -0.289029956
v 0.37763533 0.0926916599 -0.156422019
v 0.408749908 0.0926916599 -2.38418579E-07
v 0.504823685 0.299109399 -4.86444492E-07
v 0.466396004 0.299109399 -0.193188205
v 0.42220962 0.854748368 -4.76837158E-07
v 0.193186924 0.299109399 -0.466396511
v -1.21611123E-07 0.299109399 -0.504823685
v -1.1920929E-07 0.854748368 -0.42220974
v 0.356963754 0.299109399 -0.356964648
v 0.29854691 0.854748368 -0.298547685
v 0.29854691 0.854748368 -0.298547685
v 0.390070558 0.854748368 -0.161573097
v 0.411828369 0.870505333 -4.76837158E-07
v 0.161572084 0.854748368 -0.390071124
v 0.291206241 0.870505333 -0.291207016
v 0.380479693 0.870505333 -0.157600403
v 0.290773988 0.881989181 -0.290774763
v 0.411217064 0.881989181 -4.76837158E-07
v 0.15759933 0.870505333 -0.380480111
v -1.1920929E-07 0.870505333 -0.411828518
v -1.1920929E-07 0.881989181 -0.411217183
v 0.37991488 0.881989181 -0.157366455
v 0.384965539 0.897014737 -0.159458458
v 0.416683793 0.897014737 -4.76837158E-07
v 0.157365426 0.881989181 -0.379915357
v 0.159457311 0.897014737 -0.384965897
v -1.1920929E-07 0.897014737 -0.416683912
v -1.1920929E-07 0.944320261 -0.410499215
v 0.379251599 0.944320261 -0.157091677
v 0.410498947 0.944320261 -4.76837158E-07
v 0.4006778 0.961172283 -4.76837158E-07
v 0.294639468 0.897014737 -0.294640303
v 0.157090545 0.944320261 -0.379251927
v 0.290266395 0.944320261 -0.29026711
v 0.290266395 0.944320261 -0.29026711
v 0.283321738 0.961172283 -0.283322453
v 0.370177865 0.961172283 -0.153333247
v 0.283321738 0.961172283 -0.283322453
v 0.399913162 0.974356651 -4.76837158E-07
v 0.153332338 0.961172283 -0.370178342
v -1.1920929E-07 0.961172283 -0.400677979
v 0.282689452 0.974200547 -0.282690167
v -1.1920929E-07 0.974200547 -0.39978385
v 0.369351715 0.974200547 -0.152991056
v 0.152989969 0.974200547 -0.369352251
v 0.154794797 0.990209937 -0.373709053
v -1.1920929E-07 0.990209937 -0.40449965
v 0.373708606 0.990209937 -0.154795751
v 0.404499382 0.990209937 -4.76837158E-07
v 0.286023974 0.990209937 -0.28602469
v 0.142274007 1.24046671 -0.343481272
v -1.1920929E-07 1.24046671 -0.37178126
v 0.343480945 1.24046671 -0.142274961
v 0.37178123 1.24046671 -3.57627869E-07
v 0.262888789 1.24046671 -0.262889385
v 0.141244292 1.26309669 -0.34099558
v -1.1920929E-07 1.26309669 -0.369090796
v -1.1920929E-07 1.51030219 -0.251816511
v 0.0963655636 1.51030219 -0.232648253
v 0.141244292 1.26309669 -0.34099558
v 0.260986209 1.26309669 -0.260986924
v 0.0963655636 1.51030219 -0.232648253
v 0.178060889 1.51030219 -0.178061485
v 0.260986209 1.26309669 -0.260986924
v 0.340995163 1.26309669 -0.141245365
v 0.178060889 1.51030219 -0.178061485
v 0.232647777 1.51030219 -0.0963663459
v 0.369090676 1.26309669 -4.76837158E-07
v 0.232647777 1.51030219 -0.0963663459
v 0.251816392 1.51030219 -3.57627869E-07
v 0.251816392 1.51030219 -3.57627869E-07
v 0.340995431 1.26309669 0.141244516
v 0.232648 1.51030219 0.0963655636
v 0.369090676 1.26309669 -4.76837158E-07
v 0.343481183 1.24046671 0.142274141
v 0.37178123 1.24046671 -3.57627869E-07
v 0.373708844 0.990209937 0.154794931
v 0.404499382 0.990209937 -4.76837158E-07
v 0.369352221 0.974200547 0.152990341
v 0.399913162 0.974356651 -4.76837158E-07
v 0.4006778 0.961172283 -4.76837158E-07
v 0.370178103 0.961172283 0.153332472
v 0.410498947 0.944320261 -4.76837158E-07
v 0.282781482 0.974356651 0.282781005
v 0.379251808 0.944320261 0.157090902
v 0.416683793 0.897014737 -4.76837158E-07
v 0.286024451 0.990209937 0.286024094
v 0.343481183 1.24046671 0.142274141
v 0.283322215 0.961172283 0.283321857
v 0.384965777 0.897014737 0.159457684
v 0.411217064 0.881989181 -4.76837158E-07
v 0.262889266 1.24046671 0.262888789
v 0.340995431 1.26309669 0.141244516
v 0.260986686 1.26309669 0.260986328
v 0.232648 1.51030219 0.0963655636
v 0.178061113 1.51030219 0.178060755
v 0.152990699 0.974200547 0.369351864
v 0.290266871 0.944320261 0.290266514
v 0.294640183 0.897014737 0.294639707
v 0.379915118 0.881989181 0.15736568
v 0.154795527 0.990209937 0.373708725
v 0.262889266 1.24046671 0.262888789
v 0.153333068 0.961172283 0.370177984
v 0.290266871 0.944320261 0.290266514
v 0.157091498 0.944320261 0.379251599
v 0.159458041 0.897014737 0.384965539
v 0.157366157 0.881989181 0.379914999
v 1.1920929E-07 0.974200547 0.399783731
v 0.142274737 1.24046671 0.343480945
v 0.260986686 1.26309669 0.260986328
v 0.141244993 1.26309669 0.340995163
v 0.178061113 1.51030219 0.178060755
v 0.0963660404 1.51030219 0.232647777
v 1.1920929E-07 0.990209937 0.404499501
v 1.1920929E-07 0.961172283 0.4006778
v 0.157091498 0.944320261 0.379251599
v 1.1920929E-07 0.944320261 0.410499096
v 1.1920929E-07 0.897014737 0.416683793
v -0.152990445 0.974200547 0.369351983
v 1.1920929E-07 1.24046671 0.371781111
v 0.141244993 1.26309669 0.340995163
v 1.1920929E-07 1.26309669 0.369090676
v 0.0963660404 1.51030219 0.232647777
v 1.1920929E-07 1.51030219 0.251816273
v -0.154795274 0.990209937 0.373708844
v -0.153332815 0.961172283 0.370178103
v 1.1920929E-07 0.944320261 0.410499096
v -0.142274484 1.24046671 0.343481064
v 1.1920929E-07 1.26309669 0.369090676
v -0.141244769 1.26309669 0.340995431
v 1.1920929E-07 1.51030219 0.251816273
v -0.0963660404 1.51030219 0.232647777
v -0.282781243 0.974356651 0.282781243
v -0.157091245 0.944320261 0.379251689
v -0.286024302 0.990209937 0.286024302
v -0.142274484 1.24046671 0.343481064
v -0.283322096 0.961172283 0.283321977
v -0.262889028 1.24046671 0.262888908
v -0.141244769 1.26309669 0.340995431
v -0.369352102 0.974200547 0.15299058
v -0.260986447 1.26309669 0.260986447
v -0.0963660404 1.51030219 0.232647777
v -0.178061113 1.51030219 0.178060889
v -0.373708844 0.990209937 0.15479517
v -0.343481064 1.24046671 0.14227438
v -0.260986447 1.26309669 0.260986447
v -0.340995431 1.26309669 0.141244769
v -0.178061113 1.51030219 0.178060889
v -0.232648 1.51030219 0.0963658094
v -0.404499501 0.990209937 -1.1920929E-07
v -0.37178123 1.24046671 -1.1920929E-07
v -0.369090676 1.26309669 -1.1920929E-07
v -0.232648 1.51030219 0.0963658094
v -0.251816392 1.51030219 -1.1920929E-07
v -0.399783731 0.974200547 -1.1920929E-07
v -0.370178103 0.961172283 0.15333271
v -0.40067789 0.961172283 -1.1920929E-07
v -0.379251808 0.944320261 0.157091141
v -0.410499096 0.944320261 -1.1920929E-07
v -0.290266752 0.944320261 0.290266633
v -0.384965777 0.897014737 0.159457922
v -0.416683793 0.897014737 -1.1920929E-07
v -0.294639945 0.897014737 0.294639945
v -0.290774465 0.881989181 0.290774345
v -0.379915118 0.881989181 0.157365903
v -0.411217064 0.881989181 -1.1920929E-07
v -0.379915118 0.881989181 0.157365903
v -0.411828369 0.870505333 -1.1920929E-07
v -0.380479932 0.870505333 0.157599807
v -0.390070915 0.854748368 0.161572561
v -0.42220974 0.854748368 -1.1920929E-07
v -0.504823685 0.299109399 0
v -0.380479932 0.870505333 0.157599807
v -0.466396272 0.299109399 0.193187654
v -0.159458041 0.897014737 0.384965658
v 1.1920929E-07 0.881989181 0.411217064
v -0.291206717 0.870505333 0.291206568
v -0.390070915 0.854748368 0.161572561
v -0.157365903 0.881989181 0.379915118
v -0.157599807 0.870505333 0.380479932
v -0.298547387 0.854748368 0.298547268
v -0.161572561 0.854748368 0.390070796
v -0.193187654 0.299109399 0.466396272
v 1.1920929E-07 0.870505333 0.411828369
v 1.1920929E-07 0.854748368 0.42220962
v -0.161572561 0.854748368 0.390070796
v 1.21611123E-07 0.299109399 0.504823685
v -0.35696429 0.299109399 0.35696429
v 0.15760003 0.870505333 0.380479693
v 1.1920929E-07 0.854748368 0.42220962
v 0.161572814 0.854748368 0.390070796
v -0.289029717 0.0926916599 0.289029956
v -0.156421766 0.0926916599 0.377635837
v 1.1920929E-07 0.0926916599 0.408750057
v -0.377635598 0.0926916599 0.1564219
v -0.408749908 0.0926916599 1.1920929E-07
v -0.350592256 0.0303527713 3.17891448E-07
v -0.323904991 0.0303527713 0.134166017
v -0.286345005 0.00539088249 3.57627869E-07
v -0.264548421 0.00539088249 0.109579802
v -0.247906178 0.0303527713 0.247906432
v -0.202476606 0.00539088249 0.202476859
v -0.134165809 0.0303527713 0.323905319
v -0.109579444 0.00539088249 0.264548659
v 1.1920929E-07 0.0303527713 0.350592524
v 1.1920929E-07 0.00539088249 0.286345243
v 0.156422019 0.0926916599 0.377635837
v 0.134166047 0.0303527713 0.3239052
v 0.109579444 0.00539088249 0.26454851
v 0.193187907 0.299109399 0.466396183
v 0.247906312 0.0303527713 0.247906283
v 0.202476606 0.00539088249 0.202476725
v 0.289029956 0.0926916599 0.289029717
v 0.356964529 0.299109399 0.356964022
v 0.323904991 0.0303527713 0.134165868
v 0.264548182 0.00539088249 0.109579563
v 0.377635598 0.0926916599 0.156421661
v 0.350592107 0.0303527713 -3.9736431E-08
v 0.286344886 0.00539088249 0
v 0.408749908 0.0926916599 -2.38418579E-07
v 0.466396272 0.299109399 0.193187296
v 0.504823685 0.299109399 -4.86444492E-07
v 0.42220962 0.854748368 -4.76837158E-07
v 0.298547626 0.854748368 0.298547149
v 0.291206717 0.870505333 0.291206479
v 0.390071034 0.854748368 0.161572337
v 0.298547626 0.854748368 0.298547149
v 0.380479932 0.870505333 0.157599553
v 0.411828369 0.870505333 -4.76837158E-07
v 0.290774703 0.881989181 0.290774226
v -0.0963660404 1.51030219 -0.232648119
v -1.1920929E-07 1.51030219 -0.251816511
v 0.0963655636 1.51030219 -0.232648253
v 0.178060889 1.51030219 -0.178061485
v -0.178061113 1.51030219 -0.178061247
v 0.232647777 1.51030219 -0.0963663459
v -0.232648 1.51030219 -0.0963661671
v 0.251816392 1.51030219 -3.57627869E-07
v -0.251816392 1.51030219 -1.1920929E-07
v 0.232648 1.51030219 0.0963655636
v -0.232648 1.51030219 0.0963658094
v 0.178061113 1.51030219 0.178060755
v -0.178061113 1.51030219 0.178060889
v 0.0963660404 1.51030219 0.232647777
v -0.0963660404 1.51030219 0.232647777
v 1.1920929E-07 1.51030219 0.251816273
vt 0.858886719 2.94140625
vt 1.09277344 2.98828125
vt 1.32714844 2.94140625
vt 0.66015625 2.80859375
vt 1.52539062 2.80859375
vt 0.52734375 2.61132812
vt 1.65820312 2.61132812
vt 0.480712891 2.37695312
vt 1.70507812 2.37695312
vt 0.52734375 2.14257812
vt 1.65820312 2.14257812
vt 0.66015625 1.94335938
vt 1.52539062 1.94335938
vt 0.858886719 1.81054688
vt 1.32714844 1.81054688
vt 1.09277344 1.76464844
vt 1.41308594 4.2890625
vt 1.57128906 4.1484375
vt 1.5703125 4.2890625
vt 1.41210938 4.1484375
vt 1.57128906 4.1328125
vt 1.73046875 4.1328125
vt 1.73046875 4.1484375
vt 1.57226562 4.2890625
vt 1.72949219 4.2890625
vt 1.57128906 4.046875
vt 1.73046875 4.046875
vt 1.41210938 4.1328125
vt 1.57128906 4.04296875
vt 1.73046875 4.04296875
vt 1.41210938 4.046875
vt 1.57128906 4.0390625
vt 1.73046875 4.0390625
vt 1.57128906 4.03125
vt 1.73046875 4.03125
vt 1.57128906 4.015625
vt 1.73046875 4.015625
vt 1.73046875 4.01171875
vt 1.41210938 4.0390625
vt 1.41210938 4.03125
vt 1.41210938 4.04296875
vt 1.41210938 4.015625
vt 1.25195312 4.1328125
vt 1.25195312 4.046875
vt 1.25195312 4.1484375
vt 1.25390625 4.2890625
vt 1.41015625 4.2890625
vt 1.09277344 4.1484375
vt 1.09472656 4.2890625
vt 1.25097656 4.2890625
vt 1.09277344 4.1328125
vt 1.09277344 4.046875
vt 1.25195312 4.04296875
vt 1.09277344 4.04296875
vt 1.09277344 4.0390625
vt 1.25195312 4.0390625
vt 1.41210938 4.0390625
vt 1.09277344 4.03125
vt 1.25195312 4.03125
vt 1.41210938 4.03125
vt 1.25195312 4.015625
vt 1.09277344 4.015625
vt 1.25195312 4.01171875
vt 1.09277344 4.01171875
vt 1.09277344 4.0078125
vt 1.41210938 4.01171875
vt 1.41210938 4.0078125
vt 1.25195312 4.0078125
vt 1.09277344 4.00390625
vt 1.41210938 4.00390625
vt 1.25195312 4.00390625
vt 1.09277344 3.81835938
vt 1.25195312 3.81835938
vt 1.09277344 3.46289062
vt 1.41210938 3.81835938
vt 1.25195312 3.46289062
vt 1.25195312 3.20507812
vt 1.09277344 3.20507812
vt 1.25195312 3.01367188
vt 1.09277344 3.01367188
vt 1.41210938 3.01367188
vt 1.41210938 3.20507812
vt 1.57128906 3.01367188
vt 1.41210938 3.46289062
vt 1.57128906 3.20507812
vt 1.73046875 3.01367188
vt 1.73046875 3.20507812
vt 1.57128906 3.46289062
vt 1.73046875 3.46289062
vt 1.73046875 3.81835938
vt 1.57128906 3.81835938
vt 1.73046875 4.00390625
vt 1.57128906 4.00390625
vt 1.73046875 4.0078125
vt 1.57128906 4.0078125
vt 1.41210938 4.0078125
vt 1.41210938 4.01171875
vt 1.57128906 4.01171875
vt -0.660644531 3.01367188
vt -0.819824219 3.20507812
vt -0.819824219 3.01367188
vt -0.660644531 3.20507812
vt -0.500976562 3.01367188
vt -0.819824219 3.46289062
vt -0.500976562 3.20507812
vt -0.341796875 3.01367188
vt -0.660644531 3.46289062
vt -0.341796875 3.20507812
vt -0.182373047 3.01367188
vt -0.182373047 3.20507812
vt -0.500976562 3.46289062
vt -0.341796875 3.46289062
vt -0.182373047 3.46289062
vt -0.182373047 3.81835938
vt -0.341796875 3.81835938
vt -0.182373047 4.00390625
vt -0.660644531 3.81835938
vt -0.819824219 3.81835938
vt -0.819824219 4.00390625
vt -0.500976562 3.81835938
vt -0.500976562 4.00390625
vt -0.500976562 4.00390625
vt -0.341796875 4.00390625
vt -0.182373047 4.0078125
vt -0.660644531 4.00390625
vt -0.500976562 4.0078125
vt -0.341796875 4.0078125
vt -0.500976562 4.01171875
vt -0.182373047 4.01171875
vt -0.660644531 4.0078125
vt -0.819824219 4.0078125
vt -0.819824219 4.01171875
vt -0.341796875 4.01171875
vt -0.341796875 4.015625
vt -0.182373047 4.015625
vt -0.660644531 4.01171875
vt -0.660644531 4.015625
vt -0.819824219 4.015625
vt -0.819824219 4.03125
vt -0.341796875 4.03125
vt -0.182373047 4.03125
vt -0.182373047 4.0390625
vt -0.500976562 4.015625
vt -0.660644531 4.03125
vt -0.500976562 4.03125
vt -0.500976562 4.03125
vt -0.500976562 4.0390625
vt -0.341796875 4.0390625
vt -0.500976562 4.0390625
vt -0.182373047 4.04296875
vt -0.660644531 4.0390625
vt -0.819824219 4.0390625
vt -0.500976562 4.04296875
vt -0.819824219 4.04296875
vt -0.341796875 4.04296875
vt -0.660644531 4.04296875
vt -0.660644531 4.046875
vt -0.819824219 4.046875
vt -0.341796875 4.046875
vt -0.182373047 4.046875
vt -0.500976562 4.046875
vt -0.660644531 4.1328125
vt -0.819824219 4.1328125
vt -0.341796875 4.1328125
vt -0.182373047 4.1328125
vt -0.500976562 4.1328125
vt -0.660644531 4.1484375
vt -0.819824219 4.1484375
vt -0.818847656 4.2890625
vt -0.662109375 4.2890625
vt -0.660644531 4.1484375
vt -0.500976562 4.1484375
vt -0.659179688 4.2890625
vt -0.502441406 4.2890625
vt -0.500976562 4.1484375
vt -0.341796875 4.1484375
vt -0.499755859 4.2890625
vt -0.343261719 4.2890625
vt -0.182373047 4.1484375
vt -0.340332031 4.2890625
vt -0.18371582 4.2890625
vt -0.181030273 4.2890625
vt -0.02293396 4.1484375
vt -0.0243225098 4.2890625
vt -0.182373047 4.1484375
vt -0.02293396 4.1328125
vt -0.182373047 4.1328125
vt -0.02293396 4.046875
vt -0.182373047 4.046875
vt -0.02293396 4.04296875
vt -0.182373047 4.04296875
vt -0.182373047 4.0390625
vt -0.02293396 4.0390625
vt -0.182373047 4.03125
vt 0.136474609 4.04296875
vt -0.02293396 4.03125
vt -0.182373047 4.015625
vt 0.136474609 4.046875
vt -0.02293396 4.1328125
vt 0.136474609 4.0390625
vt -0.02293396 4.015625
vt -0.182373047 4.01171875
vt 0.136474609 4.1328125
vt -0.02293396 4.1484375
vt 0.136474609 4.1484375
vt -0.0215606689 4.2890625
vt 0.135131836 4.2890625
vt 0.295898438 4.04296875
vt 0.136474609 4.03125
vt 0.136474609 4.015625
vt -0.02293396 4.01171875
vt 0.295898438 4.046875
vt 0.136474609 4.1328125
vt 0.295898438 4.0390625
vt 0.136474609 4.03125
vt 0.295898438 4.03125
vt 0.295898438 4.015625
vt 0.295898438 4.01171875
vt 0.455322266 4.04296875
vt 0.295898438 4.1328125
vt 0.136474609 4.1484375
vt 0.295898438 4.1484375
vt 0.137817383 4.2890625
vt 0.294433594 4.2890625
vt 0.455322266 4.046875
vt 0.455322266 4.0390625
vt 0.295898438 4.03125
vt 0.455322266 4.03125
vt 0.455322266 4.015625
vt 0.614746094 4.04296875
vt 0.455322266 4.1328125
vt 0.295898438 4.1484375
vt 0.455322266 4.1484375
vt 0.297363281 4.2890625
vt 0.453857422 4.2890625
vt 0.614746094 4.046875
vt 0.614746094 4.0390625
vt 0.455322266 4.03125
vt 0.614746094 4.1328125
vt 0.455322266 4.1484375
vt 0.614746094 4.1484375
vt 0.456787109 4.2890625
vt 0.61328125 4.2890625
vt 0.773925781 4.04296875
vt 0.614746094 4.03125
vt 0.773925781 4.046875
vt 0.614746094 4.1328125
vt 0.773925781 4.0390625
vt 0.773925781 4.1328125
vt 0.614746094 4.1484375
vt 0.93359375 4.04296875
vt 0.773925781 4.1484375
vt 0.616210938 4.2890625
vt 0.772949219 4.2890625
vt 0.93359375 4.046875
vt 0.93359375 4.1328125
vt 0.773925781 4.1484375
vt 0.93359375 4.1484375
vt 0.775390625 4.2890625
vt 0.932128906 4.2890625
vt 1.09277344 4.046875
vt 1.09277344 4.1328125
vt 1.09277344 4.1484375
vt 0.935058594 4.2890625
vt 1.09179688 4.2890625
vt 1.09277344 4.04296875
vt 0.93359375 4.0390625
vt 1.09277344 4.0390625
vt 0.93359375 4.03125
vt 1.09277344 4.03125
vt 0.773925781 4.03125
vt 0.93359375 4.015625
vt 1.09277344 4.015625
vt 0.773925781 4.015625
vt 0.773925781 4.01171875
vt 0.93359375 4.01171875
vt 1.09277344 4.01171875
vt 0.93359375 4.01171875
vt 1.09277344 4.0078125
vt 0.93359375 4.0078125
vt 0.93359375 4.00390625
vt 1.09277344 4.00390625
vt 1.09277344 3.81835938
vt 0.93359375 4.0078125
vt 0.93359375 3.81835938
vt 0.614746094 4.015625
vt 0.455322266 4.01171875
vt 0.773925781 4.0078125
vt 0.93359375 4.00390625
vt 0.614746094 4.01171875
vt 0.614746094 4.0078125
vt 0.773925781 4.00390625
vt 0.614746094 4.00390625
vt 0.614746094 3.81835938
vt 0.455322266 4.0078125
vt 0.455322266 4.00390625
vt 0.614746094 4.00390625
vt 0.455322266 3.81835938
vt 0.773925781 3.81835938
vt 0.295898438 4.0078125
vt 0.455322266 4.00390625
vt 0.295898438 4.00390625
vt 0.773925781 3.46289062
vt 0.614746094 3.46289062
vt 0.455322266 3.46289062
vt 0.93359375 3.46289062
vt 1.09277344 3.46289062
vt 1.09277344 3.20507812
vt 0.93359375 3.20507812
vt 1.09277344 3.01367188
vt 0.93359375 3.01367188
vt 0.773925781 3.20507812
vt 0.773925781 3.01367188
vt 0.614746094 3.20507812
vt 0.614746094 3.01367188
vt 0.455322266 3.20507812
vt 0.455322266 3.01367188
vt 0.295898438 3.46289062
vt 0.295898438 3.20507812
vt 0.295898438 3.01367188
vt 0.295898438 3.81835938
vt 0.136474609 3.20507812
vt 0.136474609 3.01367188
vt 0.136474609 3.46289062
vt 0.136474609 3.81835938
vt -0.02293396 3.20507812
vt -0.02293396 3.01367188
vt -0.02293396 3.46289062
vt -0.182373047 3.20507812
vt -0.182373047 3.01367188
vt -0.182373047 3.46289062
vt -0.02293396 3.81835938
vt -0.182373047 3.81835938
vt -0.182373047 4.00390625
vt 0.136474609 4.00390625
vt 0.136474609 4.0078125
vt -0.02293396 4.00390625
vt 0.136474609 4.00390625
vt -0.02293396 4.0078125
vt -0.182373047 4.0078125
vt 0.136474609 4.01171875
vt 0.0437927246 2.921875
vt -0.182373047 2.96679688
vt -0.408447266 2.921875
vt -0.600097656 2.79492188
vt 0.235473633 2.79492188
vt -0.728515625 2.6015625
vt 0.363525391 2.6015625
vt -0.7734375 2.37695312
vt 0.408691406 2.37695312
vt -0.728515625 2.15039062
vt 0.363525391 2.15039062
vt -0.600097656 1.95800781
vt 0.235473633 1.95800781
vt -0.408447266 1.83007812
vt 0.0437927246 1.83007812
vt -0.182373047 1.78515625
vn 0.078918457 -0.978515625 -0.190551758
vn -1.1920929E-07 -0.978515625 -0.206298828
vn -0.078918457 -0.978515625 -0.190551758
vn 0.145874023 -0.978515625 -0.145874023
vn -0.145874023 -0.978515625 -0.145874023
vn 0.190551758 -0.978515625 -0.078918457
vn -0.190551758 -0.978515625 -0.078918457
vn 0.206298828 -0.978515625 -1.1920929E-07
vn -0.206298828 -0.978515625 0
vn 0.190551758 -0.978515625 0.078918457
vn -0.190551758 -0.978515625 0.078918457
vn 0.145874023 -0.978515625 0.145874023
vn -0.145874023 -0.978515625 0.145874023
vn 0.078918457 -0.978515625 0.190551758
vn -0.078918457 -0.978515625 0.190551758
vn 1.1920929E-07 -0.978515625 0.206298828
vn -0.409423828 0.815429688 -0.409423828
vn -0.368164062 0.271728516 -0.889160156
vn -0.221557617 0.815429688 -0.534667969
vn -0.680664062 0.271728516 -0.680664062
vn -0.379638672 0.123962402 -0.916992188
vn -8.94069672E-07 0.123962402 -0.9921875
vn -7.15255737E-07 0.271728516 -0.962402344
vn -0.221557617 0.815429688 -0.534667969
vn -1.78813934E-07 0.815429688 -0.579101562
vn -0.381591797 -0.0750732422 -0.921386719
vn 3.03983688E-05 -0.0756225586 -0.997070312
vn -0.701660156 0.123962402 -0.701660156
vn -0.380126953 -0.112792969 -0.91796875
vn 0.000129461288 -0.111816406 -0.993652344
vn -0.705078125 -0.0756225586 -0.705078125
vn -0.365234375 0.299316406 -0.881347656
vn 9.07182693E-05 0.30078125 -0.953613281
vn -0.363037109 0.315673828 -0.876464844
vn -2.98023224E-07 0.315673828 -0.948730469
vn -0.380615234 -0.106201172 -0.918457031
vn -4.76837158E-07 -0.106201172 -0.994140625
vn -6.55651093E-07 -0.151123047 -0.98828125
vn -0.674316406 0.30078125 -0.674316406
vn -0.670898438 0.315673828 -0.670898438
vn -0.702636719 -0.111816406 -0.702636719
vn -0.703125 -0.106201172 -0.703125
vn -0.916992188 0.123962402 -0.379638672
vn -0.921386719 -0.0762329102 -0.381591797
vn -0.889160156 0.271728516 -0.368164062
vn -0.534667969 0.815429688 -0.221557617
vn -0.409423828 0.815429688 -0.409423828
vn -0.962402344 0.271728516 -1.1920929E-07
vn -0.579101562 0.815429688 -1.1920929E-07
vn -0.534667969 0.815429688 -0.221557617
vn -0.9921875 0.123962402 0
vn -0.997070312 -0.0762329102 0
vn -0.91796875 -0.111206055 -0.380371094
vn -0.993652344 -0.111206055 0
vn -0.953125 0.302001953 -4.76837158E-07
vn -0.880859375 0.302001953 -0.364746094
vn -0.674316406 0.30078125 -0.674316406
vn -0.948730469 0.315673828 -5.96046448E-07
vn -0.876464844 0.315673828 -0.363037109
vn -0.670898438 0.315673828 -0.670898438
vn -0.918457031 -0.106201172 -0.380615234
vn -0.994140625 -0.106201172 -1.1920929E-07
vn -0.913085938 -0.151123047 -0.378173828
vn -0.98828125 -0.151123047 2.98023224E-07
vn -0.946289062 0.322753906 0
vn -0.69921875 -0.151123047 -0.69921875
vn -0.669433594 0.322753906 -0.669433594
vn -0.874511719 0.322753906 -0.362304688
vn -0.9375 0.348388672 -2.98023224E-07
vn -0.662597656 0.348388672 -0.662597656
vn -0.866210938 0.348388672 -0.358642578
vn -0.990234375 -0.138671875 -1.1920929E-07
vn -0.915039062 -0.138671875 -0.37890625
vn -0.834960938 -0.550292969 0
vn -0.700195312 -0.138671875 -0.700195312
vn -0.771484375 -0.550292969 -0.319580078
vn -0.53515625 -0.814941406 -0.221679688
vn -0.579101562 -0.814941406 1.78813934E-07
vn -0.190551758 -0.978515625 -0.078918457
vn -0.206298828 -0.978515625 0
vn -0.145874023 -0.978515625 -0.145874023
vn -0.409667969 -0.814941406 -0.409667969
vn -0.078918457 -0.978515625 -0.190551758
vn -0.590332031 -0.550292969 -0.590332031
vn -0.221679688 -0.814941406 -0.53515625
vn -1.1920929E-07 -0.978515625 -0.206298828
vn -3.57627869E-07 -0.814941406 -0.579101562
vn -0.319580078 -0.550292969 -0.771484375
vn -4.76837158E-07 -0.550292969 -0.834960938
vn -4.76837158E-07 -0.138671875 -0.990234375
vn -0.37890625 -0.138671875 -0.915039062
vn -5.96046448E-07 0.348388672 -0.9375
vn -0.358642578 0.348388672 -0.866210938
vn -7.74860382E-07 0.322753906 -0.946289062
vn -0.362304688 0.322753906 -0.874511719
vn -0.669433594 0.322753906 -0.669433594
vn -0.69921875 -0.151123047 -0.69921875
vn -0.378173828 -0.151123047 -0.913085938
vn 0.078918457 -0.978515625 -0.190551758
vn -3.57627869E-07 -0.814941406 -0.579101562
vn -1.1920929E-07 -0.978515625 -0.206298828
vn 0.221679688 -0.814941406 -0.53515625
vn 0.145874023 -0.978515625 -0.145874023
vn -4.76837158E-07 -0.550292969 -0.834960938
vn 0.409667969 -0.814941406 -0.409667969
vn 0.190551758 -0.978515625 -0.078918457
vn 0.319580078 -0.550292969 -0.771484375
vn 0.53515625 -0.814941406 -0.221679688
vn 0.206298828 -0.978515625 -1.1920929E-07
vn 0.579101562 -0.814941406 -3.57627869E-07
vn 0.590332031 -0.550292969 -0.590332031
vn 0.771484375 -0.550292969 -0.319580078
vn 0.834960938 -0.550292969 -7.15255737E-07
vn 0.990234375 -0.138671875 -9.53674316E-07
vn 0.915039062 -0.138671875 -0.37890625
vn 0.9375 0.348388672 -9.53674316E-07
vn 0.37890625 -0.138671875 -0.915039062
vn -4.76837158E-07 -0.138671875 -0.990234375
vn -5.96046448E-07 0.348388672 -0.9375
vn 0.700195312 -0.138671875 -0.700195312
vn 0.662597656 0.348388672 -0.662597656
vn 0.662597656 0.348388672 -0.662597656
vn 0.866210938 0.348388672 -0.358642578
vn 0.946289062 0.322753906 -1.49011612E-06
vn 0.358642578 0.348388672 -0.866210938
vn 0.669433594 0.322753906 -0.669433594
vn 0.874511719 0.322753906 -0.362304688
vn 0.69921875 -0.151123047 -0.69921875
vn 0.98828125 -0.151123047 -1.1920929E-06
vn 0.362304688 0.322753906 -0.874511719
vn -7.74860382E-07 0.322753906 -0.946289062
vn -6.55651093E-07 -0.151123047 -0.98828125
vn 0.913085938 -0.151123047 -0.378173828
vn 0.918457031 -0.106201172 -0.380615234
vn 0.994140625 -0.106201172 -4.76837158E-07
vn 0.378173828 -0.151123047 -0.913085938
vn 0.380615234 -0.106201172 -0.918457031
vn -4.76837158E-07 -0.106201172 -0.994140625
vn -2.98023224E-07 0.315673828 -0.948730469
vn 0.876464844 0.315673828 -0.363037109
vn 0.948730469 0.315673828 -1.07288361E-06
vn 0.954101562 0.299316406 -1.43051147E-06
vn 0.703125 -0.106201172 -0.703125
vn 0.363037109 0.315673828 -0.876464844
vn 0.670898438 0.315673828 -0.670898438
vn 0.670898438 0.315673828 -0.670898438
vn 0.674316406 0.302001953 -0.674316406
vn 0.880859375 0.30078125 -0.364990234
vn 0.674316406 0.302001953 -0.674316406
vn 0.993652344 -0.112792969 -8.34465027E-07
vn 0.364746094 0.302001953 -0.880859375
vn 9.07182693E-05 0.30078125 -0.953613281
vn 0.702636719 -0.111206055 -0.702636719
vn 0.000129461288 -0.111816406 -0.993652344
vn 0.91796875 -0.111816406 -0.380371094
vn 0.380371094 -0.111206055 -0.91796875
vn 0.381591797 -0.0762329102 -0.921386719
vn 3.03983688E-05 -0.0756225586 -0.997070312
vn 0.921386719 -0.0756225586 -0.381591797
vn 0.997070312 -0.0750732422 -5.96046448E-07
vn 0.705078125 -0.0762329102 -0.705078125
vn 0.379638672 0.123962402 -0.916992188
vn -8.94069672E-07 0.123962402 -0.9921875
vn 0.916992188 0.123962402 -0.379638672
vn 0.9921875 0.123962402 -4.76837158E-07
vn 0.701660156 0.123962402 -0.701660156
vn 0.368164062 0.271728516 -0.889160156
vn -7.15255737E-07 0.271728516 -0.962402344
vn -1.78813934E-07 0.815429688 -0.579101562
vn 0.221557617 0.815429688 -0.534667969
vn 0.368164062 0.271728516 -0.889160156
vn 0.680664062 0.271728516 -0.680664062
vn 0.221557617 0.815429688 -0.534667969
vn 0.409423828 0.815429688 -0.409423828
vn 0.680664062 0.271728516 -0.680664062
vn 0.889160156 0.271728516 -0.368164062
vn 0.409423828 0.815429688 -0.409423828
vn 0.534667969 0.815429688 -0.221557617
vn 0.962402344 0.271728516 -1.25169754E-06
vn 0.534667969 0.815429688 -0.221557617
vn 0.579101562 0.815429688 -5.36441803E-07
vn 0.579101562 0.815429688 -5.36441803E-07
vn 0.889160156 0.271728516 0.368164062
vn 0.534667969 0.815429688 0.221557617
vn 0.962402344 0.271728516 -1.25169754E-06
vn 0.916992188 0.123962402 0.379638672
vn 0.9921875 0.123962402 -4.76837158E-07
vn 0.921386719 -0.075012207 0.381591797
vn 0.997070312 -0.0750732422 -5.96046448E-07
vn 0.91796875 -0.112487793 0.380371094
vn 0.993652344 -0.112792969 -8.34465027E-07
vn 0.954101562 0.299316406 -1.43051147E-06
vn 0.881347656 0.299560547 0.365234375
vn 0.948730469 0.315673828 -1.07288361E-06
vn 0.702636719 -0.112792969 0.702636719
vn 0.876464844 0.315673828 0.363037109
vn 0.994140625 -0.106201172 -4.76837158E-07
vn 0.705078125 -0.0750732422 0.705078125
vn 0.916992188 0.123962402 0.379638672
vn 0.674804688 0.299316406 0.674804688
vn 0.918457031 -0.106201172 0.380615234
vn 0.98828125 -0.151123047 -1.1920929E-06
vn 0.701660156 0.123962402 0.701660156
vn 0.889160156 0.271728516 0.368164062
vn 0.680664062 0.271728516 0.680664062
vn 0.534667969 0.815429688 0.221557617
vn 0.409423828 0.815429688 0.409423828
vn 0.380126953 -0.111816406 0.91796875
vn 0.670898438 0.315673828 0.670898438
vn 0.703125 -0.106201172 0.703125
vn 0.913085938 -0.151123047 0.378173828
vn 0.381591797 -0.0756225586 0.921386719
vn 0.701660156 0.123962402 0.701660156
vn 0.364990234 0.30078125 0.881347656
vn 0.670898438 0.315673828 0.670898438
vn 0.363037109 0.315673828 0.876464844
vn 0.380615234 -0.106201172 0.918457031
vn 0.378173828 -0.151123047 0.913085938
vn -0 -0.111206055 0.993652344
vn 0.379638672 0.123962402 0.916992188
vn 0.680664062 0.271728516 0.680664062
vn 0.368164062 0.271728516 0.889160156
vn 0.409423828 0.815429688 0.409423828
vn 0.221557617 0.815429688 0.534667969
vn 1.78813934E-07 -0.0762329102 0.997070312
vn 2.98023224E-07 0.302001953 0.953125
vn 0.363037109 0.315673828 0.876464844
vn 4.17232513E-07 0.315673828 0.948730469
vn 3.57627869E-07 -0.106201172 0.994140625
vn -0.380126953 -0.111816406 0.91796875
vn 4.76837158E-07 0.123962402 0.9921875
vn 0.368164062 0.271728516 0.889160156
vn 5.36441803E-07 0.271728516 0.962402344
vn 0.221557617 0.815429688 0.534667969
vn 3.57627869E-07 0.815429688 0.579101562
vn -0.381591797 -0.0756225586 0.921386719
vn -0.364990234 0.30078125 0.881347656
vn 4.17232513E-07 0.315673828 0.948730469
vn -0.379638672 0.123962402 0.916992188
vn 5.36441803E-07 0.271728516 0.962402344
vn -0.368164062 0.271728516 0.889160156
vn 3.57627869E-07 0.815429688 0.579101562
vn -0.221557617 0.815429688 0.534667969
vn -0.702636719 -0.112792969 0.702636719
vn -0.363037109 0.315673828 0.876464844
vn -0.705078125 -0.0750732422 0.705078125
vn -0.379638672 0.123962402 0.916992188
vn -0.674804688 0.299316406 0.674804688
vn -0.701660156 0.123962402 0.701660156
vn -0.368164062 0.271728516 0.889160156
vn -0.91796875 -0.111816406 0.380126953
vn -0.680664062 0.271728516 0.680664062
vn -0.221557617 0.815429688 0.534667969
vn -0.409423828 0.815429688 0.409423828
vn -0.921386719 -0.0756225586 0.381591797
vn -0.916992188 0.123962402 0.379638672
vn -0.680664062 0.271728516 0.680664062
vn -0.889160156 0.271728516 0.368164062
vn -0.409423828 0.815429688 0.409423828
vn -0.534667969 0.815429688 0.221557617
vn -0.997070312 -0.0762329102 0
vn -0.9921875 0.123962402 0
vn -0.962402344 0.271728516 -1.1920929E-07
vn -0.534667969 0.815429688 0.221557617
vn -0.579101562 0.815429688 -1.1920929E-07
vn -0.993652344 -0.111206055 0
vn -0.881347656 0.30078125 0.364990234
vn -0.953125 0.302001953 -4.76837158E-07
vn -0.876464844 0.315673828 0.363037109
vn -0.948730469 0.315673828 -5.96046448E-07
vn -0.670898438 0.315673828 0.670898438
vn -0.918457031 -0.106201172 0.380615234
vn -0.994140625 -0.106201172 -1.1920929E-07
vn -0.703125 -0.106201172 0.703125
vn -0.69921875 -0.151123047 0.69921875
vn -0.913085938 -0.151123047 0.378173828
vn -0.98828125 -0.151123047 2.98023224E-07
vn -0.913085938 -0.151123047 0.378173828
vn -0.946289062 0.322753906 0
vn -0.874511719 0.322753906 0.362304688
vn -0.866210938 0.348388672 0.358642578
vn -0.9375 0.348388672 -2.98023224E-07
vn -0.990234375 -0.138671875 -1.1920929E-07
vn -0.874511719 0.322753906 0.362304688
vn -0.915039062 -0.138671875 0.37890625
vn -0.380615234 -0.106201172 0.918457031
vn 7.15255737E-07 -0.151123047 0.98828125
vn -0.669433594 0.322753906 0.669433594
vn -0.866210938 0.348388672 0.358642578
vn -0.378173828 -0.151123047 0.913085938
vn -0.362304688 0.322753906 0.874511719
vn -0.662597656 0.348388672 0.662597656
vn -0.358642578 0.348388672 0.866210938
vn -0.37890625 -0.138671875 0.915039062
vn 4.17232513E-07 0.322753906 0.946289062
vn -0 0.348388672 0.9375
vn -0.358642578 0.348388672 0.866210938
vn 1.78813934E-07 -0.138671875 0.990234375
vn -0.700195312 -0.138671875 0.700195312
vn 0.362304688 0.322753906 0.874511719
vn -0 0.348388672 0.9375
vn 0.358642578 0.348388672 0.866210938
vn -0.590332031 -0.550292969 0.590332031
vn -0.319580078 -0.550292969 0.771484375
vn 1.1920929E-07 -0.550292969 0.834960938
vn -0.771484375 -0.550292969 0.319580078
vn -0.834960938 -0.550292969 0
vn -0.579101562 -0.814941406 1.78813934E-07
vn -0.53515625 -0.814941406 0.221679688
vn -0.206298828 -0.978515625 0
vn -0.190551758 -0.978515625 0.078918457
vn -0.409667969 -0.814941406 0.409667969
vn -0.145874023 -0.978515625 0.145874023
vn -0.221679688 -0.814941406 0.53515625
vn -0.078918457 -0.978515625 0.190551758
vn 1.1920929E-07 -0.814941406 0.579101562
vn 1.1920929E-07 -0.978515625 0.206298828
vn 0.319580078 -0.550292969 0.771484375
vn 0.221679688 -0.814941406 0.53515625
vn 0.078918457 -0.978515625 0.190551758
vn 0.37890625 -0.138671875 0.915039062
vn 0.409667969 -0.814941406 0.409667969
vn 0.145874023 -0.978515625 0.145874023
vn 0.590332031 -0.550292969 0.590332031
vn 0.700195312 -0.138671875 0.700195312
vn 0.53515625 -0.814941406 0.221679688
vn 0.190551758 -0.978515625 0.078918457
vn 0.771484375 -0.550292969 0.319580078
vn 0.579101562 -0.814941406 -3.57627869E-07
vn 0.206298828 -0.978515625 -1.1920929E-07
vn 0.834960938 -0.550292969 -7.15255737E-07
vn 0.915039062 -0.138671875 0.37890625
vn 0.990234375 -0.138671875 -9.53674316E-07
vn 0.9375 0.348388672 -9.53674316E-07
vn 0.662597656 0.348388672 0.662597656
vn 0.669433594 0.322753906 0.669433594
vn 0.866210938 0.348388672 0.358642578
vn 0.662597656 0.348388672 0.662597656
vn 0.874511719 0.322753906 0.362304688
vn 0.946289062 0.322753906 -1.49011612E-06
vn 0.69921875 -0.151123047 0.69921875
vn -0.221557617 0.815429688 -0.534667969
vn -1.78813934E-07 0.815429688 -0.579101562
vn 0.221557617 0.815429688 -0.534667969
vn 0.409423828 0.815429688 -0.409423828
vn -0.409423828 0.815429688 -0.409423828
vn 0.534667969 0.815429688 -0.221557617
vn -0.534667969 0.815429688 -0.221557617
vn 0.579101562 0.815429688 -5.36441803E-07
vn -0.579101562 0.815429688 -1.1920929E-07
vn 0.534667969 0.815429688 0.221557617
vn -0.534667969 0.815429688 0.221557617
vn 0.409423828 0.815429688 0.409423828
vn -0.409423828 0.815429688 0.409423828
vn 0.221557617 0.815429688 0.534667969
vn -0.221557617 0.815429688 0.534667969
vn 3.57627869E-07 0.815429688 0.579101562
g TableLegs_1_0
f 3/3/3 2/2/2 1/1/1
f 1/1/1 4/4/4 3/3/3
f 4/4/4 5/5/5 3/3/3
f 4/4/4 6/6/6 5/5/5
f 6/6/6 7/7/7 5/5/5
f 6/6/6 8/8/8 7/7/7
f 8/8/8 9/9/9 7/7/7
f 8/8/8 10/10/10 9/9/9
f 10/10/10 11/11/11 9/9/9
f 10/10/10 12/12/12 11/11/11
f 12/12/12 13/13/13 11/11/11
f 12/12/12 14/14/14 13/13/13
f 14/14/14 15/15/15 13/13/13
f 14/14/14 16/16/16 15/15/15
f 19/19/19 18/18/18 17/17/17
f 18/18/18 20/20/20 17/17/17
f 20/20/20 18/18/18 21/21/21
f 21/21/21 18/18/18 22/22/22
f 18/18/18 23/23/23 22/22/22
f 23/23/23 18/18/18 24/24/24
f 25/25/25 23/23/23 24/24/24
f 26/26/26 21/21/21 22/22/22
f 27/27/27 26/26/26 22/22/22
f 28/28/28 20/20/20 21/21/21
f 28/28/28 21/21/21 26/26/26
f 29/29/29 26/26/26 27/27/27
f 30/30/30 29/29/29 27/27/27
f 31/31/31 28/28/28 26/26/26
f 31/31/31 26/26/26 29/29/29
f 32/32/32 29/29/29 30/30/30
f 33/33/33 32/32/32 30/30/30
f 32/32/32 33/33/33 34/34/34
f 33/33/33 35/35/35 34/34/34
f 36/36/36 34/34/34 35/35/35
f 37/37/37 36/36/36 35/35/35
f 36/36/36 37/37/37 38/38/38
f 29/29/29 32/32/32 39/39/39
f 39/39/39 32/32/32 40/40/40
f 32/32/32 34/34/34 40/40/40
f 41/41/41 29/29/29 39/39/39
f 41/41/41 31/31/31 29/29/29
f 40/40/40 34/34/34 42/42/42
f 34/34/34 36/36/36 42/42/42
f 43/43/43 28/28/28 31/31/31
f 44/44/44 31/31/31 41/41/41
f 44/44/44 43/43/43 31/31/31
f 43/43/43 45/45/45 28/28/28
f 45/45/45 20/20/20 28/28/28
f 20/20/20 45/45/45 46/46/46
f 47/47/47 20/20/20 46/46/46
f 48/48/48 45/45/45 43/43/43
f 45/45/45 48/48/48 49/49/49
f 50/50/50 45/45/45 49/49/49
f 51/51/51 48/48/48 43/43/43
f 51/51/51 43/43/43 44/44/44
f 52/52/52 51/51/51 44/44/44
f 52/52/52 44/44/44 53/53/53
f 53/53/53 44/44/44 41/41/41
f 54/54/54 52/52/52 53/53/53
f 54/54/54 53/53/53 55/55/55
f 53/53/53 41/41/41 56/56/56
f 53/53/53 56/56/56 55/55/55
f 41/41/41 57/57/57 56/56/56
f 55/55/55 56/56/56 58/58/58
f 56/56/56 57/57/57 59/59/59
f 56/56/56 59/59/59 58/58/58
f 57/57/57 60/60/60 59/59/59
f 58/58/58 59/59/59 61/61/61
f 59/59/59 60/60/60 61/61/61
f 62/62/62 58/58/58 61/61/61
f 62/62/62 61/61/61 63/63/63
f 60/60/60 42/42/42 61/61/61
f 63/63/63 61/61/61 42/42/42
f 64/64/64 62/62/62 63/63/63
f 64/64/64 63/63/63 65/65/65
f 66/66/66 63/63/63 42/42/42
f 66/66/66 67/67/67 63/63/63
f 63/63/63 68/68/68 65/65/65
f 67/67/67 68/68/68 63/63/63
f 65/65/65 68/68/68 69/69/69
f 67/67/67 70/70/70 68/68/68
f 68/68/68 71/71/71 69/69/69
f 70/70/70 71/71/71 68/68/68
f 69/69/69 71/71/71 72/72/72
f 71/71/71 73/73/73 72/72/72
f 74/74/74 72/72/72 73/73/73
f 73/73/73 71/71/71 75/75/75
f 71/71/71 70/70/70 75/75/75
f 76/76/76 74/74/74 73/73/73
f 76/76/76 73/73/73 75/75/75
f 76/76/76 77/77/77 74/74/74
f 77/77/77 78/78/78 74/74/74
f 78/78/78 77/77/77 79/79/79
f 80/80/80 78/78/78 79/79/79
f 79/79/79 77/77/77 81/81/81
f 77/77/77 82/82/82 81/81/81
f 82/82/82 77/77/77 76/76/76
f 81/81/81 82/82/82 83/83/83
f 84/84/84 76/76/76 75/75/75
f 84/84/84 82/82/82 76/76/76
f 82/82/82 85/85/85 83/83/83
f 85/85/85 82/82/82 84/84/84
f 83/83/83 85/85/85 86/86/86
f 85/85/85 87/87/87 86/86/86
f 87/87/87 85/85/85 88/88/88
f 88/88/88 85/85/85 84/84/84
f 89/89/89 87/87/87 88/88/88
f 89/89/89 88/88/88 90/90/90
f 84/84/84 75/75/75 91/91/91
f 88/88/88 84/84/84 91/91/91
f 88/88/88 91/91/91 90/90/90
f 92/92/92 90/90/90 91/91/91
f 75/75/75 70/70/70 91/91/91
f 93/93/93 92/92/92 91/91/91
f 70/70/70 93/93/93 91/91/91
f 94/94/94 92/92/92 93/93/93
f 95/95/95 93/93/93 70/70/70
f 95/95/95 94/94/94 93/93/93
f 96/96/96 95/95/95 70/70/70
f 38/38/38 94/94/94 95/95/95
f 95/95/95 96/96/96 97/97/97
f 98/98/98 38/38/38 95/95/95
f 98/98/98 95/95/95 97/97/97
f 98/98/98 36/36/36 38/38/38
f 98/98/98 97/97/97 36/36/36
f 97/97/97 42/42/42 36/36/36
f 101/101/101 100/100/100 99/99/99
f 100/100/100 102/102/102 99/99/99
f 99/99/99 102/102/102 103/103/103
f 102/102/102 100/100/100 104/104/104
f 102/102/102 105/105/105 103/103/103
f 103/103/103 105/105/105 106/106/106
f 107/107/107 102/102/102 104/104/104
f 105/105/105 102/102/102 107/107/107
f 105/105/105 108/108/108 106/106/106
f 106/106/106 108/108/108 109/109/109
f 108/108/108 110/110/110 109/109/109
f 108/108/108 105/105/105 111/111/111
f 111/111/111 105/105/105 107/107/107
f 110/110/110 108/108/108 112/112/112
f 112/112/112 108/108/108 111/111/111
f 113/113/113 110/110/110 112/112/112
f 113/113/113 112/112/112 114/114/114
f 112/112/112 115/115/115 114/114/114
f 112/112/112 111/111/111 115/115/115
f 116/116/116 114/114/114 115/115/115
f 107/107/107 104/104/104 117/117/117
f 104/104/104 118/118/118 117/117/117
f 118/118/118 119/119/119 117/117/117
f 111/111/111 107/107/107 120/120/120
f 111/111/111 120/120/120 115/115/115
f 107/107/107 117/117/117 120/120/120
f 121/121/121 120/120/120 117/117/117
f 120/120/120 122/122/122 115/115/115
f 123/123/123 116/116/116 115/115/115
f 122/122/122 123/123/123 115/115/115
f 116/116/116 123/123/123 124/124/124
f 125/125/125 121/121/121 117/117/117
f 119/119/119 125/125/125 117/117/117
f 126/126/126 121/121/121 125/125/125
f 127/127/127 123/123/123 122/122/122
f 123/123/123 127/127/127 124/124/124
f 126/126/126 127/127/127 122/122/122
f 127/127/127 126/126/126 128/128/128
f 129/129/129 124/124/124 127/127/127
f 130/130/130 125/125/125 119/119/119
f 130/130/130 126/126/126 125/125/125
f 128/128/128 126/126/126 130/130/130
f 131/131/131 130/130/130 119/119/119
f 130/130/130 131/131/131 132/132/132
f 133/133/133 129/129/129 127/127/127
f 133/133/133 127/127/127 128/128/128
f 133/133/133 134/134/134 129/129/129
f 133/133/133 128/128/128 134/134/134
f 134/134/134 135/135/135 129/129/129
f 136/136/136 130/130/130 132/132/132
f 136/136/136 128/128/128 130/130/130
f 136/136/136 132/132/132 137/137/137
f 136/136/136 137/137/137 128/128/128
f 132/132/132 138/138/138 137/137/137
f 138/138/138 139/139/139 137/137/137
f 134/134/134 140/140/140 135/135/135
f 140/140/140 141/141/141 135/135/135
f 142/142/142 141/141/141 140/140/140
f 128/128/128 143/143/143 134/134/134
f 137/137/137 143/143/143 128/128/128
f 140/140/140 134/134/134 143/143/143
f 139/139/139 144/144/144 137/137/137
f 137/137/137 144/144/144 143/143/143
f 144/144/144 145/145/145 143/143/143
f 146/146/146 140/140/140 143/143/143
f 147/147/147 145/145/145 144/144/144
f 148/148/148 142/142/142 140/140/140
f 148/148/148 140/140/140 146/146/146
f 149/149/149 148/148/148 146/146/146
f 150/150/150 142/142/142 148/148/148
f 151/151/151 144/144/144 139/139/139
f 151/151/151 147/147/147 144/144/144
f 152/152/152 151/151/151 139/139/139
f 153/153/153 147/147/147 151/151/151
f 151/151/151 152/152/152 154/154/154
f 155/155/155 148/148/148 149/149/149
f 155/155/155 150/150/150 148/148/148
f 153/153/153 155/155/155 149/149/149
f 156/156/156 151/151/151 154/154/154
f 156/156/156 153/153/153 151/151/151
f 156/156/156 154/154/154 157/157/157
f 156/156/156 157/157/157 153/153/153
f 154/154/154 158/158/158 157/157/157
f 155/155/155 159/159/159 150/150/150
f 159/159/159 160/160/160 150/150/150
f 153/153/153 161/161/161 155/155/155
f 157/157/157 161/161/161 153/153/153
f 161/161/161 159/159/159 155/155/155
f 162/162/162 157/157/157 158/158/158
f 157/157/157 162/162/162 161/161/161
f 163/163/163 162/162/162 158/158/158
f 159/159/159 164/164/164 160/160/160
f 164/164/164 165/165/165 160/160/160
f 161/161/161 166/166/166 159/159/159
f 162/162/162 166/166/166 161/161/161
f 166/166/166 164/164/164 159/159/159
f 162/162/162 163/163/163 167/167/167
f 163/163/163 168/168/168 167/167/167
f 167/167/167 168/168/168 169/169/169
f 170/170/170 167/167/167 169/169/169
f 162/162/162 171/171/171 166/166/166
f 171/171/171 172/172/172 166/166/166
f 172/172/172 171/171/171 173/173/173
f 174/174/174 172/172/172 173/173/173
f 166/166/166 175/175/175 164/164/164
f 164/164/164 176/176/176 165/165/165
f 175/175/175 176/176/176 164/164/164
f 176/176/176 175/175/175 177/177/177
f 178/178/178 176/176/176 177/177/177
f 176/176/176 179/179/179 165/165/165
f 179/179/179 176/176/176 180/180/180
f 181/181/181 179/179/179 180/180/180
f 184/184/184 183/183/183 182/182/182
f 183/183/183 185/185/185 182/182/182
f 185/185/185 183/183/183 186/186/186
f 187/187/187 185/185/185 186/186/186
f 187/187/187 186/186/186 188/188/188
f 189/189/189 187/187/187 188/188/188
f 189/189/189 188/188/188 190/190/190
f 191/191/191 189/189/189 190/190/190
f 191/191/191 190/190/190 192/192/192
f 190/190/190 193/193/193 192/192/192
f 192/192/192 193/193/193 194/194/194
f 190/190/190 188/188/188 195/195/195
f 190/190/190 195/195/195 193/193/193
f 193/193/193 196/196/196 194/194/194
f 194/194/194 196/196/196 197/197/197
f 188/188/188 198/198/198 195/195/195
f 188/188/188 199/199/199 198/198/198
f 195/195/195 200/200/200 193/193/193
f 193/193/193 200/200/200 196/196/196
f 196/196/196 201/201/201 197/197/197
f 202/202/202 197/197/197 201/201/201
f 199/199/199 203/203/203 198/198/198
f 199/199/199 204/204/204 203/203/203
f 204/204/204 205/205/205 203/203/203
f 205/205/205 204/204/204 206/206/206
f 207/207/207 205/205/205 206/206/206
f 195/195/195 198/198/198 208/208/208
f 195/195/195 208/208/208 200/200/200
f 200/200/200 209/209/209 196/196/196
f 196/196/196 209/209/209 201/201/201
f 209/209/209 210/210/210 201/201/201
f 211/211/211 202/202/202 201/201/201
f 211/211/211 201/201/201 210/210/210
f 198/198/198 212/212/212 208/208/208
f 198/198/198 213/213/213 212/212/212
f 208/208/208 214/214/214 200/200/200
f 200/200/200 214/214/214 215/215/215
f 214/214/214 216/216/216 215/215/215
f 215/215/215 216/216/216 217/217/217
f 210/210/210 215/215/215 217/217/217
f 210/210/210 217/217/217 218/218/218
f 208/208/208 219/219/219 214/214/214
f 208/208/208 212/212/212 219/219/219
f 213/213/213 220/220/220 212/212/212
f 213/213/213 221/221/221 220/220/220
f 221/221/221 222/222/222 220/220/220
f 222/222/222 221/221/221 223/223/223
f 224/224/224 222/222/222 223/223/223
f 212/212/212 220/220/220 225/225/225
f 212/212/212 225/225/225 219/219/219
f 219/219/219 226/226/226 214/214/214
f 214/214/214 226/226/226 227/227/227
f 227/227/227 228/228/228 217/217/217
f 226/226/226 228/228/228 227/227/227
f 228/228/228 229/229/229 217/217/217
f 218/218/218 217/217/217 229/229/229
f 219/219/219 230/230/230 226/226/226
f 219/219/219 225/225/225 230/230/230
f 220/220/220 231/231/231 225/225/225
f 220/220/220 232/232/232 231/231/231
f 232/232/232 233/233/233 231/231/231
f 233/233/233 232/232/232 234/234/234
f 235/235/235 233/233/233 234/234/234
f 225/225/225 231/231/231 236/236/236
f 225/225/225 236/236/236 230/230/230
f 230/230/230 237/237/237 226/226/226
f 226/226/226 237/237/237 238/238/238
f 231/231/231 239/239/239 236/236/236
f 231/231/231 240/240/240 239/239/239
f 240/240/240 241/241/241 239/239/239
f 241/241/241 240/240/240 242/242/242
f 243/243/243 241/241/241 242/242/242
f 230/230/230 236/236/236 244/244/244
f 230/230/230 244/244/244 237/237/237
f 237/237/237 245/245/245 238/238/238
f 238/238/238 245/245/245 229/229/229
f 236/236/236 246/246/246 244/244/244
f 236/236/236 247/247/247 246/246/246
f 244/244/244 248/248/248 237/237/237
f 237/237/237 248/248/248 245/245/245
f 247/247/247 249/249/249 246/246/246
f 247/247/247 250/250/250 249/249/249
f 244/244/244 246/246/246 251/251/251
f 244/244/244 251/251/251 248/248/248
f 250/250/250 252/252/252 249/249/249
f 252/252/252 250/250/250 253/253/253
f 254/254/254 252/252/252 253/253/253
f 246/246/246 249/249/249 255/255/255
f 246/246/246 255/255/255 251/251/251
f 249/249/249 256/256/256 255/255/255
f 249/249/249 257/257/257 256/256/256
f 257/257/257 258/258/258 256/256/256
f 258/258/258 257/257/257 259/259/259
f 260/260/260 258/258/258 259/259/259
f 255/255/255 256/256/256 261/261/261
f 256/256/256 262/262/262 261/261/261
f 256/256/256 258/258/258 262/262/262
f 258/258/258 263/263/263 262/262/262
f 263/263/263 258/258/258 264/264/264
f 265/265/265 263/263/263 264/264/264
f 255/255/255 261/261/261 266/266/266
f 251/251/251 255/255/255 266/266/266
f 251/251/251 266/266/266 267/267/267
f 266/266/266 268/268/268 267/267/267
f 251/251/251 267/267/267 248/248/248
f 267/267/267 268/268/268 269/269/269
f 268/268/268 270/270/270 269/269/269
f 248/248/248 267/267/267 271/271/271
f 267/267/267 269/269/269 271/271/271
f 248/248/248 271/271/271 245/245/245
f 269/269/269 270/270/270 272/272/272
f 270/270/270 273/273/273 272/272/272
f 271/271/271 269/269/269 274/274/274
f 245/245/245 271/271/271 274/274/274
f 269/269/269 272/272/272 274/274/274
f 275/275/275 274/274/274 272/272/272
f 276/276/276 272/272/272 273/273/273
f 277/277/277 276/276/276 273/273/273
f 278/278/278 275/275/275 272/272/272
f 277/277/277 279/279/279 276/276/276
f 279/279/279 280/280/280 276/276/276
f 280/280/280 279/279/279 281/281/281
f 279/279/279 282/282/282 281/281/281
f 281/281/281 282/282/282 283/283/283
f 278/278/278 284/284/284 275/275/275
f 285/285/285 281/281/281 283/283/283
f 286/286/286 245/245/245 274/274/274
f 286/286/286 274/274/274 275/275/275
f 245/245/245 286/286/286 229/229/229
f 287/287/287 229/229/229 286/286/286
f 287/287/287 218/218/218 229/229/229
f 284/284/284 288/288/288 275/275/275
f 284/284/284 289/289/289 288/288/288
f 290/290/290 286/286/286 275/275/275
f 290/290/290 287/287/287 286/286/286
f 290/290/290 275/275/275 291/291/291
f 290/290/290 291/291/291 287/287/287
f 275/275/275 288/288/288 291/291/291
f 289/289/289 292/292/292 288/288/288
f 292/292/292 289/289/289 285/285/285
f 291/291/291 288/288/288 293/293/293
f 288/288/288 292/292/292 293/293/293
f 293/293/293 292/292/292 294/294/294
f 291/291/291 295/295/295 287/287/287
f 287/287/287 295/295/295 218/218/218
f 295/295/295 291/291/291 296/296/296
f 291/291/291 297/297/297 296/296/296
f 296/296/296 297/297/297 294/294/294
f 298/298/298 296/296/296 294/294/294
f 299/299/299 292/292/292 285/285/285
f 292/292/292 299/299/299 294/294/294
f 295/295/295 300/300/300 218/218/218
f 295/295/295 301/301/301 300/300/300
f 302/302/302 301/301/301 298/298/298
f 301/301/301 302/302/302 300/300/300
f 303/303/303 299/299/299 285/285/285
f 304/304/304 294/294/294 299/299/299
f 303/303/303 304/304/304 299/299/299
f 305/305/305 298/298/298 294/294/294
f 304/304/304 305/305/305 294/294/294
f 306/306/306 303/303/303 285/285/285
f 306/306/306 285/285/285 283/283/283
f 307/307/307 306/306/306 283/283/283
f 307/307/307 308/308/308 306/306/306
f 308/308/308 309/309/309 306/306/306
f 306/306/306 309/309/309 303/303/303
f 309/309/309 308/308/308 310/310/310
f 311/311/311 309/309/309 310/310/310
f 309/309/309 312/312/312 303/303/303
f 312/312/312 309/309/309 311/311/311
f 303/303/303 312/312/312 304/304/304
f 313/313/313 312/312/312 311/311/311
f 312/312/312 314/314/314 304/304/304
f 314/314/314 312/312/312 313/313/313
f 304/304/304 314/314/314 305/305/305
f 315/315/315 314/314/314 313/313/313
f 316/316/316 314/314/314 315/315/315
f 314/314/314 316/316/316 305/305/305
f 317/317/317 316/316/316 315/315/315
f 305/305/305 316/316/316 318/318/318
f 305/305/305 318/318/318 298/298/298
f 319/319/319 316/316/316 317/317/317
f 316/316/316 319/319/319 318/318/318
f 320/320/320 319/319/319 317/317/317
f 318/318/318 321/321/321 298/298/298
f 321/321/321 302/302/302 298/298/298
f 322/322/322 319/319/319 320/320/320
f 323/323/323 322/322/322 320/320/320
f 318/318/318 319/319/319 324/324/324
f 318/318/318 324/324/324 321/321/321
f 319/319/319 322/322/322 324/324/324
f 302/302/302 321/321/321 325/325/325
f 324/324/324 325/325/325 321/321/321
f 326/326/326 322/322/322 323/323/323
f 327/327/327 326/326/326 323/323/323
f 324/324/324 322/322/322 328/328/328
f 324/324/324 328/328/328 325/325/325
f 322/322/322 326/326/326 328/328/328
f 329/329/329 326/326/326 327/327/327
f 330/330/330 329/329/329 327/327/327
f 326/326/326 329/329/329 331/331/331
f 328/328/328 326/326/326 331/331/331
f 328/328/328 331/331/331 332/332/332
f 328/328/328 332/332/332 325/325/325
f 331/331/331 333/333/333 332/332/332
f 333/333/333 334/334/334 332/332/332
f 335/335/335 302/302/302 325/325/325
f 300/300/300 302/302/302 335/335/335
f 336/336/336 300/300/300 335/335/335
f 218/218/218 300/300/300 336/336/336
f 332/332/332 337/337/337 325/325/325
f 334/334/334 337/337/337 332/332/332
f 337/337/337 338/338/338 325/325/325
f 336/336/336 338/338/338 337/337/337
f 339/339/339 337/337/337 334/334/334
f 339/339/339 336/336/336 337/337/337
f 340/340/340 339/339/339 334/334/334
f 339/339/339 340/340/340 202/202/202
f 211/211/211 339/339/339 202/202/202
f 336/336/336 339/339/339 211/211/211
f 341/341/341 218/218/218 336/336/336
f 341/341/341 336/336/336 211/211/211
f 341/341/341 210/210/210 218/218/218
f 341/341/341 211/211/211 210/210/210
f 344/344/344 343/343/343 342/342/342
f 342/342/342 345/345/345 344/344/344
f 342/342/342 346/346/346 345/345/345
f 346/346/346 347/347/347 345/345/345
f 346/346/346 348/348/348 347/347/347
f 348/348/348 349/349/349 347/347/347
f 348/348/348 350/350/350 349/349/349
f 350/350/350 351/351/351 349/349/349
f 350/350/350 352/352/352 351/351/351
f 352/352/352 353/353/353 351/351/351
f 352/352/352 354/354/354 353/353/353
f 354/354/354 355/355/355 353/353/353
f 354/354/354 356/356/356 355/355/355
f 356/356/356 357/357/357 355/355/355
