g Table_3
v -0.349255979 -0.20846796 1.85541666
v -0.331966788 -0.2397701 -1.88311565
v -0.340921044 -0.214390844 -1.89352596
v -0.340255737 -0.233865619 1.84510767
v -0.310321689 -0.250958532 -1.86739898
v -0.318540931 -0.24507226 1.82949853
v -0.162061572 -0.25096947 -1.78837717
v 0.0227604639 -0.250974119 -1.66246557
v 0.192886099 -0.250979424 -1.51730919
v 0.349715114 -0.250905842 -1.35098016
v 0.343792677 -0.245124906 1.31606185
v 0.371034056 -0.23620832 -1.34700787
v 0.186236382 -0.245056316 1.48162818
v 0.015466027 -0.245060965 1.6260308
v -0.169914752 -0.245064959 1.75112259
v 0.365124285 -0.230359986 1.31212568
v 0.379850686 -0.212616742 -1.34054732
v 0.37396729 -0.206756756 1.3056221
v 0.379850507 0.206756756 -1.34048963
v 0.379850686 -0.212616742 -1.34054732
v 0.37396729 -0.206756756 1.3056221
v 0.373967111 0.212616727 1.30568004
v 0.374051273 0.223308116 1.26785445
v -0.349255979 -0.20846796 1.85541666
v -0.340921044 -0.214390844 -1.89352596
v -0.340921044 -0.0693628937 -1.89351523
v -0.349256039 0.214390725 1.85544765
v -0.340921134 0.146465853 -1.89349937
v -0.340921104 0.208467856 -1.89349484
v -0.349201083 0.223383516 1.83076882
v 0.349722505 0.245124847 -1.35106325
v 0.343800604 0.254333705 1.30390131
v 0.186218351 0.250979424 1.48160899
v 0.343785703 0.250905812 1.31597865
v 0.192904234 0.245056286 -1.51732826
v 0.202527523 0.234224334 1.49890363
v 0.356182158 0.228291124 -1.37875795
v 0.0227780119 0.245060951 -1.66248882
v 0.209275082 0.22825487 -1.53453398
v 0.0297933947 0.234221384 1.64496469
v 0.0154485926 0.250974119 1.6260078
v 0.36932385 0.224070862 -1.36471128
v 0.357592344 0.204537064 -1.40168941
v -0.169930786 0.25096935 1.75109589
v -0.157719567 0.234218746 1.77149379
v 0.0371920131 0.228257447 -1.68136299
v 0.220851213 0.204516962 -1.54670036
v -0.162045509 0.245064974 -1.78840387
v 0.047384236 0.204518616 -1.6947093
v 0.220858678 -0.210508347 -1.54670846
v -0.149757206 0.228259668 -1.80872524
v -0.141068071 0.204519987 -1.82309473
v 0.0473914556 -0.210506544 -1.69471872
v -0.318513215 0.254394829 1.82002866
v -0.310321629 0.24507229 -1.86743999
v -0.318540752 0.250958383 1.8294574
v -0.318419933 0.23421295 1.8562336
v -0.310083926 0.228263542 -1.89418268
v -0.321542472 0.210501373 1.87685907
v -0.336588562 0.231568977 1.86255646
v -0.149085104 0.21050483 1.78591728
v 0.0399366617 0.210506499 1.6583693
v -0.328222692 0.225625187 -1.90058112
v -0.313113004 0.204522341 -1.91479671
v -0.313112915 0.116101518 -1.91480041
v -0.313112646 -0.210501492 -1.91481364
v -0.331966788 0.233865574 -1.88314581
v -0.318513215 0.254394829 1.82002866
v -0.332740009 0.210360199 -1.91248822
v -0.313112915 0.116101518 -1.91480041
v -0.340217859 0.245310679 1.82988
v -0.340921104 0.208467856 -1.89349484
v -0.340255529 0.23977001 1.84507728
v -0.349201083 0.223383516 1.83076882
v -0.349256039 0.214390725 1.85544765
v -0.332739949 0.137540758 -1.91249168
v -0.340921134 0.146465853 -1.89349937
v -0.332739741 -0.0776558667 -1.91250253
v -0.332739741 -0.0776558667 -1.91250253
v -0.340921044 -0.0693628937 -1.89351523
v -0.332739711 -0.216315553 -1.91250944
v -0.340921044 -0.214390844 -1.89352596
v -0.328222066 -0.231569096 -1.90057826
v -0.331966788 -0.2397701 -1.88311565
v -0.310321689 -0.250958532 -1.86739898
v -0.31008184 -0.234213054 -1.89417446
v -0.162061572 -0.25096947 -1.78837717
v -0.149759978 -0.234218866 -1.80872047
v 0.0227604639 -0.250974119 -1.66246557
v -0.141061336 -0.210504949 -1.82310569
v 0.0371890329 -0.234221458 -1.68135905
v 0.192886099 -0.250979424 -1.51730919
v 0.209272057 -0.234224349 -1.53453088
v 0.349715114 -0.250905842 -1.35098016
v 0.356185555 -0.234185502 -1.37873924
v 0.357593983 -0.210486859 -1.40172553
v 0.36932379 -0.229962096 -1.3647126
v 0.371034056 -0.23620832 -1.34700787
v 0.379850686 -0.212616742 -1.34054732
v 0.373362988 -0.212607831 -1.37309313
v 0.379850507 0.206756756 -1.34048963
v 0.373362452 0.206700414 -1.37304473
v 0.371036142 0.230359957 -1.34703243
v 0.374051273 0.223308116 1.26785445
v 0.365187079 0.245239869 1.28017831
v 0.343800604 0.254333705 1.30390131
v 0.373967111 0.212616727 1.30568004
v 0.36512205 0.236208379 1.31210113
v 0.363333225 0.229962081 1.32979858
v 0.367334753 0.212607861 1.33819664
v 0.37396729 -0.206756756 1.3056221
v 0.350132316 0.234185442 1.34376597
v 0.351438642 0.210486844 1.36675858
v 0.214059725 0.210508347 1.51113248
v 0.367334574 -0.206700474 1.33814836
v 0.351437211 -0.204537123 1.36672235
v 0.363333076 -0.224070907 1.32979691
v 0.365124285 -0.230359986 1.31212568
v 0.343792677 -0.245124906 1.31606185
v 0.350129247 -0.228291139 1.34378493
v 0.186236382 -0.245056316 1.48162818
v 0.202530548 -0.228254929 1.49890649
v 0.015466027 -0.245060965 1.6260308
v 0.21405229 -0.204517037 1.51112449
v 0.0297963899 -0.228257477 1.64496863
v -0.169914752 -0.245064959 1.75112259
v 0.0399293229 -0.204518616 1.65835977
v -0.157716841 -0.228259698 1.77149832
v -0.318540931 -0.24507226 1.82949853
v -0.149091646 -0.204520017 1.7859062
v -0.318422079 -0.228263542 1.85624182
v -0.321542859 -0.204522356 1.87684226
v -0.336588919 -0.225625217 1.86255991
v -0.340255737 -0.233865619 1.84510767
v -0.349255979 -0.20846796 1.85541666
v -0.341159254 -0.210360184 1.87444651
v -0.341159165 0.216315418 1.87446725
vt 1.02832031 0.359619141
vt 0.0128173828 0.352294922
vt 0.0100021362 0.359619141
vt 1.02539062 0.352294922
vt 0.0170593262 0.345458984
vt 1.02148438 0.345458984
vt 0.0384521484 0.305175781
vt 0.0725097656 0.254882812
vt 0.111877441 0.208618164
vt 0.156982422 0.165893555
vt 0.881347656 0.165893555
vt 0.158081055 0.158935547
vt 0.926757812 0.208618164
vt 0.965820312 0.254882812
vt 1 0.305175781
vt 0.880371094 0.158935547
vt 0.159790039 0.152099609
vt 0.87890625 0.152099609
vt 0.010269165 -0.0792236328
vt 0.0100021362 0.0347290039
vt 0.729003906 0.0347290039
vt 0.729003906 -0.0792236328
vt 0.71875 -0.0821533203
vt 1.02832031 0.0347290039
vt 0.0100021362 0.0347290039
vt 0.0100708008 0.0740966797
vt 1.02832031 0.149536133
vt 0.0101623535 0.1328125
vt 0.0101928711 0.149536133
vt 1.02148438 0.152099609
vt 0.274902344 0.548339844
vt 1.00195312 0.549804688
vt 1.04882812 0.505859375
vt 1.00585938 0.549804688
vt 0.231567383 0.503417969
vt 1.05371094 0.510253906
vt 0.265869141 0.55078125
vt 0.193237305 0.45703125
vt 0.226074219 0.508300781
vt 1.09277344 0.463867188
vt 1.08691406 0.459472656
vt 0.269042969 0.555175781
vt 0.257080078 0.553222656
vt 1.12207031 0.410644531
vt 1.12792969 0.414794922
vt 0.187744141 0.461181641
vt 0.220581055 0.512695312
vt 0.158691406 0.407714844
vt 0.182250977 0.465332031
vt 0.131591797 0.584472656
vt 0.152832031 0.411621094
vt 0.146850586 0.415527344
vt 0.0920410156 0.533691406
vt 1.14257812 0.371337891
vt 0.135498047 0.368896484
vt 1.14550781 0.372070312
vt 1.15429688 0.374023438
vt 0.127563477 0.370117188
vt 1.16210938 0.375976562
vt 1.15722656 0.369873047
vt 1.13378906 0.419189453
vt 1.09765625 0.468017578
vt 0.12512207 0.365722656
vt 0.119750977 0.37109375
vt 0.09765625 0.384033203
vt 0.0223846436 0.437255859
vt 0.129150391 0.364257812
vt 1.14257812 0.371337891
vt 0.120788574 0.365722656
vt 0.09765625 0.384033203
vt 1.1484375 0.365966797
vt 0.122375488 0.359619141
vt 1.15234375 0.367431641
vt 1.15136719 0.359619141
vt 1.16210938 0.364501953
vt 0.100158691 0.375
vt 0.0996704102 0.367675781
vt 0.0490722656 0.410888672
vt 0.0490722656 0.410888672
vt 0.0473022461 0.404541016
vt 0.0182037354 0.435058594
vt 0.0137710571 0.431884766
vt 0.0152664185 0.438720703
vt 0.0100021362 0.441650391
vt 0.0117111206 0.450927734
vt 0.0173950195 0.443603516
vt 0.040435791 0.491699219
vt 0.0472717285 0.486816406
vt 0.0788574219 0.543945312
vt 0.0540771484 0.481933594
vt 0.0855102539 0.538574219
vt 0.118713379 0.594726562
vt 0.125244141 0.589355469
vt 0.161499023 0.645507812
vt 0.164550781 0.636230469
vt 0.167480469 0.627441406
vt 0.169189453 0.639648438
vt 0.170043945 0.645507812
vt 0.178344727 0.643066406
vt 0.172607422 0.635253906
vt 0.273193359 0.563964844
vt 0.264892578 0.55859375
vt 0.274169922 0.556152344
vt 0.993164062 0.565429688
vt 0.995605469 0.557617188
vt 1.00195312 0.549804688
vt 1.0078125 0.56640625
vt 1.00585938 0.557617188
vt 1.01171875 0.557128906
vt 1.015625 0.560546875
vt 1.10058594 0.643554688
vt 1.01464844 0.552734375
vt 1.0234375 0.555175781
vt 1.05957031 0.514648438
vt 1.10644531 0.636230469
vt 1.11132812 0.628417969
vt 1.11035156 0.640625
vt 1.109375 0.645996094
vt 1.1171875 0.645996094
vt 1.11425781 0.637207031
vt 1.16015625 0.596191406
vt 1.15332031 0.590820312
vt 1.19921875 0.545898438
vt 1.14746094 0.5859375
vt 1.19238281 0.541015625
vt 1.23730469 0.495117188
vt 1.18652344 0.536132812
vt 1.23046875 0.490478516
vt 1.265625 0.455322266
vt 1.22363281 0.485595703
vt 1.25976562 0.448242188
vt 1.25488281 0.441894531
vt 1.26171875 0.443115234
vt 1.26660156 0.446044922
vt 1.26269531 0.436279297
vt 1.25878906 0.439453125
vt 1.16210938 0.370361328
vn -1 -0.00193214417 0.0164794922
vn -0.621582031 -0.726074219 -0.294189453
vn -1 -0.00230979919 -0.0211486816
vn -0.622070312 -0.727050781 0.291503906
vn 0.190673828 -0.918457031 -0.346191406
vn 0.189453125 -0.918457031 0.34765625
vn 0.188964844 -0.932617188 -0.306884766
vn 0.21862793 -0.934082031 -0.281738281
vn 0.242797852 -0.936523438 -0.253662109
vn 0.268798828 -0.927734375 -0.258544922
vn 0.268798828 -0.927246094 0.260986328
vn 0.795898438 -0.587402344 -0.146972656
vn 0.240722656 -0.936523438 0.254638672
vn 0.216430664 -0.935058594 0.281494141
vn 0.186767578 -0.93359375 0.305908203
vn 0.795898438 -0.5859375 0.152099609
vn 1 -0.00381469727 0.015838623
vn 1 -0.00381660461 -0.0113525391
vn 0.957519531 0.258300781 -0.127563477
vn 0.955078125 -0.267089844 -0.128295898
vn 0.954589844 -0.266357422 0.133178711
vn 0.95703125 0.258789062 0.130981445
vn 0.9375 0.346191406 0.0361328125
vn -0.90234375 -0.325927734 0.282470703
vn -0.900878906 -0.325927734 -0.286132812
vn -0.895507812 0.0227203369 -0.444335938
vn -0.897460938 0.336181641 0.286132812
vn -0.895507812 0.0227203369 -0.444335938
vn -0.895996094 0.335693359 -0.291015625
vn -0.924804688 0.372802734 0.0744018555
vn 0.276367188 0.924316406 -0.263671875
vn 0.0592041016 0.99609375 0.0654296875
vn 0.259765625 0.925292969 0.276855469
vn 0.273681641 0.925292969 0.262695312
vn 0.262207031 0.924316406 -0.277587891
vn 0.504882812 0.677246094 0.53515625
vn 0.515136719 0.706542969 -0.485839844
vn 0.232055664 0.923828125 -0.304199219
vn 0.5078125 0.676269531 -0.533691406
vn 0.443847656 0.677246094 0.586425781
vn 0.229370117 0.924804688 0.303710938
vn 0.784179688 0.528320312 -0.325683594
vn 0.672363281 0.382568359 -0.633789062
vn 0.198852539 0.923828125 0.326660156
vn 0.377685547 0.677246094 0.631347656
vn 0.447021484 0.676269531 -0.585449219
vn 0.637695312 0.380371094 -0.669921875
vn 0.201538086 0.922851562 -0.327636719
vn 0.561523438 0.380371094 -0.734863281
vn 0.637207031 -0.380859375 -0.669921875
vn 0.381347656 0.676269531 -0.630371094
vn 0.478515625 0.380371094 -0.791503906
vn 0.561035156 -0.380859375 -0.734863281
vn 0.129394531 0.966308594 0.222900391
vn 0.182983398 0.922851562 -0.338623047
vn 0.180419922 0.923828125 0.337158203
vn 0.329589844 0.707519531 0.625
vn 0.332763672 0.706542969 -0.624511719
vn 0.430908203 0.3828125 0.817382812
vn -0.350097656 0.708496094 0.612304688
vn 0.474853516 0.380859375 0.793457031
vn 0.558105469 0.380859375 0.737304688
vn -0.347167969 0.707519531 -0.615234375
vn 0.434570312 0.382568359 -0.815429688
vn 0.141967773 -0.19152832 -0.971191406
vn 0.434570312 -0.3828125 -0.815429688
vn -0.638183594 0.722167969 -0.266845703
vn 0.122253418 0.982910156 0.136962891
vn -0.533203125 0.358642578 -0.766113281
vn -0.0844726562 0.290527344 -0.953125
vn -0.540039062 0.831542969 0.130004883
vn -1 -1.37686729E-05 -0.00219154358
vn -0.639648438 0.72265625 0.261962891
vn -1 6.19292259E-05 -0.0022315979
vn -1 -1.63316727E-05 -0.00226020813
vn -0.596679688 0.0133590698 -0.802246094
vn -0.998046875 0.00439071655 -0.0645141602
vn -0.596679688 0.0133590698 -0.802246094
vn -0.615722656 0.0446166992 -0.786621094
vn -0.998046875 0.00439071655 -0.0645751953
vn -0.533203125 -0.358886719 -0.766113281
vn -1 -0.00230979919 -0.0211486816
vn -0.347412109 -0.708496094 -0.614257812
vn -0.621582031 -0.726074219 -0.294189453
vn 0.190673828 -0.918457031 -0.346191406
vn 0.332275391 -0.707519531 -0.623535156
vn 0.196777344 -0.924804688 -0.325439453
vn 0.352539062 -0.731933594 -0.583007812
vn 0.230834961 -0.924804688 -0.302246094
vn 0.478515625 -0.380859375 -0.791015625
vn 0.413574219 -0.731933594 -0.541503906
vn 0.262207031 -0.924804688 -0.275390625
vn 0.469482422 -0.731933594 -0.493652344
vn 0.268798828 -0.927734375 -0.258544922
vn 0.514160156 -0.708007812 -0.484619141
vn 0.671875 -0.3828125 -0.633789062
vn 0.783203125 -0.530273438 -0.324707031
vn 0.795898438 -0.587402344 -0.146972656
vn 1 -0.00381469727 0.015838623
vn 0.916503906 -0.207519531 -0.341796875
vn 1 5.09619713E-05 0.00218772888
vn 0.916503906 0.207275391 -0.341796875
vn 0.797851562 0.580078125 -0.164428711
vn 1 7.28964806E-05 0.00221824646
vn 0.790527344 0.612304688 0.000355005264
vn 0.120666504 0.977050781 0.174560547
vn 1 9.31024551E-05 0.00229454041
vn 0.796386719 0.581542969 0.166137695
vn 0.781738281 0.530273438 0.328125
vn 0.915039062 0.207519531 0.345703125
vn 1 -0.00381660461 -0.0113525391
vn 0.51171875 0.708007812 0.486816406
vn 0.669433594 0.3828125 0.63671875
vn 0.634277344 0.380859375 0.672851562
vn 0.915039062 -0.207275391 0.345947266
vn 0.669433594 -0.382324219 0.63671875
vn 0.782714844 -0.528320312 0.329345703
vn 0.795898438 -0.5859375 0.152099609
vn 0.268798828 -0.927246094 0.260986328
vn 0.512695312 -0.706542969 0.488037109
vn 0.262451172 -0.923828125 0.278320312
vn 0.468505859 -0.730957031 0.496582031
vn 0.230834961 -0.923828125 0.304931641
vn 0.634277344 -0.380371094 0.672851562
vn 0.411621094 -0.730957031 0.543945312
vn 0.196533203 -0.923828125 0.328369141
vn 0.558105469 -0.380371094 0.737304688
vn 0.350585938 -0.730957031 0.585449219
vn 0.189453125 -0.918457031 0.34765625
vn 0.475097656 -0.380371094 0.793457031
vn 0.330078125 -0.706542969 0.625976562
vn 0.430908203 -0.382568359 0.817382812
vn -0.349853516 -0.707519531 0.613769531
vn -0.622070312 -0.727050781 0.291503906
vn -1 -0.00193214417 0.0164794922
vn -0.536621094 -0.358642578 0.763671875
vn -0.536621094 0.358886719 0.763671875
g Table_3_0
f 3/3/3 2/2/2 1/1/1
f 2/2/2 4/4/4 1/1/1
f 2/2/2 5/5/5 4/4/4
f 5/5/5 6/6/6 4/4/4
f 6/6/6 5/5/5 7/7/7
f 7/7/7 8/8/8 6/6/6
f 8/8/8 9/9/9 6/6/6
f 9/9/9 10/10/10 6/6/6
f 10/10/10 11/11/11 6/6/6
f 10/10/10 12/12/12 11/11/11
f 11/11/11 13/13/13 6/6/6
f 13/13/13 14/14/14 6/6/6
f 14/14/14 15/15/15 6/6/6
f 12/12/12 16/16/16 11/11/11
f 16/16/16 12/12/12 17/17/17
f 18/18/18 16/16/16 17/17/17
f 21/21/21 20/20/20 19/19/19
f 19/19/19 22/22/22 21/21/21
f 19/19/19 23/23/23 22/22/22
f 26/26/26 25/25/25 24/24/24
f 24/24/24 27/27/27 26/26/26
f 27/27/27 28/28/28 26/26/26
f 27/27/27 29/29/29 28/28/28
f 27/27/27 30/30/30 29/29/29
f 33/33/33 32/32/32 31/31/31
f 33/33/33 34/34/34 32/32/32
f 31/31/31 35/35/35 33/33/33
f 33/33/33 36/36/36 34/34/34
f 31/31/31 37/37/37 35/35/35
f 33/33/33 35/35/35 38/38/38
f 37/37/37 39/39/39 35/35/35
f 35/35/35 39/39/39 38/38/38
f 40/40/40 36/36/36 33/33/33
f 41/41/41 33/33/33 38/38/38
f 41/41/41 40/40/40 33/33/33
f 42/42/42 37/37/37 31/31/31
f 37/37/37 43/43/43 39/39/39
f 37/37/37 42/42/42 43/43/43
f 41/41/41 38/38/38 44/44/44
f 45/45/45 40/40/40 41/41/41
f 44/44/44 45/45/45 41/41/41
f 39/39/39 46/46/46 38/38/38
f 43/43/43 47/47/47 39/39/39
f 39/39/39 47/47/47 46/46/46
f 38/38/38 48/48/48 44/44/44
f 38/38/38 46/46/46 48/48/48
f 47/47/47 49/49/49 46/46/46
f 50/50/50 47/47/47 43/43/43
f 49/49/49 47/47/47 50/50/50
f 46/46/46 51/51/51 48/48/48
f 46/46/46 49/49/49 51/51/51
f 49/49/49 52/52/52 51/51/51
f 53/53/53 49/49/49 50/50/50
f 52/52/52 49/49/49 53/53/53
f 54/54/54 44/44/44 48/48/48
f 48/48/48 55/55/55 54/54/54
f 48/48/48 51/51/51 55/55/55
f 54/54/54 56/56/56 44/44/44
f 57/57/57 45/45/45 44/44/44
f 56/56/56 57/57/57 44/44/44
f 51/51/51 52/52/52 58/58/58
f 51/51/51 58/58/58 55/55/55
f 57/57/57 59/59/59 45/45/45
f 60/60/60 57/57/57 56/56/56
f 57/57/57 60/60/60 59/59/59
f 59/59/59 61/61/61 45/45/45
f 45/45/45 61/61/61 40/40/40
f 61/61/61 62/62/62 40/40/40
f 40/40/40 62/62/62 36/36/36
f 58/58/58 63/63/63 55/55/55
f 52/52/52 64/64/64 58/58/58
f 63/63/63 58/58/58 64/64/64
f 65/65/65 64/64/64 52/52/52
f 66/66/66 65/65/65 52/52/52
f 63/63/63 67/67/67 55/55/55
f 55/55/55 67/67/67 68/68/68
f 69/69/69 63/63/63 64/64/64
f 69/69/69 64/64/64 70/70/70
f 67/67/67 71/71/71 68/68/68
f 56/56/56 68/68/68 71/71/71
f 67/67/67 63/63/63 72/72/72
f 63/63/63 69/69/69 72/72/72
f 67/67/67 72/72/72 71/71/71
f 73/73/73 56/56/56 71/71/71
f 73/73/73 60/60/60 56/56/56
f 72/72/72 74/74/74 71/71/71
f 73/73/73 71/71/71 74/74/74
f 75/75/75 73/73/73 74/74/74
f 60/60/60 73/73/73 75/75/75
f 72/72/72 69/69/69 76/76/76
f 76/76/76 69/69/69 70/70/70
f 77/77/77 72/72/72 76/76/76
f 78/78/78 76/76/76 70/70/70
f 77/77/77 76/76/76 79/79/79
f 80/80/80 77/77/77 79/79/79
f 81/81/81 78/78/78 70/70/70
f 80/80/80 79/79/79 82/82/82
f 79/79/79 81/81/81 82/82/82
f 70/70/70 66/66/66 81/81/81
f 81/81/81 83/83/83 82/82/82
f 83/83/83 81/81/81 66/66/66
f 83/83/83 84/84/84 82/82/82
f 84/84/84 83/83/83 85/85/85
f 83/83/83 86/86/86 85/85/85
f 86/86/86 83/83/83 66/66/66
f 87/87/87 85/85/85 86/86/86
f 88/88/88 87/87/87 86/86/86
f 88/88/88 86/86/86 66/66/66
f 89/89/89 87/87/87 88/88/88
f 90/90/90 88/88/88 66/66/66
f 52/52/52 90/90/90 66/66/66
f 90/90/90 52/52/52 53/53/53
f 91/91/91 89/89/89 88/88/88
f 91/91/91 88/88/88 90/90/90
f 53/53/53 91/91/91 90/90/90
f 92/92/92 89/89/89 91/91/91
f 93/93/93 91/91/91 53/53/53
f 93/93/93 92/92/92 91/91/91
f 50/50/50 93/93/93 53/53/53
f 94/94/94 92/92/92 93/93/93
f 95/95/95 93/93/93 50/50/50
f 95/95/95 94/94/94 93/93/93
f 96/96/96 95/95/95 50/50/50
f 96/96/96 50/50/50 43/43/43
f 95/95/95 97/97/97 94/94/94
f 97/97/97 95/95/95 96/96/96
f 97/97/97 98/98/98 94/94/94
f 98/98/98 97/97/97 99/99/99
f 97/97/97 100/100/100 99/99/99
f 100/100/100 97/97/97 96/96/96
f 101/101/101 99/99/99 100/100/100
f 43/43/43 102/102/102 96/96/96
f 102/102/102 100/100/100 96/96/96
f 102/102/102 101/101/101 100/100/100
f 42/42/42 102/102/102 43/43/43
f 102/102/102 42/42/42 101/101/101
f 42/42/42 103/103/103 101/101/101
f 104/104/104 101/101/101 103/103/103
f 103/103/103 42/42/42 31/31/31
f 105/105/105 104/104/104 103/103/103
f 105/105/105 103/103/103 31/31/31
f 106/106/106 105/105/105 31/31/31
f 104/104/104 105/105/105 107/107/107
f 105/105/105 106/106/106 108/108/108
f 105/105/105 108/108/108 107/107/107
f 106/106/106 34/34/34 108/108/108
f 108/108/108 109/109/109 107/107/107
f 109/109/109 108/108/108 34/34/34
f 109/109/109 110/110/110 107/107/107
f 111/111/111 107/107/107 110/110/110
f 112/112/112 109/109/109 34/34/34
f 36/36/36 112/112/112 34/34/34
f 110/110/110 109/109/109 113/113/113
f 109/109/109 112/112/112 113/113/113
f 36/36/36 114/114/114 112/112/112
f 114/114/114 113/113/113 112/112/112
f 62/62/62 114/114/114 36/36/36
f 115/115/115 111/111/111 110/110/110
f 115/115/115 110/110/110 113/113/113
f 113/113/113 114/114/114 116/116/116
f 116/116/116 115/115/115 113/113/113
f 115/115/115 117/117/117 111/111/111
f 117/117/117 115/115/115 116/116/116
f 117/117/117 118/118/118 111/111/111
f 118/118/118 117/117/117 119/119/119
f 117/117/117 120/120/120 119/119/119
f 120/120/120 117/117/117 116/116/116
f 121/121/121 119/119/119 120/120/120
f 122/122/122 121/121/121 120/120/120
f 122/122/122 120/120/120 116/116/116
f 123/123/123 121/121/121 122/122/122
f 114/114/114 124/124/124 116/116/116
f 114/114/114 62/62/62 124/124/124
f 124/124/124 122/122/122 116/116/116
f 125/125/125 123/123/123 122/122/122
f 125/125/125 122/122/122 124/124/124
f 126/126/126 123/123/123 125/125/125
f 62/62/62 127/127/127 124/124/124
f 127/127/127 125/125/125 124/124/124
f 62/62/62 61/61/61 127/127/127
f 128/128/128 126/126/126 125/125/125
f 128/128/128 125/125/125 127/127/127
f 129/129/129 126/126/126 128/128/128
f 61/61/61 130/130/130 127/127/127
f 130/130/130 128/128/128 127/127/127
f 61/61/61 59/59/59 130/130/130
f 131/131/131 129/129/129 128/128/128
f 131/131/131 128/128/128 130/130/130
f 59/59/59 132/132/132 130/130/130
f 132/132/132 131/131/131 130/130/130
f 131/131/131 133/133/133 129/129/129
f 133/133/133 131/131/131 132/132/132
f 133/133/133 134/134/134 129/129/129
f 134/134/134 133/133/133 135/135/135
f 133/133/133 136/136/136 135/135/135
f 136/136/136 133/133/133 132/132/132
f 75/75/75 135/135/135 136/136/136
f 59/59/59 137/137/137 132/132/132
f 137/137/137 136/136/136 132/132/132
f 137/137/137 75/75/75 136/136/136
f 60/60/60 137/137/137 59/59/59
f 137/137/137 60/60/60 75/75/75
