g Teaspoon
v 0.0160817429 -0.0240483079 0.0499921367
v 0.0296576228 -0.0218491498 0.0566994362
v 0.0414017066 -0.0342953168 0.0923337266
v 0.0206614397 -0.0418599583 0.0768773034
v -0.00349503802 -0.0454261005 0.0722778961
v 0.0216650385 -0.0489246063 0.111658268
v 0.0414017066 -0.0342953168 0.0923337266
v -0.00123472221 -0.0256096981 0.0465582088
v -0.000958780874 -0.0153763918 0.0390983373
v 0.0122433538 -0.0150611289 0.0414847024
v -0.0216376986 -0.0257004686 0.0490303077
v -0.0153299887 -0.0155087002 0.0409726389
v -0.0167219285 -0.00287061557 0.0362871103
v -0.0309339073 -0.00333156041 0.0430167094
v -0.0354084596 -0.023201162 0.0564918593
v -0.0290886629 -0.0432898141 0.0775968134
v -0.0311693456 -0.0501923263 0.112228528
v -0.00414222758 -0.0534322597 0.1138115
v -0.00645541586 -0.058581885 0.153178364
v -0.000880509964 -0.00265527121 0.0340305455
v -0.0428115688 -0.00363503746 0.0516239665
v -0.0535108112 -0.00420599012 0.063218385
v -0.0511798598 -0.0363085233 0.0930224806
v -0.0216376986 -0.0257004686 0.0490303077
v -0.0354084596 -0.023201162 0.0564918593
v -0.0179428831 0.00334480032 0.0314926691
v -0.0341907442 0.0027926378 0.0392029323
v -0.000790828373 0.00359114632 0.0290479939
v -0.0461500771 0.00230020657 0.0483085066
v -0.0226054061 0.00503771333 0.0112211956
v -0.0437455922 0.00421607122 0.0211453903
v -0.0548798852 -0.0396916978 0.108747669
v -0.0784189403 -0.00787287578 0.116877973
v -0.0723656788 -0.00629998371 0.0964532718
v -0.0810327828 -0.0096459575 0.138291746
v -0.0579591729 0.00181801245 0.0608211607
v -0.0583439395 0.00340246782 0.0322755724
v -0.0636987686 -0.0050283256 0.0782266483
v -0.0354084596 -0.023201162 0.0564918593
v -0.0511798598 -0.0363085233 0.0930224806
v -0.0689250827 0.00103272125 0.0768570378
v -0.0780114755 -0.000227857381 0.0960175171
v -0.0723403022 0.00235331431 0.0472154133
v -0.0850263983 0.000938717276 0.0659239441
v -0.0842890888 -0.00183970854 0.117442288
v -0.0768518597 -0.00342912599 0.04120294
v -0.0624091141 -0.00220195577 0.025629174
v -0.0470558889 -0.00129232183 0.0139888786
v -0.0241600871 -0.000379640609 0.00330022443
v -0.0900378898 -0.00504907593 0.0606886372
v -1.3036729E-08 -2.60770321E-08 2.15888016E-10
v -0.0954412222 -0.000886302441 0.08806362
v -0.10102123 -0.00707713095 0.0839423463
v -0.10865888 -0.00942787156 0.11005114
v -0.000285330985 0.00538529083 0.00813951995
v 0.0229882859 -0.000235501677 0.00463006971
v -0.102639198 -0.00303699425 0.112861902
v -0.111931868 -0.0120062791 0.137817398
v 0.0208080877 0.00514673814 0.0124010546
v 0.0442202501 -0.000942755491 0.0160009116
v -0.0869519487 -0.00368246785 0.13990739
v -0.10569118 -0.00541400537 0.13912718
v 0.0149615761 0.0033496134 0.0322712064
v 0.0402761586 0.00449180929 0.0228796434
v -0.103979297 -0.00789539889 0.165354624
v -0.110176034 -0.0146744214 0.1656892
v -0.0855361 -0.00567958085 0.161977232
v -0.0798149258 -0.0115153827 0.159309715
v 0.0135698868 -0.00285763666 0.0369758531
v 0.0528381281 0.00384147814 0.0341167115
v 0.0575671531 -0.0016679801 0.0278613176
v 0.0295019094 0.00285527459 0.0401668549
v 0.0262009185 -0.0032827442 0.0438139662
v 0.0160817429 -0.0240483079 0.0499921367
v 0.0296576228 -0.0218491498 0.0566994362
v 0.0360895656 -0.00347861997 0.0521831252
v 0.0394538529 0.00245856866 0.049067907
v 0.0645757094 0.00301435939 0.048937168
v 0.0697689578 -0.0026580058 0.0434052013
v 0.0806349814 -0.00396730332 0.0627041385
v 0.0491368994 0.00213479623 0.0612159781
v 0.075056918 0.00190378353 0.0674522594
v 0.0893406644 -0.00570588931 0.0856843144
v 0.0448128246 -0.00389968208 0.0633712262
v 0.0296576228 -0.0218491498 0.0566994362
v 0.0414017066 -0.0342953168 0.0923337266
v 0.0530320816 -0.00444857404 0.0779547915
v 0.0580940992 0.0016345717 0.0768982545
v 0.0833102018 0.000361997634 0.0893129632
v 0.0652736649 0.000646781176 0.0957395136
v 0.0885762647 -0.00154675171 0.113938436
v 0.0949246362 -0.00780263171 0.11157804
v 0.0598582625 -0.00545716612 0.0958530307
v 0.0899877846 -0.00375909731 0.140225545
v 0.0964475721 -0.0102065988 0.139282778
v 0.0932475179 -0.0128151216 0.167256832
v 0.0698939115 -0.000746484846 0.117090315
v 0.0643120334 -0.00682422845 0.116209112
v 0.0869144499 -0.00618411228 0.166660801
v 0.0851344839 -0.0154486485 0.193508044
v 0.0711658522 -0.00244149193 0.139793634
v 0.0437041596 -0.0376634523 0.10793145
v 0.0212049577 -0.0536606312 0.1515598
v 0.0442063734 -0.0417824537 0.142276049
v 0.0150878327 -0.0507394522 0.187177822
v 0.0381956622 -0.0411507562 0.176103085
v 0.0655827075 -0.00846268609 0.137878999
v 0.0437041596 -0.0376634523 0.10793145
v 0.063222982 -0.0102843679 0.159418479
v 0.0685770214 -0.00438165991 0.16235657
v 0.0791624635 -0.00866946951 0.191472679
v 0.0620994419 -0.00644132122 0.183096021
v 0.0670371577 -0.0110091902 0.213169783
v 0.0723935664 -0.0179477371 0.216602296
v 0.0572952963 -0.0121497614 0.179003611
v 0.0442063734 -0.0417824537 0.142276049
v 0.0483332537 -0.0137798591 0.195622891
v 0.0522199459 -0.00832875445 0.200744972
v 0.0509320647 -0.0131143369 0.23030524
v 0.0552096777 -0.020361647 0.234597102
v 0.0413404107 -0.0236365236 0.246832207
v 0.032277111 -0.0150390454 0.241611898
v 0.0394814536 -0.00983184204 0.214806587
v 0.032277111 -0.0150390454 0.241611898
v 0.0274661388 -0.04568436 0.181738466
v 0.0365196988 -0.0153239695 0.208469555
v 0.0243547074 -0.0109818615 0.225127324
v 0.0223734379 -0.016475644 0.218043163
v 0.0123191047 -0.0151812835 0.247988597
v 0.0413404107 -0.0236365236 0.246832207
v 0.0316880606 -0.0267322604 0.261129677
v 0.00746865058 -0.0121012814 0.23110494
v 0.0166619755 -0.0181110986 0.264951438
v 0.031415619 -0.0277616717 0.276952922
v 0.0066129989 -0.0176546462 0.223499671
v -0.010354355 -0.0156020029 0.248340234
v 0.0206415933 -0.019355882 0.279220283
v 0.0495022535 -0.0391578935 0.391893685
v -0.0101484237 -0.0134947188 0.232476264
v -0.0327575728 -0.0142238326 0.246093825
v -0.0107447803 -0.0182649754 0.264772832
v 0.00393234519 -0.0511323288 0.188260525
v -0.00990362559 -0.0192820616 0.224460527
v -0.00845883135 -0.0519923903 0.189121485
v -0.0325984471 -0.0497898087 0.185823128
v -0.0276446268 -0.013407398 0.23011668
v -0.0262202546 -0.0192900784 0.222198412
v -0.0206400938 -0.0515542775 0.18837297
v -0.0341962092 -0.054642871 0.152542725
v -0.0580618829 -0.043548964 0.142842129
v -0.0548798852 -0.0396916978 0.108747669
v -0.0748725906 -0.013347622 0.178305775
v -0.0800696462 -0.00770673482 0.182156697
v -0.0544324368 -0.0424817167 0.17594476
v -0.0580618829 -0.043548964 0.142842129
v -0.0667603388 -0.0148771731 0.194500536
v -0.0973552987 -0.0103170974 0.189889044
v -0.103234529 -0.017236542 0.191767499
v -0.0914559215 -0.0195388682 0.214756519
v -0.043810118 -0.0467497855 0.181631878
v -0.0710545108 -0.00948303565 0.199419051
v -0.0861681029 -0.0124796592 0.211410895
v -0.07527785 -0.0214017108 0.233458281
v -0.041752737 -0.0180052407 0.216602728
v -0.0555712394 -0.0162397139 0.20729661
v -0.0589844063 -0.0107895397 0.213447392
v -0.0442472398 -0.012310531 0.223813057
v -0.0709845573 -0.0142027102 0.228977814
v -0.0526208803 -0.0158555619 0.239717692
v -0.0619871691 -0.0233871639 0.245914891
v -0.0619871691 -0.0233871639 0.245914891
v -0.0526208803 -0.0158555619 0.239717692
v -0.053014569 -0.0259830095 0.260071963
v -0.0396399535 -0.0188765414 0.262989014
v -0.0536290333 -0.0280085746 0.272027314
v -0.0108725103 -0.0196186267 0.276853353
v -0.0436444879 -0.0197203048 0.275945514
v -0.076006785 -0.0403620936 0.388596177
v -0.0669243261 -0.0328645594 0.392351538
v -0.0825205296 -0.0438718162 0.42288813
v -0.0134239243 -0.032350827 0.390987188
v -0.0734592006 -0.0363502391 0.426636487
v -0.0874011964 -0.0473520942 0.457424641
v 0.0402839221 -0.0318360217 0.395167977
v -0.0782724395 -0.0397524722 0.461188376
v -0.0894040167 -0.0508899875 0.492659748
v -0.014284404 -0.0357941948 0.425548315
v 0.0451895483 -0.0352088101 0.429728001
v 0.0543771312 -0.0425554179 0.426459849
v -0.0802017301 -0.043248523 0.496435314
v -0.0858794376 -0.0543465018 0.527294457
v -0.0151438033 -0.0391488858 0.460118622
v 0.0481582955 -0.0385382064 0.464503974
v 0.0574056432 -0.0459614024 0.461222738
v 0.0576271079 -0.0494778715 0.496515334
v -0.0766484141 -0.0467388518 0.531074941
v -0.0761240199 -0.0572852604 0.557060003
v -0.0159963761 -0.0425356291 0.494396359
v 0.0483106785 -0.04201423 0.499804646
v -0.0669413507 -0.0497866757 0.56081742
v -0.0621027797 -0.059184175 0.577672899
v -0.0168471746 -0.0460435003 0.528661668
v 0.0430189781 -0.0455894358 0.534212053
v 0.0523597598 -0.0530187674 0.530918777
v -0.0176073909 -0.049312409 0.559340835
v 0.0318296589 -0.0488380082 0.563406885
v 0.0411160849 -0.0561591983 0.560133755
v -0.0183486976 -0.0525040515 0.593790293
v -0.0587384813 -0.0508898385 0.572798729
v 0.0230147354 -0.0501071103 0.574967265
v 0.0260731354 -0.0583372712 0.579984725
v -0.0469755344 -0.0602705888 0.590331674
v 0.0103270281 -0.0597202145 0.591834068
v -0.0424963385 -0.0520563014 0.586390197
v -0.0327862129 -0.060676869 0.596105158
v -0.0303116385 -0.0524051078 0.591348231
v -0.0185246244 -0.0607947819 0.599016607
v -0.00413493253 -0.0604016855 0.596856415
v -0.00627825782 -0.0521743186 0.591978252
v 0.00614052126 -0.0515891202 0.587665439
v 0.0543771312 -0.0425554179 0.426459849
v 0.0575204156 -0.0553397648 0.460280746
v 0.0574056432 -0.0459614024 0.461222738
v 0.0576271079 -0.0494778715 0.496515334
v 0.0544907078 -0.0518362001 0.425527602
v 0.0495022535 -0.0391578935 0.391893685
v 0.0496154763 -0.0484090783 0.390964419
v 0.031415619 -0.0277616717 0.276952922
v 0.0318118818 -0.0370568559 0.277959228
v 0.0316880606 -0.0267322604 0.261129677
v 0.0313948281 -0.0353475325 0.261483371
v 0.0413404107 -0.0236365236 0.246832207
v 0.021145463 -0.0458159335 0.280542582
v 0.040574912 -0.0559071191 0.392534256
v 0.0454815477 -0.0593564399 0.427086473
v 0.0577425174 -0.0589081608 0.495568067
v 0.048453331 -0.0629391521 0.461837113
v 0.0524746627 -0.0624075346 0.529975712
v 0.0523597598 -0.0530187674 0.530918777
v 0.0486073978 -0.0665503591 0.497124165
v 0.0412293077 -0.0654109716 0.559204459
v 0.0411160849 -0.0561591983 0.560133755
v 0.0433143266 -0.0700175613 0.531542599
v 0.02618636 -0.0675890446 0.579055369
v 0.0260731354 -0.0583372712 0.579984725
v 0.0321207084 -0.0729096979 0.560773015
v 0.0104402537 -0.0689719915 0.590904653
v 0.0103270281 -0.0597202145 0.591834068
v -0.00402170746 -0.0696534589 0.59592706
v -0.00413493253 -0.0604016855 0.596856415
v 0.00643156981 -0.0756608099 0.585031629
v -0.0184113979 -0.070046559 0.598087311
v -0.0185246244 -0.0607947819 0.599016607
v 0.0233057253 -0.0741788 0.572333395
v -0.0180576481 -0.0765757412 0.591156423
v -0.0173127763 -0.0733840689 0.556922913
v -0.00598720647 -0.0762460083 0.589344382
v -0.0326729864 -0.0699286461 0.595175922
v -0.0327862129 -0.060676869 0.596105158
v -0.0165481903 -0.0704693124 0.526208222
v -0.0468623117 -0.0695223659 0.589402318
v -0.0469755344 -0.0602705888 0.590331674
v -0.0666503608 -0.0738583654 0.558183551
v -0.0156960059 -0.0670720637 0.491931707
v -0.0300206505 -0.0764767975 0.588714361
v -0.061989557 -0.0684359521 0.576743603
v -0.0621027797 -0.059184175 0.577672899
v -0.0422052853 -0.0761278719 0.583756566
v -0.0584474355 -0.074961409 0.570164859
v -0.0760107934 -0.0665370375 0.556130648
v -0.0761240199 -0.0572852604 0.557060003
v -0.0857645497 -0.0637352839 0.526351333
v -0.0858794376 -0.0543465018 0.527294457
v -0.0763530061 -0.0711669773 0.528405249
v -0.0892886147 -0.0603202768 0.491712481
v -0.0894040167 -0.0508899875 0.492659748
v -0.0799050778 -0.0677847713 0.493754834
v -0.0872864127 -0.0567304306 0.456482619
v -0.0874011964 -0.0473520942 0.457424641
v -0.014845036 -0.0635523871 0.457667381
v -0.0824069455 -0.0531527586 0.421955973
v -0.0825205296 -0.0438718162 0.42288813
v -0.077977404 -0.0641534179 0.458521515
v -0.0139887473 -0.0599425063 0.423122615
v -0.0758935586 -0.049613867 0.38766697
v -0.076006785 -0.0403620936 0.388596177
v -0.0731672645 -0.0604978688 0.423994929
v -0.0131291971 -0.0564221889 0.388569295
v -0.0540265515 -0.0377716795 0.273692816
v -0.0536290333 -0.0280085746 0.272027314
v -0.0666332766 -0.0569362529 0.389717668
v -0.0529191904 -0.0354555398 0.260454446
v -0.053014569 -0.0259830095 0.260071963
v -0.0429306962 -0.0463900454 0.279433221
v -0.0103343632 -0.0467313454 0.278339088
v 0.0185602084 -0.045727361 0.262876868
v -0.00991248898 -0.0470747165 0.259693831
v 0.0271253772 -0.0434835181 0.241148978
v 0.0271253772 -0.0434835181 0.241148978
v -0.0391651988 -0.0460895188 0.261966527
v -0.00986511074 -0.0511550792 0.244345695
v 0.0223110858 -0.0550610237 0.231311962
v 0.0514613912 -0.0460588336 0.220027611
v 0.0190411657 -0.0674416125 0.210413486
v 0.0407855883 -0.0315811746 0.2457055
v 0.0548903868 -0.0278011169 0.232291937
v 0.0552096777 -0.020361647 0.234597102
v 0.0723935664 -0.0179477371 0.216602296
v -0.0446748547 -0.0487411916 0.241859779
v -0.0614522696 -0.0356318913 0.241950855
v -0.0619871691 -0.0233871639 0.245914891
v -0.00938362069 -0.0596561842 0.234291643
v -0.0446748547 -0.0487411916 0.241859779
v -0.0746627897 -0.0304743107 0.230972245
v -0.0698606595 -0.0480323583 0.218901798
v -0.07527785 -0.0214017108 0.233458281
v -0.0914559215 -0.0195388682 0.214756519
v -0.0908248052 -0.0267110653 0.213166595
v -0.102125131 -0.0241077468 0.190213636
v -0.103234529 -0.017236542 0.191767499
v -0.110176034 -0.0146744214 0.1656892
v -0.0409943424 -0.0558612756 0.229556516
v -0.0358033441 -0.0683605671 0.210295573
v -0.00842358358 -0.0705324635 0.213221639
v -0.08558736 -0.0426818058 0.204725266
v -0.00705572637 -0.0804859698 0.180315152
v -0.108741604 -0.0223447196 0.164197341
v -0.110369042 -0.0198199488 0.136314929
v -0.111931868 -0.0120062791 0.137817398
v -0.10865888 -0.00942787156 0.11005114
v -0.093977876 -0.0426945053 0.181818917
v -0.0762362778 -0.0561283678 0.191710234
v -0.0614436679 -0.0619726293 0.201074436
v -0.0619840287 -0.0698819533 0.172389939
v -0.035586074 -0.0784736574 0.177253783
v -0.0986085311 -0.0417985581 0.156766221
v -0.0832575038 -0.056984026 0.147033527
v -0.0810826346 -0.0573589802 0.169963121
v -0.0992718861 -0.0395359509 0.130390927
v -0.0355428867 -0.0803924128 0.150210351
v -0.00587017881 -0.0828422457 0.1519766
v -0.062910907 -0.0708306283 0.147813022
v -0.0617949851 -0.0691919699 0.122530781
v -0.0827952474 -0.0550039038 0.123796888
v -0.0799428821 -0.0516306385 0.101331651
v -0.0962029994 -0.0360406302 0.104571216
v -0.107130475 -0.0166902877 0.108683765
v -0.0995583236 -0.0136787398 0.082755819
v -0.10102123 -0.00707713095 0.0839423463
v -0.0900378898 -0.00504907593 0.0606886372
v -0.0895678177 -0.0321390405 0.0804493949
v -0.0888125002 -0.0104760192 0.0597955212
v -0.0761046782 -0.0073690149 0.0407562852
v -0.0768518597 -0.00342912599 0.04120294
v -0.0624091141 -0.00220195577 0.025629174
v -0.08056584 -0.0275817104 0.0590546653
v -0.0685300231 -0.042111963 0.0616686195
v -0.0700796545 -0.0228179172 0.0411732681
v -0.0621424951 -0.00619830517 0.0253196899
v -0.0468613394 -0.00430854782 0.0139665501
v -0.0470558889 -0.00129232183 0.0139888786
v -0.0241600871 -0.000379640609 0.00330022443
v -0.0749990121 -0.0472794659 0.0804217979
v -0.0548374839 -0.0594886392 0.0761614665
v -0.0586360916 -0.0185241364 0.0264889635
v -0.0240280107 -0.00357605866 0.0033729109
v -1.3036729E-08 -2.60770321E-08 2.15888016E-10
v -0.0441320203 -0.0189888962 0.0169420838
v -0.05277225 -0.0305539705 0.0317954011
v -0.0587290898 -0.0653522089 0.0982772037
v -0.0321683735 -0.0741902664 0.096487537
v -0.0610073283 -0.0364312343 0.0454602763
v -0.0442503393 -0.0447454974 0.0406305417
v 4.62934913E-05 -0.00371594355 5.210995E-05
v 0.0229882859 -0.000235501677 0.00463006971
v -0.0396293923 -0.0323979445 0.0248854719
v -0.0202690233 -0.0341130681 0.0185215287
v -0.0225026812 -0.0195807256 0.00793304015
v 7.77953683E-05 -0.0197279416 0.00516869221
v -0.049802389 -0.0524474978 0.05675615
v -0.0264576413 -0.0587928705 0.0525178164
v -0.0231750272 -0.0493753329 0.0357710198
v -0.000834322535 -0.0499080904 0.0337190218
v -0.0295761768 -0.0672757328 0.0728870705
v -0.00153291458 -0.0600070618 0.0508380495
v -0.000238064167 -0.0345014147 0.0166642349
v 0.0189985353 -0.0334196277 0.0194126368
v -0.00242464407 -0.069048129 0.0717214048
v 0.0206865016 -0.048245661 0.0364357382
v 0.0405788831 -0.043064598 0.0418631583
v 0.0225534309 -0.057444796 0.0530401655
v 0.0216238201 -0.0190397166 0.00908475835
v 0.022938421 -0.00330479071 0.00469641015
v 0.0441135205 -0.00363746635 0.0159732904
v 0.0442202501 -0.000942755491 0.0160009116
v 0.0575671531 -0.0016679801 0.0278613176
v 0.0418013707 -0.0179385133 0.0187249742
v 0.0574479513 -0.00529801473 0.0275669862
v 0.0692784265 -0.00612837402 0.0430010222
v 0.0697689578 -0.0026580058 0.0434052013
v 0.0806349814 -0.00396730332 0.0627041385
v 0.0372409113 -0.0311401151 0.0263295956
v 0.0545333773 -0.0171949677 0.028533319
v 0.0489392802 -0.0289780609 0.0335082784
v 0.0641289726 -0.021092819 0.0431512408
v 0.0797333568 -0.00889546052 0.0618358031
v 0.0882393345 -0.0117928721 0.0845114291
v 0.0893406644 -0.00570588931 0.0856843144
v 0.0949246362 -0.00780263171 0.11157804
v 0.0556653962 -0.0344864242 0.0470557399
v 0.0615443215 -0.0398501046 0.0630590618
v 0.0726280138 -0.0254952908 0.0608210787
v 0.0446362682 -0.0504583269 0.0577992089
v 0.04794164 -0.0572743081 0.0769729689
v 0.0795883834 -0.0297624767 0.0819415376
v 0.0239294954 -0.065792568 0.0732909068
v 0.0245327186 -0.072656922 0.0967888907
v 0.0662914738 -0.0447851494 0.081574522
v 0.0695050582 -0.049018424 0.102277905
v 0.0842600539 -0.0334948786 0.105831422
v 0.049964536 -0.0630403608 0.0988734886
v 0.0510524176 -0.0669071302 0.122994304
v -0.00347607583 -0.0763748437 0.0960909128
v -0.00464876276 -0.0812536404 0.123288848
v 0.0937586799 -0.014585915 0.110207841
v 0.0952387303 -0.0176081099 0.137753755
v 0.0964475721 -0.0102065988 0.139282778
v 0.0932475179 -0.0128151216 0.167256832
v 0.0855629891 -0.0369613506 0.131533489
v 0.0921301171 -0.0201707352 0.165719256
v 0.0842955783 -0.0221055783 0.191902459
v 0.0851344839 -0.0154486485 0.193508044
v -0.0343708955 -0.0787777379 0.122679882
v 0.024560174 -0.0772581622 0.122937292
v 0.0235025156 -0.0789684653 0.150496691
v 0.0833169743 -0.0393457562 0.157939568
v 0.069558017 -0.0545173734 0.147841007
v 0.0773179159 -0.0404856279 0.18311967
v 0.021403024 -0.0772119462 0.1775527
v 0.047470592 -0.0680156052 0.172899187
v 0.0502169132 -0.0687083155 0.148249358
v 0.0706838295 -0.0524013825 0.124619059
v 0.0719897822 -0.0232133977 0.215148464
v 0.0677301213 -0.0401712209 0.206218645
v 0.0659138113 -0.0551315919 0.170848697
v 0.0597258285 -0.0540604442 0.19273071
v 0.0447407849 -0.0603181534 0.201825306
vt 0.810058594 0.337646484
vt 0.807617188 0.318359375
vt 0.784179688 0.308349609
vt 0.770019531 0.328613281
vt 0.766601562 0.351318359
vt 0.753417969 0.326171875
vt 0.770507812 0.304199219
vt 0.809082031 0.354248047
vt 0.825683594 0.35546875
vt 0.825195312 0.334228516
vt 0.806152344 0.371582031
vt 0.820800781 0.377441406
vt 0.83984375 0.385742188
vt 0.832519531 0.400146484
vt 0.798828125 0.391845703
vt 0.763183594 0.374755859
vt 0.746582031 0.374511719
vt 0.749511719 0.350341797
vt 0.713867188 0.34765625
vt 0.847167969 0.357421875
vt 0.820800781 0.416015625
vt 0.805664062 0.430175781
vt 0.7578125 0.400390625
vt 0.803222656 0.381103516
vt 0.786132812 0.395507812
vt 0.852539062 0.391357422
vt 0.842773438 0.408447266
vt 0.860839844 0.358642578
vt 0.829589844 0.425537109
vt 0.883300781 0.405273438
vt 0.87109375 0.427001953
vt 0.742675781 0.401367188
vt 0.736816406 0.458007812
vt 0.762695312 0.452880859
vt 0.709960938 0.457763672
vt 0.8125 0.441650391
vt 0.854003906 0.448486328
vt 0.786621094 0.443115234
vt 0.786132812 0.395507812
vt 0.772460938 0.398193359
vt 0.790527344 0.455810547
vt 0.764648438 0.466308594
vt 0.83203125 0.468261719
vt 0.8046875 0.485107422
vt 0.736328125 0.471679688
vt 0.842773438 0.480712891
vt 0.866699219 0.459472656
vt 0.885253906 0.436035156
vt 0.8984375 0.412109375
vt 0.813476562 0.499023438
vt 0.911621094 0.362792969
vt 0.7734375 0.497314453
vt 0.779296875 0.512695312
vt 0.741699219 0.520019531
vt 0.89453125 0.361328125
vt 0.906738281 0.313720703
vt 0.738769531 0.503417969
vt 0.702148438 0.51953125
vt 0.891113281 0.318115234
vt 0.8984375 0.289794922
vt 0.70703125 0.471191406
vt 0.703613281 0.503417969
vt 0.857910156 0.326660156
vt 0.883300781 0.296386719
vt 0.668945312 0.495605469
vt 0.6640625 0.511230469
vt 0.679199219 0.46484375
vt 0.684570312 0.452148438
vt 0.844726562 0.329833984
vt 0.87109375 0.274414062
vt 0.885742188 0.265869141
vt 0.852539062 0.310058594
vt 0.840332031 0.316162109
vt 0.809082031 0.328613281
vt 0.807617188 0.318359375
vt 0.832519531 0.30078125
vt 0.843261719 0.29296875
vt 0.854492188 0.252929688
vt 0.8671875 0.242553711
vt 0.843261719 0.220703125
vt 0.830078125 0.275634766
vt 0.83203125 0.232910156
vt 0.813964844 0.201782227
vt 0.821777344 0.285400391
vt 0.796386719 0.313232422
vt 0.784179688 0.308349609
vt 0.806152344 0.270507812
vt 0.8125 0.258789062
vt 0.805175781 0.215820312
vt 0.790527344 0.244506836
vt 0.7734375 0.203125
vt 0.779296875 0.187866211
vt 0.786132812 0.257080078
vt 0.738769531 0.196411133
vt 0.741210938 0.180297852
vt 0.702148438 0.180297852
vt 0.764648438 0.233886719
vt 0.762207031 0.247192383
vt 0.703613281 0.196655273
vt 0.664550781 0.187988281
vt 0.736328125 0.228271484
vt 0.755859375 0.300537109
vt 0.717773438 0.321777344
vt 0.725097656 0.296386719
vt 0.683105469 0.321044922
vt 0.692871094 0.297119141
vt 0.736328125 0.241821289
vt 0.740722656 0.297851562
vt 0.709472656 0.241943359
vt 0.70703125 0.228515625
vt 0.668945312 0.203857422
vt 0.679199219 0.234619141
vt 0.637695312 0.217529297
vt 0.629882812 0.202758789
vt 0.684082031 0.247436523
vt 0.708984375 0.296142578
vt 0.661621094 0.2578125
vt 0.654296875 0.24621582
vt 0.610351562 0.237182617
vt 0.600097656 0.223754883
vt 0.572265625 0.241943359
vt 0.579101562 0.260253906
vt 0.632324219 0.262207031
vt 0.587890625 0.265380859
vt 0.6875 0.309082031
vt 0.642578125 0.272216797
vt 0.614257812 0.282714844
vt 0.626953125 0.290771484
vt 0.574707031 0.294921875
vt 0.572265625 0.241943359
vt 0.552734375 0.250732422
vt 0.6015625 0.307617188
vt 0.552734375 0.279052734
vt 0.530761719 0.250488281
vt 0.615722656 0.312988281
vt 0.568847656 0.333251953
vt 0.530273438 0.276123047
vt 0.368408203 0.20715332
vt 0.595703125 0.336181641
vt 0.568359375 0.371582031
vt 0.54296875 0.330810547
vt 0.680175781 0.333007812
vt 0.612304688 0.337890625
vt 0.678222656 0.344726562
vt 0.677246094 0.368408203
vt 0.596191406 0.365234375
vt 0.612792969 0.363037109
vt 0.677246094 0.356445312
vt 0.7109375 0.373291016
vt 0.711425781 0.399902344
vt 0.727050781 0.401367188
vt 0.661621094 0.44140625
vt 0.654296875 0.453125
vt 0.681152344 0.393554688
vt 0.696289062 0.397460938
vt 0.642578125 0.427001953
vt 0.637695312 0.481201172
vt 0.629394531 0.495849609
vt 0.599121094 0.473876953
vt 0.678710938 0.380859375
vt 0.6328125 0.436767578
vt 0.610351562 0.461181641
vt 0.574707031 0.446777344
vt 0.616699219 0.387695312
vt 0.627441406 0.408935547
vt 0.615234375 0.416748047
vt 0.602539062 0.392822266
vt 0.587890625 0.436279297
vt 0.573242188 0.404296875
vt 0.553222656 0.419921875
vt 0.553222656 0.419921875
vt 0.563476562 0.407226562
vt 0.536621094 0.409179688
vt 0.540039062 0.382324219
vt 0.51953125 0.408447266
vt 0.524414062 0.328613281
vt 0.522460938 0.384033203
vt 0.347900391 0.417724609
vt 0.349121094 0.396240234
vt 0.302490234 0.420410156
vt 0.357910156 0.3125
vt 0.303955078 0.398925781
vt 0.257568359 0.421386719
vt 0.365234375 0.228637695
vt 0.259521484 0.400390625
vt 0.19543457 0.412353516
vt 0.313964844 0.308105469
vt 0.321777344 0.217041016
vt 0.324462891 0.195800781
vt 0.198730469 0.391601562
vt 0.140258789 0.396972656
vt 0.270263672 0.303955078
vt 0.278320312 0.20715332
vt 0.280517578 0.186035156
vt 0.217895508 0.182983398
vt 0.145141602 0.376708984
vt 0.112304688 0.381103516
vt 0.209350586 0.297851562
vt 0.217041016 0.203979492
vt 0.118652344 0.361572266
vt 0.0867919922 0.35546875
vt 0.154663086 0.292480469
vt 0.161621094 0.208129883
vt 0.160766602 0.18737793
vt 0.126342773 0.289794922
vt 0.13269043 0.217895508
vt 0.130249023 0.197509766
vt 0.0845947266 0.285644531
vt 0.104553223 0.347412109
vt 0.116149902 0.229003906
vt 0.100280762 0.217651367
vt 0.072265625 0.329589844
vt 0.0809936523 0.240234375
vt 0.0897827148 0.321777344
vt 0.0667724609 0.306396484
vt 0.0854492188 0.303222656
vt 0.0659179688 0.283935547
vt 0.0711669922 0.261962891
vt 0.0888671875 0.268554688
vt 0.0966796875 0.251464844
vt 0.668457031 0.553710938
vt 0.715332031 0.567871094
vt 0.714355469 0.549316406
vt 0.779296875 0.553222656
vt 0.670410156 0.572265625
vt 0.622070312 0.560058594
vt 0.624511719 0.579101562
vt 0.448486328 0.583496094
vt 0.451416016 0.603515625
vt 0.425537109 0.582519531
vt 0.424072266 0.602050781
vt 0.404541016 0.576171875
vt 0.451904297 0.631835938
vt 0.625488281 0.600585938
vt 0.670898438 0.593261719
vt 0.776367188 0.571289062
vt 0.71484375 0.588378906
vt 0.830566406 0.58203125
vt 0.836914062 0.564941406
vt 0.774902344 0.591308594
vt 0.857910156 0.594726562
vt 0.8671875 0.579101562
vt 0.827636719 0.601074219
vt 0.883300781 0.615234375
vt 0.896484375 0.603027344
vt 0.854003906 0.612792969
vt 0.899414062 0.637207031
vt 0.915527344 0.628417969
vt 0.907226562 0.657226562
vt 0.925292969 0.65234375
vt 0.884277344 0.646484375
vt 0.910644531 0.677734375
vt 0.929199219 0.676757812
vt 0.868164062 0.624511719
vt 0.893554688 0.678222656
vt 0.854492188 0.680175781
vt 0.890625 0.662597656
vt 0.909179688 0.698242188
vt 0.927734375 0.701660156
vt 0.827636719 0.681152344
vt 0.902832031 0.719238281
vt 0.919921875 0.7265625
vt 0.858886719 0.747558594
vt 0.774414062 0.683105469
vt 0.892089844 0.694335938
vt 0.888671875 0.742675781
vt 0.903808594 0.75390625
vt 0.887207031 0.711425781
vt 0.872558594 0.734863281
vt 0.864746094 0.766113281
vt 0.875976562 0.780761719
vt 0.837890625 0.780761719
vt 0.845703125 0.798339844
vt 0.833496094 0.76171875
vt 0.783203125 0.794921875
vt 0.787109375 0.813476562
vt 0.780761719 0.774902344
vt 0.721191406 0.802246094
vt 0.721679688 0.821289062
vt 0.714355469 0.684570312
vt 0.67578125 0.799804688
vt 0.674316406 0.819335938
vt 0.720214844 0.781738281
vt 0.670410156 0.686035156
vt 0.629394531 0.795410156
vt 0.627441406 0.814941406
vt 0.675292969 0.778320312
vt 0.625 0.687011719
vt 0.451416016 0.779785156
vt 0.448486328 0.800292969
vt 0.62890625 0.7734375
vt 0.429443359 0.783691406
vt 0.432128906 0.8046875
vt 0.455078125 0.750488281
vt 0.454589844 0.689941406
vt 0.421875 0.637207031
vt 0.423583984 0.690429688
vt 0.37890625 0.618652344
vt 0.392822266 0.647460938
vt 0.424560547 0.74609375
vt 0.396728516 0.691894531
vt 0.357666016 0.629882812
vt 0.345703125 0.59765625
vt 0.329589844 0.64453125
vt 0.397216797 0.596191406
vt 0.371337891 0.568359375
vt 0.379150391 0.555175781
vt 0.347412109 0.538574219
vt 0.395751953 0.736328125
vt 0.403808594 0.789550781
vt 0.413085938 0.810546875
vt 0.372558594 0.691894531
vt 0.383544922 0.766113281
vt 0.375732422 0.815429688
vt 0.350097656 0.786621094
vt 0.385498047 0.831054688
vt 0.353759766 0.84765625
vt 0.347900391 0.834960938
vt 0.31640625 0.84765625
vt 0.320556641 0.860351562
vt 0.284667969 0.867675781
vt 0.361328125 0.754394531
vt 0.332519531 0.740234375
vt 0.338378906 0.692382812
vt 0.331054688 0.807617188
vt 0.298095703 0.692382812
vt 0.282226562 0.853515625
vt 0.246582031 0.854003906
vt 0.246704102 0.869140625
vt 0.209106445 0.86328125
vt 0.302490234 0.814453125
vt 0.313964844 0.783691406
vt 0.325195312 0.763671875
vt 0.291259766 0.756347656
vt 0.295654297 0.735839844
vt 0.2734375 0.817382812
vt 0.264648438 0.786621094
vt 0.2890625 0.786132812
vt 0.243774414 0.816894531
vt 0.269287109 0.734863281
vt 0.270019531 0.692382812
vt 0.266357422 0.755859375
vt 0.241821289 0.75390625
vt 0.240356445 0.78515625
vt 0.216918945 0.782226562
vt 0.214599609 0.812988281
vt 0.211181641 0.849121094
vt 0.177734375 0.838378906
vt 0.173828125 0.850585938
vt 0.142944336 0.832519531
vt 0.187011719 0.805175781
vt 0.147705078 0.823242188
vt 0.122314453 0.805175781
vt 0.117614746 0.811035156
vt 0.0981445312 0.788085938
vt 0.161621094 0.794921875
vt 0.173583984 0.770996094
vt 0.139526367 0.782714844
vt 0.104064941 0.783203125
vt 0.088684082 0.761230469
vt 0.0836791992 0.764160156
vt 0.0736694336 0.739746094
vt 0.194458008 0.77734375
vt 0.195922852 0.748046875
vt 0.12097168 0.768554688
vt 0.0800170898 0.737792969
vt 0.0659179688 0.691894531
vt 0.111633301 0.749023438
vt 0.13671875 0.755371094
vt 0.218261719 0.750976562
vt 0.21862793 0.730957031
vt 0.154174805 0.763671875
vt 0.155883789 0.740234375
vt 0.073059082 0.691894531
vt 0.0737304688 0.645019531
vt 0.131713867 0.73828125
vt 0.128417969 0.722167969
vt 0.105834961 0.729492188
vt 0.100952148 0.691894531
vt 0.175048828 0.744140625
vt 0.173583984 0.7265625
vt 0.153930664 0.723632812
vt 0.152587891 0.691894531
vt 0.1953125 0.729003906
vt 0.172851562 0.691894531
vt 0.125732422 0.691894531
vt 0.127319336 0.661621094
vt 0.194702148 0.691894531
vt 0.15234375 0.660644531
vt 0.153320312 0.645019531
vt 0.171386719 0.658203125
vt 0.105041504 0.654785156
vt 0.0797119141 0.646972656
vt 0.0876464844 0.625
vt 0.0831298828 0.622558594
vt 0.0962524414 0.600585938
vt 0.110107422 0.63671875
vt 0.101745605 0.604980469
vt 0.118225098 0.583984375
vt 0.113952637 0.579101562
vt 0.137207031 0.558105469
vt 0.129882812 0.646484375
vt 0.118408203 0.618164062
vt 0.134033203 0.630371094
vt 0.135620117 0.604980469
vt 0.141723633 0.56640625
vt 0.170288086 0.551269531
vt 0.166503906 0.540039062
vt 0.200683594 0.526855469
vt 0.150512695 0.622558594
vt 0.168945312 0.615722656
vt 0.15637207 0.593261719
vt 0.17175293 0.641113281
vt 0.192016602 0.637207031
vt 0.180664062 0.583007812
vt 0.192626953 0.655761719
vt 0.215576172 0.653808594
vt 0.189208984 0.609375
vt 0.21105957 0.604492188
vt 0.207519531 0.574707031
vt 0.213989258 0.634277344
vt 0.237426758 0.631347656
vt 0.218139648 0.692382812
vt 0.243286133 0.692382812
vt 0.202880859 0.540039062
vt 0.238037109 0.534179688
vt 0.237915039 0.520019531
vt 0.276123047 0.520019531
vt 0.236572266 0.570800781
vt 0.274169922 0.534179688
vt 0.309326172 0.5390625
vt 0.312988281 0.526855469
vt 0.243286133 0.733398438
vt 0.240112305 0.651855469
vt 0.266113281 0.650390625
vt 0.266601562 0.569824219
vt 0.258789062 0.599609375
vt 0.296142578 0.572265625
vt 0.292724609 0.649414062
vt 0.287109375 0.62890625
vt 0.261962891 0.629882812
vt 0.234375 0.601074219
vt 0.343017578 0.547851562
vt 0.325683594 0.577148438
vt 0.283691406 0.600097656
vt 0.309082031 0.602050781
vt 0.321289062 0.621582031
vn -0.371826172 0.643066406 0.669433594
vn -0.602539062 0.557617188 0.571289062
vn -0.659667969 0.685546875 0.308349609
vn -0.345214844 0.85546875 0.385498047
vn -0.0295410156 0.909179688 0.415527344
vn -0.303955078 0.939941406 0.155761719
vn -0.659667969 0.685546875 0.308349609
vn -0.0439758301 0.707519531 0.705566406
vn -0.0365600586 0.482910156 0.875
vn -0.316162109 0.468017578 0.825195312
vn 0.326171875 0.631347656 0.703613281
vn 0.250732422 0.454833984 0.854492188
vn 0.237670898 0.505371094 0.829589844
vn 0.425292969 0.514160156 0.745117188
vn 0.569824219 0.545898438 0.614257812
vn 0.310546875 0.862792969 0.398925781
vn 0.254394531 0.952148438 0.170532227
vn -0.0252838135 0.987304688 0.156982422
vn -0.00977325439 1 -0.0168609619
vn -0.0259552002 0.508789062 0.860839844
vn 0.546386719 0.524414062 0.653320312
vn 0.642578125 0.560546875 0.521972656
vn 0.619628906 0.701660156 0.352050781
vn 0.326171875 0.631347656 0.703613281
vn 0.569824219 0.545898438 0.614257812
vn 0.104187012 0.898925781 0.42578125
vn 0.203735352 0.896484375 0.393554688
vn -0.0134963989 0.899902344 0.435546875
vn 0.267089844 0.898925781 0.347412109
vn -0.105712891 0.958496094 -0.264648438
vn -0.184204102 0.955566406 -0.229614258
vn 0.627441406 0.751464844 0.20300293
vn 0.760742188 0.615234375 0.206176758
vn 0.737792969 0.591308594 0.326171875
vn 0.768554688 0.632324219 0.0961303711
vn 0.304443359 0.90625 0.292480469
vn -0.240966797 0.950195312 -0.198120117
vn 0.689453125 0.579589844 0.434570312
vn 0.569824219 0.545898438 0.614257812
vn 0.619628906 0.701660156 0.352050781
vn 0.319580078 0.916015625 0.241699219
vn 0.327880859 0.924804688 0.193237305
vn -0.297607422 0.939941406 -0.168457031
vn -0.354492188 0.926269531 -0.127807617
vn 0.329589844 0.933105469 0.142211914
vn -0.734863281 0.395751953 -0.55078125
vn -0.62109375 0.431884766 -0.653808594
vn -0.477050781 0.441650391 -0.759765625
vn -0.262939453 0.442382812 -0.857421875
vn -0.825195312 0.355224609 -0.439697266
vn 0.0263824463 0.448242188 -0.893554688
vn -0.401855469 0.912597656 -0.0738525391
vn -0.893554688 0.32421875 -0.310302734
vn -0.940917969 0.296630859 -0.163818359
vn 0.00677871704 0.960449219 -0.277587891
vn 0.309326172 0.447998047 -0.838867188
vn -0.436767578 0.899414062 -0.00785064697
vn -0.962402344 0.271972656 0.000497817993
vn 0.114685059 0.960449219 -0.254394531
vn 0.521484375 0.450927734 -0.724121094
vn 0.323730469 0.941894531 0.0900268555
vn -0.456054688 0.887207031 0.0706787109
vn -0.131591797 0.896484375 0.423583984
vn 0.190429688 0.958007812 -0.213378906
vn -0.453369141 0.876953125 0.159301758
vn -0.950683594 0.252685547 0.180908203
vn 0.310546875 0.949707031 0.0373840332
vn 0.75390625 0.655761719 -0.0440368652
vn -0.284912109 0.502441406 0.81640625
vn 0.242431641 0.954589844 -0.173583984
vn 0.664550781 0.446289062 -0.599121094
vn -0.234741211 0.893554688 0.382324219
vn -0.466064453 0.522460938 0.713867188
vn -0.371826172 0.643066406 0.669433594
vn -0.602539062 0.557617188 0.571289062
vn -0.595214844 0.523925781 0.608886719
vn -0.306152344 0.893066406 0.329345703
vn 0.291503906 0.946289062 -0.141235352
vn 0.76953125 0.4140625 -0.486328125
vn 0.849609375 0.375488281 -0.370117188
vn -0.345703125 0.898925781 0.268310547
vn 0.342773438 0.934082031 -0.0991210938
vn 0.907226562 0.345214844 -0.240478516
vn -0.695800781 0.546386719 0.466552734
vn -0.602539062 0.557617188 0.571289062
vn -0.659667969 0.685546875 0.308349609
vn -0.735839844 0.563964844 0.375
vn -0.358154297 0.908691406 0.213745117
vn 0.385253906 0.921875 -0.0446166992
vn -0.362792969 0.916992188 0.165283203
vn 0.414794922 0.909667969 0.0187225342
vn 0.942382812 0.319091797 -0.0991821289
vn -0.774902344 0.573242188 0.266357422
vn 0.429931641 0.897949219 0.0922851562
vn 0.954101562 0.294921875 0.0558166504
vn 0.935058594 0.274902344 0.224365234
vn -0.361083984 0.925292969 0.115478516
vn -0.790039062 0.594238281 0.150268555
vn 0.425537109 0.887695312 0.174804688
vn 0.877441406 0.260498047 0.402832031
vn -0.3515625 0.934082031 0.0651855469
vn -0.665527344 0.729003906 0.159545898
vn -0.310058594 0.950683594 -0.0218811035
vn -0.663085938 0.748535156 -0.0213165283
vn -0.311523438 0.851074219 -0.422363281
vn -0.641113281 0.7109375 -0.2890625
vn -0.790039062 0.611328125 0.043762207
vn -0.665527344 0.729003906 0.159545898
vn -0.768554688 0.633789062 -0.0879516602
vn -0.334716797 0.942382812 0.0151138306
vn 0.397705078 0.879882812 0.260742188
vn -0.308837891 0.950195312 -0.0377807617
vn 0.347412109 0.868652344 0.353027344
vn 0.767089844 0.240112305 0.595214844
vn -0.736816406 0.642089844 -0.210327148
vn -0.663085938 0.748535156 -0.0213165283
vn -0.641601562 0.673828125 -0.366210938
vn -0.266113281 0.959960938 -0.0903320312
vn 0.266845703 0.861816406 0.431396484
vn 0.63671875 0.264892578 0.724121094
vn 0.6484375 0.385986328 0.65625
vn 0.211547852 0.911132812 0.353759766
vn -0.207397461 0.970214844 -0.126464844
vn 0.211547852 0.911132812 0.353759766
vn -0.515625 0.778808594 -0.356933594
vn -0.502441406 0.705078125 -0.500488281
vn -0.139892578 0.979003906 -0.149658203
vn -0.334472656 0.741210938 -0.581542969
vn 0.0886230469 0.969726562 0.227661133
vn 0.6484375 0.385986328 0.65625
vn 0.80078125 0.516113281 0.3046875
vn -0.0919189453 0.979492188 -0.180541992
vn 0.225585938 0.960449219 0.1640625
vn 0.877441406 0.477783203 -0.0443725586
vn -0.169677734 0.763671875 -0.622558594
vn -0.00653839111 0.986816406 0.161254883
vn 0.307373047 0.950195312 0.0481262207
vn 0.889160156 0.448486328 -0.0888061523
vn -0.0114440918 0.974609375 -0.223999023
vn -0.0900268555 0.977539062 0.190917969
vn -0.00997924805 0.990234375 0.14050293
vn -0.148925781 0.886230469 -0.438720703
vn -0.0130157471 0.773925781 -0.633300781
vn -0.00482940674 0.896972656 -0.441894531
vn 0.311279297 0.862304688 -0.399414062
vn 0.0779418945 0.971191406 -0.225463867
vn 0.174682617 0.769042969 -0.614746094
vn 0.156982422 0.88671875 -0.435058594
vn 0.267578125 0.963378906 -0.0103683472
vn 0.631835938 0.774902344 0.0168609619
vn 0.627441406 0.751464844 0.20300293
vn 0.728027344 0.663085938 -0.173950195
vn 0.2890625 0.95703125 -0.0190429688
vn 0.623046875 0.735839844 -0.265869141
vn 0.631835938 0.774902344 0.0168609619
vn 0.638183594 0.690917969 -0.339599609
vn -0.424804688 0.870117188 0.250488281
vn -0.895996094 0.24609375 0.369384766
vn -0.791992188 0.240600586 0.561035156
vn 0.477050781 0.808105469 -0.345458984
vn 0.250244141 0.96484375 -0.078125
vn -0.373779297 0.864257812 0.337158203
vn -0.659179688 0.270263672 0.701660156
vn 0.348632812 0.750488281 -0.561523438
vn 0.494384766 0.722167969 -0.484130859
vn 0.205810547 0.971679688 -0.115478516
vn 0.144165039 0.975097656 -0.167602539
vn -0.27734375 0.871582031 0.404052734
vn -0.208984375 0.928710938 0.305908203
vn -0.671875 0.407714844 0.618164062
vn -0.671875 0.407714844 0.618164062
vn -0.208984375 0.928710938 0.305908203
vn -0.803710938 0.538085938 0.253662109
vn -0.237548828 0.957519531 0.163574219
vn -0.885253906 0.458740234 -0.0764770508
vn -0.012588501 0.994628906 0.101379395
vn -0.323486328 0.9453125 0.0392150879
vn -0.892089844 0.434082031 -0.12512207
vn -0.338134766 0.940429688 0.034362793
vn -0.896972656 0.428955078 -0.105712891
vn -0.0120773315 0.994628906 0.105041504
vn -0.344482422 0.937988281 0.0376586914
vn -0.906738281 0.418457031 -0.0491333008
vn 0.322265625 0.9453125 0.0468139648
vn -0.354003906 0.93359375 0.0595703125
vn -0.915527344 0.397705078 0.0560913086
vn -0.0121078491 0.995117188 0.0979003906
vn 0.329345703 0.942382812 0.0544433594
vn 0.895507812 0.44140625 -0.0596923828
vn -0.370361328 0.922851562 0.105895996
vn -0.905273438 0.363525391 0.219116211
vn -0.0121002197 0.995117188 0.0972900391
vn 0.337402344 0.937988281 0.0776367188
vn 0.90234375 0.430908203 -0.00105476379
vn 0.90625 0.41015625 0.10333252
vn -0.386474609 0.903320312 0.185058594
vn -0.850097656 0.307128906 0.427978516
vn -0.0121536255 0.995117188 0.099609375
vn 0.352294922 0.927246094 0.125
vn -0.399414062 0.86328125 0.308349609
vn -0.700683594 0.255859375 0.666015625
vn -0.0122375488 0.994628906 0.102966309
vn 0.364990234 0.907714844 0.206176758
vn 0.887695312 0.375244141 0.265869141
vn -0.0121536255 0.995117188 0.099609375
vn 0.371826172 0.8671875 0.331542969
vn 0.822753906 0.317138672 0.472167969
vn -0.0219116211 0.828613281 0.559570312
vn -0.354492188 0.852050781 0.385009766
vn 0.322265625 0.854980469 0.40625
vn 0.661132812 0.263183594 0.702636719
vn -0.49609375 0.2421875 0.833984375
vn 0.447021484 0.246948242 0.859863281
vn -0.239868164 0.843261719 0.480712891
vn -0.280273438 0.225585938 0.933105469
vn -0.139282227 0.840820312 0.522949219
vn -0.0281677246 0.218139648 0.975585938
vn 0.22644043 0.228027344 0.946777344
vn 0.0967407227 0.841796875 0.53125
vn 0.200927734 0.845214844 0.495117188
vn 0.895507812 0.44140625 -0.0596923828
vn 0.905761719 -0.415283203 -0.0856323242
vn 0.90234375 0.430908203 -0.00105476379
vn 0.90625 0.41015625 0.10333252
vn 0.898925781 -0.413818359 -0.14465332
vn 0.889160156 0.448486328 -0.0888061523
vn 0.892089844 -0.416992188 -0.175292969
vn 0.877441406 0.477783203 -0.0443725586
vn 0.893066406 -0.432373047 -0.122680664
vn 0.80078125 0.516113281 0.3046875
vn 0.859375 -0.486572266 0.156616211
vn 0.6484375 0.385986328 0.65625
vn 0.338134766 -0.936035156 -0.098449707
vn 0.334716797 -0.931640625 -0.140258789
vn 0.340576172 -0.930664062 -0.132202148
vn 0.909179688 -0.416015625 0.0201568604
vn 0.347900391 -0.931152344 -0.109619141
vn 0.890625 -0.415527344 0.185180664
vn 0.887695312 0.375244141 0.265869141
vn 0.361572266 -0.930175781 -0.0631103516
vn 0.824707031 -0.402832031 0.396972656
vn 0.822753906 0.317138672 0.472167969
vn 0.373291016 -0.927734375 0.0167541504
vn 0.663574219 -0.402099609 0.630859375
vn 0.661132812 0.263183594 0.702636719
vn 0.379638672 -0.9140625 0.143920898
vn 0.451171875 -0.423339844 0.785644531
vn 0.447021484 0.246948242 0.859863281
vn 0.232299805 -0.428710938 0.873046875
vn 0.22644043 0.228027344 0.946777344
vn 0.21496582 -0.929199219 0.300537109
vn -0.0199737549 -0.430419922 0.90234375
vn -0.0281677246 0.218139648 0.975585938
vn 0.331542969 -0.91796875 0.217407227
vn 9.30428505E-05 -0.932128906 0.362548828
vn 0.012008667 -0.995605469 -0.0938110352
vn 0.116333008 -0.935058594 0.334228516
vn -0.269775391 -0.435791016 0.858886719
vn -0.280273438 0.225585938 0.933105469
vn 0.0120620728 -0.995117188 -0.0957641602
vn -0.483154297 -0.435791016 0.759277344
vn -0.49609375 0.2421875 0.833984375
vn -0.363525391 -0.923828125 0.121032715
vn 0.0121688843 -0.995117188 -0.100097656
vn -0.114562988 -0.938476562 0.326171875
vn -0.686523438 -0.419921875 0.593261719
vn -0.700683594 0.255859375 0.666015625
vn -0.209838867 -0.935058594 0.286376953
vn -0.320068359 -0.926757812 0.196533203
vn -0.834472656 -0.424072266 0.352050781
vn -0.850097656 0.307128906 0.427978516
vn -0.888671875 -0.4375 0.137573242
vn -0.905273438 0.363525391 0.219116211
vn -0.350097656 -0.936523438 -0.00389862061
vn -0.8984375 -0.437744141 -0.0276947021
vn -0.915527344 0.397705078 0.0560913086
vn -0.334716797 -0.938964844 -0.0819091797
vn -0.889648438 -0.436523438 -0.134277344
vn -0.906738281 0.418457031 -0.0491333008
vn 0.0122375488 -0.994628906 -0.102905273
vn -0.879882812 -0.435302734 -0.19140625
vn -0.896972656 0.428955078 -0.105712891
vn -0.319091797 -0.938964844 -0.127441406
vn 0.0122299194 -0.994628906 -0.102600098
vn -0.870605469 -0.443847656 -0.213134766
vn -0.892089844 0.434082031 -0.12512207
vn -0.310302734 -0.938964844 -0.148803711
vn 0.0118103027 -0.995117188 -0.0960083008
vn -0.869140625 -0.462402344 -0.176391602
vn -0.885253906 0.458740234 -0.0764770508
vn -0.300048828 -0.94140625 -0.153076172
vn -0.868652344 -0.471679688 0.152709961
vn -0.803710938 0.538085938 0.253662109
vn -0.303466797 -0.944824219 -0.122619629
vn 0.00960540771 -0.999023438 -0.0431518555
vn 0.327392578 -0.944335938 0.0344238281
vn 0.0265197754 -0.997070312 0.0739135742
vn 0.430664062 -0.791992188 0.432617188
vn 0.430664062 -0.791992188 0.432617188
vn -0.296386719 -0.952148438 0.0769042969
vn 0.0351867676 -0.918945312 0.393066406
vn 0.289794922 -0.775390625 0.561523438
vn 0.545898438 -0.668457031 0.505371094
vn 0.256347656 -0.888183594 0.381347656
vn 0.714355469 -0.439697266 0.543945312
vn 0.664550781 -0.393798828 0.634765625
vn 0.63671875 0.264892578 0.724121094
vn 0.767089844 0.240112305 0.595214844
vn -0.364746094 -0.845214844 0.391113281
vn -0.697265625 -0.478515625 0.533691406
vn -0.671875 0.407714844 0.618164062
vn 0.0154190063 -0.831054688 0.556152344
vn -0.364746094 -0.845214844 0.391113281
vn -0.682128906 -0.399169922 0.612792969
vn -0.543945312 -0.696777344 0.467041016
vn -0.659179688 0.270263672 0.701660156
vn -0.791992188 0.240600586 0.561035156
vn -0.795898438 -0.355224609 0.489990234
vn -0.892089844 -0.344238281 0.292724609
vn -0.895996094 0.24609375 0.369384766
vn -0.950683594 0.252685547 0.180908203
vn -0.259033203 -0.84375 0.469970703
vn -0.233520508 -0.895507812 0.379150391
vn 0.0111694336 -0.919921875 0.391601562
vn -0.69921875 -0.610351562 0.372802734
vn 0.0201416016 -0.981445312 0.191650391
vn -0.931640625 -0.345458984 0.112121582
vn -0.942382812 -0.328613281 -0.0628051758
vn -0.962402344 0.271972656 0.000497817993
vn -0.940917969 0.296630859 -0.163818359
vn -0.771972656 -0.603027344 0.201171875
vn -0.581542969 -0.772949219 0.254150391
vn -0.434570312 -0.837890625 0.329589844
vn -0.434814453 -0.889160156 0.142456055
vn -0.211425781 -0.961425781 0.174682617
vn -0.798339844 -0.600585938 0.0473937988
vn -0.635742188 -0.771484375 -0.0123672485
vn -0.618164062 -0.776367188 0.122497559
vn -0.804199219 -0.585449219 -0.102111816
vn -0.206298828 -0.978515625 0.000569343567
vn 0.024230957 -0.999511719 0.0131225586
vn -0.448242188 -0.894042969 -0.0130615234
vn -0.446533203 -0.884277344 -0.135742188
vn -0.63671875 -0.759277344 -0.134155273
vn -0.628417969 -0.73828125 -0.245117188
vn -0.793457031 -0.559570312 -0.238769531
vn -0.926757812 -0.302490234 -0.222900391
vn -0.888671875 -0.272460938 -0.368164062
vn -0.893554688 0.32421875 -0.310302734
vn -0.825195312 0.355224609 -0.439697266
vn -0.766601562 -0.528808594 -0.364501953
vn -0.833496094 -0.234375 -0.500488281
vn -0.766113281 -0.180664062 -0.616699219
vn -0.734863281 0.395751953 -0.55078125
vn -0.62109375 0.431884766 -0.653808594
vn -0.727050781 -0.48828125 -0.482421875
vn -0.5859375 -0.675292969 -0.448242188
vn -0.677734375 -0.443603516 -0.586425781
vn -0.658203125 -0.142944336 -0.739257812
vn -0.49609375 -0.135498047 -0.857421875
vn -0.477050781 0.441650391 -0.759765625
vn -0.262939453 0.442382812 -0.857421875
vn -0.610839844 -0.710449219 -0.348632812
vn -0.430419922 -0.831542969 -0.351074219
vn -0.587890625 -0.399414062 -0.703613281
vn -0.271728516 -0.152832031 -0.950195312
vn 0.0263824463 0.448242188 -0.893554688
vn -0.435058594 -0.415283203 -0.798828125
vn -0.497314453 -0.594238281 -0.632324219
vn -0.438720703 -0.864257812 -0.246826172
vn -0.200195312 -0.949707031 -0.240356445
vn -0.549316406 -0.634277344 -0.543945312
vn -0.387451172 -0.728515625 -0.565429688
vn 0.0320129395 -0.157226562 -0.986816406
vn 0.309326172 0.447998047 -0.838867188
vn -0.368164062 -0.626464844 -0.687011719
vn -0.186767578 -0.661132812 -0.727050781
vn -0.234619141 -0.440673828 -0.866699219
vn 0.0319213867 -0.452880859 -0.891113281
vn -0.416259766 -0.788574219 -0.452392578
vn -0.192016602 -0.869628906 -0.454833984
vn -0.184448242 -0.787597656 -0.588378906
vn 0.0308074951 -0.805664062 -0.591796875
vn -0.197265625 -0.916503906 -0.348632812
vn 0.0306091309 -0.892578125 -0.450195312
vn 0.0306549072 -0.67578125 -0.736328125
vn 0.243652344 -0.659179688 -0.711425781
vn 0.0296630859 -0.939453125 -0.341064453
vn 0.239990234 -0.78515625 -0.570800781
vn 0.441162109 -0.72265625 -0.531738281
vn 0.245361328 -0.865722656 -0.436279297
vn 0.293212891 -0.435302734 -0.851074219
vn 0.329345703 -0.145141602 -0.933105469
vn 0.554199219 -0.120361328 -0.823730469
vn 0.521484375 0.450927734 -0.724121094
vn 0.664550781 0.446289062 -0.599121094
vn 0.494628906 -0.404296875 -0.76953125
vn 0.717773438 -0.122314453 -0.685058594
vn 0.819824219 -0.15637207 -0.55078125
vn 0.76953125 0.4140625 -0.486328125
vn 0.849609375 0.375488281 -0.370117188
vn 0.424072266 -0.622070312 -0.658203125
vn 0.650878906 -0.3828125 -0.655273438
vn 0.558105469 -0.584472656 -0.589355469
vn 0.735351562 -0.424316406 -0.528320312
vn 0.878417969 -0.209350586 -0.429931641
vn 0.922363281 -0.246704102 -0.297363281
vn 0.907226562 0.345214844 -0.240478516
vn 0.942382812 0.319091797 -0.0991821289
vn 0.605957031 -0.622070312 -0.49609375
vn 0.637695312 -0.659667969 -0.397216797
vn 0.777832031 -0.466796875 -0.420654297
vn 0.466796875 -0.780761719 -0.415771484
vn 0.476806641 -0.820800781 -0.314208984
vn 0.80859375 -0.504882812 -0.302490234
vn 0.248168945 -0.910644531 -0.330078125
vn 0.248291016 -0.942871094 -0.22265625
vn 0.657226562 -0.692382812 -0.297607422
vn 0.66796875 -0.717773438 -0.196166992
vn 0.826171875 -0.533691406 -0.17956543
vn 0.48046875 -0.851074219 -0.211425781
vn 0.482666016 -0.869628906 -0.102966309
vn 0.0283813477 -0.97265625 -0.231201172
vn 0.0266418457 -0.993164062 -0.115356445
vn 0.948242188 -0.275634766 -0.15637207
vn 0.953613281 -0.301757812 -0.00457382202
vn 0.954101562 0.294921875 0.0558166504
vn 0.935058594 0.274902344 0.224365234
vn 0.828125 -0.55859375 -0.0490112305
vn 0.934082031 -0.319580078 0.159423828
vn 0.884277344 -0.327392578 0.333496094
vn 0.877441406 0.260498047 0.402832031
vn -0.204101562 -0.970703125 -0.125854492
vn 0.248291016 -0.962402344 -0.109558105
vn 0.245483398 -0.969238281 0.0146179199
vn 0.813964844 -0.573730469 0.0921630859
vn 0.662109375 -0.748535156 0.0267944336
vn 0.778808594 -0.577636719 0.244262695
vn 0.243530273 -0.952148438 0.185913086
vn 0.458251953 -0.873046875 0.165771484
vn 0.478271484 -0.877929688 0.0155029297
vn 0.669921875 -0.736816406 -0.0891723633
vn 0.780273438 -0.33984375 0.524902344
vn 0.702148438 -0.579101562 0.414306641
vn 0.638183594 -0.75390625 0.157104492
vn 0.596679688 -0.749023438 0.287109375
vn 0.454101562 -0.8203125 0.347412109
g Teaspoon_0
f 3/3/3 2/2/2 1/1/1
f 4/4/4 3/3/3 1/1/1
f 5/5/5 4/4/4 1/1/1
f 4/4/4 5/5/5 6/6/6
f 7/7/7 4/4/4 6/6/6
f 8/8/8 5/5/5 1/1/1
f 9/9/9 8/8/8 1/1/1
f 10/10/10 9/9/9 1/1/1
f 5/5/5 8/8/8 11/11/11
f 8/8/8 9/9/9 12/12/12
f 11/11/11 8/8/8 12/12/12
f 13/13/13 12/12/12 9/9/9
f 11/11/11 12/12/12 14/14/14
f 13/13/13 14/14/14 12/12/12
f 14/14/14 15/15/15 11/11/11
f 16/16/16 5/5/5 11/11/11
f 5/5/5 16/16/16 17/17/17
f 5/5/5 18/18/18 6/6/6
f 18/18/18 5/5/5 17/17/17
f 6/6/6 18/18/18 19/19/19
f 19/19/19 18/18/18 17/17/17
f 20/20/20 9/9/9 10/10/10
f 20/20/20 13/13/13 9/9/9
f 14/14/14 21/21/21 15/15/15
f 22/22/22 15/15/15 21/21/21
f 16/16/16 23/23/23 17/17/17
f 23/23/23 16/16/16 24/24/24
f 25/25/25 23/23/23 24/24/24
f 14/14/14 13/13/13 26/26/26
f 14/14/14 27/27/27 21/21/21
f 27/27/27 14/14/14 26/26/26
f 28/28/28 26/26/26 13/13/13
f 20/20/20 28/28/28 13/13/13
f 22/22/22 21/21/21 29/29/29
f 27/27/27 29/29/29 21/21/21
f 26/26/26 30/30/30 27/27/27
f 30/30/30 26/26/26 28/28/28
f 27/27/27 31/31/31 29/29/29
f 30/30/30 31/31/31 27/27/27
f 23/23/23 32/32/32 17/17/17
f 32/32/32 23/23/23 33/33/33
f 23/23/23 34/34/34 33/33/33
f 33/33/33 35/35/35 32/32/32
f 36/36/36 22/22/22 29/29/29
f 31/31/31 37/37/37 29/29/29
f 29/29/29 37/37/37 36/36/36
f 22/22/22 36/36/36 38/38/38
f 22/22/22 38/38/38 39/39/39
f 38/38/38 40/40/40 39/39/39
f 34/34/34 40/40/40 38/38/38
f 36/36/36 41/41/41 38/38/38
f 34/34/34 38/38/38 41/41/41
f 34/34/34 42/42/42 33/33/33
f 42/42/42 34/34/34 41/41/41
f 36/36/36 43/43/43 41/41/41
f 37/37/37 43/43/43 36/36/36
f 43/43/43 44/44/44 41/41/41
f 41/41/41 44/44/44 42/42/42
f 42/42/42 45/45/45 33/33/33
f 35/35/35 33/33/33 45/45/45
f 43/43/43 37/37/37 46/46/46
f 44/44/44 43/43/43 46/46/46
f 37/37/37 47/47/47 46/46/46
f 47/47/47 37/37/37 31/31/31
f 48/48/48 47/47/47 31/31/31
f 49/49/49 48/48/48 31/31/31
f 30/30/30 49/49/49 31/31/31
f 50/50/50 44/44/44 46/46/46
f 51/51/51 49/49/49 30/30/30
f 44/44/44 52/52/52 42/42/42
f 44/44/44 50/50/50 52/52/52
f 42/42/42 52/52/52 45/45/45
f 50/50/50 53/53/53 52/52/52
f 53/53/53 54/54/54 52/52/52
f 55/55/55 51/51/51 30/30/30
f 51/51/51 55/55/55 56/56/56
f 55/55/55 30/30/30 28/28/28
f 54/54/54 57/57/57 52/52/52
f 52/52/52 57/57/57 45/45/45
f 57/57/57 54/54/54 58/58/58
f 55/55/55 59/59/59 56/56/56
f 59/59/59 55/55/55 28/28/28
f 56/56/56 59/59/59 60/60/60
f 45/45/45 57/57/57 61/61/61
f 61/61/61 35/35/35 45/45/45
f 62/62/62 57/57/57 58/58/58
f 57/57/57 62/62/62 61/61/61
f 63/63/63 59/59/59 28/28/28
f 28/28/28 20/20/20 63/63/63
f 59/59/59 64/64/64 60/60/60
f 64/64/64 59/59/59 63/63/63
f 65/65/65 62/62/62 58/58/58
f 66/66/66 65/65/65 58/58/58
f 61/61/61 62/62/62 67/67/67
f 62/62/62 65/65/65 67/67/67
f 35/35/35 61/61/61 68/68/68
f 61/61/61 67/67/67 68/68/68
f 20/20/20 69/69/69 63/63/63
f 69/69/69 20/20/20 10/10/10
f 64/64/64 70/70/70 60/60/60
f 70/70/70 71/71/71 60/60/60
f 72/72/72 64/64/64 63/63/63
f 72/72/72 63/63/63 69/69/69
f 70/70/70 64/64/64 72/72/72
f 10/10/10 73/73/73 69/69/69
f 73/73/73 72/72/72 69/69/69
f 73/73/73 10/10/10 74/74/74
f 73/73/73 74/74/74 75/75/75
f 75/75/75 76/76/76 73/73/73
f 72/72/72 73/73/73 77/77/77
f 77/77/77 70/70/70 72/72/72
f 73/73/73 76/76/76 77/77/77
f 71/71/71 70/70/70 78/78/78
f 78/78/78 70/70/70 77/77/77
f 79/79/79 71/71/71 78/78/78
f 80/80/80 79/79/79 78/78/78
f 81/81/81 77/77/77 76/76/76
f 81/81/81 78/78/78 77/77/77
f 82/82/82 80/80/80 78/78/78
f 82/82/82 78/78/78 81/81/81
f 80/80/80 82/82/82 83/83/83
f 84/84/84 81/81/81 76/76/76
f 85/85/85 84/84/84 76/76/76
f 84/84/84 85/85/85 86/86/86
f 87/87/87 84/84/84 86/86/86
f 81/81/81 84/84/84 88/88/88
f 88/88/88 82/82/82 81/81/81
f 84/84/84 87/87/87 88/88/88
f 82/82/82 89/89/89 83/83/83
f 89/89/89 82/82/82 88/88/88
f 90/90/90 88/88/88 87/87/87
f 90/90/90 89/89/89 88/88/88
f 89/89/89 91/91/91 83/83/83
f 91/91/91 89/89/89 90/90/90
f 91/91/91 92/92/92 83/83/83
f 93/93/93 90/90/90 87/87/87
f 93/93/93 87/87/87 7/7/7
f 92/92/92 91/91/91 94/94/94
f 95/95/95 92/92/92 94/94/94
f 96/96/96 95/95/95 94/94/94
f 97/97/97 91/91/91 90/90/90
f 90/90/90 93/93/93 97/97/97
f 94/94/94 91/91/91 97/97/97
f 98/98/98 93/93/93 7/7/7
f 93/93/93 98/98/98 97/97/97
f 99/99/99 96/96/96 94/94/94
f 96/96/96 99/99/99 100/100/100
f 101/101/101 94/94/94 97/97/97
f 101/101/101 97/97/97 98/98/98
f 99/99/99 94/94/94 101/101/101
f 102/102/102 98/98/98 7/7/7
f 102/102/102 7/7/7 6/6/6
f 102/102/102 6/6/6 103/103/103
f 104/104/104 102/102/102 103/103/103
f 103/103/103 6/6/6 19/19/19
f 105/105/105 103/103/103 19/19/19
f 103/103/103 105/105/105 106/106/106
f 106/106/106 104/104/104 103/103/103
f 107/107/107 101/101/101 98/98/98
f 107/107/107 98/98/98 108/108/108
f 107/107/107 108/108/108 104/104/104
f 109/109/109 107/107/107 104/104/104
f 101/101/101 107/107/107 110/110/110
f 110/110/110 99/99/99 101/101/101
f 107/107/107 109/109/109 110/110/110
f 111/111/111 99/99/99 110/110/110
f 99/99/99 111/111/111 100/100/100
f 112/112/112 110/110/110 109/109/109
f 112/112/112 111/111/111 110/110/110
f 111/111/111 113/113/113 100/100/100
f 113/113/113 111/111/111 112/112/112
f 113/113/113 114/114/114 100/100/100
f 115/115/115 112/112/112 109/109/109
f 115/115/115 109/109/109 116/116/116
f 106/106/106 117/117/117 116/116/116
f 117/117/117 115/115/115 116/116/116
f 112/112/112 115/115/115 118/118/118
f 118/118/118 113/113/113 112/112/112
f 115/115/115 117/117/117 118/118/118
f 114/114/114 113/113/113 119/119/119
f 119/119/119 113/113/113 118/118/118
f 120/120/120 114/114/114 119/119/119
f 121/121/121 120/120/120 119/119/119
f 122/122/122 121/121/121 119/119/119
f 123/123/123 119/119/119 118/118/118
f 123/123/123 118/118/118 117/117/117
f 124/124/124 119/119/119 123/123/123
f 106/106/106 125/125/125 117/117/117
f 105/105/105 125/125/125 106/106/106
f 125/125/125 126/126/126 117/117/117
f 126/126/126 123/123/123 117/117/117
f 126/126/126 125/125/125 105/105/105
f 127/127/127 124/124/124 123/123/123
f 123/123/123 126/126/126 127/127/127
f 128/128/128 126/126/126 105/105/105
f 126/126/126 128/128/128 127/127/127
f 129/129/129 124/124/124 127/127/127
f 130/130/130 124/124/124 129/129/129
f 129/129/129 131/131/131 130/130/130
f 132/132/132 127/127/127 128/128/128
f 132/132/132 129/129/129 127/127/127
f 129/129/129 133/133/133 131/131/131
f 131/131/131 133/133/133 134/134/134
f 135/135/135 128/128/128 105/105/105
f 135/135/135 132/132/132 128/128/128
f 136/136/136 129/129/129 132/132/132
f 133/133/133 129/129/129 136/136/136
f 133/133/133 137/137/137 134/134/134
f 138/138/138 134/134/134 137/137/137
f 132/132/132 135/135/135 139/139/139
f 139/139/139 136/136/136 132/132/132
f 140/140/140 136/136/136 139/139/139
f 141/141/141 133/133/133 136/136/136
f 137/137/137 133/133/133 141/141/141
f 141/141/141 136/136/136 140/140/140
f 142/142/142 135/135/135 105/105/105
f 135/135/135 143/143/143 139/139/139
f 143/143/143 135/135/135 142/142/142
f 144/144/144 142/142/142 105/105/105
f 144/144/144 143/143/143 142/142/142
f 19/19/19 144/144/144 105/105/105
f 145/145/145 144/144/144 19/19/19
f 146/146/146 139/139/139 143/143/143
f 146/146/146 140/140/140 139/139/139
f 147/147/147 143/143/143 144/144/144
f 147/147/147 146/146/146 143/143/143
f 145/145/145 148/148/148 144/144/144
f 148/148/148 147/147/147 144/144/144
f 147/147/147 148/148/148 145/145/145
f 19/19/19 149/149/149 145/145/145
f 149/149/149 19/19/19 17/17/17
f 149/149/149 17/17/17 150/150/150
f 17/17/17 151/151/151 150/150/150
f 151/151/151 35/35/35 150/150/150
f 35/35/35 68/68/68 150/150/150
f 68/68/68 152/152/152 150/150/150
f 152/152/152 68/68/68 67/67/67
f 153/153/153 152/152/152 67/67/67
f 67/67/67 65/65/65 153/153/153
f 154/154/154 145/145/145 149/149/149
f 149/149/149 155/155/155 154/154/154
f 155/155/155 152/152/152 156/156/156
f 154/154/154 155/155/155 156/156/156
f 152/152/152 153/153/153 156/156/156
f 65/65/65 157/157/157 153/153/153
f 65/65/65 66/66/66 157/157/157
f 66/66/66 158/158/158 157/157/157
f 158/158/158 159/159/159 157/157/157
f 154/154/154 160/160/160 145/145/145
f 154/154/154 156/156/156 160/160/160
f 153/153/153 157/157/157 161/161/161
f 153/153/153 161/161/161 156/156/156
f 159/159/159 162/162/162 157/157/157
f 157/157/157 162/162/162 161/161/161
f 162/162/162 159/159/159 163/163/163
f 164/164/164 145/145/145 160/160/160
f 164/164/164 147/147/147 145/145/145
f 156/156/156 165/165/165 160/160/160
f 165/165/165 156/156/156 161/161/161
f 165/165/165 164/164/164 160/160/160
f 166/166/166 165/165/165 161/161/161
f 161/161/161 162/162/162 166/166/166
f 165/165/165 166/166/166 164/164/164
f 147/147/147 164/164/164 167/167/167
f 166/166/166 167/167/167 164/164/164
f 146/146/146 147/147/147 167/167/167
f 162/162/162 168/168/168 166/166/166
f 168/168/168 162/162/162 163/163/163
f 166/166/166 168/168/168 167/167/167
f 167/167/167 169/169/169 146/146/146
f 168/168/168 169/169/169 167/167/167
f 169/169/169 168/168/168 163/163/163
f 170/170/170 169/169/169 163/163/163
f 169/169/169 140/140/140 146/146/146
f 140/140/140 172/172/172 171/171/171
f 171/171/171 173/173/173 140/140/140
f 173/173/173 174/174/174 140/140/140
f 174/174/174 141/141/141 140/140/140
f 174/174/174 173/173/173 175/175/175
f 176/176/176 141/141/141 174/174/174
f 176/176/176 137/137/137 141/141/141
f 177/177/177 174/174/174 175/175/175
f 177/177/177 176/176/176 174/174/174
f 177/177/177 175/175/175 178/178/178
f 179/179/179 177/177/177 178/178/178
f 176/176/176 177/177/177 179/179/179
f 179/179/179 178/178/178 180/180/180
f 176/176/176 181/181/181 137/137/137
f 181/181/181 176/176/176 179/179/179
f 182/182/182 179/179/179 180/180/180
f 179/179/179 182/182/182 181/181/181
f 182/182/182 180/180/180 183/183/183
f 181/181/181 184/184/184 137/137/137
f 184/184/184 138/138/138 137/137/137
f 185/185/185 182/182/182 183/183/183
f 185/185/185 183/183/183 186/186/186
f 182/182/182 187/187/187 181/181/181
f 181/181/181 187/187/187 184/184/184
f 182/182/182 185/185/185 187/187/187
f 138/138/138 184/184/184 188/188/188
f 187/187/187 188/188/188 184/184/184
f 189/189/189 138/138/138 188/188/188
f 190/190/190 185/185/185 186/186/186
f 190/190/190 186/186/186 191/191/191
f 185/185/185 192/192/192 187/187/187
f 187/187/187 192/192/192 188/188/188
f 192/192/192 185/185/185 190/190/190
f 189/189/189 188/188/188 193/193/193
f 192/192/192 193/193/193 188/188/188
f 194/194/194 189/189/189 193/193/193
f 195/195/195 194/194/194 193/193/193
f 196/196/196 190/190/190 191/191/191
f 196/196/196 191/191/191 197/197/197
f 198/198/198 192/192/192 190/190/190
f 192/192/192 198/198/198 193/193/193
f 190/190/190 196/196/196 198/198/198
f 199/199/199 195/195/195 193/193/193
f 198/198/198 199/199/199 193/193/193
f 200/200/200 196/196/196 197/197/197
f 200/200/200 197/197/197 201/201/201
f 196/196/196 202/202/202 198/198/198
f 198/198/198 202/202/202 199/199/199
f 196/196/196 200/200/200 202/202/202
f 195/195/195 199/199/199 203/203/203
f 202/202/202 203/203/203 199/199/199
f 204/204/204 195/195/195 203/203/203
f 202/202/202 205/205/205 203/203/203
f 200/200/200 205/205/205 202/202/202
f 204/204/204 203/203/203 206/206/206
f 205/205/205 206/206/206 203/203/203
f 207/207/207 204/204/204 206/206/206
f 208/208/208 205/205/205 200/200/200
f 206/206/206 205/205/205 208/208/208
f 200/200/200 209/209/209 208/208/208
f 209/209/209 200/200/200 201/201/201
f 208/208/208 210/210/210 206/206/206
f 207/207/207 206/206/206 210/210/210
f 211/211/211 207/207/207 210/210/210
f 209/209/209 201/201/201 212/212/212
f 211/211/211 210/210/210 213/213/213
f 214/214/214 209/209/209 212/212/212
f 209/209/209 214/214/214 208/208/208
f 214/214/214 212/212/212 215/215/215
f 216/216/216 214/214/214 215/215/215
f 214/214/214 216/216/216 208/208/208
f 216/216/216 215/215/215 217/217/217
f 208/208/208 216/216/216 217/217/217
f 208/208/208 217/217/217 218/218/218
f 219/219/219 218/218/218 213/213/213
f 219/219/219 208/208/208 218/218/218
f 210/210/210 220/220/220 213/213/213
f 208/208/208 220/220/220 210/210/210
f 220/220/220 219/219/219 213/213/213
f 208/208/208 219/219/219 220/220/220
f 223/223/223 222/222/222 221/221/221
f 222/222/222 223/223/223 224/224/224
f 222/222/222 225/225/225 221/221/221
f 221/221/221 225/225/225 226/226/226
f 225/225/225 227/227/227 226/226/226
f 226/226/226 227/227/227 228/228/228
f 227/227/227 229/229/229 228/228/228
f 228/228/228 229/229/229 230/230/230
f 229/229/229 231/231/231 230/230/230
f 230/230/230 231/231/231 232/232/232
f 233/233/233 229/229/229 227/227/227
f 231/231/231 229/229/229 233/233/233
f 234/234/234 227/227/227 225/225/225
f 234/234/234 233/233/233 227/227/227
f 235/235/235 225/225/225 222/222/222
f 235/235/235 234/234/234 225/225/225
f 236/236/236 222/222/222 224/224/224
f 237/237/237 235/235/235 222/222/222
f 237/237/237 222/222/222 236/236/236
f 238/238/238 236/236/236 224/224/224
f 239/239/239 238/238/238 224/224/224
f 240/240/240 237/237/237 236/236/236
f 240/240/240 236/236/236 238/238/238
f 241/241/241 238/238/238 239/239/239
f 242/242/242 241/241/241 239/239/239
f 243/243/243 240/240/240 238/238/238
f 243/243/243 238/238/238 241/241/241
f 244/244/244 241/241/241 242/242/242
f 245/245/245 244/244/244 242/242/242
f 246/246/246 243/243/243 241/241/241
f 246/246/246 241/241/241 244/244/244
f 247/247/247 244/244/244 245/245/245
f 248/248/248 247/247/247 245/245/245
f 249/249/249 247/247/247 248/248/248
f 250/250/250 249/249/249 248/248/248
f 244/244/244 247/247/247 251/251/251
f 247/247/247 249/249/249 251/251/251
f 252/252/252 249/249/249 250/250/250
f 253/253/253 252/252/252 250/250/250
f 254/254/254 246/246/246 244/244/244
f 254/254/254 244/244/244 251/251/251
f 246/246/246 254/254/254 255/255/255
f 254/254/254 251/251/251 255/255/255
f 255/255/255 256/256/256 246/246/246
f 246/246/246 256/256/256 243/243/243
f 251/251/251 257/257/257 255/255/255
f 249/249/249 257/257/257 251/251/251
f 249/249/249 252/252/252 257/257/257
f 252/252/252 255/255/255 257/257/257
f 258/258/258 252/252/252 253/253/253
f 252/252/252 258/258/258 255/255/255
f 259/259/259 258/258/258 253/253/253
f 256/256/256 260/260/260 243/243/243
f 243/243/243 260/260/260 240/240/240
f 261/261/261 258/258/258 259/259/259
f 262/262/262 261/261/261 259/259/259
f 263/263/263 256/256/256 255/255/255
f 256/256/256 263/263/263 260/260/260
f 260/260/260 264/264/264 240/240/240
f 240/240/240 264/264/264 237/237/237
f 258/258/258 265/265/265 255/255/255
f 258/258/258 261/261/261 265/265/265
f 266/266/266 261/261/261 262/262/262
f 267/267/267 266/266/266 262/262/262
f 261/261/261 268/268/268 265/265/265
f 255/255/255 265/265/265 268/268/268
f 261/261/261 266/266/266 268/268/268
f 255/255/255 268/268/268 269/269/269
f 266/266/266 269/269/269 268/268/268
f 255/255/255 269/269/269 263/263/263
f 270/270/270 266/266/266 267/267/267
f 266/266/266 270/270/270 269/269/269
f 270/270/270 263/263/263 269/269/269
f 271/271/271 270/270/270 267/267/267
f 272/272/272 270/270/270 271/271/271
f 270/270/270 272/272/272 263/263/263
f 273/273/273 272/272/272 271/271/271
f 272/272/272 274/274/274 263/263/263
f 263/263/263 274/274/274 260/260/260
f 260/260/260 274/274/274 264/264/264
f 275/275/275 272/272/272 273/273/273
f 272/272/272 275/275/275 274/274/274
f 276/276/276 275/275/275 273/273/273
f 274/274/274 277/277/277 264/264/264
f 275/275/275 277/277/277 274/274/274
f 278/278/278 275/275/275 276/276/276
f 275/275/275 278/278/278 277/277/277
f 279/279/279 278/278/278 276/276/276
f 264/264/264 277/277/277 280/280/280
f 264/264/264 280/280/280 237/237/237
f 237/237/237 280/280/280 235/235/235
f 281/281/281 278/278/278 279/279/279
f 282/282/282 281/281/281 279/279/279
f 278/278/278 283/283/283 277/277/277
f 277/277/277 283/283/283 280/280/280
f 278/278/278 281/281/281 283/283/283
f 280/280/280 284/284/284 235/235/235
f 280/280/280 283/283/283 284/284/284
f 235/235/235 284/284/284 234/234/234
f 285/285/285 281/281/281 282/282/282
f 286/286/286 285/285/285 282/282/282
f 281/281/281 287/287/287 283/283/283
f 283/283/283 287/287/287 284/284/284
f 281/281/281 285/285/285 287/287/287
f 284/284/284 288/288/288 234/234/234
f 284/284/284 287/287/287 288/288/288
f 234/234/234 288/288/288 233/233/233
f 289/289/289 285/285/285 286/286/286
f 290/290/290 289/289/289 286/286/286
f 285/285/285 291/291/291 287/287/287
f 287/287/287 291/291/291 288/288/288
f 285/285/285 289/289/289 291/291/291
f 289/289/289 290/290/290 292/292/292
f 290/290/290 293/293/293 292/292/292
f 289/289/289 294/294/294 291/291/291
f 291/291/291 294/294/294 288/288/288
f 289/289/289 292/292/292 294/294/294
f 288/288/288 295/295/295 233/233/233
f 294/294/294 295/295/295 288/288/288
f 233/233/233 295/295/295 296/296/296
f 296/296/296 231/231/231 233/233/233
f 295/295/295 294/294/294 297/297/297
f 295/295/295 297/297/297 296/296/296
f 231/231/231 296/296/296 298/298/298
f 296/296/296 297/297/297 299/299/299
f 294/294/294 300/300/300 297/297/297
f 292/292/292 300/300/300 294/294/294
f 297/297/297 301/301/301 299/299/299
f 297/297/297 300/300/300 301/301/301
f 302/302/302 299/299/299 301/301/301
f 303/303/303 298/298/298 302/302/302
f 303/303/303 302/302/302 304/304/304
f 305/305/305 231/231/231 298/298/298
f 305/305/305 298/298/298 303/303/303
f 231/231/231 305/305/305 232/232/232
f 305/305/305 306/306/306 232/232/232
f 306/306/306 305/305/305 303/303/303
f 306/306/306 307/307/307 232/232/232
f 307/307/307 306/306/306 308/308/308
f 309/309/309 300/300/300 292/292/292
f 300/300/300 309/309/309 301/301/301
f 310/310/310 309/309/309 292/292/292
f 292/292/292 293/293/293 310/310/310
f 293/293/293 311/311/311 310/310/310
f 312/312/312 302/302/302 301/301/301
f 312/312/312 301/301/301 313/313/313
f 302/302/302 312/312/312 304/304/304
f 314/314/314 310/310/310 311/311/311
f 310/310/310 314/314/314 313/313/313
f 314/314/314 315/315/315 313/313/313
f 316/316/316 314/314/314 311/311/311
f 314/314/314 316/316/316 317/317/317
f 318/318/318 314/314/314 317/317/317
f 314/314/314 318/318/318 315/315/315
f 319/319/319 318/318/318 317/317/317
f 320/320/320 319/319/319 317/317/317
f 319/319/319 320/320/320 321/321/321
f 322/322/322 312/312/312 313/313/313
f 313/313/313 315/315/315 322/322/322
f 312/312/312 322/322/322 323/323/323
f 322/322/322 315/315/315 323/323/323
f 312/312/312 324/324/324 304/304/304
f 324/324/324 312/312/312 323/323/323
f 318/318/318 319/319/319 325/325/325
f 318/318/318 325/325/325 315/315/315
f 324/324/324 326/326/326 304/304/304
f 326/326/326 324/324/324 323/323/323
f 327/327/327 319/319/319 321/321/321
f 328/328/328 327/327/327 321/321/321
f 329/329/329 328/328/328 321/321/321
f 328/328/328 329/329/329 330/330/330
f 319/319/319 331/331/331 325/325/325
f 319/319/319 327/327/327 331/331/331
f 315/315/315 325/325/325 332/332/332
f 325/325/325 331/331/331 332/332/332
f 315/315/315 333/333/333 323/323/323
f 333/333/333 315/315/315 332/332/332
f 333/333/333 334/334/334 323/323/323
f 334/334/334 333/333/333 332/332/332
f 335/335/335 326/326/326 323/323/323
f 334/334/334 335/335/335 323/323/323
f 336/336/336 327/327/327 328/328/328
f 327/327/327 336/336/336 331/331/331
f 331/331/331 336/336/336 337/337/337
f 331/331/331 338/338/338 332/332/332
f 338/338/338 334/334/334 332/332/332
f 338/338/338 331/331/331 337/337/337
f 334/334/334 338/338/338 337/337/337
f 339/339/339 336/336/336 328/328/328
f 336/336/336 339/339/339 337/337/337
f 335/335/335 334/334/334 340/340/340
f 326/326/326 335/335/335 341/341/341
f 335/335/335 340/340/340 341/341/341
f 342/342/342 334/334/334 337/337/337
f 334/334/334 342/342/342 340/340/340
f 343/343/343 342/342/342 337/337/337
f 342/342/342 343/343/343 340/340/340
f 339/339/339 344/344/344 337/337/337
f 344/344/344 343/343/343 337/337/337
f 344/344/344 339/339/339 345/345/345
f 343/343/343 344/344/344 345/345/345
f 339/339/339 328/328/328 346/346/346
f 339/339/339 346/346/346 345/345/345
f 328/328/328 347/347/347 346/346/346
f 347/347/347 328/328/328 330/330/330
f 348/348/348 347/347/347 330/330/330
f 347/347/347 348/348/348 346/346/346
f 349/349/349 348/348/348 330/330/330
f 348/348/348 349/349/349 350/350/350
f 348/348/348 351/351/351 346/346/346
f 346/346/346 351/351/351 345/345/345
f 352/352/352 348/348/348 350/350/350
f 348/348/348 352/352/352 351/351/351
f 353/353/353 352/352/352 350/350/350
f 354/354/354 353/353/353 350/350/350
f 353/353/353 354/354/354 355/355/355
f 352/352/352 356/356/356 351/351/351
f 352/352/352 353/353/353 356/356/356
f 351/351/351 356/356/356 357/357/357
f 353/353/353 358/358/358 356/356/356
f 356/356/356 358/358/358 357/357/357
f 359/359/359 353/353/353 355/355/355
f 353/353/353 359/359/359 358/358/358
f 360/360/360 359/359/359 355/355/355
f 361/361/361 360/360/360 355/355/355
f 360/360/360 361/361/361 362/362/362
f 351/351/351 363/363/363 345/345/345
f 363/363/363 351/351/351 357/357/357
f 363/363/363 364/364/364 345/345/345
f 364/364/364 363/363/363 357/357/357
f 359/359/359 365/365/365 358/358/358
f 359/359/359 360/360/360 365/365/365
f 366/366/366 360/360/360 362/362/362
f 366/366/366 362/362/362 367/367/367
f 360/360/360 368/368/368 365/365/365
f 360/360/360 366/366/366 368/368/368
f 358/358/358 365/365/365 369/369/369
f 365/365/365 368/368/368 369/369/369
f 364/364/364 370/370/370 345/345/345
f 370/370/370 364/364/364 371/371/371
f 370/370/370 343/343/343 345/345/345
f 343/343/343 370/370/370 371/371/371
f 358/358/358 372/372/372 357/357/357
f 372/372/372 358/358/358 369/369/369
f 372/372/372 373/373/373 357/357/357
f 373/373/373 372/372/372 369/369/369
f 374/374/374 366/366/366 367/367/367
f 374/374/374 367/367/367 375/375/375
f 368/368/368 376/376/376 369/369/369
f 376/376/376 373/373/373 369/369/369
f 376/376/376 368/368/368 377/377/377
f 373/373/373 376/376/376 377/377/377
f 366/366/366 378/378/378 368/368/368
f 368/368/368 378/378/378 377/377/377
f 378/378/378 366/366/366 379/379/379
f 366/366/366 374/374/374 379/379/379
f 378/378/378 379/379/379 377/377/377
f 373/373/373 380/380/380 357/357/357
f 380/380/380 364/364/364 357/357/357
f 380/380/380 373/373/373 381/381/381
f 364/364/364 380/380/380 381/381/381
f 382/382/382 373/373/373 377/377/377
f 373/373/373 382/382/382 381/381/381
f 383/383/383 382/382/382 377/377/377
f 382/382/382 383/383/383 381/381/381
f 384/384/384 364/364/364 381/381/381
f 364/364/364 384/384/384 371/371/371
f 384/384/384 381/381/381 385/385/385
f 383/383/383 385/385/385 381/381/381
f 379/379/379 386/386/386 377/377/377
f 386/386/386 383/383/383 377/377/377
f 386/386/386 379/379/379 387/387/387
f 383/383/383 386/386/386 387/387/387
f 384/384/384 388/388/388 371/371/371
f 388/388/388 384/384/384 385/385/385
f 383/383/383 389/389/389 385/385/385
f 389/389/389 383/383/383 387/387/387
f 390/390/390 389/389/389 387/387/387
f 389/389/389 391/391/391 385/385/385
f 388/388/388 385/385/385 391/391/391
f 389/389/389 390/390/390 391/391/391
f 379/379/379 392/392/392 387/387/387
f 392/392/392 379/379/379 374/374/374
f 393/393/393 392/392/392 374/374/374
f 393/393/393 374/374/374 375/375/375
f 394/394/394 393/393/393 375/375/375
f 393/393/393 394/394/394 392/392/392
f 395/395/395 394/394/394 375/375/375
f 394/394/394 395/395/395 396/396/396
f 392/392/392 397/397/397 387/387/387
f 394/394/394 397/397/397 392/392/392
f 398/398/398 394/394/394 396/396/396
f 394/394/394 398/398/398 397/397/397
f 399/399/399 398/398/398 396/396/396
f 400/400/400 399/399/399 396/396/396
f 399/399/399 400/400/400 401/401/401
f 402/402/402 390/390/390 387/387/387
f 397/397/397 402/402/402 387/387/387
f 398/398/398 403/403/403 397/397/397
f 398/398/398 399/399/399 403/403/403
f 402/402/402 397/397/397 404/404/404
f 397/397/397 403/403/403 404/404/404
f 390/390/390 402/402/402 404/404/404
f 399/399/399 405/405/405 403/403/403
f 403/403/403 405/405/405 404/404/404
f 406/406/406 399/399/399 401/401/401
f 399/399/399 406/406/406 405/405/405
f 407/407/407 406/406/406 401/401/401
f 408/408/408 407/407/407 401/401/401
f 407/407/407 408/408/408 409/409/409
f 410/410/410 390/390/390 404/404/404
f 405/405/405 410/410/410 404/404/404
f 390/390/390 410/410/410 411/411/411
f 410/410/410 405/405/405 411/411/411
f 406/406/406 412/412/412 405/405/405
f 412/412/412 406/406/406 407/407/407
f 405/405/405 412/412/412 411/411/411
f 413/413/413 390/390/390 411/411/411
f 414/414/414 413/413/413 411/411/411
f 390/390/390 413/413/413 391/391/391
f 413/413/413 414/414/414 391/391/391
f 412/412/412 415/415/415 411/411/411
f 415/415/415 412/412/412 407/407/407
f 414/414/414 416/416/416 391/391/391
f 416/416/416 414/414/414 417/417/417
f 416/416/416 388/388/388 391/391/391
f 388/388/388 416/416/416 417/417/417
f 418/418/418 414/414/414 411/411/411
f 415/415/415 418/418/418 411/411/411
f 414/414/414 418/418/418 419/419/419
f 418/418/418 415/415/415 419/419/419
f 415/415/415 407/407/407 420/420/420
f 415/415/415 420/420/420 419/419/419
f 414/414/414 421/421/421 417/417/417
f 421/421/421 414/414/414 419/419/419
f 421/421/421 422/422/422 417/417/417
f 422/422/422 421/421/421 419/419/419
f 423/423/423 388/388/388 417/417/417
f 388/388/388 423/423/423 371/371/371
f 424/424/424 423/423/423 417/417/417
f 423/423/423 424/424/424 371/371/371
f 407/407/407 425/425/425 420/420/420
f 425/425/425 407/407/407 409/409/409
f 426/426/426 425/425/425 409/409/409
f 425/425/425 426/426/426 420/420/420
f 427/427/427 426/426/426 409/409/409
f 426/426/426 427/427/427 428/428/428
f 420/420/420 429/429/429 419/419/419
f 426/426/426 429/429/429 420/420/420
f 430/430/430 426/426/426 428/428/428
f 426/426/426 430/430/430 429/429/429
f 431/431/431 430/430/430 428/428/428
f 432/432/432 431/431/431 428/428/428
f 431/431/431 432/432/432 308/308/308
f 424/424/424 433/433/433 371/371/371
f 433/433/433 343/343/343 371/371/371
f 343/343/343 433/433/433 340/340/340
f 433/433/433 424/424/424 340/340/340
f 424/424/424 341/341/341 340/340/340
f 424/424/424 434/434/434 341/341/341
f 434/434/434 424/424/424 417/417/417
f 422/422/422 434/434/434 417/417/417
f 434/434/434 435/435/435 341/341/341
f 434/434/434 422/422/422 435/435/435
f 326/326/326 341/341/341 435/435/435
f 430/430/430 431/431/431 436/436/436
f 430/430/430 436/436/436 429/429/429
f 429/429/429 436/436/436 437/437/437
f 431/431/431 438/438/438 436/436/436
f 436/436/436 438/438/438 437/437/437
f 439/439/439 326/326/326 435/435/435
f 440/440/440 439/439/439 435/435/435
f 326/326/326 439/439/439 304/304/304
f 439/439/439 440/440/440 304/304/304
f 422/422/422 441/441/441 435/435/435
f 441/441/441 440/440/440 435/435/435
f 441/441/441 422/422/422 437/437/437
f 440/440/440 441/441/441 437/437/437
f 442/442/442 429/429/429 437/437/437
f 422/422/422 442/442/442 437/437/437
f 429/429/429 442/442/442 419/419/419
f 442/442/442 422/422/422 419/419/419
f 431/431/431 443/443/443 438/438/438
f 443/443/443 431/431/431 308/308/308
f 306/306/306 443/443/443 308/308/308
f 443/443/443 306/306/306 444/444/444
f 443/443/443 444/444/444 438/438/438
f 306/306/306 303/303/303 444/444/444
f 438/438/438 445/445/445 437/437/437
f 445/445/445 440/440/440 437/437/437
f 438/438/438 444/444/444 446/446/446
f 445/445/445 438/438/438 446/446/446
f 444/444/444 303/303/303 446/446/446
f 440/440/440 445/445/445 446/446/446
f 303/303/303 447/447/447 446/446/446
f 447/447/447 440/440/440 446/446/446
f 447/447/447 303/303/303 304/304/304
f 440/440/440 447/447/447 304/304/304
