g Tomato_01
v 0.000389501452 -0.000459288276 0.00281266146
v 0.000389501452 -0.000459288276 0.00244184467
v 4.94505948E-05 -0.00109147723 0.00244185654
v 4.94505948E-05 -0.00109147723 0.00281266146
v 0.000566582079 0.00019939075 0.00281266146
v 0.000566582079 0.00019939075 0.0024418442
v 0.00107832893 -0.000257261796 0.00244185654
v 0.00107832893 -0.000257261883 0.00281266146
v 0.000603817927 0.000980753801 0.00281266146
v 0.000603817927 0.000980753801 0.00244184374
v 0.000566582079 0.00019939075 0.0024418442
v 0.000566582079 0.00019939075 0.00281266146
v -6.51697383E-06 0.000572415593 0.00281266146
v -6.51697383E-06 0.000572415593 0.00244184374
v 0.000603817927 0.000980753801 0.00244184374
v 0.000603817927 0.000980753801 0.00281266146
v -0.000721580815 0.000911063806 0.00281266146
v -0.000721580815 0.000911063806 0.00244184374
v -6.51697383E-06 0.000572415593 0.00244184374
v -6.51697383E-06 0.000572415593 0.00281266146
v -0.000538058055 0.000141442317 0.00281266146
v -0.000538058055 0.000141442317 0.00244184374
v -0.000721580815 0.000911063806 0.00244184374
v -0.000721580815 0.000911063806 0.00281266146
v -0.0010637393 -0.000371302274 0.00281266146
v -0.0010637393 -0.000371302274 0.00244184374
v -0.000538058055 0.000141442317 0.00244184374
v -0.000538058055 0.000141442317 0.00281266146
v -0.000291555916 -0.000496387715 0.00281266146
v -0.000291555916 -0.000496387773 0.0024418442
v -0.0010637393 -0.000371302274 0.00244184374
v -0.0010637393 -0.000371302274 0.00281266146
v 4.94505948E-05 -0.00109147723 0.00281266146
v 4.94505948E-05 -0.00109147723 0.00244185654
v -0.000291555916 -0.000496387773 0.0024418442
v -0.000291555916 -0.000496387715 0.00281266146
v 0.000389501452 -0.000459288276 0.00244184467
v 0.00107832893 -0.000257261796 0.00244185654
v 0.000566582079 0.00019939075 0.0024418442
v -6.51697383E-06 0.000572415593 0.00244184374
v 0.000603817927 0.000980753801 0.00244184374
v 4.94505948E-05 -0.00109147723 0.00244185654
v -0.000291555916 -0.000496387773 0.0024418442
v -0.000721580815 0.000911063806 0.00244184374
v -0.000538058055 0.000141442317 0.00244184374
v -0.0010637393 -0.000371302274 0.00244184374
v 0.000389501452 -0.000459288276 0.00281266146
v 0.000566582079 0.00019939075 0.00281266146
v 0.00107832893 -0.000257261883 0.00281266146
v -6.51697383E-06 0.000572415593 0.00281266146
v 0.000603817927 0.000980753801 0.00281266146
v 4.94505948E-05 -0.00109147723 0.00281266146
v -0.000291555916 -0.000496387715 0.00281266146
v -0.000721580815 0.000911063806 0.00281266146
v -0.000538058055 0.000141442317 0.00281266146
v -0.0010637393 -0.000371302274 0.00281266146
v 0.00107832893 -0.000257261883 0.00281266146
v 0.00107832893 -0.000257261796 0.00244185654
v 0.000389501452 -0.000459288276 0.00244184467
v 0.000389501452 -0.000459288276 0.00281266146
v -0 0 0.00222334894
v -0.00064008811 0.00064008811 0.00241949176
v -0 0.000667439483 0.00238672225
v -0 0.00123326923 0.00237170001
v -0.00066744088 0 0.00238672341
v -0.00064008811 -0.00064008811 0.00241949176
v -0.00123326899 0 0.00237170025
v -0 -0.000667439483 0.00238672225
v -0 -0.00123326934 0.00237170001
v -0.000528299075 0.00117533142 0.00234370679
v -0.000640088518 0.00149079785 0.00192591886
v -0 0.0016113437 0.00194882823
v -0 0.00174410583 0.00138979196
v -0.00100695994 0.00100695994 0.00223322585
v -0.00117533072 0.000528299366 0.00234370609
v -0.00149079785 0.000640088518 0.00192591886
v -0.00117533072 0.00117533072 0.00183228613
v -0.00123326899 0.00123326899 0.00138979196
v -0.000667440356 0.0016113437 0.00138979196
v -0.000640088518 0.00149079785 0.000853664998
v -0 0.0016113437 0.000830755685
v -0 0.00123326911 0.000363494444
v -0.000528299133 0.00117533095 0.000409492408
v -0.000640088227 0.000640088227 0.000168455095
v -0 0.000667439657 8.41027504E-05
v -0 0 5.96046434E-10
v -0.00100695994 0.00100695994 0.000546648633
v -0.00117533072 0.00117533072 0.000947297784
v -0.00149079785 0.000640088518 0.000853664998
v -0.0016113437 0.000667440356 0.00138979196
v -0.00174410583 0 0.00138979196
v -0.00117533072 0.00052829925 0.000409492408
v -0.00123326899 0 0.000363494444
v -0.000667440705 0 8.41027504E-05
v -0.000640088227 -0.000640088227 0.000168455095
v -0 -0.000667439657 8.41027504E-05
v -0 -0.00123326911 0.000363494444
v -0.0016113437 0 0.00194882823
v -0.00149079785 -0.000640088518 0.00192591886
v -0.0016113437 0 0.000830755685
v -0.00149079785 -0.000640088518 0.000853664998
v -0.00117533072 -0.00052829925 0.000409492408
v -0.00100695994 -0.00100695994 0.000546648633
v -0.000528299133 -0.00117533095 0.000409492408
v -0.000640088518 -0.00149079785 0.000853664998
v -0 -0.0016113437 0.000830755685
v -0 -0.00174410583 0.00138979196
v -0.00117533072 -0.000528299366 0.00234370609
v -0.00100695994 -0.00100695994 0.00223322585
v -0.00117533072 -0.00117533072 0.000947297784
v -0.00123326899 -0.00123326899 0.00138979196
v -0.000667440356 -0.0016113437 0.00138979196
v -0.000640088518 -0.00149079785 0.00192591886
v -0 -0.0016113437 0.00194882823
v -0.000528299075 -0.00117533142 0.00234370679
v -0.00117533072 -0.00117533072 0.00183228613
v -0.0016113437 -0.000667440356 0.00138979196
v -0 0 0.00222334894
v 0.00064008811 -0.00064008811 0.00241949176
v -0 -0.000667439483 0.00238672225
v -0 -0.00123326934 0.00237170001
v 0.00066744088 0 0.00238672341
v 0.00064008811 0.00064008811 0.00241949176
v 0.00123326899 0 0.00237170025
v -0 0.000667439483 0.00238672225
v -0 0.00123326923 0.00237170001
v 0.000528299075 -0.00117533142 0.00234370679
v 0.000640088518 -0.00149079785 0.00192591886
v -0 -0.0016113437 0.00194882823
v -0 -0.00174410583 0.00138979196
v 0.00100695994 -0.00100695994 0.00223322585
v 0.00117533072 -0.000528299366 0.00234370609
v 0.00149079785 -0.000640088518 0.00192591886
v 0.00117533072 -0.00117533072 0.00183228613
v 0.00123326899 -0.00123326899 0.00138979196
v 0.000667440356 -0.0016113437 0.00138979196
v 0.000640088518 -0.00149079785 0.000853664998
v -0 -0.0016113437 0.000830755685
v -0 -0.00123326911 0.000363494444
v 0.000528299133 -0.00117533095 0.000409492408
v 0.000640088227 -0.000640088227 0.000168455095
v -0 -0.000667439657 8.41027504E-05
v -0 0 5.96046434E-10
v 0.00100695994 -0.00100695994 0.000546648633
v 0.00117533072 -0.00117533072 0.000947297784
v 0.00149079785 -0.000640088518 0.000853664998
v 0.0016113437 -0.000667440356 0.00138979196
v 0.00174410583 0 0.00138979196
v 0.00117533072 -0.00052829925 0.000409492408
v 0.00123326899 0 0.000363494444
v 0.000667440705 0 8.41027504E-05
v 0.000640088227 0.000640088227 0.000168455095
v -0 0.000667439657 8.41027504E-05
v -0 0.00123326911 0.000363494444
v 0.0016113437 0 0.00194882823
v 0.00149079785 0.000640088518 0.00192591886
v 0.0016113437 0 0.000830755685
v 0.00149079785 0.000640088518 0.000853664998
v 0.00117533072 0.00052829925 0.000409492408
v 0.00100695994 0.00100695994 0.000546648633
v 0.000528299133 0.00117533095 0.000409492408
v 0.000640088518 0.00149079785 0.000853664998
v -0 0.0016113437 0.000830755685
v -0 0.00174410583 0.00138979196
v 0.00117533072 0.000528299366 0.00234370609
v 0.00100695994 0.00100695994 0.00223322585
v 0.00117533072 0.00117533072 0.000947297784
v 0.00123326899 0.00123326899 0.00138979196
v 0.000667440356 0.0016113437 0.00138979196
v 0.000640088518 0.00149079785 0.00192591886
v -0 0.0016113437 0.00194882823
v 0.000528299075 0.00117533142 0.00234370679
v 0.00117533072 0.00117533072 0.00183228613
v 0.0016113437 0.000667440356 0.00138979196
vt 0.0885620117 0.723144531
vt 0.0561218262 0.745117188
vt 0.0991210938 0.8125
vt 0.112915039 0.779296875
vt 0.0780639648 0.622558594
vt 0.0466308594 0.600097656
vt 0.000444889069 0.657714844
vt 0.0347900391 0.661132812
vt 0.113098145 0.545410156
vt 0.0990600586 0.515625
vt 0.0559082031 0.586914062
vt 0.0880737305 0.608398438
vt 0.171875 0.578125
vt 0.185302734 0.539550781
vt 0.107116699 0.512207031
vt 0.117858887 0.543457031
vt 0.259277344 0.5859375
vt 0.284423828 0.5625
vt 0.200317383 0.544433594
vt 0.188476562 0.583496094
vt 0.242797852 0.658203125
vt 0.284423828 0.66015625
vt 0.289794922 0.569335938
vt 0.262451172 0.58984375
vt 0.259765625 0.739257812
vt 0.289794922 0.755859375
vt 0.283691406 0.676269531
vt 0.242553711 0.676269531
vt 0.187988281 0.748046875
vt 0.197753906 0.788574219
vt 0.284912109 0.763183594
vt 0.256835938 0.744140625
vt 0.118164062 0.78125
vt 0.108825684 0.815917969
vt 0.181152344 0.79296875
vt 0.170532227 0.753417969
vt 0.368652344 0.599609375
vt 0.305664062 0.63671875
vt 0.367431641 0.669433594
vt 0.434326172 0.690917969
vt 0.383544922 0.74609375
vt 0.385253906 0.528320312
vt 0.435302734 0.577636719
vt 0.512695312 0.705078125
vt 0.4765625 0.634277344
vt 0.513183594 0.569824219
vt 0.0978393555 0.706054688
vt 0.0978393555 0.624023438
vt 0.0453796387 0.663574219
vt 0.176025391 0.597167969
vt 0.119628906 0.554199219
vt 0.119628906 0.770507812
vt 0.17590332 0.733886719
vt 0.251953125 0.594726562
vt 0.225463867 0.666015625
vt 0.249633789 0.734863281
vt 0.0348510742 0.666503906
vt 0 0.66796875
vt 0.0464782715 0.730957031
vt 0.0784912109 0.708496094
vt 0.546875 0.402587891
vt 0.594238281 0.276855469
vt 0.50390625 0.294433594
vt 0.5 0.200561523
vt 0.630371094 0.342285156
vt 0.681152344 0.397460938
vt 0.677734375 0.308105469
vt 0.636230469 0.477050781
vt 0.724121094 0.510742188
vt 0.572753906 0.215087891
vt 0.604980469 0.162597656
vt 0.52734375 0.111755371
vt 0.591796875 0.0445861816
vt 0.626953125 0.228515625
vt 0.650390625 0.270263672
vt 0.685058594 0.241088867
vt 0.65625 0.196899414
vt 0.687011719 0.172119141
vt 0.646484375 0.117492676
vt 0.701660156 0.0904541016
vt 0.674316406 0.00190448761
vt 0.772460938 0
vt 0.764160156 0.0739746094
vt 0.823730469 0.111572266
vt 0.870605469 0.0323791504
vt 0.956542969 0.106567383
vt 0.758789062 0.130859375
vt 0.719726562 0.150024414
vt 0.75390625 0.190551758
vt 0.719238281 0.215820312
vt 0.749023438 0.256591797
vt 0.793945312 0.165405273
vt 0.823242188 0.20300293
vt 0.875 0.165405273
vt 0.91015625 0.230834961
vt 1 0.211547852
vt 1 0.314697266
vt 0.714355469 0.281738281
vt 0.743652344 0.322265625
vt 0.783691406 0.231445312
vt 0.812988281 0.272705078
vt 0.849609375 0.242431641
vt 0.871582031 0.286621094
vt 0.927246094 0.299560547
vt 0.892089844 0.353759766
vt 0.967285156 0.407226562
vt 0.900878906 0.472167969
vt 0.705078125 0.345703125
vt 0.737304688 0.381103516
vt 0.840820312 0.317626953
vt 0.809570312 0.342041016
vt 0.848632812 0.397460938
vt 0.79296875 0.422851562
vt 0.816894531 0.512207031
vt 0.732910156 0.436767578
vt 0.776367188 0.36328125
vt 0.778320312 0.297607422
vt 0.0469970703 0.402587891
vt 0.0939941406 0.276855469
vt 0.00413513184 0.294433594
vt 0 0.200561523
vt 0.130249023 0.342285156
vt 0.181152344 0.397460938
vt 0.177612305 0.308105469
vt 0.136108398 0.477050781
vt 0.223999023 0.510742188
vt 0.0729370117 0.215087891
vt 0.104919434 0.162597656
vt 0.0274658203 0.111755371
vt 0.0919189453 0.0445861816
vt 0.126953125 0.228515625
vt 0.150512695 0.270263672
vt 0.184814453 0.241088867
vt 0.15637207 0.196899414
vt 0.187011719 0.172119141
vt 0.146484375 0.117492676
vt 0.201660156 0.0904541016
vt 0.174560547 0.00190448761
vt 0.272705078 0
vt 0.264160156 0.0739746094
vt 0.323974609 0.111572266
vt 0.370605469 0.0323791504
vt 0.456542969 0.106567383
vt 0.258789062 0.130859375
vt 0.219726562 0.150024414
vt 0.25390625 0.190551758
vt 0.219238281 0.215820312
vt 0.248901367 0.256591797
vt 0.293945312 0.165405273
vt 0.322998047 0.20300293
vt 0.375244141 0.165405273
vt 0.41015625 0.230834961
vt 0.5 0.211547852
vt 0.5 0.314697266
vt 0.214233398 0.281738281
vt 0.243530273 0.322265625
vt 0.283691406 0.231445312
vt 0.313232422 0.272705078
vt 0.349609375 0.242431641
vt 0.371337891 0.286621094
vt 0.427001953 0.299560547
vt 0.391845703 0.353759766
vt 0.467285156 0.407226562
vt 0.400878906 0.472167969
vt 0.205078125 0.345703125
vt 0.237304688 0.381103516
vt 0.341064453 0.317626953
vt 0.309814453 0.342041016
vt 0.348876953 0.397460938
vt 0.29296875 0.422851562
vt 0.316894531 0.512207031
vt 0.233032227 0.436767578
vt 0.276611328 0.36328125
vt 0.278320312 0.297607422
vn 0.880859375 -0.473632812 0
vn 0.880859375 -0.473632812 0
vn 0.880859375 -0.473632812 0
vn 0.880859375 -0.473632812 0
vn 0.666015625 0.74609375 0
vn 0.666015625 0.74609375 0
vn 0.666015625 0.74609375 0
vn 0.666015625 0.74609375 0
vn 0.999023438 -0.0476074219 0
vn 0.999023438 -0.0476074219 0
vn 0.999023438 -0.0476074219 0
vn 0.999023438 -0.0476074219 0
vn -0.556152344 0.831054688 0
vn -0.556152344 0.831054688 0
vn -0.556152344 0.831054688 0
vn -0.556152344 0.831054688 0
vn 0.427978516 0.903808594 0
vn 0.427978516 0.903808594 0
vn 0.427978516 0.903808594 0
vn 0.427978516 0.903808594 0
vn -0.97265625 -0.231933594 0
vn -0.97265625 -0.231933594 0
vn -0.97265625 -0.231933594 0
vn -0.97265625 -0.231933594 0
vn -0.698242188 0.715820312 0
vn -0.698242188 0.715820312 0
vn -0.698242188 0.715820312 0
vn -0.698242188 0.715820312 0
vn -0.159912109 -0.987304688 0
vn -0.159912109 -0.987304688 0
vn -0.159912109 -0.987304688 0
vn -0.159912109 -0.987304688 0
vn -0.867675781 -0.497070312 0
vn -0.867675781 -0.497070312 0
vn -0.867675781 -0.497070312 0
vn -0.867675781 -0.497070312 0
vn 2.62260437E-06 -3.15904617E-06 -1
vn 2.62260437E-06 -3.15904617E-06 -1
vn 2.62260437E-06 -3.15904617E-06 -1
vn 2.62260437E-06 -3.15904617E-06 -1
vn 2.62260437E-06 -3.15904617E-06 -1
vn 2.62260437E-06 -3.15904617E-06 -1
vn 2.62260437E-06 -3.15904617E-06 -1
vn 2.62260437E-06 -3.15904617E-06 -1
vn 2.62260437E-06 -3.15904617E-06 -1
vn 2.62260437E-06 -3.15904617E-06 -1
vn -0 0 1
vn -0 0 1
vn -0 0 1
vn -0 0 1
vn -0 0 1
vn -0 0 1
vn -0 0 1
vn -0 0 1
vn -0 0 1
vn -0 0 1
vn 0.281494141 -0.959472656 -1.78813934E-07
vn 0.281494141 -0.959472656 -1.78813934E-07
vn 0.281494141 -0.959472656 -1.78813934E-07
vn 0.281494141 -0.959472656 -1.78813934E-07
vn -0 0 1
vn -0.0541687012 0.0541687012 0.997070312
vn -0 -0.0313720703 0.999511719
vn -0 0.471679688 0.881835938
vn 0.0313720703 0 0.999511719
vn -0.0541687012 -0.0541687012 0.997070312
vn -0.471679688 0 0.881835938
vn -0 0.0313720703 0.999511719
vn -0 -0.471679688 0.881835938
vn -0.202026367 0.481689453 0.852539062
vn -0.341308594 0.841308594 0.419433594
vn -0 0.895507812 0.444824219
vn -0 1 0
vn -0.479003906 0.479003906 0.735351562
vn -0.481689453 0.202026367 0.852539062
vn -0.841308594 0.341308594 0.419433594
vn -0.657714844 0.657714844 0.367431641
vn -0.70703125 0.70703125 0
vn -0.372558594 0.927734375 0
vn -0.346679688 0.844726562 -0.407714844
vn -0 0.903808594 -0.428222656
vn -0 0.631347656 -0.775390625
vn -0.275390625 0.608398438 -0.744140625
vn -0.286865234 0.286865234 -0.9140625
vn -0 0.288330078 -0.957519531
vn -0 0 -1
vn -0.534667969 0.534667969 -0.654296875
vn -0.659179688 0.659179688 -0.361083984
vn -0.844726562 0.346679688 -0.407714844
vn -0.927734375 0.372558594 0
vn -1 0 0
vn -0.608398438 0.275390625 -0.744140625
vn -0.631347656 0 -0.775390625
vn -0.288330078 0 -0.957519531
vn -0.286865234 -0.286865234 -0.9140625
vn -0 -0.288330078 -0.957519531
vn -0 -0.631347656 -0.775390625
vn -0.895507812 0 0.444824219
vn -0.841308594 -0.341308594 0.419433594
vn -0.903808594 0 -0.428222656
vn -0.844726562 -0.346679688 -0.407714844
vn -0.608398438 -0.275390625 -0.744140625
vn -0.534667969 -0.534667969 -0.654296875
vn -0.275390625 -0.608398438 -0.744140625
vn -0.346679688 -0.844726562 -0.407714844
vn -0 -0.903808594 -0.428222656
vn -0 -1 0
vn -0.481689453 -0.202026367 0.852539062
vn -0.479003906 -0.479003906 0.735351562
vn -0.659179688 -0.659179688 -0.361083984
vn -0.70703125 -0.70703125 0
vn -0.372558594 -0.927734375 0
vn -0.341308594 -0.841308594 0.419433594
vn -0 -0.895507812 0.444824219
vn -0.202026367 -0.481689453 0.852539062
vn -0.657714844 -0.657714844 0.367431641
vn -0.927734375 -0.372558594 0
vn -0 0 1
vn 0.0541687012 -0.0541687012 0.997070312
vn -0 0.0313720703 0.999511719
vn -0 -0.471679688 0.881835938
vn -0.0313720703 0 0.999511719
vn 0.0541687012 0.0541687012 0.997070312
vn 0.471679688 0 0.881835938
vn -0 -0.0313720703 0.999511719
vn -0 0.471679688 0.881835938
vn 0.202026367 -0.481689453 0.852539062
vn 0.341308594 -0.841308594 0.419433594
vn -0 -0.895507812 0.444824219
vn -0 -1 0
vn 0.479003906 -0.479003906 0.735351562
vn 0.481689453 -0.202026367 0.852539062
vn 0.841308594 -0.341308594 0.419433594
vn 0.657714844 -0.657714844 0.367431641
vn 0.70703125 -0.70703125 0
vn 0.372558594 -0.927734375 0
vn 0.346679688 -0.844726562 -0.407714844
vn -0 -0.903808594 -0.428222656
vn -0 -0.631347656 -0.775390625
vn 0.275390625 -0.608398438 -0.744140625
vn 0.286865234 -0.286865234 -0.9140625
vn -0 -0.288330078 -0.957519531
vn -0 0 -1
vn 0.534667969 -0.534667969 -0.654296875
vn 0.659179688 -0.659179688 -0.361083984
vn 0.844726562 -0.346679688 -0.407714844
vn 0.927734375 -0.372558594 0
vn 1 0 0
vn 0.608398438 -0.275390625 -0.744140625
vn 0.631347656 0 -0.775390625
vn 0.288330078 0 -0.957519531
vn 0.286865234 0.286865234 -0.9140625
vn -0 0.288330078 -0.957519531
vn -0 0.631347656 -0.775390625
vn 0.895507812 0 0.444824219
vn 0.841308594 0.341308594 0.419433594
vn 0.903808594 0 -0.428222656
vn 0.844726562 0.346679688 -0.407714844
vn 0.608398438 0.275390625 -0.744140625
vn 0.534667969 0.534667969 -0.654296875
vn 0.275390625 0.608398438 -0.744140625
vn 0.346679688 0.844726562 -0.407714844
vn -0 0.903808594 -0.428222656
vn -0 1 0
vn 0.481689453 0.202026367 0.852539062
vn 0.479003906 0.479003906 0.735351562
vn 0.659179688 0.659179688 -0.361083984
vn 0.70703125 0.70703125 0
vn 0.372558594 0.927734375 0
vn 0.341308594 0.841308594 0.419433594
vn -0 0.895507812 0.444824219
vn 0.202026367 0.481689453 0.852539062
vn 0.657714844 0.657714844 0.367431641
vn 0.927734375 0.372558594 0
g Tomato_01_0
f 3/3/3 2/2/2 1/1/1
f 4/4/4 3/3/3 1/1/1
f 7/7/7 6/6/6 5/5/5
f 8/8/8 7/7/7 5/5/5
f 11/11/11 10/10/10 9/9/9
f 12/12/12 11/11/11 9/9/9
f 15/15/15 14/14/14 13/13/13
f 16/16/16 15/15/15 13/13/13
f 19/19/19 18/18/18 17/17/17
f 20/20/20 19/19/19 17/17/17
f 23/23/23 22/22/22 21/21/21
f 24/24/24 23/23/23 21/21/21
f 27/27/27 26/26/26 25/25/25
f 28/28/28 27/27/27 25/25/25
f 31/31/31 30/30/30 29/29/29
f 32/32/32 31/31/31 29/29/29
f 35/35/35 34/34/34 33/33/33
f 36/36/36 35/35/35 33/33/33
f 39/39/39 38/38/38 37/37/37
f 39/39/39 37/37/37 40/40/40
f 40/40/40 41/41/41 39/39/39
f 37/37/37 42/42/42 40/40/40
f 42/42/42 43/43/43 40/40/40
f 43/43/43 44/44/44 40/40/40
f 43/43/43 45/45/45 44/44/44
f 45/45/45 43/43/43 46/46/46
f 49/49/49 48/48/48 47/47/47
f 50/50/50 47/47/47 48/48/48
f 48/48/48 51/51/51 50/50/50
f 50/50/50 52/52/52 47/47/47
f 50/50/50 53/53/53 52/52/52
f 50/50/50 54/54/54 53/53/53
f 54/54/54 55/55/55 53/53/53
f 53/53/53 55/55/55 56/56/56
f 59/59/59 58/58/58 57/57/57
f 60/60/60 59/59/59 57/57/57
g Tomato_01_1
f 63/63/63 62/62/62 61/61/61
f 62/62/62 63/63/63 64/64/64
f 62/62/62 65/65/65 61/61/61
f 65/65/65 66/66/66 61/61/61
f 65/65/65 62/62/62 67/67/67
f 66/66/66 65/65/65 67/67/67
f 66/66/66 68/68/68 61/61/61
f 68/68/68 66/66/66 69/69/69
f 70/70/70 62/62/62 64/64/64
f 71/71/71 70/70/70 64/64/64
f 72/72/72 71/71/71 64/64/64
f 71/71/71 72/72/72 73/73/73
f 62/62/62 70/70/70 74/74/74
f 70/70/70 71/71/71 74/74/74
f 62/62/62 75/75/75 67/67/67
f 75/75/75 62/62/62 74/74/74
f 76/76/76 75/75/75 74/74/74
f 75/75/75 76/76/76 67/67/67
f 71/71/71 77/77/77 74/74/74
f 77/77/77 76/76/76 74/74/74
f 77/77/77 71/71/71 78/78/78
f 76/76/76 77/77/77 78/78/78
f 79/79/79 71/71/71 73/73/73
f 71/71/71 79/79/79 78/78/78
f 80/80/80 79/79/79 73/73/73
f 79/79/79 80/80/80 78/78/78
f 81/81/81 80/80/80 73/73/73
f 80/80/80 81/81/81 82/82/82
f 83/83/83 80/80/80 82/82/82
f 84/84/84 83/83/83 82/82/82
f 85/85/85 84/84/84 82/82/82
f 84/84/84 85/85/85 86/86/86
f 80/80/80 83/83/83 87/87/87
f 83/83/83 84/84/84 87/87/87
f 80/80/80 88/88/88 78/78/78
f 88/88/88 80/80/80 87/87/87
f 88/88/88 89/89/89 78/78/78
f 89/89/89 88/88/88 87/87/87
f 90/90/90 76/76/76 78/78/78
f 89/89/89 90/90/90 78/78/78
f 76/76/76 90/90/90 91/91/91
f 90/90/90 89/89/89 91/91/91
f 84/84/84 92/92/92 87/87/87
f 92/92/92 89/89/89 87/87/87
f 92/92/92 84/84/84 93/93/93
f 89/89/89 92/92/92 93/93/93
f 94/94/94 84/84/84 86/86/86
f 84/84/84 94/94/94 93/93/93
f 95/95/95 94/94/94 86/86/86
f 94/94/94 95/95/95 93/93/93
f 96/96/96 95/95/95 86/86/86
f 95/95/95 96/96/96 97/97/97
f 98/98/98 76/76/76 91/91/91
f 99/99/99 98/98/98 91/91/91
f 76/76/76 98/98/98 67/67/67
f 98/98/98 99/99/99 67/67/67
f 100/100/100 89/89/89 93/93/93
f 89/89/89 100/100/100 91/91/91
f 101/101/101 100/100/100 93/93/93
f 100/100/100 101/101/101 91/91/91
f 95/95/95 102/102/102 93/93/93
f 102/102/102 101/101/101 93/93/93
f 102/102/102 95/95/95 103/103/103
f 101/101/101 102/102/102 103/103/103
f 104/104/104 95/95/95 97/97/97
f 95/95/95 104/104/104 103/103/103
f 105/105/105 104/104/104 97/97/97
f 104/104/104 105/105/105 103/103/103
f 106/106/106 105/105/105 97/97/97
f 105/105/105 106/106/106 107/107/107
f 99/99/99 108/108/108 67/67/67
f 108/108/108 66/66/66 67/67/67
f 66/66/66 108/108/108 109/109/109
f 108/108/108 99/99/99 109/109/109
f 110/110/110 101/101/101 103/103/103
f 105/105/105 110/110/110 103/103/103
f 101/101/101 110/110/110 111/111/111
f 110/110/110 105/105/105 111/111/111
f 112/112/112 105/105/105 107/107/107
f 105/105/105 112/112/112 111/111/111
f 113/113/113 112/112/112 107/107/107
f 112/112/112 113/113/113 111/111/111
f 114/114/114 113/113/113 107/107/107
f 113/113/113 114/114/114 69/69/69
f 66/66/66 115/115/115 69/69/69
f 115/115/115 66/66/66 109/109/109
f 115/115/115 113/113/113 69/69/69
f 113/113/113 115/115/115 109/109/109
f 116/116/116 113/113/113 109/109/109
f 99/99/99 116/116/116 109/109/109
f 113/113/113 116/116/116 111/111/111
f 116/116/116 99/99/99 111/111/111
f 117/117/117 101/101/101 111/111/111
f 99/99/99 117/117/117 111/111/111
f 101/101/101 117/117/117 91/91/91
f 117/117/117 99/99/99 91/91/91
f 120/120/120 119/119/119 118/118/118
f 119/119/119 120/120/120 121/121/121
f 119/119/119 122/122/122 118/118/118
f 122/122/122 123/123/123 118/118/118
f 122/122/122 119/119/119 124/124/124
f 123/123/123 122/122/122 124/124/124
f 123/123/123 125/125/125 118/118/118
f 125/125/125 123/123/123 126/126/126
f 127/127/127 119/119/119 121/121/121
f 128/128/128 127/127/127 121/121/121
f 129/129/129 128/128/128 121/121/121
f 128/128/128 129/129/129 130/130/130
f 119/119/119 127/127/127 131/131/131
f 127/127/127 128/128/128 131/131/131
f 119/119/119 132/132/132 124/124/124
f 132/132/132 119/119/119 131/131/131
f 133/133/133 132/132/132 131/131/131
f 132/132/132 133/133/133 124/124/124
f 128/128/128 134/134/134 131/131/131
f 134/134/134 133/133/133 131/131/131
f 134/134/134 128/128/128 135/135/135
f 133/133/133 134/134/134 135/135/135
f 136/136/136 128/128/128 130/130/130
f 128/128/128 136/136/136 135/135/135
f 137/137/137 136/136/136 130/130/130
f 136/136/136 137/137/137 135/135/135
f 138/138/138 137/137/137 130/130/130
f 137/137/137 138/138/138 139/139/139
f 140/140/140 137/137/137 139/139/139
f 141/141/141 140/140/140 139/139/139
f 142/142/142 141/141/141 139/139/139
f 141/141/141 142/142/142 143/143/143
f 137/137/137 140/140/140 144/144/144
f 140/140/140 141/141/141 144/144/144
f 137/137/137 145/145/145 135/135/135
f 145/145/145 137/137/137 144/144/144
f 145/145/145 146/146/146 135/135/135
f 146/146/146 145/145/145 144/144/144
f 147/147/147 133/133/133 135/135/135
f 146/146/146 147/147/147 135/135/135
f 133/133/133 147/147/147 148/148/148
f 147/147/147 146/146/146 148/148/148
f 141/141/141 149/149/149 144/144/144
f 149/149/149 146/146/146 144/144/144
f 149/149/149 141/141/141 150/150/150
f 146/146/146 149/149/149 150/150/150
f 151/151/151 141/141/141 143/143/143
f 141/141/141 151/151/151 150/150/150
f 152/152/152 151/151/151 143/143/143
f 151/151/151 152/152/152 150/150/150
f 153/153/153 152/152/152 143/143/143
f 152/152/152 153/153/153 154/154/154
f 155/155/155 133/133/133 148/148/148
f 156/156/156 155/155/155 148/148/148
f 133/133/133 155/155/155 124/124/124
f 155/155/155 156/156/156 124/124/124
f 157/157/157 146/146/146 150/150/150
f 146/146/146 157/157/157 148/148/148
f 158/158/158 157/157/157 150/150/150
f 157/157/157 158/158/158 148/148/148
f 152/152/152 159/159/159 150/150/150
f 159/159/159 158/158/158 150/150/150
f 159/159/159 152/152/152 160/160/160
f 158/158/158 159/159/159 160/160/160
f 161/161/161 152/152/152 154/154/154
f 152/152/152 161/161/161 160/160/160
f 162/162/162 161/161/161 154/154/154
f 161/161/161 162/162/162 160/160/160
f 163/163/163 162/162/162 154/154/154
f 162/162/162 163/163/163 164/164/164
f 156/156/156 165/165/165 124/124/124
f 165/165/165 123/123/123 124/124/124
f 123/123/123 165/165/165 166/166/166
f 165/165/165 156/156/156 166/166/166
f 167/167/167 158/158/158 160/160/160
f 162/162/162 167/167/167 160/160/160
f 158/158/158 167/167/167 168/168/168
f 167/167/167 162/162/162 168/168/168
f 169/169/169 162/162/162 164/164/164
f 162/162/162 169/169/169 168/168/168
f 170/170/170 169/169/169 164/164/164
f 169/169/169 170/170/170 168/168/168
f 171/171/171 170/170/170 164/164/164
f 170/170/170 171/171/171 126/126/126
f 123/123/123 172/172/172 126/126/126
f 172/172/172 123/123/123 166/166/166
f 172/172/172 170/170/170 126/126/126
f 170/170/170 172/172/172 166/166/166
f 173/173/173 170/170/170 166/166/166
f 156/156/156 173/173/173 166/166/166
f 170/170/170 173/173/173 168/168/168
f 173/173/173 156/156/156 168/168/168
f 174/174/174 158/158/158 168/168/168
f 156/156/156 174/174/174 168/168/168
f 158/158/158 174/174/174 148/148/148
f 174/174/174 156/156/156 148/148/148
